<svg height="42" viewBox="0 0 38 38" fill="none" xmlns="http://www.w3.org/2000/svg">
<path d="M36.7768 1.39C36.0582 0.88 35.085 0.94 34.4561 1.51L14.3033 18.85C14.2284 18.91 14.1236 18.925 14.0338 18.88L3.07403 14.26L32.0456 2.515L31.1173 0.25L1.80138 12.13C0.962927 12.43 0.379004 13.21 0.319114 14.11C0.259225 15.025 0.738341 15.88 1.54685 16.285L12.9708 21.1C13.944 21.58 15.1418 21.4 15.9203 20.695L34.2914 4.885L22.4183 34.3L17.4176 23.17C17.1331 22.555 16.5641 22.12 15.9054 22C15.2466 21.88 14.5728 22.075 14.0937 22.525L5.45464 30.175L7.07165 32.02L15.3963 24.655L20.3971 35.77L20.427 35.83C20.8163 36.595 21.5799 37.06 22.4333 37.06C22.4633 37.06 22.5082 37.06 22.5381 37.06C23.4365 37.015 24.2 36.475 24.5294 35.65L37.4356 3.67C37.765 2.83 37.4955 1.9 36.7768 1.39Z" fill="#5B86E5"/>
<path d="M13.0384 27.7285L3.79535 35.9145L5.42161 37.7575L14.6647 29.5715L13.0384 27.7285Z" fill="#5B86E5"/>
<path d="M10.6943 21.2526L7.12677 24.4113L8.75278 26.2545L12.3204 23.0958L10.6943 21.2526Z" fill="#5B86E5"/>
</svg>
