<svg  height="42" viewBox="0 0 42 36" fill="none" xmlns="http://www.w3.org/2000/svg">
<path d="M7.7691 35.625V29.385C7.7691 28.095 6.72104 27.045 5.43341 27.045C2.76833 27.045 0.612305 24.87 0.612305 22.215V9.585C0.612305 6.915 2.7833 4.755 5.43341 4.755H16.7525V7.245H5.43341C4.14579 7.245 3.09773 8.295 3.09773 9.585V22.215C3.09773 23.505 4.14579 24.555 5.43341 24.555C8.0985 24.555 10.2545 26.73 10.2545 29.385V29.595L14.8511 24.99C15.7644 24.075 16.9771 23.58 18.2648 23.58H36.2017C37.4893 23.58 38.5373 22.53 38.5373 21.24V14.52C38.5373 13.23 37.4893 12.18 36.2017 12.18H32.2639C29.5988 12.18 27.4428 10.005 27.4428 7.35V6.42L22.5618 11.31C21.6485 12.225 20.4357 12.72 19.1481 12.72H13.773C12.4854 12.72 11.4373 13.77 11.4373 15.06V18.075H8.95193V15.06C8.95193 12.39 11.1229 10.23 13.773 10.23H19.1481C19.777 10.23 20.3609 9.99 20.7951 9.54L29.9282 0.389999V7.35C29.9282 8.64 30.9763 9.69 32.2639 9.69H36.2017C38.8667 9.69 41.0228 11.865 41.0228 14.52V21.24C41.0228 23.91 38.8518 26.07 36.2017 26.07H18.2648C17.6359 26.07 17.052 26.31 16.6178 26.76L7.7691 35.625Z" fill="#5B86E5"/>
<path d="M18.4593 16.11C17.4113 16.11 16.5728 16.965 16.5728 18C16.5728 19.05 17.4262 19.89 18.4593 19.89C19.5074 19.89 20.3459 19.035 20.3459 18C20.3459 16.95 19.5074 16.11 18.4593 16.11Z" fill="#5B86E5"/>
<path d="M24.9723 19.89C26.0142 19.89 26.8588 19.0438 26.8588 18C26.8588 16.9562 26.0142 16.11 24.9723 16.11C23.9304 16.11 23.0858 16.9562 23.0858 18C23.0858 19.0438 23.9304 19.89 24.9723 19.89Z" fill="#5B86E5"/>
<path d="M31.5003 19.89C32.5422 19.89 33.3868 19.0438 33.3868 18C33.3868 16.9562 32.5422 16.11 31.5003 16.11C30.4584 16.11 29.6138 16.9562 29.6138 18C29.6138 19.0438 30.4584 19.89 31.5003 19.89Z" fill="#5B86E5"/>
</svg>
