<svg  height="42" viewBox="0 0 31 46" fill="none" xmlns="http://www.w3.org/2000/svg">
<path d="M30.6028 20.045C27.8628 15.05 24.6737 8.73501 23.97 5.99001C23.7604 5.18001 23.7754 4.50501 24.524 3.89001C25.1678 3.35001 25.9613 3.38001 26.4105 3.66501C27.0693 4.10001 26.9196 5.06001 26.7698 5.58501C26.5752 6.30501 26.2458 6.51501 25.9913 6.62001L27.0843 9.38001C27.9527 9.03501 29.1055 8.22501 29.6296 6.38001C30.2434 4.17501 29.6445 2.22501 28.0275 1.17501C26.4255 0.12501 24.2096 0.30501 22.6375 1.59501C21.5595 2.48001 20.4216 4.08501 21.0953 6.72501C22.0386 10.415 26.2308 18.275 27.9976 21.47C28.0125 21.485 28.0125 21.515 27.9976 21.53L19.074 42.485C19.0591 42.515 19.0142 42.545 18.9692 42.53L3.44288 35.885C3.39796 35.87 3.38299 35.825 3.39796 35.78L12.3514 14.78C12.3514 14.765 12.3664 14.75 12.3964 14.735L21.0953 12.02L20.2119 9.18501L11.483 11.9L11.4531 11.915C10.6296 12.2 9.97083 12.815 9.64144 13.595L0.687966 34.595C0.029181 36.14 0.747855 37.925 2.29001 38.585L17.8164 45.23C18.2056 45.395 18.6099 45.47 19.0142 45.47C19.4034 45.47 19.7777 45.395 20.1521 45.245C20.9007 44.945 21.4996 44.36 21.814 43.61L30.7375 22.67C31.0969 21.845 31.0519 20.87 30.6028 20.045Z" fill="#5B86E5"/>
<path d="M17.5019 19.01C17.0078 20.15 17.5468 21.47 18.6847 21.965C19.8226 22.46 21.1402 21.92 21.6343 20.78C22.1284 19.64 21.5894 18.32 20.4515 17.825C19.3136 17.345 17.981 17.87 17.5019 19.01Z" fill="#5B86E5"/>
</svg>
