<svg height="42" viewBox="0 0 38 44" fill="none" xmlns="http://www.w3.org/2000/svg">
<path d="M16.6242 43.75V36.355H19.6486V39.595C23.811 38.005 27.1199 35.605 29.6951 32.305C32.6297 28.57 34.112 24.235 34.112 19.405C34.112 14.785 32.6596 11.02 29.6801 7.885C26.7156 4.78 23.1522 3.28 18.7952 3.28C14.3484 3.28 10.5604 4.825 7.56596 7.87C4.52656 10.945 3.05926 14.68 3.05926 19.27C3.05926 23.605 4.43672 27.13 7.25153 30.055C9.04821 31.93 11.2342 33.265 13.7495 34.045L12.8512 36.94C9.84175 36.01 7.22157 34.405 5.06555 32.155C1.72671 28.69 0.0198669 24.355 0.0198669 19.27C0.0198669 13.915 1.83152 9.355 5.39494 5.74C8.98831 2.095 13.48 0.25 18.7802 0.25C23.9307 0.25 28.3326 2.11 31.8511 5.8C35.3397 9.475 37.1214 14.065 37.1214 19.42C37.1214 24.94 35.4146 29.905 32.0608 34.18C28.7369 38.425 24.2003 41.455 18.5557 43.165L16.6242 43.75Z" fill="#5B86E5"/>
<path d="M18.6006 16.8997C18.5706 16.8847 18.5556 16.8847 18.5556 16.8847C18.5107 16.8397 18.4508 16.7947 18.4059 16.7497C17.7172 16.1647 16.9536 15.7597 16.0103 15.8197C15.112 15.8647 14.3784 16.4047 14.1388 17.2597C13.8394 18.2797 14.0939 19.2097 14.6928 20.0347C15.1569 20.6797 15.6959 21.2647 16.2349 21.8347C16.9386 22.5697 17.7322 23.1997 18.6006 23.7847C19.0497 23.4397 19.4989 23.1247 19.9031 22.7647C20.3972 22.3447 20.8614 21.8947 21.3255 21.4297C21.8795 20.8747 22.3886 20.2747 22.7629 19.5697C23.1222 18.8797 23.2719 18.1597 23.0773 17.3947C22.7779 16.1797 21.5651 15.5497 20.2625 15.9097C19.6187 16.0747 19.0797 16.4347 18.6006 16.8997Z" fill="#5B86E5"/>
<path d="M18.6012 16.9C19.0953 16.435 19.6193 16.075 20.2781 15.895C21.5807 15.535 22.7935 16.165 23.0929 17.38C23.2876 18.145 23.1378 18.865 22.7785 19.555C22.4192 20.26 21.8951 20.86 21.3412 21.415C20.877 21.88 20.4129 22.315 19.9188 22.75C19.4996 23.11 19.0504 23.425 18.6162 23.77C17.7478 23.185 16.9542 22.555 16.2505 21.82C15.6965 21.25 15.1725 20.65 14.7084 20.02C14.1095 19.195 13.8549 18.265 14.1544 17.245C14.4089 16.39 15.1426 15.85 16.0259 15.805C16.9692 15.76 17.7328 16.15 18.4215 16.735C18.4665 16.78 18.5263 16.825 18.5713 16.87C18.5563 16.885 18.5713 16.885 18.6012 16.9Z" fill="#5B86E5"/>
</svg>
