<svg width="112" height="112" viewBox="0 0 112 112" fill="none" xmlns="http://www.w3.org/2000/svg">
<path d="M56 111.999C25.0503 111.999 0 86.9181 0 56C0 25.0494 25.046 0 56 0C86.9506 0 111.999 25.046 111.999 56C111.999 86.948 86.9155 111.999 56 111.999Z" fill="#EBF1FF"/>
<path d="M56 0V111.999C86.9155 111.999 111.999 86.948 111.999 56C111.999 25.0469 86.9506 0 56 0Z" fill="#E3EBFE"/>
<path d="M56.0001 69.125C39.7058 69.125 24.1694 76.2481 12.8149 91.6495C35.4257 118.98 77.2778 118.747 99.5835 91.1615C94.0754 85.6825 81.6691 69.125 56.0001 69.125Z" fill="#DCE7FF"/>
<path d="M99.5834 91.1615C89.0526 104.183 73.2522 111.999 56 111.999V69.125C81.6698 69.125 94.0753 85.6842 99.5834 91.1615Z" fill="#CCDCFF"/>
<path d="M56 59C44.9714 59 36 51.3095 36 41.8571V36.1429C36 26.6905 44.9714 19 56 19C67.0278 19 76 26.6905 76 36.1429V41.8571C76 51.3095 67.0278 59 56 59Z" fill="#DCE7FF"/>
<path d="M56 19V59C67.0286 59 76 51.3103 76 41.8571V36.1429C76 26.6897 67.0286 19 56 19Z" fill="#CCDCFF"/>
</svg>
