<svg width="400" height="195" viewBox="0 0 400 195" fill="none" xmlns="http://www.w3.org/2000/svg">
<g clip-path="url(#clip0_2243_9332)">
<path opacity="0.4" d="M378.659 148.833C378.745 144.519 378.531 130.255 365.059 116.333C352.529 103.35 333.027 101.642 325.756 105.486C331.316 97.713 329.392 78.7512 319.427 65.8965C303.389 45.2265 281.322 48.7284 275.762 49.4117C275.548 47.1483 274.564 41.1693 270.459 34.6352C265.712 27.1188 255.747 17.3817 235.133 13.7516C212.124 9.7372 196.985 15.6307 188.346 21.3107C180.733 26.3074 176.713 31.902 175.388 33.9946C171.025 30.9197 149.3 17.2536 125.564 30.3645C114.872 36.258 109.056 44.2442 105.891 51.6752C97.2094 49.1555 90.3667 52.0595 87.5869 53.6397C87.5869 53.6397 65.1342 44.8421 51.8336 63.7184C38.5331 82.5948 49.3959 98.1827 49.3959 98.1827C49.3959 98.1827 30.9205 98.6952 15.1395 116.974C-7.86916 143.793 2.18109 171.04 2.18109 171.04H399.145C399.615 171.04 400 170.656 400 170.186C400 153.744 382.594 149.559 378.659 148.833Z" fill="#B1D0FF"/>
<path d="M51.7055 170.528H325.757C325.757 170.528 326.612 158.997 316.177 154.299C305.742 149.602 296.461 156.947 296.461 156.947C296.461 156.947 295.905 150.2 288.164 148.363C280.423 146.527 276.703 152.207 276.703 152.207C276.703 152.207 280.808 133.8 263.702 124.02C245.226 113.429 227.563 128.59 227.563 128.59C227.563 128.59 209.088 112.361 183.3 120.006C159.906 126.967 155.843 147.466 155.843 147.466C155.843 147.466 153.833 139.566 144.938 137.089C134.588 134.227 127.788 139.395 127.788 139.395C127.788 139.395 122.271 119.109 96.9102 123.252C69.2827 127.779 72.4475 148.491 72.4475 148.491C72.4475 148.491 62.5683 144.349 54.8274 151.481C47.1294 158.698 51.7055 170.528 51.7055 170.528Z" fill="#5685E0"/>
<path d="M369.977 171.382C369.977 171.382 371.432 173.261 361.296 175.354C349.449 177.788 320.624 175.952 317.802 180.478C314.722 185.39 337.432 184.023 337.175 189.789C336.961 194.7 321.522 194.486 304.073 194.486C286.667 194.486 122.955 194.486 108.842 194.486C94.7289 194.486 97.2949 190.216 99.3049 188.294C102.213 185.475 100.93 182.87 88.2283 182.528C75.9114 182.187 66.8875 181.888 60.1731 181.888C42.2537 181.888 45.7606 175.994 31.7758 175.994C22.752 175.994 11.8892 173.731 11.8892 171.083C62.5253 166.642 117.096 163.737 175.131 163.353C245.226 162.841 310.446 166.044 369.977 171.382Z" fill="#BBCCE6"/>
<path d="M212.723 174.585L211.996 171.382C211.953 170.998 211.868 170.613 211.739 170.272C210.97 167.965 208.746 166.3 206.18 166.3H181.247C178.595 166.3 176.328 168.051 175.644 170.485L174.575 175.055C174.489 175.482 174.404 175.952 174.404 176.421C174.404 179.838 177.184 182.571 180.562 182.571H206.821C210.243 182.571 212.98 179.795 212.98 176.421C213.022 175.781 212.937 175.183 212.723 174.585Z" fill="#DAE4F2"/>
<path d="M206.864 181.631H180.605C177.74 181.631 175.388 179.282 175.388 176.421C175.388 173.56 177.74 171.211 180.605 171.211H206.864C209.73 171.211 212.082 173.56 212.082 176.421C212.039 179.282 209.687 181.631 206.864 181.631Z" fill="#7A98C4"/>
<path d="M206.864 170.271H180.605C177.184 170.271 174.447 173.047 174.447 176.421C174.447 179.838 177.227 182.571 180.605 182.571H206.864C210.286 182.571 213.023 179.795 213.023 176.421C213.023 173.005 210.243 170.271 206.864 170.271ZM206.864 181.631H180.605C177.74 181.631 175.388 179.283 175.388 176.421C175.388 173.56 177.74 171.211 180.605 171.211H206.864C209.73 171.211 212.082 173.56 212.082 176.421C212.039 179.283 209.687 181.631 206.864 181.631Z" fill="#5D7EAF"/>
<path d="M189.928 159.125V168.136C189.928 169.076 191.767 169.844 194.077 169.844C196.343 169.844 198.225 169.076 198.225 168.136V159.125H189.928Z" fill="#40659D"/>
<path d="M206.693 150.114C203.143 149.345 198.781 148.918 194.077 148.918C189.8 148.918 185.823 149.303 182.444 149.943L172.223 149.858L172.18 155.495C172.18 159.125 181.974 162.072 194.077 162.072C206.18 162.072 215.974 159.125 215.974 155.495V150.199L206.693 150.114Z" fill="#7A93C4"/>
<path d="M194.077 156.776C206.17 156.776 215.974 153.832 215.974 150.199C215.974 146.567 206.17 143.623 194.077 143.623C181.984 143.623 172.18 146.567 172.18 150.199C172.18 153.832 181.984 156.776 194.077 156.776Z" fill="#DAE4F2"/>
<path d="M180.349 142V147.295C180.349 149.388 186.507 151.096 194.077 151.096C201.647 151.096 207.805 149.388 207.805 147.295V142H180.349Z" fill="#7A93C4"/>
<path d="M194.077 145.801C201.659 145.801 207.805 144.099 207.805 142C207.805 139.9 201.659 138.199 194.077 138.199C186.495 138.199 180.349 139.9 180.349 142C180.349 144.099 186.495 145.801 194.077 145.801Z" fill="#40659D"/>
<path d="M183.984 127.736V140.078C183.984 141.402 188.517 142.469 194.077 142.469C199.637 142.469 204.17 141.402 204.17 140.078V127.736H183.984Z" fill="#BAC6D8"/>
<path d="M105.036 92.3317C105.036 92.3317 105.164 89.3422 106.319 87.7621C107.473 86.1819 109.141 86.8653 109.141 86.8653L109.056 93.2713L105.036 99.2502L101.7 99.5491C101.7 99.5491 93.8308 98.8231 88.4422 96.8159C83.0535 94.8087 81.0435 89.7693 81.0435 89.7693C81.8133 89.1714 82.8824 89.2995 83.4812 90.0683C84.6787 91.563 86.9025 93.741 89.5541 93.741C89.5541 93.741 86.6032 90.5807 85.4485 86.3528C85.3202 85.9684 85.534 85.5413 85.9189 85.4132C86.7742 85.0716 87.7579 85.4559 88.1428 86.3101C88.8271 87.7621 90.0245 89.9828 91.5214 91.1359C91.5214 91.1359 91.0937 87.1215 92.0346 83.0644C92.1201 82.68 92.5478 82.4238 92.9327 82.5519C93.7453 82.8081 94.3012 83.5341 94.3868 84.3456L94.5578 90.4526L99.7326 93.4848L105.036 92.3317Z" fill="#3279BA"/>
<path d="M261.221 117.657C245.226 117.657 237.442 105.016 237.143 104.461L240.907 102.197C241.206 102.667 248.006 113.685 262.033 113.258C275.804 112.831 285.341 101.343 285.427 101.215L288.806 103.948C288.378 104.503 277.9 117.144 262.162 117.614C261.82 117.657 261.52 117.657 261.221 117.657Z" fill="#3279BA"/>
<path d="M123.768 115.436C107.388 115.436 99.6473 97.8835 99.3052 97.1575L103.325 95.4492L101.315 96.3034L103.325 95.4492C103.411 95.62 110.296 111.123 123.811 111.123C123.982 111.123 124.153 111.123 124.324 111.123C138.095 110.696 147.632 99.2074 147.717 99.0793L151.096 101.813C150.668 102.368 140.19 115.009 124.452 115.479C124.238 115.436 123.982 115.436 123.768 115.436Z" fill="#3279BA"/>
<path d="M146.263 107.578C146.263 92.3318 158.794 67.2629 194.248 67.2629C229.702 67.2629 237.699 95.2358 237.699 109.927C237.699 124.618 221.148 132.391 193.435 132.391C165.722 132.391 146.263 124.49 146.263 107.578Z" fill="#DAE4F2"/>
<path d="M152.507 111.08C152.507 95.8337 165.038 70.7649 200.492 70.7649C208.66 70.7649 215.375 72.2596 220.892 74.7366C214.477 70.2097 205.838 67.2202 194.291 67.2202C158.837 67.2202 146.306 92.289 146.306 107.535C146.306 116.461 151.695 122.867 160.89 126.924C155.501 122.995 152.507 117.742 152.507 111.08Z" fill="white"/>
<path d="M181.204 93.5704C181.204 95.1505 179.921 96.389 178.381 96.389C176.799 96.389 175.559 95.1078 175.559 93.5704C175.559 91.9902 176.842 90.7517 178.381 90.7517C179.921 90.7517 181.204 91.9902 181.204 93.5704Z" fill="#336ABB"/>
<path d="M206.779 93.5704C206.779 95.1505 205.496 96.389 203.956 96.389C202.416 96.389 201.133 95.1078 201.133 93.5704C201.133 91.9902 202.416 90.7517 203.956 90.7517C205.496 90.7517 206.779 91.9902 206.779 93.5704Z" fill="#336ABB"/>
<path d="M150.027 92.887C150.027 92.887 142.927 95.6629 140.575 102.581C140.575 102.581 143.398 109.329 150.412 110.995C150.412 110.952 155.458 101.855 150.027 92.887Z" fill="#DAE4F2"/>
<path d="M233.893 92.887C233.893 92.887 240.992 95.6629 243.344 102.581C243.344 102.581 240.522 109.329 233.508 110.995C233.508 110.952 228.462 101.855 233.893 92.887Z" fill="#B1C0D6"/>
<path d="M284.657 103.734C284.657 103.734 279.953 96.6879 279.867 94.8088C279.782 92.9297 282.647 93.4422 284.058 95.791C285.47 98.1399 286.239 101.257 290.987 102.069C295.734 102.838 299.497 99.293 299.497 99.293C299.497 99.293 299.797 93.613 300.31 92.4599C300.823 91.3068 302.705 91.1787 302.705 91.1787C302.705 91.1787 303.389 94.8515 302.876 97.9691L305.869 93.5276C306.425 92.6734 307.409 92.2037 308.435 92.2464C308.949 92.2891 309.291 92.8016 309.12 93.2713C308.692 94.5525 307.751 96.9868 306.041 99.0367L310.446 96.6025C310.916 96.3462 311.472 96.517 311.771 96.9441C312.028 97.3712 311.942 97.9264 311.557 98.2253C310.018 99.4638 306.126 102.539 302.919 103.948C297.53 106.34 293.467 107.322 285.127 107.279L284.657 103.734Z" fill="#3279BA"/>
<path d="M180.819 181.076C183.37 181.076 185.438 179.011 185.438 176.464C185.438 173.917 183.37 171.852 180.819 171.852C178.268 171.852 176.2 173.917 176.2 176.464C176.2 179.011 178.268 181.076 180.819 181.076Z" fill="#155DA0"/>
<path d="M206.736 181.076C209.286 181.076 211.354 179.011 211.354 176.464C211.354 173.917 209.286 171.852 206.736 171.852C204.185 171.852 202.117 173.917 202.117 176.464C202.117 179.011 204.185 181.076 206.736 181.076Z" fill="#155DA0"/>
<path d="M193.221 178.044C193.221 179.71 191.853 181.076 190.185 181.076C188.517 181.076 187.148 179.71 187.148 178.044C187.148 176.379 188.517 175.012 190.185 175.012C191.853 175.055 193.221 176.421 193.221 178.044Z" fill="#155DA0"/>
<path d="M200.534 178.044C200.534 179.71 199.166 181.076 197.498 181.076C195.83 181.076 194.461 179.71 194.461 178.044C194.461 176.379 195.83 175.012 197.498 175.012C199.209 175.055 200.534 176.421 200.534 178.044Z" fill="#155DA0"/>
</g>
<defs>
<clipPath id="clip0_2243_9332">
<rect width="400" height="194.486" fill="white"/>
</clipPath>
</defs>
</svg>
