<svg width="41" height="26" viewBox="0 0 41 26" fill="none" xmlns="http://www.w3.org/2000/svg">
<path d="M40.5 23.9704H40.4999V24.4704C40.4999 25.0421 40.0406 25.5 39.479 25.5H1.52063C0.959585 25.5 0.5 25.0422 0.5 24.4704V1.5295C0.5 0.958233 0.95967 0.5 1.52063 0.5H39.4791C40.0406 0.5 40.5 0.95825 40.5 1.5295V23.9704Z" fill="white" stroke="#E2E2E2"/>
<path d="M18.8901 20.646C23.0383 20.6166 26.3772 17.2298 26.3478 13.0815C26.3183 8.93321 22.9317 5.59422 18.7835 5.62367C14.6352 5.65313 11.2963 9.03987 11.3258 13.1882C11.3552 17.3365 14.7419 20.6755 18.8901 20.646Z" fill="white"/>
<path d="M18.8472 20.7797C14.5426 20.8002 11 17.3128 11 13.0678C11 8.42861 14.5426 5.21972 18.8472 5.22046H20.8644C25.1177 5.21972 29 8.4271 29 13.0678C29 17.3113 25.1177 20.7797 20.8644 20.7797H18.8472ZM18.8644 5.86392C14.9309 5.86544 11.7442 9.05305 11.7434 12.9866C11.7442 16.9198 14.9309 20.1066 18.8644 20.1074C22.7982 20.1066 25.9859 16.9198 25.9869 12.9866C25.9859 9.05305 22.7981 5.86544 18.8644 5.86392ZM17.2477 17.1982V8.77384C15.5552 9.42564 14.3546 11.0638 14.3503 12.9866C14.3546 14.909 15.5552 16.5472 17.2477 17.1982ZM23.3794 12.9866C23.3761 11.0631 22.1736 9.42258 20.4798 8.77307V17.1997C22.1736 16.5495 23.3761 14.9105 23.3794 12.9866Z" fill="#004A98"/>
</svg>
