<svg width="41" height="26" viewBox="0 0 41 26" fill="none" xmlns="http://www.w3.org/2000/svg">
<path d="M40.5 23.9704H40.4999V24.4704C40.4999 25.0421 40.0406 25.5 39.479 25.5H1.52063C0.959585 25.5 0.5 25.0422 0.5 24.4704V1.5295C0.5 0.958233 0.95967 0.5 1.52063 0.5H39.4791C40.0406 0.5 40.5 0.95825 40.5 1.5295V23.9704Z" fill="white" stroke="#E2E2E2"/>
<path d="M11.2919 8.59272C11.6216 8.18038 11.8452 7.62678 11.7863 7.06104C11.3037 7.08504 10.7149 7.37943 10.3739 7.79204C10.0678 8.14543 9.79687 8.72222 9.86753 9.26423C10.4092 9.31121 10.9504 8.99347 11.2919 8.59272Z" fill="black"/>
<path d="M11.7801 9.37008C10.9934 9.32322 10.3245 9.81655 9.94884 9.81655C9.57298 9.81655 8.99766 9.39371 8.37543 9.40508C7.56556 9.417 6.8141 9.8749 6.40312 10.6032C5.55782 12.0601 6.18005 14.2212 7.00206 15.4078C7.40122 15.9948 7.88237 16.6412 8.51625 16.618C9.11519 16.5945 9.34996 16.2301 10.078 16.2301C10.8055 16.2301 11.0169 16.618 11.6509 16.6062C12.3084 16.5945 12.7195 16.0189 13.1186 15.4313C13.5766 14.7621 13.7641 14.1159 13.7758 14.0804C13.764 14.0687 12.508 13.5868 12.4964 12.142C12.4845 10.9323 13.4825 10.3568 13.5295 10.3212C12.966 9.48772 12.0854 9.39371 11.7801 9.37008Z" fill="black"/>
<path d="M18.63 7.73291C20.3399 7.73291 21.5305 8.91153 21.5305 10.6275C21.5305 12.3496 20.3153 13.5344 18.5871 13.5344H16.694V16.545H15.3262V7.73291H18.63ZM16.694 12.3863H18.2634C19.4543 12.3863 20.132 11.7451 20.132 10.6336C20.132 9.52228 19.4543 8.88714 18.2695 8.88714H16.694V12.3863Z" fill="black"/>
<path d="M21.8879 14.7191C21.8879 13.5954 22.7489 12.9053 24.2758 12.8198L26.0344 12.716V12.2215C26.0344 11.507 25.5519 11.0795 24.746 11.0795C23.9825 11.0795 23.5061 11.4458 23.3903 12.0199H22.1445C22.2178 10.8596 23.2069 10.0046 24.7948 10.0046C26.352 10.0046 27.3473 10.8291 27.3473 12.1175V16.5449H26.0832V15.4885H26.0528C25.6803 16.203 24.868 16.6549 24.0253 16.6549C22.7673 16.6549 21.8879 15.8732 21.8879 14.7191ZM26.0343 14.139V13.6321L24.4527 13.7298C23.6649 13.7848 23.2191 14.1329 23.2191 14.6825C23.2191 15.2442 23.6832 15.6107 24.3916 15.6107C25.3137 15.6106 26.0343 14.9755 26.0343 14.139Z" fill="black"/>
<path d="M28.5407 18.9083V17.8396C28.6383 17.864 28.8581 17.864 28.968 17.864C29.5787 17.864 29.9085 17.6075 30.1099 16.948C30.1099 16.9358 30.2261 16.5572 30.2261 16.551L27.9056 10.1206H29.3344L30.959 15.348H30.9833L32.6079 10.1206H34.0001L31.5938 16.8807C31.0444 18.4381 30.4093 18.9388 29.078 18.9388C28.968 18.9388 28.6382 18.9265 28.5407 18.9083Z" fill="black"/>
</svg>
