<svg width="41" height="26" viewBox="0 0 41 26" fill="none" xmlns="http://www.w3.org/2000/svg">
<path d="M40.9999 24.4704C40.9999 25.3156 40.3194 26 39.479 26H1.52063C0.68076 26 0 25.3156 0 24.4704V1.5295C0 0.684867 0.68076 0 1.52063 0H39.4791C40.3195 0 41 0.684867 41 1.5295V24.4704H40.9999Z" fill="#5A31F4"/>
<path d="M23.8791 10.6016C23.8791 12.4141 22.6097 13.7075 20.8352 13.7075H19.1641C19.1456 13.7075 19.1274 13.7111 19.1103 13.7182C19.0933 13.7253 19.0778 13.7356 19.0648 13.7487C19.0385 13.7751 19.0237 13.8108 19.0237 13.848V16.2301C19.0236 16.2673 19.0087 16.303 18.9824 16.3293C18.9561 16.3556 18.9204 16.3705 18.8832 16.3706H17.7132C17.676 16.3705 17.6404 16.3557 17.6141 16.3294C17.5878 16.303 17.573 16.2673 17.573 16.2301V7.63624C17.573 7.59901 17.5878 7.5633 17.6141 7.53695C17.6404 7.51061 17.676 7.49579 17.7132 7.49574H20.843C22.6097 7.49381 23.8791 8.78729 23.8791 10.6016ZM22.4205 10.6016C22.4205 9.55983 21.7106 8.79891 20.7474 8.79891H19.1641C19.1456 8.79887 19.1273 8.80247 19.1103 8.80951C19.0932 8.81656 19.0777 8.8269 19.0647 8.83996C19.0516 8.85301 19.0413 8.86852 19.0342 8.88559C19.0272 8.90265 19.0236 8.92094 19.0237 8.93941V12.256C19.0236 12.2744 19.0272 12.2927 19.0342 12.3098C19.0413 12.3268 19.0516 12.3423 19.0647 12.3554C19.0777 12.3685 19.0932 12.3788 19.1103 12.3858C19.1273 12.3929 19.1456 12.3965 19.1641 12.3964H20.7474C21.7106 12.4024 22.4205 11.6415 22.4205 10.6016ZM24.2261 14.7222C24.2141 14.4442 24.2716 14.1676 24.3935 13.9175C24.5154 13.6675 24.6978 13.4518 24.9241 13.2901C25.3806 12.9468 26.0941 12.7692 27.1413 12.732L28.2567 12.6931V12.3633C28.2567 11.7038 27.814 11.425 27.1042 11.425C26.3945 11.425 25.944 11.6767 25.8407 12.0883C25.8322 12.1172 25.8144 12.1424 25.79 12.16C25.7657 12.1777 25.7362 12.1868 25.7061 12.1859H24.6044C24.5841 12.1864 24.5639 12.1824 24.5453 12.1742C24.5268 12.166 24.5102 12.1539 24.4968 12.1386C24.4834 12.1233 24.4735 12.1053 24.4679 12.0858C24.4622 12.0663 24.4609 12.0458 24.464 12.0257C24.6278 11.0503 25.439 10.3091 27.155 10.3091C28.9801 10.3091 29.6391 11.1595 29.6391 12.7827V16.2301C29.6387 16.2675 29.6235 16.3033 29.5969 16.3296C29.5702 16.356 29.5342 16.3707 29.4968 16.3706H28.3854C28.3669 16.3706 28.3487 16.367 28.3316 16.36C28.3146 16.353 28.2991 16.3426 28.2861 16.3295C28.2731 16.3165 28.2627 16.301 28.2556 16.2839C28.2486 16.2668 28.2449 16.2485 28.245 16.2301V15.9727C28.2454 15.9515 28.2393 15.9306 28.2277 15.9129C28.216 15.8952 28.1993 15.8814 28.1796 15.8734C28.16 15.8654 28.1384 15.8635 28.1177 15.868C28.097 15.8725 28.0781 15.8831 28.0635 15.8986C27.7303 16.2612 27.192 16.5229 26.3301 16.5229C25.0626 16.5229 24.2261 15.8633 24.2261 14.7222ZM28.2567 13.9748V13.7075L26.8117 13.7836C26.0512 13.8227 25.6086 14.1387 25.6086 14.6713C25.6086 15.1531 26.0142 15.4206 26.7241 15.4206C27.6873 15.4206 28.2567 14.8994 28.2567 13.9748ZM30.7546 18.9751V17.9762C30.7545 17.9552 30.7592 17.9345 30.7682 17.9155C30.7771 17.8966 30.7902 17.8798 30.8065 17.8666C30.8227 17.8533 30.8417 17.8438 30.8621 17.8388C30.8824 17.8338 30.9037 17.8334 30.9242 17.8376C31.0946 17.8697 31.2676 17.886 31.441 17.8864C31.7391 17.9011 32.0335 17.8152 32.2771 17.6426C32.5207 17.4701 32.6994 17.2207 32.7845 16.9345L32.8567 16.7042C32.8672 16.6732 32.8672 16.6396 32.8567 16.6086L30.542 10.6621C30.5334 10.6405 30.5302 10.6171 30.5329 10.594C30.5366 10.559 30.5531 10.5267 30.5794 10.5032C30.6056 10.4798 30.6395 10.467 30.6747 10.4672H31.7958C31.8245 10.4673 31.8526 10.4761 31.8763 10.4924C31.9 10.5088 31.9181 10.5319 31.9284 10.5588L33.5002 14.7533C33.5097 14.7814 33.5278 14.8057 33.552 14.8229C33.5761 14.8401 33.605 14.8492 33.6346 14.8491C33.6642 14.8491 33.6931 14.8398 33.7172 14.8227C33.7413 14.8055 33.7595 14.7813 33.7692 14.7533L35.1342 10.5704C35.1437 10.5418 35.162 10.517 35.1865 10.4994C35.211 10.4819 35.2404 10.4726 35.2706 10.4729H36.4309C36.4542 10.4729 36.4771 10.4786 36.4977 10.4895C36.5183 10.5004 36.5359 10.516 36.5491 10.5352C36.5624 10.5544 36.5708 10.5764 36.5736 10.5996C36.5765 10.6227 36.5737 10.6461 36.5655 10.6679L34.089 17.2718C33.5195 18.8074 32.5427 19.1994 31.4664 19.1994C31.2624 19.2049 31.0587 19.1806 30.8617 19.1273C30.8288 19.1187 30.8 19.0987 30.7804 19.0707C30.7607 19.043 30.7516 19.0091 30.7546 18.9751ZM10.0559 7.00015C8.58174 6.98969 7.15959 7.54475 6.08191 8.5512C6.03565 8.59348 6.00683 8.6515 6.00107 8.71392C5.99531 8.77634 6.01303 8.83866 6.05076 8.8887L6.71767 9.79979C6.73932 9.83014 6.76735 9.85538 6.79977 9.87375C6.8322 9.89212 6.86825 9.90317 6.90539 9.90614C6.94254 9.90911 6.97989 9.90392 7.01482 9.89093C7.04975 9.87794 7.08142 9.85747 7.10761 9.83095C7.49507 9.44332 7.95589 9.13685 8.46312 8.92948C8.97035 8.72211 9.51381 8.61799 10.0617 8.62321C12.3491 8.62321 13.5443 10.3461 13.5443 12.0473C13.5443 13.8968 12.2886 15.198 10.4849 15.2234C9.09074 15.2234 8.0397 14.2987 8.0397 13.0773C8.04109 12.7687 8.11089 12.4643 8.24408 12.186C8.37727 11.9077 8.57052 11.6625 8.8099 11.4679C8.86063 11.4257 8.89275 11.3652 8.89933 11.2995C8.90591 11.2338 8.88643 11.1682 8.84509 11.1167L8.14299 10.231C8.12179 10.2041 8.09542 10.1819 8.06544 10.1654C8.03547 10.149 8.00251 10.1388 7.96851 10.1353C7.93451 10.1319 7.90016 10.1353 7.8675 10.1454C7.83485 10.1554 7.80454 10.172 7.77839 10.194C7.34778 10.5411 7.00029 10.9802 6.76139 11.4791C6.52249 11.9781 6.39824 12.5242 6.39776 13.0774C6.39776 15.1804 8.18382 16.8292 10.4714 16.8428H10.5023C13.2187 16.8075 15.1823 14.7942 15.1823 12.0435C15.1823 9.60085 13.3845 7.00015 10.0559 7.00015Z" fill="white"/>
</svg>
