<svg width="21" height="17" viewBox="0 0 21 17" fill="none" xmlns="http://www.w3.org/2000/svg">
<path d="M18 0.375C19.2305 0.375 20.25 1.39453 20.25 2.625V13.875C20.25 15.1406 19.2305 16.125 18 16.125H2.25C0.984375 16.125 0 15.1406 0 13.875V2.625C0 1.39453 0.984375 0.375 2.25 0.375H18ZM3.9375 12.75H6.1875C6.46875 12.75 6.75 12.5039 6.75 12.1875C6.75 11.9062 6.46875 11.625 6.1875 11.625H3.9375C3.62109 11.625 3.375 11.9062 3.375 12.1875C3.375 12.5039 3.62109 12.75 3.9375 12.75ZM8.4375 12.75H12.9375C13.2188 12.75 13.5 12.5039 13.5 12.1875C13.5 11.9062 13.2188 11.625 12.9375 11.625H8.4375C8.12109 11.625 7.875 11.9062 7.875 12.1875C7.875 12.5039 8.12109 12.75 8.4375 12.75Z" fill="#5B86E5"/>
</svg>
