<svg width="41" height="26" viewBox="0 0 41 26" fill="none" xmlns="http://www.w3.org/2000/svg">
<path d="M40.5 23.9704H40.4999V24.4704C40.4999 25.0421 40.0406 25.5 39.479 25.5H1.52063C0.959585 25.5 0.5 25.0422 0.5 24.4704V1.5295C0.5 0.958233 0.95967 0.5 1.52063 0.5H39.4791C40.0406 0.5 40.5 0.95825 40.5 1.5295V23.9704Z" fill="white" stroke="#E2E2E2"/>
<path d="M19.0684 13.3429V16.582H18.0405V8.5835H20.7656C21.4562 8.5835 22.0451 8.81373 22.5269 9.27414C23.0195 9.73456 23.2658 10.2967 23.2658 10.9605C23.2658 11.6405 23.0195 12.2026 22.5269 12.6577C22.0504 13.1127 21.4616 13.3376 20.7656 13.3376H19.0684V13.3429ZM19.0684 9.56858V12.3579H20.787C21.1939 12.3579 21.5365 12.2187 21.8042 11.9456C22.0772 11.6726 22.2164 11.3407 22.2164 10.9659C22.2164 10.5965 22.0772 10.2699 21.8042 9.99689C21.5365 9.71312 21.1992 9.57394 20.787 9.57394H19.0684V9.56858Z" fill="#383E41"/>
<path d="M25.9533 10.9285C26.7135 10.9285 27.3132 11.1319 27.7522 11.5388C28.1912 11.9457 28.4106 12.5024 28.4106 13.2092V16.582H27.4309V15.8218H27.3881C26.9651 16.4482 26.3977 16.7587 25.691 16.7587C25.086 16.7587 24.5827 16.582 24.1759 16.2233C23.769 15.8646 23.5656 15.4202 23.5656 14.8849C23.5656 14.3174 23.7797 13.8677 24.208 13.5357C24.6363 13.1985 25.2092 13.0325 25.9212 13.0325C26.5315 13.0325 27.0348 13.145 27.4256 13.3698V13.1342C27.4256 12.7755 27.2864 12.4757 27.0027 12.2241C26.7189 11.9725 26.387 11.8494 26.0069 11.8494C25.434 11.8494 24.9789 12.0902 24.647 12.5775L23.7422 12.01C24.2401 11.2872 24.9789 10.9285 25.9533 10.9285ZM24.6256 14.9009C24.6256 15.1686 24.7381 15.3935 24.9682 15.5701C25.1931 15.7468 25.4608 15.8378 25.766 15.8378C26.1996 15.8378 26.5851 15.6772 26.9224 15.356C27.2597 15.0347 27.431 14.66 27.431 14.2263C27.1097 13.9747 26.6654 13.8462 26.0926 13.8462C25.675 13.8462 25.327 13.9479 25.0486 14.146C24.7648 14.3548 24.6256 14.6065 24.6256 14.9009Z" fill="#383E41"/>
<path d="M34 11.105L30.5736 18.9857H29.5135L30.7877 16.2285L28.5284 11.105H29.6473L31.2749 15.0346H31.2963L32.881 11.105H34Z" fill="#383E41"/>
<path d="M14.8941 11.7256H10.5854V13.4923L13.0669 13.4929C12.9663 14.0807 12.6424 14.5818 12.1461 14.9159V14.9162C12.1462 14.9161 12.1464 14.916 12.1466 14.9159L12.1019 15.9719L13.6237 16.0616C13.6235 16.0618 13.6233 16.062 13.6231 16.0621H13.6232C14.4857 15.2639 14.9798 14.0839 14.9798 12.6898C14.9798 12.3547 14.9498 12.034 14.8941 11.7256Z" fill="#0085F7"/>
<path d="M12.1466 14.9159C12.1464 14.916 12.1462 14.9161 12.1461 14.9162C11.735 15.1933 11.2056 15.3554 10.5865 15.3554C9.38997 15.3554 8.37491 14.5492 8.01141 13.4624H8.01124C8.0113 13.4625 8.01135 13.4628 8.01141 13.4629L6.74096 13.2617L6.48798 14.6448C7.24294 16.1426 8.79431 17.1703 10.5866 17.1703C11.8251 17.1703 12.8656 16.7631 13.6232 16.0621C13.6234 16.0619 13.6236 16.0618 13.6238 16.0616L12.1466 14.9159Z" fill="#00A94B"/>
<path d="M7.86791 12.5855C7.86791 12.2803 7.91877 11.9853 8.01141 11.708L7.6147 10.5259H6.4877C6.1756 11.1453 6 11.8445 6 12.5855C6 13.3264 6.17615 14.0256 6.4877 14.6451L6.48792 14.6449L8.01141 13.4629C8.01135 13.4628 8.0113 13.4626 8.01124 13.4624C7.91871 13.1853 7.86791 12.8905 7.86791 12.5855Z" fill="#FFBB00"/>
<path d="M10.5866 8C8.79467 8 7.24264 9.02791 6.48773 10.5259L8.01138 11.708C8.37489 10.6212 9.38994 9.81497 10.5865 9.81497C11.2627 9.81497 11.8682 10.0479 12.3463 10.5029L13.6553 9.19503C12.8603 8.45451 11.8238 8 10.5866 8Z" fill="#FF4031"/>
</svg>
