<svg width="41" height="26" viewBox="0 0 41 26" fill="none" xmlns="http://www.w3.org/2000/svg">
<path d="M40.5 23.9704H40.4999V24.4704C40.4999 25.0421 40.0406 25.5 39.479 25.5H1.52063C0.959585 25.5 0.5 25.0422 0.5 24.4704V1.5295C0.5 0.958233 0.95967 0.5 1.52063 0.5H39.4791C40.0406 0.5 40.5 0.95825 40.5 1.5295V23.9704Z" fill="white" stroke="#E2E2E2"/>
<path d="M16.094 17.7386L17.7694 8.3147H20.3871L18.7641 17.7386H16.094Z" fill="#3C58BF"/>
<path d="M16.094 17.7386L18.2405 8.3147H20.3871L18.7641 17.7386H16.094Z" fill="#293688"/>
<path d="M28.2403 8.41884C27.7168 8.20942 26.8791 8 25.832 8C23.2143 8 21.3295 9.30887 21.3295 11.1937C21.3295 12.6072 22.6384 13.3402 23.6855 13.8114C24.7326 14.2826 25.0467 14.5967 25.0467 15.0156C25.0467 15.6438 24.209 15.958 23.476 15.958C22.4289 15.958 21.853 15.8009 20.963 15.4344L20.5965 15.2773L20.23 17.4239C20.8583 17.6857 22.0101 17.9474 23.2143 17.9474C25.9891 17.9474 27.8215 16.6386 27.8215 14.6491C27.8215 13.5496 27.1409 12.7119 25.5702 12.0313C24.6279 11.5601 24.052 11.2984 24.052 10.8272C24.052 10.4083 24.5231 9.98949 25.5702 9.98949C26.4603 9.98949 27.0885 10.1466 27.5597 10.356L27.8215 10.4607L28.2403 8.41884Z" fill="#3C58BF"/>
<path d="M28.2403 8.41884C27.7168 8.20942 26.8791 8 25.832 8C23.2143 8 21.8007 9.30887 21.8007 11.1937C21.8007 12.6072 22.6384 13.3402 23.6855 13.8114C24.7326 14.2826 25.0467 14.5967 25.0467 15.0156C25.0467 15.6438 24.209 15.958 23.476 15.958C22.4289 15.958 21.853 15.8009 20.963 15.4344L20.5965 15.2773L20.23 17.4239C20.8583 17.6857 22.0101 17.9474 23.2143 17.9474C25.9891 17.9474 27.8215 16.6386 27.8215 14.6491C27.8215 13.5496 27.1409 12.7119 25.5702 12.0313C24.6279 11.5601 24.052 11.2984 24.052 10.8272C24.052 10.4083 24.5231 9.98949 25.5702 9.98949C26.4603 9.98949 27.0885 10.1466 27.5597 10.356L27.8215 10.4607L28.2403 8.41884Z" fill="#293688"/>
<path d="M32.7429 8.3147C32.1146 8.3147 31.6434 8.36705 31.3816 8.99531L27.455 17.7386H30.2822L30.8057 16.1679H34.1564L34.4706 17.7386H36.9836L34.7847 8.3147H32.7429ZM31.5387 14.5973C31.6958 14.1261 32.5858 11.8225 32.5858 11.8225C32.5858 11.8225 32.7952 11.2466 32.9523 10.8801L33.1094 11.7701C33.1094 11.7701 33.6329 14.1261 33.7376 14.6496H31.5387V14.5973Z" fill="#3C58BF"/>
<path d="M33.3711 8.3147C32.7429 8.3147 32.2717 8.36705 32.0099 8.99531L27.455 17.7386H30.2822L30.8057 16.1679H34.1564L34.4706 17.7386H36.9836L34.7847 8.3147H33.3711ZM31.5387 14.5973C31.7481 14.0737 32.5858 11.8225 32.5858 11.8225C32.5858 11.8225 32.7952 11.2466 32.9523 10.8801L33.1094 11.7701C33.1094 11.7701 33.6329 14.1261 33.7376 14.6496H31.5387V14.5973Z" fill="#293688"/>
<path d="M11.2773 14.9116L11.0156 13.5503C10.5444 11.9797 9.02607 10.252 7.35071 9.41429L9.70668 17.7911H12.5338L16.7746 8.36719H13.9474L11.2773 14.9116Z" fill="#3C58BF"/>
<path d="M11.2773 14.9116L11.0156 13.5503C10.5444 11.9797 9.02607 10.252 7.35071 9.41429L9.70668 17.7911H12.5338L16.7746 8.36719H14.471L11.2773 14.9116Z" fill="#293688"/>
<path d="M4 8.3147L4.47119 8.41941C7.82191 9.20473 10.1255 11.1942 11.0156 13.5502L10.0732 9.10002C9.91611 8.47176 9.44491 8.3147 8.86901 8.3147H4Z" fill="#FFBC00"/>
<path d="M4 8.3147C7.35072 9.10002 10.1255 11.1419 11.0156 13.4978L10.1255 9.78064C9.96846 9.15238 9.44491 8.78589 8.86901 8.78589L4 8.3147Z" fill="#F7981D"/>
<path d="M4 8.3147C7.35072 9.10002 10.1255 11.1419 11.0156 13.4978L10.3873 11.456C10.2302 10.8277 10.0208 10.1995 9.28785 9.9377L4 8.3147Z" fill="#ED7C00"/>
<path d="M13.8951 14.5968L12.115 12.8168L11.2773 14.8062L11.0679 13.4974C10.5967 11.9267 9.07843 10.199 7.40308 9.36133L9.75905 17.7381H12.5862L13.8951 14.5968Z" fill="#051244"/>
<path d="M18.7641 17.7377L16.5128 15.4341L16.094 17.7377H18.7641Z" fill="#051244"/>
<path d="M24.7849 14.4927C24.9943 14.7021 25.0991 14.8592 25.0467 15.0686C25.0467 15.6968 24.209 16.011 23.476 16.011C22.4289 16.011 21.853 15.8539 20.963 15.4874L20.5965 15.3304L20.23 17.4769C20.8583 17.7387 22.0101 18.0005 23.2143 18.0005C24.8896 18.0005 26.2509 17.5293 27.0362 16.6916L24.7849 14.4927Z" fill="#051244"/>
<path d="M27.8215 17.7381H30.2822L30.8058 16.1675H34.1565L34.4706 17.7381H36.9836L36.0936 13.9162L32.9523 10.8796L33.1094 11.7173C33.1094 11.7173 33.6329 14.0733 33.7376 14.5968H31.5387C31.7482 14.0733 32.5858 11.822 32.5858 11.822C32.5858 11.822 32.7953 11.2461 32.9523 10.8796" fill="#051244"/>
</svg>
