<svg width="400" height="195" viewBox="0 0 400 195" fill="none" xmlns="http://www.w3.org/2000/svg">
<g clip-path="url(#clip0_815_5099)">
<path opacity="0.4" d="M378.659 148.833C378.745 144.519 378.531 130.255 365.059 116.333C352.529 103.35 333.027 101.642 325.756 105.485C331.316 97.7127 329.392 78.751 319.427 65.8962C303.389 45.2262 281.322 48.7282 275.762 49.4115C275.548 47.148 274.564 41.1691 270.459 34.6349C265.712 27.1186 255.747 17.3814 235.133 13.7514C212.124 9.73695 196.985 15.6305 188.346 21.3105C180.733 26.3071 176.713 31.9017 175.388 33.9943C171.025 30.9195 149.3 17.2533 125.564 30.3643C114.872 36.2578 109.056 44.244 105.891 51.6749C97.2094 49.1552 90.3667 52.0593 87.5869 53.6394C87.5869 53.6394 65.1342 44.8418 51.8336 63.7182C38.5331 82.5946 49.3959 98.1825 49.3959 98.1825C49.3959 98.1825 30.9205 98.695 15.1395 116.973C-7.86916 143.793 2.18109 171.04 2.18109 171.04H399.145C399.615 171.04 400 170.656 400 170.186C400 153.744 382.594 149.559 378.659 148.833Z" fill="#B1D0FF"/>
<path d="M51.7055 170.527H325.757C325.757 170.527 326.612 158.997 316.177 154.299C305.742 149.601 296.461 156.947 296.461 156.947C296.461 156.947 295.905 150.199 288.164 148.363C280.423 146.526 276.703 152.206 276.703 152.206C276.703 152.206 280.808 133.8 263.702 124.02C245.226 113.429 227.563 128.59 227.563 128.59C227.563 128.59 209.088 112.361 183.3 120.005C159.906 126.967 155.843 147.466 155.843 147.466C155.843 147.466 153.833 139.565 144.938 137.088C134.588 134.227 127.788 139.394 127.788 139.394C127.788 139.394 122.271 119.109 96.9102 123.251C69.2827 127.778 72.4475 148.491 72.4475 148.491C72.4475 148.491 62.5683 144.348 54.8274 151.48C47.1294 158.698 51.7055 170.527 51.7055 170.527Z" fill="#5685E0"/>
<path d="M369.978 171.382C369.978 171.382 371.432 173.261 361.296 175.353C349.45 177.788 320.625 175.951 317.802 180.478C314.723 185.39 337.432 184.023 337.176 189.788C336.962 194.7 321.523 194.486 304.074 194.486C286.668 194.486 122.956 194.486 108.842 194.486C94.7294 194.486 97.2954 190.215 99.3054 188.294C102.214 185.475 100.931 182.87 88.2288 182.528C75.9119 182.187 66.888 181.888 60.1736 181.888C42.2542 181.888 45.7611 175.994 31.7763 175.994C22.7525 175.994 11.8896 173.731 11.8896 171.083C62.5258 166.641 117.097 163.737 175.131 163.353C245.227 162.84 310.446 166.043 369.978 171.382Z" fill="#BBCCE6"/>
<path d="M212.724 174.585L211.996 171.382C211.954 170.998 211.868 170.613 211.74 170.272C210.97 167.965 208.746 166.3 206.18 166.3H181.247C178.595 166.3 176.329 168.051 175.645 170.485L174.575 175.055C174.49 175.482 174.404 175.952 174.404 176.421C174.404 179.838 177.184 182.571 180.563 182.571H206.822C210.243 182.571 212.98 179.795 212.98 176.421C213.023 175.781 212.937 175.183 212.724 174.585Z" fill="#DAE4F2"/>
<path d="M206.864 181.631H180.605C177.74 181.631 175.388 179.282 175.388 176.421C175.388 173.56 177.74 171.211 180.605 171.211H206.864C209.73 171.211 212.082 173.56 212.082 176.421C212.039 179.282 209.687 181.631 206.864 181.631Z" fill="#7A98C4"/>
<path d="M206.865 170.271H180.606C177.184 170.271 174.447 173.047 174.447 176.421C174.447 179.838 177.227 182.571 180.606 182.571H206.865C210.286 182.571 213.023 179.795 213.023 176.421C213.023 173.005 210.243 170.271 206.865 170.271ZM206.865 181.631H180.606C177.74 181.631 175.388 179.283 175.388 176.421C175.388 173.56 177.74 171.211 180.606 171.211H206.865C209.73 171.211 212.082 173.56 212.082 176.421C212.039 179.283 209.687 181.631 206.865 181.631Z" fill="#5D7EAF"/>
<path d="M189.929 159.125V168.136C189.929 169.076 191.768 169.844 194.077 169.844C196.344 169.844 198.226 169.076 198.226 168.136V159.125H189.929Z" fill="#40659D"/>
<path d="M206.694 150.114C203.144 149.345 198.782 148.918 194.077 148.918C189.801 148.918 185.823 149.302 182.445 149.943L172.223 149.858L172.181 155.495C172.181 159.125 181.974 162.072 194.077 162.072C206.18 162.072 215.974 159.125 215.974 155.495V150.199L206.694 150.114Z" fill="#7A93C4"/>
<path d="M194.077 156.776C206.171 156.776 215.974 153.832 215.974 150.199C215.974 146.567 206.171 143.623 194.077 143.623C181.984 143.623 172.181 146.567 172.181 150.199C172.181 153.832 181.984 156.776 194.077 156.776Z" fill="#DAE4F2"/>
<path d="M180.349 142V147.295C180.349 149.388 186.507 151.096 194.077 151.096C201.647 151.096 207.805 149.388 207.805 147.295V142H180.349Z" fill="#7A93C4"/>
<path d="M194.077 145.801C201.659 145.801 207.805 144.099 207.805 142C207.805 139.9 201.659 138.199 194.077 138.199C186.495 138.199 180.349 139.9 180.349 142C180.349 144.099 186.495 145.801 194.077 145.801Z" fill="#40659D"/>
<path d="M183.984 127.735V140.078C183.984 141.401 188.518 142.469 194.077 142.469C199.637 142.469 204.17 141.401 204.17 140.078V127.735H183.984Z" fill="#BAC6D8"/>
<path d="M105.036 92.3317C105.036 92.3317 105.165 89.3422 106.319 87.7621C107.474 86.1819 109.142 86.8653 109.142 86.8653L109.056 93.2713L105.036 99.2502L101.7 99.5491C101.7 99.5491 93.8313 98.8231 88.4426 96.8159C83.054 94.8087 81.0439 89.7693 81.0439 89.7693C81.8138 89.1714 82.8829 89.2995 83.4817 90.0683C84.6791 91.563 86.903 93.741 89.5546 93.741C89.5546 93.741 86.6037 90.5807 85.4489 86.3528C85.3206 85.9684 85.5345 85.5413 85.9194 85.4132C86.7747 85.0716 87.7584 85.4559 88.1433 86.3101C88.8275 87.7621 90.025 89.9828 91.5219 91.1359C91.5219 91.1359 91.0942 87.1215 92.0351 83.0644C92.1206 82.68 92.5483 82.4238 92.9332 82.5519C93.7457 82.8081 94.3017 83.5341 94.3873 84.3456L94.5583 90.4526L99.7331 93.4848L105.036 92.3317Z" fill="#3279BA"/>
<path d="M261.221 117.657C245.227 117.657 237.443 105.016 237.144 104.461L240.907 102.197C241.206 102.667 248.006 113.685 262.034 113.258C275.805 112.831 285.342 101.343 285.428 101.215L288.806 103.948C288.378 104.503 277.901 117.144 262.162 117.614C261.82 117.657 261.521 117.657 261.221 117.657Z" fill="#3279BA"/>
<path d="M123.768 115.436C107.389 115.436 99.6478 97.8835 99.3057 97.1575L103.326 95.4492L101.316 96.3034L103.326 95.4492C103.411 95.62 110.297 111.123 123.811 111.123C123.982 111.123 124.153 111.123 124.324 111.123C138.095 110.696 147.632 99.2074 147.718 99.0793L151.097 101.813C150.669 102.368 140.191 115.009 124.453 115.479C124.239 115.436 123.982 115.436 123.768 115.436Z" fill="#3279BA"/>
<path d="M146.264 107.578C146.264 92.3315 158.794 67.2627 194.248 67.2627C229.702 67.2627 237.7 95.2356 237.7 109.927C237.7 124.618 221.149 132.39 193.436 132.39C165.723 132.39 146.264 124.49 146.264 107.578Z" fill="#DAE4F2"/>
<path d="M152.508 111.08C152.508 95.8337 165.039 70.7649 200.492 70.7649C208.661 70.7649 215.375 72.2596 220.892 74.7366C214.477 70.2097 205.838 67.2202 194.291 67.2202C158.837 67.2202 146.307 92.289 146.307 107.535C146.307 116.461 151.695 122.867 160.89 126.924C155.502 122.995 152.508 117.742 152.508 111.08Z" fill="white"/>
<path d="M181.204 93.5701C181.204 95.1503 179.921 96.3887 178.381 96.3887C176.799 96.3887 175.559 95.1075 175.559 93.5701C175.559 91.99 176.842 90.7515 178.381 90.7515C179.921 90.7515 181.204 91.99 181.204 93.5701Z" fill="#336ABB"/>
<path d="M206.779 93.5701C206.779 95.1503 205.496 96.3887 203.956 96.3887C202.417 96.3887 201.134 95.1075 201.134 93.5701C201.134 91.99 202.417 90.7515 203.956 90.7515C205.496 90.7515 206.779 91.99 206.779 93.5701Z" fill="#336ABB"/>
<path d="M150.027 92.8867C150.027 92.8867 142.927 95.6627 140.575 102.581C140.575 102.581 143.398 109.329 150.412 110.994C150.412 110.952 155.458 101.855 150.027 92.8867Z" fill="#DAE4F2"/>
<path d="M233.893 92.8867C233.893 92.8867 240.993 95.6627 243.345 102.581C243.345 102.581 240.522 109.329 233.509 110.994C233.509 110.952 228.462 101.855 233.893 92.8867Z" fill="#B1C0D6"/>
<path d="M284.657 103.734C284.657 103.734 279.953 96.6879 279.868 94.8088C279.782 92.9297 282.647 93.4422 284.059 95.791C285.47 98.1399 286.24 101.257 290.987 102.069C295.734 102.838 299.498 99.293 299.498 99.293C299.498 99.293 299.797 93.613 300.31 92.4599C300.823 91.3068 302.705 91.1787 302.705 91.1787C302.705 91.1787 303.389 94.8515 302.876 97.9691L305.87 93.5276C306.426 92.6734 307.41 92.2037 308.436 92.2464C308.949 92.2891 309.291 92.8016 309.12 93.2713C308.693 94.5525 307.752 96.9868 306.041 99.0367L310.446 96.6025C310.916 96.3462 311.472 96.517 311.772 96.9441C312.028 97.3712 311.943 97.9264 311.558 98.2253C310.018 99.4638 306.127 102.539 302.919 103.948C297.53 106.34 293.468 107.322 285.128 107.279L284.657 103.734Z" fill="#3279BA"/>
<path d="M180.819 181.076C183.37 181.076 185.438 179.011 185.438 176.464C185.438 173.917 183.37 171.852 180.819 171.852C178.268 171.852 176.2 173.917 176.2 176.464C176.2 179.011 178.268 181.076 180.819 181.076Z" fill="#155DA0"/>
<path d="M206.736 181.076C209.287 181.076 211.355 179.011 211.355 176.464C211.355 173.917 209.287 171.852 206.736 171.852C204.185 171.852 202.117 173.917 202.117 176.464C202.117 179.011 204.185 181.076 206.736 181.076Z" fill="#155DA0"/>
<path d="M193.221 178.044C193.221 179.709 191.853 181.076 190.185 181.076C188.517 181.076 187.148 179.709 187.148 178.044C187.148 176.378 188.517 175.012 190.185 175.012C191.853 175.054 193.221 176.421 193.221 178.044Z" fill="#155DA0"/>
<path d="M200.535 178.044C200.535 179.709 199.166 181.076 197.498 181.076C195.83 181.076 194.462 179.709 194.462 178.044C194.462 176.378 195.83 175.012 197.498 175.012C199.209 175.054 200.535 176.421 200.535 178.044Z" fill="#155DA0"/>
</g>
<defs>
<clipPath id="clip0_815_5099">
<rect width="400" height="194.486" fill="white"/>
</clipPath>
</defs>
</svg>
