<svg width="392" height="392" viewBox="0 0 392 392" fill="none" xmlns="http://www.w3.org/2000/svg">
<path d="M320.656 199.99C251.343 160.006 139.333 160.006 70.466 199.99C1.59947 239.974 1.99931 304.897 71.3441 344.913C140.689 384.928 252.668 384.936 321.534 344.913C390.401 304.89 390.001 240.014 320.656 199.99Z" fill="#F0F5FF"/>
<path d="M339.527 295.568C333.71 292.205 324.309 292.205 318.531 295.568C312.753 298.931 312.777 304.372 318.594 307.728C324.411 311.083 333.819 311.091 339.597 307.728C345.375 304.364 345.344 298.931 339.527 295.568Z" fill="#D9E5F8"/>
<path d="M235.2 186.098L343.392 248.567C343.63 248.705 343.827 248.903 343.964 249.141C344.101 249.379 344.173 249.649 344.173 249.923C344.173 250.198 344.101 250.468 343.964 250.706C343.827 250.944 343.63 251.142 343.392 251.28L301.511 275.364C300.796 275.777 299.984 275.994 299.159 275.994C298.333 275.994 297.522 275.777 296.807 275.364L188.615 212.895C188.377 212.757 188.18 212.559 188.043 212.321C187.906 212.083 187.833 211.814 187.833 211.539C187.833 211.264 187.906 210.994 188.043 210.756C188.18 210.518 188.377 210.32 188.615 210.182L230.496 186.098C231.211 185.685 232.022 185.468 232.848 185.468C233.674 185.468 234.485 185.685 235.2 186.098Z" fill="#D9E5F8"/>
<path d="M96.777 255.294C119.435 242.209 156.055 242.209 178.572 255.294C198.47 266.858 200.673 284.757 185.291 297.795C197.701 297.011 210.567 299.363 220.045 304.905C236.682 314.572 236.596 330.244 219.849 339.911C203.103 349.578 176.039 349.586 159.403 339.911C146.169 332.22 143.527 320.727 151.437 311.483C132.355 314.243 111.367 311.311 96.5104 302.679C73.994 289.594 74.1116 268.379 96.777 255.294Z" fill="#D9E5F8"/>
<path d="M286.466 79.5759L286.286 132.606L289.814 134.636L289.986 81.6065L286.466 79.5759Z" fill="#D1E1FF"/>
<path d="M289.994 81.6064H289.986L289.813 134.636L292.871 132.857L293.044 83.3704L289.994 81.6064Z" fill="#BED5FE"/>
<path opacity="0.2" d="M289.978 84.4524L289.986 81.6065L286.466 79.5759L286.458 82.414L289.978 84.4524Z" fill="black"/>
<path opacity="0.2" d="M289.979 84.4524L292.456 83.0255L289.994 81.6064H289.986L289.979 84.4524Z" fill="black"/>
<path d="M286.466 51.501L286.286 75.3973L289.814 77.4279L289.986 53.5315L286.466 51.501Z" fill="#D1E1FF"/>
<path d="M289.994 53.5315H289.986L289.813 77.4278L292.871 75.6481L293.044 55.2955L289.994 53.5315Z" fill="#BED5FE"/>
<path opacity="0.2" d="M289.978 56.3775L289.986 53.5315L286.466 51.501L286.458 54.3391L289.978 56.3775Z" fill="black"/>
<path opacity="0.2" d="M289.979 56.3774L292.456 54.9584L289.994 53.5315H289.986L289.979 56.3774Z" fill="black"/>
<path d="M244.059 55.0917L247.125 53.312L246.944 106.342L243.879 108.121L244.059 55.0917Z" fill="#BED5FE"/>
<path d="M243.879 108.121L246.944 106.342L335.285 157.341L332.22 159.121L243.879 108.121Z" fill="#F0F5FF"/>
<path d="M240.547 49.0078L335.936 104.076L335.733 165.228L240.343 110.136L240.547 49.0078ZM332.22 159.152L332.401 106.122L244.059 55.1622L243.879 108.192L332.22 159.152Z" fill="#D1E1FF"/>
<path d="M240.547 49.0077L243.612 47.228L338.994 102.296L335.936 104.076L240.547 49.0077Z" fill="#F0F5FF"/>
<path d="M335.936 104.076L338.994 102.296L338.798 163.425L335.732 165.205L335.936 104.076Z" fill="#BED5FE"/>
<path d="M244.059 27.0165L247.125 25.2368L246.944 49.1331L243.879 50.9128L244.059 27.0165Z" fill="#BED5FE"/>
<path d="M243.879 50.913L246.944 49.1333L335.285 100.133L332.22 101.912L243.879 50.913Z" fill="#F0F5FF"/>
<path d="M240.547 20.9329L335.936 76.001L335.733 107.996L240.343 52.9279L240.547 20.9329ZM332.22 101.92L332.416 78.0159L244.059 27.0167L243.879 50.913L332.22 101.92Z" fill="#D1E1FF"/>
<path d="M240.547 20.9328L243.612 19.1531L338.994 74.2212L335.936 76.0009L240.547 20.9328Z" fill="#F0F5FF"/>
<path d="M335.936 76.0009L338.994 74.2212L338.798 106.216L335.732 107.996L335.936 76.0009Z" fill="#BED5FE"/>
<path d="M84.5229 79.7486L84.5778 98.8703L86.8985 100.211L86.8357 78.4158L84.5229 79.7486Z" fill="#BED5FE"/>
<path d="M59.5605 113.311L59.5684 115.993L86.8986 100.211L84.578 98.8701L59.5605 113.311Z" fill="#F0F5FF"/>
<path d="M89.6267 73.5862L56.6987 92.5903L56.7771 120.814L89.7051 101.802L89.6267 73.5862ZM59.5839 116.032V113.351L59.529 94.2289L84.5464 79.7876L86.8984 78.4548L86.9611 100.25L59.5839 116.032Z" fill="#D1E1FF"/>
<path d="M89.6271 73.5863L87.3064 72.2378L54.3784 91.2498L56.6991 92.5904L89.6271 73.5863Z" fill="#F0F5FF"/>
<path d="M54.3784 91.2498L54.4647 119.482L56.7775 120.822L56.6991 92.5904L54.3784 91.2498Z" fill="#BED5FE"/>
<path d="M84.5073 122.657L84.5622 141.779L86.875 143.127L86.8201 121.324L84.5073 122.657Z" fill="#BED5FE"/>
<path d="M59.5449 156.22L59.5528 158.901L86.8752 143.127L84.5624 141.779L59.5449 156.22Z" fill="#F0F5FF"/>
<path d="M89.6111 116.495L56.6831 135.507L56.7615 163.731L89.6895 144.719L89.6111 116.495ZM59.5839 158.901V156.22L59.529 137.098L84.5465 122.657L86.8593 121.324L86.9141 143.127L59.5839 158.901Z" fill="#D1E1FF"/>
<path d="M89.6114 116.494L87.2908 115.146L54.3628 134.158L56.6834 135.506L89.6114 116.494Z" fill="#F0F5FF"/>
<path d="M54.3628 134.158L54.4412 162.39L56.7618 163.738L56.6834 135.506L54.3628 134.158Z" fill="#BED5FE"/>
<path d="M133.507 99.3486V94.7073L133.28 94.8641L132.888 95.0914C129.462 97.1612 126.02 100.415 122.814 103.935C122.291 104.515 121.768 105.103 121.246 105.699C118.549 108.796 115.899 112.065 113.186 115.107V122.61L116.463 120.72C120.729 112.574 126.514 105.32 133.507 99.3486Z" fill="#D8E4FC"/>
<path d="M133.546 110.866V104.656C130.702 107.68 128.355 111.136 126.592 114.895L133.546 110.866Z" fill="#D8E4FC"/>
<path d="M126.569 114.895C128.331 111.136 130.678 107.68 133.523 104.656V99.3484C126.528 105.324 120.743 112.584 116.479 120.736L126.569 114.911V114.895Z" fill="#FAFAFA"/>
<path d="M119.724 92.9511L120.195 92.7864C121.073 92.4728 121.959 92.1044 122.853 91.6967L123.174 91.5399C123.48 91.3988 123.778 91.2498 124.076 91.093C124.593 90.8343 125.111 90.5599 125.644 90.262C125.118 90.5599 124.601 90.8343 124.076 91.093L124.264 91.0068C124.719 90.7716 125.173 90.5207 125.636 90.2228L125.926 90.0581L126.161 89.917C128.639 88.4519 130.984 86.773 133.17 84.8994L133.468 84.6407V76.8007C128.49 79.3487 123.59 80.1405 119.638 78.9096C116.927 78.0423 114.609 76.246 113.092 73.8372L113.147 94.2212C115.388 94.1063 117.602 93.6788 119.724 92.9511Z" fill="#FAFAFA"/>
<path d="M122.821 103.903C126.028 100.383 129.47 97.1297 132.896 95.06L133.288 94.8326L133.5 94.7072V90.2148C126.857 94.1261 120.702 98.8104 115.162 104.17C114.495 104.805 113.837 105.456 113.17 106.075V115.107C115.883 112.034 118.533 108.764 121.23 105.699C121.758 105.082 122.288 104.484 122.821 103.903Z" fill="#FAFAFA"/>
<path d="M133.484 90.215V84.6799L133.186 84.9386C131 86.8122 128.655 88.4912 126.177 89.9562L125.942 90.0974L125.652 90.262C125.189 90.5207 124.735 90.7716 124.28 91.046L124.092 91.1322L123.966 91.2028L124.092 91.1322C123.794 91.289 123.496 91.4302 123.198 91.5791L122.869 91.7359C121.975 92.1436 121.089 92.5199 120.211 92.8257L120.713 92.6454L120.211 92.8257L119.74 92.9903C117.612 93.7336 115.39 94.1743 113.139 94.2996V106.114C113.806 105.495 114.464 104.844 115.131 104.209C120.673 98.835 126.834 94.1374 133.484 90.215Z" fill="#D8E4FC"/>
<path d="M133.429 70.4895V64.6879C130.293 63.951 127.839 61.6617 126.561 58.2356L119.607 62.2497C120.824 64.8468 122.791 67.0197 125.255 68.4884C127.718 69.957 130.565 70.654 133.429 70.4895Z" fill="#FAFAFA"/>
<path d="M119.615 78.9409C123.535 80.1717 128.466 79.3799 133.445 76.8319V70.4893C130.576 70.6603 127.722 69.9664 125.252 68.4973C122.782 67.0283 120.81 64.8518 119.591 62.2495L113.045 66.0284V73.8684C114.568 76.2816 116.895 78.0784 119.615 78.9409Z" fill="#D8E4FC"/>
<path d="M134.527 52.3086L111.893 65.3779L112.057 124.586L134.691 111.516L134.527 52.3086ZM113.202 122.61V115.107V106.075V94.2604L113.147 73.8764V66.0364L119.693 62.2576L126.647 58.2435L133.484 54.3235V64.7272V70.5288V76.8713V84.7113V90.2464V94.7387V99.38V104.688V110.897L126.506 114.927L116.479 120.736L113.202 122.61Z" fill="white"/>
<path d="M133.413 64.6879V54.2842L126.577 58.2042C127.792 61.6616 130.269 63.9509 133.413 64.6879Z" fill="#D8E4FC"/>
<path d="M134.691 111.516L112.057 124.585L112.065 126.153L136.055 112.308L134.691 111.516Z" fill="#D0E1F0"/>
<path d="M134.526 52.3084L134.691 111.516L136.055 112.308L135.883 51.5244L134.526 52.3084Z" fill="#BED5FE"/>
<path d="M139.552 45.2212L108.231 63.2924L108.427 132.496L139.717 114.464L139.552 45.2212ZM112.112 126.161V124.593L111.948 65.3857L134.582 52.3164L135.938 51.5324L136.11 112.316L112.112 126.161Z" fill="#D1E1FF"/>
<path d="M139.521 45.2212L136.941 43.8335L105.644 61.9047L108.231 63.2924L139.521 45.2212Z" fill="#F0F5FF"/>
<path d="M105.644 61.9045L105.84 131.077L108.427 132.457L108.231 63.2922L105.644 61.9045Z" fill="#BED5FE"/>
<path d="M76.5732 87.0083L83.4019 92.3787L83.4097 97.6237L60.7208 110.724L60.7051 105.479L65.0328 96.8867L68.9136 99.9051L67.5416 104.17L69.5329 100.383L76.5732 87.0083Z" fill="#D1E1FF"/>
<path d="M69.1254 89.6505C70.1917 89.0311 71.0619 89.5329 71.0619 90.7559C71.0248 91.4227 70.8308 92.0714 70.4957 92.649C70.1605 93.2266 69.6937 93.717 69.1333 94.0801C68.067 94.6995 67.1968 94.1977 67.1968 92.9747C67.2326 92.3076 67.4261 91.6585 67.7613 91.0807C68.0966 90.5028 68.5641 90.0127 69.1254 89.6505Z" fill="#D1E1FF"/>
<path d="M76.5576 129.917L83.3784 135.287L83.3941 140.532L60.7051 153.641L60.6895 148.388L65.0171 139.803L68.8979 142.814L67.5259 147.079L69.5173 143.292L76.5576 129.917Z" fill="#D1E1FF"/>
<path d="M69.1019 132.559C70.176 131.947 71.0384 132.441 71.0463 133.664C71.011 134.333 70.8179 134.985 70.4827 135.565C70.1475 136.146 69.6797 136.639 69.1176 137.004C68.0514 137.623 67.1812 137.129 67.1812 135.899C67.2156 135.23 67.4075 134.579 67.7413 133.998C68.0751 133.418 68.5413 132.925 69.1019 132.559Z" fill="#D1E1FF"/>
<path d="M193.052 150.591V212.793L298.853 273.553V211.351L193.052 150.591Z" fill="#D1E1FF"/>
<path d="M340.585 187.329V249.539L298.853 273.553V211.351L340.585 187.329Z" fill="#D1E1FF"/>
<path opacity="0.1" d="M193.052 150.591V212.793L298.853 273.553V211.351L193.052 150.591Z" fill="black"/>
<path opacity="0.2" d="M340.585 187.329V249.539L298.853 273.553V211.351L340.585 187.329Z" fill="black"/>
<path d="M244.333 218.908L293.859 247.352V232.746L244.333 204.31V218.908Z" fill="#D1E1FF"/>
<path d="M293.859 229.257V214.244L244.333 185.808V200.814L293.859 229.257Z" fill="#D1E1FF"/>
<path d="M239.34 182.938L198.054 159.222V174.236L239.34 197.944V182.938Z" fill="#D1E1FF"/>
<path d="M244.333 236.486L293.859 264.921V250.841L244.333 222.397V236.486Z" fill="#D1E1FF"/>
<path d="M239.34 201.441L198.054 177.725V192.331L239.34 216.039V201.441Z" fill="#D1E1FF"/>
<path d="M198.054 195.82V209.9L239.34 233.616V219.528L198.054 195.82Z" fill="#D1E1FF"/>
<path d="M191.555 144.797L299.817 206.976L342.083 182.648L233.757 120.43L191.555 144.797Z" fill="#D8E4FC"/>
<path d="M191.555 144.797V151.147L299.817 213.334V206.976L191.555 144.797Z" fill="#D1E1FF"/>
<path d="M342.083 182.648V189.007L299.817 213.334V206.976L342.083 182.648Z" fill="#D1E1FF"/>
<path opacity="0.1" d="M342.083 182.648V189.007L299.817 213.334V206.976L342.083 182.648Z" fill="black"/>
<path d="M343.149 276.242L329.037 276.65L314.925 276.242C314.321 285.76 316.179 295.45 318.743 300.186C319.347 301.405 320.325 302.4 321.534 303.024C325.689 305.423 332.4 305.423 336.532 303.024C337.757 302.388 338.738 301.365 339.323 300.115C341.918 295.348 343.753 285.713 343.149 276.242Z" fill="white"/>
<path d="M338.994 270.48C344.482 273.671 344.537 278.838 339.057 282.021C333.576 285.204 324.655 285.211 319.135 282.021C313.616 278.83 313.6 273.663 319.088 270.48C324.576 267.297 333.475 267.289 338.994 270.48Z" fill="#D8E4FC"/>
<path d="M336.806 271.742C341.118 274.227 341.134 278.257 336.861 280.742C332.589 283.228 325.627 283.228 321.315 280.742C317.003 278.257 316.987 274.227 321.268 271.742C325.548 269.257 332.502 269.257 336.806 271.742Z" fill="#D1E1FF"/>
<g opacity="0.15">
<path opacity="0.15" d="M336.806 271.742C341.118 274.227 341.134 278.257 336.861 280.742C332.589 283.228 325.627 283.228 321.315 280.742C317.003 278.257 316.987 274.227 321.268 271.742C325.548 269.257 332.502 269.257 336.806 271.742Z" fill="black"/>
</g>
<path d="M352.22 216.133C320.476 226.529 320.193 247.767 327.343 262.891C329.155 265.948 334.611 267.595 339.37 248.779L331.028 249.845L340.75 244.922L343.274 237.372L335.168 237.975L345.454 233.632C347.348 227.666 349.608 221.822 352.22 216.133Z" fill="#5B86E5"/>
<path opacity="0.2" d="M352.22 216.133C320.476 226.529 320.193 247.767 327.343 262.891C329.155 265.948 334.611 267.595 339.37 248.779L331.028 249.845L340.75 244.922L343.274 237.372L335.168 237.975L345.454 233.632C347.348 227.666 349.608 221.822 352.22 216.133Z" fill="black"/>
<path opacity="0.2" d="M352.22 216.133C320.476 226.529 320.193 247.767 327.343 262.891C329.155 265.948 334.611 267.595 339.37 248.779L331.028 249.845L340.75 244.922L343.274 237.372L335.168 237.975L345.454 233.632C347.348 227.666 349.608 221.822 352.22 216.133Z" fill="white"/>
<path d="M343.243 221.441C326.505 234.149 324.991 248.716 329.719 263.926C328.049 250.535 326.238 236.995 343.243 221.441Z" fill="white"/>
<path d="M298.453 237.709C329.75 242.115 333.545 261.84 329.39 277.12C328.222 280.256 323.408 282.71 315.85 265.98L323.792 265.588L313.929 262.64L310.323 256.031L317.967 255.247L307.673 252.895C304.917 247.647 301.838 242.575 298.453 237.709Z" fill="#5B86E5"/>
<path opacity="0.2" d="M298.453 237.709C329.75 242.115 333.545 261.84 329.39 277.12C328.222 280.256 323.408 282.71 315.85 265.98L323.792 265.588L313.929 262.64L310.323 256.031L317.967 255.247L307.673 252.895C304.917 247.647 301.838 242.575 298.453 237.709Z" fill="white"/>
<path opacity="0.1" d="M298.453 237.709C329.75 242.115 333.545 261.84 329.39 277.12C328.222 280.256 323.408 282.71 315.85 265.98L323.792 265.588L313.929 262.64L310.323 256.031L317.967 255.247L307.673 252.895C304.917 247.647 301.838 242.575 298.453 237.709Z" fill="black"/>
<path d="M307.696 241.158C325.399 250.213 329.233 263.526 327.351 278.477C326.685 265.729 326.144 252.816 307.696 241.158Z" fill="white"/>
<path d="M361.424 245.102C332.722 245.564 327.092 262.93 329.131 277.16C329.829 280.131 333.898 282.867 342.576 268.637L335.458 267.399L344.685 265.831L348.676 260.28L341.824 258.72L351.365 257.779C354.451 253.348 357.811 249.115 361.424 245.102Z" fill="#5B86E5"/>
<path d="M352.667 247.179C335.693 253.357 330.754 264.929 330.777 278.61C332.8 267.195 334.768 255.623 352.667 247.179Z" fill="white"/>
<path opacity="0.2" d="M361.424 245.102C332.722 245.564 327.092 262.93 329.131 277.16C329.829 280.131 333.898 282.867 342.576 268.637L335.458 267.399L344.685 265.831L348.676 260.28L341.824 258.72L351.365 257.779C354.451 253.348 357.811 249.115 361.424 245.102Z" fill="white"/>
<path d="M221.543 124.366L254.8 105.291C257.05 103.998 262.381 105.746 262.381 109.36C262.38 109.067 262.302 108.779 262.155 108.526C262.008 108.272 261.797 108.062 261.543 107.915C261.289 107.768 261.002 107.69 260.708 107.69C260.415 107.689 260.127 107.765 259.872 107.91L226.615 127.008C225.769 127.5 225.087 128.231 224.655 129.109L219.677 126.224C220.12 125.448 220.765 124.806 221.543 124.366Z" fill="#5B86E5"/>
<path d="M224.655 129.093C224.311 129.783 224.091 138.784 224.091 139.575V166.623C224.091 166.916 224.167 167.204 224.313 167.458C224.459 167.712 224.67 167.923 224.923 168.07C225.177 168.217 225.464 168.295 225.757 168.295C226.05 168.296 226.338 168.22 226.592 168.074C225.852 168.536 225.002 168.794 224.13 168.822C223.258 168.85 222.394 168.647 221.625 168.233C220.857 167.819 220.212 167.209 219.755 166.465C219.299 165.721 219.047 164.87 219.026 163.997V128.717C219.03 127.857 219.254 127.012 219.677 126.263L224.655 129.093Z" fill="#5B86E5"/>
<path opacity="0.4" d="M221.543 124.366L254.8 105.291C257.05 103.998 262.381 105.746 262.381 109.36C262.38 109.067 262.302 108.779 262.155 108.526C262.008 108.272 261.797 108.062 261.543 107.915C261.289 107.768 261.002 107.69 260.708 107.69C260.415 107.689 260.127 107.765 259.872 107.91L226.615 127.008C225.769 127.5 225.087 128.231 224.655 129.109L219.677 126.224C220.12 125.448 220.765 124.806 221.543 124.366Z" fill="white"/>
<path opacity="0.2" d="M224.655 129.093C224.311 129.783 224.091 138.784 224.091 139.575V166.623C224.091 166.916 224.167 167.204 224.313 167.458C224.459 167.712 224.67 167.923 224.923 168.07C225.177 168.217 225.464 168.295 225.757 168.295C226.05 168.296 226.338 168.22 226.592 168.074C225.852 168.536 225.002 168.794 224.13 168.822C223.258 168.85 222.394 168.647 221.625 168.233C220.857 167.819 220.212 167.209 219.755 166.465C219.299 165.721 219.047 164.87 219.026 163.997V128.717C219.03 127.857 219.254 127.012 219.677 126.263L224.655 129.093Z" fill="white"/>
<path d="M259.865 107.91L226.615 127.008C225.849 127.446 225.213 128.078 224.769 128.84C224.326 129.603 224.092 130.469 224.091 131.351V166.631C224.09 166.924 224.167 167.212 224.313 167.466C224.459 167.72 224.67 167.931 224.923 168.078C225.176 168.225 225.464 168.303 225.757 168.303C226.05 168.304 226.338 168.228 226.592 168.082L259.841 149.062C260.61 148.625 261.25 147.992 261.695 147.228C262.14 146.464 262.374 145.595 262.374 144.711V109.36C262.372 109.067 262.294 108.779 262.147 108.526C262 108.272 261.789 108.061 261.536 107.915C261.282 107.768 260.994 107.69 260.701 107.689C260.408 107.689 260.119 107.765 259.865 107.91Z" fill="#5B86E5"/>
<path d="M208.975 172.668L208.481 172.558C208.378 172.54 208.282 172.491 208.207 172.417C207.752 172.025 207.87 170.928 208.56 170.065L224.091 150.669L219.026 147.776L203.487 167.172C202.805 168.027 202.703 169.124 203.142 169.524L207.964 172.26L195.42 187.98L200.492 190.873L214.15 173.766L208.975 172.668Z" fill="#5B86E5"/>
<path d="M224.091 157.78V150.677L208.544 170.073C207.854 170.928 207.76 172.025 208.191 172.425C208.266 172.499 208.362 172.548 208.466 172.566L208.959 172.676L214.126 173.781L200.469 190.888L219.104 171.774C219.99 170.873 220.186 169.422 219.481 169.117L215.341 167.306L215.867 166.733L224.091 157.78Z" fill="#5B86E5"/>
<path d="M219.496 169.109L215.882 166.726L215.357 167.298L219.496 169.109Z" fill="#5B86E5"/>
<path opacity="0.4" d="M208.975 172.668L208.481 172.558C208.378 172.54 208.282 172.491 208.207 172.417C207.752 172.025 207.87 170.928 208.56 170.065L224.091 150.669L219.026 147.776L203.487 167.172C202.805 168.027 202.703 169.124 203.142 169.524L207.964 172.26L195.42 187.98L200.492 190.873L214.15 173.766L208.975 172.668Z" fill="white"/>
<path opacity="0.2" d="M219.496 169.109L215.882 166.726L215.357 167.298L219.496 169.109Z" fill="white"/>
<path d="M248.975 128.388L254.095 125.44V131.979L253.46 132.347L253.499 144.515L234.604 155.428V143.253L233.969 143.621V137.082L241.284 132.857L239.904 132.653C239.267 132.598 238.652 132.394 238.109 132.057C237.765 131.779 237.5 131.415 237.34 131.002C237.181 130.59 237.132 130.142 237.199 129.705C237.279 128.992 237.502 128.302 237.855 127.677C238.208 127.051 238.684 126.504 239.253 126.067C239.303 126.029 239.355 125.995 239.41 125.965C239.666 125.789 239.965 125.684 240.275 125.662C240.585 125.64 240.896 125.701 241.174 125.84C241.571 126.104 241.897 126.462 242.123 126.883C242.656 127.737 243.166 128.662 243.644 129.587C244.411 127.317 245.464 125.154 246.78 123.151C247.34 122.268 248.012 121.462 248.779 120.752C249.034 120.53 249.31 120.333 249.602 120.164C249.852 119.985 250.138 119.862 250.439 119.803C250.741 119.743 251.051 119.749 251.351 119.819C252.48 120.195 252.55 121.983 252.033 123.551C251.5 125.016 250.703 126.371 249.681 127.549C249.461 127.792 249.226 128.098 248.975 128.388ZM242.052 149.846V138.956L235.725 142.602V153.499L242.052 149.846ZM252.393 143.88V132.982L246.074 136.636V147.525L252.401 143.88H252.393ZM247.823 124.021C246.556 125.962 245.574 128.074 244.906 130.293C246.365 129.148 247.682 127.832 248.826 126.373C249.539 125.559 250.102 124.624 250.488 123.613C250.723 122.908 250.708 122.045 250.284 121.92C250.161 121.895 250.034 121.896 249.911 121.923C249.788 121.95 249.672 122.003 249.571 122.077C249.426 122.163 249.289 122.263 249.163 122.375C248.636 122.87 248.175 123.431 247.791 124.045L247.823 124.021ZM241.997 137.702V133.711L235.028 137.733V141.716L241.99 137.702H241.997ZM252.966 131.359V127.377L246.004 131.398V135.381L252.966 131.359ZM240.774 130.575L241.809 130.732C241.433 130.019 241.025 129.321 240.618 128.662C240.466 128.355 240.246 128.087 239.975 127.878C239.886 127.828 239.786 127.802 239.685 127.802C239.583 127.802 239.483 127.828 239.395 127.878C239.091 128.152 238.901 128.53 238.861 128.937C238.837 129.154 238.869 129.374 238.956 129.575C239.043 129.775 239.18 129.95 239.355 130.081C239.8 130.334 240.295 130.487 240.806 130.528" fill="white"/>
<path d="M240.421 89.58C241.205 89.141 241.817 89.4938 241.817 90.364V97.7179C241.789 98.1984 241.649 98.6657 241.408 99.0823C241.167 99.4989 240.832 99.8532 240.429 100.117C239.645 100.564 239.034 100.203 239.034 99.3329V91.9869C239.06 91.5049 239.199 91.0358 239.44 90.6177C239.681 90.1995 240.017 89.844 240.421 89.58Z" fill="#5B86E5"/>
<path d="M221.708 106.161C222.186 105.879 222.656 105.903 222.907 106.263L226.129 110.779C226.513 111.32 226.286 112.433 225.628 113.257C225.436 113.503 225.199 113.71 224.93 113.868C224.756 114.013 224.531 114.084 224.305 114.065C224.079 114.046 223.87 113.939 223.722 113.766L220.508 109.25C220.124 108.709 220.343 107.604 221.01 106.773C221.2 106.525 221.437 106.317 221.708 106.161Z" fill="#5B86E5"/>
<path d="M208.035 129.83C208.247 129.701 208.492 129.636 208.74 129.642L214.283 130.121C214.95 130.175 215.177 131.022 214.801 132.01C214.57 132.626 214.147 133.152 213.593 133.507C213.388 133.638 213.146 133.701 212.903 133.688L207.353 133.217C206.686 133.155 206.451 132.316 206.835 131.328C207.063 130.713 207.484 130.188 208.035 129.83Z" fill="#5B86E5"/>
<path d="M209.469 150.528C210.253 150.081 210.865 150.442 210.873 151.312C210.845 151.793 210.706 152.26 210.465 152.677C210.224 153.094 209.888 153.448 209.485 153.711L203.056 157.451C202.272 157.89 201.668 157.529 201.661 156.667C201.687 156.186 201.826 155.718 202.067 155.301C202.308 154.884 202.644 154.53 203.048 154.268L209.469 150.528Z" fill="#5B86E5"/>
<path d="M225.102 172.48C225.307 172.348 225.548 172.282 225.792 172.292C226.458 172.355 226.686 173.201 226.309 174.189L223.126 182.398C222.898 183.011 222.477 183.534 221.927 183.887C221.717 184.016 221.475 184.082 221.229 184.076C220.563 184.021 220.335 183.174 220.712 182.186L223.895 173.978C224.123 173.36 224.547 172.834 225.102 172.48Z" fill="#5B86E5"/>
<path d="M240.641 168.325C241.425 167.878 242.037 168.231 242.037 169.109V176.455C242.009 176.937 241.87 177.405 241.629 177.823C241.388 178.241 241.052 178.597 240.649 178.862C239.865 179.301 239.253 178.94 239.253 178.078V170.732C239.278 170.249 239.417 169.78 239.658 169.362C239.899 168.943 240.236 168.588 240.641 168.325Z" fill="#5B86E5"/>
<path d="M256.156 154.573C256.642 154.291 257.113 154.307 257.372 154.675L260.586 159.191C260.97 159.732 260.743 160.845 260.084 161.669C259.892 161.915 259.655 162.122 259.386 162.28C259.212 162.425 258.988 162.496 258.762 162.477C258.536 162.458 258.326 162.351 258.179 162.178L254.965 157.662C254.58 157.121 254.8 156.008 255.466 155.185C255.658 154.941 255.891 154.734 256.156 154.573Z" fill="#5B86E5"/>
<path d="M267.493 134.942C267.701 134.81 267.945 134.744 268.191 134.754L273.742 135.224C274.408 135.287 274.635 136.134 274.251 137.122C274.028 137.738 273.606 138.262 273.052 138.611C272.844 138.745 272.6 138.81 272.354 138.799L266.811 138.321C266.145 138.266 265.909 137.42 266.294 136.432C266.522 135.819 266.943 135.296 267.493 134.942Z" fill="#5B86E5"/>
<path d="M278.006 110.991C278.79 110.552 279.394 110.913 279.394 111.775C279.369 112.255 279.232 112.723 278.992 113.14C278.752 113.557 278.417 113.911 278.014 114.174L271.617 117.867C270.833 118.313 270.221 117.953 270.221 117.083C270.247 116.6 270.386 116.131 270.627 115.713C270.868 115.295 271.204 114.939 271.609 114.676L278.006 110.991Z" fill="#5B86E5"/>
<path d="M272.926 92.3709C273.404 92.0965 273.867 92.1121 274.126 92.4728C274.51 93.0137 274.29 94.127 273.624 94.9502L268.128 101.818C267.939 102.066 267.705 102.276 267.438 102.437C266.96 102.72 266.482 102.704 266.231 102.336C265.839 101.795 266.066 100.681 266.733 99.8581L272.26 92.9902C272.442 92.745 272.668 92.5351 272.926 92.3709Z" fill="#5B86E5"/>
<path d="M259.167 84.5309C259.375 84.3985 259.618 84.3328 259.865 84.3428C260.523 84.4055 260.758 85.2444 260.374 86.2322L257.199 94.4407C256.969 95.0548 256.549 95.5794 255.999 95.9382C255.79 96.0671 255.548 96.1325 255.302 96.1263C254.635 96.0636 254.408 95.2169 254.784 94.2369L257.92 86.0284C258.159 85.4055 258.598 84.879 259.167 84.5309Z" fill="#5B86E5"/>
<g opacity="0.6">
<path opacity="0.6" d="M240.422 89.58C241.206 89.141 241.817 89.4938 241.817 90.364V97.7179C241.79 98.1984 241.649 98.6657 241.409 99.0823C241.168 99.4989 240.832 99.8532 240.43 100.117C239.646 100.564 239.034 100.203 239.034 99.3329V91.9869C239.06 91.5049 239.199 91.0358 239.441 90.6177C239.682 90.1995 240.018 89.844 240.422 89.58Z" fill="white"/>
<path opacity="0.6" d="M221.708 106.161C222.186 105.879 222.656 105.903 222.907 106.263L226.129 110.779C226.513 111.32 226.286 112.433 225.628 113.257C225.436 113.503 225.199 113.71 224.93 113.868C224.756 114.013 224.531 114.084 224.305 114.065C224.079 114.046 223.87 113.939 223.722 113.766L220.508 109.25C220.124 108.709 220.343 107.604 221.01 106.773C221.2 106.525 221.437 106.317 221.708 106.161Z" fill="white"/>
<path opacity="0.6" d="M208.035 129.83C208.247 129.701 208.492 129.636 208.74 129.642L214.283 130.121C214.95 130.175 215.177 131.022 214.801 132.01C214.57 132.626 214.147 133.152 213.593 133.507C213.388 133.638 213.146 133.701 212.903 133.688L207.353 133.217C206.686 133.155 206.451 132.316 206.835 131.328C207.063 130.713 207.484 130.188 208.035 129.83Z" fill="white"/>
<path opacity="0.6" d="M209.469 150.528C210.253 150.081 210.865 150.442 210.873 151.312C210.845 151.793 210.706 152.26 210.465 152.677C210.224 153.094 209.888 153.448 209.485 153.711L203.056 157.451C202.272 157.89 201.668 157.529 201.661 156.667C201.687 156.186 201.826 155.718 202.067 155.301C202.308 154.884 202.644 154.53 203.048 154.268L209.469 150.528Z" fill="white"/>
<path opacity="0.6" d="M225.102 172.48C225.308 172.348 225.548 172.282 225.792 172.292C226.459 172.355 226.686 173.201 226.31 174.189L223.127 182.398C222.898 183.011 222.478 183.534 221.927 183.887C221.718 184.016 221.475 184.082 221.229 184.076C220.563 184.021 220.336 183.174 220.712 182.186L223.895 173.978C224.123 173.36 224.547 172.834 225.102 172.48Z" fill="white"/>
<path opacity="0.6" d="M240.641 168.325C241.425 167.878 242.037 168.231 242.037 169.109V176.455C242.009 176.937 241.87 177.405 241.629 177.823C241.388 178.241 241.052 178.597 240.649 178.862C239.865 179.301 239.253 178.94 239.253 178.078V170.732C239.278 170.249 239.417 169.78 239.658 169.362C239.899 168.943 240.236 168.588 240.641 168.325Z" fill="white"/>
<path opacity="0.6" d="M256.156 154.573C256.642 154.291 257.113 154.307 257.372 154.675L260.586 159.191C260.97 159.732 260.743 160.845 260.084 161.669C259.892 161.915 259.655 162.122 259.386 162.28C259.212 162.425 258.988 162.496 258.762 162.477C258.536 162.458 258.326 162.351 258.179 162.178L254.965 157.662C254.58 157.121 254.8 156.008 255.466 155.185C255.658 154.941 255.891 154.734 256.156 154.573Z" fill="white"/>
<path opacity="0.6" d="M267.493 134.942C267.701 134.81 267.945 134.744 268.191 134.754L273.742 135.224C274.408 135.287 274.635 136.134 274.251 137.122C274.028 137.738 273.606 138.262 273.052 138.611C272.844 138.745 272.6 138.81 272.354 138.799L266.811 138.321C266.145 138.266 265.909 137.42 266.294 136.432C266.522 135.819 266.943 135.296 267.493 134.942Z" fill="white"/>
<path opacity="0.6" d="M278.007 110.991C278.791 110.552 279.394 110.913 279.394 111.775C279.37 112.255 279.232 112.723 278.992 113.14C278.753 113.557 278.417 113.911 278.015 114.174L271.617 117.867C270.833 118.313 270.222 117.953 270.222 117.083C270.247 116.6 270.386 116.131 270.627 115.713C270.868 115.295 271.205 114.939 271.609 114.676L278.007 110.991Z" fill="white"/>
<path opacity="0.6" d="M272.926 92.3709C273.404 92.0965 273.867 92.1121 274.126 92.4728C274.51 93.0137 274.29 94.127 273.624 94.9502L268.128 101.818C267.939 102.066 267.705 102.276 267.438 102.437C266.96 102.72 266.482 102.704 266.231 102.336C265.839 101.795 266.066 100.681 266.733 99.8581L272.26 92.9902C272.442 92.745 272.668 92.5351 272.926 92.3709Z" fill="white"/>
<path opacity="0.6" d="M259.167 84.5309C259.375 84.3985 259.618 84.3328 259.865 84.3428C260.523 84.4055 260.758 85.2444 260.374 86.2322L257.199 94.4407C256.969 95.0548 256.549 95.5794 255.999 95.9382C255.79 96.0671 255.548 96.1325 255.302 96.1263C254.635 96.0636 254.408 95.2169 254.784 94.2369L257.92 86.0284C258.159 85.4055 258.598 84.879 259.167 84.5309Z" fill="white"/>
</g>
<path d="M167.627 210.214C175.349 215.584 184.091 219.293 190.512 226.49C202.562 239.927 202.844 261.55 193.381 276.924C183.918 292.299 166.302 301.534 148.372 303.643C129.556 305.862 109.823 300.664 95.0598 288.794C80.2971 276.924 70.9048 258.367 70.9126 239.402C70.9204 220.437 80.6264 201.598 96.4867 191.257C110.967 181.849 131.767 179.12 146.286 189.924C153.625 195.412 158.525 203.44 165.886 208.92C166.435 209.383 167.031 209.806 167.627 210.214Z" fill="#5B86E5"/>
<path opacity="0.2" d="M167.627 210.214C175.349 215.584 184.091 219.293 190.512 226.49C202.562 239.927 202.844 261.55 193.381 276.924C183.918 292.299 166.302 301.534 148.372 303.643C129.556 305.862 109.823 300.664 95.0598 288.794C80.2971 276.924 70.9048 258.367 70.9126 239.402C70.9204 220.437 80.6264 201.598 96.4867 191.257C110.967 181.849 131.767 179.12 146.286 189.924C153.625 195.412 158.525 203.44 165.886 208.92C166.435 209.383 167.031 209.806 167.627 210.214Z" fill="black"/>
<path opacity="0.1" d="M167.627 210.214C175.349 215.584 184.091 219.293 190.512 226.49C202.562 239.927 202.844 261.55 193.381 276.924C183.918 292.299 166.302 301.534 148.372 303.643C129.556 305.862 109.823 300.664 95.0598 288.794C80.2971 276.924 70.9048 258.367 70.9126 239.402C70.9204 220.437 80.6264 201.598 96.4867 191.257C110.967 181.849 131.767 179.12 146.286 189.924C153.625 195.412 158.525 203.44 165.886 208.92C166.435 209.383 167.031 209.806 167.627 210.214Z" fill="white"/>
<path opacity="0.1" d="M164.475 288.959C164.475 288.833 164.475 288.7 164.421 288.575C163.777 284.389 161.846 280.508 158.895 277.471C155.945 274.433 152.121 272.39 147.957 271.625C140.497 270.199 133.348 267.462 126.843 263.542C122.226 260.751 117.867 257.324 112.692 255.819C107.654 254.373 102.274 254.683 97.4355 256.697C101.787 252.134 109.243 250.127 115.209 252.189C111.085 245.878 107.455 239.073 106.028 231.664C104.601 224.255 105.621 216.133 110.081 210.049C111.986 207.458 114.441 205.322 117.27 203.794C120.1 202.266 123.233 201.385 126.444 201.214C129.655 201.043 132.864 201.586 135.84 202.805C138.815 204.024 141.484 205.888 143.652 208.262C148.082 213.099 150.575 219.904 153.476 225.784C155.561 230.002 157.725 234.322 161.159 237.544C166.349 242.397 173.813 244.145 179.191 248.787C185.298 254.055 187.925 262.475 187.956 270.527C187.858 275.965 187.068 281.369 185.604 286.607C179.296 292.629 171.77 297.23 163.535 300.1C164.724 296.512 165.047 292.695 164.475 288.959Z" fill="black"/>
<path d="M81.0185 236.831C81.2544 223.749 86.1239 211.175 94.7606 201.347C103.397 191.518 115.241 185.073 128.184 183.158C129.98 183.33 131.761 183.629 133.515 184.052C119.91 184.774 107.083 190.622 97.6142 200.418C88.1453 210.214 82.7369 223.232 82.4767 236.854C82.1318 254.486 90.7558 272.456 105.55 284.921C117.137 294.69 132.535 301.173 149.454 303.502L148.372 303.643C146.851 303.823 145.322 303.949 143.793 304.035C128.756 301.119 115.146 294.917 104.593 286.003C89.4857 273.287 80.6657 254.894 81.0185 236.831Z" fill="white"/>
<path d="M171.304 301.918L169.344 305.76C166.6 303.228 166.106 301.181 166.106 301.181C166.992 298.045 168.027 294.862 168.536 293.341C168.803 295.497 170.277 297.355 170.888 299.456C171.126 300.257 171.266 301.084 171.304 301.918Z" fill="#5B86E5"/>
<path d="M171.21 305.854L169.344 305.76L171.28 301.918C171.359 303.22 171.249 304.537 171.21 305.854Z" fill="#5B86E5"/>
<path opacity="0.1" d="M171.304 301.918L169.344 305.76C166.6 303.228 166.106 301.181 166.106 301.181C166.992 298.045 168.027 294.862 168.536 293.341C168.803 295.497 170.277 297.355 170.888 299.456C171.126 300.257 171.266 301.084 171.304 301.918Z" fill="black"/>
<path opacity="0.4" d="M171.21 305.854L169.344 305.76L171.28 301.918C171.359 303.22 171.249 304.537 171.21 305.854Z" fill="black"/>
<path d="M169.806 288.779C170.474 287.81 171.241 286.914 172.096 286.105C171.618 287.781 171.618 289.557 172.096 291.233C172.676 293.459 173.718 295.545 174.236 297.787C174.871 300.507 174.73 303.439 175.882 305.987C176.457 307.227 177.312 308.316 178.38 309.167C179.449 310.019 180.7 310.611 182.037 310.895C183.018 311.16 184.063 311.034 184.953 310.543C185.327 310.276 185.603 309.892 185.737 309.453C186.319 310.663 187.023 311.811 187.838 312.879C188.748 314.063 189.885 315.356 189.634 316.799C189.486 317.401 189.162 317.946 188.705 318.365C188.247 318.784 187.675 319.057 187.062 319.151C185.837 319.326 184.589 319.224 183.409 318.853C180.813 318.29 178.335 317.279 176.086 315.866C173.828 314.425 172.174 312.208 171.437 309.633C171.17 308.384 171.075 307.105 171.155 305.831C171.194 304.514 171.304 303.196 171.249 301.911C171.223 301.07 171.094 300.235 170.865 299.425C170.245 297.324 168.771 295.466 168.513 293.31C168.513 293.193 168.473 293.075 168.466 292.957C168.451 291.457 168.922 289.991 169.806 288.779Z" fill="#455A64"/>
<path d="M169.806 288.779C170.474 287.81 171.241 286.914 172.096 286.105C171.618 287.781 171.618 289.557 172.096 291.233C172.676 293.459 173.718 295.545 174.236 297.787C174.871 300.507 174.73 303.439 175.882 305.987C176.457 307.227 177.312 308.316 178.38 309.167C179.449 310.019 180.7 310.611 182.037 310.895C183.018 311.16 184.063 311.034 184.953 310.543C185.327 310.276 185.603 309.892 185.737 309.453C186.319 310.663 187.023 311.811 187.838 312.879C188.748 314.063 189.885 315.356 189.634 316.799C189.486 317.401 189.162 317.946 188.705 318.365C188.247 318.784 187.675 319.057 187.062 319.151C185.837 319.326 184.589 319.224 183.409 318.853C180.813 318.29 178.335 317.279 176.086 315.866C173.828 314.425 172.174 312.208 171.437 309.633C171.17 308.384 171.075 307.105 171.155 305.831C171.194 304.514 171.304 303.196 171.249 301.911C171.223 301.07 171.094 300.235 170.865 299.425C170.245 297.324 168.771 295.466 168.513 293.31C168.513 293.193 168.473 293.075 168.466 292.957C168.451 291.457 168.922 289.991 169.806 288.779Z" fill="#5B86E5"/>
<path d="M182.068 310.895C180.732 310.611 179.48 310.019 178.412 309.167C177.344 308.316 176.489 307.227 175.914 305.987C174.761 303.439 174.902 300.499 174.267 297.787C173.75 295.544 172.699 293.459 172.127 291.232C171.649 289.557 171.649 287.781 172.127 286.105L172.793 285.447C176.094 287.163 179.849 288.583 182.86 290.762C182.789 294.617 183.033 298.472 183.589 302.287C183.999 304.767 184.751 307.179 185.824 309.453C185.689 309.892 185.414 310.275 185.04 310.542C184.135 311.048 183.066 311.175 182.068 310.895Z" fill="#CB6E58"/>
<path d="M193.279 300.727C193.828 303.918 196.266 310.409 196.266 310.409C196.266 310.409 184.82 310.872 184.569 310.347L181.206 305.149L193.279 300.727Z" fill="#F48E76"/>
<path d="M159.019 224.867L188.207 241.135C190.852 242.608 192.969 244.874 194.257 247.614C195.546 250.355 195.941 253.43 195.388 256.407L189.728 286.944L194.369 301.707C190.363 307.085 181.159 307.359 181.159 307.359C176.031 297.058 172.26 292.683 169.344 284.059C166.427 275.435 164.483 269.484 164.483 269.484L140.242 262.852C134.699 261.345 129.735 258.212 125.991 253.855C122.247 249.499 119.895 244.121 119.238 238.414C118.823 234.745 118.807 232.244 118.807 232.244L159.019 224.867Z" fill="#37474F"/>
<path opacity="0.2" d="M158.799 233.068C158.795 236.327 157.637 239.479 155.53 241.966L176.133 254.863C179.143 256.759 181.37 259.676 182.405 263.079L189.728 286.944L183.15 260.398C182.395 257.343 180.473 254.706 177.795 253.052L158.776 241.292C160.72 236.415 158.799 233.068 158.799 233.068Z" fill="black"/>
<path d="M190.057 325.203L189.79 329.492C186.278 328.237 185.016 326.56 185.016 326.56C184.6 323.329 184.294 319.99 184.153 318.367C185.243 320.248 187.329 321.377 188.732 323.071C189.259 323.725 189.704 324.441 190.057 325.203Z" fill="#5B86E5"/>
<path d="M191.523 328.857L189.791 329.492L190.057 325.203C190.622 326.371 191.045 327.626 191.523 328.857Z" fill="#5B86E5"/>
<path opacity="0.3" d="M191.523 328.857L189.791 329.492L190.057 325.203C190.622 326.371 191.045 327.626 191.523 328.857Z" fill="black"/>
<path d="M183.518 313.71C183.751 312.555 184.103 311.428 184.569 310.346C184.799 312.075 185.507 313.704 186.615 315.05C188.026 316.877 189.806 318.382 191.162 320.233C192.817 322.491 193.836 325.242 195.866 327.132C196.882 328.047 198.096 328.712 199.414 329.076C200.731 329.439 202.115 329.49 203.456 329.225C203.964 329.157 204.455 328.988 204.898 328.728C205.34 328.468 205.727 328.123 206.035 327.712C206.278 327.318 206.388 326.856 206.349 326.395C207.358 327.289 208.456 328.077 209.626 328.747C210.927 329.468 212.479 330.213 212.832 331.663C212.928 332.276 212.842 332.903 212.586 333.467C212.33 334.031 211.914 334.508 211.39 334.839C210.33 335.48 209.141 335.877 207.909 335.999C205.3 336.505 202.623 336.55 199.998 336.132C197.354 335.694 194.962 334.299 193.279 332.212C192.541 331.172 191.95 330.035 191.523 328.833C191.045 327.602 190.621 326.348 190.057 325.18C189.705 324.415 189.26 323.696 188.732 323.039C187.329 321.354 185.243 320.225 184.153 318.335C184.099 318.233 184.028 318.139 183.973 318.037C183.369 316.679 183.21 315.164 183.518 313.71Z" fill="#5B86E5"/>
<path opacity="0.2" d="M183.518 313.71C183.751 312.555 184.103 311.428 184.569 310.346C184.799 312.075 185.507 313.704 186.615 315.05C188.026 316.877 189.806 318.382 191.162 320.233C192.817 322.491 193.836 325.242 195.866 327.132C196.882 328.047 198.096 328.712 199.414 329.076C200.731 329.439 202.115 329.49 203.456 329.225C203.964 329.157 204.455 328.988 204.898 328.728C205.34 328.468 205.727 328.123 206.035 327.712C206.278 327.318 206.388 326.856 206.349 326.395C207.358 327.289 208.456 328.077 209.626 328.747C210.927 329.468 212.479 330.213 212.832 331.663C212.928 332.276 212.842 332.903 212.586 333.467C212.33 334.031 211.914 334.508 211.39 334.839C210.33 335.48 209.141 335.877 207.909 335.999C205.3 336.505 202.623 336.55 199.998 336.132C197.354 335.694 194.962 334.299 193.279 332.212C192.541 331.172 191.95 330.035 191.523 328.833C191.045 327.602 190.621 326.348 190.057 325.18C189.705 324.415 189.26 323.696 188.732 323.039C187.329 321.354 185.243 320.225 184.153 318.335C184.099 318.233 184.028 318.139 183.973 318.037C183.369 316.679 183.21 315.164 183.518 313.71Z" fill="white"/>
<path d="M203.487 329.217C202.146 329.482 200.762 329.431 199.445 329.068C198.128 328.704 196.913 328.039 195.898 327.124C193.836 325.234 192.817 322.483 191.194 320.225C189.838 318.374 188.058 316.869 186.647 315.042C185.539 313.696 184.83 312.067 184.601 310.338L184.953 309.476C188.662 309.75 192.676 309.57 196.298 310.401C197.746 313.972 199.482 317.42 201.488 320.711C202.837 322.835 204.479 324.759 206.364 326.426C206.404 326.887 206.294 327.349 206.051 327.743C205.425 328.555 204.503 329.085 203.487 329.217Z" fill="#F48E76"/>
<path d="M189.673 114.291C189.862 115.023 189.904 115.785 189.796 116.533C189.689 117.281 189.434 118 189.047 118.649C188.66 119.298 188.148 119.863 187.541 120.313C186.934 120.763 186.243 121.088 185.51 121.269C183.877 118.937 182.574 116.391 181.637 113.703C182.009 112.686 182.287 111.636 182.468 110.567C185.337 110.371 188.944 111.508 189.673 114.291Z" fill="#CF5B40"/>
<path d="M181.347 112.833C181.347 111.971 181.347 111.108 181.347 110.238C181.294 109.541 181.412 108.841 181.692 108.2C181.858 107.895 182.095 107.635 182.383 107.442C182.671 107.248 183.001 107.127 183.346 107.089C183.69 107.05 184.039 107.096 184.363 107.221C184.686 107.346 184.975 107.547 185.204 107.808C185.442 107.608 185.732 107.48 186.04 107.439C186.348 107.397 186.662 107.444 186.944 107.573C187.218 107.705 187.448 107.914 187.605 108.174C187.763 108.434 187.841 108.735 187.83 109.039C188.053 108.852 188.322 108.729 188.609 108.681C188.895 108.632 189.189 108.661 189.461 108.764C189.715 108.858 189.937 109.022 190.101 109.237C190.265 109.452 190.364 109.71 190.386 109.98C190.649 110.008 190.901 110.103 191.118 110.255C191.334 110.407 191.509 110.612 191.625 110.85C191.815 111.283 191.87 111.764 191.782 112.23C191.643 113.185 191.2 114.07 190.519 114.754C190.302 114.987 190.034 115.167 189.735 115.279C189.583 115.332 189.421 115.347 189.262 115.321C189.103 115.295 188.953 115.229 188.826 115.13C188.705 115.025 188.626 114.879 188.606 114.72C188.586 114.561 188.625 114.4 188.716 114.268C188.422 114.489 188.056 114.592 187.689 114.558C187.546 114.509 187.416 114.427 187.311 114.318C187.206 114.209 187.129 114.076 187.086 113.931C187.001 113.638 186.966 113.333 186.984 113.029C186.851 113.289 186.633 113.496 186.366 113.613C186.098 113.73 185.799 113.751 185.518 113.672C185.251 113.564 185.032 113.366 184.897 113.112C184.762 112.859 184.721 112.565 184.781 112.284C184.633 112.535 184.463 112.771 184.271 112.99C184.175 113.084 184.058 113.155 183.93 113.197C183.802 113.239 183.666 113.251 183.533 113.232C183.399 113.214 183.272 113.164 183.161 113.088C183.05 113.012 182.957 112.911 182.891 112.794C182.734 112.543 182.63 112.263 182.585 111.971C182.225 112.277 181.715 112.528 181.347 112.833Z" fill="#F48E76"/>
<path d="M178.454 124.421L180.32 119.168V114.15C180.321 113.811 180.413 113.479 180.587 113.188C180.761 112.897 181.01 112.658 181.308 112.496L182.045 112.104C182.324 111.948 182.638 111.866 182.958 111.866C183.278 111.866 183.592 111.948 183.872 112.104L187.384 114.127C187.105 114.643 186.643 115.036 186.089 115.229C185.535 115.422 184.928 115.401 184.389 115.17L183.456 114.778C187.47 118.36 185.957 120.908 185.957 120.908L183.542 126.859L178.454 124.421Z" fill="#F48E76"/>
<path d="M154.848 173.264L177.184 122.359C183.087 121.371 185.384 124.836 185.878 127.063L163.142 188.536L154.848 173.264Z" fill="#5B86E5"/>
<path opacity="0.3" d="M154.848 173.264L177.184 122.359C183.087 121.371 185.384 124.836 185.878 127.063L163.142 188.536L154.848 173.264Z" fill="white"/>
<path d="M125.487 202.358C121.402 200.234 117.349 197.866 114.362 194.518C111.375 191.17 109.58 186.584 110.669 182.319C111.665 178.399 114.84 175.357 118.055 172.699C121.269 170.042 124.75 167.47 126.726 163.903C129.078 159.63 128.944 154.581 129.258 149.791C129.572 145.001 130.685 139.756 134.652 136.706C137.741 134.354 142.061 133.758 145.996 134.354C149.932 134.95 153.585 136.628 157.137 138.337C159.614 139.528 163.77 141.543 165.761 143.362C167.752 145.181 169.258 147.658 169.203 150.277C169.173 151.627 168.695 152.929 167.843 153.976C166.991 155.024 165.814 155.758 164.499 156.063C165.283 161.175 163.041 167.172 157.6 170.959C153.311 173.922 155.342 179.951 152.347 184.287C149.352 188.622 146.326 192.974 142.249 196.423C138.172 199.873 130.293 204.851 125.487 202.358Z" fill="#263238"/>
<path d="M155.475 170.261C160.743 171.1 163.424 188.129 165.134 193.185C166.905 198.407 164.499 202.193 161.825 205.353C161.341 205.926 160.981 206.593 160.769 207.313C160.557 208.032 160.498 208.788 160.594 209.532L166.129 230.104C151.014 241.323 125.675 235.882 118.807 232.221C118.729 225.037 120.245 217.925 123.244 211.398C125.272 207.182 126.412 202.595 126.592 197.921L126.851 190.371L126.067 168.333L138.148 174.22L149.712 173.703C149.712 173.703 153.758 169.995 155.475 170.261Z" fill="#5B86E5"/>
<path opacity="0.1" d="M155.475 170.261C160.743 171.1 163.424 188.129 165.134 193.185C166.905 198.407 164.499 202.193 161.825 205.353C161.341 205.926 160.981 206.593 160.769 207.313C160.557 208.032 160.498 208.788 160.594 209.532L166.129 230.104C151.014 241.323 125.675 235.882 118.807 232.221C118.729 225.037 120.245 217.925 123.244 211.398C125.272 207.182 126.412 202.595 126.592 197.921L126.851 190.371L126.067 168.333L138.148 174.22L149.712 173.703C149.712 173.703 153.758 169.995 155.475 170.261Z" fill="white"/>
<path d="M149.744 168.56V178.901L151.077 184.24C151.149 184.537 151.121 184.849 150.997 185.128C150.874 185.407 150.662 185.638 150.394 185.785C150.126 185.931 149.817 185.985 149.515 185.938C149.213 185.892 148.935 185.746 148.725 185.526L138.156 174.213V163.182L149.744 168.56Z" fill="url(#paint0_linear_435_4392)"/>
<path d="M138.611 163.385C139.591 170.692 146.396 175.796 149.72 176.596V168.56L138.611 163.385Z" fill="#AD5755"/>
<path d="M142.037 155.083C141.926 156.006 141.703 156.912 141.371 157.78C141.077 158.426 140.582 158.96 139.959 159.301C139.66 159.463 139.324 159.548 138.983 159.548C138.643 159.548 138.307 159.463 138.007 159.301C138.491 158.469 138.624 157.479 138.378 156.549C138.131 155.619 137.526 154.825 136.694 154.342C135.862 153.859 134.873 153.725 133.943 153.972C133.013 154.218 132.219 154.823 131.735 155.655C131.401 156.23 131.198 156.872 131.138 157.534C131.078 158.196 131.165 158.864 131.39 159.489C131.855 160.735 132.6 161.856 133.57 162.766C134.16 163.177 134.875 163.369 135.591 163.307C136.307 163.245 136.979 162.935 137.49 162.429C139.591 167.721 144.546 172.684 150.191 173.86C151.728 174.226 153.339 174.145 154.832 173.625C157.403 172.629 158.282 170.238 159.262 167.901C160.555 164.969 161.446 161.876 161.911 158.705C162.476 154.307 161.833 149.626 159.387 145.926C154.801 154.487 145.44 155.357 142.037 155.083Z" fill="url(#paint1_linear_435_4392)"/>
<path d="M153.577 159.928L155.976 165.714L152.104 165.879L153.577 159.928Z" fill="#AD5755"/>
<path d="M153.601 168.842L148.732 166.992C148.316 167.701 148.156 168.531 148.278 169.344C148.345 169.746 148.51 170.125 148.759 170.448C149.008 170.771 149.333 171.027 149.705 171.194C150.098 171.336 150.518 171.385 150.933 171.336C151.349 171.287 151.746 171.142 152.096 170.912C152.763 170.359 153.28 169.647 153.601 168.842Z" fill="#AD5755"/>
<path opacity="0.3" d="M153.601 168.842L148.732 166.992C148.316 167.701 148.156 168.531 148.278 169.344C148.345 169.746 148.51 170.125 148.759 170.448C149.008 170.771 149.333 171.027 149.705 171.194C150.098 171.336 150.518 171.385 150.933 171.336C151.349 171.287 151.746 171.142 152.096 170.912C152.763 170.359 153.28 169.647 153.601 168.842Z" fill="black"/>
<path d="M148.082 159.356C148.026 159.566 148.035 159.788 148.106 159.994C148.177 160.199 148.307 160.379 148.48 160.51C148.654 160.642 148.862 160.719 149.079 160.731C149.296 160.744 149.512 160.692 149.7 160.582C149.887 160.471 150.037 160.308 150.132 160.112C150.226 159.916 150.26 159.697 150.23 159.481C150.199 159.266 150.105 159.065 149.96 158.903C149.815 158.741 149.625 158.626 149.414 158.572C149.134 158.5 148.836 158.543 148.587 158.689C148.337 158.836 148.155 159.076 148.082 159.356Z" fill="#263238"/>
<path d="M157.09 161.23C157.045 161.502 157.104 161.782 157.256 162.013C157.408 162.244 157.641 162.409 157.909 162.475C158.178 162.542 158.461 162.504 158.703 162.371C158.945 162.237 159.128 162.017 159.215 161.755C159.26 161.482 159.201 161.202 159.049 160.972C158.897 160.741 158.664 160.575 158.395 160.509C158.127 160.443 157.844 160.48 157.602 160.614C157.36 160.747 157.177 160.967 157.09 161.23Z" fill="#263238"/>
<path d="M158.462 156.173L161.073 157.545C161.142 157.233 161.115 156.908 160.994 156.612C160.874 156.317 160.666 156.065 160.398 155.891C160.082 155.752 159.732 155.705 159.39 155.755C159.048 155.805 158.726 155.949 158.462 156.173Z" fill="#263238"/>
<path d="M150.606 154.62L147.69 155.067C147.727 154.751 147.859 154.453 148.069 154.214C148.279 153.974 148.557 153.804 148.866 153.727C149.21 153.699 149.556 153.768 149.863 153.926C150.171 154.084 150.428 154.324 150.606 154.62Z" fill="#263238"/>
<path d="M148.239 168.686C148.215 168.904 148.215 169.125 148.239 169.344C148.284 169.692 148.409 170.025 148.602 170.317C148.796 170.61 149.054 170.854 149.356 171.032C149.659 171.209 149.998 171.316 150.348 171.342C150.697 171.369 151.049 171.316 151.375 171.187C151.212 170.483 150.824 169.853 150.269 169.391C149.689 168.938 148.975 168.69 148.239 168.686Z" fill="#AD5755"/>
<path d="M201.158 237.544C201.162 237.594 201.162 237.644 201.158 237.693V237.544V237.348C201.166 237.413 201.166 237.479 201.158 237.544Z" fill="#D1E1FF"/>
<path opacity="0.2" d="M201.158 237.544C201.162 237.594 201.162 237.644 201.158 237.693V237.544V237.348C201.166 237.413 201.166 237.479 201.158 237.544Z" fill="black"/>
<path d="M201.166 237.701C201.139 237.769 201.104 237.835 201.064 237.897C201.046 237.944 201.022 237.988 200.994 238.03C200.94 238.106 200.876 238.174 200.806 238.234C200.779 238.274 200.747 238.311 200.712 238.344C200.588 238.45 200.454 238.545 200.312 238.626L165.032 259.01C164.882 259.097 164.724 259.171 164.561 259.23H164.483C164.342 259.28 164.198 259.321 164.052 259.355H163.965C163.801 259.394 163.636 259.418 163.464 259.441H163.385C163.221 259.441 163.048 259.441 162.876 259.441H162.789C162.617 259.441 162.437 259.441 162.264 259.441H162.178L161.794 259.378L161.488 259.3L161.253 259.23C161.037 259.163 160.83 259.074 160.633 258.963L139.277 246.544C139.137 246.465 139.005 246.37 138.885 246.262C138.789 246.175 138.702 246.078 138.627 245.972C138.562 245.88 138.51 245.78 138.47 245.674C138.434 245.55 138.42 245.419 138.431 245.29C138.467 245.029 138.569 244.782 138.727 244.571C138.884 244.36 139.093 244.192 139.332 244.083L174.612 223.738C175.29 223.39 176.041 223.208 176.803 223.208C177.566 223.208 178.317 223.39 178.995 223.738L200.359 236.149C200.607 236.263 200.82 236.441 200.978 236.664C201.137 236.887 201.234 237.147 201.26 237.419C201.268 237.484 201.268 237.55 201.26 237.615C201.231 237.645 201.199 237.674 201.166 237.701Z" fill="#D1E1FF"/>
<path d="M198.234 237.356L163.989 257.152L163.856 257.223H163.785L163.519 257.301L163.331 257.34H163.197C163.085 257.346 162.973 257.346 162.86 257.34H162.508L162.28 257.301L162.006 257.223C161.926 257.196 161.847 257.165 161.771 257.129L150.755 250.723L186.122 230.3L198.234 237.356Z" fill="#D1E1FF"/>
<path d="M165.659 231.915L172.103 235.71C172.201 235.767 172.282 235.849 172.338 235.947C172.394 236.046 172.424 236.157 172.424 236.27C172.424 236.383 172.394 236.495 172.338 236.593C172.282 236.691 172.201 236.773 172.103 236.831L162.468 242.389C162.305 242.485 162.12 242.536 161.931 242.536C161.742 242.536 161.557 242.485 161.394 242.389L154.95 238.602C154.85 238.546 154.768 238.463 154.71 238.364C154.653 238.265 154.623 238.153 154.623 238.038C154.623 237.923 154.653 237.811 154.71 237.712C154.768 237.613 154.85 237.531 154.95 237.474L164.577 231.915C164.741 231.818 164.928 231.768 165.118 231.768C165.308 231.768 165.495 231.818 165.659 231.915Z" fill="#D1E1FF"/>
<path opacity="0.4" d="M198.234 237.356L163.989 257.152L163.856 257.223H163.785L163.519 257.301L163.331 257.34H163.197C163.085 257.346 162.973 257.346 162.86 257.34H162.508L162.28 257.301L162.006 257.223C161.926 257.196 161.847 257.165 161.771 257.129L150.755 250.723L186.122 230.3L198.234 237.356Z" fill="black"/>
<path opacity="0.4" d="M165.659 231.915L172.103 235.71C172.201 235.767 172.282 235.849 172.338 235.947C172.394 236.046 172.424 236.157 172.424 236.27C172.424 236.383 172.394 236.495 172.338 236.593C172.282 236.691 172.201 236.773 172.103 236.831L162.468 242.389C162.305 242.485 162.12 242.536 161.931 242.536C161.742 242.536 161.557 242.485 161.394 242.389L154.95 238.602C154.85 238.546 154.768 238.463 154.71 238.364C154.653 238.265 154.623 238.153 154.623 238.038C154.623 237.923 154.653 237.811 154.71 237.712C154.768 237.613 154.85 237.531 154.95 237.474L164.577 231.915C164.741 231.818 164.928 231.768 165.118 231.768C165.308 231.768 165.495 231.818 165.659 231.915Z" fill="black"/>
<path d="M163.072 257.716L166.717 234.51C166.817 233.882 167.055 233.284 167.414 232.759C167.774 232.234 168.245 231.796 168.795 231.476L204.287 210.841C204.428 210.759 204.586 210.71 204.75 210.699C204.913 210.688 205.076 210.715 205.227 210.778L206.074 211.194L205.792 211.304C205.884 211.499 205.915 211.718 205.878 211.931L202.272 235.137C202.173 235.766 201.935 236.364 201.575 236.889C201.216 237.414 200.744 237.852 200.194 238.171L164.64 258.806C164.568 258.845 164.491 258.877 164.412 258.9V259.237L163.628 258.838C163.428 258.734 163.267 258.57 163.167 258.368C163.066 258.166 163.033 257.938 163.072 257.716Z" fill="#D1E1FF"/>
<path opacity="0.3" d="M163.072 257.716L166.717 234.51C166.817 233.882 167.055 233.284 167.414 232.759C167.774 232.234 168.245 231.796 168.795 231.476L204.287 210.841C204.428 210.759 204.586 210.71 204.75 210.699C204.913 210.688 205.076 210.715 205.227 210.778L206.074 211.194L205.792 211.304C205.884 211.499 205.915 211.718 205.878 211.931L202.272 235.137C202.173 235.766 201.935 236.364 201.575 236.889C201.216 237.414 200.744 237.852 200.194 238.171L164.64 258.806C164.568 258.845 164.491 258.877 164.412 258.9V259.237L163.628 258.838C163.428 258.734 163.267 258.57 163.167 258.368C163.066 258.166 163.033 257.938 163.072 257.716Z" fill="black"/>
<path d="M169.516 231.829L205.008 211.202C205.182 211.106 205.379 211.061 205.577 211.072C205.775 211.082 205.966 211.148 206.129 211.261C206.292 211.374 206.42 211.53 206.499 211.713C206.578 211.895 206.605 212.095 206.576 212.291L202.93 235.49C202.832 236.12 202.595 236.72 202.235 237.246C201.876 237.772 201.403 238.211 200.853 238.532L165.424 259.159C165.25 259.254 165.053 259.3 164.854 259.289C164.656 259.279 164.465 259.213 164.302 259.1C164.139 258.987 164.011 258.83 163.932 258.648C163.853 258.466 163.827 258.266 163.856 258.069L167.501 234.871C167.594 234.247 167.822 233.651 168.17 233.126C168.519 232.6 168.978 232.157 169.516 231.829Z" fill="#D1E1FF"/>
<path d="M186.717 232.432C185.818 232.996 185.042 233.736 184.437 234.607C183.832 235.479 183.41 236.465 183.197 237.505C182.962 239.316 184.161 239.99 185.878 238.994C186.778 238.431 187.554 237.691 188.159 236.819C188.764 235.947 189.185 234.962 189.398 233.922C189.634 232.111 188.426 231.445 186.717 232.432Z" fill="white"/>
<path d="M103.966 126.859C98.0309 123.951 92.7625 130.168 94.5578 133.382C96.3532 136.596 107.854 132.982 103.966 126.859Z" fill="#5B86E5"/>
<path opacity="0.3" d="M103.966 126.859C98.0309 123.951 92.7625 130.168 94.5578 133.382C96.3532 136.596 107.854 132.982 103.966 126.859Z" fill="black"/>
<path d="M89.2109 117.498C90.3399 122.092 92.0177 124.311 95.2634 126.867L101.238 124.092L99.0266 113.359L97.5213 111.924L89.2109 117.498Z" fill="#CF5B40"/>
<path d="M96.6827 108.686C96.4452 108.51 96.1688 108.394 95.8769 108.347C95.585 108.3 95.2861 108.324 95.0055 108.417C94.7248 108.51 94.4707 108.669 94.2646 108.881C94.0584 109.093 93.9063 109.352 93.8211 109.635C93.5748 109.438 93.2712 109.326 92.956 109.316C92.6408 109.306 92.3309 109.399 92.0727 109.58C91.8069 109.773 91.6086 110.045 91.5059 110.358C91.4032 110.67 91.4013 111.007 91.5004 111.32C91.3557 111.178 91.1713 111.082 90.9713 111.045C90.7713 111.009 90.565 111.034 90.3793 111.116C90.0197 111.3 89.7405 111.61 89.5953 111.987C89.4306 112.366 89.3122 112.763 89.2425 113.17C89.0252 113.087 88.7884 113.068 88.5605 113.115C88.3326 113.162 88.123 113.274 87.9567 113.437C87.7968 113.605 87.6876 113.815 87.6419 114.043C87.5961 114.27 87.6156 114.506 87.698 114.723C88.0515 115.589 88.4984 116.415 89.0308 117.185C89.1647 117.469 89.3556 117.723 89.5916 117.931C89.8276 118.138 90.1037 118.295 90.4028 118.392C90.6247 118.429 90.8526 118.404 91.0606 118.318C91.2685 118.232 91.4481 118.089 91.5788 117.906C91.7059 117.719 91.7783 117.5 91.788 117.275C91.7977 117.049 91.7443 116.825 91.6337 116.628C91.8901 116.929 92.2367 117.14 92.6222 117.229C93.0077 117.318 93.4115 117.28 93.774 117.122C94.08 116.92 94.3056 116.617 94.4116 116.266C94.5175 115.915 94.4972 115.539 94.3542 115.201C94.4671 115.425 94.6452 115.609 94.8649 115.729C95.0847 115.85 95.3358 115.901 95.5851 115.875C95.8282 115.836 96.0571 115.735 96.2495 115.581C96.4418 115.427 96.5911 115.226 96.6827 114.997C96.7695 114.768 96.8087 114.523 96.7979 114.277C96.7871 114.032 96.7266 113.791 96.6199 113.57C96.6949 113.783 96.8241 113.972 96.9946 114.119C97.1651 114.266 97.3711 114.366 97.5921 114.409C97.8062 114.454 98.0284 114.439 98.2345 114.365C98.4405 114.292 98.6224 114.163 98.7603 113.994C98.9455 113.678 99.049 113.322 99.0613 112.956C99.0736 112.59 98.9944 112.228 98.8308 111.9C98.4981 110.617 97.741 109.484 96.6827 108.686Z" fill="#F48E76"/>
<path d="M104.272 130.215L101.214 124.092L102.414 119.889C102.633 119.124 102.692 118.322 102.587 117.532C102.482 116.743 102.215 115.984 101.802 115.303L101.081 114.096C100.883 113.753 100.563 113.498 100.185 113.382C99.8067 113.266 99.3987 113.297 99.0425 113.468L93.3428 116.079V116.158C93.4923 116.557 93.7217 116.921 94.0167 117.228C94.3118 117.536 94.6664 117.78 95.0589 117.946C95.4514 118.111 95.8736 118.195 96.2997 118.193C96.7258 118.19 97.1469 118.1 97.5372 117.929C93.7505 120.885 93.6172 123.37 95.1852 126.867C96.7532 130.364 99.1914 135.899 99.1914 135.899L104.272 130.215Z" fill="#F48E76"/>
<path d="M132.715 171.571L103.966 126.883C102.696 133.993 94.5581 133.405 94.5581 133.405L126.828 190.394C131.132 197.568 145.745 190.512 132.715 171.571Z" fill="#5B86E5"/>
<path opacity="0.3" d="M132.715 171.571L103.966 126.883C102.696 133.993 94.5581 133.405 94.5581 133.405L126.828 190.394C131.132 197.568 145.745 190.512 132.715 171.571Z" fill="white"/>
<path opacity="0.2" d="M151.633 203.056C149.664 204.297 147.292 204.733 145.01 204.271C142.728 203.81 140.712 202.488 139.379 200.579C139.528 203.495 141.316 206.302 144.177 206.913C147.039 207.525 150.308 205.643 151.633 203.056Z" fill="black"/>
<defs>
<linearGradient id="paint0_linear_435_4392" x1="141.651" y1="164.647" x2="147.392" y2="178.794" gradientUnits="userSpaceOnUse">
<stop stop-color="#FFD3B6"/>
<stop offset="1" stop-color="#F48E76"/>
</linearGradient>
<linearGradient id="paint1_linear_435_4392" x1="139.474" y1="147.738" x2="143.57" y2="167.252" gradientUnits="userSpaceOnUse">
<stop stop-color="#FFD3B6"/>
<stop offset="1" stop-color="#F48E76"/>
</linearGradient>
</defs>
</svg>
