<svg width="13" height="9" viewBox="0 0 13 9" fill="none" xmlns="http://www.w3.org/2000/svg">
<path d="M10.9375 9C11.5469 9 12.0625 8.50781 12.0625 7.875V1.125C12.0625 0.515625 11.5469 0 10.9375 0H1.1875C0.554688 0 0.0625 0.515625 0.0625 1.125V7.875C0.0625 8.50781 0.554688 9 1.1875 9H10.9375ZM2.6875 1.3125C3.39062 1.3125 4 1.92188 4 2.625C4 3.35156 3.39062 3.9375 2.6875 3.9375C1.96094 3.9375 1.375 3.35156 1.375 2.625C1.375 1.92188 1.96094 1.3125 2.6875 1.3125ZM1.5625 7.5V6.375L3.22656 4.71094C3.34375 4.59375 3.50781 4.59375 3.625 4.71094L4.9375 6L8.10156 2.83594C8.21875 2.71875 8.38281 2.71875 8.5 2.83594L10.5625 4.875V7.5H1.5625Z" fill="white"/>
</svg>
