<svg width="13" height="9" viewBox="0 0 13 9" fill="none" xmlns="http://www.w3.org/2000/svg">
<path d="M11.5 0H11.3125V0.46875C11.3125 0.632812 11.1719 0.75 11.0312 0.75H10.0938C9.92969 0.75 9.8125 0.632812 9.8125 0.46875V0H2.3125V0.46875C2.3125 0.632812 2.17188 0.75 2.03125 0.75H1.09375C0.929688 0.75 0.8125 0.632812 0.8125 0.46875V0H0.625C0.296875 0 0.0625 0.257812 0.0625 0.5625V8.4375C0.0625 8.76562 0.296875 9 0.625 9H0.8125V8.53125C0.8125 8.39062 0.929688 8.25 1.09375 8.25H2.03125C2.17188 8.25 2.3125 8.39062 2.3125 8.53125V9H9.8125V8.53125C9.8125 8.39062 9.92969 8.25 10.0938 8.25H11.0312C11.1719 8.25 11.3125 8.39062 11.3125 8.53125V9H11.5C11.8047 9 12.0625 8.76562 12.0625 8.4375V0.5625C12.0625 0.257812 11.8047 0 11.5 0ZM2.3125 7.21875C2.3125 7.38281 2.17188 7.5 2.03125 7.5H1.09375C0.929688 7.5 0.8125 7.38281 0.8125 7.21875V6.28125C0.8125 6.14062 0.929688 6 1.09375 6H2.03125C2.17188 6 2.3125 6.14062 2.3125 6.28125V7.21875ZM2.3125 4.96875C2.3125 5.13281 2.17188 5.25 2.03125 5.25H1.09375C0.929688 5.25 0.8125 5.13281 0.8125 4.96875V4.03125C0.8125 3.89062 0.929688 3.75 1.09375 3.75H2.03125C2.17188 3.75 2.3125 3.89062 2.3125 4.03125V4.96875ZM2.3125 2.71875C2.3125 2.88281 2.17188 3 2.03125 3H1.09375C0.929688 3 0.8125 2.88281 0.8125 2.71875V1.78125C0.8125 1.64062 0.929688 1.5 1.09375 1.5H2.03125C2.17188 1.5 2.3125 1.64062 2.3125 1.78125V2.71875ZM11.3125 7.21875C11.3125 7.38281 11.1719 7.5 11.0312 7.5H10.0938C9.92969 7.5 9.8125 7.38281 9.8125 7.21875V6.28125C9.8125 6.14062 9.92969 6 10.0938 6H11.0312C11.1719 6 11.3125 6.14062 11.3125 6.28125V7.21875ZM11.3125 4.96875C11.3125 5.13281 11.1719 5.25 11.0312 5.25H10.0938C9.92969 5.25 9.8125 5.13281 9.8125 4.96875V4.03125C9.8125 3.89062 9.92969 3.75 10.0938 3.75H11.0312C11.1719 3.75 11.3125 3.89062 11.3125 4.03125V4.96875ZM11.3125 2.71875C11.3125 2.88281 11.1719 3 11.0312 3H10.0938C9.92969 3 9.8125 2.88281 9.8125 2.71875V1.78125C9.8125 1.64062 9.92969 1.5 10.0938 1.5H11.0312C11.1719 1.5 11.3125 1.64062 11.3125 1.78125V2.71875Z" fill="white"/>
</svg>
