<svg width="16" height="13" viewBox="0 0 16 13" fill="none" xmlns="http://www.w3.org/2000/svg">
<path d="M14.3125 0.5H3.8125C3.39062 0.5 3.0625 0.851562 3.0625 1.25V3.5H6.8125V2H11.3125V9.5H14.3125C14.7109 9.5 15.0625 9.17188 15.0625 8.75V1.25C15.0625 0.851562 14.7109 0.5 14.3125 0.5ZM5.5 2.91406C5.5 3.03125 5.38281 3.125 5.28906 3.125H4.58594C4.46875 3.125 4.375 3.03125 4.375 2.91406V2.21094C4.375 2.11719 4.46875 2 4.58594 2H5.28906C5.38281 2 5.5 2.11719 5.5 2.21094V2.91406ZM13.75 7.78906C13.75 7.90625 13.6328 8 13.5391 8H12.8359C12.7188 8 12.625 7.90625 12.625 7.78906V7.08594C12.625 6.99219 12.7188 6.875 12.8359 6.875H13.5391C13.6328 6.875 13.75 6.99219 13.75 7.08594V7.78906ZM13.75 5.35156C13.75 5.46875 13.6328 5.5625 13.5391 5.5625H12.8359C12.7188 5.5625 12.625 5.46875 12.625 5.35156V4.64844C12.625 4.55469 12.7188 4.4375 12.8359 4.4375H13.5391C13.6328 4.4375 13.75 4.55469 13.75 4.64844V5.35156ZM13.75 2.91406C13.75 3.03125 13.6328 3.125 13.5391 3.125H12.8359C12.7188 3.125 12.625 3.03125 12.625 2.91406V2.21094C12.625 2.11719 12.7188 2 12.8359 2H13.5391C13.6328 2 13.75 2.11719 13.75 2.21094V2.91406ZM9.8125 4.25H0.8125C0.390625 4.25 0.0625 4.60156 0.0625 5V11.75C0.0625 12.1719 0.390625 12.5 0.8125 12.5H9.8125C10.2109 12.5 10.5625 12.1719 10.5625 11.75V5C10.5625 4.60156 10.2109 4.25 9.8125 4.25ZM2.3125 5.75C2.71094 5.75 3.0625 6.10156 3.0625 6.5C3.0625 6.92188 2.71094 7.25 2.3125 7.25C1.89062 7.25 1.5625 6.92188 1.5625 6.5C1.5625 6.10156 1.89062 5.75 2.3125 5.75ZM9.0625 11H1.5625V10.25L3.0625 8.75L3.8125 9.5L6.8125 6.5L9.0625 8.75V11Z" fill="white"/>
</svg>
