<svg width="20" height="24" viewBox="0 0 20 24" fill="none" xmlns="http://www.w3.org/2000/svg">
<path d="M1.72586 0C0.828629 0 1.70407e-05 0.718562 1.70407e-05 1.72455V21.5789C-0.00134187 21.8841 0.078597 22.1843 0.23162 22.4484C0.384644 22.7126 0.605234 22.9312 0.870725 23.0819C1.13622 23.2325 1.43704 23.3098 1.74228 23.3058C2.04752 23.3017 2.34617 23.2164 2.60756 23.0587L19.163 13.1348C19.4182 12.9817 19.6295 12.7651 19.7762 12.5061C19.9229 12.2471 20 11.9545 20 11.6569C20 11.3592 19.9229 11.0667 19.7762 10.8077C19.6295 10.5487 19.4182 10.3321 19.163 10.179L2.60885 0.248584C2.34252 0.0871673 2.03729 0.00123838 1.72586 0V0ZM2.58943 3.25619L16.5917 11.6562L2.58943 20.0485V3.25619Z" fill="#C4CDD5"/>
</svg>
