<svg width="30" height="32" viewBox="0 0 30 32" fill="none" xmlns="http://www.w3.org/2000/svg">
<path d="M29.104 5.776C29.104 2.584 26.512 0 23.32 0L5.776 2.896C2.584 2.896 0 5.48 0 8.66399V26.224C0 29.416 2.584 32 5.776 32H23.328C26.512 32.008 29.104 29.424 29.112 26.24V19.36C29.112 19.064 29.08 18.768 29.08 18.464C29.08 18.16 29.08 17.848 29.112 17.544V5.776H29.104Z" fill="#2E8E9B"/>
<path d="M29.104 5.776C29.104 2.584 26.512 0 23.32 0L5.776 2.896C2.584 2.896 0 5.48 0 8.66399V26.224C0 29.416 2.584 32 5.776 32H23.328C26.512 32.008 29.104 29.424 29.112 26.24V19.36C29.112 19.064 29.08 18.768 29.08 18.464C29.08 18.16 29.08 17.848 29.112 17.544V5.776H29.104Z" fill="url(#paint0_linear)"/>
<g clip-path="url(#clip0)">
<path d="M21.8389 15.4685L22.5763 16.937C23.7702 17.3042 24.6481 18.4231 24.6481 19.7342C24.6481 21.3426 23.3313 22.6538 21.716 22.6538C20.1007 22.6538 18.7839 21.3426 18.7839 19.7342C18.7839 19.3846 18.8542 19.0524 18.9595 18.7377L18.3801 17.5664L17.5374 18.8251C17.4671 19.1224 17.4496 19.4196 17.4496 19.7168C17.4496 22.0594 19.3633 23.9825 21.7336 23.9825C24.0862 23.9825 26.0175 22.0769 26.0175 19.7168C26 17.4265 24.1389 15.5384 21.8389 15.4685Z" fill="white"/>
<path d="M21.119 20.0315C21.2946 20.3636 21.6984 20.5035 22.0145 20.3287C22.3481 20.1713 22.4885 19.7517 22.3129 19.4371L18.8542 12.549L20.1534 9.97902C20.2587 9.76923 20.2412 9.52448 20.1183 9.33217C19.9954 9.12238 19.7847 9 19.5564 9H16.6595C16.2908 9 15.9923 9.2972 15.9923 9.66434C15.9923 10.0315 16.2908 10.3287 16.6595 10.3287H18.4503L17.5022 12.2343C17.4145 12.4266 17.4145 12.6538 17.5022 12.8287L17.8358 13.5105L14.5877 18.4056L11.9893 13.2133H13.0603C13.429 13.2133 13.7274 12.9161 13.7274 12.549C13.7274 12.1818 13.429 11.8846 13.0603 11.8846H9.44347C9.07477 11.8846 8.7763 12.1818 8.7763 12.549C8.7763 12.9161 9.07477 13.2133 9.44347 13.2133H10.4618L10.8129 13.9126L6.73965 19.3322C6.58164 19.542 6.56408 19.8042 6.66943 20.0315C6.79233 20.2587 7.02057 20.3986 7.26637 20.3986H14.4824C14.6931 20.3986 14.9213 20.2937 15.0442 20.1014L18.5206 14.9091L21.119 20.0315ZM8.63584 19.0699L11.4977 15.2587L13.4114 19.0699H8.63584Z" fill="white"/>
<path d="M7.28397 22.6538C5.6687 22.6538 4.35191 21.3426 4.35191 19.7342C4.35191 18.2307 5.49313 17.007 6.95038 16.8321L7.93359 15.521C7.7229 15.486 7.51221 15.4685 7.28397 15.4685C4.91374 15.4685 3 17.3741 3 19.7342C3 22.0944 4.91374 24 7.28397 24C8.91679 24 10.3389 23.0909 11.0588 21.7447H9.4084C8.86412 22.3042 8.10916 22.6538 7.28397 22.6538Z" fill="white"/>
</g>
<defs>
<linearGradient id="paint0_linear" x1="14.556" y1="0" x2="14.556" y2="32" gradientUnits="userSpaceOnUse">
<stop stop-color="white" stop-opacity="0.3"/>
<stop offset="1" stop-color="white" stop-opacity="0"/>
</linearGradient>
<clipPath id="clip0">
<rect width="23" height="15" fill="white" transform="translate(3 9)"/>
</clipPath>
</defs>
</svg>
