<svg width="442" height="337" viewBox="0 0 442 337" fill="none" xmlns="http://www.w3.org/2000/svg">
<g clip-path="url(#clip0_5249_17068)">
<path d="M393.391 320.868C391.608 316.497 389.689 311.989 387.769 307.618C385.575 302.974 383.519 298.329 381.599 293.685C376.525 281.528 372.686 269.097 369.532 256.53C368.436 252.296 367.476 248.061 366.516 243.827C365.693 238.773 364.87 233.582 364.185 228.255C364.87 222.381 365.145 216.37 365.008 210.497C364.871 204.623 364.459 198.749 363.499 193.149C363.362 189.187 362.951 185.363 362.402 181.538C363.088 161.595 362.265 138.51 354.175 120.479C352.53 116.927 350.61 113.376 348.416 110.234C336.076 94.7983 316.879 83.8705 297.683 89.3344C272.453 95.3447 249.417 108.595 223.502 112.283C219.8 112.829 216.098 113.102 212.258 113.239C207.185 112.693 203.071 114.059 197.587 112.693C189.634 112.01 181.133 110.097 172.357 107.639C167.969 106.409 163.581 105.043 159.057 103.677C134.375 96.4375 111.065 86.8756 85.013 89.6076C56.2182 93.7055 39.7641 122.391 37.296 147.798C36.4733 152.306 35.7877 156.95 35.1021 161.595C31.1257 189.188 29.6174 217.463 23.5842 244.373C22.6244 248.881 21.5274 253.389 20.2934 257.76C19.1964 261.994 18.0995 266.365 17.2768 270.873C9.04969 311.169 11.3807 359.115 53.4759 378.512C58.1379 380.971 63.0741 383.157 68.2846 384.932C83.6418 390.26 100.096 392.445 115.179 391.079C118.607 391.079 122.309 392.172 126.011 393.811C129.851 395.314 133.69 397.363 137.255 399.002C141.368 400.505 145.345 402.007 149.595 403.373C178.527 412.662 209.105 416.35 239.545 417.579C251.748 418.126 264.089 418.262 276.155 416.76C280.269 416.213 284.245 415.667 288.222 414.711C300.836 410.066 314.822 408.291 328.123 405.559C332.511 404.602 336.898 403.646 341.149 402.417C367.75 394.767 385.712 372.365 392.02 346.958C393.254 341.904 394.077 336.713 394.488 331.386C394.351 327.971 393.939 324.556 393.391 320.868Z" fill="#EEF1FB"/>
<path d="M378.857 336.167C388.455 324.556 395.174 311.17 391.197 295.734C389.552 289.451 388.044 284.123 392.02 278.25C393.94 275.518 396.271 273.059 397.505 269.917C401.344 261.038 397.505 252.16 393.391 244.237C390.237 238.363 387.084 232.489 385.575 225.933C384.067 219.103 385.438 212 384.616 205.033C383.793 198.34 379.816 190.964 373.098 189.871C368.573 189.051 364.185 191.373 360.894 194.379C357.192 197.93 354.587 202.711 353.627 207.902C352.393 214.868 354.313 222.381 351.57 228.938C349.102 234.675 343.48 238.363 339.915 243.554C336.076 249.018 334.568 255.984 335.939 262.541C337.036 268.005 339.915 272.922 340.875 278.386C342.795 290.68 334.156 302.701 335.802 314.995C336.761 322.098 341.286 328.518 347.182 332.752C353.901 337.533 363.499 340.948 371.726 339.309C376.251 338.489 380.091 336.031 382.696 332.206" fill="#DDE4F2"/>
<path d="M364.871 330.976C365.419 327.971 365.556 325.239 364.871 323.054C362.54 315.814 355.684 311.033 350.747 305.706C344.989 299.286 340.601 291.09 340.601 282.484C340.601 275.518 338.955 269.644 334.156 264.317C329.357 259.126 323.324 255.301 318.251 250.247C312.903 245.056 308.104 239.456 303.99 233.309C300.425 228.118 293.844 220.332 288.633 228.938C286.576 232.353 285.891 236.587 286.851 240.412C289.182 250.657 298.506 257.35 302.482 266.775C304.539 271.556 304.813 276.61 305.224 281.664C305.636 286.172 306.595 291.363 309.886 294.778C311.806 296.827 314.274 298.329 315.92 300.515C318.388 303.52 319.073 307.345 319.896 311.033C320.856 314.994 322.227 318.546 324.009 322.234C328.26 331.386 334.43 342.041 344.166 346.139C347.045 347.368 350.199 348.051 353.078 347.231C359.386 345.319 363.499 337.123 364.871 330.976Z" fill="#DDE4F2"/>
<path d="M350.062 252.842C350.473 252.569 351.022 252.706 351.296 253.116L365.693 274.425L368.847 219.103C368.847 218.556 369.258 218.283 369.807 218.283C370.355 218.283 370.63 218.693 370.63 219.239L368.299 259.672L386.124 249.974C386.535 249.701 387.084 249.837 387.358 250.384C387.632 250.794 387.495 251.34 386.947 251.613L368.299 261.858H368.161L365.968 299.149L380.365 291.909C380.776 291.636 381.325 291.909 381.599 292.319C381.873 292.729 381.599 293.275 381.188 293.549L365.83 301.198L364.048 331.386C364.048 331.796 363.637 332.206 363.225 332.206H363.088C362.54 332.206 362.265 331.796 362.265 331.25L365.419 277.43L349.651 254.208C349.513 253.662 349.651 253.116 350.062 252.842Z" fill="#CED4EA"/>
<path d="M402.989 267.048C406.006 259.262 407.651 253.525 408.611 250.383C407.24 243.69 405.046 225.932 418.209 223.337C425.34 227.025 427.396 240.275 412.176 251.066C411.216 254.481 409.16 261.311 405.457 270.6C416.29 254.481 430.413 256.257 434.801 263.497C432.333 279.342 408.474 275.517 403.949 274.698C401.892 279.752 399.424 285.489 396.545 291.636C407.926 280.025 420.129 283.03 423.557 290.133C419.992 304.749 399.424 300.651 392.98 299.149C390.1 304.886 386.947 310.896 383.381 317.18C398.19 303.247 412.862 307.891 416.427 316.77C410.942 333.981 385.987 326.878 379.131 324.556C368.436 342.587 354.587 362.803 337.036 383.703L334.293 381.381C351.981 360.345 365.83 340.265 376.388 322.234C368.573 317.589 350.473 305.022 358.837 290.543C367.613 287.265 380.913 294.778 380.776 314.721C383.93 309.12 386.809 303.656 389.415 298.602C383.381 295.051 368.984 285.079 375.566 273.742C382.422 271.146 392.431 276.883 392.705 291.909C396.133 284.806 398.876 278.386 401.07 272.785C395.859 269.917 379.131 259.399 386.124 247.242C392.843 244.51 403.401 250.793 402.989 267.048Z" fill="#CED4EA"/>
<path d="M314.274 291.089C314.548 290.68 315.097 290.543 315.508 290.816L331.825 300.378L316.331 266.912C316.057 266.502 316.331 265.955 316.742 265.682C317.154 265.409 317.702 265.682 317.976 266.092L329.22 290.543L330.454 269.917C330.454 269.37 330.865 269.097 331.414 269.097C331.962 269.097 332.237 269.507 332.237 270.053L330.865 293.548C330.865 293.685 330.865 293.821 330.728 293.958L345.4 325.785L348.554 313.355C348.691 312.809 349.239 312.535 349.651 312.672C350.199 312.809 350.473 313.355 350.336 313.765L346.908 327.698C346.908 327.834 346.771 328.107 346.634 328.244L349.376 334.254C349.651 334.664 349.376 335.211 348.965 335.484C348.828 335.484 348.691 335.62 348.691 335.62C348.279 335.62 348.005 335.484 347.868 335.074L333.059 303.11C332.922 303.11 332.785 303.11 332.511 302.973L314.548 292.455C314.137 292.046 314 291.499 314.274 291.089Z" fill="#CED4EA"/>
<path d="M375.566 337.533C375.291 335.484 375.429 333.572 376.114 332.069C378.171 327.289 383.381 324.283 387.084 321.005C391.608 316.907 395.036 311.58 395.585 305.569C396.133 300.789 397.505 296.691 401.344 293.412C405.046 290.134 409.434 287.812 413.273 284.807C417.387 281.528 420.952 277.977 424.38 274.015C427.122 270.6 432.333 265.683 435.212 271.966C436.446 274.425 436.583 277.43 435.76 280.026C433.567 286.992 426.574 290.954 423.146 297.237C421.5 300.379 420.952 303.93 420.266 307.345C419.581 310.487 418.758 313.902 416.153 316.087C414.644 317.317 412.862 318.273 411.628 319.639C409.708 321.551 409.023 324.147 408.2 326.742C407.377 329.474 406.006 331.796 404.635 334.118C401.07 340.129 396.133 347.095 389.14 349.417C387.084 350.1 384.89 350.374 382.833 349.554C378.308 347.915 375.977 341.905 375.566 337.533Z" fill="#DDE4F2"/>
<path d="M384.204 340.539L386.398 336.714C386.398 336.577 386.261 336.441 386.261 336.441L384.753 326.606C384.616 326.059 385.027 325.65 385.575 325.513C386.124 325.376 386.535 325.786 386.672 326.332L387.906 334.392L399.836 314.039C399.836 313.902 399.836 313.902 399.836 313.765L400.521 297.374C400.521 296.827 400.933 296.418 401.481 296.554C402.029 296.554 402.441 296.964 402.304 297.51L401.755 310.76L410.668 295.598C410.942 295.188 411.491 295.052 411.902 295.325C412.313 295.598 412.45 296.144 412.176 296.554L399.698 317.863L410.805 312.673C411.216 312.399 411.765 312.673 412.039 313.082C412.313 313.492 412.039 314.039 411.628 314.312L398.464 320.322C398.327 320.322 398.327 320.322 398.19 320.459L385.85 341.495C385.712 341.768 385.438 341.905 385.164 341.905C385.027 341.905 384.753 341.905 384.616 341.768C384.067 341.495 383.93 340.948 384.204 340.539Z" fill="#CED4EA"/>
<path d="M313.314 228.665H174.825V156.268C174.825 118.294 205.814 87.2861 244.07 87.2861C282.188 87.2861 313.314 118.157 313.314 156.268V228.665ZM197.998 205.717H290.278V156.268C290.278 130.861 269.574 110.235 244.07 110.235C218.566 110.235 197.861 130.861 197.861 156.268V205.717H197.998Z" fill="#4D5068"/>
<path d="M272.864 226.616H213.904V291.773H272.864V226.616Z" fill="#4D5068"/>
<path d="M333.333 175.529H154.943C148.91 175.529 144.111 180.31 144.111 186.32V325.65C144.111 331.524 148.91 336.441 154.943 336.441H333.333C339.23 336.441 344.166 331.66 344.166 325.65V186.32C344.166 180.31 339.23 175.529 333.333 175.529ZM235.98 254.619V242.735C235.98 238.227 239.682 234.676 244.207 234.676C248.732 234.676 252.297 238.364 252.297 242.735V254.619C257.233 257.488 260.661 262.815 260.661 268.962C260.661 278.66 252.16 286.446 242.15 285.217C235.02 284.397 229.124 278.797 227.89 271.83C226.656 264.454 230.221 257.897 235.98 254.619Z" fill="#5B86E5"/>
<path d="M344.166 186.32V325.65C344.166 331.524 339.367 336.441 333.333 336.441H154.943C148.91 336.441 144.111 331.66 144.111 325.65V318.683C186.48 319.23 249.692 317.454 283.834 303.658C332.785 283.851 332.785 201.619 331.002 175.529H333.333C339.23 175.529 344.166 180.31 344.166 186.32Z" fill="#5279CF"/>
<path d="M-0.0456238 423.935L430.093 423.935V335.966L-0.0456238 335.966V423.935Z" fill="#F7F8FA"/>
<path d="M93.5143 279.207H88.441V321.962H93.5143V279.207Z" fill="#A6B7E2"/>
<path d="M90.2646 321.431L90.0207 333.859L91.6658 333.891L91.9097 321.463L90.2646 321.431Z" fill="#A6B7E2"/>
<path d="M90.9091 337.944C92.2722 337.944 93.3772 336.843 93.3772 335.485C93.3772 334.127 92.2722 333.026 90.9091 333.026C89.546 333.026 88.441 334.127 88.441 335.485C88.441 336.843 89.546 337.944 90.9091 337.944Z" fill="#A6B7E2"/>
<path d="M103.661 335.485C103.661 336.851 102.564 337.944 101.193 337.944C99.8217 337.944 98.7248 336.851 98.7248 335.485C98.7248 334.119 99.8217 333.026 101.193 333.026C102.427 333.026 103.661 334.119 103.661 335.485Z" fill="#A6B7E2"/>
<path d="M102.016 334.119H100.37V330.704L91.3204 321.689L92.4174 320.459L102.016 330.021V334.119Z" fill="#A6B7E2"/>
<path d="M78.4314 335.485C78.4314 336.851 79.5283 337.944 80.8995 337.944C82.2707 337.944 83.3676 336.851 83.3676 335.485C83.3676 334.119 82.2707 333.026 80.8995 333.026C79.6654 333.026 78.4314 334.119 78.4314 335.485Z" fill="#A6B7E2"/>
<path d="M81.7222 334.119H80.0768V330.021L89.675 320.459L90.772 321.689L81.7222 330.704V334.119Z" fill="#A6B7E2"/>
<path d="M112.711 216.372V280.299H65.9537C60.3318 280.299 55.8069 275.792 55.8069 270.191V216.372C55.8069 206.4 63.8969 198.341 73.9065 198.341H94.4742C104.621 198.204 112.711 206.263 112.711 216.372Z" fill="#BCD4F7"/>
<path d="M87.8925 268.552V280.3H65.9537C60.3318 280.3 55.8069 275.792 55.8069 270.191V268.552H87.8925Z" fill="#A6B7E2"/>
<path d="M126.971 268.552H73.2209V280.3H126.971V268.552Z" fill="#BCD4F7"/>
<path d="M105.992 269.782C123.817 272.65 138.763 271.831 139.312 267.869C139.997 263.908 126.148 258.307 108.323 255.439C90.4977 252.57 75.5519 253.39 75.0034 257.351C74.3178 261.313 88.3038 266.776 105.992 269.782Z" fill="#E6D5B9"/>
<path d="M136.295 266.776C148.773 260.902 153.435 315.542 150.692 327.426C147.95 339.31 140.546 318.957 136.981 299.696C133.279 280.436 131.359 269.098 136.295 266.776Z" fill="#E6D5B9"/>
<path d="M150.418 328.245C150.418 328.245 152.064 330.431 155.766 333.299C159.468 336.168 160.428 335.485 160.565 336.578C160.702 337.671 145.208 336.578 145.208 336.578L145.482 327.972C145.345 327.835 150.418 327.972 150.418 328.245Z" fill="#753A1A"/>
<path d="M121.898 263.908C139.312 269.372 154.395 270.738 155.629 266.913C156.863 263.088 143.699 255.575 126.285 249.975C108.871 244.511 93.7885 243.145 92.5545 246.97C91.3204 250.794 104.484 258.307 121.898 263.908Z" fill="#E6D5B9"/>
<path d="M151.241 264.864C165.913 269.099 128.479 314.176 117.51 321.962C106.541 329.748 116.687 311.034 127.794 292.457C138.9 273.879 145.482 263.225 151.241 264.864Z" fill="#E6D5B9"/>
<path d="M116.824 322.509C116.824 322.509 116.687 325.514 117.647 330.568C118.607 335.622 119.841 335.759 119.155 336.715C118.47 337.671 106.403 325.514 106.403 325.514L112.985 318.684C112.985 318.547 116.961 322.235 116.824 322.509Z" fill="#753A1A"/>
<path d="M84.8759 247.652C85.9729 255.301 97.9021 260.902 109.831 265C121.761 269.098 133.553 271.283 133.964 272.103C134.787 273.605 116.002 308.711 114.082 312.399C113.945 312.536 113.945 312.672 113.945 312.672L121.898 319.776C121.898 319.776 157.548 280.299 156.451 266.776C155.355 254.072 108.597 243.964 108.597 243.964C108.597 243.964 82.8192 232.353 84.8759 247.652Z" fill="#4D5068"/>
<path d="M133.964 272.104C134.787 273.606 116.002 308.712 114.082 312.4C125.874 300.516 150.83 273.879 144.659 265.547C136.569 254.619 104.621 250.111 104.621 250.111L109.969 265C121.761 268.962 133.553 271.284 133.964 272.104Z" fill="#464960"/>
<path d="M78.2943 271.284C89.675 274.972 127.382 274.153 128.617 275.792C129.988 277.431 143.014 324.83 143.014 324.83H153.161C153.023 324.83 150.281 278.524 143.151 266.913C136.021 255.165 94.3371 247.789 94.3371 247.789L71.5755 246.833C71.5755 246.833 71.4384 247.243 71.4384 247.789C70.6157 251.887 68.4218 268.006 78.2943 271.284Z" fill="#4D5068"/>
<path d="M78.2943 271.284C89.675 274.972 127.382 274.153 128.617 275.792C129.988 277.431 143.014 324.83 143.014 324.83H143.288C143.425 312.537 135.061 276.748 130.948 272.104C126.286 266.913 101.33 267.596 88.441 266.776C77.4716 266.093 72.6724 252.297 71.4384 247.926C70.6157 251.887 68.4218 268.006 78.2943 271.284Z" fill="#464960"/>
<path d="M102.016 202.165C104.21 198.75 105.992 194.789 107.912 191.237C109.283 188.915 110.517 186.32 110.38 183.724C110.243 181.675 109.009 179.763 108.597 177.85C108.186 176.211 108.186 174.572 108.323 172.933C108.323 170.611 108.46 168.289 108.46 166.103C108.46 164.737 108.872 163.234 108.049 162.142C107.089 160.776 105.032 159.683 103.661 158.59C100.919 156.268 98.1763 153.946 95.434 151.76L78.02 164.054L79.6654 195.198C83.9161 197.247 88.1667 199.296 92.4174 201.345C94.0628 202.165 95.7082 202.848 97.2165 203.668C98.7248 204.35 99.8218 205.307 100.919 203.804C101.33 202.985 101.604 202.575 102.016 202.165Z" fill="#753A1A"/>
<path d="M94.7484 196.701C95.7082 200.39 96.9423 205.444 98.3134 210.361C99.5475 214.596 101.056 218.83 102.564 221.699C104.072 224.567 105.581 226.207 107.226 225.797C107.775 225.66 108.323 225.25 108.597 224.704C109.283 223.611 109.557 221.972 109.42 220.06C109.42 218.421 109.009 216.508 108.597 214.323C108.186 212 107.5 209.678 106.815 207.219C104.895 200.526 102.29 193.696 101.056 189.872C100.37 187.959 97.4907 188.915 95.434 188.779C90.6348 188.369 93.2401 190.281 94.7484 196.701Z" fill="#E6D5B9"/>
<path d="M103.112 225.386C103.524 226.752 120.664 232.763 132.73 235.631C139.312 237.271 144.522 237.954 144.385 236.451C144.248 233.036 118.195 223.201 109.42 220.059C109.146 219.923 108.871 219.786 108.597 219.786C107.5 219.376 106.266 219.376 105.169 219.649C104.621 219.786 104.072 220.059 103.524 220.469C102.975 220.879 102.701 221.425 102.564 221.835C102.153 222.928 102.838 224.294 103.112 225.386Z" fill="#E6D5B9"/>
<path d="M102.564 221.699C102.153 222.928 102.701 224.157 103.113 225.387C103.524 226.753 120.664 232.763 132.73 235.632C125.051 232.626 113.945 227.982 108.597 224.704C106.952 223.748 105.855 222.928 105.581 222.245C105.169 221.289 105.032 220.469 105.169 219.513C105.581 217.464 107.363 215.415 108.597 214.322C108.186 212 107.5 209.678 106.815 207.219L100.644 206.673L98.3134 210.361C99.6846 214.732 101.056 218.83 102.564 221.699Z" fill="#DDCAAF"/>
<path d="M139.312 234.539C140.271 231.807 144.796 233.992 146.305 234.812C148.773 236.178 150.555 239.456 150.144 240.413C149.595 241.369 144.248 238.09 143.974 238.227C143.699 238.364 146.168 240.276 145.619 241.095C145.071 241.915 141.506 239.866 140.409 238.5C139.175 237.271 138.763 236.315 139.312 234.539Z" fill="#E6D5B9"/>
<path d="M96.8051 212.957L98.3134 212.82L106.129 212.001L109.146 211.728C109.146 211.728 107.912 187.686 99.8217 188.916C92.2802 189.872 96.8051 212.957 96.8051 212.957Z" fill="#5B86E5"/>
<path d="M96.668 210.088C96.668 210.361 97.3536 211.454 98.1763 212.82L105.992 212.001C106.403 210.225 106.678 208.176 106.952 205.854C107.637 196.702 103.387 191.647 103.387 191.647C103.387 191.647 96.8051 209.132 96.668 210.088Z" fill="#5276C6"/>
<path d="M71.5755 246.833C71.5755 246.833 97.4908 250.794 108.323 243.828C108.323 243.828 107.775 242.598 106.952 240.413C106.403 238.774 105.581 236.725 104.895 234.402C103.798 230.578 102.838 225.933 102.976 221.835C103.113 211.727 106.129 210.225 106.403 203.668C106.678 197.111 103.524 189.872 101.193 187.823C96.6681 183.588 85.5616 183.588 81.0367 185.774C77.0602 187.686 75.4148 190.281 74.8664 192.74C74.3179 195.335 73.9065 198.477 73.4952 202.029C73.0838 205.99 72.8096 210.361 72.6725 214.732C72.3982 218.83 72.2611 223.065 72.2611 227.163C72.2611 229.212 72.124 231.124 72.124 232.9C72.124 238.774 71.9869 243.964 71.5755 246.833Z" fill="#5B86E5"/>
<path d="M72.8095 214.596C77.3344 215.279 83.5047 215.689 84.3274 214.049C85.8357 211.181 84.6017 198.067 84.6017 198.067L73.6323 202.029C73.358 205.853 73.0838 210.225 72.8095 214.596Z" fill="#5276C6"/>
<path d="M72.2611 232.762C72.8096 234.811 73.4952 236.587 74.455 237.134C76.6489 238.5 98.5877 240.002 106.952 240.549C106.403 238.909 105.581 236.86 104.895 234.538C100.37 234.128 76.786 232.216 76.786 232.216L72.3982 227.025C72.3982 228.938 72.2611 230.85 72.2611 232.762Z" fill="#5276C6"/>
<path d="M107.089 170.475C106.952 177.578 105.718 179.49 103.387 181.266C101.193 182.905 96.2567 181.266 95.7082 180.993C95.7082 180.993 95.7082 182.632 95.7082 184.135V186.866C95.7082 187.276 97.2165 190.418 92.9658 190.418C88.7152 190.418 84.4645 187.14 84.4645 187.14C84.4645 186.73 84.4645 177.031 84.4645 177.031C84.4645 177.031 77.0602 167.606 79.9396 159.683C82.9562 151.761 97.7649 155.312 102.427 157.088C107.226 158.454 107.226 163.508 107.089 170.475Z" fill="#E6D5B9"/>
<path d="M95.7082 180.992L90.0864 178.943L95.7082 184.271V180.992Z" fill="#E6D5B9"/>
<path d="M74.5921 234.402C74.8663 234.539 75.1406 234.676 75.4148 234.676C76.6489 234.676 77.8829 233.583 78.8427 231.807C79.3912 230.578 80.0768 228.939 80.4882 227.026C81.448 223.475 82.1336 219.24 82.5449 214.732C82.682 214.049 82.682 213.23 82.8192 212.41C83.6419 205.17 83.9161 197.931 84.0532 194.379C84.0532 192.33 83.0934 190.281 81.3109 189.462C76.9231 187.413 74.455 196.428 73.7694 203.122C73.4952 205.17 73.2209 207.766 72.9467 210.361C71.9869 220.333 71.3013 232.627 74.5921 234.402Z" fill="#E6D5B9"/>
<path d="M74.5921 234.402C74.5921 234.402 74.7292 234.402 74.5921 234.402C75.689 236.315 107.912 238.637 119.292 236.998C121.898 236.588 123.406 236.041 123.132 235.222C121.898 231.534 91.3204 228.119 80.4881 227.026C79.9396 227.026 79.5283 226.889 79.1169 226.889C77.4715 226.753 75.8261 227.163 74.5921 228.119C74.3178 228.392 74.0436 228.665 73.7693 228.938C72.261 230.987 73.7693 232.763 74.5921 234.402Z" fill="#E6D5B9"/>
<path d="M74.5921 234.402C74.5921 234.402 74.7292 234.402 74.5921 234.402C75.689 236.315 107.912 238.637 119.293 236.998C119.43 236.861 119.43 236.725 119.293 236.588C117.784 234.812 88.3039 233.173 78.8428 231.671C77.4716 231.534 76.5117 231.261 76.1004 230.988C75.2777 230.578 74.8663 229.348 74.7292 227.982C74.1807 224.021 75.1406 217.601 75.4148 215.689C75.689 213.366 81.5851 214.459 82.6821 214.596C82.8192 214.596 82.8192 214.596 82.8192 214.596L83.779 213.093L82.8192 212.274L80.7624 210.361L72.9467 210.225C71.9869 220.333 71.3013 232.627 74.5921 234.402Z" fill="#DDCAAF"/>
<path d="M117.099 234.539C117.373 231.26 122.995 232.49 124.777 232.899C127.794 233.719 130.81 236.861 130.536 238.09C130.262 239.32 123.406 237.134 123.132 237.407C122.858 237.68 126.011 239.046 125.737 240.139C125.326 241.232 120.801 240.003 119.293 238.773C117.647 237.544 116.824 236.588 117.099 234.539Z" fill="#E6D5B9"/>
<path d="M71.7126 211.864C71.7126 211.864 72.2611 188.369 79.8026 188.915C87.8925 189.462 83.779 213.093 83.779 213.093L71.7126 211.864Z" fill="#5B86E5"/>
<path d="M108.323 166.923C109.283 161.459 109.557 157.907 108.049 154.492C104.484 146.843 85.4244 142.062 78.7056 156.405C78.2943 157.361 77.7458 158.454 77.4715 159.41C74.455 166.923 72.6724 174.982 71.5755 183.041C71.1641 186.456 70.8899 189.871 71.027 193.286C71.027 194.652 71.1641 196.018 71.3012 197.248C71.4384 198.614 71.4384 200.526 72.2611 201.619C72.8095 202.302 73.6322 202.848 74.3178 203.258C75.0034 203.668 75.5519 204.078 76.3746 204.078C77.0602 204.078 77.7458 203.668 78.4314 203.395C81.1737 201.755 83.6418 199.57 85.4244 196.974C87.0698 194.242 87.8925 190.964 87.0698 187.822C86.7956 186.866 86.3842 185.91 86.11 185.09C85.4244 182.632 85.4244 180.036 86.11 177.714C86.3842 176.485 87.2069 175.392 87.4811 174.163C87.6183 173.07 87.7554 171.977 87.7554 170.884C87.7554 170.338 87.6183 169.791 87.7554 169.245C87.7554 168.699 87.8925 168.289 88.0296 167.879C88.3039 167.059 88.441 166.24 88.7152 165.284C88.9894 164.328 89.2637 163.371 89.9493 162.825C90.3606 162.415 91.0462 162.142 91.5947 161.869C94.0628 160.776 95.7082 159.137 96.3938 156.541C99.6846 160.503 102.975 165.693 108.323 166.923Z" fill="#753A1A"/>
<path d="M182.778 209.678L167.832 240.003C167.832 240.003 136.844 239.73 136.707 240.003L151.652 209.678C151.652 209.678 183.327 209.678 182.778 209.678Z" fill="#DFE5E4"/>
<path d="M114.356 240.003H136.844L137.666 238.09L138.763 236.041L114.905 235.905L114.631 237.954L114.356 240.003Z" fill="#C7D8D5"/>
<path d="M151.652 209.678H150.555L135.884 239.866L136.844 240.003L151.652 209.678Z" fill="#C7D8D5"/>
<path d="M114.356 240.003H136.844L137.803 238.227C137.803 238.364 114.631 238.09 114.768 238.09L114.356 240.003Z" fill="#C7D8D5"/>
<path d="M163.033 226.753C161.799 228.255 159.879 228.802 158.783 227.845C157.686 226.889 157.686 224.977 158.92 223.474C160.154 221.972 162.073 221.425 163.17 222.381C164.404 223.338 164.267 225.25 163.033 226.753Z" fill="#C7D8D5"/>
<path d="M62.6628 241.095H59.0977V337.397H62.6628V241.095Z" fill="#4D5068"/>
<path d="M185.795 241.095H182.23V337.397H185.795V241.095Z" fill="#4D5068"/>
<path d="M40.1663 246.597L204.708 246.597V239.494L40.1663 239.494V246.597Z" fill="#404257"/>
<path d="M335.39 254.618H335.527C335.527 254.618 338.27 254.209 340.875 252.706V256.531C340.875 256.531 340.189 260.219 335.664 261.175C331.14 260.082 330.454 256.531 330.454 256.531V252.979V252.843C332.922 254.345 335.39 254.618 335.39 254.618Z" fill="#DDCBB1"/>
<path d="M335.527 254.618H335.39C335.39 254.618 333.059 254.209 330.454 252.979C328.123 251.75 325.655 249.838 325.243 246.559C325.243 246.559 322.501 245.33 322.501 243.144C322.501 240.959 324.969 241.505 324.969 241.505C324.969 241.505 322.912 234.402 326.752 229.211C330.454 224.021 335.253 225.66 335.253 225.66H335.664C335.664 225.66 340.464 224.021 344.166 229.211C347.868 234.402 345.948 241.505 345.948 241.505C345.948 241.505 348.279 240.959 348.416 243.144C348.416 245.33 345.674 246.559 345.674 246.559C345.263 249.564 343.069 251.477 340.875 252.706C338.27 254.209 335.527 254.618 335.527 254.618Z" fill="#E6D5B9"/>
<path d="M358.7 310.76V310.897C348.005 315.131 336.624 321.961 335.664 322.507C334.705 321.961 323.324 315.131 312.629 310.897V310.76V300.788V295.051H315.097H335.39H335.664H355.958H358.426V300.788V310.76H358.7Z" fill="#B2CAFA"/>
<path d="M312.766 300.789V310.76V310.897C310.709 310.077 308.789 309.394 306.87 308.848C302.071 305.023 295.489 299.286 294.666 296.827C294.118 294.915 296.723 289.314 300.014 283.167L308.241 287.812L310.846 289.314C309.338 291.91 308.104 294.505 308.378 295.051C308.789 296.554 312.629 300.789 312.766 300.789Z" fill="#E6D5B9"/>
<path d="M376.8 296.827C376.114 299.286 369.532 304.887 364.596 308.848C362.677 309.394 360.757 310.077 358.7 310.897V310.76V300.789H358.837C358.837 300.789 362.677 296.691 363.225 295.188C363.499 294.505 362.265 292.046 360.757 289.451L363.362 287.949L371.589 283.304C374.743 289.315 377.348 294.915 376.8 296.827Z" fill="#E6D5B9"/>
<path d="M366.79 295.734C365.693 297.646 361.58 302.291 358.563 305.706V300.652H358.7C358.7 300.652 362.539 296.554 363.088 295.051C363.362 294.368 362.128 291.909 360.62 289.314L363.774 287.538C365.419 289.587 368.161 293.548 366.79 295.734Z" fill="#DDCBB1"/>
<path d="M371.452 283.304L363.774 287.539L363.088 287.948L360.483 289.451C360.071 288.768 359.66 287.948 359.249 287.265C357.878 284.943 356.506 282.758 356.369 282.484C356.369 282.484 355.821 290.817 356.095 294.778V295.188H315.097V294.778C315.371 290.817 314.823 282.484 314.823 282.484C314.548 282.894 312.354 286.309 310.709 289.451L308.104 287.948L299.877 283.304C303.168 277.021 307.418 270.054 309.475 266.093C312.903 259.673 324.695 257.487 328.809 256.804C329.768 256.667 330.317 256.667 330.317 256.667C330.317 256.667 331.14 260.356 335.527 261.312C340.052 260.219 340.738 256.667 340.738 256.667C340.738 256.667 341.286 256.667 342.246 256.804C346.497 257.35 358.152 259.673 361.58 265.956C363.499 269.508 366.927 275.381 370.081 280.982C370.767 281.802 371.178 282.484 371.452 283.304Z" fill="white"/>
<path d="M363.911 287.539L363.225 287.949L360.62 289.451C358.837 286.31 356.78 282.895 356.506 282.485V276.884C356.506 276.748 361.031 282.348 363.911 287.539Z" fill="white"/>
<path d="M314.96 277.021V282.211C314.685 282.621 312.491 286.036 310.846 289.178L308.241 287.675C310.983 282.621 314.96 277.021 314.96 277.021Z" fill="white"/>
<path d="M312.766 300.789V304.341C309.201 301.472 305.361 298.057 305.361 295.598C305.361 293.822 306.595 290.954 308.241 287.949L310.846 289.451C309.338 292.047 308.104 294.642 308.378 295.188C308.789 296.554 312.629 300.789 312.766 300.789Z" fill="#DDCBB1"/>
<path d="M323.461 238.773C323.324 238.5 322.775 237.68 322.775 236.314C322.912 234.538 324.009 233.719 324.147 233.582C324.147 233.446 323.872 232.899 324.009 232.216C324.147 231.67 324.558 231.123 325.106 230.987C325.106 230.85 324.695 229.348 325.381 228.118C326.066 227.025 327.3 226.616 328.397 227.025C328.534 225.523 329.22 224.293 330.317 223.747C331.825 222.928 333.196 223.884 333.333 224.02C333.333 224.02 333.608 223.201 334.43 223.064C334.979 222.928 335.39 223.201 335.664 223.747C335.939 223.337 336.487 223.064 336.898 223.064C337.584 223.201 337.995 224.02 337.995 224.02C338.133 223.884 339.504 222.928 341.012 223.747C342.109 224.293 342.795 225.659 342.932 227.025C344.029 226.616 345.263 227.025 345.948 228.118C346.634 229.348 346.36 230.85 346.222 230.987C346.771 231.123 347.182 231.533 347.319 232.216C347.457 232.899 347.319 233.446 347.182 233.582C347.319 233.719 348.416 234.675 348.553 236.314C348.691 237.68 348.005 238.5 347.868 238.773C348.279 239.183 348.553 239.866 348.279 240.412C348.142 240.958 347.594 241.368 347.182 241.368C347.045 241.505 346.908 241.641 346.634 241.778C346.497 241.915 346.36 241.915 346.222 241.915C346.085 241.915 345.674 241.641 345.4 241.232C344.851 240.275 345.263 239.319 345.263 239.183C345.126 239.046 344.029 237.68 344.303 236.177C344.303 235.768 344.44 235.495 344.577 235.221C344.44 235.085 343.069 234.538 342.795 233.172C342.657 232.763 342.657 232.353 342.657 232.08C342.246 232.353 341.835 232.353 341.56 232.08C341.286 231.806 341.149 231.533 341.149 231.397C340.875 231.533 340.189 231.943 339.229 231.806C338.27 231.67 337.584 231.123 337.31 230.85C337.31 230.85 337.036 231.806 335.527 231.943C334.019 231.943 333.745 230.85 333.745 230.85C333.471 231.123 332.785 231.67 331.825 231.806C330.865 231.943 330.18 231.533 329.905 231.397C329.905 231.533 329.768 231.806 329.494 232.08C329.22 232.353 328.671 232.353 328.397 232.08C328.397 232.353 328.397 232.763 328.26 233.172C327.849 234.675 326.615 235.221 326.478 235.221C326.615 235.495 326.752 235.768 326.752 236.177C327.026 237.817 325.929 239.046 325.792 239.183C325.792 239.183 326.203 240.275 325.655 241.232C325.381 241.641 324.969 241.915 324.832 241.915C324.695 241.915 324.558 241.778 324.421 241.778C324.147 241.641 324.009 241.505 323.872 241.368C323.324 241.368 322.912 240.958 322.775 240.412C322.912 239.729 323.05 239.046 323.461 238.773Z" fill="#4D5068"/>
<path d="M355.547 329.883V333.298L355.409 337.943C355.409 337.943 350.747 337.533 344.029 336.713C335.39 335.621 323.324 333.708 313.314 330.976C304.127 328.517 296.586 325.239 294.666 321.141C290.553 312.262 299.328 305.296 309.338 308.711C313.314 310.077 321.541 313.765 330.043 317.726C342.52 323.463 355.547 329.883 355.547 329.883Z" fill="#4D5068"/>
<path d="M355.546 329.883V333.298L344.166 336.713C335.527 335.62 323.461 333.708 313.451 330.976C318.388 327.834 325.655 321.687 330.043 317.726C342.52 323.463 355.546 329.883 355.546 329.883Z" fill="#3F4258"/>
<path d="M358.837 331.249V338.352C358.837 338.352 368.298 339.035 368.847 337.943C369.395 336.85 370.218 333.025 367.75 331.249C365.556 329.473 359.66 329.337 358.837 331.249Z" fill="#4D5068"/>
<path d="M355.272 329.883L358.974 331.249V338.352L355.135 337.943L355.272 329.883Z" fill="#E6D5B9"/>
<path d="M316.057 337.943C316.057 337.943 371.315 333.025 376.8 321.141C380.913 312.262 372.138 305.296 362.128 308.711C352.119 312.126 315.919 329.883 315.919 329.883L316.057 337.943Z" fill="#4D5068"/>
<path d="M316.057 329.883L312.354 331.249V338.352L316.194 337.943L316.057 329.883Z" fill="#E6D5B9"/>
<path d="M312.354 331.249V338.352C312.354 338.352 302.893 339.035 302.345 337.943C301.796 336.85 300.974 333.025 303.442 331.249C305.773 329.473 311.669 329.337 312.354 331.249Z" fill="#4D5068"/>
<path d="M348.691 126.216H359.523C361.306 126.216 362.677 124.85 362.677 123.075V112.283C362.677 110.508 361.306 109.142 359.523 109.142H348.691C346.908 109.142 345.537 110.508 345.537 112.283V123.075C345.537 124.85 347.045 126.216 348.691 126.216Z" fill="#DDE2F2"/>
<path d="M354.312 132.909H342.52C340.601 132.909 339.092 131.407 339.092 129.494V117.747C339.092 115.835 340.601 114.332 342.52 114.332H354.312C356.232 114.332 357.74 115.835 357.74 117.747V129.494C357.74 131.407 356.232 132.909 354.312 132.909ZM342.52 117.064C342.109 117.064 341.835 117.337 341.835 117.747V129.494C341.835 129.904 342.109 130.177 342.52 130.177H354.312C354.724 130.177 354.998 129.904 354.998 129.494V117.747C354.998 117.337 354.724 117.064 354.312 117.064H342.52Z" fill="#CED4EA"/>
<path d="M340.189 23.6312C339.778 23.6312 339.366 23.4946 338.955 23.0848L334.842 18.9869C334.156 18.3039 334.156 17.2111 334.842 16.5281L338.955 12.4302C339.641 11.7472 340.738 11.7472 341.423 12.4302L345.537 16.5281C345.811 16.8013 346.085 17.3477 346.085 17.7575C346.085 18.1673 345.948 18.7137 345.537 18.9869L341.423 23.0848C341.149 23.4946 340.738 23.6312 340.189 23.6312ZM340.189 13.523C340.052 13.523 340.052 13.523 339.915 13.6596L335.801 17.7575C335.664 17.8941 335.664 18.0307 335.801 18.1673L339.915 22.2653C340.052 22.4019 340.189 22.4019 340.326 22.2653L344.44 18.1673C344.577 18.0307 344.577 18.0307 344.577 17.8941C344.577 17.8941 344.577 17.7575 344.44 17.6209L340.326 13.523C340.326 13.523 340.326 13.523 340.189 13.523Z" fill="#CED4EA"/>
<path d="M360.346 190.964C359.934 190.964 359.523 190.827 359.111 190.417L354.998 186.319C354.312 185.636 354.312 184.544 354.998 183.861L359.111 179.763C359.797 179.08 360.894 179.08 361.58 179.763L365.693 183.861C366.379 184.544 366.379 185.636 365.693 186.319L361.58 190.417C361.305 190.827 360.894 190.964 360.346 190.964ZM360.208 189.461C360.346 189.598 360.483 189.598 360.62 189.461L364.733 185.363C364.87 185.227 364.87 185.227 364.87 185.09C364.87 185.09 364.87 184.953 364.733 184.817L360.62 180.719C360.483 180.582 360.346 180.582 360.208 180.719L356.095 184.817C355.958 184.953 355.958 184.953 355.958 185.09C355.958 185.09 355.958 185.227 356.095 185.363L360.208 189.461Z" fill="#CED4EA"/>
<path d="M154.532 11.6107C154.12 11.6107 153.709 11.4741 153.298 11.0643L149.184 6.9664C148.91 6.69321 148.636 6.14682 148.636 5.73702C148.636 5.32723 148.773 4.91744 149.184 4.50764L153.298 0.409703C153.983 -0.273287 155.08 -0.273287 155.766 0.409703L159.879 4.50764C160.154 4.78084 160.428 5.32723 160.428 5.73702C160.428 6.14682 160.291 6.69321 159.879 6.9664L155.766 11.0643C155.354 11.4741 154.943 11.6107 154.532 11.6107ZM154.532 1.36589C154.532 1.36589 154.395 1.36589 154.258 1.50249L150.144 5.60043C150.007 5.73702 150.007 5.73702 150.007 5.87362C150.007 6.01022 150.007 6.01022 150.144 6.14682L154.258 10.2448C154.395 10.3814 154.532 10.3814 154.669 10.2448L158.782 6.14682C158.92 6.01022 158.92 6.01022 158.92 5.87362C158.92 5.73702 158.92 5.73702 158.782 5.60043L154.669 1.50249C154.669 1.36589 154.532 1.36589 154.532 1.36589Z" fill="#CED4EA"/>
<path d="M55.944 182.495C55.5327 182.495 55.1213 182.358 54.71 181.948L50.5964 177.85C50.3222 177.577 50.048 177.031 50.048 176.621C50.048 176.211 50.1851 175.801 50.5964 175.391L54.71 171.293C54.9842 171.02 55.5327 170.747 55.944 170.747C56.3554 170.747 56.9039 170.884 57.1781 171.293L61.2916 175.391C61.9772 176.074 61.9772 177.167 61.2916 177.85L57.1781 181.948C56.7668 182.358 56.3554 182.495 55.944 182.495ZM55.944 172.386C55.944 172.386 55.8069 172.386 55.6698 172.523L51.5563 176.621C51.4192 176.757 51.4192 176.757 51.4192 176.894C51.4192 176.894 51.4192 177.031 51.5563 177.167L55.6698 181.265C55.8069 181.402 55.944 181.402 56.0812 181.265L60.1947 177.167C60.3318 177.031 60.3318 177.031 60.3318 176.894C60.3318 176.894 60.3318 176.757 60.1947 176.621L56.0812 172.523C56.0812 172.386 55.944 172.386 55.944 172.386Z" fill="#CED4EA"/>
<path d="M136.844 131.954C138.358 131.954 139.586 130.731 139.586 129.222C139.586 127.713 138.358 126.49 136.844 126.49C135.329 126.49 134.101 127.713 134.101 129.222C134.101 130.731 135.329 131.954 136.844 131.954Z" fill="#DDE2F2"/>
<path d="M389.003 74.7195C389.003 76.3587 387.632 77.7247 385.987 77.7247C384.341 77.7247 382.97 76.3587 382.97 74.7195C382.97 73.0803 384.341 71.7144 385.987 71.7144C387.632 71.851 389.003 73.2169 389.003 74.7195Z" fill="#DDE2F2"/>
<path d="M241.602 12.5667C241.602 14.2059 240.23 15.5718 238.585 15.5718C236.94 15.5718 235.568 14.2059 235.568 12.5667C235.568 10.9275 236.94 9.56152 238.585 9.56152C240.23 9.69812 241.602 11.0641 241.602 12.5667Z" fill="#DDE2F2"/>
<path d="M174.414 89.0624C174.414 90.9748 172.906 92.4774 170.986 92.4774C169.066 92.4774 167.558 90.9748 167.558 89.0624C167.558 87.15 169.066 85.6475 170.986 85.6475C172.768 85.7841 174.414 87.2866 174.414 89.0624Z" fill="#DDE2F2"/>
<path d="M72.5353 126.217C73.8984 126.217 75.0034 125.116 75.0034 123.758C75.0034 122.4 73.8984 121.299 72.5353 121.299C71.1722 121.299 70.0672 122.4 70.0672 123.758C70.0672 125.116 71.1722 126.217 72.5353 126.217Z" fill="#DDE2F2"/>
<path d="M135.061 166.923C135.061 168.289 133.964 169.382 132.593 169.382C131.222 169.382 130.125 168.289 130.125 166.923C130.125 165.557 131.222 164.464 132.593 164.464C133.964 164.464 135.061 165.557 135.061 166.923Z" fill="#DDE2F2"/>
<path d="M57.7265 143.154C57.7265 143.701 57.1781 144.247 56.6296 144.247C56.0811 144.247 55.5326 143.701 55.5326 143.154C55.5326 142.608 56.0811 142.062 56.6296 142.062C57.3152 142.062 57.7265 142.471 57.7265 143.154Z" fill="#DDE2F2"/>
<path d="M95.7082 180.992C95.7082 180.992 95.7082 182.495 95.7082 183.997C93.5143 182.221 91.1833 178.943 91.0462 178.67L95.7082 180.992Z" fill="#DDCAAF"/>
<path d="M190.182 232.763C189.771 231.807 187.989 227.982 187.577 225.524C187.166 223.065 185.795 221.152 185.795 219.923C185.795 218.694 187.714 218.011 188.263 215.552C188.811 213.093 189.771 208.995 190.457 209.132C191.142 209.268 191.554 213.639 192.102 214.732C192.651 215.825 194.433 217.191 193.062 218.694C191.828 220.333 192.513 222.109 193.61 223.748C194.844 225.387 191.417 227.436 191.828 229.621C192.102 231.807 191.554 234.812 191.554 234.812L190.182 232.763Z" fill="#CED4EA"/>
<path d="M190.868 227.982C190.731 227.982 190.731 227.846 190.731 227.846C190.594 226.343 190.182 225.25 189.771 224.294C189.497 223.611 189.223 222.928 189.223 222.382C189.223 221.699 189.634 221.153 190.045 220.606C190.457 220.06 190.731 219.65 190.868 218.967C191.005 217.601 189.771 214.459 189.771 214.459C189.771 214.323 189.771 214.186 189.908 214.186C190.045 214.186 190.182 214.186 190.182 214.323C190.182 214.459 191.554 217.601 191.279 219.104C191.142 219.923 190.731 220.47 190.457 221.016C190.045 221.562 189.771 221.972 189.771 222.519C189.771 223.065 190.045 223.611 190.32 224.294C190.731 225.25 191.142 226.343 191.279 227.846C191.005 227.846 191.005 227.982 190.868 227.982Z" fill="#DDE2F2"/>
<path d="M186.892 231.943C186.343 231.67 186.206 229.075 185.383 228.665C184.561 228.255 183.875 227.026 183.601 225.796C183.327 224.567 180.721 224.021 180.173 222.655C179.624 221.289 181.133 220.333 180.996 219.103C180.858 217.874 179.761 216.098 180.584 215.142C181.407 214.322 182.778 217.191 183.464 217.737C184.149 218.284 185.658 218.967 185.246 220.059C184.835 221.152 185.383 222.928 187.989 223.884C190.594 224.977 192.239 234.402 186.892 231.943Z" fill="#DDE2F2"/>
<path d="M187.303 227.572C187.166 227.572 187.166 227.572 187.166 227.436C186.617 225.933 185.932 225.25 184.972 224.567C184.561 224.157 184.012 223.884 183.601 223.338C182.23 221.835 182.778 219.103 182.915 218.967C182.915 218.83 183.052 218.83 183.189 218.83C183.327 218.83 183.327 218.967 183.327 219.103C183.327 219.103 182.641 221.699 184.012 223.201C184.423 223.748 184.972 224.021 185.383 224.431C186.343 225.114 187.166 225.797 187.714 227.436C187.577 227.299 187.44 227.436 187.303 227.572Z" fill="#CED4EA"/>
<path d="M191.691 232.217C191.828 231.807 191.965 230.168 192.925 229.758C193.885 229.348 194.707 229.075 195.53 227.982C196.216 226.753 195.53 224.977 196.353 223.748C197.175 222.518 198.958 223.748 199.781 222.382C200.741 221.153 198.684 218.967 199.369 218.147C200.055 217.191 201.015 214.732 200.055 214.459C199.095 214.186 196.353 215.825 195.667 217.464C194.982 218.967 193.473 219.923 193.199 221.152C192.925 222.382 191.828 223.065 191.554 224.294C191.279 225.524 191.691 227.436 191.279 228.802C190.594 230.168 191.691 232.217 191.691 232.217Z" fill="#DDE2F2"/>
<path d="M194.022 239.32H185.795C185.246 239.32 184.698 238.91 184.698 238.227L184.286 229.485H195.393L194.982 238.227C195.119 238.774 194.57 239.32 194.022 239.32Z" fill="#F74528"/>
<path d="M193.473 227.709C193.336 227.709 193.336 227.572 193.336 227.436C193.61 224.021 194.707 222.245 195.941 220.743C196.901 219.65 197.45 217.464 197.45 217.464C197.45 217.328 197.587 217.328 197.724 217.328C197.861 217.328 197.861 217.464 197.861 217.601C197.861 217.737 197.313 219.923 196.216 221.016C194.982 222.382 193.885 224.158 193.61 227.436C193.748 227.709 193.61 227.709 193.473 227.709Z" fill="#CED4EA"/>
<path d="M133.827 225.113L133.553 229.757L133.278 234.948L133.141 239.456H124.503L124.229 234.948L123.954 229.757L123.817 225.113H133.827Z" fill="#DFE5E4"/>
<path d="M133.141 223.747H124.366V225.25H133.141V223.747Z" fill="#131016"/>
<path d="M134.375 224.977H123.132V227.026H134.375V224.977Z" fill="#131016"/>
<path d="M133.553 229.757L133.278 234.948H124.229L123.954 229.757H133.553Z" fill="#FE5B3A"/>
<path d="M128.754 233.719C129.511 233.719 130.125 233.107 130.125 232.353C130.125 231.598 129.511 230.987 128.754 230.987C127.996 230.987 127.382 231.598 127.382 232.353C127.382 233.107 127.996 233.719 128.754 233.719Z" fill="#DFE5E4"/>
<g filter="url(#filter0_d_5249_17068)">
<path d="M45.8881 148.751H19.9497C16.1121 148.751 13 145.645 13 141.816V115.935C13 112.105 16.1121 109 19.9497 109H45.8998C49.7373 109 52.8494 112.105 52.8494 115.935V141.828C52.8377 145.645 49.7256 148.751 45.8881 148.751Z" fill="#38549E"/>
<path d="M40.0733 119.612V115.117C40.0733 115.117 35.4753 115.07 35.1594 115.07C33.0769 115.07 30.0817 117.44 30.0817 120.114C30.0817 123.137 30.0817 124.923 30.0817 124.923H25.7762V130.025H30.0232V142.68H35.0541V129.967H39.5L40.0616 124.982H35.1126C35.1126 124.982 35.1126 121.923 35.1126 121.328C35.1126 120.452 35.7795 119.588 36.774 119.588C37.4409 119.588 40.0733 119.612 40.0733 119.612Z" fill="white"/>
</g>
<g filter="url(#filter1_d_5249_17068)">
<circle cx="257" cy="56" r="15" fill="#CB2027"/>
<path d="M258.674 59.8581C257.511 59.7682 257.022 59.1914 256.11 58.6377C255.609 61.2681 254.996 63.7896 253.181 65.1069C252.62 61.1312 254.003 58.1451 254.646 54.9755C253.551 53.1325 254.777 49.4228 257.087 50.3369C259.929 51.4608 254.626 57.1898 258.186 57.9054C261.902 58.6525 263.419 51.4567 261.115 49.1162C257.785 45.7371 251.421 49.0394 252.204 53.8768C252.395 55.0594 253.617 55.4184 252.692 57.0502C250.561 56.5782 249.925 54.8973 250.007 52.6563C250.139 48.9881 253.303 46.4197 256.477 46.0643C260.49 45.615 264.258 47.5381 264.778 51.3136C265.363 55.5747 262.966 60.1894 258.674 59.8581Z" fill="#F1F2F2"/>
</g>
<g filter="url(#filter2_d_5249_17068)">
<circle cx="179" cy="34" r="16" fill="#BFE1FF"/>
<path d="M170.009 38.3148L176.281 27.4399L181.715 30.5812L175.444 41.4552L170.009 38.3148Z" fill="#FCBA28"/>
<path d="M188.04 38.2761L181.765 27.3977C180.955 25.8643 179.057 25.2778 177.524 26.0893C175.992 26.8998 175.407 28.8 176.217 30.3343C176.252 30.4017 176.29 30.4672 176.33 30.5319L182.605 41.4103C183.451 42.9243 185.364 43.4646 186.876 42.6169C188.389 41.77 188.928 39.8556 188.082 38.3417C188.067 38.3169 188.054 38.293 188.04 38.269V38.2761Z" fill="#4D7CBF"/>
<path d="M172.759 36.7188C174.491 36.7188 175.897 38.1246 175.897 39.86C175.897 41.5946 174.492 43.0013 172.759 43.0013C171.025 43.0013 169.621 41.5937 169.621 39.8591C169.621 38.1246 171.025 36.7188 172.759 36.7188Z" fill="#31B060"/>
</g>
<g filter="url(#filter3_d_5249_17068)">
<circle cx="332.5" cy="41.5" r="16.5" fill="#55ACEE"/>
<path d="M341.3 35.6229C340.653 35.932 339.956 36.141 339.226 36.2344C339.972 35.7534 340.544 34.9923 340.814 34.0839C340.116 34.5296 339.343 34.8529 338.521 35.0271C337.862 34.2718 336.924 33.7998 335.885 33.7998C333.891 33.7998 332.274 35.5409 332.274 37.6876C332.274 37.9923 332.306 38.2889 332.368 38.5736C329.367 38.4115 326.706 36.8639 324.925 34.511C324.614 35.0851 324.436 35.7534 324.436 36.4658C324.436 37.8143 325.074 39.0048 326.042 39.7018C325.451 39.6818 324.893 39.5069 324.407 39.215C324.407 39.2315 324.407 39.248 324.407 39.2642C324.407 41.148 325.652 42.7191 327.303 43.076C327.001 43.1653 326.681 43.2126 326.352 43.2126C326.119 43.2126 325.893 43.1885 325.673 43.1433C326.132 44.6875 327.465 45.8116 329.046 45.8432C327.81 46.8861 326.253 47.5074 324.561 47.5074C324.27 47.5074 323.982 47.4892 323.7 47.4529C325.297 48.5564 327.196 49.1998 329.235 49.1998C335.876 49.1998 339.508 43.2758 339.508 38.1378C339.508 37.9694 339.505 37.8015 339.498 37.6351C340.204 37.0871 340.816 36.4026 341.3 35.6229Z" fill="#F1F2F2"/>
</g>
<g filter="url(#filter4_d_5249_17068)">
<path d="M395.131 208.584H374.522C371.473 208.584 369 206.116 369 203.074V182.51C369 179.467 371.473 177 374.522 177H395.14C398.189 177 400.662 179.467 400.662 182.51V203.083C400.653 206.116 398.18 208.584 395.131 208.584Z" fill="#231F20"/>
<path d="M393.625 187.027C393.606 187.027 391.729 186.99 390.12 185.821C388.726 184.801 388.243 182.593 388.168 181.768V181.656H384.766V196.293C384.766 198.056 383.334 199.484 381.568 199.484C379.802 199.484 378.37 198.056 378.37 196.293C378.37 194.531 379.802 193.102 381.568 193.102H382.637V189.708H381.568C377.924 189.708 374.968 192.666 374.968 196.293C374.968 199.92 377.933 202.879 381.568 202.879C385.212 202.879 388.168 199.92 388.168 196.293V188.594C390.632 190.366 393.309 190.422 393.616 190.422V187.027H393.625Z" fill="#00F7EF"/>
<path d="M394.685 188.075C394.666 188.075 392.788 188.038 391.18 186.869C389.786 185.849 389.302 183.641 389.228 182.815V182.704H385.826V197.35C385.826 199.113 384.394 200.541 382.628 200.541C380.862 200.541 379.43 199.113 379.43 197.35C379.43 195.588 380.862 194.16 382.628 194.16H383.697V190.765H382.628C378.984 190.765 376.028 193.724 376.028 197.35C376.028 200.986 378.993 203.936 382.628 203.936C386.272 203.936 389.228 200.977 389.228 197.35V189.652C391.691 191.423 394.369 191.479 394.675 191.479V188.084H394.685V188.075Z" fill="white"/>
<path d="M388.336 182.704C388.577 183.715 389.117 185.079 390.13 185.821C390.195 185.867 390.269 185.923 390.334 185.96C389.581 184.865 389.293 183.437 389.237 182.815V182.704H388.336V182.704Z" fill="#F00044"/>
<path d="M394.685 188.075C394.676 188.075 394.239 188.065 393.616 187.926V190.421C393.309 190.421 390.632 190.366 388.168 188.594V196.293C388.168 199.92 385.203 202.879 381.568 202.879C380.034 202.879 378.612 202.35 377.487 201.469C378.696 202.971 380.555 203.927 382.628 203.927C386.272 203.927 389.228 200.968 389.228 197.341V189.642C391.692 191.414 394.369 191.47 394.676 191.47V188.075H394.685Z" fill="#FF004F"/>
<path d="M382.637 193.102H381.568C379.802 193.102 378.37 194.531 378.37 196.293C378.37 197.452 378.993 198.463 379.913 199.02C379.607 198.528 379.43 197.953 379.43 197.341C379.43 195.579 380.862 194.15 382.628 194.15H383.697V190.755H382.637V193.102V193.102Z" fill="#F00044"/>
</g>
<g filter="url(#filter5_d_5249_17068)">
<path d="M432.013 164.86H413.985C411.318 164.86 409.155 162.702 409.155 160.04V142.052C409.155 139.391 411.318 137.232 413.985 137.232H432.021C434.688 137.232 436.851 139.391 436.851 142.052V160.049C436.843 162.702 434.68 164.86 432.013 164.86Z" fill="#00AB94"/>
<path d="M422.394 146.608L423.992 150.495L426.621 151.641L421.329 154.381V143.833L417.068 142.167V157.157L421.329 159.933L430.916 153.826V149.384L422.394 146.608Z" fill="white"/>
</g>
<g filter="url(#filter6_d_5249_17068)">
<path d="M109.934 101.928H91.0575C88.2648 101.928 86 99.6684 86 96.8817V78.0465C86 75.2599 88.2648 73 91.0575 73H109.942C112.735 73 115 75.2599 115 78.0465V96.8902C114.991 99.6684 112.727 101.928 109.934 101.928Z" fill="#F7EC1E"/>
<path fill-rule="evenodd" clip-rule="evenodd" d="M101.535 78.5343C103.335 78.6599 105.09 79.63 105.919 81.274C106.655 82.7333 106.408 84.4456 106.314 86.0142C106.801 86.237 107.33 85.7604 107.775 85.7604C108.765 85.7604 109.483 86.8948 107.812 87.5579C107.461 87.6926 106.671 87.8532 106.493 88.2728C106.246 88.8477 107.844 91.7382 110.378 92.1578C110.607 92.1939 110.77 92.3983 110.755 92.6292C110.708 93.4529 108.99 93.7584 108.168 93.888C107.88 94.4577 108.226 95.3177 106.99 95.0742C105.278 94.7373 104.712 95.1622 103.906 95.7321C100.167 98.3894 98.4808 95.2762 96.9937 95.0276C95.8888 94.8411 95.1871 95.1415 94.8153 95.1415C94.1293 95.1415 94.276 94.2661 94.0719 93.888C93.3338 93.774 91.8202 93.5046 91.5322 92.8312C91.0818 91.7745 92.7944 92.6758 94.6845 90.4691C95.0794 90.0032 95.4089 89.4857 95.6637 88.9306C96.1192 87.993 95.297 87.8948 94.4328 87.5525C92.4325 86.76 93.8987 85.4339 94.7522 85.8379C95.0926 85.9984 95.5796 86.1588 95.9252 86.0091C95.8467 84.7452 95.6581 82.7456 96.1451 81.6527C97.0803 79.5378 99.2692 78.3762 101.535 78.5343V78.5343Z" fill="white"/>
<path fill-rule="evenodd" clip-rule="evenodd" d="M101.509 78.9076C99.3824 78.7592 97.3516 79.8488 96.4871 81.8039L96.4866 81.8049C96.2771 82.2751 96.2009 82.9804 96.197 83.7685C96.1939 84.4046 96.237 85.0534 96.2746 85.6199C96.283 85.7463 96.2911 85.8686 96.2984 85.9857C96.3082 86.1431 96.2183 86.2898 96.0736 86.3524C95.8008 86.4706 95.5049 86.4551 95.2629 86.4068C95.0151 86.3573 94.778 86.2641 94.5921 86.1764L94.5916 86.1762C94.4878 86.1271 94.3418 86.1215 94.1852 86.1768C94.0274 86.2325 93.9042 86.3346 93.8447 86.436C93.7941 86.5221 93.7858 86.6063 93.8438 86.7082C93.9145 86.8324 94.108 87.0212 94.5703 87.2043C94.6983 87.255 94.8123 87.2955 94.9284 87.3368C95.0109 87.3661 95.0945 87.3958 95.1851 87.4298C95.3796 87.5029 95.5896 87.5908 95.7613 87.7142C95.9417 87.8439 96.1041 88.031 96.153 88.301C96.1993 88.5563 96.1317 88.8218 96.0018 89.0903C95.733 89.675 95.3857 90.2202 94.9696 90.7111L94.9683 90.7125C93.9603 91.8894 92.9858 92.2452 92.3379 92.4398C92.2802 92.4571 92.2284 92.4723 92.1811 92.4861C92.0929 92.5118 92.0201 92.5331 91.9523 92.5559C91.9027 92.5727 91.8679 92.5865 91.844 92.5973C91.8502 92.6183 91.8601 92.6467 91.876 92.684C91.9058 92.7537 91.9834 92.8455 92.1453 92.9472C92.3036 93.0465 92.5113 93.1356 92.7492 93.2134C93.2247 93.369 93.7617 93.4612 94.1285 93.5178C94.2444 93.5357 94.3452 93.6068 94.4009 93.71C94.4828 93.8619 94.52 94.0414 94.545 94.1734C94.5525 94.2126 94.5591 94.2494 94.5654 94.2842C94.5839 94.386 94.5994 94.4716 94.6229 94.5553C94.6537 94.6652 94.6845 94.7153 94.7058 94.7371L94.7064 94.7377C94.7147 94.7463 94.7348 94.767 94.8148 94.767C94.8677 94.767 94.9479 94.7555 95.088 94.7293C95.1115 94.7249 95.1363 94.7202 95.1624 94.7153C95.2793 94.6931 95.4203 94.6663 95.5758 94.6439C95.9631 94.5882 96.455 94.5569 97.0552 94.6582C97.5204 94.7361 97.9715 95.0291 98.3833 95.3051C98.4284 95.3353 98.4735 95.3657 98.5187 95.3961C98.9108 95.6603 99.3078 95.9278 99.7569 96.1272C100.248 96.3455 100.789 96.4748 101.416 96.4057C102.046 96.3363 102.793 96.0634 103.688 95.4267L103.689 95.4261C103.707 95.4137 103.724 95.4013 103.742 95.3889C104.118 95.1229 104.499 94.853 105.001 94.704C105.535 94.5457 106.17 94.5311 107.062 94.7067L107.062 94.7067C107.343 94.7622 107.472 94.7404 107.522 94.7214C107.547 94.7118 107.564 94.7018 107.587 94.6448C107.617 94.5715 107.633 94.481 107.659 94.3317C107.661 94.3162 107.664 94.3001 107.667 94.2834C107.694 94.1271 107.734 93.9163 107.834 93.7189C107.888 93.6115 107.991 93.5367 108.109 93.518C108.521 93.4532 109.123 93.3487 109.624 93.1669C109.875 93.0756 110.076 92.9733 110.21 92.8643C110.342 92.7572 110.377 92.6722 110.381 92.6077L110.381 92.6047C110.383 92.5669 110.357 92.5334 110.319 92.5275L110.316 92.527C108.927 92.297 107.82 91.3972 107.101 90.5089C106.74 90.0621 106.465 89.6049 106.295 89.2116C106.211 89.0156 106.148 88.8263 106.116 88.6558C106.087 88.4996 106.073 88.301 106.148 88.1253C106.228 87.9372 106.367 87.7997 106.504 87.7001C106.642 87.5998 106.798 87.523 106.944 87.4625C107.091 87.4015 107.24 87.3519 107.368 87.3108C107.396 87.3017 107.423 87.2933 107.448 87.2853C107.543 87.255 107.617 87.2315 107.676 87.2089C108.055 87.0582 108.255 86.8969 108.352 86.7702C108.442 86.6526 108.444 86.5651 108.428 86.5036C108.389 86.3517 108.155 86.1346 107.775 86.1346C107.726 86.1346 107.656 86.1484 107.549 86.1852C107.481 86.2087 107.428 86.2297 107.368 86.2534C107.318 86.2734 107.262 86.2953 107.189 86.3221C106.934 86.4158 106.55 86.5337 106.158 86.3545C106.018 86.2902 105.931 86.146 105.94 85.9917C105.953 85.7799 105.968 85.5693 105.983 85.3598C106.025 84.7715 106.067 84.1911 106.053 83.6116C106.035 82.835 105.918 82.1037 105.584 81.4424C104.825 79.9376 103.202 79.0259 101.509 78.9076ZM95.8025 81.5006C96.8084 79.2263 99.1552 77.9928 101.561 78.1607C103.467 78.2937 105.354 79.3222 106.253 81.1052L105.919 81.2738L106.253 81.1052C106.655 81.9033 106.783 82.7578 106.802 83.5943C106.816 84.2124 106.771 84.8448 106.728 85.4429C106.722 85.5245 106.716 85.6054 106.711 85.6856C106.772 85.673 106.844 85.6513 106.931 85.6192C106.965 85.6067 107.012 85.5887 107.062 85.5689C107.143 85.5373 107.235 85.5013 107.306 85.4772C107.438 85.4316 107.601 85.3858 107.775 85.3858C108.384 85.3858 109.004 85.736 109.153 86.3171C109.232 86.6221 109.162 86.9425 108.947 87.2241C108.74 87.4963 108.405 87.7251 107.95 87.9057C107.948 87.9062 107.947 87.9067 107.946 87.9072C107.864 87.9386 107.762 87.9712 107.664 88.0024C107.641 88.0096 107.619 88.0167 107.597 88.0237C107.472 88.0637 107.347 88.1057 107.231 88.1541C107.112 88.2031 107.016 88.2535 106.944 88.3055C106.883 88.3504 106.854 88.3859 106.842 88.4085C106.841 88.4179 106.84 88.4514 106.853 88.519C106.871 88.6183 106.913 88.7524 106.983 88.9148C107.122 89.2383 107.359 89.6377 107.683 90.0379C108.335 90.8432 109.293 91.5982 110.437 91.7881C110.856 91.8549 111.155 92.2289 111.128 92.6518C111.108 92.9984 110.911 93.26 110.682 93.4457C110.455 93.6297 110.167 93.7663 109.88 93.8706C109.397 94.0461 108.85 94.1539 108.443 94.2223C108.43 94.2772 108.417 94.3397 108.405 94.4122C108.402 94.4281 108.399 94.4449 108.396 94.4625C108.374 94.595 108.344 94.7726 108.281 94.927C108.2 95.1258 108.053 95.3207 107.787 95.4216C107.545 95.5132 107.254 95.5077 106.917 95.4414C106.097 95.28 105.593 95.3094 105.214 95.4219C104.832 95.5351 104.542 95.7402 104.137 96.0263L104.122 96.0371C104.122 96.0371 104.122 96.0371 104.122 96.0372C103.148 96.7291 102.283 97.0635 101.498 97.15C100.711 97.2368 100.036 97.0706 99.453 96.8116C98.9398 96.5837 98.4873 96.2784 98.101 96.0177C98.0552 95.9868 98.0103 95.9565 97.9664 95.9271C97.527 95.6325 97.2097 95.4432 96.9314 95.3967L96.9309 95.3966C96.4263 95.3114 96.0151 95.3372 95.6824 95.385C95.5452 95.4048 95.4239 95.4278 95.3078 95.4498C95.28 95.4551 95.2526 95.4603 95.2254 95.4654C95.0948 95.4897 94.9478 95.5158 94.8148 95.5158C94.5536 95.5158 94.3339 95.428 94.1701 95.2602C94.0196 95.1061 93.9457 94.9137 93.9019 94.7575C93.8679 94.6362 93.8437 94.5022 93.8242 94.3937C93.8189 94.3648 93.814 94.3376 93.8094 94.313C93.8029 94.2788 93.7967 94.2486 93.7907 94.222C93.4297 94.1616 92.956 94.0689 92.5164 93.9251C92.2476 93.8371 91.9768 93.7255 91.7472 93.5814C91.5213 93.4396 91.3017 93.2454 91.1875 92.9783L91.1873 92.9778C91.1218 92.8242 91.0717 92.6545 91.0875 92.4824C91.1056 92.2849 91.2049 92.1349 91.3386 92.031C91.4547 91.9407 91.5953 91.8861 91.7133 91.8463C91.7953 91.8187 91.8926 91.7903 91.9906 91.7616C92.0348 91.7486 92.0793 91.7357 92.1225 91.7227C92.6906 91.5521 93.5172 91.2553 94.3991 90.2261C94.7717 89.7864 95.0826 89.298 95.323 88.7743C95.3241 88.7718 95.3253 88.7693 95.3265 88.7669C95.4232 88.5678 95.4228 88.4707 95.4162 88.4345C95.4121 88.4117 95.4003 88.377 95.3241 88.3221C95.2391 88.261 95.1101 88.2016 94.9216 88.1307C94.8589 88.1071 94.7841 88.0804 94.7038 88.0518C94.5726 88.0049 94.4266 87.9528 94.2945 87.9005L94.2945 87.9004C93.7565 87.6873 93.3833 87.4131 93.1929 87.0784C92.9899 86.7214 93.0264 86.3507 93.199 86.0568C93.3627 85.7781 93.6412 85.5748 93.9358 85.4708C94.2315 85.3663 94.5887 85.3465 94.9116 85.4992C95.066 85.572 95.2425 85.6392 95.4096 85.6725C95.4526 85.6811 95.4923 85.6869 95.5288 85.6904C95.5286 85.6866 95.5283 85.6829 95.5281 85.6792C95.4903 85.1123 95.445 84.4305 95.4483 83.7648C95.4522 82.964 95.5252 82.1233 95.8025 81.5006Z" fill="black"/>
</g>
</g>
<defs>
<filter id="filter0_d_5249_17068" x="3" y="103" width="59.8494" height="59.751" filterUnits="userSpaceOnUse" color-interpolation-filters="sRGB">
<feFlood flood-opacity="0" result="BackgroundImageFix"/>
<feColorMatrix in="SourceAlpha" type="matrix" values="0 0 0 0 0 0 0 0 0 0 0 0 0 0 0 0 0 0 127 0" result="hardAlpha"/>
<feOffset dy="4"/>
<feGaussianBlur stdDeviation="5"/>
<feComposite in2="hardAlpha" operator="out"/>
<feColorMatrix type="matrix" values="0 0 0 0 0 0 0 0 0 0 0 0 0 0 0 0 0 0 0.15 0"/>
<feBlend mode="normal" in2="BackgroundImageFix" result="effect1_dropShadow_5249_17068"/>
<feBlend mode="normal" in="SourceGraphic" in2="effect1_dropShadow_5249_17068" result="shape"/>
</filter>
<filter id="filter1_d_5249_17068" x="232" y="35" width="50" height="50" filterUnits="userSpaceOnUse" color-interpolation-filters="sRGB">
<feFlood flood-opacity="0" result="BackgroundImageFix"/>
<feColorMatrix in="SourceAlpha" type="matrix" values="0 0 0 0 0 0 0 0 0 0 0 0 0 0 0 0 0 0 127 0" result="hardAlpha"/>
<feOffset dy="4"/>
<feGaussianBlur stdDeviation="5"/>
<feComposite in2="hardAlpha" operator="out"/>
<feColorMatrix type="matrix" values="0 0 0 0 0 0 0 0 0 0 0 0 0 0 0 0 0 0 0.15 0"/>
<feBlend mode="normal" in2="BackgroundImageFix" result="effect1_dropShadow_5249_17068"/>
<feBlend mode="normal" in="SourceGraphic" in2="effect1_dropShadow_5249_17068" result="shape"/>
</filter>
<filter id="filter2_d_5249_17068" x="153" y="12" width="52" height="52" filterUnits="userSpaceOnUse" color-interpolation-filters="sRGB">
<feFlood flood-opacity="0" result="BackgroundImageFix"/>
<feColorMatrix in="SourceAlpha" type="matrix" values="0 0 0 0 0 0 0 0 0 0 0 0 0 0 0 0 0 0 127 0" result="hardAlpha"/>
<feOffset dy="4"/>
<feGaussianBlur stdDeviation="5"/>
<feComposite in2="hardAlpha" operator="out"/>
<feColorMatrix type="matrix" values="0 0 0 0 0 0 0 0 0 0 0 0 0 0 0 0 0 0 0.15 0"/>
<feBlend mode="normal" in2="BackgroundImageFix" result="effect1_dropShadow_5249_17068"/>
<feBlend mode="normal" in="SourceGraphic" in2="effect1_dropShadow_5249_17068" result="shape"/>
</filter>
<filter id="filter3_d_5249_17068" x="306" y="19" width="53" height="53" filterUnits="userSpaceOnUse" color-interpolation-filters="sRGB">
<feFlood flood-opacity="0" result="BackgroundImageFix"/>
<feColorMatrix in="SourceAlpha" type="matrix" values="0 0 0 0 0 0 0 0 0 0 0 0 0 0 0 0 0 0 127 0" result="hardAlpha"/>
<feOffset dy="4"/>
<feGaussianBlur stdDeviation="5"/>
<feComposite in2="hardAlpha" operator="out"/>
<feColorMatrix type="matrix" values="0 0 0 0 0 0 0 0 0 0 0 0 0 0 0 0 0 0 0.15 0"/>
<feBlend mode="normal" in2="BackgroundImageFix" result="effect1_dropShadow_5249_17068"/>
<feBlend mode="normal" in="SourceGraphic" in2="effect1_dropShadow_5249_17068" result="shape"/>
</filter>
<filter id="filter4_d_5249_17068" x="361" y="173" width="47.662" height="47.5835" filterUnits="userSpaceOnUse" color-interpolation-filters="sRGB">
<feFlood flood-opacity="0" result="BackgroundImageFix"/>
<feColorMatrix in="SourceAlpha" type="matrix" values="0 0 0 0 0 0 0 0 0 0 0 0 0 0 0 0 0 0 127 0" result="hardAlpha"/>
<feOffset dy="4"/>
<feGaussianBlur stdDeviation="4"/>
<feComposite in2="hardAlpha" operator="out"/>
<feColorMatrix type="matrix" values="0 0 0 0 0.0588235 0 0 0 0 0.137255 0 0 0 0 0.258824 0 0 0 0.15 0"/>
<feBlend mode="normal" in2="BackgroundImageFix" result="effect1_dropShadow_5249_17068"/>
<feBlend mode="normal" in="SourceGraphic" in2="effect1_dropShadow_5249_17068" result="shape"/>
</filter>
<filter id="filter5_d_5249_17068" x="401.155" y="133.232" width="43.6961" height="43.6274" filterUnits="userSpaceOnUse" color-interpolation-filters="sRGB">
<feFlood flood-opacity="0" result="BackgroundImageFix"/>
<feColorMatrix in="SourceAlpha" type="matrix" values="0 0 0 0 0 0 0 0 0 0 0 0 0 0 0 0 0 0 127 0" result="hardAlpha"/>
<feOffset dy="4"/>
<feGaussianBlur stdDeviation="4"/>
<feComposite in2="hardAlpha" operator="out"/>
<feColorMatrix type="matrix" values="0 0 0 0 0.0588235 0 0 0 0 0.137255 0 0 0 0 0.258824 0 0 0 0.15 0"/>
<feBlend mode="normal" in2="BackgroundImageFix" result="effect1_dropShadow_5249_17068"/>
<feBlend mode="normal" in="SourceGraphic" in2="effect1_dropShadow_5249_17068" result="shape"/>
</filter>
<filter id="filter6_d_5249_17068" x="78" y="69" width="45" height="44.9282" filterUnits="userSpaceOnUse" color-interpolation-filters="sRGB">
<feFlood flood-opacity="0" result="BackgroundImageFix"/>
<feColorMatrix in="SourceAlpha" type="matrix" values="0 0 0 0 0 0 0 0 0 0 0 0 0 0 0 0 0 0 127 0" result="hardAlpha"/>
<feOffset dy="4"/>
<feGaussianBlur stdDeviation="4"/>
<feComposite in2="hardAlpha" operator="out"/>
<feColorMatrix type="matrix" values="0 0 0 0 0.0588235 0 0 0 0 0.137255 0 0 0 0 0.258824 0 0 0 0.15 0"/>
<feBlend mode="normal" in2="BackgroundImageFix" result="effect1_dropShadow_5249_17068"/>
<feBlend mode="normal" in="SourceGraphic" in2="effect1_dropShadow_5249_17068" result="shape"/>
</filter>
<clipPath id="clip0_5249_17068">
<rect width="442" height="337" fill="white"/>
</clipPath>
</defs>
</svg>
