<svg width="124" height="72" viewBox="0 0 124 72" fill="none" xmlns="http://www.w3.org/2000/svg">
<g clip-path="url(#clip0_412_8701)">
<path d="M61.5726 95.3379C95.5781 95.3379 123.145 82.7772 123.145 67.2827C123.145 51.7883 95.5781 39.2275 61.5726 39.2275C27.5671 39.2275 0.00012207 51.7883 0.00012207 67.2827C0.00012207 82.7772 27.5671 95.3379 61.5726 95.3379Z" fill="url(#paint0_linear_412_8701)"/>
<path d="M25.7145 36.5239C25.6535 36.1416 25.2917 35.8782 24.904 35.9386C24.5182 35.9989 24.2523 36.3574 24.3133 36.7416C24.4148 37.3964 24.544 39.4451 23.8314 40.2682C23.6764 40.4475 23.4899 40.5535 23.2554 40.5956L23.3201 36.694C23.3293 36.127 22.8678 35.6624 22.2955 35.6624C21.7195 35.6624 21.2579 36.1324 21.2709 36.7031L21.4555 44.1094C21.2099 44.071 21.0161 43.9631 20.8555 43.7784C20.141 42.9534 20.2721 40.9047 20.3737 40.2517C20.4346 39.8694 20.1687 39.5091 19.7829 39.4487C19.3952 39.3884 19.0334 39.6518 18.9725 40.0341C18.9208 40.356 18.5128 43.226 19.7774 44.6911C20.213 45.196 20.802 45.4813 21.4906 45.5252L21.5718 48.7482H23.1188L23.2314 42.0132C23.9034 41.962 24.4813 41.6767 24.9077 41.181C26.176 39.7158 25.7662 36.8477 25.7145 36.5239Z" fill="#C7C9D9"/>
<path d="M103.588 29.6253C103.494 29.0235 102.925 28.6138 102.318 28.7071C101.71 28.8004 101.297 29.3637 101.391 29.9655C101.55 30.9917 101.753 34.2055 100.634 35.4988C100.392 35.7786 100.099 35.9469 99.7314 36.0128L99.833 29.8905C99.8477 29.0016 99.124 28.2717 98.2268 28.2717C97.3241 28.2717 96.5986 29.0089 96.6207 29.9033L96.9106 41.5204C96.5247 41.4582 96.2201 41.2899 95.9709 41.0009C94.8521 39.7077 95.0552 36.4938 95.214 35.4677C95.3081 34.8659 94.8946 34.3025 94.2872 34.2092C93.6799 34.1159 93.1113 34.5256 93.0171 35.1274C92.9377 35.6323 92.2953 40.1339 94.2798 42.4331C94.9629 43.2233 95.8878 43.6715 96.9659 43.741L97.0915 48.7986H99.5173L99.6926 38.2334C100.747 38.1511 101.651 37.7066 102.323 36.9292C104.31 34.6317 103.667 30.132 103.588 29.6253Z" fill="#C7C9D9"/>
</g>
<g clip-path="url(#clip1_412_8701)">
<path d="M37.1688 60.6697C36.7521 60.9783 36.3752 61.349 36.4043 61.9402C36.4666 63.1968 38.6281 63.4989 39.5123 63.6192C41.0785 63.8324 42.6471 63.7993 44.2213 63.8591C49.9366 64.0747 55.6584 64.1087 61.377 63.9811C64.3135 63.9156 67.2484 63.8082 70.1825 63.6612C72.7599 63.5328 75.6301 63.6976 78.0715 62.7042C79.5366 62.1081 80.9433 61.3659 82.317 60.5696C83.4544 59.9098 84.9291 59.2806 85.603 58.0473C86.784 55.8853 82.6438 55.4581 81.5048 55.2206C77.0247 54.2862 72.4047 54.1198 67.8479 53.9809C63.2109 53.8395 58.5602 53.9268 53.9426 54.4138C48.1537 55.0244 41.9635 56.9796 37.2343 60.6229C37.2124 60.6382 37.1906 60.6544 37.1688 60.6697Z" fill="#F2F2F5"/>
<path d="M82.2799 35.7734H49.1092V58.4745H82.2799V35.7734Z" fill="#E5E5E5"/>
<path d="M82.2799 35.7735H49.1092L53.4994 30.7064C53.7033 30.4714 53.9994 30.3357 54.3108 30.3357H86.3821C86.6208 30.3357 86.7486 30.6151 86.5925 30.7952L82.2799 35.7735Z" fill="white"/>
<path d="M82.2961 35.6281C81.2008 35.6281 80.1054 35.6281 79.0101 35.6281C76.3656 35.6281 73.7203 35.6281 71.0758 35.6281C67.8877 35.6281 64.6996 35.6281 61.5114 35.6281C58.7432 35.6281 55.9749 35.6281 53.2066 35.6281C52.2982 35.6281 51.3897 35.6281 50.4812 35.6281C50.1981 35.6281 49.9142 35.6281 49.631 35.6281C49.5097 35.6281 49.2993 35.5861 49.1837 35.6281C49.1683 35.6337 49.1424 35.6281 49.1254 35.6281C49.1748 35.6967 49.2233 35.7646 49.2727 35.8324C50.3518 34.587 51.4302 33.3425 52.5093 32.0971C52.8919 31.6553 53.2568 31.1869 53.6621 30.7661C53.9582 30.4584 54.2785 30.4802 54.6506 30.4802C57.3914 30.4802 60.133 30.4802 62.8737 30.4802C67.1984 30.4802 71.5223 30.4802 75.8471 30.4802C79.019 30.4802 82.1909 30.4802 85.3629 30.4802C85.6468 30.4802 85.9672 30.439 86.2487 30.4802C86.6532 30.54 86.2786 30.9083 86.1241 31.0867C84.8896 32.5114 83.6552 33.9361 82.4215 35.3599C82.3196 35.4771 82.2184 35.595 82.1165 35.7121C81.9547 35.8986 82.326 35.9673 82.4441 35.8308C83.5548 34.5491 84.6656 33.2666 85.7763 31.9848C86.0327 31.6892 86.2883 31.3936 86.5448 31.098C86.6726 30.9511 86.8675 30.7831 86.8562 30.5715C86.8352 30.166 86.4234 30.1886 86.1306 30.1886C83.3599 30.1886 80.59 30.1886 77.8193 30.1886C73.3684 30.1886 68.9167 30.1886 64.4658 30.1886C61.3343 30.1886 58.2036 30.1886 55.0721 30.1886C54.8351 30.1886 54.5964 30.1806 54.3602 30.1886C53.7624 30.2096 53.421 30.5456 53.0618 30.9607C51.7998 32.4177 50.5371 33.8739 49.2751 35.3309C49.1651 35.4577 49.055 35.5845 48.945 35.7121C48.8415 35.8316 48.9814 35.9164 49.0923 35.9164C50.1876 35.9164 51.2829 35.9164 52.3783 35.9164C55.0228 35.9164 57.6681 35.9164 60.3126 35.9164C63.5007 35.9164 66.6888 35.9164 69.8769 35.9164C72.6452 35.9164 75.4135 35.9164 78.1817 35.9164C79.0902 35.9164 79.9987 35.9164 80.9071 35.9164C81.3342 35.9164 81.7784 35.9519 82.2047 35.9164C82.2241 35.9148 82.2435 35.9164 82.2629 35.9164C82.4878 35.9188 82.5614 35.6281 82.2961 35.6281Z" fill="#C7C9D9"/>
<path d="M49.1585 35.7734L41.009 38.9402V61.6412L49.1585 58.5916V35.7734Z" fill="#F7F7F7"/>
<path d="M49.0889 35.7218C46.7114 36.6458 44.3346 37.5697 41.9571 38.4936C41.6181 38.6253 41.2792 38.7569 40.9402 38.8886C40.683 38.9887 40.9241 39.0525 41.0794 38.992C43.4569 38.068 45.8336 37.1441 48.2112 36.2202C48.5501 36.0885 48.8891 35.9569 49.228 35.8252C49.4853 35.7251 49.2442 35.6613 49.0889 35.7218Z" fill="#C7C9D9"/>
<path d="M49.3536 58.5392C49.3536 56.0815 49.3536 53.6231 49.3536 51.1655C49.3536 47.2775 49.3536 43.3896 49.3536 39.5016C49.3536 38.6019 49.3536 37.7014 49.3536 36.8017C49.3536 36.6959 48.9628 36.7645 48.9628 36.9059C48.9628 39.3635 48.9628 41.8219 48.9628 44.2796C48.9628 48.1675 48.9628 52.0555 48.9628 55.9434C48.9628 56.8431 48.9628 57.7437 48.9628 58.6434C48.9628 58.7492 49.3536 58.6813 49.3536 58.5392Z" fill="#C7C9D9"/>
<path d="M49.1586 35.7736L41.0091 38.9403L37.1034 35.1436C36.7289 34.7794 36.8607 34.1502 37.3502 33.9669L44.029 31.4673C44.2846 31.372 44.5718 31.4301 44.77 31.6175L49.1586 35.7736Z" fill="#F2F2F2"/>
<path d="M48.9474 35.8558L41.009 38.9409L37.6907 35.6539C37.3161 35.2896 37.448 34.6605 37.9374 34.4771C38.7075 34.192 39.4768 33.9069 40.247 33.621C41.3763 33.2027 42.741 32.3442 43.9868 32.6099C44.8823 32.8013 48.8543 35.7702 48.9474 35.8558Z" fill="white"/>
<path d="M49.0752 35.6734C46.6977 36.5973 44.321 37.5212 41.9434 38.4452C41.6045 38.5768 41.2655 38.7085 40.9266 38.8401C41.0139 38.8466 41.1013 38.8522 41.1895 38.8587C40.1912 37.8887 39.1938 36.9187 38.1955 35.9488C37.9633 35.7226 37.7303 35.4965 37.4982 35.2704C37.342 35.1185 37.1641 34.9764 37.105 34.7575C36.9262 34.0928 37.8031 33.9297 38.2481 33.7633C39.8312 33.1705 41.4144 32.5785 42.9975 31.9857C43.3615 31.8492 44.0467 31.4308 44.4447 31.611C44.6065 31.6836 44.7319 31.8339 44.8589 31.9542C45.087 32.1706 45.3152 32.3863 45.5433 32.6027C46.688 33.6874 47.8335 34.772 48.9781 35.8567C49.0938 35.9657 49.4635 35.8115 49.3381 35.6927C48.2606 34.6719 47.1831 33.651 46.1055 32.6302C45.7237 32.2684 45.3548 31.8767 44.9519 31.5375C44.4536 31.1183 43.9367 31.3719 43.4173 31.5665C41.7493 32.1908 40.0812 32.8151 38.4123 33.4394C37.9981 33.5945 37.516 33.7092 37.1317 33.9345C36.6819 34.1978 36.5493 34.7817 36.8898 35.1888C36.9958 35.3156 37.1277 35.4246 37.2458 35.5401C38.4406 36.7015 39.6354 37.8629 40.8295 39.0243C40.8999 39.0929 41.0083 39.0751 41.0924 39.0428C43.4699 38.1189 45.8467 37.195 48.2242 36.271C48.5631 36.1394 48.9021 36.0077 49.2411 35.8761C49.4918 35.7767 49.2678 35.5983 49.0752 35.6734Z" fill="#C7C9D9"/>
<path d="M74.1304 38.9402H40.857V61.6412H74.1304V38.9402Z" fill="#F2F2F2"/>
<path d="M74.1312 39.4111C73.0641 40.9998 71.8345 43.136 71.07 44.5C70.6073 45.3263 69.7344 45.8383 68.7872 45.8399L40.8577 45.9013V61.6405H74.1312V39.4111Z" fill="white"/>
<path d="M82.2798 35.7734L74.1311 38.9402V61.6412L82.2798 58.5916V35.7734Z" fill="#E5E5E5"/>
<path d="M82.2798 43.2989L79.5738 44.3836C78.6435 44.7559 77.5789 44.4595 76.9762 43.66L74.1311 39.8818V61.642L82.2798 58.5923V43.2989Z" fill="#F2F2F2"/>
<path d="M73.9353 39.9626C73.9353 42.3177 73.9353 44.6727 73.9353 47.0278C73.9353 50.7777 73.9353 54.5283 73.9353 58.2782C73.9353 59.1343 73.9353 59.9895 73.9353 60.8456C73.9353 60.9296 74.326 60.8674 74.326 60.7414C74.326 58.3864 74.326 56.0313 74.326 53.6763C74.326 49.9264 74.326 46.1757 74.326 42.4259C74.326 41.5698 74.326 40.7145 74.326 39.8584C74.326 39.7744 73.9353 39.8358 73.9353 39.9626Z" fill="#C7C9D9"/>
<path d="M40.7769 39.0356C42.4846 39.0356 44.1923 39.0356 45.9 39.0356C49.6706 39.0356 53.4412 39.0356 57.2109 39.0356C61.0042 39.0356 64.7974 39.0356 68.5906 39.0356C69.8744 39.0356 71.1591 39.0356 72.4429 39.0356C72.9663 39.0356 73.5196 39.0872 74.0422 39.0356C74.3342 39.0065 74.6376 38.8345 74.907 38.7295C75.6957 38.4226 76.4853 38.1165 77.274 37.8096C78.8644 37.1917 80.4549 36.5731 82.0453 35.9552C82.1472 35.9157 82.2491 35.8761 82.3519 35.8365C82.6083 35.7372 82.3713 35.6467 82.2071 35.7105C80.9863 36.1846 79.7656 36.6595 78.5449 37.1336C77.0904 37.6989 75.5914 38.2029 74.1652 38.8361C73.9718 38.9217 74.183 38.8409 74.1903 38.845C74.1563 38.8256 74.0503 38.845 74.0123 38.845C73.7251 38.845 73.4379 38.845 73.1507 38.845C72.0125 38.845 70.8735 38.845 69.7353 38.845C66.0723 38.845 62.4093 38.845 58.7464 38.845C54.8933 38.845 51.041 38.845 47.1879 38.845C45.1388 38.845 43.0784 38.7852 41.0301 38.845C40.9993 38.8458 40.9686 38.845 40.9371 38.845C40.81 38.845 40.5164 39.0356 40.7769 39.0356Z" fill="#C7C9D9"/>
<path d="M82.0817 42.8436C82.0817 44.6236 82.0817 46.4036 82.0817 48.1837C82.0817 51.0064 82.0817 53.8282 82.0817 56.6509C82.0817 57.3027 82.0817 57.9545 82.0817 58.6062C82.1189 58.5626 82.1561 58.519 82.1925 58.4754C80.9597 58.9365 79.7276 59.3977 78.4947 59.8597C77.0451 60.4024 75.5582 60.8886 74.1328 61.4919C73.9646 61.563 74.1749 61.5048 74.1215 61.4975C74.0608 61.4895 73.9945 61.4975 73.9338 61.4975C73.641 61.4975 73.3481 61.4975 73.0553 61.4975C71.9082 61.4975 70.7611 61.4975 69.614 61.4975C65.9429 61.4975 62.2726 61.4975 58.6016 61.4975C54.7646 61.4975 50.9285 61.4975 47.0916 61.4975C45.7196 61.4975 44.3476 61.4975 42.9756 61.4975C42.5412 61.4975 42.1068 61.4975 41.6724 61.4975C41.4516 61.4975 41.1838 61.4564 40.9654 61.4975C40.9371 61.5032 40.9023 61.4975 40.8723 61.4975C40.933 61.5404 40.9929 61.584 41.0535 61.6268C41.0535 59.7603 41.0535 57.8939 41.0535 56.0266C41.0535 53.0497 41.0535 50.0735 41.0535 47.0966C41.0535 46.4109 41.0535 45.726 41.0535 45.0403C41.0535 44.8352 40.658 44.8925 40.658 45.0694C40.658 46.9359 40.658 48.8023 40.658 50.6696C40.658 53.6465 40.658 56.6227 40.658 59.5996C40.658 60.2853 40.658 60.9702 40.658 61.6558C40.658 61.7576 40.7526 61.7851 40.8392 61.7851C42.5469 61.7851 44.2546 61.7851 45.9623 61.7851C49.7054 61.7851 53.4493 61.7851 57.1923 61.7851C60.992 61.7851 64.7917 61.7851 68.5914 61.7851C69.8833 61.7851 71.1761 61.7851 72.468 61.7851C72.9938 61.7851 73.5771 61.8561 74.0997 61.7851C74.3707 61.7479 74.653 61.5937 74.9062 61.4992C75.686 61.2076 76.4651 60.9152 77.2449 60.6237C78.8483 60.0236 80.4516 59.4235 82.055 58.8235C82.1585 58.7847 82.2613 58.7459 82.3648 58.7072C82.4117 58.6894 82.4757 58.6312 82.4757 58.5763C82.4757 56.7963 82.4757 55.0163 82.4757 53.2362C82.4757 50.4135 82.4757 47.5917 82.4757 44.769C82.4757 44.1172 82.4757 43.4655 82.4757 42.8137C82.4781 42.6094 82.0817 42.6667 82.0817 42.8436Z" fill="#C7C9D9"/>
<path d="M74.1312 38.9402H40.857L36.47 44.0041C36.343 44.1502 36.4473 44.378 36.6415 44.378H69.3163C69.3818 44.378 69.4449 44.3497 69.4878 44.2997L74.1312 38.9402Z" fill="#F2F2F2"/>
<path d="M74.1311 38.9402H41.1853C40.6781 39.9182 40.1911 40.9092 39.6556 41.8719C39.3263 42.4639 39.2632 43.429 40.2251 43.429H68.4789C69.0169 43.429 69.5346 43.2255 69.927 42.8588L74.1311 38.9402Z" fill="white"/>
<path d="M74.2031 38.8141C72.6143 38.8141 71.0255 38.8141 69.4367 38.8141C65.8708 38.8141 62.3041 38.8141 58.7382 38.8141C54.9943 38.8141 51.2505 38.8141 47.5066 38.8141C45.3855 38.8141 43.2636 38.8141 41.1425 38.8141C40.9815 38.8141 40.8262 38.7947 40.6919 38.9021C40.5697 38.9991 40.4686 39.1598 40.3675 39.2769C40.1394 39.5402 39.9112 39.8043 39.6823 40.0676C38.5959 41.3218 37.5094 42.5753 36.423 43.8295C36.1908 44.0969 36.1326 44.4716 36.6042 44.5055C36.7846 44.5185 36.9707 44.5055 37.1519 44.5055C38.104 44.5055 39.057 44.5055 40.0091 44.5055C43.3825 44.5055 46.755 44.5055 50.1284 44.5055C53.9483 44.5055 57.7675 44.5055 61.5874 44.5055C63.9754 44.5055 66.3643 44.5055 68.7523 44.5055C68.9109 44.5055 69.0727 44.5152 69.2313 44.5055C69.6155 44.4813 69.7902 44.1817 70.0216 43.9143C71.1622 42.5979 72.3029 41.2806 73.4435 39.9642C73.7258 39.6379 74.009 39.3116 74.2913 38.9853C74.4474 38.8052 74.0721 38.7794 73.971 38.8957C72.8886 40.1451 71.8054 41.3953 70.723 42.6447C70.2683 43.1697 69.8283 43.714 69.355 44.2237C69.2927 44.2907 69.4489 44.235 69.3202 44.2527C69.2296 44.2657 69.1277 44.2527 69.0371 44.2527C66.2583 44.2527 63.4787 44.2527 60.6999 44.2527C56.2968 44.2527 51.8928 44.2527 47.4896 44.2527C44.2465 44.2527 41.0033 44.2527 37.7602 44.2527C37.4682 44.2527 37.1405 44.2947 36.8509 44.2527C36.8178 44.2479 36.7441 44.2697 36.7142 44.2527C36.461 44.1049 36.8445 43.8021 36.931 43.7027C38.1833 42.2571 39.4356 40.8122 40.687 39.3665C40.797 39.2397 40.9071 39.1129 41.0171 38.9861C40.9394 39.0136 40.8626 39.0402 40.7849 39.0677C41.8891 39.0677 42.9926 39.0677 44.0968 39.0677C46.7478 39.0677 49.3979 39.0677 52.0489 39.0677C55.2419 39.0677 58.4348 39.0677 61.6278 39.0677C64.4017 39.0677 67.1757 39.0677 69.9496 39.0677C71.2925 39.0677 72.6596 39.142 74.0009 39.0677C74.0203 39.0669 74.0397 39.0677 74.0591 39.0677C74.2266 39.0669 74.466 38.8141 74.2031 38.8141Z" fill="#C7C9D9"/>
<path d="M82.2797 35.7734L74.131 38.9402L78.6798 43.3289C78.7785 43.4242 78.9241 43.4541 79.0528 43.4064L86.4693 40.6306C86.7128 40.5393 86.78 40.2267 86.5955 40.0442L82.2797 35.7734Z" fill="#F2F2F2"/>
<path d="M82.0143 35.8767L74.2297 38.9796L78.3222 43.1075C78.4112 43.1971 78.5414 43.2254 78.6579 43.1802C79.6813 42.7796 80.7046 42.379 81.7287 41.9784C82.3484 41.7361 82.9672 41.4938 83.5869 41.2515C84.1936 41.0141 85.0422 40.7274 84.9686 39.9092C84.9346 39.5377 84.6814 39.2373 84.4363 38.9756C84.1588 38.6808 82.1502 36.0172 82.0143 35.8767Z" fill="white"/>
<path d="M82.1915 35.6515C79.814 36.5754 77.4373 37.4993 75.0597 38.4233C74.7208 38.5549 74.3818 38.6866 74.0429 38.8182C73.9361 38.8594 73.8997 38.9781 73.9814 39.0565C75.1018 40.1371 76.2222 41.2185 77.3426 42.2991C77.7293 42.6714 78.1022 43.1189 78.5302 43.4452C78.9274 43.748 79.5406 43.3797 79.9426 43.2287C81.7183 42.564 83.494 41.8993 85.2696 41.2347C85.6911 41.0772 86.1563 40.9536 86.5591 40.7525C87.3357 40.364 86.5793 39.7623 86.2347 39.4215C84.976 38.1761 83.7172 36.9308 82.4593 35.6854C82.3282 35.5554 81.9594 35.7193 82.1026 35.8615C83.1453 36.8936 84.1881 37.9258 85.2308 38.9571C85.5075 39.2309 85.7841 39.5047 86.0608 39.7785C86.1676 39.8843 86.335 39.9998 86.4143 40.1282C86.6991 40.5877 85.6814 40.7711 85.4023 40.8753C83.6962 41.5141 81.9909 42.1521 80.2848 42.791C79.9823 42.904 79.6797 43.0179 79.3772 43.131C79.276 43.1689 79.0835 43.2885 78.9727 43.282C78.8416 43.2747 78.6879 43.0745 78.603 42.9929C78.366 42.7643 78.1289 42.5358 77.8919 42.3072C76.689 41.1466 75.4852 39.9852 74.2823 38.8247C74.2621 38.9038 74.2419 38.9838 74.2208 39.0629C76.5984 38.139 78.9751 37.2151 81.3526 36.2911C81.6916 36.1595 82.0306 36.0278 82.3695 35.8962C82.6162 35.7993 82.3978 35.5715 82.1915 35.6515Z" fill="#C7C9D9"/>
<path d="M71.5789 44.9095C71.5789 46.1953 71.5789 47.481 71.5789 48.7668C71.5789 48.9776 71.9753 48.9251 71.9753 48.7409C71.9753 47.4552 71.9753 46.1694 71.9753 44.8845C71.9753 44.6721 71.5789 44.7246 71.5789 44.9095Z" fill="#C7C9D9"/>
<path d="M71.5815 49.5914C71.5815 49.7941 71.5815 49.9968 71.5815 50.1995C71.5815 50.3627 71.9722 50.2811 71.9722 50.1511C71.9722 49.9484 71.9722 49.7456 71.9722 49.5429C71.973 49.3806 71.5815 49.4622 71.5815 49.5914Z" fill="#C7C9D9"/>
<path d="M71.5797 50.9005C71.5797 51.4287 71.5797 51.9568 71.5797 52.485C71.5797 52.6829 71.9744 52.6207 71.9744 52.4527C71.9744 51.9245 71.9744 51.3964 71.9744 50.8682C71.9744 50.6703 71.5797 50.7325 71.5797 50.9005Z" fill="#C7C9D9"/>
<path d="M75.9059 56.7752C77.0813 56.3964 78.2576 56.0169 79.433 55.6381C79.6676 55.5622 79.6021 55.2997 79.3626 55.3772C78.1872 55.756 77.011 56.1356 75.8355 56.5144C75.6017 56.5895 75.6673 56.8519 75.9059 56.7752Z" fill="#D1D1D1"/>
<path d="M75.8987 55.3789C77.0693 54.996 78.239 54.614 79.4096 54.2312C79.6377 54.1569 79.5892 53.9477 79.3546 54.0245C78.184 54.4073 77.0143 54.7893 75.8437 55.1721C75.6148 55.2472 75.6641 55.4556 75.8987 55.3789Z" fill="#D1D1D1"/>
<path d="M75.8956 54.0244C77.0605 53.6383 78.2254 53.2523 79.3903 52.867C79.616 52.7927 79.5739 52.6086 79.3417 52.6853C78.1768 53.0714 77.0119 53.4574 75.847 53.8427C75.6213 53.9178 75.6634 54.1019 75.8956 54.0244Z" fill="#D1D1D1"/>
<path d="M75.91 57.8318C76.1697 57.7486 76.4294 57.6662 76.6891 57.583C76.77 57.5571 76.8727 57.4861 76.846 57.3867C76.8209 57.293 76.6923 57.2696 76.6122 57.2955C76.3525 57.3787 76.0929 57.461 75.8332 57.5442C75.7523 57.5701 75.6496 57.6411 75.6762 57.7405C75.7013 57.8342 75.83 57.8576 75.91 57.8318Z" fill="#D1D1D1"/>
<path d="M77.2619 57.3397C77.524 57.2565 77.7861 57.1726 78.0474 57.0894C78.0983 57.0732 78.2399 57.0272 78.2189 56.9497C78.1987 56.8754 78.0458 56.8996 77.9997 56.9141C77.7375 56.9973 77.4754 57.0813 77.2141 57.1645C77.1632 57.1806 77.0216 57.2267 77.0426 57.3042C77.0629 57.3785 77.2158 57.3543 77.2619 57.3397Z" fill="#D1D1D1"/>
<path d="M78.6468 56.919C78.9114 56.835 79.1751 56.7502 79.4396 56.6662C79.5011 56.6468 79.6297 56.5935 79.6063 56.5071C79.5844 56.4247 79.4404 56.4336 79.3822 56.4522C79.1176 56.5362 78.8539 56.621 78.5894 56.705C78.5279 56.7244 78.3993 56.7777 78.4227 56.8641C78.4454 56.9465 78.5886 56.9376 78.6468 56.919Z" fill="#D1D1D1"/>
<path d="M53.1622 55.906C54.2025 54.6978 55.9199 53.9968 57.4828 53.9314C58.6696 53.8813 59.866 54.1591 60.912 54.7204C61.3149 54.9361 61.8585 55.3019 62.1214 55.5652C62.2509 55.6944 62.6197 55.5313 62.4782 55.39C61.649 54.5613 60.4558 54.0364 59.3273 53.7892C57.4254 53.3725 55.4354 53.7868 53.8466 54.9013C53.4841 55.1557 53.1225 55.4449 52.8321 55.7825C52.6711 55.9707 53.0416 56.0458 53.1622 55.906Z" fill="#C7C9D9"/>
<path d="M54.501 50.9634C54.5762 51.2945 54.3966 51.6321 54.0989 51.7161C53.8012 51.8001 53.4987 51.5998 53.4234 51.2687C53.3482 50.9375 53.5278 50.6 53.8255 50.516C54.1224 50.432 54.4249 50.6323 54.501 50.9634Z" fill="#C7C9D9"/>
<path d="M61.6578 51.9455C61.9647 51.9455 62.2135 51.6681 62.2135 51.326C62.2135 50.9839 61.9647 50.7065 61.6578 50.7065C61.3509 50.7065 61.1021 50.9839 61.1021 51.326C61.1021 51.6681 61.3509 51.9455 61.6578 51.9455Z" fill="#C7C9D9"/>
<path d="M65.21 36.7361C63.4198 36.951 61.4929 37.186 59.7884 36.443C58.3727 35.8259 57.1956 34.5289 57.2862 32.9079C57.3809 31.2232 58.6105 29.9051 60.099 29.2461C61.7396 28.52 63.6366 28.4409 65.3783 28.7995C66.2107 28.9707 67.2146 29.2162 67.9095 29.7331C68.4904 30.1652 68.7201 30.9365 68.1579 31.4784C67.7453 31.8758 67.1338 32.0551 66.595 32.2029C66.0319 32.3571 65.46 32.5009 64.8848 32.601C61.9507 33.1106 58.621 32.6269 56.3195 30.6134C55.1757 29.6128 54.3837 28.1421 54.3788 26.6035C54.374 25.0327 55.263 23.6015 56.4563 22.6324C58.8451 20.6924 62.1675 20.14 65.1607 20.1263C66.6403 20.1198 68.1183 20.249 69.5792 20.4808C70.3591 20.6044 71.1697 20.7223 71.8888 21.0648C72.6153 21.4104 73.3522 22.1316 73.1589 23.0112C72.9761 23.8422 72.0158 24.1063 71.3023 24.3131C70.3834 24.5804 69.428 24.7048 68.4734 24.746C66.6751 24.8243 64.8468 24.6902 63.0622 24.4689C61.3772 24.2606 59.6881 23.9496 58.0637 23.4497C56.885 23.0871 55.7128 22.609 54.7194 21.8667C53.7495 21.1423 53.0093 20.1651 52.6824 18.9924C52.3168 17.68 52.4179 16.2222 52.9122 14.9558C53.8918 12.4449 56.3592 10.895 58.7966 10.0179C62.1085 8.82665 65.7488 8.41072 69.2524 8.62716C71.0499 8.73862 72.8305 9.03744 74.5714 9.4978C75.4596 9.73201 76.3365 10.0106 77.1892 10.3523C77.9002 10.6374 78.6234 10.9612 78.9867 11.6816C79.6856 13.0675 78.3015 14.3808 77.1972 15.0035C75.9854 15.6867 74.5681 16.0897 73.2293 16.4451C71.4423 16.9192 69.593 17.0993 67.7518 17.197C65.9947 17.2899 64.2312 17.3521 62.4717 17.3238C59.083 17.2697 55.6068 16.8416 52.5409 15.3104C49.8778 13.981 47.2551 11.2714 47.9209 8.03275C48.2356 6.5047 49.3786 5.18018 50.5549 4.21667C51.7756 3.216 53.201 2.5069 54.6814 1.97467C57.7328 0.877091 61.018 0.495887 64.2385 0.3069C67.8351 0.0961071 71.4277 0.265711 74.9791 0.883552C76.7685 1.19449 78.5369 1.61285 80.2786 2.12731C80.3886 2.15962 80.7405 1.99244 80.5925 1.94802C76.7353 0.808442 72.7463 0.144565 68.7266 0.0242275C65.1364 -0.0831881 61.4451 0.163948 57.9245 0.892436C54.7275 1.55389 51.3832 2.73465 49.1384 5.2149C48.0366 6.43201 47.2891 7.91968 47.4671 9.59229C47.6386 11.2043 48.4928 12.671 49.6682 13.7637C52.2869 16.1988 56.1302 17.0888 59.591 17.3924C61.45 17.5556 63.3187 17.558 65.1825 17.499C67.1677 17.4369 69.1651 17.369 71.1308 17.0637C72.7787 16.8077 74.4023 16.3506 75.9644 15.7691C77.2231 15.3007 78.5579 14.6295 79.252 13.4221C79.6055 12.8075 79.6856 12.1162 79.3272 11.483C78.943 10.8037 78.2667 10.4823 77.5726 10.2004C75.8066 9.48326 73.9226 9.00756 72.0417 8.70954C68.2178 8.10301 64.2635 8.30976 60.5213 9.29993C57.7846 10.0244 54.8836 11.2488 53.2325 13.67C51.6874 15.9363 51.596 19.2395 53.548 21.299C54.467 22.2681 55.6942 22.8997 56.9352 23.3544C58.4811 23.9206 60.1168 24.2638 61.7404 24.5158C63.7094 24.8219 65.7278 24.9891 67.7211 24.9656C68.6465 24.9543 69.5736 24.8825 70.482 24.6983C71.2716 24.5384 72.1461 24.3268 72.8369 23.8931C73.3822 23.5515 73.6977 22.9619 73.5391 22.3134C73.3531 21.5534 72.6525 21.0551 71.9616 20.7797C71.2085 20.4792 70.3817 20.3645 69.5841 20.2442C68.7978 20.1255 68.0066 20.0383 67.213 19.9833C64.0476 19.7645 60.7001 20.0496 57.8331 21.5065C56.4385 22.2156 55.1635 23.222 54.4654 24.6515C53.7414 26.1351 53.8886 27.8303 54.7089 29.2429C56.3373 32.0478 59.9267 33.0848 62.9886 32.9838C64.0799 32.9475 70.1666 32.3297 68.6829 30.015C68.2347 29.3164 67.2494 29.041 66.4995 28.8197C65.6614 28.5733 64.7967 28.428 63.9238 28.3941C62.25 28.3303 60.4622 28.6686 59.0385 29.5869C57.7336 30.4285 56.7556 31.8717 56.9028 33.4765C57.0484 35.0692 58.3767 36.2386 59.8102 36.7539C61.5187 37.3677 63.3899 37.1424 65.1502 36.9316C65.333 36.9114 65.4818 36.703 65.21 36.7361Z" fill="#C7C9D9"/>
</g>
<defs>
<linearGradient id="paint0_linear_412_8701" x1="61.8556" y1="39.3114" x2="61.8556" y2="67.3256" gradientUnits="userSpaceOnUse">
<stop stop-color="#E4E5E7"/>
<stop offset="1" stop-color="#EAEAEA" stop-opacity="0"/>
</linearGradient>
<clipPath id="clip0_412_8701">
<rect width="123.145" height="44.1931" fill="white" transform="translate(0 27.8069)"/>
</clipPath>
<clipPath id="clip1_412_8701">
<rect width="50.6483" height="64.0552" fill="white" transform="translate(36.2483)"/>
</clipPath>
</defs>
</svg>
