<svg width="30" height="32" viewBox="0 0 30 32" fill="none" xmlns="http://www.w3.org/2000/svg">
<path d="M29.104 5.776C29.104 2.584 26.512 0 23.32 0L5.776 2.896C2.584 2.896 0 5.48 0 8.66399V26.224C0 29.416 2.584 32 5.776 32H23.328C26.512 32.008 29.104 29.424 29.112 26.24V19.36C29.112 19.064 29.08 18.768 29.08 18.464C29.08 18.16 29.08 17.848 29.112 17.544V5.776H29.104Z" fill="#FC912F"/>
<path d="M29.104 5.776C29.104 2.584 26.512 0 23.32 0L5.776 2.896C2.584 2.896 0 5.48 0 8.66399V26.224C0 29.416 2.584 32 5.776 32H23.328C26.512 32.008 29.104 29.424 29.112 26.24V19.36C29.112 19.064 29.08 18.768 29.08 18.464C29.08 18.16 29.08 17.848 29.112 17.544V5.776H29.104Z" fill="url(#paint0_linear)"/>
<g clip-path="url(#clip0)">
<path d="M22.227 13.8354L17.1649 8.77327C16.985 8.5934 16.7023 8.54201 16.4711 8.67049C14.8009 9.5827 13.2848 10.8418 12.1028 12.3193C11.2163 13.4114 10.5096 14.6191 9.99571 15.9167C9.81584 16.3536 9.67451 16.8032 9.54603 17.2401L7.65738 18.3707C7.50321 18.4606 7.40042 18.6277 7.37473 18.8075C7.34903 18.9874 7.41327 19.1673 7.54175 19.2958L8.41541 20.1694C7.82441 20.9403 6.87366 22.3793 6.87366 23.2144C6.87366 23.5484 7.01498 23.754 7.13062 23.8696C7.24625 23.9853 7.45182 24.1266 7.78586 24.1266C8.62098 24.1266 10.0728 23.1758 10.8308 22.5848L11.7045 23.4585C11.8201 23.5741 11.9615 23.6255 12.1156 23.6255C12.1413 23.6255 12.167 23.6255 12.1927 23.6255C12.3726 23.5998 12.5268 23.497 12.6295 23.3429L13.7602 21.4542C14.2098 21.3257 14.6467 21.1844 15.0835 21.0045C16.3812 20.4906 17.5889 19.784 18.6681 18.9103C20.1456 17.7283 21.4176 16.2122 22.3169 14.542C22.4582 14.2979 22.4197 14.0152 22.227 13.8354ZM12.0128 22.0838L8.91648 18.9874L9.95717 18.3579L12.6424 21.0431L12.0128 22.0838ZM17.9614 16.3793C17.5118 16.8289 16.9208 17.0731 16.2912 17.0731C15.6617 17.0731 15.0707 16.8289 14.621 16.3793C14.1713 15.9296 13.9272 15.3386 13.9272 14.709C13.9272 14.0795 14.1713 13.4885 14.621 13.0388C15.5332 12.1266 17.0364 12.1266 17.9486 13.0388C18.8737 13.9638 18.8737 15.4542 17.9614 16.3793Z" fill="white"/>
<path d="M23.4732 7.52699C23.1006 7.1544 22.5867 6.96168 22.0728 7.01307C20.6723 7.12871 19.3105 7.43706 18.0128 7.96382L23.0492 13.0002C23.5631 11.7026 23.8843 10.3407 24 8.94027C24.0385 8.4135 23.8458 7.89958 23.4732 7.52699Z" fill="white"/>
<path d="M15.5332 22.0965C15.1349 22.2636 14.7238 22.392 14.3255 22.5205C14.2355 23.0858 14.0685 23.6383 13.8116 24.1651C13.7088 24.3835 13.7473 24.6533 13.9272 24.8332C14.0428 24.9488 14.197 25.0002 14.3383 25.0002C14.4283 25.0002 14.5053 24.9873 14.5953 24.9488C15.379 24.5762 16.0856 24.0751 16.7152 23.4584C17.576 22.5976 18.2056 21.5698 18.5653 20.4648C17.6146 21.1201 16.5996 21.6726 15.5332 22.0965Z" fill="white"/>
<path d="M7.54169 14.2979C6.92499 14.9146 6.42392 15.634 6.05133 16.4178C5.94855 16.6362 5.99994 16.906 6.16696 17.0859C6.28259 17.2015 6.42392 17.2529 6.5781 17.2529C6.66803 17.2529 6.74512 17.24 6.83506 17.2015C7.36182 16.9445 7.91428 16.7775 8.4796 16.6876C8.60807 16.2764 8.73655 15.8782 8.90358 15.4799C9.32756 14.4135 9.88002 13.3985 10.5481 12.4478C9.43035 12.8075 8.41536 13.4242 7.54169 14.2979Z" fill="white"/>
</g>
<defs>
<linearGradient id="paint0_linear" x1="14.556" y1="0" x2="14.556" y2="32" gradientUnits="userSpaceOnUse">
<stop stop-color="white" stop-opacity="0.3"/>
<stop offset="1" stop-color="white" stop-opacity="0"/>
</linearGradient>
<clipPath id="clip0">
<rect width="18" height="18" fill="white" transform="translate(6 7)"/>
</clipPath>
</defs>
</svg>
