<svg width="30" height="32" viewBox="0 0 30 32" fill="none" xmlns="http://www.w3.org/2000/svg">
<path d="M29.104 5.776C29.104 2.584 26.512 0 23.32 0L5.776 2.896C2.584 2.896 0 5.48 0 8.66399V26.224C0 29.416 2.584 32 5.776 32H23.328C26.512 32.008 29.104 29.424 29.112 26.24V19.36C29.112 19.064 29.08 18.768 29.08 18.464C29.08 18.16 29.08 17.848 29.112 17.544V5.776H29.104Z" fill="#304471"/>
<path d="M29.104 5.776C29.104 2.584 26.512 0 23.32 0L5.776 2.896C2.584 2.896 0 5.48 0 8.66399V26.224C0 29.416 2.584 32 5.776 32H23.328C26.512 32.008 29.104 29.424 29.112 26.24V19.36C29.112 19.064 29.08 18.768 29.08 18.464C29.08 18.16 29.08 17.848 29.112 17.544V5.776H29.104Z" fill="url(#paint0_linear)"/>
<g clip-path="url(#clip0)">
<path d="M7.47619 26.0002C8.84375 26.0002 9.95238 24.8916 9.95238 23.524C9.95238 22.1565 8.84375 21.0479 7.47619 21.0479C6.10863 21.0479 5 22.1565 5 23.524C5 24.8916 6.10863 26.0002 7.47619 26.0002Z" fill="white"/>
<path d="M17.8571 21.0953H10.1429C10.7619 21.762 11.0952 22.6191 11.0952 23.5715C11.0952 24 11 24.4286 10.9048 24.8096H16.3809C16.5714 24.8096 16.7619 24.7143 16.8571 24.5715L18.619 22.0477L19.8571 20.2858L19.4762 18.8096L17.8571 21.0953Z" fill="white"/>
<path d="M21.0952 20.2381C21.4286 20.0952 21.8095 20 22.2381 19.9524L18.9048 7.19048H20.6667C21 7.19048 21.2381 6.90476 21.2381 6.61905C21.2381 6.33333 21 6 20.6667 6H18.1428C17.9524 6 17.8095 6.09524 17.6667 6.2381C17.5238 6.38095 17.5238 6.57143 17.5714 6.7619L21.0952 20.2381Z" fill="white"/>
<path d="M22.5715 26.0476C23.939 26.0476 25.0477 24.939 25.0477 23.5714C25.0477 22.2038 23.939 21.0952 22.5715 21.0952C21.2039 21.0952 20.0953 22.2038 20.0953 23.5714C20.0953 24.939 21.2039 26.0476 22.5715 26.0476Z" fill="white"/>
</g>
<defs>
<linearGradient id="paint0_linear" x1="14.556" y1="0" x2="14.556" y2="32" gradientUnits="userSpaceOnUse">
<stop stop-color="white" stop-opacity="0.3"/>
<stop offset="1" stop-color="white" stop-opacity="0"/>
</linearGradient>
<clipPath id="clip0">
<rect width="20" height="20" fill="white" transform="translate(5 6)"/>
</clipPath>
</defs>
</svg>
