<svg width="41" height="40" viewBox="0 0 41 40" fill="none" xmlns="http://www.w3.org/2000/svg">
<rect opacity="0.2" width="36.3641" height="36.3641" rx="6" fill="#95BF47"/>
<rect x="4.5459" y="3.63501" width="36.3641" height="36.3641" rx="6" fill="#95BF47"/>
<path d="M29.5448 15.728C29.5448 15.607 29.464 15.5667 29.3427 15.5667C29.2618 15.5667 27.8469 15.5264 27.8469 15.5264C27.8469 15.5264 26.9979 14.6796 26.6745 14.357V31.8169L31.7279 30.5265C31.7279 30.5265 29.5448 15.8086 29.5448 15.728ZM25.5021 14.357C25.4616 14.1554 25.2999 13.8328 25.2191 13.6312C24.8148 12.8247 24.1679 12.3812 23.4402 12.3812C23.3998 12.3812 23.3998 12.3812 23.3998 12.3812C23.3594 12.3812 23.2785 12.4215 23.2785 12.4215C23.2381 12.3812 23.1977 12.3812 23.1977 12.3409C22.8743 11.9779 22.47 11.8167 21.9444 11.8167C20.9742 11.857 20.0039 12.5425 19.2358 13.7925C18.6698 14.6796 18.2655 15.7683 18.1442 16.6151C17.0123 16.978 16.2441 17.2199 16.2441 17.2199C15.6781 17.4216 15.6377 17.4216 15.5973 17.9458C15.5569 18.349 14.061 29.7201 14.061 29.7201L26.2702 31.8169V14.1554C26.2298 14.1554 26.1489 14.1554 26.1085 14.1957C26.068 14.1957 25.8659 14.236 25.5021 14.357ZM23.2785 15.0425C22.6317 15.2441 21.904 15.486 21.2167 15.6877C21.4189 14.9215 21.7827 14.1554 22.2678 13.6715C22.4296 13.4699 22.6721 13.2683 22.9551 13.1473C23.2381 13.7118 23.2785 14.5183 23.2785 15.0425ZM21.9444 12.5021H21.9849C22.1466 12.5021 22.3891 12.5828 22.5508 12.6231C22.2678 12.7844 22.0253 12.986 21.7827 13.228C21.1359 13.8731 20.6912 14.9215 20.489 15.8893C19.923 16.0909 19.3166 16.2522 18.7911 16.4135C19.1549 14.8812 20.4486 12.5425 21.9444 12.5021ZM20.0848 21.3732C20.1252 22.4216 22.8743 22.6232 23.036 25.0829C23.1573 26.9781 22.0253 28.3088 20.3677 28.3894C18.3868 28.5104 17.3357 27.3813 17.3357 27.3813L17.7399 25.6071C17.7399 25.6071 18.8315 26.4136 19.6805 26.3329C20.2465 26.3329 20.489 25.8491 20.4486 25.5265C20.3677 24.1555 18.1442 24.2362 17.9825 22.0184C17.8612 20.1635 19.1145 18.2683 21.8231 18.0667C22.8743 18.0264 23.3998 18.2683 23.3998 18.2683L22.7934 20.6071C22.7934 20.6071 22.1061 20.2845 21.2572 20.3248C20.0848 20.4055 20.0443 21.1716 20.0848 21.3732ZM23.9254 14.8409C23.9254 14.357 23.8445 13.6715 23.6424 13.107C24.3701 13.228 24.7339 14.0747 24.8956 14.5586C24.6126 14.6393 24.2892 14.7602 23.9254 14.8409Z" fill="white"/>
</svg>
