<svg width="50" height="49" viewBox="0 0 50 49" fill="none" xmlns="http://www.w3.org/2000/svg">
<path opacity="0.08" d="M11.3153 10.1785L26.6847 1.35096C32.934 -2.23859 38 1.5714 38 9.86105C38 18.1507 32.934 27.7797 26.6847 31.3678L20.6515 34.8326L11.9466 46.4206C11.1578 47.4702 10.2268 47.0112 10.4972 45.7066L11.6832 39.9847L11.3153 40.1954C5.06602 43.785 0 39.975 0 31.6853C0 23.3971 5.06602 13.7681 11.3153 10.1785Z" fill="black"/>
<path d="M46.1017 8.35428L39.9247 4.79326C37.9451 3.61638 35.3495 3.70755 32.5047 5.34578L17.2395 14.1406C11.0321 17.7168 6 27.31 6 35.5675C6 40.1921 7.57815 43.4175 10.0575 44.7325L16.1085 48.2259C18.0839 49.382 20.6671 49.2839 23.4953 47.6554L29.4882 44.2021L38.1348 45.7837C38.9183 45.9274 39.8431 44.4038 39.5745 43.4134L38.3964 39.0691L38.7619 38.8592C44.9679 35.283 50 25.6897 50 17.4309C50 12.9057 48.4883 9.7204 46.1017 8.35428Z" fill="#268CDD"/>
<path d="M38.6847 9.33343L23.3153 18.0451C17.066 21.5874 12 31.0899 12 39.2693C12 47.4487 17.066 51.2086 23.3153 47.6676L29.3485 44.247L38.0534 45.8136C38.8422 45.9559 39.7732 44.4481 39.5028 43.4657L38.3168 39.1626L38.6847 38.9546C44.934 35.4136 50 25.9111 50 17.7304C50 9.54961 44.934 5.79104 38.6847 9.33343Z" fill="#38A7FF"/>
<path d="M24.024 31.8457L23.0908 31.3365C22.5536 30.9025 21.7928 30.8705 20.9507 31.3449C19.3208 32.2644 18 34.7282 18 36.8497C18 37.9863 18.379 38.7917 18.9803 39.1562L19.9847 39.721C20.5176 40.0994 21.2457 40.1078 22.0493 39.6543C23.6792 38.7361 25 36.271 25 34.1495C25 33.0171 24.6239 32.2116 24.024 31.8457Z" fill="#D1D1D1"/>
<path d="M25 33.4114C25 35.4378 23.6572 37.7925 22 38.6695C20.3428 39.5478 19 38.615 19 36.5886C19 34.5622 20.3428 32.2075 22 31.3305C23.6572 30.4522 25 31.385 25 33.4114Z" fill="white"/>
<path d="M35.024 24.846L34.0908 24.337C33.5522 23.9031 32.7928 23.8697 31.9507 24.3453C30.3208 25.2647 29 27.7278 29 29.8503C29 30.9852 29.379 31.7919 29.9803 32.1563L30.9847 32.7209C31.5162 33.0993 32.2457 33.1076 33.0493 32.6556C34.6792 31.7362 36 29.2731 36 27.1507C36 26.0171 35.6224 25.2118 35.024 24.846Z" fill="#D1D1D1"/>
<path d="M36 27.41C36 29.4367 34.6572 31.7916 33 32.67C31.3428 33.5471 30 32.6155 30 30.5889C30 28.5622 31.3428 26.2073 33 25.3302C34.6572 24.4531 36 25.3834 36 27.41Z" fill="white"/>
<path d="M46.024 18.8457L45.0908 18.3365C44.5536 17.9025 43.7928 17.8705 42.9507 18.3449C41.3208 19.2631 40 21.7282 40 23.8497C40 24.9849 40.379 25.7917 40.9803 26.1562L41.9847 26.721C42.5162 27.0994 43.2442 27.1078 44.0493 26.6543C45.6792 25.7347 47 23.271 47 21.1495C47 20.0157 46.6224 19.2102 46.024 18.8457Z" fill="#D1D1D1"/>
<path d="M47 21.4114C47 23.4378 45.6572 25.7925 44 26.6695C42.3428 27.5478 41 26.615 41 24.5886C41 22.5622 42.3428 20.2075 44 19.3292C45.6572 18.4535 47 19.385 47 21.4114Z" fill="white"/>
</svg>
