<svg width="74" height="74" viewBox="0 0 74 74" fill="none" xmlns="http://www.w3.org/2000/svg">
<g clip-path="url(#clip0_7680_39083)">
<path d="M37.0001 74.0002C57.4347 74.0002 74.0002 57.4347 74.0002 37.0001C74.0002 16.5655 57.4347 0 37.0001 0C16.5655 0 0 16.5655 0 37.0001C0 57.4347 16.5655 74.0002 37.0001 74.0002Z" fill="#F2545D"/>
<path d="M74.0001 36.9999C74.0001 57.35 57.3501 74 37 74C25.2063 74 14.8001 68.6812 8.09375 60.125C14.3375 65.2125 22.4313 68.2188 31.2187 68.2188C51.5688 68.2188 68.2188 51.5688 68.2188 31.2187C68.2188 22.4313 65.2125 14.3375 60.125 8.09375C68.6814 14.7998 74.0001 25.206 74.0001 36.9999Z" fill="#CC474E"/>
<path d="M53.8811 53.8811C52.4937 55.2686 50.1811 55.2686 48.7936 53.8811L36.9999 42.0874L25.2062 53.8811C23.8188 55.2686 21.5062 55.2686 20.1187 53.8811C18.7313 52.4937 18.7313 50.1811 20.1187 48.7936L31.9124 36.9999L20.1187 25.2062C18.7313 23.8188 18.7313 21.5062 20.1187 20.1187C21.5062 18.7313 23.8188 18.7313 25.2062 20.1187L36.9999 31.9124L48.7936 20.1187C50.1811 18.7313 52.4937 18.7313 53.8811 20.1187C55.2686 21.5062 55.2686 23.8188 53.8811 25.2062L42.0874 36.9999L53.8811 48.7936C55.2686 50.1811 55.2686 52.4935 53.8811 53.8811Z" fill="white"/>
</g>
<defs>
<clipPath id="clip0_7680_39083">
<rect width="74" height="74" fill="white"/>
</clipPath>
</defs>
</svg>
