<svg width="60" height="60" viewBox="0 0 60 60" fill="none" xmlns="http://www.w3.org/2000/svg">
<path d="M0.959405 58.3572C1.93124 59.329 3.40655 59.5909 4.65334 59.0126L38.4911 44.4442C40.1473 43.6762 40.5344 41.4947 39.2436 40.2037L19.186 20.1462C17.8951 18.8552 15.7135 19.2423 14.9455 20.8986L0.304018 54.6633C-0.274152 55.9101 -0.0124299 57.3854 0.959405 58.3572Z" fill="#FFE266"/>
<path d="M29.1471 41.2528L4.27315 51.9618C3.39404 52.3695 2.36147 52.2078 1.64811 51.5637L0.304018 54.6633C-0.274152 55.9102 -0.0124299 57.3854 0.959405 58.3572C1.93124 59.329 3.40655 59.5907 4.65334 59.0126L38.1666 44.584C37.3946 44.2745 29.2726 41.1946 29.1471 41.2528Z" fill="#EFAA66"/>
<path d="M39.4781 43.076C41.7903 40.7638 38.4286 33.6533 31.9696 27.1943C25.5106 20.7353 18.4001 17.3736 16.0879 19.6858C13.7758 21.9979 17.1374 29.1084 23.5965 35.5674C30.0555 42.0265 37.166 45.3882 39.4781 43.076Z" fill="#FFE266"/>
<path d="M33.6184 40.0964C35.1351 38.5796 32.6784 33.6637 28.1311 29.1164C23.5837 24.5691 18.6678 22.1123 17.1511 23.6291C15.6344 25.1458 18.0911 30.0617 22.6384 34.609C27.1858 39.1563 32.1017 41.6131 33.6184 40.0964Z" fill="#EFAA66"/>
<path d="M37.3969 45.0111C33.711 45.0111 28.0028 41.6702 22.7515 36.4189C17.9832 31.6504 14.7156 26.3989 14.2245 22.7137C14.1369 22.0552 14.5993 21.4504 15.2578 21.3627C15.9157 21.2752 16.5212 21.7375 16.6089 22.396C17.0273 25.5349 20.1062 30.3716 24.4526 34.7179C30.0062 40.2715 35.1272 42.6929 37.5339 42.6029C38.1969 42.5787 38.757 43.0933 38.7835 43.7571C38.8098 44.4208 38.2931 44.9803 37.6293 45.0066C37.5529 45.0095 37.475 45.0111 37.3969 45.0111Z" fill="#D0844B"/>
<path d="M24.5375 26.443C24.2552 26.1607 24.0374 25.806 23.9164 25.3961L22.8042 21.6315C22.384 20.2098 22.7632 18.6866 23.7933 17.6565L25.8152 15.6346C26.8455 14.6043 28.3686 14.2253 29.7903 14.6455L33.84 15.7884L32.4742 10.9154C32.0871 9.60551 32.8354 8.2299 34.1453 7.84285C35.4552 7.4558 36.8308 8.20404 37.218 9.51398L38.3302 13.2786C38.7502 14.7004 38.3712 16.2236 37.341 17.2537L35.3192 19.2755C34.289 20.3057 32.7658 20.6847 31.3442 20.2647L27.2531 18.9306L28.6602 23.9947C29.0472 25.3046 28.299 26.6802 26.9891 27.0673C26.0888 27.3332 25.1575 27.0631 24.5375 26.443Z" fill="#CAB4EF"/>
<path d="M33.8401 15.7884L29.7904 14.6454C28.5684 14.2843 27.2718 14.514 26.2773 15.2397C26.5558 16.3531 26.91 17.8341 27.253 18.9303L31.3441 20.2644C32.6241 20.6426 33.986 20.3728 34.9967 19.5636C34.6387 18.4431 34.1807 16.9141 33.8401 15.7884Z" fill="#A183E2"/>
<path d="M40.2004 24.6826C40.4827 24.9649 40.8375 25.1827 41.2473 25.3037L45.0119 26.4159C46.4335 26.8359 47.9568 26.457 48.987 25.4268L51.0088 23.4049C52.0391 22.3746 52.4181 20.8515 51.998 19.4298L50.855 15.3801L55.728 16.7458C57.0379 17.1329 58.4136 16.3846 58.8007 15.0747C59.1877 13.7648 58.4395 12.3892 57.1296 12.0021L53.3649 10.8899C51.9431 10.4699 50.4199 10.849 49.3899 11.8791L47.368 13.9009C46.3379 14.9311 45.9589 16.4543 46.3789 17.8759L47.7129 21.967L42.6487 20.5599C41.3388 20.1729 39.9632 20.9211 39.5762 22.231C39.3101 23.1313 39.5804 24.0626 40.2004 24.6826Z" fill="#F7C4DB"/>
<path d="M51.9979 19.4297L50.8549 15.38C49.6767 15.1261 48.0284 14.8012 46.8524 14.5375C46.2228 15.5063 46.0385 16.7243 46.3788 17.876L47.7128 21.9671C48.9325 22.2683 50.2232 22.476 51.3942 22.9555C52.1273 21.9594 52.3605 20.6569 51.9979 19.4297Z" fill="#EF8BBD"/>
<path d="M45.9584 4.34487C45.1742 5.12908 43.9026 5.12908 43.1184 4.34487C42.3342 3.56067 42.3342 2.2891 43.1184 1.5049C43.9026 0.720697 45.1742 0.720697 45.9584 1.5049C46.7426 2.28922 46.7426 3.56067 45.9584 4.34487Z" fill="#FFA585"/>
<path d="M48.9886 37.7071C50.0977 37.7071 50.9967 36.808 50.9967 35.6989C50.9967 34.5899 50.0977 33.6908 48.9886 33.6908C47.8795 33.6908 46.9805 34.5899 46.9805 35.6989C46.9805 36.808 47.8795 37.7071 48.9886 37.7071Z" fill="#78EAC4"/>
<path d="M38.0028 37.4835C37.2186 38.2677 35.9471 38.2677 35.1629 37.4835C34.3787 36.6993 34.3787 35.4278 35.1629 34.6436C35.9471 33.8594 37.2186 33.8594 38.0028 34.6436C38.787 35.4279 38.787 36.6993 38.0028 37.4835Z" fill="#78EAC4"/>
<path d="M38.0028 37.4835C37.2186 38.2677 35.9471 38.2677 35.1629 37.4835C34.3787 36.6993 34.3787 35.4278 35.1629 34.6436C35.9471 33.8594 37.2186 33.8594 38.0028 34.6436C38.787 35.4279 38.787 36.6993 38.0028 37.4835Z" fill="#8BB6EF"/>
<path d="M10.9339 43.3709C10.7752 43.3709 10.6138 43.3392 10.4589 43.2725C9.84874 43.0098 9.56705 42.3023 9.82986 41.6922L11.353 38.1544C11.6157 37.5443 12.3234 37.2621 12.9334 37.5253C13.5435 37.788 13.8252 38.4955 13.5624 39.1056L12.0392 42.6434C11.8433 43.0984 11.3998 43.3709 10.9339 43.3709Z" fill="white"/>
<path d="M14.1614 35.8742C14.0028 35.8742 13.8415 35.8426 13.6863 35.7758C13.0763 35.5132 12.7946 34.8057 13.0574 34.1954L13.5217 33.117C13.7843 32.5071 14.4916 32.2249 15.1021 32.4881C15.7121 32.7508 15.9938 33.4582 15.7311 34.0685L15.2669 35.1469C15.0708 35.6018 14.6272 35.8742 14.1614 35.8742Z" fill="white"/>
<path d="M23.6006 0.977909L24.5886 3.75606C24.6309 3.87501 24.7146 3.96931 24.8204 4.01694L27.2886 5.12902C27.6372 5.2861 27.6372 5.84166 27.2886 5.99886L24.8204 7.11093C24.7146 7.15856 24.6309 7.25286 24.5886 7.37169L23.6006 10.1498C23.4611 10.5423 22.9674 10.5423 22.8279 10.1498L21.8399 7.37169C21.7976 7.25274 21.7138 7.15844 21.6081 7.11093L19.1399 5.99886C18.7912 5.84178 18.7912 5.28622 19.1399 5.12902L21.6081 4.01694C21.7138 3.96931 21.7976 3.87501 21.8399 3.75606L22.8279 0.977909C22.9674 0.585326 23.4611 0.585326 23.6006 0.977909Z" fill="#F7C4DB"/>
<path d="M57.0707 25.9529L57.8036 28.0136C57.835 28.1019 57.897 28.1718 57.9754 28.2071L59.8063 29.032C60.065 29.1486 60.065 29.5606 59.8063 29.6772L57.9754 30.502C57.897 30.5374 57.835 30.6073 57.8036 30.6955L57.0707 32.7562C56.9672 33.0474 56.601 33.0474 56.4975 32.7562L55.7646 30.6955C55.7332 30.6073 55.6712 30.5374 55.5928 30.502L53.7619 29.6772C53.5032 29.5606 53.5032 29.1486 53.7619 29.032L55.5928 28.2071C55.6712 28.1718 55.7332 28.1019 55.7646 28.0136L56.4975 25.9529C56.601 25.6619 56.9672 25.6619 57.0707 25.9529Z" fill="#CAB4EF"/>
<path d="M43.4438 10.4344C43.9577 10.4344 44.3743 10.0178 44.3743 9.50382C44.3743 8.98988 43.9577 8.57324 43.4438 8.57324C42.9298 8.57324 42.5132 8.98988 42.5132 9.50382C42.5132 10.0178 42.9298 10.4344 43.4438 10.4344Z" fill="#78EAC4"/>
<path d="M57.5335 3.74453C57.6492 2.80246 56.9793 1.94493 56.0371 1.82918C55.095 1.71343 54.2374 2.38329 54.1217 3.32536C54.0059 4.26743 54.6759 5.12496 55.618 5.24071C56.5601 5.35646 57.4177 4.6866 57.5335 3.74453Z" fill="#8BB6EF"/>
</svg>
