<svg width="50" height="50" viewBox="0 0 50 50" fill="none" xmlns="http://www.w3.org/2000/svg">
<path d="M25 50C38.8071 50 50 38.8071 50 25C50 11.1929 38.8071 0 25 0C11.1929 0 0 11.1929 0 25C0 38.8071 11.1929 50 25 50Z" fill="#BFE1FF"/>
<path d="M8.5144 32.1266L19.8476 12.4756L29.6664 18.1519L18.3348 37.8013L8.5144 32.1266Z" fill="#FCBA28"/>
<path d="M41.0967 32.0566L29.7571 12.3992C28.2938 9.62824 24.8636 8.56854 22.0939 10.0348C19.3258 11.4995 18.2687 14.9332 19.732 17.7057C19.7959 17.8274 19.8647 17.9458 19.9366 18.0627L31.2763 37.7201C32.805 40.4558 36.2608 41.4323 38.9938 39.9004C41.7267 38.37 42.7022 34.9108 41.1718 32.1751C41.1462 32.1302 41.1222 32.087 41.0967 32.0438V32.0566Z" fill="#4D7CBF"/>
<path d="M13.4831 29.2419C16.6142 29.2419 19.1537 31.7824 19.1537 34.9183C19.1537 38.0526 16.6158 40.5946 13.4831 40.5946C10.3504 40.5946 7.8125 38.051 7.8125 34.9167C7.8125 31.7824 10.3504 29.2419 13.4831 29.2419Z" fill="#31B060"/>
</svg>
