<svg width="20" height="20" viewBox="0 0 20 20" fill="none" xmlns="http://www.w3.org/2000/svg">
<g filter="url(#filter0_bii)">
<rect width="20" height="20" rx="4" fill="#FFA234" fill-opacity="0.7"/>
</g>
<path d="M14.875 15H5.125C4.91406 15 4.75 15.1875 4.75 15.375V16.125C4.75 16.3359 4.91406 16.5 5.125 16.5H14.875C15.0625 16.5 15.25 16.3359 15.25 16.125V15.375C15.25 15.1875 15.0625 15 14.875 15ZM16.375 7.5C15.7422 7.5 15.25 8.01562 15.25 8.625C15.25 8.8125 15.2734 8.95312 15.3438 9.09375L13.6562 10.125C13.2812 10.3359 12.8125 10.2188 12.6016 9.84375L10.7031 6.49219C10.9609 6.30469 11.125 5.97656 11.125 5.625C11.125 5.01562 10.6094 4.5 10 4.5C9.36719 4.5 8.875 5.01562 8.875 5.625C8.875 5.97656 9.03906 6.30469 9.27344 6.49219L7.375 9.84375C7.16406 10.2188 6.69531 10.3359 6.34375 10.125L4.63281 9.09375C4.70312 8.95312 4.75 8.8125 4.75 8.625C4.75 8.01562 4.23438 7.5 3.625 7.5C2.99219 7.5 2.5 8.01562 2.5 8.625C2.5 9.25781 2.99219 9.75 3.625 9.75C3.67188 9.75 3.74219 9.75 3.78906 9.75L5.5 14.25H14.5L16.1875 9.75C16.2344 9.75 16.3047 9.75 16.375 9.75C16.9844 9.75 17.5 9.25781 17.5 8.625C17.5 8.01562 16.9844 7.5 16.375 7.5Z" fill="#FFF8F4"/>
<defs>
<filter id="filter0_bii" x="-10.8667" y="-10.8667" width="41.7333" height="41.7333" filterUnits="userSpaceOnUse" color-interpolation-filters="sRGB">
<feFlood flood-opacity="0" result="BackgroundImageFix"/>
<feGaussianBlur in="BackgroundImage" stdDeviation="5.43333"/>
<feComposite in2="SourceAlpha" operator="in" result="effect1_backgroundBlur"/>
<feBlend mode="normal" in="SourceGraphic" in2="effect1_backgroundBlur" result="shape"/>
<feColorMatrix in="SourceAlpha" type="matrix" values="0 0 0 0 0 0 0 0 0 0 0 0 0 0 0 0 0 0 127 0" result="hardAlpha"/>
<feOffset dx="-5.43333" dy="5.43333"/>
<feGaussianBlur stdDeviation="2.71667"/>
<feComposite in2="hardAlpha" operator="arithmetic" k2="-1" k3="1"/>
<feColorMatrix type="matrix" values="0 0 0 0 0.968023 0 0 0 0 0.420254 0 0 0 0 0.110125 0 0 0 0.31 0"/>
<feBlend mode="normal" in2="shape" result="effect2_innerShadow"/>
<feColorMatrix in="SourceAlpha" type="matrix" values="0 0 0 0 0 0 0 0 0 0 0 0 0 0 0 0 0 0 127 0" result="hardAlpha"/>
<feOffset dx="5.43333" dy="-5.43333"/>
<feGaussianBlur stdDeviation="2.71667"/>
<feComposite in2="hardAlpha" operator="arithmetic" k2="-1" k3="1"/>
<feColorMatrix type="matrix" values="0 0 0 0 1 0 0 0 0 0.537087 0 0 0 0 0.275 0 0 0 1 0"/>
<feBlend mode="normal" in2="effect2_innerShadow" result="effect3_innerShadow"/>
</filter>
</defs>
</svg>
