<svg width="50" height="50" viewBox="0 0 50 50" fill="none" xmlns="http://www.w3.org/2000/svg">
<g clip-path="url(#clip0_4639_21457)">
<path d="M50.0013 25C50.0013 38.8066 38.8079 50 25 50H24.9532C11.1675 49.9741 1.52588e-05 38.7881 1.52588e-05 25C1.52588e-05 11.2119 11.1675 0.0246415 24.9532 0H25C38.8079 0 50.0013 11.1897 50.0013 25Z" fill="black"/>
<path d="M24.9532 0V50C11.1675 49.9741 1.52588e-05 38.7881 1.52588e-05 25C1.52588e-05 11.2119 11.1675 0.0246415 24.9532 0Z" fill="#0C0C0C"/>
<path d="M38.6038 18.0797L38.573 23.2015C37.5749 23.1892 36.582 23.056 35.616 22.8047C34.1257 22.4154 32.7202 21.7542 31.4701 20.8544C31.4701 21.378 31.4774 22.1591 31.4774 23.109C31.4774 24.3732 31.4774 25.0914 31.4701 25.8541C31.4479 30.5655 31.5649 31.4773 31.1509 33.3402C31.0648 33.7894 30.9471 34.232 30.7986 34.6647C30.0027 36.8824 28.2679 38.659 26.4999 39.604C26.0065 39.8663 25.4886 40.0797 24.9536 40.241C21.6122 41.2538 17.5969 40.3642 15.5246 37.9001L15.511 37.8853L15.495 37.8643C13.7344 35.7403 13.35 32.4284 13.313 31.5808C13.313 31.4724 13.3056 31.3664 13.3056 31.3664C13.2785 30.2085 13.445 29.0541 13.7984 27.9511C14.1557 26.8102 15.3324 24.4286 17.9752 22.9821C19.6234 22.0943 21.5046 21.7343 23.3642 21.9509L23.3039 27.1342C23.1991 27.1071 20.6672 26.5071 19.0052 28.232C17.4996 29.7943 17.5969 32.3114 18.6651 33.7369C18.7218 33.8133 18.7822 33.8872 18.845 33.9562C19.4426 34.6228 20.2003 34.8729 20.7116 35.0478C21.3896 35.2712 22.1012 35.3754 22.8147 35.3558C23.5792 35.3439 24.3228 35.105 24.9512 34.6696C26.6884 33.4893 26.9225 31.3873 26.9311 31.2678C26.9097 24.5013 26.8896 17.7347 26.8707 10.9682V10.962L30.1271 10.9041H30.1801L30.652 10.8955C30.9999 12.1477 31.5897 13.3197 32.3879 14.3453C32.6395 14.6661 32.9111 14.9706 33.2011 15.257C34.297 16.3236 35.6133 17.137 37.0575 17.6399H37.0674C37.5683 17.823 38.0818 17.9699 38.6038 18.0797Z" fill="#FD2854"/>
<path d="M37.1313 20.3972H37.1214C35.3677 20.6781 33.5725 20.5418 31.8814 19.9992C30.7005 19.6153 29.592 19.0369 28.6016 18.2879C29.1955 21.8775 29.1955 25.5404 28.6016 29.1301C27.8981 33.3487 27.457 35.9928 25.1026 37.6844C25.0533 37.7201 25.0028 37.7558 24.9522 37.7891C21.7008 39.9908 17.1582 38.898 15.4936 37.8618L15.469 37.847L15.4222 37.8174C14.8735 37.454 14.3589 37.0416 13.8845 36.5854C13.0343 35.7606 12.3558 34.7755 11.8882 33.6871C11.4207 32.5987 11.1733 31.4284 11.1604 30.2439C11.1288 29.017 11.3325 27.7953 11.7605 26.645C12.0377 25.9058 13.0677 23.2765 15.9372 21.6761C17.7746 20.6686 19.8978 20.3092 21.9645 20.6559C21.9563 21.0666 21.9485 21.4773 21.9411 21.888V21.8966L21.893 24.4963C20.9937 24.2843 20.064 24.2326 19.1467 24.3435C18.4075 24.4347 17.683 24.5197 16.913 25.0039C15.9268 25.6387 15.2288 26.6348 14.9688 27.7785C14.8042 28.3324 14.7705 28.917 14.8702 29.4862C14.8998 29.6488 15.1166 30.7786 16.0284 31.5893C16.3351 31.8616 16.4657 31.8727 16.913 32.2904C17.3072 32.66 17.4058 32.8374 17.7668 33.1442C17.7668 33.1442 17.8555 33.2194 18.0009 33.3253C18.0102 33.3334 18.0201 33.3408 18.0305 33.3475C18.2293 33.4929 18.438 33.6242 18.6551 33.7405C19.5582 34.2136 21.1747 34.2641 22.36 33.6888C23.9999 32.8916 24.8943 31.0583 24.8906 29.9691C24.8709 23.2001 24.8508 16.4315 24.8303 9.66336H24.9436L29.9729 9.63379C29.9693 10.0261 30.0237 10.4168 30.1343 10.7932C30.1467 10.8338 30.159 10.872 30.1725 10.9164C30.1861 10.9607 30.1947 10.9817 30.2058 11.0125C30.2838 11.2172 30.3739 11.4172 30.4756 11.6113L30.5459 11.753V11.764C30.5447 11.7672 30.5447 11.7707 30.5459 11.7739L30.5569 11.7973L30.568 11.8195C30.5747 11.8338 30.5821 11.8478 30.5902 11.8614C30.5976 11.8774 30.6062 11.8934 30.6148 11.9094C30.6617 11.9994 30.7257 12.1176 30.7984 12.2507C30.844 12.3333 30.8921 12.4158 30.9413 12.4971L30.9943 12.5846C31.0202 12.629 31.0473 12.6733 31.0744 12.7164L31.173 12.8729C31.5561 13.4779 32.2289 14.4968 33.1825 15.2668C34.523 16.3486 36.0631 16.6541 37.029 16.7453C37.0352 17.0484 37.0426 17.3515 37.0487 17.6546C37.0849 18.5696 37.1124 19.4838 37.1313 20.3972Z" fill="#24F6FA"/>
<path d="M37.1466 21.8445C34.6079 21.9377 32.1153 21.1483 30.093 19.6108V30.453C30.0683 30.8683 29.7049 35.4479 25.5676 37.9687C25.363 38.0919 25.1573 38.2065 24.9515 38.3124C21.0594 40.2985 17.256 38.7424 16.8802 38.581C16.5066 38.4589 16.1485 38.2935 15.8132 38.0882C15.7085 38.0229 15.6063 37.9551 15.5089 37.8849L15.4214 37.8196C12.8834 35.8926 12.7786 31.9673 12.7626 31.3882C12.7355 30.2302 12.9021 29.0759 13.2555 27.9729C13.6744 26.6361 14.9249 24.3826 17.4322 23.0039C18.8157 22.251 20.3704 21.869 21.9453 21.8951V21.9037C21.9247 23.2056 21.9042 24.5079 21.8837 25.8106C21.6188 25.7391 19.9949 25.3301 18.408 26.3293C17.4218 26.9641 16.7238 27.9603 16.4638 29.1039C16.3082 29.659 16.2746 30.2411 16.3652 30.8103C16.5059 31.5132 16.8376 32.1638 17.3238 32.6905C17.5282 32.9259 17.7565 33.1394 18.0051 33.3275C18.0144 33.3355 18.0243 33.3429 18.0347 33.3496C18.2299 33.5003 18.4391 33.6319 18.6593 33.7427L18.6667 33.7488C19.107 34.4137 19.7421 34.9261 20.485 35.2159C21.2278 35.5058 22.0422 35.5588 22.8163 35.3678C23.1771 35.2925 23.5274 35.1742 23.8599 35.0154C24.2626 34.8239 24.6317 34.5684 24.9528 34.2589C26.1996 33.0601 26.382 31.4017 26.3906 31.3019L26.3364 10.9863L26.8785 10.9752L30.1349 10.9111H30.1817C30.194 10.9432 30.2076 10.9752 30.2211 11.0072C30.2963 11.1883 30.3862 11.3892 30.4909 11.606L30.5612 11.7477V11.7588C30.56 11.762 30.56 11.7655 30.5612 11.7687L30.5723 11.7921L30.5833 11.8142C30.59 11.8286 30.5974 11.8426 30.6055 11.8561C30.6129 11.8722 30.6215 11.8882 30.6302 11.9042C30.6868 12.0151 30.7534 12.1297 30.8137 12.2455C30.8593 12.328 30.9074 12.4106 30.9567 12.4919L31.0096 12.5794L31.0897 12.7112L31.1883 12.8677C31.7519 13.7491 32.4273 14.5538 33.1978 15.2616C34.3222 16.291 35.6305 17.0994 37.0542 17.6444H37.064C37.0801 18.5574 37.0961 19.4728 37.1109 20.3858L37.1466 21.8445Z" fill="white"/>
</g>
<defs>
<clipPath id="clip0_4639_21457">
<rect width="50" height="50" fill="white"/>
</clipPath>
</defs>
</svg>
