<svg width="418" height="402" viewBox="0 0 418 402" fill="none" xmlns="http://www.w3.org/2000/svg">
<path d="M268.875 369.287L287.456 380.031V391.392L270.652 401.11L252.071 390.366V379.005L268.875 369.287Z" fill="white"/>
<g opacity="0.5">
<path opacity="0.5" d="M270.652 401.11L252.071 390.366V379.005L270.652 389.75V401.11Z" fill="#E6EEFF"/>
</g>
<path d="M287.456 391.392L270.651 401.11V389.75L287.456 380.031V391.392Z" fill="#CCDCFF"/>
<path d="M270.652 402C270.515 402 270.378 401.931 270.242 401.863L251.661 391.118C251.388 390.981 251.251 390.708 251.251 390.365V378.936C251.251 378.663 251.388 378.32 251.661 378.184L268.466 368.465C268.739 368.329 269.08 368.329 269.285 368.465L287.866 379.21C288.139 379.347 288.276 379.621 288.276 379.963V391.392C288.276 391.666 288.139 392.008 287.866 392.145L271.061 401.863C270.993 401.931 270.856 402 270.652 402ZM252.959 389.886L270.72 400.152L286.636 390.913V380.51L268.875 370.245L252.959 379.484V389.886Z" fill="#4978E0"/>
<path d="M345.658 138.174C348.595 135.231 353.309 135.231 356.246 138.174C359.183 141.117 359.183 145.839 356.246 148.782C353.309 151.725 348.595 151.725 345.658 148.782C342.72 145.908 342.72 141.117 345.658 138.174Z" fill="white"/>
<path d="M353.787 146.318C356.314 143.786 356.656 139.954 354.88 137.079C355.358 137.353 355.836 137.695 356.246 138.174C359.183 141.117 359.183 145.839 356.246 148.782C353.308 151.725 348.595 151.725 345.657 148.782C345.248 148.371 344.906 147.892 344.564 147.413C347.502 149.193 351.327 148.851 353.787 146.318Z" fill="#CCDCFF"/>
<path d="M350.986 151.862C348.732 151.862 346.682 150.972 345.111 149.398C341.832 146.113 341.832 140.843 345.111 137.558C346.682 135.984 348.8 135.095 350.986 135.095C353.24 135.095 355.29 135.984 356.861 137.558C358.432 139.133 359.32 141.254 359.32 143.444C359.32 145.634 358.432 147.756 356.861 149.33C355.29 150.972 353.24 151.862 350.986 151.862ZM346.272 138.79C343.677 141.391 343.677 145.634 346.272 148.235C347.502 149.467 349.21 150.219 350.986 150.219C352.762 150.219 354.401 149.535 355.699 148.235C356.929 147.003 357.68 145.292 357.68 143.512C357.68 141.733 356.997 140.091 355.699 138.79C354.47 137.558 352.762 136.806 350.986 136.806C349.21 136.806 347.502 137.558 346.272 138.79Z" fill="#4978E0"/>
<path d="M347.707 357.652C350.645 354.709 355.358 354.709 358.296 357.652C361.233 360.595 361.233 365.317 358.296 368.26C355.358 371.203 350.645 371.203 347.707 368.26C344.77 365.386 344.77 360.595 347.707 357.652Z" fill="white"/>
<path d="M355.905 365.865C358.432 363.333 358.774 359.5 356.998 356.626C357.476 356.899 357.954 357.242 358.364 357.721C361.301 360.664 361.301 365.386 358.364 368.329C355.426 371.271 350.713 371.271 347.776 368.329C347.366 367.918 347.024 367.439 346.683 366.96C349.552 368.671 353.377 368.329 355.905 365.865Z" fill="#CEE7FD"/>
<path d="M353.036 371.34C350.781 371.34 348.732 370.45 347.161 368.876C343.882 365.591 343.882 360.321 347.161 357.036C350.44 353.752 355.7 353.752 358.979 357.036C362.258 360.321 362.258 365.591 358.979 368.876C357.339 370.519 355.29 371.34 353.036 371.34ZM348.322 358.268C345.726 360.869 345.726 365.112 348.322 367.713C349.552 368.945 351.26 369.697 353.036 369.697C354.812 369.697 356.451 369.013 357.749 367.713C360.345 365.112 360.345 360.869 357.749 358.268C355.153 355.668 350.918 355.668 348.322 358.268Z" fill="#4978E0"/>
<path d="M414.926 284.904L257.74 193.951C253.71 191.624 253.71 187.792 257.74 185.465L260.336 183.959C264.366 181.632 264.366 177.8 260.336 175.473L191.273 135.506C187.242 133.179 180.616 133.179 176.586 135.506L173.99 137.011C169.959 139.338 163.333 139.338 159.303 137.011C155.272 134.684 148.646 134.684 144.616 137.011L134.642 142.76L50.2088 191.419C46.1784 193.746 46.1784 197.578 50.2088 199.905L305.832 347.798C309.862 350.125 316.488 350.125 320.519 347.798L404.952 299.139L414.926 293.39C419.024 291.063 419.024 287.231 414.926 284.904Z" fill="#CCDCFF"/>
<path d="M323.798 186.765L313.551 192.719C313.209 192.924 312.936 193.404 312.936 194.019V246.237C312.936 270.464 348.595 309.815 350.166 311.526C350.439 311.8 350.712 312.005 350.986 312.21C351.259 312.347 351.532 312.484 351.805 312.484C352.762 312.553 368.2 313.374 378.857 307.283L389.24 301.261C394.91 297.976 399.282 292.706 399.282 284.288V232.071C399.282 230.77 398.257 229.196 397.164 228.512C382.887 220.299 369.635 208.597 362.462 198.057C361.711 196.962 360.754 196.415 360.003 196.62C352.898 198.878 339.578 195.183 325.232 186.902C324.686 186.56 324.207 186.56 323.798 186.765Z" fill="white"/>
<path d="M397.164 228.512C382.887 220.299 369.635 208.597 362.462 198.057C361.711 196.962 360.754 196.415 360.003 196.62C352.898 198.879 339.578 195.183 325.232 186.902C324.686 186.56 324.139 186.491 323.798 186.697L313.551 192.651C313.892 192.446 314.439 192.446 314.985 192.856C329.331 201.137 342.652 204.833 349.756 202.574C350.507 202.369 351.464 202.916 352.215 204.011C359.388 214.551 372.641 226.185 386.918 234.466C388.011 235.082 389.035 236.724 389.035 238.025V290.242C389.035 298.728 384.663 303.998 378.857 307.283L389.24 301.261C394.91 297.976 399.282 292.706 399.282 284.288V232.071C399.282 230.77 398.257 229.196 397.164 228.512Z" fill="#CCDCFF"/>
<g opacity="0.5">
<path opacity="0.5" d="M352.215 204.011C351.464 202.916 350.508 202.369 349.756 202.574C342.652 204.832 329.331 201.137 314.985 192.856C314.439 192.514 313.961 192.445 313.551 192.651C313.209 192.856 312.936 193.335 312.936 193.951V246.168C312.936 270.395 348.595 309.747 350.166 311.458C350.439 311.731 350.712 311.937 350.986 312.142C351.259 312.279 351.532 312.416 351.805 312.416C352.694 312.484 364.99 313.1 375.168 308.994V226.801C365.604 219.752 357.339 211.608 352.215 204.011Z" fill="#E2EAFC"/>
</g>
<path d="M354.47 313.374C352.898 313.374 351.942 313.306 351.737 313.306C351.327 313.306 350.917 313.169 350.576 312.895C350.234 312.69 349.893 312.416 349.551 312.074C348.048 310.363 312.116 270.806 312.116 246.237V194.02C312.116 193.061 312.458 192.309 313.141 191.966L323.388 186.012H323.456C324.139 185.67 324.959 185.739 325.71 186.286C339.783 194.43 352.83 198.126 359.73 195.936C360.823 195.594 362.189 196.278 363.145 197.715C370.25 208.186 383.434 219.752 397.506 227.896C398.941 228.717 400.034 230.633 400.034 232.207V284.425C400.034 292.158 396.55 298.112 389.65 302.082C389.65 302.082 389.582 302.082 389.582 302.15L379.198 308.173C379.13 308.173 379.13 308.241 379.062 308.241C370.796 312.758 359.593 313.374 354.47 313.374ZM324.207 187.518L313.961 193.404C313.892 193.472 313.756 193.677 313.756 194.02V246.237C313.756 270.122 349.21 309.268 350.781 310.91C350.986 311.116 351.191 311.321 351.396 311.458C351.6 311.595 351.737 311.595 351.805 311.595C352.42 311.663 367.927 312.484 378.379 306.53L378.447 306.462L388.694 300.508C388.694 300.508 388.762 300.508 388.762 300.439C395.115 296.744 398.326 291.337 398.326 284.22V232.002C398.326 231.044 397.506 229.675 396.618 229.196C382.272 220.915 368.883 209.144 361.642 198.468C361.096 197.647 360.413 197.305 360.139 197.373C352.762 199.7 339.168 195.936 324.686 187.586C324.549 187.45 324.344 187.45 324.207 187.518Z" fill="#4978E0"/>
<path d="M350.986 266.221L339.646 246.579L342.788 244.8L350.986 259.035L363.282 251.917L366.424 257.324L350.986 266.221Z" fill="#5B86E5"/>
<path d="M350.985 266.221L339.646 246.579L342.788 244.8L350.985 259.035L361.437 253.012C358.91 248.153 355.152 243.91 350.985 241.446C343.266 236.998 337.05 240.625 337.05 249.454C337.05 258.35 343.266 269.164 350.985 273.612C358.705 278.06 364.921 274.502 364.921 265.605C364.921 263.415 364.511 261.088 363.828 258.83L350.985 266.221Z" fill="#CCDCFF"/>
<path d="M44.7441 32.5078V191.145C44.7441 195.867 48.0231 201.548 52.1218 203.874L307.745 351.767C309.794 352.931 311.638 353.068 312.936 352.246L324.686 345.471C326.052 344.718 326.872 343.076 326.872 340.68V182.043L315.122 188.818L44.7441 32.5078Z" fill="white"/>
<path d="M128.085 201.342V145.976C128.085 143.17 126.104 139.749 123.644 138.311L44.7441 92.7322V158.295L123.644 203.874C126.104 205.311 128.085 204.148 128.085 201.342Z" fill="#CCDCFF"/>
<path d="M310.682 231.112C310.682 233.781 308.838 234.876 306.515 233.507L258.697 205.859C256.374 204.49 254.53 201.274 254.53 198.604V177.936C254.53 175.267 256.374 174.172 258.697 175.541L306.515 203.19C308.838 204.558 310.682 207.775 310.682 210.444V231.112Z" fill="#CCDCFF"/>
<path d="M226.522 224.474C226.522 227.28 224.541 228.443 222.082 227.006L171.667 197.852C169.208 196.483 167.295 193.061 167.295 190.187V119.286C167.295 116.48 169.276 115.317 171.736 116.754L222.218 145.908C224.677 147.345 226.59 150.767 226.59 153.573L226.522 224.474Z" fill="#CCDCFF"/>
<path d="M295.244 290.721C295.244 293.527 293.263 294.69 290.803 293.253L258.902 274.775C256.442 273.338 254.461 269.916 254.461 267.11V239.872C254.461 237.066 256.442 235.903 258.902 237.34L290.803 255.818C293.263 257.255 295.244 260.677 295.244 263.483V290.721Z" fill="#CCDCFF"/>
<path d="M315.054 188.886V347.524C315.054 349.851 314.234 351.493 312.936 352.246L324.617 345.471C325.984 344.718 326.803 343.075 326.803 340.68V182.043L315.054 188.886Z" fill="#CCDCFF"/>
<path d="M311.023 353.615C309.862 353.615 308.633 353.273 307.335 352.52L51.6435 204.627C47.3399 202.163 43.856 196.141 43.856 191.145V32.5076C43.856 32.2338 43.9926 31.8916 44.2658 31.7548C44.5391 31.6179 44.8806 31.6179 45.0856 31.7548L314.986 187.86L326.325 181.29C326.599 181.153 326.94 181.153 327.145 181.29C327.418 181.427 327.555 181.701 327.555 182.043V340.68C327.555 343.212 326.667 345.197 325.027 346.155C325.027 346.155 324.959 346.155 324.959 346.224L313.209 352.999C312.663 353.409 311.843 353.615 311.023 353.615ZM45.5638 34.0132V191.213C45.5638 195.662 48.6378 201 52.4632 203.19L308.086 351.083C309.794 352.041 311.297 352.246 312.458 351.562L324.139 344.786C324.139 344.786 324.208 344.786 324.208 344.718C325.369 344.102 325.984 342.665 325.984 340.68V183.548L315.532 189.639C315.259 189.776 314.917 189.776 314.712 189.639L45.5638 34.0132Z" fill="#4978E0"/>
<path d="M46.9301 16.2198C46.8618 16.2198 46.8618 16.2882 46.7934 16.2882L46.6568 16.3566C45.4272 17.1779 44.6758 18.7519 44.6758 20.9419V32.4394L315.054 188.887L326.804 182.111V170.614C326.804 165.892 323.525 160.212 319.426 157.885L63.8031 9.99197C61.7537 8.82854 59.9093 8.69166 58.5431 9.51291L46.9301 16.2198Z" fill="#5B86E5"/>
<path d="M326.804 170.546C326.804 165.823 323.525 160.143 319.426 157.816L63.8032 9.99197C61.7539 8.82854 59.9095 8.69166 58.5432 9.51291L46.9985 16.2198C48.2965 15.5354 50.0726 15.6723 52.0536 16.7673L307.676 164.66C311.707 166.987 315.054 172.736 315.054 177.389V188.887L326.804 182.111V170.546Z" fill="#4978E0"/>
<path d="M315.054 189.776C314.917 189.776 314.781 189.708 314.644 189.639L44.3342 33.2602C44.0609 33.1233 43.9243 32.8496 43.9243 32.5074V21.0099C43.9243 18.6831 44.6757 16.8353 46.1103 15.8087C46.1786 15.7403 46.2469 15.6718 46.3152 15.6718L46.5885 15.535L58.2015 8.82813C59.841 7.80157 62.0269 8.00688 64.2812 9.30719L319.904 157.2C324.276 159.732 327.692 165.618 327.692 170.682V182.179C327.692 182.453 327.555 182.795 327.282 182.932L315.532 189.708C315.395 189.708 315.191 189.776 315.054 189.776ZM45.5638 32.0283L315.054 187.928L325.984 181.632V170.614C325.984 166.234 322.91 160.827 319.084 158.637L63.3932 10.6759C61.6854 9.71781 60.1142 9.5125 59.0212 10.1969L47.4082 16.9037L47.3399 16.9722C47.2716 17.0406 47.2716 17.0406 47.2033 17.109C46.1786 17.7934 45.6321 19.1621 45.6321 21.0099V32.0283H45.5638Z" fill="#4978E0"/>
<path d="M193.254 108.405C193.254 111.142 191.341 112.237 188.95 110.868L60.1825 36.4087C57.7916 35.0399 55.8789 31.6865 55.8789 28.949C55.8789 26.2115 57.7916 25.0481 60.1825 26.4853L188.95 100.945C191.341 102.314 193.254 105.667 193.254 108.405ZM286.636 160.827C285.885 160.348 285.202 160.759 285.202 161.649C285.202 162.538 285.817 163.702 286.636 164.112C287.388 164.592 288.071 164.181 288.071 163.291C288.071 162.333 287.388 161.238 286.636 160.827ZM295.995 167.877C295.995 168.766 295.38 169.177 294.56 168.698C293.741 168.219 293.126 167.124 293.126 166.234C293.126 165.344 293.741 164.934 294.56 165.413C295.38 165.823 295.995 166.918 295.995 167.877ZM303.919 172.462C303.919 173.351 303.304 173.762 302.485 173.283C301.665 172.804 301.05 171.709 301.05 170.819C301.05 169.93 301.665 169.519 302.485 169.998C303.304 170.409 303.919 171.572 303.919 172.462Z" fill="white"/>
<path d="M151.242 49.7535C149.876 50.5063 149.056 52.1488 149.056 54.5441V57.5553C149.056 58.1028 148.988 58.5819 148.92 58.9925C148.51 58.8556 148.032 58.6503 147.554 58.3766L148.851 59.1294C148.168 62.6197 145.231 63.8516 141.679 61.7984L149.056 66.0415L232.807 114.495L240.184 118.738L246.059 115.316C242.029 112.989 238.682 107.241 238.682 102.587V99.5758C238.682 94.922 235.403 89.1733 231.304 86.8465L162.309 46.8791C160.26 45.7157 158.415 45.5788 157.117 46.3316L151.242 49.7535Z" fill="white"/>
<path d="M238.681 102.655V99.6442C238.681 94.9905 235.402 89.2418 231.304 86.9149L162.309 46.8791C160.259 45.7157 158.415 45.5788 157.117 46.3316L151.242 49.685C152.54 48.9322 154.385 49.0691 156.434 50.2325L225.429 90.2683C229.459 92.5952 232.806 98.3439 232.806 102.998V106.009C232.806 110.731 236.085 116.411 240.184 118.738L246.059 115.316C241.96 112.989 238.681 107.309 238.681 102.655Z" fill="#CCDCFF"/>
<path d="M240.184 119.628C240.048 119.628 239.911 119.56 239.774 119.491L232.397 115.248L141.337 62.5517C140.927 62.3463 140.791 61.7988 140.996 61.3882C141.2 60.9776 141.747 60.8407 142.157 61.046C143.728 61.9357 145.163 62.141 146.256 61.662C147.075 61.3198 147.622 60.567 147.963 59.5404L147.212 59.1298C146.802 58.9245 146.665 58.377 146.87 57.9664C147.075 57.5557 147.622 57.4189 148.032 57.6242C148.1 57.6926 148.168 57.6926 148.237 57.7611C148.237 57.6926 148.237 57.6242 148.237 57.5557V54.5445C148.237 52.0123 149.125 50.0277 150.764 49.0695C150.764 49.0695 150.832 49.0695 150.832 49.0011L156.707 45.6477C158.347 44.6896 160.533 44.8949 162.787 46.1952L231.85 86.1625C236.154 88.6262 239.638 94.6487 239.638 99.6446V102.656C239.638 107.036 242.712 112.442 246.537 114.632C246.811 114.769 246.947 115.043 246.947 115.385C246.947 115.727 246.811 116.001 246.537 116.138L240.662 119.56C240.458 119.56 240.321 119.628 240.184 119.628ZM146.324 63.5098L240.184 117.78L244.42 115.317C240.662 112.511 237.862 107.104 237.862 102.656V99.6446C237.862 95.2646 234.788 89.8581 230.962 87.6681L161.831 47.6324C160.123 46.6742 158.62 46.4689 157.459 47.0849L151.652 50.4383C151.652 50.4383 151.584 50.4383 151.584 50.5067C150.491 51.1227 149.876 52.5598 149.876 54.5445V57.5557C149.876 58.0348 149.808 58.5823 149.739 59.1298C149.739 59.1982 149.739 59.2667 149.739 59.2667C149.398 61.1145 148.373 62.5517 146.939 63.1676C146.734 63.3729 146.529 63.4413 146.324 63.5098Z" fill="#4978E0"/>
<path d="M202.818 84.725C202.818 85.4094 202.34 85.6831 201.725 85.3409L158.757 60.4983C158.21 60.1561 157.732 59.3348 157.732 58.6505C157.732 57.9661 158.21 57.6923 158.757 58.0345L201.725 82.8772C202.34 83.2194 202.818 84.0406 202.818 84.725ZM188.131 81.0978C188.131 80.4135 187.653 79.5922 187.038 79.25L158.825 62.8936C158.21 62.5514 157.8 62.8251 157.8 63.5095C157.8 64.1939 158.278 65.0151 158.825 65.3573L187.106 81.7138C187.653 82.056 188.131 81.7822 188.131 81.0978ZM222.355 98.4809L223.789 97.6596C224.199 97.4543 224.199 96.6331 223.789 95.9487C223.38 95.2643 222.696 94.8537 222.287 95.059L220.852 95.8803L219.418 93.3481C219.008 92.6637 218.325 92.2531 217.915 92.4584C217.505 92.6637 217.505 93.485 217.915 94.1693L219.349 96.7015L217.915 97.5228C217.505 97.7281 217.505 98.5493 217.915 99.2337C218.325 99.9181 219.008 100.329 219.418 100.123L220.852 99.3021L222.287 101.834C222.696 102.519 223.38 102.929 223.789 102.724C224.199 102.519 224.199 101.697 223.789 101.013L222.355 98.4809Z" fill="#CCDCFF"/>
<path d="M149.056 57.5552V54.544C149.056 49.8218 145.777 44.1416 141.679 41.8147L72.6155 1.84738C70.5662 0.683951 68.7217 0.547077 67.4238 1.29989L61.549 4.65331C62.8469 3.9005 59.363 4.72174 59.363 9.44391V12.4551C59.363 17.1089 56.0841 19.0251 51.9854 16.6983L59.4313 21.0098L143.182 69.4633L150.559 73.7064L156.434 70.2846C152.335 67.9577 149.056 62.2774 149.056 57.5552Z" fill="#5B86E5"/>
<path d="M149.056 57.5552V54.544C149.056 49.8218 145.777 44.1416 141.679 41.8147L72.6153 1.84738C70.566 0.683951 68.7216 0.547077 67.4236 1.29989L61.5488 4.65331C62.8468 3.9005 64.6912 4.03737 66.7405 5.2008L135.804 45.1681C139.834 47.495 143.181 53.2437 143.181 57.8974V60.9087C143.181 65.5624 146.46 71.3111 150.559 73.638L156.434 70.2161C152.335 67.9577 149.056 62.2774 149.056 57.5552Z" fill="#4978E0"/>
<path d="M156.365 71.1746C156.229 71.1746 156.092 71.1061 155.955 71.0377C151.652 68.574 148.168 62.4831 148.168 57.5556V54.5443C148.168 50.1644 145.094 44.7578 141.268 42.5678L72.2051 2.60052C70.4973 1.6424 68.9944 1.43709 67.8331 2.05303L62.0266 5.40645C62.0266 5.40645 62.0266 5.40645 61.9583 5.40645C61.89 5.47489 61.7534 5.47489 61.6851 5.47489C61.1386 5.95395 60.2505 7.11738 60.2505 9.44424V12.4555C60.2505 15.0561 59.3625 16.9723 57.6547 17.9305C56.0152 18.8886 53.8292 18.6833 51.6432 17.383C51.2334 17.1776 51.0967 16.6301 51.3017 16.2195C51.5066 15.8089 52.0531 15.672 52.463 15.8773C54.1708 16.8355 55.6736 17.0408 56.8349 16.4248C57.9279 15.8089 58.5427 14.3717 58.5427 12.387V9.37581C58.5427 5.40645 60.8653 3.62708 61.6851 3.49021H61.7534L67.0134 0.478971C68.6529 -0.479149 70.8389 -0.273838 73.0931 1.02647L142.156 41.0622C146.528 43.5944 149.944 49.48 149.944 54.5443V57.5556C149.944 61.9356 153.018 67.3421 156.843 69.5321C157.253 69.7374 157.39 70.2849 157.185 70.6955C156.98 71.0377 156.707 71.1746 156.365 71.1746Z" fill="#4978E0"/>
<path d="M113.192 39.6935C113.192 40.3779 112.714 40.6517 112.168 40.3095L69.1994 15.4668C68.5846 15.1246 68.1064 14.3033 68.1748 13.619C68.1748 12.9346 68.6529 12.6608 69.1994 13.003L112.168 37.8457C112.714 38.1879 113.192 39.0092 113.192 39.6935ZM98.5052 36.0664C98.5052 35.382 98.027 34.5607 97.4122 34.2186L69.1311 17.8621C68.5163 17.5199 68.1064 17.7936 68.1064 18.478C68.1064 19.1624 68.5846 19.9836 69.1311 20.3258L97.3439 36.6823C98.027 37.0245 98.5052 36.7507 98.5052 36.0664ZM132.729 53.4494L134.164 52.6282C134.574 52.4228 134.574 51.6016 134.164 50.9172C133.754 50.1644 133.071 49.8222 132.661 50.0275L131.227 50.8488L129.792 48.3166C129.382 47.6322 128.699 47.2216 128.289 47.4269C127.879 47.6322 127.879 48.4535 128.289 49.1379L129.724 51.67L128.289 52.4913C127.879 52.6966 127.879 53.5178 128.289 54.2022C128.699 54.8866 129.382 55.2972 129.792 55.0919L131.227 54.2707L132.661 56.8028C133.071 57.4872 133.754 57.8978 134.164 57.6925C134.574 57.4188 134.574 56.666 134.164 55.9816L132.729 53.4494Z" fill="white"/>
<path d="M12.0913 98.9598C12.0913 96.1539 14.0724 94.9905 16.5316 96.4277L106.703 148.577C109.162 150.014 111.143 153.367 111.143 156.242V211.607C111.143 214.413 109.162 215.577 106.703 214.14L16.5316 161.99C14.0724 160.553 12.0913 157.131 12.0913 154.326V98.9598Z" fill="white"/>
<path d="M108.684 215.577C107.933 215.577 107.113 215.303 106.293 214.824L16.1216 162.675C13.3892 161.101 11.2715 157.405 11.2715 154.326V98.9599C11.2715 97.249 11.8863 96.0171 12.9793 95.3328C14.0723 94.7168 15.5068 94.7853 16.9414 95.675L107.113 147.824C109.777 149.398 111.895 153.025 111.963 156.105V156.173V211.539C111.963 213.182 111.348 214.482 110.255 215.098C109.777 215.44 109.231 215.577 108.684 215.577ZM12.9793 98.9599V154.326C12.9793 156.789 14.8237 160.006 16.9414 161.238L107.113 213.387C108.001 213.934 108.821 214.003 109.367 213.729C109.914 213.387 110.255 212.634 110.255 211.608V156.31V156.242C110.255 153.778 108.411 150.562 106.293 149.33L16.1216 97.1806C15.2336 96.6331 14.4138 96.5646 13.8673 96.8384C13.2525 97.1121 12.9793 97.9334 12.9793 98.9599Z" fill="#005BEA"/>
<path d="M108.684 215.577C107.933 215.577 107.113 215.303 106.293 214.824L16.1216 162.675C13.3892 161.101 11.2715 157.405 11.2715 154.326V98.9599C11.2715 97.249 11.8863 96.0171 12.9793 95.3328C14.0723 94.7168 15.5068 94.7853 16.9414 95.675L107.113 147.824C109.777 149.398 111.895 153.025 111.963 156.105V156.173V211.539C111.963 213.182 111.348 214.482 110.255 215.098C109.777 215.44 109.231 215.577 108.684 215.577ZM12.9793 98.9599V154.326C12.9793 156.789 14.8237 160.006 16.9414 161.238L107.113 213.387C108.001 213.934 108.821 214.003 109.367 213.729C109.914 213.387 110.255 212.634 110.255 211.608V156.31V156.242C110.255 153.778 108.411 150.562 106.293 149.33L16.1216 97.1806C15.2336 96.6331 14.4138 96.5646 13.8673 96.8384C13.2525 97.1121 12.9793 97.9334 12.9793 98.9599Z" fill="#4978E0"/>
<path d="M37.0252 122.365C37.0252 123.05 36.547 123.323 36.0005 122.981L27.2566 117.917C26.6418 117.575 26.1636 116.754 26.1636 116.069C26.1636 115.385 26.6418 115.111 27.2566 115.453L36.0005 120.518C36.547 120.86 37.0252 121.681 37.0252 122.365ZM75.4164 149.466C75.4164 150.151 74.9382 150.425 74.3917 150.082L68.5852 146.729C67.9704 146.387 67.4922 145.566 67.5605 144.881C67.5605 144.197 68.0387 143.923 68.5852 144.265L74.3917 147.619C74.9382 147.961 75.4164 148.782 75.4164 149.466ZM44.3345 136.395C44.3345 137.079 43.8563 137.353 43.3098 137.011L40.4407 135.368C39.8259 135.026 39.4161 134.205 39.4161 133.521C39.4161 132.836 39.8942 132.563 40.4407 132.905L43.3098 134.547C43.8563 134.889 44.3345 135.711 44.3345 136.395ZM56.6306 148.372C56.6306 149.056 56.1525 149.33 55.606 148.987L42.4901 141.391C41.8753 141.049 41.4654 140.227 41.3971 139.543C41.3971 138.859 41.8753 138.585 42.4901 138.927L55.606 146.524C56.2208 146.866 56.6306 147.687 56.6306 148.372ZM102.673 179.853C102.673 180.537 102.195 180.811 101.648 180.469L90.2401 173.83C89.6252 173.488 89.1471 172.667 89.1471 171.982C89.1471 171.298 89.6252 171.024 90.2401 171.366L101.648 178.005C102.263 178.415 102.741 179.168 102.673 179.853ZM38.4597 147.619C38.4597 148.303 37.9815 148.577 37.3667 148.235L31.5602 144.881C30.9454 144.539 30.5355 143.718 30.4672 143.033C30.4672 142.349 30.9454 142.075 31.5602 142.417L37.3667 145.771C37.9815 146.113 38.4597 146.934 38.4597 147.619ZM63.052 176.499C63.052 177.184 62.5738 177.457 62.0273 177.115L50.346 170.34C49.7311 169.998 49.3213 169.176 49.3213 168.492C49.3213 167.808 49.7995 167.534 50.346 167.876L62.0273 174.651C62.6421 174.994 63.052 175.815 63.052 176.499ZM66.0577 168.424C66.0577 169.108 65.5795 169.382 65.033 169.04L57.7919 164.865C57.1771 164.523 56.699 163.701 56.699 163.017C56.699 162.333 57.1771 162.059 57.7236 162.401L64.9647 166.576C65.5795 166.918 66.0577 167.739 66.0577 168.424ZM87.7125 185.875C87.7125 186.559 87.2343 186.833 86.6878 186.491L79.4468 182.316C78.832 181.974 78.3538 181.153 78.3538 180.469C78.3538 179.784 78.832 179.51 79.4468 179.853L86.6878 184.027C87.2343 184.369 87.7125 185.191 87.7125 185.875Z" fill="#5B86E5"/>
<path d="M63.0516 137.421C63.0516 138.106 62.5734 138.38 62.0269 138.037L50.3456 131.262C49.7308 130.92 49.2526 130.099 49.2526 129.414C49.2526 128.73 49.7308 128.456 50.3456 128.798L62.0269 135.574C62.6417 135.916 63.0516 136.737 63.0516 137.421ZM76.8506 145.36C76.8506 146.045 76.3724 146.318 75.8259 145.976L67.082 140.98C66.4672 140.638 65.989 139.817 65.989 139.132C65.989 138.448 66.4672 138.174 67.082 138.516L75.8259 143.581C76.3724 143.923 76.8506 144.744 76.8506 145.36ZM102.741 160.348C102.741 161.032 102.263 161.306 101.716 160.964L90.308 154.325C89.6932 153.983 89.215 153.162 89.215 152.478C89.215 151.793 89.6932 151.52 90.308 151.862L101.716 158.5C102.263 158.842 102.741 159.664 102.741 160.348ZM20.6982 112.921C20.6982 113.742 21.2447 114.7 21.9279 115.111C22.611 115.522 23.2258 115.179 23.2258 114.358C23.2258 113.537 22.6793 112.579 21.9279 112.168C21.2447 111.758 20.6982 112.1 20.6982 112.921ZM38.4593 128.114C38.4593 128.798 37.9811 129.072 37.4346 128.73L31.6281 125.377C31.0133 125.034 30.5351 124.213 30.6035 123.529C30.6035 122.844 31.0816 122.571 31.6281 122.913L37.4346 126.266C37.9811 126.608 38.4593 127.43 38.4593 128.114ZM56.6303 138.585C56.6303 139.269 56.1521 139.543 55.6056 139.201L42.4897 131.604C41.8749 131.262 41.3967 130.441 41.3967 129.756C41.3967 129.072 41.8749 128.798 42.4214 129.141L55.5373 136.737C56.1521 137.079 56.6303 137.901 56.6303 138.585ZM87.7121 156.584C87.7121 157.268 87.234 157.542 86.6875 157.2L79.4464 153.025C78.8316 152.683 78.3534 151.862 78.3534 151.177C78.3534 150.493 78.8316 150.219 79.4464 150.561L86.6875 154.736C87.234 155.078 87.7121 155.899 87.7121 156.584ZM66.0573 148.919C66.0573 149.603 65.5791 149.877 65.0326 149.535L57.7916 145.36C57.1768 145.018 56.7669 144.197 56.7669 143.512C56.7669 142.828 57.2451 142.554 57.7916 142.896L65.0326 147.071C65.5791 147.413 65.989 148.235 66.0573 148.919ZM73.9131 153.504C73.9131 154.189 73.435 154.462 72.8885 154.12L70.0194 152.478C69.4046 152.135 68.9947 151.314 68.9947 150.63C68.9947 149.945 69.4729 149.672 70.0877 150.014L72.9568 151.656C73.435 151.999 73.9131 152.82 73.9131 153.504ZM95.3631 165.891C95.3631 166.576 94.8849 166.849 94.3384 166.507L87.3023 162.469C86.6875 162.127 86.2776 161.306 86.2776 160.622C86.2776 159.937 86.7558 159.664 87.3706 160.006L94.4067 164.044C94.8849 164.386 95.3631 165.207 95.3631 165.891ZM38.4593 137.832C38.4593 138.516 37.9811 138.79 37.4346 138.448L31.6281 135.095C31.0133 134.752 30.6035 133.931 30.5351 133.247C30.5351 132.562 31.0133 132.289 31.6281 132.631L37.4346 135.984C37.9811 136.395 38.4593 137.216 38.4593 137.832ZM64.5544 152.957C64.5544 153.641 64.0762 153.915 63.5298 153.573L60.6607 151.93C60.0459 151.588 59.5677 150.767 59.5677 150.082C59.5677 149.398 60.0458 149.124 60.5923 149.466L63.4614 151.109C64.0762 151.451 64.5544 152.272 64.5544 152.957ZM87.7121 166.37C87.7121 167.055 87.234 167.328 86.6875 166.986L79.4464 162.812C78.8316 162.469 78.4217 161.648 78.3534 160.964C78.3534 160.279 78.8316 160.006 79.4464 160.348L86.6875 164.523C87.234 164.865 87.7121 165.686 87.7121 166.37ZM37.0248 141.87C37.0248 142.554 36.5466 142.828 36.0001 142.486L27.2562 137.421C26.6414 137.079 26.1632 136.258 26.2315 135.574C26.2315 134.889 26.7097 134.616 27.2562 134.958L36.0001 140.022C36.5466 140.364 37.0248 141.185 37.0248 141.87ZM63.0516 156.926C63.0516 157.61 62.5734 157.884 62.0269 157.542L50.3456 150.767C49.7308 150.425 49.2526 149.603 49.3209 148.919C49.3209 148.235 49.7991 147.961 50.3456 148.303L62.0269 155.078C62.6417 155.489 63.1199 156.31 63.0516 156.926ZM76.8506 164.933C76.8506 165.618 76.3724 165.891 75.7576 165.549L67.0137 160.485C66.3988 160.143 65.9207 159.321 65.9207 158.637C65.9207 157.953 66.3988 157.679 67.0137 158.021L75.7576 163.085C76.3724 163.428 76.8506 164.249 76.8506 164.933ZM56.6303 158.158C56.6303 158.842 56.1521 159.116 55.6056 158.774L42.4897 151.177C41.8749 150.835 41.465 150.014 41.3967 149.33C41.3967 148.645 41.8749 148.371 42.4897 148.714L55.6056 156.31C56.2204 156.652 56.6303 157.474 56.6303 158.158ZM75.416 168.971C75.416 169.655 74.9378 169.929 74.3913 169.587L68.5848 166.233C67.97 165.891 67.5602 165.07 67.4918 164.386C67.4918 163.701 67.97 163.428 68.5848 163.77L74.3913 167.123C74.9378 167.465 75.416 168.287 75.416 168.971ZM87.7121 176.088C87.7121 176.773 87.234 177.047 86.6875 176.704L79.4464 172.53C78.8316 172.188 78.3534 171.366 78.3534 170.682C78.3534 169.998 78.8316 169.724 79.4464 170.066L86.6875 174.241C87.234 174.583 87.7121 175.404 87.7121 176.088ZM76.8506 184.438C76.8506 185.122 76.3724 185.396 75.8259 185.054L67.082 179.989C66.4672 179.647 66.0573 178.826 65.989 178.142C65.989 177.457 66.4672 177.183 67.082 177.526L75.8259 182.59C76.3724 182.932 76.8506 183.753 76.8506 184.438ZM97.549 196.414C97.549 197.099 97.0709 197.372 96.5244 197.03L85.1163 190.392C84.5015 190.05 84.0233 189.228 84.0233 188.544C84.0233 187.86 84.5015 187.586 85.1163 187.928L96.5244 194.566C97.0709 194.909 97.549 195.73 97.549 196.414ZM44.3341 155.899C44.3341 156.584 43.8559 156.858 43.3095 156.515L40.4404 154.873C39.8256 154.531 39.3474 153.709 39.3474 153.025C39.3474 152.341 39.8256 152.067 40.372 152.409L43.2411 154.052C43.8559 154.394 44.3341 155.215 44.3341 155.899ZM73.9131 173.009C73.9131 173.693 73.435 173.967 72.8885 173.625L70.0194 171.982C69.4046 171.64 68.9264 170.819 68.9264 170.134C68.9264 169.45 69.4046 169.176 69.9511 169.518L72.8202 171.161C73.435 171.503 73.9131 172.324 73.9131 173.009ZM95.3631 185.396C95.3631 186.08 94.8849 186.354 94.3384 186.012L87.3023 181.974C86.6875 181.632 86.2093 180.811 86.2093 180.126C86.2093 179.442 86.6875 179.168 87.2339 179.51L94.2701 183.548C94.8849 183.89 95.3631 184.712 95.3631 185.396ZM38.4593 157.405C38.4593 158.089 37.9811 158.363 37.4346 158.021L31.6281 154.668C31.0133 154.325 30.5351 153.504 30.6035 152.82C30.6035 152.135 31.0816 151.862 31.6281 152.204L37.4346 155.557C37.9811 155.899 38.4593 156.721 38.4593 157.405ZM64.5544 172.461C64.5544 173.146 64.0762 173.419 63.4614 173.077L60.5923 171.435C59.9775 171.093 59.4994 170.271 59.4994 169.587C59.4994 168.903 59.9775 168.629 60.5923 168.971L63.4614 170.613C64.0762 171.024 64.5544 171.777 64.5544 172.461ZM56.6303 167.944C56.6303 168.629 56.1521 168.903 55.6056 168.56L42.4897 160.964C41.8749 160.622 41.3967 159.8 41.3967 159.116C41.3967 158.432 41.8749 158.158 42.4214 158.5L55.5373 166.097C56.1521 166.439 56.6303 167.26 56.6303 167.944ZM20.6982 117.78C20.6982 118.601 21.2447 119.559 21.9279 119.97C22.611 120.381 23.2258 120.038 23.2258 119.217C23.2258 118.396 22.6793 117.438 21.9279 117.027C21.2447 116.685 20.6982 117.027 20.6982 117.78ZM20.6982 127.566C20.6982 128.388 21.2447 129.346 21.9962 129.756C22.6793 130.167 23.2258 129.825 23.2258 129.004C23.2258 128.182 22.6793 127.224 21.9962 126.814C21.2447 126.472 20.6982 126.814 20.6982 127.566ZM20.6982 137.353C20.6982 138.174 21.2447 139.132 21.9279 139.543C22.611 139.954 23.2258 139.611 23.2258 138.79C23.2258 137.969 22.6793 137.011 21.9962 136.6C21.2447 136.19 20.6982 136.532 20.6982 137.353ZM20.6982 147.14C20.6982 147.961 21.2447 148.919 21.9279 149.33C22.611 149.74 23.2258 149.398 23.2258 148.577C23.2258 147.755 22.6793 146.797 21.9279 146.387C21.2447 145.976 20.6982 146.318 20.6982 147.14ZM20.6982 151.999C20.6982 152.82 21.2447 153.778 21.9279 154.189C22.611 154.599 23.1575 154.257 23.2258 153.436C23.2258 152.614 22.6793 151.656 21.9279 151.246C21.2447 150.835 20.6982 151.177 20.6982 151.999ZM20.6982 132.426C20.6982 133.247 21.2447 134.205 21.9962 134.616C22.6793 135.026 23.2258 134.684 23.2258 133.863C23.2258 133.041 22.6793 132.083 21.9962 131.673C21.2447 131.331 20.6982 131.673 20.6982 132.426ZM20.6982 142.212C20.6982 143.033 21.2447 143.991 21.9279 144.402C22.611 144.813 23.2258 144.47 23.2258 143.649C23.2258 142.828 22.6793 141.87 21.9279 141.459C21.2447 141.117 20.6982 141.391 20.6982 142.212ZM20.6982 122.707C20.6982 123.529 21.2447 124.487 21.9279 124.897C22.611 125.308 23.2258 124.966 23.2258 124.145C23.2258 123.323 22.6793 122.365 21.9962 121.955C21.2447 121.544 20.6982 121.886 20.6982 122.707Z" fill="#CCDCFF"/>
<path d="M7.37781 281.55C8.33417 283.603 7.58274 285.725 5.67001 287.299C7.17287 288.462 8.88067 289.42 10.7934 290.31C13.5942 289.215 17.2147 288.736 20.7669 289.284C24.3191 289.831 27.0516 291.268 28.5545 293.048C29.7841 292.979 30.9454 292.842 32.175 292.637C33.4046 292.432 34.4976 292.226 35.5906 291.953C35.3173 289.968 36.4786 287.983 39.0745 286.478C41.6703 284.972 45.1542 284.288 48.5698 284.425C49.5262 283.124 50.141 281.756 50.4826 280.387C48.2966 279.771 46.4522 278.813 45.2225 277.581C44.6761 277.033 44.2662 276.486 43.9929 275.87C43.0366 273.817 43.788 271.695 45.7007 270.121C44.2662 268.958 42.4901 268 40.5774 267.178C37.7766 268.273 34.156 268.752 30.6038 268.205C27.0516 267.657 24.3191 266.22 22.8163 264.441C21.655 264.509 20.4254 264.646 19.1958 264.852C17.9661 265.057 16.8731 265.262 15.7802 265.536C16.0534 267.521 14.8921 269.505 12.2963 271.011C9.70041 272.516 6.21651 273.201 2.80091 272.996C1.84455 274.296 1.22974 275.665 0.888184 277.033C3.96222 277.923 6.42144 279.497 7.37781 281.55ZM22.543 271.969C28.9643 270.942 35.5906 273.201 37.2984 276.896C38.1864 278.744 37.6399 280.661 36.0688 282.235C36.0688 282.235 36.0005 282.235 36.0005 282.303C35.7955 282.508 35.5906 282.714 35.3173 282.85C35.249 282.919 35.1124 282.987 35.0441 283.056C34.9758 283.124 34.9075 283.193 34.8392 283.193C34.7708 283.261 34.6342 283.33 34.4976 283.398C34.2927 283.535 34.156 283.672 33.8828 283.74C34.0877 283.603 34.2243 283.535 34.4293 283.398C32.9264 284.356 31.0137 285.04 28.7594 285.383C25.3438 285.93 21.8599 285.52 19.1274 284.493C18.7859 284.356 18.4443 284.219 18.1028 284.082C18.0345 284.082 17.9661 284.014 17.8978 284.014C17.8978 284.014 17.8978 284.014 17.8295 284.014C17.7612 283.945 17.6246 283.945 17.5563 283.877C17.3513 283.809 17.2147 283.672 17.0098 283.603C16.9415 283.603 16.8731 283.535 16.8731 283.535C16.6682 283.398 16.5316 283.33 16.395 283.193C16.3267 283.193 16.3267 283.124 16.2583 283.124C15.2337 282.371 14.4139 281.482 13.9357 280.524C12.2963 276.828 16.0534 272.996 22.543 271.969Z" fill="#CCDCFF"/>
<path d="M0.819824 257.803C3.0058 258.419 4.85022 259.377 6.07983 260.609C5.94321 260.746 5.80659 260.882 5.60165 261.088V268.137C7.10451 269.3 8.81231 270.258 10.725 271.148C13.5258 270.053 17.1463 269.574 20.6986 270.121C24.2508 270.669 26.9832 272.106 28.4861 273.885C29.7157 273.817 30.877 273.68 32.1066 273.475C33.3362 273.27 34.4292 273.064 35.5222 272.79C35.249 270.806 36.4103 268.821 39.0061 267.316C41.602 265.81 45.0859 265.126 48.5015 265.331C49.4578 264.031 50.0726 262.662 50.4142 261.293V254.244C48.2282 253.628 46.3838 252.67 45.1542 251.438C45.2908 251.301 45.4274 251.164 45.6324 250.959V243.91C44.1978 242.747 42.4217 241.788 40.509 240.967C37.7082 242.062 34.0877 242.541 30.5355 241.994C26.9832 241.446 24.2508 240.009 22.7479 238.23C21.5866 238.298 20.357 238.435 19.1274 238.64C17.8978 238.846 16.8048 239.051 15.7118 239.325C15.985 241.309 14.8237 243.294 12.2279 244.8C9.63205 246.305 6.14815 246.99 2.73256 246.784C1.77619 248.085 1.16138 249.453 0.819824 250.822V257.803ZM28.7594 259.172C23.3627 259.993 17.8978 258.624 15.2336 255.955C16.8048 254.449 19.3323 253.217 22.543 252.738C27.9396 251.917 33.4046 253.286 36.0687 255.955C34.4975 257.461 31.97 258.624 28.7594 259.172Z" fill="white"/>
<path d="M14.004 254.175C12.2962 250.48 16.0534 246.647 22.543 245.689C28.9643 244.663 35.5905 246.921 37.2983 250.617C38.4596 253.217 37.0251 255.818 33.8827 257.529C34.7025 257.05 35.4539 256.571 36.0004 255.955C33.3362 253.286 27.803 251.917 22.4747 252.738C19.264 253.217 16.7365 254.449 15.1653 255.955C16.19 256.913 17.5562 257.734 19.1957 258.35C16.7365 257.392 14.8237 255.955 14.004 254.175ZM10.7933 263.962C8.88062 263.141 7.10451 262.114 5.66996 260.951V268C7.17282 269.163 8.88062 270.121 10.7933 271.011C13.5941 269.916 17.2147 269.437 20.7669 269.984C24.3191 270.532 27.0516 271.969 28.5544 273.749C29.784 273.68 30.9453 273.543 32.1749 273.338C33.4046 273.133 34.4975 272.927 35.5905 272.654C35.3173 270.669 36.4786 268.684 39.0744 267.179C41.6703 265.673 45.1542 264.989 48.5698 265.194C49.5261 263.894 50.141 262.525 50.4825 261.156V254.107C50.2093 255.544 49.5945 256.913 48.5698 258.145C45.1542 258.008 41.6703 258.624 39.0744 260.129C36.4786 261.635 35.3173 263.688 35.5905 265.604C34.4975 265.878 33.3362 266.152 32.1749 266.289C30.9453 266.494 29.784 266.563 28.5544 266.699C27.1199 264.92 24.3191 263.483 20.7669 262.935C17.2147 262.456 13.5941 262.867 10.7933 263.962ZM0.819824 257.803C3.0058 258.419 4.85022 259.377 6.07983 260.609C5.94321 260.745 5.80659 260.882 5.60165 261.088C7.58269 259.445 8.26581 257.392 7.30945 255.339C6.35308 253.286 3.89386 251.712 0.819824 250.822V257.803ZM45.2225 251.301C45.3591 251.164 45.4958 251.027 45.7007 250.822V243.773C43.788 245.415 43.0365 247.469 43.9929 249.522C44.2661 250.206 44.676 250.754 45.2225 251.301Z" fill="#CCDCFF"/>
<path d="M28.5543 274.638C28.281 274.638 28.0761 274.501 27.8712 274.296C26.5049 272.585 23.8408 271.353 20.6301 270.806C17.3512 270.327 13.8673 270.669 11.0665 271.764C10.8615 271.832 10.6566 271.832 10.3833 271.764C8.33399 270.874 6.55789 269.847 5.05503 268.684C4.85009 268.547 4.71347 268.273 4.71347 268V260.951C4.71347 260.814 4.78178 260.677 4.78178 260.54C3.68879 259.65 2.25424 258.966 0.546447 258.555C0.204888 258.487 -0.0683594 258.145 -0.0683594 257.734V250.685C-0.0683594 250.617 -0.0683594 250.548 -0.0683594 250.548C0.204888 249.043 0.888006 247.537 1.98099 246.168C2.11762 245.963 2.39087 245.826 2.73242 245.826C6.14802 245.963 9.42698 245.279 11.8179 243.91C14.0039 242.609 15.0969 240.967 14.8919 239.256C14.8236 238.845 15.0969 238.435 15.5067 238.298C16.7363 237.956 17.8976 237.75 18.9906 237.545C20.0836 237.34 21.3132 237.271 22.6795 237.135C22.9527 237.135 23.226 237.203 23.3626 237.477C24.7288 239.188 27.393 240.42 30.6036 240.967C33.8826 241.446 37.3665 241.104 40.1673 240.009C40.3722 239.94 40.5772 239.94 40.7821 240.009C42.8315 240.899 44.6076 241.925 46.1104 243.089C46.3154 243.225 46.452 243.499 46.452 243.773V250.822C46.452 250.959 46.3837 251.096 46.3837 251.233C47.4767 252.122 48.9112 252.807 50.619 253.286C50.9606 253.354 51.2338 253.696 51.2338 254.107V261.156C51.2338 261.224 51.2338 261.293 51.2338 261.293C50.8923 262.798 50.2091 264.304 49.1845 265.673C49.0478 265.878 48.7746 266.015 48.433 266.015C45.0174 265.878 41.7385 266.562 39.3476 267.931C37.1616 269.163 36.0686 270.874 36.2735 272.585C36.3418 272.996 36.0686 273.406 35.6587 273.543C34.3608 273.885 33.2678 274.091 32.1748 274.296C31.2184 274.433 29.9888 274.57 28.5543 274.638ZM17.6244 268.958C18.7174 268.958 19.8104 269.026 20.9034 269.232C24.319 269.779 27.1881 271.079 28.8958 272.927C30.0571 272.859 31.0818 272.722 31.9699 272.585C32.8579 272.448 33.6777 272.311 34.634 272.037C34.634 269.916 36.0686 267.931 38.5961 266.494C41.1237 265.057 44.6076 264.236 48.0915 264.372C48.8429 263.346 49.3211 262.183 49.526 261.088V254.791C47.4767 254.175 45.7689 253.149 44.5392 251.985C44.4026 251.849 44.266 251.643 44.266 251.369C44.266 251.164 44.3343 250.959 44.5392 250.754C44.6076 250.685 44.6759 250.617 44.7442 250.548V244.32C43.5146 243.362 42.0117 242.541 40.4405 241.857C37.4348 242.952 33.746 243.294 30.3304 242.815C26.9148 242.267 24.0457 240.967 22.3379 239.119C21.1766 239.188 20.1519 239.325 19.2639 239.461C18.3758 239.598 17.5561 239.735 16.5997 240.009C16.5997 242.13 15.1652 244.115 12.6376 245.621C10.1101 247.058 6.69451 247.879 3.1423 247.742C2.39087 248.837 1.91268 249.932 1.70775 251.027V257.323C3.7571 257.939 5.4649 258.966 6.69451 260.129C6.83113 260.266 6.96776 260.54 6.96776 260.745C6.96776 260.951 6.89945 261.224 6.69451 261.361L6.6262 261.43C6.55789 261.498 6.48957 261.567 6.42126 261.567V267.794C7.65088 268.752 9.15374 269.574 10.7249 270.258C12.8426 269.368 15.2335 268.958 17.6244 268.958ZM25.6852 260.266C21.2449 260.266 16.9413 258.898 14.6187 256.571C14.4821 256.434 14.3454 256.16 14.3454 255.955C14.3454 255.749 14.4137 255.476 14.6187 255.339C16.3265 253.628 19.1273 252.396 22.3379 251.917C27.8029 251.096 33.6777 252.464 36.6151 255.407C36.7517 255.544 36.8883 255.818 36.8883 256.023C36.8883 256.228 36.82 256.502 36.6151 256.639C34.9073 258.35 32.1065 259.582 28.8958 260.061C27.8712 260.129 26.7782 260.266 25.6852 260.266ZM16.5314 255.955C19.2639 258.076 24.114 259.034 28.6226 258.35C31.0818 257.939 33.2678 257.118 34.7707 255.955C32.0382 253.833 27.2564 252.875 22.6795 253.559C20.1519 253.97 18.0343 254.791 16.5314 255.955Z" fill="#4978E0"/>
<path d="M87.2343 317.891C87.3709 317.617 87.6442 317.48 88.1223 317.412C88.5322 317.343 89.0104 317.412 89.2836 317.617L104.995 326.719L115.037 325.145L117.701 319.328L101.99 310.226C101.716 310.02 101.58 309.815 101.648 309.541C101.785 309.336 102.058 309.131 102.468 309.062L115.925 306.941C116.335 306.872 116.813 306.941 117.087 307.146L135.258 317.685C135.462 317.822 135.531 317.959 135.599 318.164C135.599 318.233 135.599 318.301 135.599 318.37L132.388 325.282L187.106 356.968L199.129 355.12C199.539 355.052 200.017 355.12 200.29 355.326L218.461 365.865C218.666 366.002 218.735 366.139 218.803 366.344C218.803 366.413 218.803 366.481 218.803 366.549L215.182 374.351C215.046 374.557 214.772 374.762 214.294 374.83C213.884 374.899 213.406 374.83 213.133 374.625L197.421 365.523L187.379 367.097L184.715 372.914L200.427 382.016C200.632 382.153 200.7 382.29 200.769 382.495C200.769 382.564 200.769 382.632 200.769 382.701C200.632 382.974 200.359 383.111 199.949 383.18L186.491 385.301C186.082 385.37 185.603 385.301 185.33 385.096L167.159 374.557C166.954 374.42 166.818 374.214 166.818 374.078C166.818 374.009 166.818 373.941 166.818 373.872L170.028 366.96L115.31 335.274L103.288 337.122C102.878 337.19 102.4 337.121 102.126 336.916L83.9553 326.377C83.7504 326.24 83.6138 326.035 83.6138 325.898C83.6138 325.829 83.6138 325.761 83.6138 325.692L87.2343 317.891Z" fill="#CCDCFF"/>
<path d="M83.5453 290.516C83.6136 290.448 83.5453 290.379 83.6136 290.311L87.2342 282.509C87.3708 282.304 87.644 282.098 88.1222 282.03C88.5321 281.961 89.0103 282.03 89.2835 282.235L104.995 291.337L111.553 290.311L101.99 284.767C101.785 284.63 101.648 284.425 101.648 284.288H101.58V274.365H101.648C101.648 274.296 101.648 274.228 101.648 274.159C101.785 273.954 102.058 273.749 102.468 273.68L115.925 271.559C116.335 271.49 116.813 271.559 117.086 271.764L135.257 282.304C135.462 282.44 135.531 282.577 135.599 282.783H135.667V292.706H135.599C135.599 292.774 135.599 292.843 135.599 292.911L128.904 307.283C128.836 307.42 128.768 307.488 128.563 307.625C128.426 307.694 128.221 307.762 128.016 307.831L103.151 311.663C102.741 311.731 102.263 311.663 101.99 311.458L83.8186 300.918C83.5453 300.782 83.477 300.576 83.477 300.371H83.4087V290.516H83.5453Z" fill="white"/>
<path d="M83.6137 290.516C83.6137 290.721 83.682 290.858 83.9553 290.995L102.126 301.534C102.399 301.739 102.878 301.808 103.288 301.739L128.153 297.907C128.358 297.907 128.563 297.838 128.7 297.702C128.836 297.633 128.973 297.496 129.041 297.359L135.736 282.988C135.736 282.919 135.736 282.851 135.736 282.782H135.804V292.706H135.736C135.736 292.774 135.736 292.842 135.736 292.911L129.041 307.283C128.973 307.42 128.904 307.488 128.7 307.625C128.563 307.693 128.358 307.762 128.153 307.83L103.288 311.663C102.878 311.731 102.399 311.663 102.126 311.457L83.9553 300.918C83.682 300.781 83.6137 300.576 83.6137 300.371H83.5454L83.6137 290.516ZM101.648 274.228C101.648 274.296 101.648 274.364 101.648 274.433H101.58V284.356H101.648C101.648 284.562 101.716 284.698 101.99 284.835L111.553 290.379L104.995 291.405L115.037 289.831L117.701 284.014L101.99 274.912C101.648 274.707 101.58 274.433 101.648 274.228Z" fill="#CCDCFF"/>
<path d="M102.946 312.484C102.468 312.484 101.99 312.347 101.648 312.142L83.477 301.603C83.0671 301.397 82.8622 301.055 82.7939 300.645C82.7256 300.576 82.7256 300.439 82.7256 300.302V290.447C82.7256 290.379 82.7256 290.242 82.7939 290.174C82.7939 290.105 82.8622 289.968 82.8622 289.9L86.4827 282.098C86.756 281.619 87.3025 281.208 87.9856 281.14C88.6004 281.071 89.2152 281.14 89.6934 281.414L105.132 290.311L109.026 289.695L101.58 285.383C101.238 285.178 100.965 284.904 100.897 284.493C100.828 284.356 100.828 284.288 100.828 284.151V274.228C100.828 274.159 100.828 274.091 100.897 273.954C100.897 273.886 100.965 273.749 100.965 273.68C101.17 273.201 101.716 272.791 102.468 272.722L115.993 270.601C116.608 270.532 117.223 270.601 117.701 270.874L135.872 281.414C136.214 281.619 136.419 281.893 136.555 282.166C136.624 282.303 136.692 282.44 136.692 282.577V292.501C136.692 292.569 136.692 292.637 136.692 292.706C136.692 292.843 136.692 292.911 136.624 293.048L129.929 307.42C129.792 307.694 129.587 307.899 129.314 308.104C129.109 308.241 128.768 308.309 128.494 308.378L103.629 312.21C103.287 312.484 103.151 312.484 102.946 312.484ZM84.4334 300.234L102.536 310.705C102.673 310.773 102.878 310.842 103.151 310.773L128.016 306.941C128.153 306.941 128.221 306.872 128.221 306.872L134.779 292.706C134.779 292.637 134.779 292.5 134.847 292.432V283.056L116.745 272.585C116.608 272.517 116.403 272.448 116.13 272.517L102.604 274.638C102.536 274.638 102.468 274.638 102.468 274.707V274.775V284.014C102.468 284.014 102.468 284.014 102.468 284.083L111.963 289.558C112.305 289.763 112.441 290.105 112.373 290.447C112.305 290.79 112.031 291.063 111.69 291.132L105.132 292.158C104.927 292.158 104.722 292.158 104.585 292.021L88.8737 282.919C88.737 282.851 88.5321 282.782 88.2588 282.851C88.1222 282.851 88.0539 282.919 87.9856 282.919L84.5017 290.516C84.5017 290.584 84.5017 290.721 84.4334 290.79V300.165V300.234Z" fill="#5B86E5"/>
<path d="M114.9 275.391L129.109 283.672L123.917 294.896L104.449 297.907L90.1714 289.694L90.9228 288.12L103.151 295.238L119.887 292.637L124.396 282.919L112.168 275.802L114.9 275.391Z" fill="#CCDCFF"/>
<path d="M115.31 301.877L128.153 299.892C128.358 299.892 128.563 299.823 128.699 299.687C128.836 299.618 128.972 299.481 129.041 299.344L132.525 291.885L187.242 323.571V329.525L174.4 331.51C174.195 331.51 173.99 331.578 173.853 331.715C173.717 331.784 173.58 331.921 173.512 332.057L170.028 339.517L115.31 307.831V301.877Z" fill="white"/>
<path d="M170.028 333.494L173.512 326.035C173.58 325.898 173.648 325.829 173.853 325.692C173.99 325.624 174.195 325.556 174.4 325.487L187.242 323.503V329.457L174.4 331.441C174.195 331.441 173.99 331.51 173.853 331.647C173.717 331.715 173.58 331.852 173.512 331.989L170.028 339.448L115.31 307.762V301.808L170.028 333.494Z" fill="#CCDCFF"/>
<path d="M131.364 294.28L128.973 299.413C128.904 299.55 128.836 299.618 128.631 299.755C128.495 299.823 128.29 299.892 128.085 299.96L119.272 301.329L121.937 302.903L171.053 331.305L173.444 326.172C173.512 326.035 173.58 325.966 173.785 325.83C173.922 325.761 174.127 325.693 174.332 325.624L183.144 324.256L131.364 294.28Z" fill="#CCDCFF"/>
<path opacity="0.05" d="M131.364 296.265L128.973 301.397C128.904 301.534 128.836 301.603 128.631 301.74C128.495 301.808 128.29 301.877 128.085 301.945L121.937 302.903L119.272 301.329L128.085 299.96C128.29 299.96 128.495 299.892 128.631 299.755C128.768 299.687 128.904 299.55 128.973 299.413L131.364 294.28L183.144 324.256L180.48 324.666L131.364 296.265Z" fill="black"/>
<path d="M170.028 340.269C169.892 340.269 169.755 340.201 169.618 340.133L114.901 308.446C114.627 308.309 114.491 308.036 114.491 307.693V301.739C114.491 301.329 114.764 300.986 115.242 300.918L128.085 298.933C128.221 298.933 128.29 298.865 128.29 298.865L131.705 291.474C131.774 291.268 131.979 291.063 132.252 290.995C132.457 290.926 132.73 290.926 132.935 291.063L187.653 322.749C187.926 322.886 188.063 323.16 188.063 323.502V329.456C188.063 329.867 187.789 330.209 187.311 330.278L174.468 332.262C174.332 332.262 174.264 332.331 174.195 332.331L170.78 339.722C170.711 339.927 170.506 340.133 170.233 340.201C170.165 340.269 170.097 340.269 170.028 340.269ZM116.13 307.283L169.618 338.216L172.692 331.646C172.829 331.373 173.034 331.099 173.376 330.962C173.649 330.825 173.922 330.757 174.195 330.688L186.355 328.772V324.05L132.867 293.116L129.793 299.686C129.656 299.96 129.451 300.234 129.109 300.371C128.905 300.507 128.563 300.576 128.29 300.644L116.13 302.561V307.283Z" fill="#5B86E5"/>
<path d="M166.749 338.627C166.817 338.559 166.749 338.49 166.817 338.422L173.512 324.05C173.58 323.913 173.648 323.845 173.853 323.708C173.99 323.64 174.195 323.571 174.4 323.503L199.265 319.67C199.675 319.602 200.153 319.67 200.427 319.875L218.598 330.415C218.803 330.552 218.871 330.689 218.939 330.894V340.749C218.939 340.817 219.007 340.886 218.939 341.023L215.319 348.824C215.182 349.098 214.909 349.235 214.431 349.304C214.021 349.372 213.543 349.304 213.269 349.098L197.558 339.996L191 341.023L200.563 346.566C200.768 346.703 200.837 346.84 200.905 347.045H200.973V356.968H200.837C200.837 357.037 200.837 357.105 200.837 357.105C200.7 357.311 200.427 357.516 200.017 357.584L186.559 359.706C186.15 359.774 185.671 359.706 185.398 359.501L167.091 349.03C166.886 348.893 166.817 348.756 166.749 348.551H166.681V338.627H166.749Z" fill="white"/>
<path d="M190.931 341.091L200.495 346.634L184.783 337.532L187.448 331.715L197.489 330.141L213.201 339.243C213.474 339.449 213.952 339.517 214.362 339.449C214.772 339.38 215.114 339.175 215.25 338.97L218.871 331.168C218.871 331.099 218.871 331.031 218.871 330.962V340.817C218.871 340.886 218.939 340.954 218.871 341.091L215.25 348.893C215.114 349.167 214.841 349.304 214.362 349.372C213.952 349.44 213.474 349.372 213.201 349.167L197.489 340.065L190.931 341.091ZM166.749 338.627V348.551H166.817C166.817 348.756 166.886 348.893 167.159 349.03L185.33 359.569C185.603 359.774 186.081 359.843 186.491 359.774L199.949 357.653C200.358 357.584 200.7 357.379 200.768 357.174C200.768 357.105 200.768 357.037 200.768 357.037H200.837V347.114C200.837 347.182 200.837 347.25 200.837 347.319C200.7 347.524 200.427 347.729 200.017 347.798L186.559 349.919C186.15 349.988 185.671 349.919 185.398 349.714L167.227 339.175C166.886 339.038 166.817 338.833 166.749 338.627Z" fill="#CCDCFF"/>
<path d="M186.149 360.596C185.671 360.596 185.193 360.459 184.852 360.254L166.681 349.783C166.339 349.577 166.134 349.304 165.997 348.961C165.929 348.825 165.861 348.688 165.861 348.551V338.627C165.861 338.559 165.861 338.422 165.929 338.354C165.929 338.285 165.997 338.148 165.997 338.08L172.692 323.708C172.829 323.434 173.034 323.229 173.375 323.024C173.58 322.887 173.922 322.818 174.195 322.75L199.06 318.918C199.675 318.849 200.29 318.918 200.768 319.191L218.939 329.731C219.281 329.936 219.486 330.21 219.622 330.552C219.691 330.689 219.691 330.826 219.691 330.962V340.817C219.691 340.886 219.691 340.886 219.691 340.954C219.691 341.091 219.691 341.296 219.554 341.433L215.933 349.235C215.728 349.714 215.114 350.125 214.431 350.193C213.816 350.262 213.201 350.193 212.723 349.92L197.284 340.954L193.391 341.57L200.836 345.882C201.178 346.087 201.383 346.361 201.52 346.703C201.588 346.84 201.588 346.977 201.588 347.114V357.037C201.588 357.105 201.588 357.242 201.52 357.311C201.52 357.379 201.451 357.516 201.451 357.585C201.246 358.064 200.7 358.474 199.948 358.543L186.491 360.664C186.423 360.596 186.286 360.596 186.149 360.596ZM167.637 348.346L185.74 358.816C185.876 358.885 186.081 358.953 186.354 358.885L199.812 356.763C199.88 356.763 199.948 356.763 199.948 356.695C199.948 356.695 199.948 356.695 199.948 356.626V347.182C199.948 347.182 199.948 347.182 199.948 347.114L190.453 341.639C190.112 341.433 189.975 341.091 190.043 340.749C190.112 340.407 190.385 340.133 190.726 340.065L197.284 339.038C197.489 339.038 197.694 339.038 197.831 339.175L213.543 348.277C213.679 348.346 213.884 348.414 214.157 348.346C214.294 348.346 214.362 348.277 214.431 348.277L217.983 340.681C217.983 340.612 217.983 340.612 217.983 340.544V331.031L199.88 320.56C199.744 320.492 199.539 320.423 199.265 320.492L174.4 324.324C174.263 324.324 174.195 324.392 174.195 324.392L167.637 338.559C167.637 338.627 167.637 338.764 167.569 338.833L167.637 348.346ZM214.499 348.414C214.499 348.414 214.499 348.482 214.499 348.414V348.414Z" fill="#5B86E5"/>
<path d="M187.584 346.018L173.375 337.806L178.567 326.582L198.036 323.502L212.313 331.783L211.562 333.357L199.334 326.24L182.529 328.841L178.089 338.559L190.317 345.608L187.584 346.018Z" fill="#CCDCFF"/>
<path opacity="0.05" d="M190.317 345.608L187.653 346.018L183.144 343.418L178.089 340.475V338.49L178.84 338.901L190.317 345.608ZM173.375 337.806L174.127 338.216L178.635 328.498L198.104 325.487L211.63 333.289L212.382 331.715L198.173 323.502L178.704 326.514L173.375 337.806Z" fill="black"/>
<path opacity="0.05" d="M90.9228 288.12L103.151 295.238L119.887 292.637L123.644 284.493L124.396 282.919V284.904L119.887 294.622L103.151 297.223L101.033 295.991L90.1714 289.694L90.9228 288.12ZM114.9 277.376L128.426 285.178L129.177 283.604L114.9 275.391L112.236 275.802L114.9 277.376Z" fill="black"/>
<path d="M293.741 241.31C293.741 243.979 291.896 245.074 289.574 243.705L241.755 216.056C239.433 214.756 237.588 211.471 237.588 208.802V188.065C237.588 185.396 239.433 184.301 241.755 185.67L289.574 213.319C291.896 214.687 293.741 217.904 293.741 220.573V241.31Z" fill="white"/>
<path d="M291.418 245.142C290.666 245.142 289.915 244.937 289.095 244.458L241.277 216.809C238.681 215.303 236.7 211.813 236.7 208.802V188.065C236.7 186.491 237.315 185.259 238.34 184.644C239.433 184.028 240.731 184.164 242.165 184.917L289.983 212.566C292.579 214.071 294.56 217.562 294.56 220.573V241.309C294.56 242.884 293.945 244.115 292.921 244.731C292.443 245.005 291.964 245.142 291.418 245.142ZM239.911 185.944C239.638 185.944 239.433 186.012 239.228 186.081C238.75 186.354 238.408 187.107 238.408 188.065V208.802C238.408 211.129 240.116 214.14 242.165 215.303L289.983 242.952C290.803 243.431 291.555 243.568 292.101 243.226C292.579 242.952 292.921 242.199 292.921 241.241V220.505C292.921 218.178 291.213 215.166 289.164 214.003L241.345 186.354C240.799 186.149 240.321 185.944 239.911 185.944Z" fill="#4978E0"/>
<path d="M246.4 201.274C246.332 201.342 246.264 201.411 246.195 201.479C246.537 201.069 246.947 200.863 247.493 200.863C247.22 200.863 247.015 200.932 246.81 201.069C247.015 200.932 247.288 200.932 247.493 200.863C247.972 200.863 248.45 201 249.065 201.274L282.332 220.505C284.177 221.531 285.68 224.132 285.68 226.253C285.68 226.869 285.543 227.417 285.27 227.828C284.723 228.717 283.63 228.923 282.332 228.17L249.065 208.939C247.22 207.844 245.717 205.312 245.717 203.19C245.717 202.232 245.991 201.616 246.4 201.274Z" fill="#CCDCFF"/>
<path d="M283.767 229.47C283.152 229.47 282.537 229.265 281.854 228.922L248.586 209.691C246.469 208.46 244.829 205.585 244.829 203.19C244.829 202.3 245.102 201.616 245.376 201.137C245.376 201.068 245.444 201 245.512 200.932C245.785 200.521 246.195 200.247 246.674 200.11C246.947 200.042 247.152 199.973 247.425 199.973C248.04 199.973 248.723 200.11 249.406 200.521L282.674 219.752C284.792 220.984 286.431 223.79 286.431 226.253C286.431 227.006 286.226 227.69 285.884 228.238C285.406 229.059 284.655 229.47 283.767 229.47ZM246.947 201.89C246.605 202.232 246.469 202.779 246.469 203.19C246.469 205.038 247.767 207.296 249.406 208.254L282.674 227.485C283.152 227.759 284.04 228.101 284.45 227.417C284.655 227.143 284.723 226.732 284.723 226.322C284.723 224.542 283.425 222.215 281.854 221.326L248.586 202.095C248.176 201.89 247.835 201.753 247.493 201.753C247.425 201.753 247.288 201.753 247.22 201.821C247.22 201.821 247.152 201.821 247.152 201.89C247.083 201.821 247.015 201.821 246.947 201.89Z" fill="#4978E0"/>
<path d="M266.006 218.109C266.006 221.326 268.26 225.227 270.993 226.801C272.359 227.622 273.657 227.69 274.545 227.143L277.346 225.569C278.234 225.021 278.78 223.926 278.78 222.352C278.78 219.136 276.526 215.235 273.793 213.661C272.427 212.84 271.129 212.771 270.241 213.319L267.44 214.961L267.372 215.03C266.552 215.44 266.006 216.535 266.006 218.109Z" fill="#5B86E5"/>
<path d="M266.826 215.372C267.714 214.345 269.217 214.208 270.993 215.235C273.725 216.809 275.979 220.71 275.979 223.926C275.979 225.501 275.433 226.664 274.477 227.143L277.277 225.501C278.165 224.953 278.712 223.858 278.712 222.284C278.712 219.067 276.458 215.167 273.725 213.592C272.359 212.771 271.061 212.703 270.173 213.25L267.372 214.893C267.236 215.03 267.031 215.167 266.826 215.372Z" fill="#4978E0"/>
<path d="M273.247 228.375C272.427 228.375 271.539 228.101 270.583 227.553C267.509 225.774 265.118 221.668 265.118 218.109C265.118 216.33 265.732 214.961 266.825 214.277C266.894 214.208 266.894 214.208 267.03 214.14L269.831 212.566H269.9C271.129 211.881 272.632 212.018 274.203 212.976C277.277 214.756 279.668 218.862 279.668 222.421C279.668 224.268 278.985 225.706 277.755 226.39L275.023 227.964C274.476 228.169 273.862 228.375 273.247 228.375ZM266.825 218.109C266.825 220.983 268.943 224.611 271.402 226.048C272.495 226.664 273.452 226.801 274.135 226.39L276.936 224.816C277.619 224.405 277.96 223.516 277.96 222.284C277.96 219.341 275.911 215.782 273.383 214.345C272.359 213.729 271.334 213.592 270.719 214.003C270.719 214.003 270.719 214.003 270.651 214.003L267.987 215.577C267.918 215.577 267.918 215.645 267.85 215.645C267.235 216.056 266.825 216.946 266.825 218.109Z" fill="#4978E0"/>
<path d="M209.512 234.671C209.512 237.477 207.531 238.641 205.072 237.203L154.658 208.049C152.199 206.68 150.286 203.259 150.286 200.384V129.483C150.286 126.677 152.267 125.514 154.726 126.951L205.209 156.105C207.668 157.543 209.581 160.964 209.581 163.77L209.512 234.671Z" fill="white"/>
<path d="M207.122 238.709C206.37 238.709 205.55 238.435 204.731 237.956L154.316 208.802C151.584 207.228 149.466 203.532 149.466 200.452V129.483C149.466 127.841 150.081 126.54 151.174 125.924C152.267 125.308 153.702 125.377 155.136 126.267L205.619 155.421C208.351 156.995 210.469 160.69 210.469 163.77V234.671C210.469 236.314 209.854 237.614 208.761 238.23C208.215 238.572 207.668 238.709 207.122 238.709ZM152.677 127.225C152.404 127.225 152.13 127.293 151.926 127.43C151.379 127.772 151.037 128.525 151.037 129.551V200.452C151.037 202.916 152.882 206.133 155 207.365L205.482 236.519C206.37 237.066 207.19 237.135 207.736 236.861C208.283 236.519 208.624 235.766 208.624 234.739V163.839C208.624 161.375 206.78 158.158 204.662 156.926L154.18 127.772C153.702 127.361 153.155 127.225 152.677 127.225Z" fill="#4978E0"/>
<path d="M161.626 144.128C165.315 142.007 171.395 145.429 175.083 151.93C178.772 158.363 178.772 165.344 175.083 167.465C171.395 169.587 165.383 166.165 161.626 159.664C157.937 153.231 157.937 146.25 161.626 144.128Z" fill="#CCDCFF"/>
<path d="M160.875 158.227C161.763 155.968 163.744 155.01 166.203 155.626C165.246 154.326 164.632 152.683 164.632 151.246C164.632 148.851 166.271 147.893 168.389 149.125C170.438 150.288 172.146 153.231 172.146 155.558C172.146 156.995 171.531 157.885 170.575 158.158C173.034 160.417 175.015 163.702 175.903 166.918C174.127 168.492 171.463 168.561 168.389 166.85C165.315 165.071 162.582 161.786 160.875 158.227ZM199.471 170.614C199.471 169.93 198.993 169.108 198.446 168.766L186.082 161.649C185.467 161.307 185.057 161.58 185.057 162.265C185.057 162.949 185.535 163.77 186.15 164.112L198.514 171.23C198.993 171.572 199.471 171.298 199.471 170.614ZM195.85 163.633C195.85 164.318 195.372 164.591 194.826 164.249L186.082 159.185C185.467 158.843 185.057 158.022 184.989 157.337C184.989 156.653 185.467 156.379 186.082 156.721L194.826 161.786C195.372 162.128 195.85 162.949 195.85 163.633ZM199.471 175.473C199.471 174.789 198.993 173.967 198.446 173.625L186.082 166.508C185.467 166.166 185.057 166.439 185.057 167.124C185.057 167.808 185.535 168.629 186.15 168.971L198.514 176.089C198.993 176.431 199.471 176.157 199.471 175.473ZM199.471 185.26C199.471 184.575 198.993 183.754 198.378 183.412L186.013 176.294C185.398 175.952 184.989 176.226 184.989 176.91C184.989 177.595 185.467 178.416 186.082 178.758L198.446 185.875C198.993 186.218 199.471 185.944 199.471 185.26ZM193.528 176.979C193.528 177.663 193.049 177.937 192.503 177.595L186.082 173.899C185.467 173.557 185.057 172.736 185.057 172.051C185.057 171.367 185.535 171.093 186.082 171.435L192.503 175.131C193.118 175.473 193.528 176.294 193.528 176.979ZM199.471 197.578C199.471 196.894 198.993 196.073 198.446 195.73L158.484 172.599C157.869 172.256 157.391 172.53 157.391 173.215C157.391 173.899 157.869 174.72 158.415 175.062L198.378 198.194C198.993 198.536 199.471 198.263 199.471 197.578ZM192.161 203.122C192.161 202.437 191.683 201.616 191.137 201.274L158.484 182.385C157.869 182.043 157.459 182.317 157.459 183.001C157.459 183.685 157.937 184.507 158.552 184.849L191.205 203.738C191.683 204.011 192.161 203.738 192.161 203.122ZM184.784 193.951C184.784 194.635 184.305 194.909 183.759 194.567L158.484 179.921C157.869 179.579 157.459 178.758 157.459 178.074C157.459 177.389 157.937 177.115 158.484 177.458L183.759 192.103C184.305 192.445 184.784 193.267 184.784 193.951ZM199.471 214.687C199.471 214.003 198.993 213.182 198.446 212.84L158.484 189.708C157.869 189.366 157.391 189.639 157.391 190.324C157.391 191.008 157.869 191.829 158.484 192.172L198.446 215.303C198.993 215.646 199.471 215.372 199.471 214.687ZM192.161 220.231C192.161 219.546 191.683 218.725 191.137 218.383L158.484 199.494C157.869 199.152 157.459 199.426 157.391 200.11C157.391 200.795 157.869 201.616 158.415 201.958L191.068 220.847C191.683 221.121 192.161 220.847 192.161 220.231ZM184.784 211.06C184.784 211.745 184.305 212.018 183.759 211.676L158.484 197.031C157.869 196.688 157.459 195.867 157.459 195.183C157.459 194.499 157.937 194.225 158.484 194.567L183.759 209.213C184.305 209.555 184.784 210.376 184.784 211.06Z" fill="#5B86E5"/>
<path d="M278.302 300.918C278.302 303.724 276.321 304.888 273.862 303.45L241.96 284.972C239.501 283.535 237.52 280.113 237.52 277.307V250.069C237.52 247.264 239.501 246.1 241.96 247.537L273.862 266.015C276.321 267.452 278.302 270.874 278.302 273.68V300.918Z" fill="white"/>
<path d="M275.843 304.956C275.091 304.956 274.272 304.682 273.452 304.203L241.55 285.725C238.818 284.151 236.7 280.455 236.7 277.376V250.138C236.7 248.495 237.315 247.195 238.408 246.579C239.501 245.963 240.936 246.031 242.37 246.921L274.272 265.399C277.004 266.973 279.122 270.669 279.122 273.748V300.986C279.122 302.697 278.507 303.929 277.414 304.545C276.936 304.819 276.458 304.956 275.843 304.956ZM240.047 247.879C239.774 247.879 239.501 247.948 239.296 248.084C238.75 248.427 238.408 249.179 238.408 250.206V277.444C238.408 279.908 240.252 283.124 242.37 284.356L274.272 302.834C275.16 303.382 275.979 303.45 276.526 303.176C277.072 302.834 277.414 302.081 277.414 301.055V273.817C277.414 271.285 275.57 268.137 273.452 266.905L241.55 248.427C241.004 248.016 240.457 247.879 240.047 247.879Z" fill="#4978E0"/>
<path d="M246.059 269.574V267.658L253.026 268.753V270.669L248.245 269.848L253.026 274.57V276.486L246.059 269.574ZM259.858 268L261.907 269.163L256.032 282.988L254.051 281.824L259.858 268ZM262.863 282.235V280.319L267.645 281.14L262.863 276.418V274.501L269.831 281.482V283.398L262.863 282.235Z" fill="#CCDCFF"/>
<path d="M318.197 110.731V87.0518C318.197 84.7249 316.557 81.919 314.508 80.6871L275.98 58.3766C273.93 57.2132 272.291 58.1713 272.291 60.4982V84.1774C272.291 86.5043 273.93 89.3102 275.98 90.5421L279.669 92.6636C285.953 96.2908 287.388 98.4124 290.12 103.203L293.058 108.336C293.604 109.362 294.424 110.115 295.175 110.526C295.927 110.936 296.678 111.073 297.293 110.731L300.231 109.02C302.963 107.446 304.398 106.967 310.751 110.594L314.439 112.716C315.464 113.332 316.352 113.332 317.035 112.989C317.787 112.716 318.197 111.894 318.197 110.731Z" fill="white"/>
<path d="M316.147 114.153C315.464 114.153 314.781 113.948 314.098 113.537L310.409 111.416C304.193 107.857 303.168 108.473 300.777 109.842L297.84 111.553C297.02 112.032 295.927 111.963 294.902 111.347C294.014 110.8 293.126 109.91 292.511 108.815L289.574 103.682C286.91 99.0285 285.544 96.9754 279.395 93.4167L275.707 91.2951C273.384 89.9948 271.608 86.8467 271.608 84.2461V60.5668C271.608 59.1296 272.154 58.0346 273.111 57.4871C274.067 56.9396 275.297 57.0081 276.526 57.7609L315.054 80.0714C317.377 81.3717 319.153 84.5198 319.153 87.1204V110.8C319.153 112.237 318.606 113.332 317.65 113.879C317.104 114.016 316.694 114.153 316.147 114.153ZM303.783 107.036C305.491 107.036 307.677 107.857 311.229 109.91L314.918 112.032C315.601 112.442 316.215 112.511 316.625 112.305C317.035 112.1 317.24 111.484 317.308 110.663V86.9836C317.308 84.9304 315.806 82.3983 314.098 81.3717L275.57 59.0612C274.887 58.6506 274.272 58.5821 273.862 58.7874C273.452 58.9928 273.247 59.6087 273.247 60.4299V84.1092C273.247 86.1623 274.75 88.6945 276.458 89.7211L280.147 91.8426C286.705 95.6066 288.208 97.9335 290.94 102.724L293.878 107.857C294.356 108.678 295.039 109.363 295.654 109.773C296.132 110.047 296.61 110.115 296.883 109.978L299.821 108.268C301.255 107.583 302.417 107.036 303.783 107.036Z" fill="#4978E0"/>
<path d="M286.91 83.6987C286.363 83.9724 285.68 83.9724 284.86 83.4934C283.289 82.5352 281.991 80.3452 281.991 78.4974C281.991 77.5393 282.333 76.9234 282.811 76.5812C283.357 76.3075 284.041 76.3075 284.86 76.7865C286.431 77.7446 287.729 79.9346 287.729 81.7824C287.729 82.7405 287.388 83.3565 286.91 83.6987ZM298.386 88.0102C298.386 86.1624 297.088 83.904 295.517 83.0143C294.697 82.5352 294.014 82.5352 293.468 82.809C292.921 83.0827 292.648 83.7671 292.648 84.6568C292.648 86.5046 293.946 88.763 295.517 89.6527C296.337 90.1318 297.02 90.1318 297.566 89.858C298.113 89.5843 298.386 88.8999 298.386 88.0102ZM309.111 94.1695C309.111 92.3217 307.813 90.0633 306.242 89.1736C305.422 88.6946 304.739 88.6946 304.193 88.9683C303.646 89.2421 303.373 89.9264 303.373 90.8846C303.373 92.7324 304.671 94.9908 306.242 95.8805C307.062 96.3595 307.745 96.3595 308.291 96.0858C308.769 95.7436 309.111 95.0592 309.111 94.1695Z" fill="#CCDCFF"/>
</svg>
