<svg width="432" height="400" viewBox="0 0 432 400" fill="none" xmlns="http://www.w3.org/2000/svg">
<path d="M57.5405 115.73C55.7896 112.145 56.54 107.476 59.3747 104.641C62.1261 101.807 66.7117 100.89 70.3802 102.474C70.2968 94.3862 76.0497 87.4661 82.553 82.6304C85.888 80.1291 89.6399 77.9613 93.8086 77.5445C99.228 76.9608 104.731 79.4621 108.733 83.1306C112.818 86.7991 115.653 91.5515 118.321 96.3873C119.988 93.5525 123.907 92.3852 126.825 93.886C129.743 95.3867 131.244 99.1386 129.993 102.224C136.413 101.14 143.167 106.642 143.5 113.146" fill="white"/>
<path d="M0.178497 163.587C1.34575 161.169 0.845497 158.168 -0.988754 156.25C-2.82301 154.333 -5.90789 153.749 -8.32577 154.833C-8.24239 149.497 -12.0776 144.911 -16.3298 141.743C-18.5809 140.076 -20.9988 138.658 -23.7502 138.325C-27.3353 137.908 -30.9204 139.575 -33.6718 141.993C-36.3398 144.411 -38.2574 147.579 -40.0083 150.748C-41.0922 148.913 -43.7602 148.163 -45.6778 149.08C-47.5955 149.997 -48.596 152.582 -47.7622 154.583C-52.0143 153.832 -56.5166 157.501 -56.6833 161.836" fill="white"/>
<path d="M381.119 163.587C382.287 161.169 381.786 158.168 379.952 156.25C378.118 154.333 375.033 153.749 372.615 154.833C372.699 149.497 368.863 144.911 364.611 141.743C362.36 140.076 359.942 138.658 357.191 138.325C353.606 137.908 350.02 139.575 347.269 141.993C344.518 144.411 342.683 147.579 340.933 150.748C339.849 148.913 337.181 148.163 335.263 149.08C333.345 149.997 332.345 152.582 333.179 154.583C328.927 153.832 324.424 157.501 324.258 161.836" fill="white"/>
<path d="M319.589 190.017C319.589 187.85 317.838 186.099 315.67 186.099C313.502 186.099 311.751 187.85 311.751 190.017C311.751 192.185 313.502 193.936 315.67 193.936C317.838 193.936 319.589 192.102 319.589 190.017Z" fill="white"/>
<path d="M103.897 155.584C103.897 153.75 102.397 152.249 100.562 152.249C98.728 152.249 97.2273 153.75 97.2273 155.584C97.2273 157.418 98.728 158.919 100.562 158.919C102.397 158.919 103.897 157.418 103.897 155.584Z" fill="white"/>
<path d="M127.743 119.566C127.743 117.398 125.992 115.647 123.824 115.647C121.656 115.647 119.905 117.398 119.905 119.566C119.905 121.734 121.656 123.485 123.824 123.485C125.992 123.485 127.743 121.734 127.743 119.566Z" fill="white"/>
<path d="M112.235 112.895C112.235 112.312 111.735 111.812 111.151 111.812C110.567 111.812 110.067 112.312 110.067 112.895C110.067 113.479 110.567 113.979 111.151 113.979C111.735 114.063 112.235 113.562 112.235 112.895Z" fill="white"/>
<path d="M233.629 126.236C235.148 126.236 236.38 125.004 236.38 123.485C236.38 121.965 235.148 120.733 233.629 120.733C232.109 120.733 230.877 121.965 230.877 123.485C230.877 125.004 232.109 126.236 233.629 126.236Z" fill="white"/>
<path d="M414.386 330.255C414.386 328.087 412.635 326.336 410.468 326.336C408.3 326.336 406.549 328.087 406.549 330.255C406.549 332.422 408.3 334.173 410.468 334.173C412.635 334.173 414.386 332.422 414.386 330.255Z" fill="white"/>
<path d="M4.09723 246.046C4.09723 244.795 3.09673 243.795 1.8461 243.795C0.595476 243.795 -0.405029 244.795 -0.405029 246.046C-0.405029 247.297 0.595476 248.297 1.8461 248.297C3.09673 248.214 4.09723 247.213 4.09723 246.046Z" fill="white"/>
<path d="M0.762358 196.104C0.762358 193.019 -1.73889 190.518 -4.82377 190.518C-7.90865 190.518 -10.4099 193.019 -10.4099 196.104C-10.4099 199.189 -7.90865 201.69 -4.82377 201.69C-1.73889 201.606 0.762358 199.189 0.762358 196.104Z" fill="white"/>
<g opacity="0.68">
<path opacity="0.68" d="M-92.6182 402.374C-98.6212 395.621 -98.5378 376.028 -93.7855 368.357C-89.0331 360.687 -79.0281 356.685 -70.2737 359.019C-74.359 343.095 -71.024 326.169 -66.0215 310.412C-62.353 298.739 -57.6006 287.066 -49.2631 278.145C-36.5067 264.305 -16.4967 258.719 2.26271 260.22C21.0221 261.72 38.781 269.474 54.9558 279.146C65.7112 237.458 77.7172 193.436 108.816 163.588C148.503 125.569 214.536 121.15 261.393 149.831C308.249 178.512 334.346 235.874 329.76 290.652C346.936 288.901 365.361 291.569 379.035 302.074C392.708 312.579 400.129 332.339 392.875 348.014C428.643 339.843 468.58 365.439 476 401.374" fill="#B2C8F5"/>
</g>
<g opacity="0.24">
<path opacity="0.24" d="M-92.6184 402.374C-98.6215 396.788 -98.5381 380.78 -93.7857 374.443C-89.0333 368.19 -79.0283 364.855 -70.2739 366.773C-74.3593 353.683 -71.0243 339.759 -66.0218 326.92C-62.3533 317.331 -57.6009 307.827 -49.2634 300.406C-36.507 289.067 -16.4969 284.482 2.26247 285.649C21.0219 286.816 38.7808 293.236 54.9556 301.157C65.7109 266.973 77.717 230.871 108.816 206.359C148.502 175.177 214.536 171.592 261.392 195.02C308.249 218.449 334.346 265.639 329.76 310.495C346.935 309.077 365.361 311.245 379.035 319.833C392.708 328.42 400.129 344.679 392.875 357.518C428.643 350.765 468.58 371.859 476 401.29" fill="#B2C8F5"/>
</g>
<g opacity="0.28">
<g opacity="0.28">
<g opacity="0.28">
<g opacity="0.28">
<path opacity="0.28" d="M127.576 311.913C124.324 318.5 120.906 325.003 117.488 331.506C113.569 338.843 109.567 346.18 105.398 353.434C111.234 369.025 115.903 385.116 119.405 401.458L158.758 401.375C158.675 401.375 146.586 357.936 127.576 311.913Z" fill="#3D6ACC"/>
<path opacity="0.28" d="M100.646 341.595C101.897 344.513 103.064 347.432 104.231 350.433C111.902 337.01 119.155 323.336 126.075 309.496C126.159 309.329 126.326 309.162 126.409 309.079C125.325 306.578 124.325 304.076 123.157 301.575C115.237 314.582 107.816 327.922 100.813 341.512C100.729 341.512 100.646 341.512 100.646 341.595Z" fill="#3D6ACC"/>
<path opacity="0.28" d="M56.2069 357.269C60.1256 364.439 64.1276 371.526 67.2958 379.113C70.0472 385.7 72.5485 392.87 72.4651 400.124C76.8006 394.121 80.9694 388.035 84.9714 381.865C91.1411 372.443 96.9774 362.939 102.564 353.184C94.3928 331.506 83.8875 310.746 71.4646 291.153C63.9608 279.397 55.7067 268.141 46.7855 257.386C46.7022 257.386 46.7022 257.386 46.6188 257.386C40.6158 258.053 34.6128 258.803 28.6931 259.804C24.0241 260.554 19.3551 261.471 14.6861 262.388C15.9367 266.557 17.6876 270.392 20.0221 273.811C36.1135 297.322 14.0191 288.568 1.42948 294.821C0.679101 295.238 -0.154653 295.738 -0.905029 296.322C8.51636 300.074 16.3536 306.41 23.5239 313.414C36.6138 326.42 47.2858 341.178 56.2069 357.269Z" fill="#3D6ACC"/>
<path opacity="0.28" d="M108.233 369.359C106.816 364.94 105.315 360.604 103.731 356.186C94.6431 371.693 84.9716 386.951 74.4663 401.542L116.821 401.458C114.486 390.619 111.652 379.947 108.233 369.359Z" fill="#3D6ACC"/>
<path opacity="0.28" d="M44.868 255.135C36.0302 244.713 26.5254 234.791 16.3537 225.453C12.0182 235.875 11.2678 248.798 14.0192 259.97C24.1909 257.886 34.4461 256.302 44.868 255.135Z" fill="#3D6ACC"/>
<path opacity="0.28" d="M35.6134 206.944C35.1965 210.529 38.3647 214.281 42.2 213.781C45.6184 213.28 47.8695 209.362 46.9524 206.11C46.9524 206.027 46.869 205.86 46.869 205.777C42.7836 205.276 39.0317 205.61 35.6134 206.61C35.6134 206.694 35.6134 206.777 35.6134 206.944Z" fill="#3D6ACC"/>
<path opacity="0.28" d="M63.4607 376.696C60.2091 369.693 56.3738 362.939 52.6219 356.102C48.2864 348.182 43.2839 340.678 37.7811 333.508C32.3618 326.421 26.3588 319.834 19.9389 313.665C13.519 307.578 6.43211 301.992 -1.90541 298.74C-2.32228 298.574 -2.57241 298.24 -2.73916 297.823C-11.5769 306.077 -19.0807 326.004 1.34622 343.179C24.858 363.023 19.9389 365.44 16.187 380.281C12.4351 395.122 18.3548 401.625 18.3548 401.625L69.7972 401.542C70.3808 392.954 67.0458 384.367 63.4607 376.696Z" fill="#3D6ACC"/>
<path opacity="0.28" d="M17.4375 223.119C29.4435 234.124 40.6992 245.963 50.9543 258.636C69.2968 281.231 84.7212 306.16 96.7273 332.673C97.6444 334.591 98.4781 336.592 99.3119 338.593C106.149 325.503 113.319 312.663 120.989 300.074C121.24 299.574 121.74 299.407 122.157 299.49C102.647 255.051 76.9674 211.779 49.5369 206.193C50.3707 210.696 47.2024 215.531 42.5334 216.198C37.5309 216.949 32.8619 212.363 33.112 207.444C26.1085 210.279 20.8559 215.948 17.4375 223.119Z" fill="#3D6ACC"/>
</g>
<g opacity="0.28">
<path opacity="0.28" d="M92.7252 402.209C92.7252 402.209 75.0497 375.529 56.0401 351.767C50.7041 358.186 45.5349 364.773 40.5323 371.526L40.449 371.61C48.3696 380.948 55.9567 390.619 62.9603 400.624C63.2104 400.958 63.127 401.291 62.8769 401.542L92.7252 402.209Z" fill="white"/>
<path opacity="0.28" d="M39.4484 370.359C44.4509 363.606 49.7036 357.019 55.0396 350.516C52.2048 347.014 49.2867 343.512 46.4519 340.261C42.0331 348.515 37.9477 356.936 35.5298 366.024C36.8638 367.441 38.1144 368.858 39.4484 370.359Z" fill="white"/>
<path opacity="0.28" d="M61.6263 401.458C58.7082 397.289 55.7066 393.12 52.5384 389.118C51.6213 387.951 50.7041 386.784 49.787 385.533C49.7036 385.533 49.7036 385.533 49.6203 385.533C37.4475 385.533 25.108 385.283 13.0186 387.618C12.0181 387.784 11.6012 386.284 12.6017 386.117C24.441 383.866 36.5304 383.949 48.5364 383.949C39.782 372.86 30.444 362.271 20.5223 352.266C20.3556 353.434 19.8553 354.434 18.7715 355.018C9.35008 360.521 8.51632 340.844 -7.99196 348.765C-24.5002 356.602 24.2742 400.707 24.2742 400.707L61.6263 401.458Z" fill="white"/>
<path opacity="0.28" d="M28.7764 358.52C30.6941 360.521 32.5283 362.522 34.3626 364.606C36.8638 355.602 40.9492 347.181 45.3681 339.01C32.9452 324.836 21.2727 314.331 14.8528 315.748C0.0953779 319 18.3545 339.51 20.4389 349.932C23.2737 352.683 26.0251 355.602 28.7764 358.52Z" fill="white"/>
</g>
</g>
</g>
</g>
<g opacity="0.28">
<g opacity="0.28">
<g opacity="0.28">
<g opacity="0.28">
<path opacity="0.28" d="M239.048 311.913C242.3 318.5 245.718 325.003 249.137 331.506C253.055 338.843 257.057 346.18 261.226 353.434C255.39 369.025 250.721 385.116 247.219 401.458L207.866 401.375C207.949 401.375 219.955 357.936 239.048 311.913Z" fill="#3D6ACC"/>
<path opacity="0.28" d="M265.978 341.595C264.728 344.513 263.561 347.432 262.393 350.433C254.723 337.01 247.469 323.336 240.549 309.496C240.466 309.329 240.299 309.162 240.216 309.079C241.299 306.578 242.3 304.076 243.467 301.575C251.388 314.582 258.808 327.922 265.812 341.512C265.895 341.512 265.978 341.512 265.978 341.595Z" fill="#3D6ACC"/>
<path opacity="0.28" d="M310.417 357.27C306.499 364.44 302.497 371.527 299.328 379.114C296.577 385.701 294.076 392.871 294.159 400.125C289.824 394.122 285.655 388.036 281.653 381.866C275.483 372.444 269.647 362.94 264.061 353.185C272.232 331.507 282.737 310.747 295.16 291.154C302.663 279.398 310.918 268.142 319.839 257.387C319.922 257.387 319.922 257.387 320.006 257.387C326.009 258.054 332.012 258.804 337.931 259.805C342.6 260.555 347.269 261.472 351.938 262.389C350.688 266.558 348.937 270.393 346.602 273.812C330.511 297.323 352.605 288.569 365.195 294.822C365.945 295.239 366.779 295.739 367.529 296.323C358.108 300.075 350.271 306.411 343.1 313.415C330.011 326.421 319.339 341.179 310.417 357.27Z" fill="#3D6ACC"/>
<path opacity="0.28" d="M258.391 369.359C259.809 364.94 261.309 360.604 262.894 356.186C271.981 371.693 281.653 386.951 292.158 401.542L249.804 401.458C252.138 390.619 254.973 379.947 258.391 369.359Z" fill="#3D6ACC"/>
<path opacity="0.28" d="M321.757 255.135C330.594 244.713 340.099 234.791 350.271 225.453C354.606 235.875 355.357 248.798 352.605 259.97C342.434 257.886 332.178 256.302 321.757 255.135Z" fill="#3D6ACC"/>
<path opacity="0.28" d="M331.011 206.944C331.428 210.529 328.26 214.281 324.424 213.781C321.006 213.28 318.755 209.362 319.672 206.11C319.672 206.027 319.755 205.86 319.755 205.777C323.841 205.276 327.593 205.61 331.011 206.61C331.011 206.694 331.011 206.777 331.011 206.944Z" fill="#3D6ACC"/>
<path opacity="0.28" d="M303.164 376.696C306.415 369.693 310.251 362.939 314.003 356.102C318.338 348.182 323.341 340.678 328.843 333.508C334.263 326.421 340.266 319.834 346.686 313.665C353.106 307.578 360.192 301.992 368.53 298.74C368.947 298.574 369.197 298.24 369.364 297.823C378.201 306.077 385.705 326.004 365.278 343.179C341.766 363.023 346.686 365.44 350.438 380.281C354.189 395.122 348.27 401.625 348.27 401.625L296.827 401.542C296.244 392.954 299.579 384.367 303.164 376.696Z" fill="#3D6ACC"/>
<path opacity="0.28" d="M349.187 223.119C337.181 234.124 325.925 245.963 315.67 258.636C297.327 281.231 281.903 306.16 269.897 332.673C268.98 334.591 268.146 336.592 267.312 338.593C260.476 325.503 253.305 312.663 245.635 300.074C245.385 299.574 244.884 299.407 244.468 299.49C264.061 255.051 289.74 211.779 317.171 206.193C316.337 210.696 319.505 215.531 324.174 216.198C329.177 216.949 333.846 212.363 333.596 207.444C340.516 210.279 345.768 215.948 349.187 223.119Z" fill="#3D6ACC"/>
</g>
<g opacity="0.28">
<path opacity="0.28" d="M273.899 402.208C273.899 402.208 291.575 375.528 310.584 351.766C315.92 358.186 321.09 364.772 326.092 371.526L326.175 371.609C318.255 380.947 310.668 390.618 303.664 400.623C303.414 400.957 303.497 401.29 303.747 401.541L273.899 402.208Z" fill="white"/>
<path opacity="0.28" d="M327.176 370.358C322.173 363.605 316.921 357.018 311.585 350.515C314.419 347.013 317.338 343.511 320.172 340.26C324.591 348.514 328.677 356.935 331.095 366.023C329.761 367.44 328.427 368.857 327.176 370.358Z" fill="white"/>
<path opacity="0.28" d="M304.998 401.458C307.916 397.289 310.918 393.12 314.086 389.118C315.003 387.951 315.92 386.784 316.837 385.533C316.921 385.533 316.921 385.533 317.004 385.533C329.177 385.533 341.516 385.283 353.606 387.618C354.606 387.784 355.023 386.284 354.023 386.117C342.183 383.866 330.094 383.949 318.088 383.949C326.842 372.86 336.18 362.271 346.102 352.266C346.269 353.434 346.769 354.434 347.853 355.018C357.274 360.521 358.108 340.844 374.616 348.765C391.125 356.602 342.35 400.707 342.35 400.707L304.998 401.458Z" fill="white"/>
<path opacity="0.28" d="M346.185 349.848C348.186 339.426 366.529 318.916 351.771 315.664C345.352 314.247 333.679 324.752 321.256 338.926C325.675 347.097 329.844 355.518 332.262 364.522C334.096 362.438 335.93 360.437 337.848 358.436C340.599 355.601 343.351 352.683 346.185 349.848Z" fill="white"/>
</g>
</g>
</g>
</g>
<g opacity="0.61">
<path opacity="0.61" d="M-56.2666 402.374C-53.9321 390.368 -36.1732 378.362 -24.2505 381.197C-20.8322 367.523 -2.15614 360.437 9.51638 368.357C13.3516 353.767 18.0206 337.925 30.6937 329.755C45.0342 320.417 65.0442 325.002 78.3842 335.841C91.6409 346.68 99.6449 362.521 107.315 377.779C108.566 373.943 113.985 372.943 117.487 374.944C120.989 376.945 122.99 380.78 124.741 384.449C144 374.944 157.674 355.017 159.675 333.59L195.443 326.003C198.861 340.76 202.78 356.351 213.702 366.856C224.624 377.278 245.051 379.196 253.555 366.69C255.473 363.938 256.807 360.437 259.809 359.019C265.728 356.184 271.481 363.188 274.399 369.108C279.652 358.769 296.327 357.102 303.581 366.106C309.583 345.512 331.595 331.005 352.939 333.506C374.199 336.008 392.208 355.351 393.209 376.778C407.299 371.359 430.894 386.783 435.063 401.29" fill="white"/>
</g>
<g opacity="0.79">
<path opacity="0.79" d="M162.093 342.427C160.759 345.345 160.008 348.514 159.758 351.765C159.758 352.266 159.675 352.766 159.842 353.183C160.258 354.267 161.676 354.6 162.76 354.267C163.844 353.933 164.677 353.016 165.428 352.182C166.011 363.104 171.264 373.776 179.518 380.947C179.935 381.28 180.435 381.697 180.935 381.614C181.352 381.53 181.769 381.28 182.103 380.947C189.94 373.193 194.192 361.937 193.275 350.932C195.193 352.182 197.944 350.098 198.111 347.763C198.277 345.429 196.86 343.344 195.609 341.427" fill="white"/>
</g>
<path d="M205.448 323.418V305.909H154.506V323.418V323.335C147.836 327.67 144.584 335.257 144.584 343.761H215.286C215.369 335.174 212.118 327.753 205.448 323.418Z" fill="#18004C"/>
<path d="M171.18 310.077C182.353 314.663 205.531 323.334 205.531 323.334V305.825H160.925C164.26 307.326 167.679 308.66 171.18 310.077Z" fill="#0A0A0A"/>
<path d="M226.375 240.459L245.635 262.97C250.304 268.473 252.471 275.643 251.554 282.814L246.302 323.501C245.968 326.335 243.217 328.336 240.382 327.836C237.881 327.419 236.046 325.168 236.213 322.583L237.214 304.241C237.797 292.985 230.043 282.897 219.038 280.646L226.375 240.459Z" fill="#5B86E5"/>
<path d="M134.829 240.459L115.569 262.97C110.9 268.473 108.733 275.643 109.65 282.814L114.902 323.501C115.236 326.335 117.987 328.336 120.822 327.836C123.323 327.419 125.158 325.168 124.991 322.583L123.99 304.241C123.407 292.985 131.161 282.897 142.166 280.646L134.829 240.459Z" fill="#5B86E5"/>
<path d="M238.631 254.883L226.292 240.459L218.955 280.646C221.122 281.063 223.207 281.813 225.041 282.814C229.46 273.476 233.879 264.138 238.631 254.883Z" fill="#4B6BB3"/>
<path d="M124.491 266.222C128.659 271.641 132.995 276.977 137.247 282.313C138.831 281.563 140.415 281.063 142.166 280.646L134.829 240.459L119.321 258.635C121.239 261.386 122.906 264.221 124.491 266.222Z" fill="#4B6BB3"/>
<path d="M144.251 299.907C144.251 299.907 132.328 269.308 132.912 237.125C133.495 204.942 125.575 133.573 148.169 87.1332C161.759 59.4527 170.264 48.0303 174.849 43.3613C176.934 41.2769 180.435 41.527 182.186 43.8615C189.273 53.3663 207.616 78.4622 212.201 89.301C217.871 102.891 230.877 128.904 226.375 240.377C226.375 240.377 224.124 281.731 216.203 299.823H144.251V299.907Z" fill="white"/>
<path opacity="0.37" d="M145.001 123.818C148.336 101.64 153.672 78.7119 167.012 60.2026C167.596 59.4522 168.263 58.8686 168.93 58.4517C172.348 52.949 175.766 47.5296 179.185 42.0268C177.684 41.7767 176.1 42.1936 174.849 43.3608C170.18 48.0298 161.759 59.3689 148.253 87.0494C125.574 133.489 133.579 204.775 132.995 237.041C132.411 269.307 144.334 299.823 144.334 299.823L216.787 299.489C146.168 298.739 140.499 235.457 139.582 200.356C138.831 174.843 141.249 149.081 145.001 123.818Z" fill="#95A1E6"/>
<path d="M203.03 87.717C206.115 88.2173 209.116 88.8009 212.201 89.3846C207.699 78.4624 189.356 53.4499 182.186 43.9451C180.435 41.5272 176.933 41.2771 174.849 43.4448C170.18 48.1139 161.759 59.4529 148.252 87.1334C148.002 87.717 147.669 88.3007 147.419 88.9677C165.511 84.382 184.687 84.7989 203.03 87.717Z" fill="#5B86E5"/>
<path d="M167.512 66.7059C172.848 59.619 177.851 52.282 183.187 45.1951C182.853 44.6949 182.52 44.278 182.186 43.8611C180.435 41.4432 176.933 41.1931 174.849 43.3609C170.18 48.0299 161.759 59.3689 148.252 87.0494C148.002 87.6331 147.669 88.2167 147.419 88.8837C150.003 88.2167 152.588 87.7164 155.173 87.2996C158.007 79.7958 162.676 73.1258 167.512 66.7059Z" fill="#4B6BB3"/>
<path d="M213.702 309.244H147.335C144.334 309.244 141.916 306.826 141.916 303.825C141.916 300.823 144.334 298.405 147.335 298.405H213.702C216.703 298.405 219.121 300.823 219.121 303.825C219.038 306.826 216.703 309.244 213.702 309.244Z" fill="#18004C"/>
<path d="M178.935 112.562C163.177 112.562 150.42 125.319 150.42 141.077C150.42 156.835 163.177 169.591 178.935 169.591C194.693 169.591 207.449 156.835 207.449 141.077C207.532 125.319 194.693 112.562 178.935 112.562ZM178.935 161.254C167.762 161.254 158.675 152.166 158.675 140.993C158.675 129.821 167.762 120.733 178.935 120.733C190.107 120.733 199.195 129.821 199.195 140.993C199.195 152.249 190.107 161.254 178.935 161.254Z" fill="#18004C"/>
<path opacity="0.37" d="M183.473 160.832C194.376 158.319 201.177 147.443 198.664 136.54C196.151 125.637 185.275 118.836 174.372 121.349C163.469 123.862 156.668 134.738 159.181 145.641C161.694 156.544 172.57 163.345 183.473 160.832Z" fill="#95A1E6"/>
<g opacity="0.6">
<path opacity="0.6" d="M158.841 142.494C159.592 152.999 168.263 161.337 179.018 161.337C180.686 161.337 182.27 161.087 183.854 160.753C175.433 154.75 167.095 148.664 158.841 142.494Z" fill="#FCFAF5"/>
<path opacity="0.6" d="M194.443 154.083C197.444 150.581 199.195 145.996 199.195 141.077C199.195 129.904 190.107 120.816 178.935 120.816C171.681 120.816 165.345 124.652 161.76 130.321C172.598 138.492 183.437 146.413 194.443 154.083Z" fill="#FCFAF5"/>
</g>
<path d="M180.935 116.731C180.935 115.647 180.102 114.813 179.018 114.813C177.934 114.813 177.1 115.647 177.1 116.731C177.1 117.815 177.934 118.649 179.018 118.649C180.018 118.732 180.935 117.815 180.935 116.731Z" stroke="#3D6ACC" stroke-width="0.3478" stroke-miterlimit="10"/>
<path d="M180.935 165.339C180.935 164.255 180.102 163.421 179.018 163.421C177.934 163.421 177.1 164.255 177.1 165.339C177.1 166.422 177.934 167.256 179.018 167.256C180.018 167.256 180.935 166.422 180.935 165.339Z" stroke="#3D6ACC" stroke-width="0.3478" stroke-miterlimit="10"/>
<path d="M197.527 125.236C198.277 124.486 198.277 123.235 197.527 122.485C196.777 121.734 195.526 121.734 194.776 122.485C194.025 123.235 194.025 124.486 194.776 125.236C195.526 125.986 196.777 125.986 197.527 125.236Z" stroke="#3D6ACC" stroke-width="0.3478" stroke-miterlimit="10"/>
<path d="M161.759 160.17C162.818 160.17 163.677 159.312 163.677 158.253C163.677 157.194 162.818 156.335 161.759 156.335C160.7 156.335 159.841 157.194 159.841 158.253C159.841 159.312 160.7 160.17 161.759 160.17Z" stroke="#3D6ACC" stroke-width="0.3478" stroke-miterlimit="10"/>
<path d="M203.28 142.994C204.364 142.994 205.198 142.161 205.198 141.077C205.198 139.993 204.364 139.159 203.28 139.159C202.196 139.159 201.362 139.993 201.362 141.077C201.362 142.161 202.196 142.994 203.28 142.994Z" stroke="#3D6ACC" stroke-width="0.3478" stroke-miterlimit="10"/>
<path d="M154.672 142.994C155.756 142.994 156.59 142.161 156.59 141.077C156.59 139.993 155.756 139.159 154.672 139.159C153.588 139.159 152.754 139.993 152.754 141.077C152.754 142.161 153.588 142.994 154.672 142.994Z" stroke="#3D6ACC" stroke-width="0.3478" stroke-miterlimit="10"/>
<path d="M194.776 159.587C195.526 160.337 196.777 160.337 197.527 159.587C198.278 158.836 198.278 157.586 197.527 156.835C196.777 156.085 195.526 156.085 194.776 156.835C194.026 157.669 194.026 158.836 194.776 159.587Z" stroke="#3D6ACC" stroke-width="0.3478" stroke-miterlimit="10"/>
<path d="M161.759 125.82C162.818 125.82 163.677 124.961 163.677 123.902C163.677 122.843 162.818 121.984 161.759 121.984C160.7 121.984 159.842 122.843 159.842 123.902C159.842 124.961 160.7 125.82 161.759 125.82Z" stroke="#3D6ACC" stroke-width="0.3478" stroke-miterlimit="10"/>
<path d="M132.661 181.931C132.661 181.931 180.519 165.756 225.208 181.181" stroke="#3D6ACC" stroke-width="0.6955" stroke-miterlimit="10" stroke-dasharray="5.56 5.56"/>
<path d="M138.498 112.395C151.838 108.893 186.188 101.89 219.872 111.645" stroke="#3D6ACC" stroke-width="0.6955" stroke-miterlimit="10" stroke-dasharray="5.56 5.56"/>
<path d="M132.661 193.52C132.661 193.52 180.519 177.345 225.208 192.77" stroke="#3D6ACC" stroke-width="0.6955" stroke-miterlimit="10" stroke-dasharray="5.56 5.56"/>
<g opacity="0.79">
<path opacity="0.79" d="M197.861 356.352C198.945 360.27 200.612 364.022 202.697 367.357C204.781 370.775 207.366 373.86 210.367 376.445C213.369 379.03 216.787 381.197 220.456 382.781C224.124 384.366 228.043 385.449 232.045 386.033C227.959 386.2 223.791 385.449 219.955 384.032C216.037 382.615 212.451 380.447 209.283 377.779C206.115 375.028 203.53 371.776 201.529 368.107C199.612 364.356 198.278 360.354 197.861 356.352Z" fill="white"/>
</g>
<g opacity="0.79">
<path opacity="0.79" d="M162.843 360.271C162.426 363.939 161.342 367.441 159.842 370.859C158.341 374.194 156.34 377.362 154.005 380.281C151.671 383.115 148.919 385.7 145.918 387.784C142.916 389.952 139.581 391.62 136.08 392.703C139.331 390.953 142.333 388.952 145.084 386.7C147.835 384.449 150.42 381.948 152.671 379.113C154.922 376.362 156.923 373.36 158.674 370.192C160.342 367.107 161.759 363.772 162.843 360.271Z" fill="white"/>
</g>
<g opacity="0.79">
<path opacity="0.79" d="M166.095 379.613C165.845 380.864 165.428 382.031 165.011 383.198C164.594 384.366 164.094 385.533 163.51 386.617C162.927 387.701 162.343 388.785 161.676 389.868C161.009 390.952 160.259 391.953 159.425 392.87C159.675 391.619 160.092 390.452 160.509 389.285C160.926 388.118 161.426 386.95 162.009 385.866C162.593 384.783 163.177 383.699 163.844 382.615C164.511 381.614 165.261 380.614 166.095 379.613Z" fill="white"/>
</g>
<g opacity="0.79">
<path opacity="0.79" d="M181.102 387.95C181.519 388.45 181.769 388.951 182.02 389.534C182.27 390.035 182.353 390.618 182.436 391.202C182.52 391.785 182.603 392.286 182.52 392.869C182.52 393.453 182.436 394.037 182.186 394.62C181.769 394.12 181.519 393.62 181.269 393.036C181.019 392.536 180.936 391.952 180.852 391.369C180.769 390.785 180.686 390.285 180.769 389.701C180.769 389.117 180.852 388.534 181.102 387.95Z" fill="white"/>
</g>
<g opacity="0.79">
<path opacity="0.79" d="M192.275 379.029L194.526 382.614C195.276 383.782 196.027 384.866 196.86 386.033C197.694 387.117 198.528 388.201 199.362 389.284L202.113 392.453C200.779 391.869 199.528 391.119 198.444 390.202C197.361 389.284 196.36 388.201 195.443 387.033C194.609 385.866 193.859 384.615 193.275 383.281C192.775 381.947 192.358 380.53 192.275 379.029Z" fill="white"/>
</g>
<path d="M34.1684 353.138H101.952V348.219H34.1684V353.138Z" fill="#18004C"/>
<path d="M73.8822 406.043L100.979 353.35H34.3624L7.18213 406.043" stroke="#18004C" stroke-width="0.679" stroke-miterlimit="10"/>
<path d="M90.8074 372.193H24.5242" stroke="#18004C" stroke-width="0.679" stroke-miterlimit="10"/>
<path d="M79.1348 394.788H12.8516" stroke="#18004C" stroke-width="0.679" stroke-miterlimit="10"/>
<path d="M74.7159 407.294L78.7179 399.54L74.966 399.623L71.0474 407.377L74.7159 407.294Z" fill="#3D6ACC"/>
<path d="M8.84965 407.294L12.8517 399.54L9.09978 399.623L5.18115 407.377L8.84965 407.294Z" fill="#3D6ACC"/>
<path d="M115.32 402.458L100.979 353.35" stroke="#18004C" stroke-width="0.679" stroke-miterlimit="10"/>
<path d="M48.8696 402.458L34.5291 353.35" stroke="#18004C" stroke-width="0.679" stroke-miterlimit="10"/>
<path d="M111.651 198.604C111.651 198.604 97.3108 220.532 93.3922 217.781C93.3922 217.781 87.139 214.612 89.3901 201.689C89.3901 200.439 89.3901 199.605 89.3901 199.355C89.3901 199.355 88.3896 186.598 86.3053 184.014C86.0551 183.764 85.3881 183.18 85.4715 183.18C91.8914 181.596 94.3926 195.186 96.1435 202.606C96.2269 202.94 108.316 193.519 108.316 193.519C108.316 193.519 114.736 185.098 115.153 185.598C115.82 186.265 113.319 190.1 113.319 190.1C113.319 190.1 113.486 190.517 113.986 190.767C114.486 191.017 114.736 191.267 114.903 191.934C115.07 192.601 115.737 192.935 115.82 193.352C115.903 193.602 113.069 197.604 111.651 198.604Z" fill="#FEB38C"/>
<path d="M108.566 193.435C108.566 193.435 109.817 189.767 110.401 189.85C110.901 189.933 113.319 191.017 113.235 191.934C113.152 192.852 111.151 192.101 111.151 192.101C111.151 192.101 111.568 194.186 110.484 194.436C109.484 194.686 108.566 193.435 108.566 193.435Z" fill="#FEB38C"/>
<path d="M111.735 191.934C111.735 191.934 111.651 192.851 112.402 193.017C112.402 193.017 112.568 194.018 113.569 193.768C113.569 193.768 113.319 194.185 113.902 194.268C113.902 194.268 111.318 197.019 111.735 191.934Z" fill="#F79A88"/>
<path d="M111.234 190.1C111.735 190.266 112.235 190.433 112.735 190.683C112.985 190.767 113.235 190.85 113.486 191.1C113.569 191.183 113.736 191.35 113.819 191.517C113.902 191.684 113.819 191.934 113.652 192.101C113.152 192.517 112.485 192.517 111.985 192.517C111.818 192.517 111.651 192.517 111.651 192.517C111.651 192.434 111.651 192.684 111.651 192.768L111.735 193.601L111.568 192.768C111.568 192.601 111.484 192.517 111.568 192.351C111.735 192.267 111.818 192.267 111.985 192.267C112.485 192.267 113.069 192.184 113.486 191.85C113.569 191.767 113.652 191.6 113.569 191.517C113.569 191.434 113.402 191.267 113.319 191.183C113.069 191.017 112.819 190.933 112.652 190.767L111.234 190.1Z" fill="#EC7A65"/>
<path d="M113.402 189.85C113.402 189.933 113.318 190.1 113.318 190.183C113.235 190.266 113.235 190.35 113.152 190.433C113.068 190.517 112.985 190.6 112.902 190.6C112.818 190.683 112.735 190.683 112.568 190.683C112.818 190.433 113.068 190.183 113.402 189.85Z" fill="#EC7A65"/>
<path d="M114.486 191.268C114.319 191.518 114.236 191.768 113.985 192.018C113.819 192.268 113.569 192.435 113.318 192.602C113.068 192.768 112.818 192.935 112.568 193.018C112.401 193.102 112.235 193.102 112.068 193.102C111.901 193.102 111.734 192.935 111.651 192.852C111.818 193.102 112.151 193.018 112.401 192.935C112.651 192.768 112.902 192.602 113.068 192.435C113.652 192.018 114.069 191.684 114.486 191.268Z" fill="#EC7A65"/>
<path d="M112.401 193.018C112.568 193.351 112.651 193.602 112.902 193.685C113.068 193.768 113.402 193.685 113.569 193.518C113.819 193.351 114.069 193.101 114.236 192.935C114.486 192.684 114.736 192.518 114.986 192.268C114.819 192.518 114.569 192.768 114.319 193.018C114.069 193.268 113.902 193.518 113.652 193.685C113.402 193.852 113.068 194.018 112.735 193.852C112.485 193.685 112.401 193.351 112.401 193.018Z" fill="#EC7A65"/>
<path d="M113.485 193.602C113.568 193.768 113.652 193.935 113.735 194.102C113.819 194.185 113.819 194.269 113.902 194.269C113.902 194.269 113.985 194.269 114.069 194.269C114.235 194.269 114.402 194.269 114.569 194.185C114.819 194.185 114.902 194.185 115.153 194.102C115.069 194.269 114.819 194.352 114.652 194.435C114.486 194.519 114.235 194.602 114.069 194.519C113.985 194.519 113.819 194.519 113.819 194.435C113.735 194.352 113.735 194.269 113.652 194.185C113.568 194.018 113.485 193.768 113.485 193.602Z" fill="#EC7A65"/>
<path d="M71.381 192.352C71.381 192.352 62.8767 191.351 63.8772 190.851C64.8777 190.351 72.048 187.683 73.382 186.849C74.7994 186.015 75.7165 186.182 75.7165 186.182L85.8049 162.837C85.9717 161.503 83.4704 158.168 82.3031 157.501C78.9681 155.583 74.9661 155.333 71.2143 156.084C59.0415 158.585 39.7818 167.256 33.2786 173.509C33.2786 173.509 62.3765 201.19 71.8813 199.856" fill="#18004C"/>
<path d="M31.4447 171.425C39.3653 167.506 47.5361 164.004 55.8736 161.086C61.293 159.169 67.2126 156.834 72.9655 156.667C73.4658 156.667 73.4658 155.917 72.9655 155.917C67.1292 156.084 61.1262 158.418 55.7068 160.336C47.286 163.337 39.1152 166.839 31.1112 170.758C30.6109 171.008 31.0278 171.592 31.4447 171.425Z" fill="#18004C"/>
<path d="M73.0485 168.006C73.0485 168.173 72.8818 168.339 72.715 168.339C71.9647 168.339 70.2138 168.173 69.9636 170.174C69.7135 172.175 71.6311 173.342 72.7984 173.425C73.1319 173.425 73.8823 173.509 74.1324 173.759C74.7994 174.509 75.1329 176.177 75.7165 178.261C76.8838 182.847 73.2987 184.931 73.2987 184.931C73.2987 184.931 85.3047 190.851 85.1379 184.931C85.1379 184.931 84.2208 174.092 84.2208 174.009C85.1379 173.092 88.8064 172.675 86.4719 164.921C84.3875 157.751 79.1349 158.251 77.8009 158.501C76.6337 158.668 72.715 158.918 73.0485 168.006Z" fill="#FEB38C"/>
<path d="M81.4695 157.751C81.4695 157.751 74.1325 167.423 72.8819 168.257C72.8819 168.257 67.8794 156.417 81.4695 157.751Z" fill="#18004C"/>
<path d="M70.7976 170.758C70.7976 170.758 71.9649 168.257 73.549 171.592L70.7976 170.758Z" fill="#EC7A65"/>
<path d="M79.6354 168.007C80.6359 168.007 81.4697 168.757 81.4697 169.758C81.4697 170.758 80.7193 171.592 79.7188 171.592C78.7183 171.592 77.8845 170.842 77.8845 169.841C77.8845 168.841 78.6349 168.007 79.6354 168.007Z" fill="#F79A88"/>
<path d="M87.1392 168.673C86.3054 168.506 85.7218 167.839 85.6384 166.922C85.6384 166.255 85.9719 165.671 86.4722 165.338C86.5556 165.338 87.3059 167.339 87.1392 168.673Z" fill="#F79A88"/>
<path d="M85.6383 167.756L82.887 169.09C82.887 169.09 84.221 170.09 84.9713 169.507C85.7217 169.006 85.6383 167.756 85.6383 167.756Z" fill="white"/>
<path d="M83.554 165.755L83.9708 167.673L84.8879 167.256C85.0547 167.172 85.0547 166.922 84.9713 166.839L83.554 165.755Z" fill="#EC7A65"/>
<path d="M80.0521 165.005C79.8019 165.338 79.9687 164.171 80.3022 163.921C80.6357 163.671 81.2193 163.671 81.3861 164.087C81.4694 164.087 80.6357 164.254 80.0521 165.005Z" fill="#1E274D"/>
<path d="M85.2216 163.087C85.6385 163.17 84.8047 162.42 84.3045 162.42C83.8042 162.42 83.4707 162.837 83.4707 163.254C83.4707 163.17 84.2211 162.837 85.2216 163.087Z" fill="#1E274D"/>
<path d="M81.6362 166.505C81.803 166.839 81.9697 167.006 82.1365 167.006C82.3032 166.922 82.3032 166.589 82.2199 166.255C82.0531 165.922 81.8864 165.755 81.7196 165.755C81.4695 165.838 81.4695 166.172 81.6362 166.505Z" fill="#1E274D"/>
<path d="M84.1375 165.255C84.3043 165.588 84.471 165.755 84.6378 165.672C84.8045 165.588 84.8045 165.338 84.7212 165.005C84.5544 164.671 84.3877 164.504 84.2209 164.588C84.0542 164.671 84.0542 164.921 84.1375 165.255Z" fill="#1E274D"/>
<path d="M84.221 173.926C84.221 173.926 80.8026 174.593 79.0517 174.426C77.3009 174.259 85.9719 184.264 84.221 173.926Z" fill="#1E274D"/>
<path d="M80.3021 158.668C80.4688 163.004 76.3001 167.839 71.7978 167.589C71.2975 167.589 71.2975 168.256 71.7978 168.34C76.6336 168.59 81.2192 163.337 81.0524 158.668C80.9691 158.251 80.3021 158.251 80.3021 158.668Z" fill="#18004C"/>
<path d="M75.7166 175.927C75.7166 176.761 75.0496 177.511 74.1325 177.511C73.2153 177.511 72.5483 176.844 72.5483 175.927C72.5483 175.01 73.2153 174.343 74.1325 174.343C75.0496 174.343 75.7166 175.01 75.7166 175.927Z" fill="white"/>
<path d="M75.7166 179.011C75.7166 179.845 75.0496 180.595 74.1325 180.595C73.2153 180.595 72.5483 179.928 72.5483 179.011C72.5483 178.094 73.2153 177.427 74.1325 177.427C75.0496 177.427 75.7166 178.177 75.7166 179.011Z" fill="white"/>
<path d="M76.3001 172.508L74.1323 175.593L72.1313 172.425L76.3001 172.508Z" fill="#FE5E31"/>
<path d="M75.1328 331.754L76.4668 341.175C76.4668 341.175 78.5512 347.428 80.5522 345.01C82.5532 342.592 84.4708 341.342 84.4708 341.342L85.1378 331.587L75.1328 331.754Z" fill="#F5836B"/>
<path d="M80.3019 332.088L80.6354 344.844C80.6354 344.844 74.3823 345.761 76.7168 341.593L75.3828 332.755L80.3019 332.088Z" fill="#FEB38C"/>
<path d="M53.6221 332.004L50.7039 341.342C50.7039 341.342 48.4528 343.26 47.7024 343.26C46.2017 343.176 45.4513 340.675 45.4513 340.675L45.2012 332.004H53.6221Z" fill="#F5836B"/>
<path d="M49.4532 329.503L47.3689 345.011C47.3689 345.011 43.2001 346.095 45.5346 341.926L45.0344 330.003L49.4532 329.503Z" fill="#FEB38C"/>
<path d="M85.1377 341.258L92.9749 347.595C93.3918 347.928 93.0583 348.429 92.4747 348.429L80.8855 348.512C80.6354 348.512 80.3853 348.429 80.3019 348.178L79.4682 346.344C79.218 345.844 78.7178 345.761 78.7178 346.344L78.3009 348.095C78.3009 348.345 75.5495 348.262 75.5495 348.012C75.3828 346.511 75.7163 341.425 75.9664 340.008C75.9664 339.841 76.2165 339.674 76.4667 339.591C76.7168 339.591 76.9669 339.591 77.1337 339.758C77.884 340.508 80.3853 342.759 81.7193 342.342C82.6364 342.009 83.8037 341.508 84.1372 341.175C84.3873 341.008 84.8875 341.008 85.1377 341.258Z" fill="#FE5E31"/>
<path d="M45.3679 340.342L40.8656 347.846C40.3654 348.596 40.6155 349.43 41.5326 349.93C42.95 350.764 44.0339 352.431 44.951 352.431C46.5351 352.515 49.0364 350.764 50.4538 350.18C51.4543 349.763 52.2046 349.18 52.0379 348.346L50.954 340.842C50.954 340.759 50.7872 340.675 50.7039 340.759L48.953 342.343C48.3694 342.843 46.8686 342.76 46.5351 342.176C46.285 341.759 45.618 340.342 45.618 340.342C45.5346 340.258 45.4512 340.258 45.3679 340.342Z" fill="#FE5E31"/>
<path d="M67.2957 215.196C63.8773 221.199 62.1264 225.535 60.2088 233.206C57.9577 242.043 37.0305 316.747 36.03 332.839C38.7814 333.506 60.3756 333.422 62.1264 333.339C67.7126 317.331 75.2163 265.222 77.6342 255.133C77.9677 253.549 80.3856 253.883 80.2188 255.467C78.8848 266.972 70.464 315.58 66.8788 333.339C68.3796 334.089 90.5574 333.923 92.2249 333.673C94.0591 313.913 103.814 238.958 89.14 214.696C82.3032 213.779 74.1325 215.03 67.2957 215.196Z" fill="#FE5E31"/>
<path d="M87.6389 215.697C87.6389 215.697 94.1422 232.122 94.1422 253.049C94.1422 273.976 86.8052 333.006 86.8052 333.006" stroke="white" stroke-width="0.314" stroke-miterlimit="10"/>
<path d="M40.3655 332.673L70.6307 216.698" stroke="white" stroke-width="0.314" stroke-miterlimit="10"/>
<path d="M74.7996 217.281C74.7996 217.281 74.6328 236.458 66.0452 234.873" stroke="white" stroke-width="0.314" stroke-miterlimit="10"/>
<path d="M92.6417 235.79C84.054 237.291 85.2213 216.864 85.2213 216.864" stroke="white" stroke-width="0.314" stroke-miterlimit="10"/>
<path opacity="0.21" d="M89.1397 215.863L61.2924 238.541C61.2924 238.541 61.1257 224.034 66.0448 214.779L89.1397 215.863Z" fill="#1E274D"/>
<path d="M87.5558 184.015C87.389 184.515 92.8918 198.188 92.6416 202.857C92.3915 207.526 92.4749 214.28 92.725 214.947C92.725 214.947 85.8049 219.032 65.7115 215.864C59.5417 210.445 64.9611 192.102 67.0455 186.349C67.0455 186.349 70.9641 184.348 72.715 184.265C72.715 184.181 79.9686 187.183 87.5558 184.015Z" fill="#18004C"/>
<path d="M72.6313 184.182L75.4661 180.43C75.4661 180.43 78.8845 182.848 83.9704 184.598L83.887 191.185C83.887 191.352 83.6369 191.519 83.4701 191.352C81.886 190.518 74.7991 187.35 72.6313 184.182Z" fill="white"/>
<path d="M84.6376 180.263C84.6376 180.263 85.4713 183.264 83.8872 184.515L86.1383 190.935C86.3051 191.435 86.6386 191.435 86.722 191.185C87.0555 189.517 87.7225 186.016 87.3056 183.848L84.6376 180.263Z" fill="white"/>
<path d="M85.7212 191.435C85.7212 191.936 85.5545 192.269 85.221 192.269C84.9708 192.269 84.7207 191.852 84.7207 191.435C84.7207 190.935 84.8875 190.602 85.221 190.602C85.5545 190.602 85.7212 190.935 85.7212 191.435Z" fill="white"/>
<path d="M85.9714 195.187C85.9714 195.688 85.8047 196.021 85.4712 196.021C85.1377 196.021 84.9709 195.604 84.9709 195.187C84.9709 194.687 85.1377 194.354 85.4712 194.354C85.8047 194.354 85.9714 194.687 85.9714 195.187Z" fill="white"/>
<path d="M86.1382 199.272C86.1382 199.772 85.9715 200.106 85.638 200.106C85.3045 200.106 85.1377 199.689 85.1377 199.272C85.1377 198.772 85.3045 198.438 85.638 198.438C85.9715 198.438 86.1382 198.772 86.1382 199.272Z" fill="white"/>
<path d="M85.638 204.608C85.9142 204.608 86.1382 204.235 86.1382 203.774C86.1382 203.314 85.9142 202.94 85.638 202.94C85.3617 202.94 85.1377 203.314 85.1377 203.774C85.1377 204.235 85.3617 204.608 85.638 204.608Z" fill="white"/>
<path d="M86.1382 208.277C86.1382 208.777 85.9715 209.111 85.638 209.111C85.3045 209.111 85.1377 208.694 85.1377 208.277C85.1377 207.777 85.3045 207.443 85.638 207.443C85.9715 207.443 86.1382 207.777 86.1382 208.277Z" fill="white"/>
<path d="M85.638 213.613C85.9142 213.613 86.1382 213.24 86.1382 212.779C86.1382 212.319 85.9142 211.945 85.638 211.945C85.3617 211.945 85.1377 212.319 85.1377 212.779C85.1377 213.24 85.3617 213.613 85.638 213.613Z" fill="white"/>
<path d="M70.3804 257.717L44.4507 241.126L55.2061 224.367L77.5506 238.708C79.4683 239.958 80.0519 242.543 78.8013 244.461L70.3804 257.717Z" fill="#98CCFE"/>
<path d="M66.378 240.876C66.378 242.877 64.7939 244.461 62.7929 244.461C60.7919 244.461 59.2078 242.877 59.2078 240.876C59.2078 238.875 60.7919 237.291 62.7929 237.291C64.7105 237.374 66.378 238.959 66.378 240.876Z" fill="white"/>
<path opacity="0.6" d="M61.2089 227.702C61.2089 227.702 57.0401 229.62 60.2918 241.459C60.4585 242.126 60.6253 242.793 60.4585 243.46L59.7081 248.546C59.6248 249.13 59.5414 249.797 59.9583 250.13C60.5419 250.547 63.8769 253.548 64.2104 253.715C65.0442 253.965 64.127 249.963 64.2938 247.879C64.2938 247.462 64.3772 249.213 64.4605 249.963L64.5439 251.631C65.5444 251.214 65.5444 249.296 65.6278 248.629C65.7945 247.796 65.6278 247.212 65.5444 247.045C65.1275 246.128 64.2104 244.21 64.127 242.543C64.0437 241.542 64.7107 237.874 65.2943 231.121L61.2089 227.702Z" fill="#1E274D"/>
<path d="M60.6253 198.854C52.8715 242.126 57.874 250.297 58.4576 250.63C59.1246 251.047 62.7097 254.382 63.1266 254.549C64.0437 254.882 63.0432 250.464 63.21 248.129C63.21 247.712 63.2933 249.63 63.3767 250.464L63.4601 252.298C64.544 251.798 64.544 249.713 64.7107 249.046C64.9608 248.129 64.7941 247.462 64.6273 247.295C64.1271 246.295 63.21 244.21 63.0432 242.376C62.9598 241.292 70.2968 206.191 71.5475 201.022C73.2984 194.019 71.1306 185.931 68.6293 185.681C65.6278 185.181 61.2923 195.269 60.6253 198.854Z" fill="#FEB38C"/>
<path d="M108.316 152.415H122.573L127.242 157.918V144.745C127.242 140.493 124.657 137.074 121.489 137.074H108.316C105.147 137.074 102.563 140.493 102.563 144.745C102.563 148.997 105.064 152.415 108.316 152.415Z" fill="#FE5E31"/>
<path d="M115.819 142.661H113.402V148.331H115.819V142.661Z" fill="white"/>
<path d="M112.401 144.495H109.983V148.33H112.401V144.495Z" fill="white"/>
<path d="M119.571 140.993H117.153V148.33H119.571V140.993Z" fill="white"/>
<path d="M268.062 187.183C268.062 181.681 263.643 177.262 258.141 177.262C252.638 177.262 248.219 181.681 248.219 187.183C248.219 192.686 257.64 201.274 257.64 201.274C257.64 201.274 268.062 192.686 268.062 187.183Z" fill="#3D6ACC"/>
<path d="M257.641 201.274C257.641 201.274 268.063 192.686 268.063 187.183C268.063 181.681 263.644 177.262 258.141 177.262" fill="#2C4888"/>
<path d="M255.222 196.772C255.222 196.772 256.473 186.35 255.056 187.017C253.638 187.684 252.805 189.268 254.389 189.602C255.973 189.935 262.393 189.602 262.393 189.602C262.393 189.602 262.976 187.767 261.892 187.351C260.308 186.684 260.308 192.77 259.975 197.105" stroke="white" stroke-width="0.3166" stroke-miterlimit="10"/>
<path d="M261.642 199.022H253.638C253.055 199.022 252.554 198.522 252.554 197.938C252.554 197.355 253.055 196.854 253.638 196.854H261.642C262.226 196.854 262.726 197.355 262.726 197.938C262.726 198.522 262.226 199.022 261.642 199.022Z" fill="#18293D"/>
<path d="M257.807 204.108C255.223 204.108 253.138 202.024 253.138 199.439V198.605H262.393V199.439C262.393 202.107 260.392 204.108 257.807 204.108Z" fill="#18293D" stroke="#EAEBEC" stroke-width="0.4326" stroke-miterlimit="10"/>
<path d="M240.215 187.267H244.717" stroke="white" stroke-width="0.8127" stroke-miterlimit="10" stroke-linecap="round"/>
<path d="M271.813 187.267H276.316" stroke="white" stroke-width="0.8127" stroke-miterlimit="10" stroke-linecap="round"/>
<path d="M245.551 174.51L248.719 177.678" stroke="white" stroke-width="0.8127" stroke-miterlimit="10" stroke-linecap="round"/>
<path d="M267.812 196.854L270.98 200.023" stroke="white" stroke-width="0.8127" stroke-miterlimit="10" stroke-linecap="round"/>
<path d="M258.224 169.258V173.76" stroke="white" stroke-width="0.8127" stroke-miterlimit="10" stroke-linecap="round"/>
<path d="M270.98 174.51L267.812 177.678" stroke="white" stroke-width="0.8127" stroke-miterlimit="10" stroke-linecap="round"/>
<path d="M248.719 196.854L245.551 200.023" stroke="white" stroke-width="0.8127" stroke-miterlimit="10" stroke-linecap="round"/>
<path d="M267.312 232.373C267.146 230.955 271.731 214.447 272.398 213.28C274.149 210.111 282.07 209.444 285.488 211.612C291.074 215.114 299.662 231.122 297.911 235.291L267.312 232.373Z" fill="#FE5E31"/>
<path d="M284.071 222.868C284.071 223.035 284.237 223.202 284.404 223.202C285.155 223.202 286.905 223.035 287.156 225.036C287.406 227.037 285.488 228.204 284.321 228.288C283.987 228.288 283.237 228.371 282.987 228.621C282.32 229.371 281.986 231.039 281.403 233.123C280.235 237.709 283.821 239.793 283.821 239.793C283.821 239.793 271.815 245.713 271.898 239.793C271.898 239.793 272.815 228.955 272.815 228.871C271.898 227.954 268.229 227.537 270.564 219.783C272.648 212.613 277.984 213.113 279.318 213.363C280.486 213.53 284.404 213.78 284.071 222.868Z" fill="#FF9C75"/>
<path d="M284.404 222.701C284.404 222.868 284.571 223.035 284.738 223.035C285.488 223.035 287.239 222.868 287.489 224.869C287.739 226.87 285.822 228.037 284.654 228.121C284.321 228.121 283.57 228.204 283.32 228.454C282.653 229.204 282.32 230.872 281.736 232.956C280.569 237.542 284.154 239.626 284.154 239.626C284.154 239.626 272.148 245.546 272.231 239.626C272.231 239.626 273.149 228.788 273.149 228.704C272.231 227.787 268.563 227.37 270.897 219.616C272.982 212.446 278.318 212.946 279.652 213.196C280.736 213.363 284.654 213.613 284.404 222.701Z" fill="#FF9C75"/>
<path d="M276.317 212.195C276.317 212.195 278.568 222.534 281.403 223.618C284.487 224.785 284.237 219.866 284.571 223.118C284.571 223.118 290.24 207.86 276.317 212.195Z" fill="#FE5E31"/>
<path d="M286.322 225.619C286.322 225.619 285.155 223.034 283.571 226.453L286.322 225.619Z" fill="#E6713E"/>
<path d="M277.401 222.868C276.4 222.868 275.567 223.619 275.567 224.619C275.567 225.62 276.317 226.453 277.318 226.453C278.318 226.453 279.152 225.703 279.152 224.702C279.235 223.785 278.401 222.952 277.401 222.868Z" fill="#FF8752"/>
<path d="M269.897 223.535C270.731 223.368 271.315 222.701 271.398 221.784C271.398 221.117 271.064 220.534 270.481 220.2C270.564 220.284 269.73 222.285 269.897 223.535Z" fill="#FF8752"/>
<path d="M273.983 219.866L273.232 222.534L272.315 222.117L273.983 219.866Z" fill="#E6713E"/>
<path d="M277.317 220.034C277.317 219.783 277.401 219.367 277.317 219.2C277.234 219.033 276.734 218.7 276.65 218.616C276.234 218.366 275.817 218.449 275.817 218.783C275.983 219.033 276.484 218.95 276.984 219.367C277.067 219.617 277.151 219.783 277.317 220.034Z" fill="black"/>
<path d="M271.815 217.782C271.565 217.865 272.065 217.449 272.398 217.365C272.732 217.198 273.149 217.365 273.315 217.365C273.816 217.449 273.982 217.782 273.649 218.032C273.232 218.366 272.732 217.532 271.815 217.782Z" fill="black"/>
<path d="M275.484 221.367C275.317 221.701 275.15 221.951 274.983 221.867C274.817 221.784 274.817 221.45 274.9 221.117C275.067 220.783 275.233 220.533 275.4 220.617C275.567 220.7 275.65 221.034 275.484 221.367Z" fill="black"/>
<path d="M272.982 220.116C272.815 220.449 272.649 220.616 272.482 220.533C272.315 220.449 272.315 220.199 272.399 219.866C272.565 219.532 272.732 219.366 272.899 219.449C273.066 219.532 273.066 219.866 272.982 220.116Z" fill="black"/>
<path d="M272.899 228.87C272.899 228.87 276.317 229.537 278.068 229.454C279.735 229.287 272.315 233.706 272.899 228.87Z" fill="black"/>
<path d="M271.731 222.701C271.731 222.701 271.398 224.035 271.981 224.285C273.065 224.702 273.982 223.868 273.982 223.868L271.731 222.701Z" fill="#FCFAF5"/>
<path d="M292.158 403.876C311.912 403.876 327.926 402.943 327.926 401.791C327.926 400.64 311.912 399.707 292.158 399.707C272.404 399.707 256.39 400.64 256.39 401.791C256.39 402.943 272.404 403.876 292.158 403.876Z" fill="#E5F1FF"/>
<path d="M274.733 387.117L273.482 395.955C273.482 395.955 271.481 401.791 269.647 399.54C267.813 397.289 265.978 396.038 265.978 396.038L265.395 386.867L274.733 387.117Z" fill="#FF7B4D"/>
<path d="M269.897 387.451L269.563 399.457C269.563 399.457 275.4 400.374 273.232 396.372L274.483 388.035L269.897 387.451Z" fill="#FF8752"/>
<path d="M304.331 386.45L307.082 395.288C307.082 395.288 309.167 397.122 309.917 397.039C311.251 396.955 312.002 394.621 312.002 394.621L312.252 386.45H304.331Z" fill="#FF7B4D"/>
<path d="M308.25 384.032L310.167 398.623C310.167 398.623 314.086 399.623 311.918 395.705L312.418 384.449L308.25 384.032Z" fill="#FF8752"/>
<path d="M265.395 396.038L257.974 402.041C257.558 402.291 257.891 402.791 258.391 402.791L269.313 402.875C269.564 402.875 269.814 402.791 269.897 402.541L270.731 400.874C270.981 400.373 271.481 400.373 271.398 400.874L271.815 402.541C271.815 402.791 274.399 402.708 274.399 402.458C274.566 401.04 274.233 396.288 273.983 394.954C273.983 394.787 273.732 394.62 273.482 394.537C273.232 394.537 272.982 394.537 272.899 394.704C272.148 395.454 269.814 397.539 268.563 397.122C267.729 396.872 266.645 396.288 266.312 396.038C266.062 395.871 265.645 395.871 265.395 396.038Z" fill="#3D6ACC"/>
<path d="M312.085 394.287L316.254 401.291C316.671 401.958 316.421 402.792 315.67 403.292C314.336 404.042 313.252 405.627 312.419 405.627C310.918 405.627 308.583 404.126 307.249 403.542C306.332 403.125 305.665 402.542 305.748 401.791L306.832 394.704C306.832 394.621 306.999 394.621 307.082 394.621L308.667 396.122C309.167 396.622 310.668 396.539 311.001 395.955C311.251 395.538 311.835 394.204 311.835 394.204C311.918 394.204 312.085 394.204 312.085 394.287Z" fill="#3D6ACC"/>
<path d="M289.824 270.224C293.242 276.227 294.993 280.646 296.994 288.233C299.245 297.071 311.918 371.859 312.919 387.95C310.167 388.617 305.915 388.283 304.164 388.2C298.578 372.109 281.903 320.249 279.569 310.078C279.235 308.493 276.817 308.827 276.984 310.411C278.318 322 276.234 368.94 275.15 388.45C273.649 389.201 266.729 389.034 264.978 388.867C263.144 369.024 253.389 293.986 268.146 269.641C274.816 268.807 282.987 269.974 289.824 270.224Z" fill="#1B1B25"/>
<path d="M268.897 272.309C268.897 272.309 262.894 287.149 262.894 308.077C262.894 329.004 266.812 382.197 266.812 382.197" stroke="white" stroke-width="0.3147" stroke-miterlimit="10"/>
<path d="M308 381.947L286.489 271.642" stroke="white" stroke-width="0.3147" stroke-miterlimit="10"/>
<path d="M282.32 272.226C282.32 272.226 282.487 291.402 291.158 289.901" stroke="white" stroke-width="0.3147" stroke-miterlimit="10"/>
<path opacity="0.21" d="M268.146 272.726L295.827 293.569C295.827 293.569 296.994 282.314 292.075 273.059L268.146 272.726Z" fill="black"/>
<path d="M264.395 290.818C272.982 292.318 271.648 273.226 271.648 273.226" stroke="white" stroke-width="0.3147" stroke-miterlimit="10"/>
<path d="M275.316 382.531L264.061 382.281" stroke="white" stroke-width="0.3147" stroke-miterlimit="10"/>
<path d="M312.335 382.532L302.247 382.198" stroke="white" stroke-width="0.3147" stroke-miterlimit="10"/>
<path d="M238.214 259.22C238.214 259.22 263.977 276.395 266.895 272.06C266.895 272.06 270.23 267.141 263.06 254.885C262.56 253.634 262.226 252.717 262.226 252.55C262.226 252.55 269.897 242.212 271.064 238.793C271.147 238.376 271.648 237.626 271.564 237.626C264.477 238.46 264.394 254.968 257.557 260.971C257.307 261.221 240.632 253.884 240.632 253.884C240.632 253.884 230.877 247.714 230.627 248.381C230.21 249.382 234.212 252.217 234.212 252.217C234.212 252.217 234.212 252.717 233.795 253.134C233.378 253.551 233.212 253.968 233.295 254.718C233.378 255.468 232.878 256.052 232.878 256.469C232.878 256.719 236.38 258.72 238.214 259.22Z" fill="#FF9C75"/>
<path d="M240.382 253.801C240.382 253.801 237.631 250.549 237.131 250.882C236.63 251.216 234.629 253.134 235.046 254.051C235.463 254.968 237.214 253.384 237.214 253.384C237.214 253.384 237.631 255.635 238.798 255.468C239.882 255.385 240.382 253.801 240.382 253.801Z" fill="#FF9C75"/>
<path d="M236.546 253.467C236.546 253.467 236.963 254.384 236.213 254.801C236.213 254.801 236.38 255.885 235.379 255.968C235.379 255.968 235.796 256.302 235.296 256.635C235.212 256.718 238.881 258.553 236.546 253.467Z" fill="#FF8752"/>
<path d="M236.38 251.466C236.046 251.966 235.713 252.466 235.296 252.883C235.129 253.133 234.879 253.3 234.796 253.55C234.629 253.8 234.712 253.884 234.796 253.967C235.213 254.134 235.796 253.967 236.38 253.8C236.547 253.8 236.63 253.634 236.963 253.717C237.13 253.8 237.13 253.967 237.13 254.05V254.301L237.214 255.218L237.047 254.384C237.047 254.217 237.047 254.05 236.88 253.967C236.713 253.967 236.63 254.05 236.463 254.05C235.963 254.217 235.296 254.467 234.712 254.217C234.546 254.134 234.462 254.05 234.462 253.884C234.462 253.717 234.546 253.55 234.629 253.467C234.796 253.217 235.046 253.05 235.213 252.8L236.38 251.466Z" fill="#E6713E"/>
<path d="M234.045 251.967C234.212 251.967 234.296 251.967 234.379 251.967C234.462 251.967 234.629 252.05 234.712 252.05C234.796 252.134 234.879 252.134 234.963 252.217C235.046 252.3 235.129 252.384 235.213 252.467C234.796 252.384 234.462 252.217 234.045 251.967Z" fill="#E6713E"/>
<path d="M233.462 253.801C233.795 253.884 234.045 253.968 234.379 254.051C234.629 254.134 234.962 254.218 235.213 254.301C235.463 254.384 235.796 254.468 236.046 254.551C236.213 254.551 236.296 254.635 236.463 254.551C236.63 254.551 236.713 254.468 236.797 254.384C236.713 254.718 236.296 254.801 236.046 254.718C235.713 254.635 235.463 254.551 235.129 254.468C234.546 254.384 233.962 254.134 233.462 253.801Z" fill="#E6713E"/>
<path d="M236.296 254.801C236.463 255.134 236.547 255.551 236.296 255.968C236.13 256.135 235.88 256.302 235.713 256.302C235.463 256.302 235.296 256.302 235.129 256.218C234.796 256.051 234.462 255.968 234.129 255.718C233.795 255.551 233.545 255.301 233.295 255.051C233.628 255.218 233.879 255.384 234.212 255.551C234.546 255.718 234.879 255.885 235.213 255.968C235.546 256.051 235.963 256.051 236.213 255.801C236.38 255.551 236.296 255.134 236.296 254.801Z" fill="#E6713E"/>
<path d="M235.38 255.802C235.546 255.969 235.63 256.219 235.63 256.469C235.63 256.552 235.63 256.719 235.63 256.886C235.546 257.052 235.38 257.136 235.296 257.219C235.046 257.386 234.796 257.303 234.546 257.303C234.463 257.303 234.296 257.303 234.212 257.219C234.046 257.136 233.962 257.052 233.879 256.969C234.046 257.052 234.296 257.052 234.463 257.052C234.713 257.052 234.879 257.052 235.13 256.969C235.213 256.886 235.296 256.886 235.38 256.802C235.463 256.719 235.463 256.635 235.463 256.469C235.463 256.302 235.38 256.052 235.38 255.802Z" fill="#E6713E"/>
<path d="M271.648 236.542C271.648 236.542 268.146 237.042 265.812 241.628C263.894 245.296 256.807 260.387 256.807 260.387L242.717 254.301L241.466 263.139C241.466 263.139 263.227 276.229 266.979 273.31C270.648 270.476 273.399 241.211 271.648 236.542Z" fill="white"/>
<path d="M272.232 236.291C272.398 236.791 264.228 253.133 264.394 257.802C264.644 262.471 267.813 270.391 267.563 271.142C267.563 271.142 271.231 273.977 291.325 270.892C297.494 265.472 292.075 247.13 289.991 241.294C289.991 241.294 284.488 240.543 282.237 237.708C282.237 237.625 273.315 244.545 272.232 236.291Z" fill="white"/>
<g opacity="0.37">
<path opacity="0.37" d="M291.658 246.13C293.909 253.967 296.327 266.557 291.408 270.809C278.735 272.81 272.565 272.393 269.814 271.809C277.234 263.389 284.654 254.884 291.658 246.13Z" fill="#95A1E6"/>
</g>
<path d="M275.483 274.06L263.311 259.22L250.387 259.303L260.309 272.977L266.145 273.81C266.562 273.81 275.483 274.06 275.483 274.06Z" fill="#3D6ACC"/>
<path d="M268.48 265.473V267.64L271.398 268.724L268.48 265.473Z" fill="#020F2B"/>
<path d="M281.069 276.979C270.981 274.811 264.811 272.477 263.644 272.06C262.977 271.81 261.059 270.976 261.059 270.642C261.059 269.975 264.894 271.726 264.811 271.559C264.644 271.393 260.059 269.892 260.059 269.308C260.059 268.475 265.144 270.309 265.228 270.309C266.562 270.726 260.309 268.808 260.142 268.224C259.975 267.641 262.893 268.391 263.06 268.391C263.06 268.391 265.478 269.142 265.645 268.975C265.728 268.808 260.809 265.89 261.309 265.556C261.809 265.223 265.561 266.974 266.478 267.307C267.396 267.641 268.73 267.808 269.063 267.557C269.313 267.391 269.063 265.973 268.479 265.39C268.479 265.39 270.731 266.39 271.731 267.557C272.315 268.141 272.815 269.058 272.815 269.058L281.236 270.726L281.069 276.979Z" fill="#FF9C75"/>
<path d="M285.905 247.214C285.905 247.214 284.738 239.46 288.656 240.127C295.326 241.211 302.997 256.468 300.079 276.812C299.162 283.398 272.398 276.978 272.398 276.978L274.149 267.307L288.156 269.641L285.905 247.214Z" fill="white"/>
<path d="M328.677 242.46C328.677 243.794 329.76 244.878 331.094 244.878C332.428 244.878 333.512 243.794 333.512 242.46C333.512 241.126 332.428 240.042 331.094 240.042C329.76 240.042 328.677 241.126 328.677 242.46Z" fill="#FE5E31"/>
<path d="M337.181 236.791C339.806 236.791 341.933 234.663 341.933 232.039C341.933 229.414 339.806 227.286 337.181 227.286C334.556 227.286 332.428 229.414 332.428 232.039C332.428 234.663 334.556 236.791 337.181 236.791Z" fill="#FE5E31"/>
<path d="M333.262 234.956L330.678 234.039C330.427 233.956 330.427 233.622 330.678 233.539L336.347 231.788C336.597 231.705 336.764 231.955 336.681 232.122L334.763 237.791C334.68 238.041 334.346 238.041 334.263 237.791L333.429 235.123C333.429 235.04 333.346 234.956 333.262 234.956Z" fill="#1E274D"/>
<path d="M314.003 254.967C313.669 255.05 317.421 260.386 322.257 263.221C322.257 263.221 344.351 283.898 348.437 282.397C352.439 280.896 370.698 241.127 360.693 239.376C360.693 239.376 358.108 237.458 356.274 239.876C354.44 242.21 349.02 245.212 340.433 264.888C340.433 264.888 328.093 258.469 326.676 257.802C326.676 257.802 323.841 250.965 323.341 252.132C322.841 253.216 324.008 256.217 324.008 256.217C324.008 256.217 316.921 250.798 315.92 251.298C314.92 251.632 314.003 254.967 314.003 254.967Z" fill="#FEB38C"/>
<path d="M344.268 257.634C350.271 246.045 354.773 241.626 356.19 239.709C358.025 237.374 360.609 239.208 360.609 239.208C367.279 240.376 361.276 258.635 355.44 270.974C351.938 266.389 348.27 261.886 344.268 257.634Z" fill="#F5836B"/>
<path d="M349.187 242.044C349.187 242.044 353.022 231.205 360.609 235.707C368.197 240.293 362.777 262.554 358.608 267.14L341.767 257.885L349.187 242.044Z" fill="#F05D33"/>
<path d="M347.52 245.712C348.77 244.628 350.354 243.044 351.938 243.461C352.689 243.628 353.356 243.961 353.773 244.545C354.69 245.629 354.523 247.379 353.856 248.63C353.189 249.881 352.105 250.965 351.188 252.049C349.187 254.55 348.02 257.635 347.853 260.803" stroke="#FBEFDF" stroke-width="0.2024" stroke-miterlimit="10"/>
<path d="M358.442 266.973C361.193 266.472 365.612 249.13 363.944 246.045C363.944 246.045 355.607 241.126 355.107 241.627C349.687 247.296 358.442 266.973 358.442 266.973Z" fill="#3054F2"/>
<path d="M341.85 401.29C341.85 399.956 360.86 398.872 384.288 398.872C407.716 398.872 426.726 399.956 426.726 401.29C426.726 402.624 407.716 403.708 384.288 403.708C360.86 403.708 341.85 402.624 341.85 401.29Z" fill="#E5F1FF"/>
<path d="M348.52 394.204L348.603 386.116L356.441 386.7L356.191 394.454L352.605 400.79L346.019 395.788L348.52 394.204Z" fill="#FEB38C"/>
<path d="M349.271 386.283L355.274 399.04C355.274 399.04 354.106 397.039 356.441 394.954V386.367H349.271V386.283Z" fill="#F5836B"/>
<path d="M347.27 393.621C347.27 393.621 349.354 395.955 351.939 397.956C353.523 399.123 355.857 394.037 356.608 393.454C356.774 393.287 356.941 393.454 357.024 393.704L357.942 402.041H334.93C334.68 402.041 334.346 401.791 334.43 401.374C335.597 395.205 347.27 393.621 347.27 393.621Z" fill="#18004C"/>
<path d="M344.435 400.541C344.435 400.541 343.518 396.289 340.516 395.455C340.516 395.455 335.764 397.039 334.596 400.624H357.608" stroke="white" stroke-width="0.4048" stroke-miterlimit="10"/>
<path d="M357.108 395.371L352.355 400.624" stroke="white" stroke-width="0.4048" stroke-miterlimit="10"/>
<path d="M385.455 395.289L383.037 387.451L391.458 387.201L393.209 395.372L390.124 400.791L383.621 395.789L385.455 395.289Z" fill="#FEB38C"/>
<path d="M384.872 387.451L391.792 397.039C391.792 397.039 391.708 397.372 394.043 395.205L391.375 387.117L384.872 387.451Z" fill="#F5836B"/>
<path d="M384.371 394.705C384.371 394.705 386.456 397.039 389.04 399.04C390.624 400.207 392.959 395.121 393.709 394.538C393.876 394.371 394.043 394.538 394.126 394.788L395.043 403.125H372.032C371.781 403.125 371.448 402.875 371.531 402.458C372.699 396.205 384.371 394.705 384.371 394.705Z" fill="#18004C"/>
<path d="M381.536 401.542C381.536 401.542 380.619 397.29 377.618 396.456C377.618 396.456 372.865 398.04 371.698 401.625H394.71" stroke="white" stroke-width="0.4048" stroke-miterlimit="10"/>
<path d="M394.209 396.372L389.457 401.625" stroke="white" stroke-width="0.4048" stroke-miterlimit="10"/>
<path d="M348.437 293.569C348.437 293.569 345.435 329.004 345.185 338.842C344.935 348.597 347.436 386.866 347.436 386.866H357.358C357.358 386.866 367.863 319.249 379.786 295.654L348.437 293.569Z" fill="#050737"/>
<path d="M352.522 380.779L354.106 335.923L361.026 309.66" stroke="white" stroke-width="0.3264" stroke-miterlimit="10"/>
<path d="M358.609 387.117L347.186 386.867L346.436 380.363H359.693L358.609 387.117Z" fill="#FE5E31"/>
<path d="M348.437 293.569C348.437 293.569 355.273 323.084 362.277 344.011C367.863 360.936 382.787 387.617 382.787 387.617L392.709 387.2L382.12 344.595C381.453 342.094 381.036 339.509 380.953 336.924C380.369 327.086 382.37 307.243 383.204 294.57L348.437 293.569Z" fill="#00034C"/>
<path d="M387.289 381.029C387.54 380.362 373.616 339.926 373.616 334.756C373.616 329.587 373.866 311.828 373.866 311.828" stroke="white" stroke-width="0.3264" stroke-miterlimit="10"/>
<path d="M393.793 387.117L382.787 387.617L379.035 381.447L392.959 380.78L393.793 387.117Z" fill="#FE5E31"/>
<path d="M375.2 231.955C375.2 231.955 390.708 233.539 391.625 246.379C392.625 259.219 386.122 312.329 386.122 312.329L343.934 309.661L347.936 249.38C348.103 246.129 349.104 242.96 350.855 240.209C352.439 237.708 354.356 234.79 355.44 234.706L372.782 230.204L375.2 231.955Z" fill="#FE5E31"/>
<path d="M378.785 233.372C389.124 234.956 391.208 239.959 391.625 246.379C392.625 259.218 386.122 311.911 386.122 311.911L344.351 309.66" fill="#DB512A"/>
<path d="M371.198 234.456C370.198 237.708 368.864 240.959 367.363 244.044C365.279 248.213 362.444 252.382 358.025 253.799C356.107 254.383 354.106 254.466 352.189 254.966C350.271 255.467 348.27 256.55 347.603 258.385" stroke="#FBEFDF" stroke-width="0.2024" stroke-miterlimit="10"/>
<path d="M390.791 287.066C386.789 286.566 382.037 286.399 379.702 289.734C377.868 292.318 378.535 295.904 377.034 298.738C375.117 302.407 370.531 303.324 366.862 305.325C361.61 308.16 358.025 313.829 357.691 319.749" stroke="#FBEFDF" stroke-width="0.2024" stroke-miterlimit="10"/>
<path d="M346.602 308.743C353.189 306.242 359.859 301.99 362.193 295.32C362.36 294.903 362.443 294.486 362.36 294.069C362.277 293.652 361.86 293.402 361.526 293.152C359.359 291.651 356.607 291.318 354.523 289.734C353.689 289.067 353.022 288.316 352.188 287.649C349.437 285.482 345.185 285.565 342.517 287.816" stroke="#FBEFDF" stroke-width="0.2024" stroke-miterlimit="10"/>
<path d="M346.602 261.637C350.187 262.054 353.522 264.471 355.023 267.723C357.441 272.976 355.357 279.646 358.275 284.732C361.11 289.567 368.613 290.818 372.782 286.983C374.45 285.399 375.617 283.231 377.701 282.147C381.37 280.146 386.873 282.314 389.624 279.145" stroke="#FBEFDF" stroke-width="0.2024" stroke-miterlimit="10"/>
<path d="M370.364 220.366L374.866 232.455L371.531 234.123C366.362 236.04 361.693 234.79 360.943 232.705L361.61 225.535L368.863 218.948C368.863 218.948 369.947 219.782 370.114 220.032C370.281 220.282 370.364 220.366 370.364 220.366Z" fill="#FEB38C"/>
<path d="M368.863 218.948L361.61 225.535L361.36 228.12C361.36 228.12 367.446 229.537 369.697 219.949" fill="#F5836B"/>
<path d="M356.191 280.479L342.017 254.8C341.267 253.382 339.933 252.465 338.432 252.132L306.332 249.964C305.749 249.881 305.332 250.464 305.665 250.965L319.256 275.31C320.006 276.644 321.173 277.561 322.674 277.895L355.524 281.48C356.024 281.647 356.441 281.063 356.191 280.479Z" fill="#E5F1FF"/>
<path d="M355.023 282.314L342.184 257.718C341.433 256.301 339.266 255.05 337.765 254.717L303.748 252.549C303.164 252.466 302.747 253.049 303.081 253.55L316.671 277.895C317.421 279.229 318.589 280.146 320.089 280.48L354.273 283.231C354.857 283.481 355.357 282.898 355.023 282.314Z" fill="#18004C"/>
<path d="M347.436 264.555L340.85 266.889L349.604 268.557L347.436 264.555Z" fill="#000F30"/>
<path d="M348.687 277.06L318.255 275.31L319.922 278.478L350.771 280.395L348.687 277.06Z" fill="#FCFAF5"/>
<path d="M347.686 274.643C348.77 275.31 361.527 286.316 371.782 291.318C374.616 292.735 378.285 289.484 379.285 286.566L388.79 261.553L373.366 253.716C373.282 253.883 370.614 269.39 368.363 274.81C367.53 276.727 368.03 276.477 366.279 275.81L352.355 268.723C352.355 268.723 351.188 267.639 350.771 266.889C349.937 265.472 347.103 263.888 347.103 263.888L348.77 266.972C349.104 267.473 348.687 267.639 347.686 267.139L340.766 264.221C340.766 264.221 339.182 263.888 340.016 264.555C340.85 265.222 343.601 266.889 343.684 266.972C345.435 267.89 339.099 264.971 339.182 265.555C339.182 266.139 342.851 268.223 342.767 268.306C342.684 268.39 338.849 266.556 338.765 267.139C338.765 267.723 342.184 269.39 342.35 269.39C342.6 269.39 339.599 267.806 339.515 268.14C339.432 268.306 347.019 274.226 347.686 274.643Z" fill="#FEB38C"/>
<path d="M371.198 264.471C372.365 259.051 373.283 253.882 373.366 253.799L388.79 261.636L382.787 277.477C378.952 272.975 375.117 268.64 371.198 264.471Z" fill="#F5836B"/>
<path d="M372.949 287.483C374.366 286.566 377.785 285.482 379.035 287.233C377.785 289.984 374.366 292.652 371.782 291.402C371.365 291.235 370.948 290.985 370.615 290.818C370.865 289.401 371.615 288.317 372.949 287.483Z" fill="#F5836B"/>
<path d="M374.783 242.46C374.783 242.46 376.534 230.954 384.788 234.039C393.042 237.124 392.876 271.558 389.624 276.894L365.946 265.472L374.783 242.46Z" fill="#FE5E31"/>
<path d="M377.451 234.373C376.701 240.793 377.535 247.546 380.953 253.049C384.372 258.552 390.708 262.387 397.128 261.72" stroke="#FBEFDF" stroke-width="0.2024" stroke-miterlimit="10"/>
<path d="M372.866 250.215C374.366 250.965 375.617 251.966 376.784 253.133C377.201 253.55 377.535 254.05 377.701 254.634C378.118 256.385 375.951 257.719 375.617 259.553C375.367 260.803 376.117 261.971 376.951 262.888C377.868 263.805 378.869 264.472 379.702 265.389C381.787 267.807 381.62 271.892 379.286 274.144" stroke="#FBEFDF" stroke-width="0.2024" stroke-miterlimit="10"/>
<path d="M391.542 268.64C390.541 267.89 389.041 267.807 388.04 268.557C386.206 269.808 386.373 272.476 385.539 274.56" stroke="#FBEFDF" stroke-width="0.2024" stroke-miterlimit="10"/>
<path d="M356.191 207.86C356.024 210.194 358.025 209.277 358.025 209.277C363.027 212.529 369.447 218.115 369.447 218.115C369.447 218.115 371.782 217.698 371.782 217.114C371.865 212.612 371.615 207.193 371.615 207.193C371.615 207.193 373.032 206.192 372.866 204.608C372.866 204.608 372.365 202.69 370.781 203.024C370.781 203.024 371.115 201.857 370.281 201.273C369.447 200.689 368.697 201.44 368.697 201.44C368.697 201.44 368.613 199.272 366.362 198.772C364.111 198.272 363.194 200.356 363.194 200.356C363.194 200.356 362.777 199.189 362.11 199.272C361.443 199.355 361.193 200.439 361.193 200.439C361.193 200.439 361.026 198.688 359.025 198.939C357.024 199.189 356.858 201.607 356.858 201.607C356.858 201.607 356.774 200.856 355.857 201.023C354.606 201.19 353.939 202.69 355.107 204.108C355.107 204.108 354.19 204.691 354.273 206.025C354.356 207.193 356.191 207.86 356.191 207.86Z" fill="#18004C"/>
<path d="M369.614 216.531C369.697 216.781 369.947 216.865 370.197 216.698C370.781 216.114 371.948 215.364 372.365 217.615C372.949 220.783 369.697 220.2 369.447 220.617C368.947 221.45 367.196 224.369 364.695 225.452C363.194 226.119 360.859 226.203 359.192 224.619C357.524 223.035 356.607 224.869 357.274 207.694C357.274 207.694 357.691 209.111 359.359 208.777C360.526 208.527 361.443 207.61 362.694 207.193C363.694 206.943 366.529 206.193 367.78 209.778C368.196 211.362 369.03 215.197 369.614 216.531Z" fill="#FEB38C"/>
<path d="M357.441 219.282C357.441 219.282 358.442 219.782 360.943 219.532C360.943 219.532 359.609 221.367 358.609 220.95C357.692 220.616 357.441 219.282 357.441 219.282Z" fill="white"/>
<path d="M371.782 217.365L370.031 218.699C370.114 218.615 370.698 215.53 371.782 217.365Z" fill="#F5836B"/>
<path d="M359.442 215.614C359.442 216.031 359.609 216.281 359.776 216.281C359.943 216.281 360.109 215.948 360.109 215.614C360.109 215.197 359.943 214.947 359.776 214.947C359.609 214.947 359.442 215.197 359.442 215.614Z" fill="#000F30"/>
<path d="M357.274 215.28C357.274 215.697 357.441 215.947 357.608 215.947C357.775 215.947 357.941 215.614 357.941 215.28C357.941 214.947 357.775 214.613 357.608 214.613C357.441 214.613 357.274 214.863 357.274 215.28Z" fill="#000F30"/>
<path d="M362.277 212.696C362.777 213.029 362.027 211.445 361.36 211.278C360.693 211.112 360.026 211.445 359.859 212.029C359.859 212.029 361.11 211.862 362.277 212.696Z" fill="#000F30"/>
<path d="M357.191 212.529C357.858 212.445 358.442 212.529 358.442 212.529C358.358 211.945 357.858 211.612 357.191 211.528" fill="#000F30"/>
<path d="M358.358 215.28L357.358 218.198C357.358 218.282 357.358 218.282 357.441 218.282L358.609 218.365C358.609 218.365 358.692 218.365 358.692 218.282L358.525 215.28C358.442 215.197 358.358 215.197 358.358 215.28Z" fill="#F5836B"/>
<path d="M27.9722 55.6568C26.5329 52.7096 27.1497 48.8714 29.4801 46.541C31.7419 44.2107 35.5115 43.4568 38.5272 44.759C38.4587 38.1107 43.1879 32.4219 48.534 28.4467C51.2756 26.3905 54.3598 24.6085 57.7868 24.2658C62.2419 23.786 66.7655 25.8422 70.0553 28.8579C73.4138 31.8736 75.7441 35.7804 77.9374 39.7557C79.3082 37.4253 82.5295 36.4658 84.9284 37.6995C87.3273 38.9332 88.561 42.0175 87.5329 44.5534C92.8104 43.6624 98.3621 48.186 98.6362 53.5321" fill="#F0F5FF"/>
<path d="M282.32 33.6918C283.78 30.5982 283.179 26.5593 280.773 24.1532C278.367 21.6612 274.414 20.8878 271.234 22.2627C271.32 15.3022 266.336 9.28686 260.75 5.16209C257.829 3.01377 254.649 1.12325 251.04 0.779519C246.314 0.263923 241.673 2.41224 238.15 5.59175C234.627 8.77126 232.135 12.896 229.815 17.0208C228.354 14.6147 225.002 13.5835 222.424 14.8725C219.932 16.1615 218.643 19.4269 219.675 22.0049C214.089 21.0596 208.246 25.7859 207.988 31.4575" fill="#F0F5FF"/>
<path d="M394.551 124.014C395.882 121.256 395.312 117.833 393.22 115.646C391.128 113.459 387.61 112.793 384.852 114.029C384.947 107.944 380.573 102.714 375.724 99.1004C373.156 97.1987 370.399 95.5822 367.261 95.2018C363.172 94.7264 359.083 96.6281 355.945 99.3857C352.902 102.143 350.715 105.757 348.719 109.37C347.482 107.278 344.44 106.422 342.253 107.468C340.066 108.514 338.925 111.462 339.875 113.744C335.026 112.888 329.891 117.072 329.701 122.017" fill="#F0F5FF"/>
<path d="M327.134 140.381C327.134 137.909 325.137 135.912 322.664 135.912C320.192 135.912 318.195 137.909 318.195 140.381C318.195 142.854 320.192 144.85 322.664 144.85C325.137 144.85 327.134 142.854 327.134 140.381Z" fill="#F0F5FF"/>
<path d="M79.6189 101.786C79.6189 100.217 78.3352 98.9336 76.7662 98.9336C75.1973 98.9336 73.9136 100.217 73.9136 101.786C73.9136 103.355 75.1973 104.639 76.7662 104.639C78.3352 104.639 79.6189 103.355 79.6189 101.786Z" fill="#F0F5FF"/>
<path d="M102.44 67.5545C102.44 65.4504 100.741 63.751 98.6365 63.751C96.5325 63.751 94.833 65.4504 94.833 67.5545C94.833 69.6586 96.5325 71.358 98.6365 71.358C100.741 71.358 102.44 69.6586 102.44 67.5545Z" fill="#F0F5FF"/>
<path d="M90.649 52.5193C90.649 51.8537 90.0785 51.2832 89.4129 51.2832C88.7473 51.2832 88.1768 51.8537 88.1768 52.5193C88.1768 53.185 88.7473 53.7555 89.4129 53.7555C90.0785 53.7555 90.649 53.185 90.649 52.5193Z" fill="#F0F5FF"/>
<path d="M229.097 67.6381C230.83 67.6381 232.235 66.2332 232.235 64.5002C232.235 62.7672 230.83 61.3623 229.097 61.3623C227.364 61.3623 225.959 62.7672 225.959 64.5002C225.959 66.2332 227.364 67.6381 229.097 67.6381Z" fill="#F0F5FF"/>
<path d="M435.344 300.414C435.344 297.942 433.347 295.945 430.875 295.945C428.403 295.945 426.406 297.942 426.406 300.414C426.406 302.887 428.403 304.884 430.875 304.884C433.347 304.789 435.344 302.792 435.344 300.414Z" fill="#F0F5FF"/>
</svg>
