<svg width="30" height="32" viewBox="0 0 30 32" fill="none" xmlns="http://www.w3.org/2000/svg">
<path d="M29.104 5.776C29.104 2.584 26.512 0 23.32 0L5.776 2.896C2.584 2.896 0 5.48 0 8.66399V26.224C0 29.416 2.584 32 5.776 32H23.328C26.512 32.008 29.104 29.424 29.112 26.24V19.36C29.112 19.064 29.08 18.768 29.08 18.464C29.08 18.16 29.08 17.848 29.112 17.544V5.776H29.104Z" fill="#5B86E5"/>
<path d="M29.104 5.776C29.104 2.584 26.512 0 23.32 0L5.776 2.896C2.584 2.896 0 5.48 0 8.66399V26.224C0 29.416 2.584 32 5.776 32H23.328C26.512 32.008 29.104 29.424 29.112 26.24V19.36C29.112 19.064 29.08 18.768 29.08 18.464C29.08 18.16 29.08 17.848 29.112 17.544V5.776H29.104Z" fill="url(#paint0_linear)"/>
<path d="M9.89315 22.9999C10.794 22.9999 11.5242 22.277 11.5242 21.3852C11.5242 20.4934 10.794 19.7705 9.89315 19.7705C8.99234 19.7705 8.26208 20.4934 8.26208 21.3852C8.26208 22.277 8.99234 22.9999 9.89315 22.9999Z" fill="white"/>
<path d="M21.1068 22.9999C22.0076 22.9999 22.7378 22.277 22.7378 21.3852C22.7378 20.4934 22.0076 19.7705 21.1068 19.7705C20.206 19.7705 19.4757 20.4934 19.4757 21.3852C19.4757 22.277 20.206 22.9999 21.1068 22.9999Z" fill="white"/>
<path d="M13.5121 15.9358H14.6335L13.3083 12H10.1481V12.6055C10.199 14.4725 11.6772 15.9358 13.5121 15.9358Z" fill="white"/>
<path d="M25.4392 17.1467H16.1116V21.688H18.2523C18.2523 21.5871 18.2523 21.4862 18.2523 21.3853C18.2523 19.821 19.5266 18.5596 21.1067 18.5596C22.6868 18.5596 23.9611 19.821 23.9611 21.3853C23.9611 21.4862 23.9611 21.5871 23.9611 21.688H25.3883C25.7451 21.688 25.9999 21.4357 25.9999 21.0825V18.9128C25.9999 18.2568 25.796 17.6513 25.4392 17.1467Z" fill="white"/>
<path d="M20.0363 13.7156C18.7111 12.7064 17.2329 12.0505 14.6334 12L15.9587 15.8853H23.8592C22.5339 15.3807 22.0242 15.078 20.0363 13.7156Z" fill="white"/>
<path d="M8.97573 12.6055V12H6.93689C6.5801 12 6.32524 12.2523 6.32524 12.6055V13.8165C6.32524 14.422 6.07039 14.7752 5.96845 14.8761C5.3568 15.8349 5 16.9954 5 18.156V21.0826C5 21.4358 5.25485 21.6881 5.61165 21.6881H7.03884C7.03884 21.5872 7.03884 21.4862 7.03884 21.3853C7.03884 19.8211 8.31311 18.5596 9.8932 18.5596C11.4733 18.5596 12.7476 19.8211 12.7476 21.3853C12.7476 21.4862 12.7476 21.5872 12.7476 21.6881H14.8883V17.1468H13.5121C11.0655 17.1468 8.97573 15.1789 8.97573 12.6055Z" fill="white"/>
<defs>
<linearGradient id="paint0_linear" x1="14.556" y1="0" x2="14.556" y2="32" gradientUnits="userSpaceOnUse">
<stop stop-color="white" stop-opacity="0.3"/>
<stop offset="1" stop-color="white" stop-opacity="0"/>
</linearGradient>
</defs>
</svg>
