<svg width="30" height="32" viewBox="0 0 30 32" fill="none" xmlns="http://www.w3.org/2000/svg">
<path d="M29.104 5.776C29.104 2.584 26.512 0 23.32 0L5.776 2.896C2.584 2.896 0 5.48 0 8.66399V26.224C0 29.416 2.584 32 5.776 32H23.328C26.512 32.008 29.104 29.424 29.112 26.24V19.36C29.112 19.064 29.08 18.768 29.08 18.464C29.08 18.16 29.08 17.848 29.112 17.544V5.776H29.104Z" fill="#73CA2F"/>
<path d="M29.104 5.776C29.104 2.584 26.512 0 23.32 0L5.776 2.896C2.584 2.896 0 5.48 0 8.66399V26.224C0 29.416 2.584 32 5.776 32H23.328C26.512 32.008 29.104 29.424 29.112 26.24V19.36C29.112 19.064 29.08 18.768 29.08 18.464C29.08 18.16 29.08 17.848 29.112 17.544V5.776H29.104Z" fill="url(#paint0_linear)"/>
<g clip-path="url(#clip0)">
<path d="M17.0646 9.22348H18.08L19.2308 11.3485V13.2159H23.1569C23.2246 13.0227 23.2923 12.7652 23.2923 12.5076C23.2923 11.4773 22.4123 10.5758 21.2615 10.5758H20.2462L19.0277 8.25758C18.8923 8.12879 18.6892 8 18.4185 8H17.0646C16.7262 8 16.3877 8.25758 16.3877 8.64394C16.3877 9.0303 16.7262 9.22348 17.0646 9.22348Z" fill="white"/>
<path d="M24.9846 19.4622L23.0215 21.3296C23.2923 21.5872 23.2923 21.9735 23.0215 22.1667C22.7507 22.4243 22.3446 22.4243 22.1415 22.1667L22.0061 22.2955C21.3969 22.875 20.5846 23.3258 19.7046 23.519C20.3138 24.4205 21.3969 25 22.5477 25C24.443 25 25.9323 23.519 25.9323 21.7803C26 20.8144 25.5938 20.0417 24.9846 19.4622Z" fill="white"/>
<path d="M14.9661 15.1479C14.9661 14.0532 14.0184 13.2161 12.9354 13.2161H8.46766C6.91074 13.2161 5.55689 14.3752 5.42151 15.8562H14.8307C14.8984 15.663 14.9661 15.4055 14.9661 15.1479Z" fill="white"/>
<path d="M9.34765 22.8751L8.67073 22.038L8.53534 22.1668C8.26457 22.4243 7.85842 22.4243 7.65534 22.1668C7.51996 22.038 7.45226 21.7804 7.45226 21.5872H5.55688C5.21842 21.5872 4.94765 21.5228 4.67688 21.394C4.67688 21.5228 4.67688 21.5872 4.67688 21.716C4.67688 23.519 6.2338 24.9357 8.0615 24.9357C9.21226 24.9357 10.2276 24.3562 10.8369 23.519H10.7692C10.2953 23.5834 9.68611 23.3259 9.34765 22.8751Z" fill="white"/>
<path d="M25.12 17.5948C25.2554 17.466 25.3231 17.3372 25.3231 17.144C25.3231 16.9508 25.2554 16.822 25.12 16.6932L22.7508 14.4395H19.1631V17.6592L17.3354 21.1364H13.5446V17.0796H4.81234L4.06772 18.1099C3.93234 18.3031 3.93234 18.5607 4.06772 18.8182L5.01542 20.1061C5.1508 20.2993 5.35388 20.3637 5.55696 20.3637H8.87388L10.3631 22.1023C10.4985 22.2311 10.7016 22.3599 10.837 22.3599H18.6893C19.5693 22.3599 20.4493 22.0379 21.1262 21.394L25.12 17.5948Z" fill="white"/>
</g>
<defs>
<linearGradient id="paint0_linear" x1="14.556" y1="0" x2="14.556" y2="32" gradientUnits="userSpaceOnUse">
<stop stop-color="white" stop-opacity="0.3"/>
<stop offset="1" stop-color="white" stop-opacity="0"/>
</linearGradient>
<clipPath id="clip0">
<rect width="22" height="17" fill="white" transform="translate(4 8)"/>
</clipPath>
</defs>
</svg>
