<svg width="30" height="30" viewBox="0 0 30 30" fill="none" xmlns="http://www.w3.org/2000/svg">
<circle cx="15" cy="15" r="15" fill="#FFF0BF"/>
<path d="M22.5586 19.8086L15.9961 8.40625C15.5039 7.55859 14.2188 7.53125 13.7266 8.40625L7.16406 19.8086C6.67188 20.6562 7.30078 21.75 8.3125 21.75H21.4102C22.4219 21.75 23.0508 20.6836 22.5586 19.8086ZM14.875 17.4297C15.5586 17.4297 16.1328 18.0039 16.1328 18.6875C16.1328 19.3984 15.5586 19.9453 14.875 19.9453C14.1641 19.9453 13.6172 19.3984 13.6172 18.6875C13.6172 18.0039 14.1641 17.4297 14.875 17.4297ZM13.6719 12.918C13.6445 12.7266 13.8086 12.5625 14 12.5625H15.7227C15.9141 12.5625 16.0781 12.7266 16.0508 12.918L15.8594 16.6367C15.832 16.8281 15.6953 16.9375 15.5312 16.9375H14.1914C14.0273 16.9375 13.8906 16.8281 13.8633 16.6367L13.6719 12.918Z" fill="#F5B611"/>
</svg>
