<svg width="20" height="20" viewBox="0 0 20 20" fill="none" xmlns="http://www.w3.org/2000/svg">
<path d="M10 20C15.5228 20 20 15.5228 20 10C20 4.47715 15.5228 0 10 0C4.47715 0 0 4.47715 0 10C0 15.5228 4.47715 20 10 20Z" fill="white"/>
<path d="M3.40576 12.8506L7.93904 4.99023L11.8666 7.26076L7.33392 15.1205L3.40576 12.8506Z" fill="#FCBA28"/>
<path d="M16.4387 12.8226L11.9028 4.95967C11.3175 3.8513 9.94546 3.42741 8.83756 4.01394C7.73031 4.59982 7.30749 5.97328 7.89278 7.08229C7.91837 7.13095 7.94587 7.17833 7.97466 7.22508L12.5105 15.088C13.122 16.1823 14.5043 16.5729 15.5975 15.9601C16.6907 15.348 17.0809 13.9643 16.4687 12.87C16.4585 12.8521 16.4489 12.8348 16.4387 12.8175V12.8226Z" fill="#4D7CBF"/>
<path d="M5.39324 11.6968C6.6457 11.6968 7.66148 12.7129 7.66148 13.9673C7.66148 15.221 6.64634 16.2378 5.39324 16.2378C4.14014 16.2378 3.125 15.2204 3.125 13.9667C3.125 12.7129 4.14014 11.6968 5.39324 11.6968Z" fill="#31B060"/>
</svg>
