<svg width="20" height="20" viewBox="0 0 20 20" fill="none" xmlns="http://www.w3.org/2000/svg">
<g clip-path="url(#clip0_8403_42532)">
<path d="M20.0005 10C20.0005 15.5226 15.5231 20 10 20H9.98128C4.46701 19.9897 0 15.5153 0 10C0 4.48475 4.46701 0.00985659 9.98128 0H10C15.5231 0 20.0005 4.47588 20.0005 10Z" fill="white"/>
<path d="M15.4427 7.2316L15.4303 9.28029C15.0311 9.2754 14.634 9.22212 14.2476 9.1216C13.6514 8.96587 13.0892 8.70139 12.5892 8.34145C12.5892 8.5509 12.5921 8.86335 12.5921 9.24332C12.5921 9.74897 12.5921 10.0363 12.5892 10.3413C12.5803 12.2259 12.6271 12.5906 12.4615 13.3358C12.4271 13.5155 12.38 13.6925 12.3206 13.8656C12.0022 14.7527 11.3083 15.4633 10.6011 15.8413C10.4038 15.9462 10.1966 16.0316 9.98261 16.0961C8.64606 16.5012 7.03993 16.1454 6.21099 15.1597L6.20557 15.1538L6.19916 15.1454C5.49491 14.2958 5.34115 12.9711 5.32636 12.632C5.32636 12.5886 5.32341 12.5463 5.32341 12.5463C5.31256 12.0831 5.37919 11.6214 5.52054 11.1801C5.66346 10.7238 6.13411 9.77114 7.19123 9.19256C7.85052 8.83741 8.60302 8.69341 9.34686 8.78006L9.32271 10.8534C9.28082 10.8426 8.26806 10.6025 7.60323 11.2925C7.001 11.9174 7.03993 12.9243 7.46721 13.4945C7.48988 13.525 7.51403 13.5546 7.53917 13.5822C7.77819 13.8488 8.08128 13.9489 8.2858 14.0188C8.557 14.1082 8.84163 14.1499 9.12706 14.142C9.43283 14.1373 9.73028 14.0417 9.98163 13.8675C10.6765 13.3954 10.7702 12.5546 10.7736 12.5068C10.7651 9.80022 10.757 7.0936 10.7495 4.38699V4.38452L12.052 4.36136H12.0732L12.2619 4.35791C12.4011 4.8588 12.637 5.32759 12.9563 5.73783C13.057 5.86615 13.1656 5.98796 13.2816 6.10252C13.72 6.52916 14.2465 6.85451 14.8242 7.05566H14.8281C15.0285 7.12889 15.2339 7.18768 15.4427 7.2316V7.2316Z" fill="#FD2854"/>
<path d="M14.8525 8.15911H14.8486C14.1471 8.2715 13.429 8.21696 12.7526 7.99993C12.2802 7.84635 11.8368 7.61499 11.4407 7.31539C11.6782 8.75126 11.6782 10.2164 11.4407 11.6523C11.1592 13.3397 10.9828 14.3973 10.041 15.074C10.0213 15.0883 10.0011 15.1026 9.98089 15.1159C8.68032 15.9966 6.86326 15.5594 6.19745 15.145L6.18759 15.139L6.16886 15.1272C5.9494 14.9818 5.74354 14.8169 5.55381 14.6344C5.2137 14.3045 4.9423 13.9105 4.75528 13.4751C4.56826 13.0397 4.46932 12.5716 4.46417 12.0978C4.45151 11.607 4.53298 11.1184 4.70418 10.6582C4.81506 10.3626 5.22707 9.31085 6.37486 8.67067C7.10984 8.26767 7.95912 8.12392 8.78578 8.26261C8.7825 8.42688 8.77938 8.59116 8.77642 8.75544V8.75889L8.7572 9.79876C8.39746 9.71398 8.0256 9.69329 7.65868 9.73764C7.36299 9.77411 7.0732 9.80812 6.76518 10.0018C6.3707 10.2557 6.0915 10.6542 5.9875 11.1117C5.92169 11.3332 5.90819 11.567 5.94808 11.7947C5.9599 11.8598 6.04664 12.3117 6.41133 12.636C6.53405 12.7449 6.58629 12.7493 6.76518 12.9164C6.92289 13.0642 6.96232 13.1352 7.10672 13.2579C7.10672 13.2579 7.1422 13.288 7.20035 13.3304C7.20408 13.3336 7.20804 13.3366 7.21218 13.3392C7.2917 13.3974 7.37519 13.4499 7.46204 13.4965C7.82329 13.6857 8.46988 13.7059 8.94398 13.4758C9.59994 13.1569 9.95773 12.4236 9.95625 11.9879C9.94837 9.2803 9.94032 6.57286 9.9321 3.86559H9.97744L11.9892 3.85376C11.9877 4.01068 12.0095 4.16695 12.0537 4.31751C12.0587 4.33377 12.0636 4.34905 12.069 4.36679C12.0744 4.38454 12.0779 4.39291 12.0823 4.40524C12.1135 4.48714 12.1496 4.56711 12.1902 4.64475L12.2183 4.70143V4.70586C12.2179 4.70714 12.2179 4.70853 12.2183 4.7098L12.2228 4.71917L12.2272 4.72804C12.2299 4.73377 12.2328 4.73936 12.2361 4.74479C12.239 4.7512 12.2425 4.75761 12.2459 4.76401C12.2647 4.79999 12.2903 4.8473 12.3194 4.90053C12.3376 4.93355 12.3568 4.96657 12.3765 4.99909L12.3977 5.03409C12.4081 5.05183 12.4189 5.06957 12.4298 5.08682L12.4692 5.14941C12.6225 5.39139 12.8915 5.79896 13.273 6.10697C13.8092 6.53968 14.4252 6.6619 14.8116 6.69837C14.8141 6.8196 14.817 6.94084 14.8195 7.06208C14.8339 7.42808 14.8449 7.79376 14.8525 8.15911Z" fill="#24F6FA"/>
<path d="M14.8573 8.73738C13.8418 8.77464 12.8447 8.45889 12.0358 7.84388V12.1808C12.026 12.3469 11.8806 14.1787 10.2257 15.187C10.1438 15.2363 10.0615 15.2822 9.97924 15.3245C8.42239 16.119 6.90103 15.4965 6.75072 15.432C6.60126 15.3831 6.45802 15.317 6.32392 15.2348C6.28203 15.2087 6.24113 15.1816 6.2022 15.1535L6.16721 15.1274C5.15198 14.3566 5.11009 12.7865 5.10368 12.5548C5.09283 12.0917 5.15946 11.6299 5.30081 11.1887C5.46837 10.654 5.96859 9.75261 6.9715 9.20113C7.52489 8.89998 8.1468 8.74717 8.77674 8.75759V8.76104C8.76852 9.28179 8.76031 9.80271 8.7521 10.3238C8.64614 10.2952 7.99659 10.1316 7.36182 10.5313C6.96734 10.7852 6.68813 11.1837 6.58414 11.6411C6.52192 11.8631 6.50847 12.096 6.54471 12.3237C6.60099 12.6049 6.73365 12.8651 6.92813 13.0758C7.00989 13.1699 7.10123 13.2553 7.20067 13.3305C7.2044 13.3338 7.20835 13.3367 7.2125 13.3394C7.29058 13.3997 7.37425 13.4523 7.46236 13.4966L7.46532 13.4991C7.64143 13.765 7.89547 13.97 8.19262 14.0859C8.48976 14.2019 8.81549 14.2231 9.12517 14.1467C9.26945 14.1166 9.40959 14.0692 9.54259 14.0057C9.70368 13.9291 9.85131 13.8269 9.97973 13.7031C10.4785 13.2236 10.5514 12.5603 10.5549 12.5203L10.5332 4.39408L10.75 4.38964L12.0526 4.36401H12.0713C12.0762 4.37683 12.0817 4.38964 12.0871 4.40245C12.1171 4.4749 12.1531 4.55523 12.195 4.64197L12.2231 4.69864V4.70308C12.2226 4.70436 12.2226 4.70575 12.2231 4.70702L12.2275 4.71639L12.232 4.72526C12.2346 4.73099 12.2376 4.73658 12.2408 4.74201C12.2438 4.74842 12.2472 4.75483 12.2507 4.76123C12.2734 4.80559 12.3 4.85142 12.3241 4.89775C12.3424 4.93077 12.3616 4.96379 12.3813 4.99631L12.4025 5.0313L12.4345 5.08404L12.4739 5.14663C12.6994 5.49921 12.9696 5.82108 13.2777 6.10419C13.7275 6.51597 14.2508 6.83932 14.8203 7.05733H14.8242C14.8307 7.42251 14.8371 7.78868 14.843 8.15387L14.8573 8.73738Z" fill="#000101"/>
</g>
<defs>
<clipPath id="clip0_8403_42532">
<rect width="20" height="20" fill="white"/>
</clipPath>
</defs>
</svg>
