<svg xmlns="http://www.w3.org/2000/svg" viewBox="0 0 50 50"><defs><style>.cls-1{fill:#5b86e5;}.cls-2{fill:#fff;}</style></defs><title>scroll btn</title><g id="Layer_2" data-name="Layer 2"><g id="Layer_1-2" data-name="Layer 1"><circle class="cls-1" cx="25" cy="25" r="25"/><path class="cls-2" d="M25,25.72c.91-.92,1.75-1.78,2.61-2.63l6.18-6.19a2.71,2.71,0,0,1,4,0c.3.31.61.61.91.91a2.7,2.7,0,0,1,.05,3.75c-2.48,2.5-5,5-7.48,7.48-1.37,1.37-2.78,2.72-4.11,4.13a3.21,3.21,0,0,1-4.33,0Q17.15,27.42,11.4,21.74a2.8,2.8,0,0,1,0-4.06c.4-.36.75-.8,1.17-1.13a2.67,2.67,0,0,1,3.46.18c.86.82,1.68,1.67,2.52,2.51l6.1,6.1C24.75,25.44,24.83,25.55,25,25.72Z"/></g></g></svg>