<svg xmlns="http://www.w3.org/2000/svg" width="45px" height="45px" viewBox="0 0 45 45"><defs><style>.cls-1{fill:#a5a5a5;}.cls-2{fill:#fff;}</style></defs><title>instargram</title><g id="Layer_2" data-name="Layer 2"><g id="OBJECTS"><path class="cls-1" d="M45,22.5A22.5,22.5,0,1,0,22.5,45,22.5,22.5,0,0,0,45,22.5Z"/><path class="cls-2" d="M33.62,17a6,6,0,0,0-1.8-3.86,6.25,6.25,0,0,0-4.12-1.7,80.91,80.91,0,0,0-11.15.06,5.71,5.71,0,0,0-4.91,4.35c-.55,1.91-.49,10.76-.19,12.66A5.72,5.72,0,0,0,16,33.4c1.78.47,10.52.46,12.48.16a5.73,5.73,0,0,0,5-4.48C33.93,27.11,33.79,18.73,33.62,17ZM31.48,28.21a3.81,3.81,0,0,1-3.61,3.38c-1.82.19-9.94.25-11.62-.23a3.7,3.7,0,0,1-2.79-3.2,76.12,76.12,0,0,1,.06-11.38,3.82,3.82,0,0,1,3.6-3.37,80.51,80.51,0,0,1,11.1.11,3.81,3.81,0,0,1,3.37,3.62A80.41,80.41,0,0,1,31.48,28.21ZM22.54,16.72a5.79,5.79,0,1,0,5.74,5.82A5.78,5.78,0,0,0,22.54,16.72Zm-.1,9.52a3.74,3.74,0,1,1,3.79-3.68A3.74,3.74,0,0,1,22.44,26.24Zm7.46-9.69a1.36,1.36,0,1,1-1.34-1.37A1.36,1.36,0,0,1,29.9,16.55Z"/><path class="cls-2" d="M33.62,17a6,6,0,0,0-1.8-3.86,6.25,6.25,0,0,0-4.12-1.7,80.91,80.91,0,0,0-11.15.06,5.71,5.71,0,0,0-4.91,4.35c-.55,1.91-.49,10.76-.19,12.66A5.72,5.72,0,0,0,16,33.4c1.78.47,10.52.46,12.48.16a5.73,5.73,0,0,0,5-4.48C33.93,27.11,33.79,18.73,33.62,17ZM31.48,28.21a3.81,3.81,0,0,1-3.61,3.38c-1.82.19-9.94.25-11.62-.23a3.7,3.7,0,0,1-2.79-3.2,76.12,76.12,0,0,1,.06-11.38,3.82,3.82,0,0,1,3.6-3.37,80.51,80.51,0,0,1,11.1.11,3.81,3.81,0,0,1,3.37,3.62A80.41,80.41,0,0,1,31.48,28.21ZM22.54,16.72a5.79,5.79,0,1,0,5.74,5.82A5.78,5.78,0,0,0,22.54,16.72Zm-.1,9.52a3.74,3.74,0,1,1,3.79-3.68A3.74,3.74,0,0,1,22.44,26.24Zm7.46-9.69a1.36,1.36,0,1,1-1.34-1.37A1.36,1.36,0,0,1,29.9,16.55Z"/></g></g></svg>