<svg xmlns="http://www.w3.org/2000/svg" width="45px" height="45px"  viewBox="0 0 55 55"><defs><style>.cls-1{fill:#a5a5a5;}.cls-2{fill:#fff;}</style></defs><title>twitter</title><g id="Layer_2" data-name="Layer 2"><g id="OBJECTS"><path class="cls-1" d="M55,27.5A27.5,27.5,0,1,0,27.5,55,27.5,27.5,0,0,0,55,27.5Z"/><path class="cls-2" d="M43.46,19.25a13.6,13.6,0,0,1-3.51.89,6.59,6.59,0,0,0,2.85-3.37.11.11,0,0,0-.15-.13,13.2,13.2,0,0,1-4,1.46,6.66,6.66,0,0,0-11.39,6,19.06,19.06,0,0,1-13.74-6.83,0,0,0,0,0-.06,0,6.5,6.5,0,0,0,2,8.65s0,.08,0,.08a6.86,6.86,0,0,1-2.83-.79s-.06,0-.06,0A9.15,9.15,0,0,0,13,27.66a6.71,6.71,0,0,0,4.91,4.06,6.63,6.63,0,0,1-3,.13,0,0,0,0,0,0,0A6.69,6.69,0,0,0,21,36.4s.06.05,0,.07a13.53,13.53,0,0,1-8.22,2.75,14,14,0,0,1-1.59-.09,19.1,19.1,0,0,0,10.24,2.95A18.62,18.62,0,0,0,34,37.56a19.32,19.32,0,0,0,6-10.22,18.11,18.11,0,0,0,.45-4c0-.29,0-.57,0-.85a13.44,13.44,0,0,0,3.13-3.12A.1.1,0,0,0,43.46,19.25Z"/></g></g></svg>