<svg xmlns="http://www.w3.org/2000/svg" width="45px" height="45px" viewBox="0 0 45 45"><defs><style>.cls-1{fill:#a5a5a5;}.cls-2{fill:#fff;}</style></defs><title>youtube</title><g id="Layer_2" data-name="Layer 2"><g id="OBJECTS"><path class="cls-1" d="M45,22.5A22.5,22.5,0,1,0,22.5,45,22.5,22.5,0,0,0,45,22.5Z"/><path class="cls-2" d="M22.47,13.81c3,.11,5.9.18,8.81.33,2.56.14,3.44,1.49,3.71,4.08a48.5,48.5,0,0,1,0,10.15,8.83,8.83,0,0,1-.52,2.26,3.18,3.18,0,0,1-3.09,2,133.85,133.85,0,0,1-17.46,0c-2.56-.17-3.56-1-3.9-4a47.29,47.29,0,0,1,0-10.3,8.71,8.71,0,0,1,.33-1.69,3.23,3.23,0,0,1,3.25-2.52C16.58,14,19.56,13.92,22.47,13.81Zm-3.14,14.4,8.05-4.82-8-4.8Z"/><path class="cls-1" d="M19.33,28.21V18.59l8.05,4.8Z"/></g></g></svg>