<svg width="215" height="36" viewBox="0 0 215 36" fill="none" xmlns="http://www.w3.org/2000/svg">
<path d="M41.3419 6.31791C40.7838 3.22662 39.095 1.06556 39.0235 0.979695L38.5369 0.36431L36.2327 2.19618L36.7193 2.81159C36.7766 2.88315 38.0932 4.58621 38.4796 6.96192C38.9805 10.0246 37.7497 12.8153 34.8445 15.2483C34.7586 15.3198 34.6728 15.3914 34.5869 15.463C34.5869 15.4057 34.5869 15.3485 34.5869 15.2769C34.5869 12.4862 33.17 9.95303 30.7943 8.47894L30.136 8.06392L28.576 10.5684L29.2344 10.9835C30.7371 11.9137 31.6244 13.5166 31.6244 15.2626C31.6244 16.8512 30.8659 18.3682 29.5779 19.3128C29.0054 19.7278 28.4759 20.0999 28.0036 20.4434C26.7728 21.3164 25.7996 22.0176 24.9552 22.7189C23.8532 22.5329 22.0357 22.4327 20.8478 22.4327C19.7458 22.4327 17.7422 22.5185 16.5687 22.7189C15.7243 22.0176 14.7368 21.3164 13.5203 20.4434C12.9765 20.057 12.4756 19.6992 11.9174 19.2985C10.658 18.3539 9.89951 16.8512 9.89951 15.2626C9.89951 13.5023 10.7868 11.8994 12.2895 10.9835L12.9479 10.5684L11.3879 8.06392L10.7296 8.47894C8.35386 9.95303 6.93702 12.4862 6.93702 15.2769C6.93702 15.3342 6.93702 15.3914 6.93702 15.4486C6.85115 15.3771 6.76528 15.3055 6.67941 15.234C3.77418 12.801 2.54338 10.0103 3.04429 6.94762C3.4307 4.5576 4.74736 2.86882 4.8046 2.79726L5.2912 2.18188L2.98704 0.350006L2.50045 0.965391C2.42889 1.05126 0.740131 3.19798 0.181982 6.30358C-0.347545 9.20882 0.0245547 13.5166 4.79029 17.5095C7.02289 19.37 8.82614 20.7153 10.1571 21.6885C10.1714 21.7028 10.1857 21.7171 10.2001 21.7314L10.6294 22.0463L10.8441 22.2037C11.1589 22.4327 11.4595 22.6473 11.7886 22.8763C12.2752 23.2198 12.7332 23.549 13.1625 23.8638C11.531 24.6939 10.3289 25.8818 9.6419 27.3272C8.59716 29.5455 8.92632 32.1216 10.5006 34.0393C11.531 35.2844 13.048 36 14.6509 36C15.6384 36 16.6259 35.7281 17.5276 35.2129C19.5598 34.0393 21.3917 31.2486 19.889 27.2414C19.6457 26.5973 19.3594 26.0106 19.016 25.4667C19.6457 25.4381 20.4614 25.4381 20.8335 25.4381C21.2199 25.4381 21.9069 25.4524 22.4793 25.4667C22.1359 26.0106 21.8496 26.5973 21.6063 27.2414C20.1036 31.2486 21.9355 34.0393 23.9534 35.1986C24.8407 35.7138 25.8425 35.9857 26.83 35.9857C28.4329 35.9857 29.9356 35.2701 30.9661 34.025C32.5547 32.1216 32.8838 29.5455 31.8391 27.3272C31.1521 25.8818 29.95 24.6796 28.3184 23.8495C28.7478 23.5347 29.2058 23.2055 29.6923 22.862C30.0215 22.633 30.3221 22.4041 30.6369 22.1894L31.2666 21.7314C31.2809 21.7171 31.2952 21.7171 31.2952 21.7171C32.6262 20.7439 34.4438 19.3986 36.6907 17.5238C41.4994 13.5309 41.8715 9.22315 41.3419 6.31791ZM28.7478 32.1359C28.1467 32.8658 27.4025 33.0089 26.8873 33.0089C26.4007 33.0089 25.8855 32.8658 25.4704 32.6225C23.8246 31.6779 23.8389 29.7316 24.3971 28.2432C24.7262 27.3558 25.1556 26.6546 25.8139 25.9676C27.4884 26.4972 28.6619 27.3988 29.2201 28.5723C29.7782 29.7602 29.5922 31.1198 28.7478 32.1359ZM12.8047 32.1502C11.9604 31.1198 11.7743 29.7602 12.3325 28.5723C12.8763 27.4131 14.0499 26.5115 15.7243 25.9819C16.3826 26.6832 16.812 27.3702 17.1411 28.2575C17.6993 29.7602 17.7136 31.6922 16.0678 32.6511C15.6384 32.8944 15.1375 33.0375 14.6509 33.0375C14.15 33.0232 13.4058 32.8801 12.8047 32.1502Z" fill="white"/>
<path d="M59.5033 26.2968C58.2868 25.9819 57.3136 25.5812 56.5837 25.1089L58.0721 21.9031C58.7591 22.3468 59.5891 22.7046 60.5623 22.9765C61.5355 23.2484 62.4944 23.3915 63.4246 23.3915C65.3138 23.3915 66.2583 22.9192 66.2583 21.989C66.2583 21.5453 66.0007 21.2305 65.4855 21.0444C64.9703 20.8584 64.1831 20.6866 63.1098 20.5578C61.8504 20.3718 60.8056 20.1428 59.9899 19.8995C59.1741 19.6562 58.4585 19.2126 57.8574 18.5828C57.2564 17.9531 56.9558 17.0515 56.9558 15.8923C56.9558 14.9191 57.2421 14.0604 57.8002 13.3019C58.3584 12.5434 59.1884 11.9566 60.2618 11.5416C61.3352 11.1265 62.6089 10.9119 64.083 10.9119C65.1706 10.9119 66.2583 11.0264 67.3317 11.2697C68.405 11.5129 69.3067 11.8421 70.0079 12.2572L68.5195 15.4343C67.1599 14.6758 65.6859 14.2894 64.083 14.2894C63.1241 14.2894 62.4085 14.4182 61.9362 14.6901C61.464 14.962 61.2207 15.3055 61.2207 15.7205C61.2207 16.1928 61.4783 16.5363 61.9935 16.7223C62.5087 16.9084 63.3245 17.0944 64.4551 17.2662C65.7145 17.4809 66.7449 17.6955 67.5464 17.9388C68.3478 18.1821 69.0491 18.6115 69.6358 19.2412C70.2226 19.8709 70.5231 20.7439 70.5231 21.8745C70.5231 22.8334 70.2369 23.6777 69.6645 24.4219C69.092 25.1661 68.2619 25.7386 67.1599 26.1537C66.058 26.5687 64.7556 26.769 63.2529 26.769C61.9649 26.769 60.7198 26.5973 59.5033 26.2968Z" fill="white"/>
<path d="M76.2334 25.7529C74.9454 25.0803 73.9436 24.1357 73.2137 22.9336C72.4838 21.7314 72.126 20.3718 72.126 18.8405C72.126 17.3091 72.4838 15.9495 73.2137 14.7474C73.9436 13.5452 74.9454 12.6006 76.2334 11.928C77.5215 11.2554 78.9812 10.9119 80.5984 10.9119C82.2156 10.9119 83.6754 11.2554 84.9491 11.928C86.2229 12.6006 87.2247 13.5452 87.9546 14.7474C88.6845 15.9495 89.0422 17.3091 89.0422 18.8405C89.0422 20.3718 88.6845 21.7314 87.9546 22.9336C87.2247 24.1357 86.2229 25.0803 84.9491 25.7529C83.6754 26.4256 82.2156 26.769 80.5984 26.769C78.9669 26.769 77.5215 26.4256 76.2334 25.7529ZM83.4178 21.9461C84.1477 21.1732 84.5198 20.1428 84.5198 18.8405C84.5198 17.5381 84.1477 16.5077 83.4178 15.7349C82.6879 14.962 81.7434 14.5756 80.5984 14.5756C79.4535 14.5756 78.509 14.962 77.7648 15.7349C77.0206 16.5077 76.6485 17.5381 76.6485 18.8405C76.6485 20.1428 77.0206 21.1732 77.7648 21.9461C78.509 22.7189 79.4535 23.1053 80.5984 23.1053C81.7434 23.091 82.6736 22.7189 83.4178 21.9461Z" fill="white"/>
<path d="M95.0388 25.7529C93.7364 25.0803 92.706 24.1357 91.9761 22.9336C91.2462 21.7314 90.8741 20.3718 90.8741 18.8405C90.8741 17.3091 91.2462 15.9495 91.9761 14.7474C92.706 13.5452 93.7364 12.6006 95.0388 11.928C96.3411 11.2554 97.8152 10.9119 99.4611 10.9119C101.078 10.9119 102.495 11.2554 103.712 11.928C104.928 12.6006 105.801 13.5738 106.359 14.8332L102.896 16.6937C102.094 15.2769 100.935 14.5756 99.4324 14.5756C98.2732 14.5756 97.3 14.962 96.5415 15.7205C95.783 16.479 95.3966 17.5238 95.3966 18.8405C95.3966 20.1571 95.783 21.2019 96.5415 21.9604C97.3 22.7189 98.2732 23.1053 99.4324 23.1053C100.964 23.1053 102.109 22.404 102.896 20.9872L106.359 22.8763C105.801 24.0928 104.928 25.0517 103.712 25.7386C102.495 26.4256 101.078 26.769 99.4611 26.769C97.8152 26.769 96.3411 26.4256 95.0388 25.7529Z" fill="white"/>
<path d="M109.164 8.27859C108.649 7.80631 108.391 7.20522 108.391 6.50395C108.391 5.80269 108.649 5.20162 109.164 4.72934C109.679 4.25706 110.352 4.01376 111.168 4.01376C111.984 4.01376 112.656 4.24274 113.171 4.70071C113.687 5.15868 113.944 5.73114 113.944 6.41809C113.944 7.16229 113.687 7.7777 113.171 8.26429C112.656 8.75088 111.984 8.99417 111.168 8.99417C110.352 8.99417 109.679 8.75087 109.164 8.27859ZM108.935 11.1409H113.4V26.5401H108.935V11.1409Z" fill="white"/>
<path d="M129.258 12.6007C130.531 13.7313 131.175 15.4486 131.175 17.7385V26.5258H126.996V24.608C126.152 26.0392 124.592 26.7548 122.302 26.7548C121.114 26.7548 120.098 26.5544 119.225 26.1537C118.352 25.753 117.694 25.1948 117.236 24.4935C116.778 23.7923 116.549 22.9908 116.549 22.0892C116.549 20.658 117.093 19.5274 118.166 18.7117C119.24 17.8959 120.914 17.4809 123.161 17.4809H126.71C126.71 16.5077 126.41 15.7635 125.823 15.234C125.236 14.7044 124.349 14.4468 123.161 14.4468C122.345 14.4468 121.529 14.5756 120.742 14.8333C119.955 15.0909 119.283 15.4343 118.724 15.878L117.121 12.7581C117.966 12.1713 118.968 11.7133 120.141 11.3842C121.315 11.055 122.517 10.8976 123.762 10.8976C126.138 10.9119 127.97 11.47 129.258 12.6007ZM125.451 23.2198C126.038 22.862 126.467 22.3468 126.71 21.6599V20.0856H123.648C121.816 20.0856 120.9 20.6867 120.9 21.8888C120.9 22.4613 121.129 22.9193 121.572 23.2484C122.016 23.5776 122.631 23.7493 123.419 23.7493C124.177 23.7493 124.85 23.5776 125.451 23.2198Z" fill="white"/>
<path d="M135.211 5.30179H139.676V26.5401H135.211V5.30179Z" fill="white"/>
<path d="M157.809 12.6149C158.983 13.7599 159.569 15.4629 159.569 17.7098V26.5257H155.104V18.3968C155.104 17.1803 154.832 16.2644 154.303 15.6633C153.773 15.0622 153 14.7617 151.984 14.7617C150.854 14.7617 149.966 15.1051 149.294 15.8064C148.621 16.5077 148.292 17.5381 148.292 18.912V26.5257H143.827V5.28745H148.292V12.7294C148.879 12.1427 149.594 11.6847 150.439 11.3698C151.283 11.055 152.199 10.8976 153.187 10.8976C155.09 10.9119 156.636 11.47 157.809 12.6149Z" fill="white"/>
<path d="M178.776 20.0999H167.126C167.341 21.0587 167.827 21.8029 168.614 22.3611C169.401 22.9192 170.375 23.1912 171.534 23.1912C172.335 23.1912 173.051 23.0767 173.666 22.8334C174.282 22.5901 174.868 22.218 175.398 21.7028L177.774 24.2788C176.328 25.939 174.21 26.769 171.419 26.769C169.688 26.769 168.142 26.4256 166.811 25.7529C165.48 25.0803 164.45 24.1357 163.72 22.9336C162.99 21.7314 162.632 20.3718 162.632 18.8405C162.632 17.3378 162.99 15.9781 163.706 14.7617C164.421 13.5452 165.409 12.6006 166.654 11.928C167.899 11.2554 169.301 10.9119 170.847 10.9119C172.35 10.9119 173.724 11.241 174.94 11.8851C176.157 12.5291 177.115 13.4593 177.817 14.6758C178.518 15.8923 178.861 17.2948 178.861 18.8977C178.861 18.9549 178.833 19.3414 178.776 20.0999ZM168.328 15.1481C167.641 15.7205 167.226 16.5077 167.069 17.4952H174.654C174.496 16.522 174.081 15.7492 173.394 15.1624C172.707 14.5756 171.863 14.2894 170.876 14.2894C169.859 14.2751 169.015 14.5613 168.328 15.1481Z" fill="white"/>
<path d="M193.116 12.6007C194.389 13.7313 195.033 15.4486 195.033 17.7385V26.5258H190.854V24.608C190.01 26.0392 188.45 26.7548 186.16 26.7548C184.972 26.7548 183.956 26.5544 183.083 26.1537C182.21 25.753 181.552 25.1948 181.094 24.4935C180.636 23.7923 180.407 22.9908 180.407 22.0892C180.407 20.658 180.951 19.5274 182.024 18.7117C183.098 17.8959 184.772 17.4809 187.019 17.4809H190.568C190.568 16.5077 190.268 15.7635 189.681 15.234C189.094 14.7044 188.207 14.4468 187.019 14.4468C186.203 14.4468 185.387 14.5756 184.6 14.8333C183.813 15.0909 183.141 15.4343 182.582 15.878L180.98 12.7581C181.824 12.1713 182.826 11.7133 183.999 11.3842C185.173 11.055 186.375 10.8976 187.62 10.8976C189.996 10.9119 191.828 11.47 193.116 12.6007ZM189.309 23.2198C189.896 22.862 190.325 22.3468 190.568 21.6599V20.0856H187.506C185.674 20.0856 184.758 20.6867 184.758 21.8888C184.758 22.4613 184.987 22.9193 185.43 23.2484C185.874 23.5776 186.489 23.7493 187.277 23.7493C188.035 23.7493 188.708 23.5776 189.309 23.2198Z" fill="white"/>
<path d="M214.926 5.30179V26.5401H210.662V24.7655C209.56 26.0964 207.957 26.7691 205.853 26.7691C204.407 26.7691 203.091 26.4399 201.917 25.7959C200.744 25.1519 199.828 24.2216 199.155 23.0195C198.482 21.8173 198.153 20.4291 198.153 18.8405C198.153 17.2519 198.482 15.8637 199.155 14.6615C199.828 13.4594 200.744 12.5291 201.917 11.8851C203.091 11.2411 204.407 10.9119 205.853 10.9119C207.814 10.9119 209.359 11.5273 210.461 12.7724V5.30179H214.926V5.30179ZM209.431 21.9461C210.175 21.1733 210.547 20.1429 210.547 18.8405C210.547 17.5382 210.175 16.5077 209.431 15.7349C208.687 14.9621 207.756 14.5757 206.626 14.5757C205.481 14.5757 204.536 14.9621 203.792 15.7349C203.048 16.5077 202.676 17.5382 202.676 18.8405C202.676 20.1429 203.048 21.1733 203.792 21.9461C204.536 22.7189 205.481 23.1053 206.626 23.1053C207.742 23.091 208.687 22.7189 209.431 21.9461Z" fill="white"/>
</svg>
