<svg width="40" height="40" viewBox="0 0 40 40" fill="none" xmlns="http://www.w3.org/2000/svg">
<path d="M22.3982 31.5439C21.9168 31.5439 21.4791 31.2811 21.2602 30.843L17.7148 23.243L12.2874 28.39L11.4995 27.5577L16.9051 22.4107C17.1677 22.1479 17.5616 22.0383 17.9118 22.1041C18.2838 22.1698 18.5902 22.4107 18.7434 22.7392L22.2888 30.3393C22.3107 30.3612 22.3545 30.3831 22.3982 30.3831C22.442 30.3831 22.4858 30.3612 22.5077 30.2955L30.9772 9.33507L17.8243 21.2718C17.3428 21.7098 16.6425 21.7974 16.0735 21.5127L8.47936 17.6579C8.01977 17.417 7.75715 16.957 7.77904 16.4314C7.82281 15.9276 8.15108 15.4896 8.63255 15.3144L28.0446 8.10855L28.4385 9.18175L9.0046 16.3876C8.93895 16.4095 8.91706 16.4533 8.91706 16.4971C8.91706 16.5409 8.93894 16.5847 8.98271 16.6066L16.5768 20.4614C16.73 20.549 16.9051 20.5052 17.0364 20.3957L30.43 8.28376C30.8021 7.93333 31.3492 7.91143 31.765 8.19615C32.1808 8.48088 32.334 9.00654 32.1371 9.46648L23.5362 30.7335C23.3393 31.1935 22.9235 31.5001 22.4201 31.522C22.442 31.5439 22.4201 31.5439 22.3982 31.5439Z" fill="#5B86E5"/>
<path d="M16.3171 25.9372L10.2646 31.6134L11.0428 32.4445L17.0953 26.7683L16.3171 25.9372Z" fill="#5B86E5"/>
<path d="M11.9937 24.1686L14.2841 21.9388L15.0776 22.7552L12.7873 24.985L11.9937 24.1686Z" fill="#5B86E5"/>
</svg>
