<svg width="40" height="40" xmlns="http://www.w3.org/2000/svg" viewBox="0 0 40 34.07"><defs></defs><title>SH_xanh</title><g id="Layer_2" data-name="Layer 2"><g id="Layer_1-2" data-name="Layer 1"><path class="cls-1" fill="#5b86e5" d="M39.83,5.14A12.76,12.76,0,0,0,37.61,0l-1.8,1.42c.21.27,5.19,6.8-1.9,12.72l-.81.67a8.3,8.3,0,0,0,0-.87,7.55,7.55,0,0,0-3.59-6.45L28.35,9.44a5.25,5.25,0,0,1,2.51,4.5,5.32,5.32,0,0,1-2.14,4.25L27.16,19.3c-1.27.92-2.35,1.68-3.24,2.46A17.32,17.32,0,0,0,20,21.34a17.32,17.32,0,0,0-3.92.42c-.89-.78-2-1.54-3.24-2.46l-1.58-1.13a5.3,5.3,0,0,1-2.12-4.23,5.25,5.25,0,0,1,2.5-4.5l-1.2-1.95a7.55,7.55,0,0,0-3.59,6.45,8.46,8.46,0,0,0,.05.87c-.27-.21-.54-.44-.81-.67C-1,8.22,4,1.69,4.19,1.42L3.3.72,2.39,0A12.76,12.76,0,0,0,.17,5.14C-.33,7.93,0,12.07,4.62,15.9c2.06,1.72,3.8,3,5.28,4.12l0,0h0l1.56,1.12c.76.54,1.43,1,2,1.46a7.89,7.89,0,0,0-3.9,3.68,5.52,5.52,0,0,0,.68,5.93,5,5,0,0,0,3.85,1.83,5.27,5.27,0,0,0,2.68-.74c1.9-1.09,3.62-3.71,2.2-7.49a9.58,9.58,0,0,0-1.09-2.09,17.74,17.74,0,0,1,4.12,0A9.58,9.58,0,0,0,21,25.84c-1.41,3.77.3,6.39,2.19,7.48a5.33,5.33,0,0,0,2.69.74,4.94,4.94,0,0,0,3.85-1.82,5.51,5.51,0,0,0,.69-5.92,7.88,7.88,0,0,0-3.91-3.69c.58-.44,1.25-.92,2-1.46l1.56-1.12h0l0,0c1.49-1.08,3.24-2.4,5.31-4.13C40,12.07,40.33,7.93,39.83,5.14ZM15.69,31.35a2.8,2.8,0,0,1-3.62-.57,3.21,3.21,0,0,1-.38-3.5,6.16,6.16,0,0,1,3.75-3,6.89,6.89,0,0,1,1.45,2.33C17.8,29.08,16.87,30.67,15.69,31.35Zm12.62-4.06a3.22,3.22,0,0,1-.37,3.49,2.81,2.81,0,0,1-3.63.56c-1.18-.68-2.11-2.27-1.2-4.7a6.89,6.89,0,0,1,1.45-2.33A6.08,6.08,0,0,1,28.31,27.29Z"/></g></g></svg>