<svg width="9" height="15" viewBox="0 0 9 15" fill="none" xmlns="http://www.w3.org/2000/svg">
<path d="M8.70356 0.296443C8.90119 0.494071 9 0.728064 9 0.998419C9 1.26878 8.90119 1.5025 8.70356 1.6996L2.91304 7.49012L8.72332 13.3004C8.90777 13.4848 9 13.7154 9 13.9921C9 14.2688 8.90119 14.5059 8.70356 14.7036C8.50593 14.9012 8.27194 15 8.00158 15C7.73123 15 7.4975 14.9012 7.3004 14.7036L0.660079 8.04348C0.581028 7.96443 0.524902 7.87879 0.4917 7.78656C0.458498 7.69433 0.442161 7.59552 0.442688 7.49012C0.442688 7.38472 0.459289 7.2859 0.49249 7.19368C0.525692 7.10145 0.581555 7.01581 0.660079 6.93676L7.32016 0.27668C7.50461 0.0922269 7.73202 -2.34875e-08 8.00237 1.47798e-10C8.27273 2.3783e-08 8.50646 0.0988143 8.70356 0.296443Z" fill="#DDDDDD"/>
</svg>
