<svg width="9" height="15" viewBox="0 0 9 15" fill="none" xmlns="http://www.w3.org/2000/svg">
<path d="M0.296443 14.7036C0.0988142 14.5059 0 14.2719 0 14.0016C0 13.7312 0.0988142 13.4975 0.296443 13.3004L6.08696 7.50988L0.27668 1.6996C0.0922265 1.51515 0 1.28458 0 1.00791C0 0.731225 0.0988142 0.494071 0.296443 0.296443C0.494071 0.0988142 0.728063 0 0.998419 0C1.26877 0 1.5025 0.0988142 1.6996 0.296443L8.33992 6.95652C8.41897 7.03557 8.4751 7.12121 8.5083 7.21344C8.5415 7.30567 8.55784 7.40448 8.55731 7.50988C8.55731 7.61528 8.54071 7.7141 8.50751 7.80632C8.47431 7.89855 8.41845 7.98419 8.33992 8.06324L1.67984 14.7233C1.49539 14.9078 1.26798 15 0.997628 15C0.727272 15 0.493544 14.9012 0.296443 14.7036Z" fill="#DDDDDD"/>
</svg>
