<svg width="13" height="13" viewBox="0 0 13 13" fill="none" xmlns="http://www.w3.org/2000/svg">
<path fillRule="evenodd" clip-rule="evenodd" d="M2.4853 11.799L10.6778 3.60645V8.26345C10.6778 8.81641 11.1247 9.2633 11.6777 9.2633C12.2306 9.2633 12.6775 8.81641 12.6775 8.26345L12.6775 1.19239C12.6775 0.639429 12.2306 0.192537 11.6777 0.192537L4.60662 0.192537C4.33085 0.192537 4.08054 0.30426 3.89952 0.485279C3.7185 0.666299 3.60677 0.916615 3.60677 1.19239C3.60677 1.74534 4.05367 2.19224 4.60662 2.19224L9.26363 2.19224L1.07109 10.3848C0.68006 10.7758 0.68006 11.408 1.07109 11.799C1.46212 12.19 2.09427 12.19 2.4853 11.799" fill="white"/>
</svg>
