<svg xmlns="http://www.w3.org/2000/svg" viewBox="0 0 245.24 245.24"><defs><style>.cls-1{fill:#fff;}.cls-2{font-size:26.66px;fill:#231f20;font-family:Montserrat-Bold, Montserrat;font-weight:700;letter-spacing:-0.01em;}.cls-3{fill:#5b86e5;}</style></defs><title>Asset 4</title><g id="Layer_2" data-name="Layer 2"><g id="Layer_1-2" data-name="Layer 1"><rect class="cls-1" width="245.24" height="245.24" rx="25"/><text class="cls-2" transform="translate(32.56 179.89)">socialpublish</text><path class="cls-3" d="M130.1,136.3a4.16,4.16,0,0,1-3.73-2.28l0-.07-11.77-25.33L97.37,125l-2.72-2.86,17.27-16.42a3.88,3.88,0,0,1,6.17,1.14l11.81,25.42a.22.22,0,0,0,.22.11.23.23,0,0,0,.23-.15l26.84-66.37-41.61,37.58a5.16,5.16,0,0,1-5.75.77L85.55,91.85a4.2,4.2,0,0,1,.53-7.72l62.71-23.59,1.39,3.7L87.42,87.85c-.11,0-.21.07-.22.24a.21.21,0,0,0,.13.24l24.29,12.33a1.19,1.19,0,0,0,1.32-.18L156.31,61.3a3.4,3.4,0,0,1,5.43,3.8L134,133.68a4.18,4.18,0,0,1-3.71,2.62Z"/><rect class="cls-3" x="88.66" y="123.78" width="26.5" height="3.95" transform="translate(-58.43 103.64) rotate(-43.13)"/><rect class="cls-3" x="96.2" y="108.49" width="10.22" height="3.95" transform="translate(-48.33 101.86) rotate(-44.18)"/></g></g></svg>