<svg xmlns="http://www.w3.org/2000/svg" viewBox="0 0 245.24 245.24"><defs><style>.cls-1{fill:#fff;}.cls-2{font-size:26.66px;fill:#231f20;font-family:Montserrat-Bold, Montserrat;font-weight:700;letter-spacing:-0.01em;}.cls-3{letter-spacing:-0.02em;}.cls-4{letter-spacing:-0.01em;}.cls-5{fill:#5b86e5;}</style></defs><title>Asset 1</title><g id="Layer_2" data-name="Layer 2"><g id="Layer_1-2" data-name="Layer 1"><rect class="cls-1" width="245.24" height="245.24" rx="25"/><text class="cls-2" transform="translate(48.7 174.51)">social<tspan class="cls-3" x="78.27" y="0">r</tspan><tspan class="cls-4" x="89.25" y="0">eply</tspan></text><path class="cls-5" d="M95.48,133.05V121.32a5.67,5.67,0,0,0-5.66-5.66A9.66,9.66,0,0,1,80.16,106V83a9.67,9.67,0,0,1,9.66-9.66H120v4H89.82A5.67,5.67,0,0,0,84.15,83v23a5.67,5.67,0,0,0,5.67,5.66,9.66,9.66,0,0,1,9.65,9.65v2.07l11-11a9.62,9.62,0,0,1,6.83-2.83h38.41a5.67,5.67,0,0,0,5.66-5.66V92.22a5.67,5.67,0,0,0-5.66-5.66h-8.43a9.67,9.67,0,0,1-9.66-9.66V73.3L126,84.88a9.62,9.62,0,0,1-6.83,2.83H104.37a5.67,5.67,0,0,0-5.66,5.66v12.42h-4V93.37a9.67,9.67,0,0,1,9.66-9.66H119.2a5.62,5.62,0,0,0,4-1.66l18.4-18.4V76.9a5.67,5.67,0,0,0,5.66,5.66h8.43a9.67,9.67,0,0,1,9.66,9.66v11.7a9.67,9.67,0,0,1-9.66,9.66H117.28a5.62,5.62,0,0,0-4,1.66Z"/><circle class="cls-5" cx="119.96" cy="98.35" r="3.36"/><circle class="cls-5" cx="131.65" cy="98.35" r="3.36"/><circle class="cls-5" cx="143.33" cy="98.35" r="3.36"/></g></g></svg>