<svg xmlns="http://www.w3.org/2000/svg" viewBox="0 0 245.24 245.24"><defs><style>.cls-1{fill:#fff;}.cls-2{font-size:26.66px;fill:#231f20;font-family:Montserrat-Bold, Montserrat;font-weight:700;letter-spacing:-0.01em;}.cls-3{letter-spacing:0em;}.cls-4{fill:#5b86e5;}</style></defs><title>Asset 3</title><g id="Layer_2" data-name="Layer 2"><g id="Layer_1-2" data-name="Layer 1"><rect class="cls-1" width="245.24" height="245.24" rx="25"/><text class="cls-2" transform="translate(49.72 178.87)">socials<tspan class="cls-3" x="92.16" y="0">h</tspan><tspan x="110.47" y="0">op</tspan></text><path class="cls-4" d="M129.31,138.82a4.63,4.63,0,0,1-1.88-.39l-28-11.94a4.8,4.8,0,0,1-2.53-6.3l16.12-37.74a4.79,4.79,0,0,1,2.87-2.67l16.37-5.55L133.59,78l-16.37,5.56a.77.77,0,0,0-.48.45l-16.12,37.74a.8.8,0,0,0,.42,1.06l28,11.94a.78.78,0,0,0,.61,0,.74.74,0,0,0,.44-.43L146.13,96.7a.82.82,0,0,0,0-.7c-2.46-4.48-10.63-19.62-12.37-26.36-1.13-4.4.77-7.07,2.55-8.53a7.66,7.66,0,0,1,9-.67c2.64,1.76,3.58,5,2.5,8.62a9,9,0,0,1-5.5,5.57l-1.48-3.71a5.12,5.12,0,0,0,3.15-3c.57-1.92.25-3.39-.88-4.14a3.65,3.65,0,0,0-4.25.42,3.89,3.89,0,0,0-1.21,4.44c1.28,5,7,16.41,12,25.43a4.77,4.77,0,0,1,.2,4.2L133.73,135.9A4.8,4.8,0,0,1,129.31,138.82Z"/><circle class="cls-4" cx="130.98" cy="88.81" r="4.14"/></g></g></svg>