<svg xmlns="http://www.w3.org/2000/svg" viewBox="0 0 245.24 245.24"><defs><style>.cls-1{fill:#fff;}.cls-2{font-size:26.66px;fill:#231f20;font-family:Montserrat-Bold, Montserrat;font-weight:700;letter-spacing:-0.01em;}.cls-3{fill:#5b86e5;}</style></defs><title>Asset 2</title><g id="Layer_2" data-name="Layer 2"><g id="Layer_1-2" data-name="Layer 1"><rect class="cls-1" width="245.24" height="245.24" rx="25"/><text class="cls-2" transform="translate(35.06 181.32)">social</text><text class="cls-2" transform="translate(113.25 181.32)">widget</text><path class="cls-3" d="M124,89.36l-.08,0-.27-.24a5.84,5.84,0,0,0-4.22-1.65A3.53,3.53,0,0,0,116.15,90a5.39,5.39,0,0,0,1,4.87A29.57,29.57,0,0,0,119.87,98a25.79,25.79,0,0,0,4.17,3.44c.78-.61,1.58-1.17,2.31-1.81s1.69-1.53,2.5-2.34A13.5,13.5,0,0,0,131.38,94a5.36,5.36,0,0,0,.56-3.84,3.8,3.8,0,0,0-5-2.62A7,7,0,0,0,124,89.36Z"/><path class="cls-3" d="M124,89.36a7,7,0,0,1,3-1.78,3.8,3.8,0,0,1,5,2.62,5.36,5.36,0,0,1-.56,3.84,13.5,13.5,0,0,1-2.53,3.28c-.81.81-1.64,1.6-2.5,2.34s-1.53,1.2-2.31,1.81A25.79,25.79,0,0,1,119.87,98a29.57,29.57,0,0,1-2.74-3.19,5.39,5.39,0,0,1-1-4.87,3.53,3.53,0,0,1,3.31-2.54,5.84,5.84,0,0,1,4.22,1.65l.27.24Z"/><path class="cls-3" d="M121.22,132.71V120.58h4v6.72a41.44,41.44,0,0,0,19.22-13.47,37.07,37.07,0,0,0,8.05-23.47c0-8.48-2.66-15.37-8.12-21.08a26.3,26.3,0,0,0-20-8.45,27.5,27.5,0,0,0-20.58,8.4c-5.58,5.66-8.3,12.49-8.3,20.87,0,7.94,2.53,14.4,7.72,19.76a27.53,27.53,0,0,0,10.67,6.88l-1.34,3.77a31.72,31.72,0,0,1-12.21-7.87A31.29,31.29,0,0,1,91.52,90.1,32.55,32.55,0,0,1,101,66.42a31.74,31.74,0,0,1,23.43-9.59,30.54,30.54,0,0,1,22.86,9.68c6.12,6.4,9.23,14.43,9.23,23.85a41,41,0,0,1-8.91,25.94A46,46,0,0,1,123.78,132Z"/></g></g></svg>