<svg width="110" height="98" viewBox="0 0 110 98" fill="none" xmlns="http://www.w3.org/2000/svg">
<rect width="110" height="98" rx="6" fill="#E8F2F9"/>
<path d="M0 6C0 2.68629 2.68629 0 6 0H104C107.314 0 110 2.68629 110 6V92C110 95.3137 107.314 98 104 98H6C2.68629 98 0 95.3137 0 92V6Z" fill="url(#paint0_linear)"/>
<rect x="56.9032" y="18" width="12.1613" height="9.35484" rx="2" fill="#8CBFF0"/>
<path d="M61.7867 20.4662H61.0831L60.0686 21.118V21.7957L61.0233 21.1858H61.0472V24.5483H61.7867V20.4662Z" fill="white"/>
<path d="M64.3321 24.6261C65.3167 24.6281 65.9047 23.8507 65.9047 22.5113C65.9047 21.1798 65.3127 20.4104 64.3321 20.4104C63.3514 20.4104 62.7614 21.1778 62.7594 22.5113C62.7594 23.8487 63.3474 24.6261 64.3321 24.6261ZM64.3321 24.0022C63.8238 24.0022 63.5049 23.4919 63.5069 22.5113C63.5089 21.5386 63.8258 21.0263 64.3321 21.0263C64.8403 21.0263 65.1572 21.5386 65.1592 22.5113C65.1592 23.4919 64.8423 24.0022 64.3321 24.0022Z" fill="white"/>
<rect x="71.871" y="18" width="12.1613" height="9.35484" rx="2" fill="#8CBFF0"/>
<path d="M75.2275 24.5483H78.026V23.9304H76.248V23.9025L76.9516 23.187C77.7449 22.4255 77.9642 22.0548 77.9642 21.5944C77.9642 20.9107 77.4081 20.4104 76.5869 20.4104C75.7776 20.4104 75.2036 20.9127 75.2036 21.6881H75.9072C75.9072 21.2715 76.1703 21.0104 76.5769 21.0104C76.9656 21.0104 77.2546 21.2476 77.2546 21.6322C77.2546 21.9731 77.0473 22.2163 76.6447 22.6249L75.2275 24.0141V24.5483Z" fill="white"/>
<path d="M80.1647 24.6041C81.0477 24.6041 81.6796 24.1178 81.6816 23.454C81.6796 22.9438 81.3028 22.5172 80.8285 22.4375V22.4096C81.2411 22.3179 81.5281 21.9472 81.5301 21.5047C81.5281 20.8768 80.95 20.4104 80.1647 20.4104C79.3734 20.4104 78.7954 20.8748 78.7974 21.5047C78.7954 21.9472 79.0784 22.3179 79.499 22.4096V22.4375C79.0166 22.5172 78.6439 22.9438 78.6459 23.454C78.6439 24.1178 79.2737 24.6041 80.1647 24.6041ZM80.1647 24.0341C79.7023 24.0341 79.4033 23.7789 79.4073 23.4022C79.4033 23.0116 79.7242 22.7345 80.1647 22.7345C80.5992 22.7345 80.9182 23.0135 80.9221 23.4022C80.9182 23.7789 80.6212 24.0341 80.1647 24.0341ZM80.1647 22.1744C79.786 22.1744 79.5149 21.9292 79.5189 21.5744C79.5149 21.2236 79.778 20.9884 80.1647 20.9884C80.5454 20.9884 80.8065 21.2236 80.8105 21.5744C80.8065 21.9312 80.5374 22.1744 80.1647 22.1744Z" fill="white"/>
<rect x="86.8387" y="18" width="12.1613" height="9.35484" rx="2" fill="#8CBFF0"/>
<path d="M91.5733 24.6042C92.4364 24.6042 93.0383 24.0182 93.0383 23.2069C93.0383 22.4216 92.4922 21.8555 91.7507 21.8555C91.4198 21.8555 91.1268 21.9871 90.9754 22.1665H90.9514L91.069 21.0842H92.8251V20.4663H90.4571L90.2438 22.5711L90.9116 22.6807C91.0491 22.5292 91.3082 22.4276 91.5534 22.4296C92.0019 22.4316 92.3248 22.7624 92.3228 23.2249C92.3248 23.6813 92.0098 24.0062 91.5733 24.0062C91.2046 24.0062 90.9076 23.773 90.8817 23.4381H90.1641C90.184 24.1158 90.776 24.6042 91.5733 24.6042Z" fill="white"/>
<path d="M95.1232 20.4104C94.2383 20.4045 93.6503 21.0124 93.6503 21.8097C93.6522 22.5791 94.2004 23.1352 94.9159 23.1352C95.3564 23.1352 95.7391 22.9219 95.9365 22.5711H95.9644C95.9624 23.4441 95.6455 23.9644 95.0814 23.9644C94.7286 23.9644 94.4914 23.761 94.4176 23.4361H93.6901C93.7738 24.1119 94.308 24.6042 95.0814 24.6042C96.0601 24.6042 96.6839 23.787 96.6819 22.3817C96.6799 20.8948 95.9066 20.4144 95.1232 20.4104ZM95.1252 21.0084C95.5617 21.0084 95.8827 21.3712 95.8827 21.7878C95.8847 22.2103 95.5478 22.5731 95.1173 22.5731C94.6827 22.5731 94.3698 22.2303 94.3678 21.7937C94.3678 21.3552 94.6927 21.0084 95.1252 21.0084Z" fill="white"/>
<path d="M12.946 25.484H14.0553V22.8829H16.5996V21.953H14.0553V20.2907H16.8687V19.3608H12.946V25.484Z" fill="#7CA3C9"/>
<path d="M18.9137 19.3608H17.8314V25.484H18.9137V19.3608Z" fill="#7CA3C9"/>
<path d="M21.3482 25.5767C22.0688 25.5767 22.4993 25.2388 22.6966 24.8532H22.7325V25.484H23.773V22.4105C23.773 21.1966 22.7833 20.8318 21.9073 20.8318C20.9416 20.8318 20.2001 21.2624 19.9609 22.0995L20.9715 22.243C21.0791 21.9291 21.3841 21.66 21.9133 21.66C22.4156 21.66 22.6906 21.9171 22.6906 22.3686V22.3865C22.6906 22.6975 22.3647 22.7124 21.5545 22.7991C20.6635 22.8948 19.8114 23.1609 19.8114 24.1954C19.8114 25.0983 20.4722 25.5767 21.3482 25.5767ZM21.6293 24.7814C21.1778 24.7814 20.8549 24.5751 20.8549 24.1775C20.8549 23.7619 21.2167 23.5885 21.701 23.5197C21.985 23.4808 22.5531 23.4091 22.6936 23.2955V23.8366C22.6936 24.3479 22.281 24.7814 21.6293 24.7814Z" fill="#7CA3C9"/>
<path d="M28.4909 22.1055C28.3414 21.3281 27.7195 20.8318 26.6432 20.8318C25.537 20.8318 24.7835 21.376 24.7865 22.2251C24.7835 22.8948 25.1961 23.3373 26.0781 23.5197L26.8614 23.6841C27.283 23.7768 27.4803 23.9472 27.4803 24.2074C27.4803 24.5213 27.1395 24.7575 26.6253 24.7575C26.1289 24.7575 25.806 24.5422 25.7134 24.1296L24.6579 24.2313C24.7925 25.0744 25.5011 25.5737 26.6282 25.5737C27.7763 25.5737 28.5866 24.9787 28.5896 24.1087C28.5866 23.4539 28.165 23.0533 27.298 22.8649L26.5146 22.6975C26.0482 22.5928 25.8628 22.4314 25.8658 22.1653C25.8628 21.8544 26.2067 21.6391 26.6581 21.6391C27.1574 21.6391 27.4205 21.9112 27.5043 22.2131L28.4909 22.1055Z" fill="#7CA3C9"/>
<path d="M30.5644 22.7932C30.5644 22.1294 30.9769 21.7467 31.557 21.7467C32.125 21.7467 32.4599 22.1085 32.4599 22.7274V25.484H33.5422V22.56C33.5422 21.4507 32.9144 20.8318 31.9606 20.8318C31.255 20.8318 30.8065 21.1517 30.5942 21.672H30.5404V19.3608H29.482V25.484H30.5644V22.7932Z" fill="#7CA3C9"/>
<path d="M40.3635 22.1055C40.214 21.3281 39.5921 20.8318 38.5158 20.8318C37.4096 20.8318 36.6561 21.376 36.6591 22.2251C36.6561 22.8948 37.0687 23.3373 37.9507 23.5197L38.7341 23.6841C39.1556 23.7768 39.3529 23.9472 39.3529 24.2074C39.3529 24.5213 39.0121 24.7575 38.4979 24.7575C38.0015 24.7575 37.6786 24.5422 37.586 24.1296L36.5306 24.2313C36.6651 25.0744 37.3737 25.5737 38.5008 25.5737C39.6489 25.5737 40.4592 24.9787 40.4622 24.1087C40.4592 23.4539 40.0376 23.0533 39.1706 22.8649L38.3872 22.6975C37.9208 22.5928 37.7355 22.4314 37.7384 22.1653C37.7355 21.8544 38.0793 21.6391 38.5307 21.6391C39.03 21.6391 39.2932 21.9112 39.3769 22.2131L40.3635 22.1055Z" fill="#7CA3C9"/>
<path d="M42.6761 25.5767C43.3967 25.5767 43.8272 25.2388 44.0246 24.8532H44.0604V25.484H45.1009V22.4105C45.1009 21.1966 44.1113 20.8318 43.2352 20.8318C42.2695 20.8318 41.528 21.2624 41.2889 22.0995L42.2994 22.243C42.4071 21.9291 42.712 21.66 43.2412 21.66C43.7435 21.66 44.0186 21.9171 44.0186 22.3686V22.3865C44.0186 22.6975 43.6927 22.7124 42.8824 22.7991C41.9915 22.8948 41.1394 23.1609 41.1394 24.1954C41.1394 25.0983 41.8001 25.5767 42.6761 25.5767ZM42.9572 24.7814C42.5057 24.7814 42.1828 24.5751 42.1828 24.1775C42.1828 23.7619 42.5446 23.5885 43.0289 23.5197C43.313 23.4808 43.881 23.4091 44.0216 23.2955V23.8366C44.0216 24.3479 43.609 24.7814 42.9572 24.7814Z" fill="#7CA3C9"/>
<path d="M47.2715 19.3608H46.1892V25.484H47.2715V19.3608Z" fill="#7CA3C9"/>
<path d="M50.4176 25.5737C51.4879 25.5737 52.2234 25.0505 52.4148 24.2522L51.4042 24.1386C51.2577 24.5273 50.8989 24.7306 50.4325 24.7306C49.7329 24.7306 49.2695 24.2701 49.2605 23.4838H52.4596V23.1519C52.4596 21.5404 51.4909 20.8318 50.3607 20.8318C49.0452 20.8318 48.1871 21.7975 48.1871 23.2147C48.1871 24.6558 49.0333 25.5737 50.4176 25.5737ZM49.2635 22.7543C49.2964 22.1683 49.7299 21.675 50.3757 21.675C50.9976 21.675 51.4162 22.1294 51.4221 22.7543H49.2635Z" fill="#7CA3C9"/>
<path opacity="0.8" d="M12.25 41C12.25 39.4812 13.4812 38.25 15 38.25H96C97.5188 38.25 98.75 39.4812 98.75 41V75C98.75 76.5188 97.5188 77.75 96 77.75H15C13.4812 77.75 12.25 76.5188 12.25 75V41Z" fill="white" stroke="#8CBFF0" stroke-width="0.5"/>
<line x1="12" y1="57.75" x2="99" y2="57.75" stroke="#8CBFF0" stroke-width="0.5"/>
<line x1="41.25" y1="38" x2="41.25" y2="78" stroke="#8CBFF0" stroke-width="0.5"/>
<line x1="70.25" y1="38" x2="70.25" y2="78" stroke="#8CBFF0" stroke-width="0.5"/>
<defs>
<linearGradient id="paint0_linear" x1="-7.01776e-07" y1="41" x2="110" y2="41" gradientUnits="userSpaceOnUse">
<stop stop-color="#CDE7FF"/>
<stop offset="1" stop-color="#E8F2F9"/>
</linearGradient>
</defs>
</svg>
