<svg width="110" height="98" viewBox="0 0 110 98" fill="none" xmlns="http://www.w3.org/2000/svg">
<rect width="110" height="98" rx="6" fill="#E8F2F9"/>
<path d="M0 6C0 2.68629 2.68629 0 6 0H104C107.314 0 110 2.68629 110 6V92C110 95.3137 107.314 98 104 98H6C2.68629 98 0 95.3137 0 92V6Z" fill="url(#paint0_linear)"/>
<rect x="56.9032" y="28" width="12.1613" height="9.35484" rx="2" fill="#8CBFF0"/>
<path d="M61.7866 30.4662H61.083L60.0685 31.118V31.7957L61.0232 31.1858H61.0472V34.5483H61.7866V30.4662Z" fill="white"/>
<path d="M64.332 34.6261C65.3166 34.6281 65.9046 33.8507 65.9046 32.5113C65.9046 31.1798 65.3126 30.4104 64.332 30.4104C63.3513 30.4104 62.7613 31.1778 62.7593 32.5113C62.7593 33.8487 63.3473 34.6261 64.332 34.6261ZM64.332 34.0022C63.8237 34.0022 63.5048 33.4919 63.5068 32.5113C63.5088 31.5386 63.8257 31.0263 64.332 31.0263C64.8402 31.0263 65.1572 31.5386 65.1592 32.5113C65.1592 33.4919 64.8422 34.0022 64.332 34.0022Z" fill="white"/>
<rect x="71.871" y="28" width="12.1613" height="9.35484" rx="2" fill="#8CBFF0"/>
<path d="M75.2275 34.5483H78.026V33.9304H76.2481V33.9025L76.9517 33.187C77.745 32.4255 77.9642 32.0548 77.9642 31.5944C77.9642 30.9107 77.4081 30.4104 76.5869 30.4104C75.7777 30.4104 75.2036 30.9127 75.2036 31.6881H75.9072C75.9072 31.2715 76.1703 31.0104 76.5769 31.0104C76.9656 31.0104 77.2546 31.2476 77.2546 31.6322C77.2546 31.9731 77.0473 32.2163 76.6447 32.6249L75.2275 34.0141V34.5483Z" fill="white"/>
<path d="M80.1647 34.6041C81.0477 34.6041 81.6796 34.1178 81.6816 33.454C81.6796 32.9438 81.3029 32.5172 80.8285 32.4375V32.4096C81.2411 32.3179 81.5281 31.9472 81.5301 31.5047C81.5281 30.8768 80.9501 30.4104 80.1647 30.4104C79.3734 30.4104 78.7954 30.8748 78.7974 31.5047C78.7954 31.9472 79.0784 32.3179 79.499 32.4096V32.4375C79.0166 32.5172 78.6439 32.9438 78.6459 33.454C78.6439 34.1178 79.2738 34.6041 80.1647 34.6041ZM80.1647 34.0341C79.7023 34.0341 79.4033 33.7789 79.4073 33.4022C79.4033 33.0116 79.7242 32.7345 80.1647 32.7345C80.5993 32.7345 80.9182 33.0135 80.9222 33.4022C80.9182 33.7789 80.6212 34.0341 80.1647 34.0341ZM80.1647 32.1744C79.786 32.1744 79.5149 31.9292 79.5189 31.5744C79.5149 31.2236 79.778 30.9884 80.1647 30.9884C80.5454 30.9884 80.8066 31.2236 80.8105 31.5744C80.8066 31.9312 80.5375 32.1744 80.1647 32.1744Z" fill="white"/>
<rect x="86.8387" y="28" width="12.1613" height="9.35484" rx="2" fill="#8CBFF0"/>
<path d="M91.5733 34.6042C92.4363 34.6042 93.0383 34.0182 93.0383 33.2069C93.0383 32.4216 92.4921 31.8555 91.7507 31.8555C91.4198 31.8555 91.1268 31.9871 90.9753 32.1665H90.9514L91.069 31.0842H92.825V30.4663H90.4571L90.2438 32.5711L90.9115 32.6807C91.0491 32.5292 91.3082 32.4276 91.5533 32.4296C92.0018 32.4316 92.3247 32.7624 92.3227 33.2249C92.3247 33.6813 92.0098 34.0062 91.5733 34.0062C91.2045 34.0062 90.9075 33.773 90.8816 33.4381H90.1641C90.184 34.1158 90.776 34.6042 91.5733 34.6042Z" fill="white"/>
<path d="M95.1232 30.4104C94.2382 30.4045 93.6502 31.0124 93.6502 31.8097C93.6522 32.5791 94.2003 33.1352 94.9159 33.1352C95.3564 33.1352 95.7391 32.9219 95.9364 32.5711H95.9643C95.9623 33.4441 95.6454 33.9644 95.0813 33.9644C94.7285 33.9644 94.4913 33.761 94.4176 33.4361H93.6901C93.7738 34.1119 94.308 34.6042 95.0813 34.6042C96.06 34.6042 96.6839 33.787 96.6819 32.3817C96.6799 30.8948 95.9065 30.4144 95.1232 30.4104ZM95.1252 31.0084C95.5617 31.0084 95.8826 31.3712 95.8826 31.7878C95.8846 32.2103 95.5477 32.5731 95.1172 32.5731C94.6827 32.5731 94.3698 32.2303 94.3678 31.7937C94.3678 31.3552 94.6927 31.0084 95.1252 31.0084Z" fill="white"/>
<path d="M12.946 35.484H14.0553V32.8829H16.5996V31.953H14.0553V30.2907H16.8687V29.3608H12.946V35.484Z" fill="#7CA3C9"/>
<path d="M18.9137 29.3608H17.8314V35.484H18.9137V29.3608Z" fill="#7CA3C9"/>
<path d="M21.3482 35.5767C22.0688 35.5767 22.4993 35.2388 22.6966 34.8532H22.7325V35.484H23.773V32.4105C23.773 31.1966 22.7833 30.8318 21.9073 30.8318C20.9416 30.8318 20.2001 31.2624 19.9609 32.0995L20.9715 32.243C21.0791 31.9291 21.3841 31.66 21.9133 31.66C22.4156 31.66 22.6906 31.9171 22.6906 32.3686V32.3865C22.6906 32.6975 22.3647 32.7124 21.5545 32.7991C20.6635 32.8948 19.8114 33.1609 19.8114 34.1954C19.8114 35.0983 20.4722 35.5767 21.3482 35.5767ZM21.6293 34.7814C21.1778 34.7814 20.8549 34.5751 20.8549 34.1775C20.8549 33.7619 21.2167 33.5885 21.701 33.5197C21.985 33.4808 22.5531 33.4091 22.6936 33.2955V33.8366C22.6936 34.3479 22.281 34.7814 21.6293 34.7814Z" fill="#7CA3C9"/>
<path d="M28.4909 32.1055C28.3414 31.3281 27.7195 30.8318 26.6432 30.8318C25.537 30.8318 24.7835 31.376 24.7865 32.2251C24.7835 32.8948 25.1961 33.3373 26.0781 33.5197L26.8614 33.6841C27.283 33.7768 27.4803 33.9472 27.4803 34.2074C27.4803 34.5213 27.1395 34.7575 26.6253 34.7575C26.1289 34.7575 25.806 34.5422 25.7134 34.1296L24.6579 34.2313C24.7925 35.0744 25.5011 35.5737 26.6282 35.5737C27.7763 35.5737 28.5866 34.9787 28.5896 34.1087C28.5866 33.4539 28.165 33.0533 27.298 32.8649L26.5146 32.6975C26.0482 32.5928 25.8628 32.4314 25.8658 32.1653C25.8628 31.8544 26.2067 31.6391 26.6581 31.6391C27.1574 31.6391 27.4205 31.9112 27.5043 32.2131L28.4909 32.1055Z" fill="#7CA3C9"/>
<path d="M30.5644 32.7932C30.5644 32.1294 30.9769 31.7467 31.557 31.7467C32.125 31.7467 32.4599 32.1085 32.4599 32.7274V35.484H33.5422V32.56C33.5422 31.4507 32.9144 30.8318 31.9606 30.8318C31.255 30.8318 30.8065 31.1517 30.5942 31.672H30.5404V29.3608H29.482V35.484H30.5644V32.7932Z" fill="#7CA3C9"/>
<path d="M40.3635 32.1055C40.214 31.3281 39.5921 30.8318 38.5158 30.8318C37.4096 30.8318 36.6561 31.376 36.6591 32.2251C36.6561 32.8948 37.0687 33.3373 37.9507 33.5197L38.7341 33.6841C39.1556 33.7768 39.3529 33.9472 39.3529 34.2074C39.3529 34.5213 39.0121 34.7575 38.4979 34.7575C38.0015 34.7575 37.6786 34.5422 37.586 34.1296L36.5306 34.2313C36.6651 35.0744 37.3737 35.5737 38.5008 35.5737C39.6489 35.5737 40.4592 34.9787 40.4622 34.1087C40.4592 33.4539 40.0376 33.0533 39.1706 32.8649L38.3872 32.6975C37.9208 32.5928 37.7355 32.4314 37.7384 32.1653C37.7355 31.8544 38.0793 31.6391 38.5307 31.6391C39.03 31.6391 39.2932 31.9112 39.3769 32.2131L40.3635 32.1055Z" fill="#7CA3C9"/>
<path d="M42.6761 35.5767C43.3967 35.5767 43.8272 35.2388 44.0246 34.8532H44.0604V35.484H45.1009V32.4105C45.1009 31.1966 44.1113 30.8318 43.2352 30.8318C42.2695 30.8318 41.528 31.2624 41.2889 32.0995L42.2994 32.243C42.4071 31.9291 42.712 31.66 43.2412 31.66C43.7435 31.66 44.0186 31.9171 44.0186 32.3686V32.3865C44.0186 32.6975 43.6927 32.7124 42.8824 32.7991C41.9915 32.8948 41.1394 33.1609 41.1394 34.1954C41.1394 35.0983 41.8001 35.5767 42.6761 35.5767ZM42.9572 34.7814C42.5057 34.7814 42.1828 34.5751 42.1828 34.1775C42.1828 33.7619 42.5446 33.5885 43.0289 33.5197C43.313 33.4808 43.881 33.4091 44.0216 33.2955V33.8366C44.0216 34.3479 43.609 34.7814 42.9572 34.7814Z" fill="#7CA3C9"/>
<path d="M47.2715 29.3608H46.1892V35.484H47.2715V29.3608Z" fill="#7CA3C9"/>
<path d="M50.4176 35.5737C51.4879 35.5737 52.2234 35.0505 52.4148 34.2522L51.4042 34.1386C51.2577 34.5273 50.8989 34.7306 50.4325 34.7306C49.7329 34.7306 49.2695 34.2701 49.2605 33.4838H52.4596V33.1519C52.4596 31.5404 51.4909 30.8318 50.3607 30.8318C49.0452 30.8318 48.1871 31.7975 48.1871 33.2147C48.1871 34.6558 49.0333 35.5737 50.4176 35.5737ZM49.2635 32.7543C49.2964 32.1683 49.7299 31.675 50.3757 31.675C50.9976 31.675 51.4162 32.1294 51.4221 32.7543H49.2635Z" fill="#7CA3C9"/>
<path opacity="0.8" fill-rule="evenodd" clip-rule="evenodd" d="M35 46C35 44.3431 36.3431 43 38 43H73C74.6569 43 76 44.3431 76 46V74C76 75.6569 74.6569 77 73 77H38C36.3431 77 35 75.6569 35 74V46Z" fill="white"/>
<path opacity="0.8" fill-rule="evenodd" clip-rule="evenodd" d="M12 46C12 44.3431 13.3431 43 15 43H28C29.6569 43 31 44.3431 31 46V74C31 75.6569 29.6569 77 28 77H15C13.3431 77 12 75.6569 12 74V46Z" fill="white"/>
<path opacity="0.8" fill-rule="evenodd" clip-rule="evenodd" d="M79 46C79 44.3431 80.3431 43 82 43H95C96.6569 43 98 44.3431 98 46V74C98 75.6569 96.6569 77 95 77H82C80.3431 77 79 75.6569 79 74V46Z" fill="white"/>
<g filter="url(#filter0_d)">
<circle cx="98.5" cy="59.5" r="5.5" fill="white"/>
</g>
<path d="M97.2812 57.207L97.0469 57.4297C97 57.4883 97 57.582 97.0469 57.6289L99.168 59.75L97.0469 61.8828C97 61.9297 97 62.0234 97.0469 62.082L97.2812 62.3047C97.3398 62.3633 97.4219 62.3633 97.4805 62.3047L99.9414 59.8555C99.9883 59.7969 99.9883 59.7148 99.9414 59.6562L97.4805 57.207C97.4219 57.1484 97.3398 57.1484 97.2812 57.207Z" fill="#70AAE2"/>
<g filter="url(#filter1_d)">
<circle r="5.5" transform="matrix(-1 0 0 1 11.5 59.5)" fill="white"/>
</g>
<path d="M12.7188 57.207L12.9531 57.4297C13 57.4883 13 57.582 12.9531 57.6289L10.832 59.75L12.9531 61.8828C13 61.9297 13 62.0234 12.9531 62.082L12.7188 62.3047C12.6602 62.3633 12.5781 62.3633 12.5195 62.3047L10.0586 59.8555C10.0117 59.7969 10.0117 59.7148 10.0586 59.6562L12.5195 57.207C12.5781 57.1484 12.6602 57.1484 12.7188 57.207Z" fill="#70AAE2"/>
<defs>
<filter id="filter0_d" x="89" y="50" width="19" height="19" filterUnits="userSpaceOnUse" color-interpolation-filters="sRGB">
<feFlood flood-opacity="0" result="BackgroundImageFix"/>
<feColorMatrix in="SourceAlpha" type="matrix" values="0 0 0 0 0 0 0 0 0 0 0 0 0 0 0 0 0 0 127 0" result="hardAlpha"/>
<feOffset/>
<feGaussianBlur stdDeviation="2"/>
<feComposite in2="hardAlpha" operator="out"/>
<feColorMatrix type="matrix" values="0 0 0 0 0 0 0 0 0 0 0 0 0 0 0 0 0 0 0.1 0"/>
<feBlend mode="normal" in2="BackgroundImageFix" result="effect1_dropShadow"/>
<feBlend mode="normal" in="SourceGraphic" in2="effect1_dropShadow" result="shape"/>
</filter>
<filter id="filter1_d" x="2" y="50" width="19" height="19" filterUnits="userSpaceOnUse" color-interpolation-filters="sRGB">
<feFlood flood-opacity="0" result="BackgroundImageFix"/>
<feColorMatrix in="SourceAlpha" type="matrix" values="0 0 0 0 0 0 0 0 0 0 0 0 0 0 0 0 0 0 127 0" result="hardAlpha"/>
<feOffset/>
<feGaussianBlur stdDeviation="2"/>
<feComposite in2="hardAlpha" operator="out"/>
<feColorMatrix type="matrix" values="0 0 0 0 0 0 0 0 0 0 0 0 0 0 0 0 0 0 0.1 0"/>
<feBlend mode="normal" in2="BackgroundImageFix" result="effect1_dropShadow"/>
<feBlend mode="normal" in="SourceGraphic" in2="effect1_dropShadow" result="shape"/>
</filter>
<linearGradient id="paint0_linear" x1="-7.01776e-07" y1="41" x2="110" y2="41" gradientUnits="userSpaceOnUse">
<stop stop-color="#CDE7FF"/>
<stop offset="1" stop-color="#E8F2F9"/>
</linearGradient>
</defs>
</svg>
