<svg width="14" height="15" viewBox="0 0 14 15" fill="none" xmlns="http://www.w3.org/2000/svg">
<path d="M12.5 0.5H1.5C0.65625 0.5 0 1.1875 0 2V13C0 13.8438 0.65625 14.5 1.5 14.5H12.5C13.3125 14.5 14 13.8438 14 13V2C14 1.1875 13.3125 0.5 12.5 0.5ZM12 10.625C12 10.8438 11.8125 11 11.625 11H10V11.75C10 12.1875 9.65625 12.5 9.25 12.5H8.75C8.3125 12.5 8 12.1875 8 11.75V11H2.375C2.15625 11 2 10.8438 2 10.625V9.375C2 9.1875 2.15625 9 2.375 9H8V8.25C8 7.84375 8.3125 7.5 8.75 7.5H9.25C9.65625 7.5 10 7.84375 10 8.25V9H11.625C11.8125 9 12 9.1875 12 9.375V10.625ZM12 5.625C12 5.84375 11.8125 6 11.625 6H6V6.75C6 7.1875 5.65625 7.5 5.25 7.5H4.75C4.3125 7.5 4 7.1875 4 6.75V6H2.375C2.15625 6 2 5.84375 2 5.625V4.375C2 4.1875 2.15625 4 2.375 4H4V3.25C4 2.84375 4.3125 2.5 4.75 2.5H5.25C5.65625 2.5 6 2.84375 6 3.25V4H11.625C11.8125 4 12 4.1875 12 4.375V5.625Z" fill="#5B86E5"/>
</svg>
