<svg width="66" height="20" viewBox="0 0 66 20" fill="none" xmlns="http://www.w3.org/2000/svg">
<path d="M65.3306 12.2975C66.2231 11.8512 66.2231 10.4008 65.3306 9.95456C58.4135 6.16129 51.3848 2.70273 43.7983 0.694531C42.6826 0.471398 41.5669 1.69863 42.2363 2.70273C43.7983 4.93406 45.6949 6.83069 47.9262 8.50419C32.3069 8.05792 16.1298 5.93816 0.733574 9.61985C-0.382088 9.84299 -0.158967 11.7394 0.956886 11.6279C16.9109 9.61985 32.7534 11.1818 48.7074 11.4047C47.0339 13.3014 45.3604 15.198 43.6869 16.9831C42.9059 17.764 43.3522 19.4377 44.691 19.3261C52.0542 18.4334 58.9713 15.979 65.3306 12.2975ZM52.0542 11.0702C53.0583 10.4008 52.8351 8.50419 51.2732 8.50419C51.1617 8.50419 51.0501 8.50419 51.0501 8.50419C49.7113 7.16539 48.3725 5.93816 47.0337 4.48779C52.1657 6.27286 56.9631 8.50419 61.7605 11.07C57.4094 13.3014 52.9467 14.9749 48.1494 15.8674C49.265 14.6402 50.3807 13.3014 51.6079 12.074C52.0542 11.8512 52.1657 11.4047 52.0542 11.0702Z" fill="#4F4F4F"/>
</svg>
