<svg width="32" height="32" viewBox="0 0 32 32" fill="none" xmlns="http://www.w3.org/2000/svg">
<circle cx="16" cy="16" r="16" fill="#95BF47"/>
<path d="M21.4536 11.129C21.4536 11.0323 21.3889 11 21.2919 11C21.2272 11 20.0952 10.9677 20.0952 10.9677C20.0952 10.9677 19.416 10.2903 19.1573 10.0323V24L23.2 22.9677C23.2 22.9677 21.4536 11.1935 21.4536 11.129ZM18.2194 10.0323C18.187 9.87097 18.0577 9.6129 17.993 9.45161C17.6696 8.80645 17.1521 8.45161 16.57 8.45161C16.5376 8.45161 16.5376 8.45161 16.5376 8.45161C16.5053 8.45161 16.4406 8.48387 16.4406 8.48387C16.4083 8.45161 16.3759 8.45161 16.3759 8.41935C16.1172 8.12903 15.7938 8 15.3733 8C14.5971 8.03226 13.8209 8.58065 13.2064 9.58065C12.7536 10.2903 12.4302 11.1613 12.3332 11.8387C11.4276 12.129 10.8131 12.3226 10.8131 12.3226C10.3603 12.4839 10.328 12.4839 10.2957 12.9032C10.2633 13.2258 9.06668 22.3226 9.06668 22.3226L18.8339 24V9.87097C18.8015 9.87097 18.7369 9.87097 18.7045 9.90323C18.6722 9.90323 18.5105 9.93548 18.2194 10.0323ZM16.4406 10.5806C15.9231 10.7419 15.341 10.9355 14.7912 11.0968C14.9529 10.4839 15.244 9.87097 15.6321 9.48387C15.7614 9.32258 15.9555 9.16129 16.1819 9.06452C16.4083 9.51613 16.4406 10.1613 16.4406 10.5806ZM15.3733 8.54839H15.4057C15.535 8.54839 15.7291 8.6129 15.8584 8.64516C15.6321 8.77419 15.438 8.93548 15.244 9.12903C14.7265 9.64516 14.3707 10.4839 14.209 11.2581C13.7562 11.4194 13.2711 11.5484 12.8507 11.6774C13.1417 10.4516 14.1767 8.58065 15.3733 8.54839ZM13.8856 15.6452C13.9179 16.4839 16.1172 16.6452 16.2465 18.6129C16.3436 20.129 15.438 21.1935 14.112 21.2581C12.5272 21.3548 11.6864 20.4516 11.6864 20.4516L12.0098 19.0323C12.0098 19.0323 12.883 19.6774 13.5622 19.6129C14.015 19.6129 14.209 19.2258 14.1767 18.9677C14.112 17.871 12.3332 17.9355 12.2038 16.1613C12.1068 14.6774 13.1094 13.1613 15.2763 13C16.1172 12.9677 16.5376 13.1613 16.5376 13.1613L16.0525 15.0323C16.0525 15.0323 15.5027 14.7742 14.8235 14.8065C13.8856 14.871 13.8533 15.4839 13.8856 15.6452ZM16.9581 10.4194C16.9581 10.0323 16.8934 9.48387 16.7317 9.03226C17.3138 9.12903 17.6049 9.80645 17.7343 10.1935C17.5079 10.2581 17.2491 10.3548 16.9581 10.4194Z" fill="white"/>
</svg>
