<svg width="80" height="80" viewBox="0 0 80 80" fill="none" xmlns="http://www.w3.org/2000/svg">
<path d="M80 40C80 62.0914 62.0914 80 40 80C17.9086 80 0 62.0914 0 40C0 17.9086 17.9086 0 40 0C62.0914 0 80 17.9086 80 40Z" fill="#ED1C24"/>
<path d="M18.2 22.937H15.288V26.233H17.592V27.369H15.288V31.785H13.832V21.769H18.2V22.937Z" fill="white"/>
<path d="M20.5845 30.617H23.0645V31.785H19.1445V21.769H20.5845V30.617Z" fill="white"/>
<path d="M27.637 31.785L27.237 29.465H25.125L24.757 31.785H23.317L25.093 21.769H27.189L29.093 31.785H27.637ZM25.301 28.297H27.045L26.133 23.017L25.301 28.297Z" fill="white"/>
<path d="M32.9932 30.153V27.705C32.9932 27.513 32.9613 27.3904 32.8973 27.337C32.8439 27.273 32.7213 27.241 32.5293 27.241H31.3452C30.3746 27.241 29.8892 26.7664 29.8892 25.817V23.177C29.8892 22.2384 30.3853 21.769 31.3773 21.769H32.9452C33.9372 21.769 34.4333 22.2384 34.4333 23.177V24.649H32.9772V23.401C32.9772 23.209 32.9453 23.0864 32.8813 23.033C32.8173 22.969 32.6892 22.937 32.4972 22.937H31.8253C31.6333 22.937 31.5052 22.969 31.4412 23.033C31.3772 23.0864 31.3452 23.209 31.3452 23.401V25.625C31.3452 25.817 31.3772 25.945 31.4412 26.009C31.5052 26.0624 31.6333 26.089 31.8253 26.089H32.9932C33.9746 26.089 34.4653 26.5584 34.4653 27.497V30.377C34.4653 31.3157 33.9639 31.785 32.9613 31.785H31.4093C30.4173 31.785 29.9212 31.3157 29.9212 30.377V28.905H31.3773V30.153C31.3773 30.345 31.4092 30.473 31.4732 30.537C31.5372 30.5904 31.6653 30.617 31.8573 30.617H32.5293C32.7213 30.617 32.8439 30.5904 32.8973 30.537C32.9613 30.473 32.9932 30.345 32.9932 30.153Z" fill="white"/>
<path d="M39.4625 21.769H40.9025V31.785H39.4625V27.385H37.3345V31.785H35.8945V21.769H37.3345V26.217H39.4625V21.769Z" fill="white"/>
<path d="M47.7589 30.153V27.705C47.7589 27.513 47.7269 27.3904 47.6629 27.337C47.6095 27.273 47.4869 27.241 47.2949 27.241H46.1109C45.1402 27.241 44.6549 26.7664 44.6549 25.817V23.177C44.6549 22.2384 45.1509 21.769 46.1429 21.769H47.7109C48.7029 21.769 49.1989 22.2384 49.1989 23.177V24.649H47.7429V23.401C47.7429 23.209 47.7109 23.0864 47.6469 23.033C47.5829 22.969 47.4549 22.937 47.2629 22.937H46.5909C46.3989 22.937 46.2709 22.969 46.2069 23.033C46.1429 23.0864 46.1109 23.209 46.1109 23.401V25.625C46.1109 25.817 46.1429 25.945 46.2069 26.009C46.2709 26.0624 46.3989 26.089 46.5909 26.089H47.7589C48.7402 26.089 49.2309 26.5584 49.2309 27.497V30.377C49.2309 31.3157 48.7295 31.785 47.7269 31.785H46.1749C45.1829 31.785 44.6869 31.3157 44.6869 30.377V28.905H46.1429V30.153C46.1429 30.345 46.1749 30.473 46.2389 30.537C46.3029 30.5904 46.4309 30.617 46.6229 30.617H47.2949C47.4869 30.617 47.6095 30.5904 47.6629 30.537C47.7269 30.473 47.7589 30.345 47.7589 30.153Z" fill="white"/>
<path d="M54.3401 31.785L53.9401 29.465H51.8281L51.4601 31.785H50.0201L51.7961 21.769H53.8921L55.7961 31.785H54.3401ZM52.0041 28.297H53.7481L52.8361 23.017L52.0041 28.297Z" fill="white"/>
<path d="M58.2564 30.617H60.7364V31.785H56.8164V21.769H58.2564V30.617Z" fill="white"/>
<path d="M63.0849 30.617H65.9809V31.785H61.6289V21.769H65.8689V22.937H63.0849V26.025H65.3889V27.193H63.0849V30.617Z" fill="white"/>
<path d="M23.064 58.736V45.232C23.064 44.848 23 44.6027 22.872 44.496C22.744 44.368 22.488 44.304 22.104 44.304H20.376C19.992 44.304 19.736 44.368 19.608 44.496C19.5013 44.6027 19.448 44.848 19.448 45.232V58.736C19.448 59.12 19.5013 59.376 19.608 59.504C19.736 59.6107 19.992 59.664 20.376 59.664H22.104C22.488 59.664 22.744 59.6107 22.872 59.504C23 59.376 23.064 59.12 23.064 58.736ZM25.976 44.784V59.184C25.976 61.0614 24.984 62 23 62H19.512C17.5067 62 16.504 61.0614 16.504 59.184V44.784C16.504 42.9067 17.5067 41.968 19.512 41.968H23C24.984 41.968 25.976 42.9067 25.976 44.784Z" fill="white"/>
<path d="M31.2767 45.232V48.24H28.3967V44.784C28.3967 42.9067 29.3887 41.968 31.3727 41.968H34.3167C36.3221 41.968 37.3247 42.9067 37.3247 44.784V49.84C37.3247 50.9707 36.8981 51.632 36.0447 51.824C36.8981 52.016 37.3247 52.6347 37.3247 53.68V59.184C37.3247 61.0614 36.3221 62 34.3167 62H31.3727C29.3887 62 28.3967 61.0614 28.3967 59.184V55.76H31.2767V58.736C31.2767 59.12 31.3407 59.376 31.4687 59.504C31.5967 59.6107 31.8527 59.664 32.2367 59.664H33.4847C33.8687 59.664 34.1247 59.6107 34.2527 59.504C34.3807 59.376 34.4447 59.12 34.4447 58.736V53.936C34.4447 53.552 34.3807 53.3067 34.2527 53.2C34.1247 53.072 33.8687 53.008 33.4847 53.008H31.0847V50.704H33.4847C33.8687 50.704 34.1247 50.6507 34.2527 50.544C34.3807 50.416 34.4447 50.16 34.4447 49.776V45.232C34.4447 44.848 34.3807 44.6027 34.2527 44.496C34.1247 44.368 33.8687 44.304 33.4847 44.304H32.2367C31.8527 44.304 31.5967 44.368 31.4687 44.496C31.3407 44.6027 31.2767 44.848 31.2767 45.232Z" fill="white"/>
<path d="M39.8677 62V58.064H43.0997V62H39.8677Z" fill="white"/>
<path d="M49.981 41.968V62H47.069V44.304H44.765V41.968H49.981Z" fill="white"/>
<path d="M59.7202 58.736V45.232C59.7202 44.848 59.6562 44.6027 59.5282 44.496C59.4002 44.368 59.1442 44.304 58.7602 44.304H57.0322C56.6482 44.304 56.3922 44.368 56.2642 44.496C56.1576 44.6027 56.1042 44.848 56.1042 45.232V58.736C56.1042 59.12 56.1576 59.376 56.2642 59.504C56.3922 59.6107 56.6482 59.664 57.0322 59.664H58.7602C59.1442 59.664 59.4002 59.6107 59.5282 59.504C59.6562 59.376 59.7202 59.12 59.7202 58.736ZM62.6322 44.784V59.184C62.6322 61.0614 61.6402 62 59.6562 62H56.1682C54.1629 62 53.1602 61.0614 53.1602 59.184V44.784C53.1602 42.9067 54.1629 41.968 56.1682 41.968H59.6562C61.6402 41.968 62.6322 42.9067 62.6322 44.784Z" fill="white"/>
</svg>
