<svg width="80" height="41" viewBox="0 0 80 41" fill="none" xmlns="http://www.w3.org/2000/svg">
<path d="M0 4.36364C0 1.95367 1.55537 0 3.47402 0H63.3994C64.7003 0 65.8922 0.912899 66.4879 2.36554L79.6098 34.3655C80.8006 37.2697 79.1221 40.7273 76.5213 40.7273H3.47402C1.55537 40.7273 0 38.7736 0 36.3636V4.36364Z" fill="#ED1C24"/>
<path d="M15.55 8.25808H13.002V11.1421H15.018V12.1361H13.002V16.0001H11.728V7.23608H15.55V8.25808Z" fill="white"/>
<path d="M17.6365 14.9781H19.8065V16.0001H16.3765V7.23608H17.6365V14.9781Z" fill="white"/>
<path d="M23.8074 16.0001L23.4574 13.9701H21.6094L21.2874 16.0001H20.0274L21.5814 7.23608H23.4154L25.0814 16.0001H23.8074ZM21.7634 12.9481H23.2894L22.4914 8.32808L21.7634 12.9481Z" fill="white"/>
<path d="M28.4941 14.5721V12.4301C28.4941 12.2621 28.4661 12.1548 28.4101 12.1081C28.3635 12.0521 28.2561 12.0241 28.0881 12.0241H27.0521C26.2028 12.0241 25.7781 11.6088 25.7781 10.7781V8.46808C25.7781 7.64675 26.2121 7.23608 27.0801 7.23608H28.4521C29.3201 7.23608 29.7541 7.64675 29.7541 8.46808V9.75608H28.4801V8.66408C28.4801 8.49608 28.4521 8.38875 28.3961 8.34208C28.3401 8.28608 28.2281 8.25808 28.0601 8.25808H27.4721C27.3041 8.25808 27.1921 8.28608 27.1361 8.34208C27.0801 8.38875 27.0521 8.49608 27.0521 8.66408V10.6101C27.0521 10.7781 27.0801 10.8901 27.1361 10.9461C27.1921 10.9928 27.3041 11.0161 27.4721 11.0161H28.4941C29.3528 11.0161 29.7821 11.4268 29.7821 12.2481V14.7681C29.7821 15.5894 29.3435 16.0001 28.4661 16.0001H27.1081C26.2401 16.0001 25.8061 15.5894 25.8061 14.7681V13.4801H27.0801V14.5721C27.0801 14.7401 27.1081 14.8521 27.1641 14.9081C27.2201 14.9548 27.3321 14.9781 27.5001 14.9781H28.0881C28.2561 14.9781 28.3635 14.9548 28.4101 14.9081C28.4661 14.8521 28.4941 14.7401 28.4941 14.5721Z" fill="white"/>
<path d="M34.1547 7.23608H35.4147V16.0001H34.1547V12.1501H32.2927V16.0001H31.0327V7.23608H32.2927V11.1281H34.1547V7.23608Z" fill="white"/>
<path d="M41.414 14.5721V12.4301C41.414 12.2621 41.386 12.1548 41.33 12.1081C41.2834 12.0521 41.176 12.0241 41.008 12.0241H39.972C39.1227 12.0241 38.698 11.6088 38.698 10.7781V8.46808C38.698 7.64675 39.132 7.23608 40 7.23608H41.372C42.24 7.23608 42.674 7.64675 42.674 8.46808V9.75608H41.4V8.66408C41.4 8.49608 41.372 8.38875 41.316 8.34208C41.26 8.28608 41.148 8.25808 40.98 8.25808H40.392C40.224 8.25808 40.112 8.28608 40.056 8.34208C40 8.38875 39.972 8.49608 39.972 8.66408V10.6101C39.972 10.7781 40 10.8901 40.056 10.9461C40.112 10.9928 40.224 11.0161 40.392 11.0161H41.414C42.2727 11.0161 42.702 11.4268 42.702 12.2481V14.7681C42.702 15.5894 42.2634 16.0001 41.386 16.0001H40.028C39.16 16.0001 38.726 15.5894 38.726 14.7681V13.4801H40V14.5721C40 14.7401 40.028 14.8521 40.084 14.9081C40.14 14.9548 40.252 14.9781 40.42 14.9781H41.008C41.176 14.9781 41.2834 14.9548 41.33 14.9081C41.386 14.8521 41.414 14.7401 41.414 14.5721Z" fill="white"/>
<path d="M47.1726 16.0001L46.8226 13.9701H44.9746L44.6526 16.0001H43.3926L44.9466 7.23608H46.7806L48.4466 16.0001H47.1726ZM45.1286 12.9481H46.6546L45.8566 8.32808L45.1286 12.9481Z" fill="white"/>
<path d="M50.5994 14.9781H52.7694V16.0001H49.3394V7.23608H50.5994V14.9781Z" fill="white"/>
<path d="M54.8243 14.9781H57.3583V16.0001H53.5503V7.23608H57.2603V8.25808H54.8243V10.9601H56.8403V11.9821H54.8243V14.9781Z" fill="white"/>
<path d="M7.82 22.48H10.04C11.28 22.48 11.9 23.0666 11.9 24.24V33.24C11.9 34.4133 11.28 35 10.04 35H7.82C6.56667 35 5.94 34.4133 5.94 33.24V24.24C5.94 23.0666 6.56667 22.48 7.82 22.48ZM10.1 32.96V24.52C10.1 24.28 10.06 24.1266 9.98 24.06C9.9 23.98 9.74 23.94 9.5 23.94H8.34C8.1 23.94 7.94 23.98 7.86 24.06C7.79334 24.1266 7.76 24.28 7.76 24.52V32.96C7.76 33.2 7.79334 33.36 7.86 33.44C7.94 33.5066 8.1 33.54 8.34 33.54H9.5C9.74 33.54 9.9 33.5066 9.98 33.44C10.06 33.36 10.1 33.2 10.1 32.96Z" fill="white"/>
<path d="M18.3516 22.48H20.0116V35H18.1916L15.5516 25.96V35H13.8916V22.48H15.7916L18.3516 31.26V22.48Z" fill="white"/>
<path d="M23.8947 33.54H26.9947V35H22.0947V22.48H23.8947V33.54Z" fill="white"/>
<path d="M31.6503 35H29.8303V31.04L27.1503 22.48H28.9903L30.7303 29.38L32.3703 22.48H34.2103L31.6503 31.04V35Z" fill="white"/>
<path d="M40.8475 22.48V35H39.0275V23.94H37.5875V22.48H40.8475Z" fill="white"/>
<path d="M45.8652 22.48H50.2252C51.4652 22.48 52.0852 23.0666 52.0852 24.24V33.24C52.0852 34.4133 51.4652 35 50.2252 35H45.8652V22.48ZM50.2652 33V24.48C50.2652 24.24 50.2252 24.0866 50.1452 24.02C50.0652 23.94 49.9052 23.9 49.6652 23.9H47.6852V33.58H49.6652C49.9052 33.58 50.0652 33.5466 50.1452 33.48C50.2252 33.4 50.2652 33.24 50.2652 33Z" fill="white"/>
<path d="M58.6673 35L58.1673 32.1H55.5273L55.0673 35H53.2673L55.4873 22.48H58.1073L60.4873 35H58.6673ZM55.7473 30.64H57.9273L56.7873 24.04L55.7473 30.64Z" fill="white"/>
<path d="M65.3027 35H63.4827V31.04L60.8027 22.48H62.6427L64.3827 29.38L66.0227 22.48H67.8627L65.3027 31.04V35Z" fill="white"/>
</svg>
