<svg width="80" height="80" viewBox="0 0 80 80" fill="none" xmlns="http://www.w3.org/2000/svg">
<path d="M80 80V0H0L80 80Z" fill="#ED1C24"/>
<path d="M52.88 38.6099V35.5499C52.88 35.3099 52.84 35.1566 52.76 35.0899C52.6933 35.0099 52.54 34.9699 52.3 34.9699H50.82C49.6067 34.9699 49 34.3765 49 33.1899V29.8899C49 28.7165 49.62 28.1299 50.86 28.1299H52.82C54.06 28.1299 54.68 28.7165 54.68 29.8899V31.7299H52.86V30.1699C52.86 29.9299 52.82 29.7765 52.74 29.7099C52.66 29.6299 52.5 29.5899 52.26 29.5899H51.42C51.18 29.5899 51.02 29.6299 50.94 29.7099C50.86 29.7765 50.82 29.9299 50.82 30.1699V32.9499C50.82 33.1899 50.86 33.3499 50.94 33.4299C51.02 33.4966 51.18 33.5299 51.42 33.5299H52.88C54.1067 33.5299 54.72 34.1165 54.72 35.2899V38.8899C54.72 40.0632 54.0933 40.6499 52.84 40.6499H50.9C49.66 40.6499 49.04 40.0632 49.04 38.8899V37.0499H50.86V38.6099C50.86 38.8499 50.9 39.0099 50.98 39.0899C51.06 39.1566 51.22 39.1899 51.46 39.1899H52.3C52.54 39.1899 52.6933 39.1566 52.76 39.0899C52.84 39.0099 52.88 38.8499 52.88 38.6099Z" fill="white"/>
<path d="M61.1066 40.6499L60.6066 37.7499H57.9666L57.5066 40.6499H55.7066L57.9266 28.1299H60.5466L62.9266 40.6499H61.1066ZM58.1866 36.2899H60.3666L59.2266 29.6899L58.1866 36.2899Z" fill="white"/>
<path d="M66.0019 39.1899H69.1019V40.6499H64.2019V28.1299H66.0019V39.1899Z" fill="white"/>
<path d="M72.0375 39.1899H75.6575V40.6499H70.2175V28.1299H75.5175V29.5899H72.0375V33.4499H74.9175V34.9099H72.0375V39.1899Z" fill="white"/>
<path d="M57.04 11.075V7.5C57.04 7.2 56.99 7.00833 56.89 6.925C56.79 6.825 56.59 6.775 56.29 6.775H53.79V11.8H56.29C56.59 11.8 56.79 11.7583 56.89 11.675C56.99 11.575 57.04 11.375 57.04 11.075ZM57.04 18.15V14.3C57.04 14 56.99 13.8083 56.89 13.725C56.79 13.625 56.59 13.575 56.29 13.575H53.79V18.875H56.29C56.59 18.875 56.79 18.8333 56.89 18.75C56.99 18.65 57.04 18.45 57.04 18.15ZM51.54 5H56.965C58.5317 5 59.315 5.73333 59.315 7.2V11.175C59.315 12.0583 58.9817 12.575 58.315 12.725C58.9817 12.8917 59.315 13.375 59.315 14.175V18.45C59.315 19.9167 58.5317 20.65 56.965 20.65H51.54V5Z" fill="white"/>
<path d="M61.9695 5H64.2195V20.65H61.9695V5Z" fill="white"/>
<path d="M74.2185 9.575H71.9435V7.5C71.9435 7.2 71.8935 7.00833 71.7935 6.925C71.6935 6.825 71.4935 6.775 71.1935 6.775H69.9185C69.6185 6.775 69.4185 6.825 69.3185 6.925C69.2185 7.00833 69.1685 7.2 69.1685 7.5V18.175C69.1685 18.475 69.2185 18.675 69.3185 18.775C69.4185 18.8583 69.6185 18.9 69.9185 18.9H71.1935C71.4935 18.9 71.6935 18.8583 71.7935 18.775C71.8935 18.675 71.9435 18.475 71.9435 18.175V14.35H70.6935V12.6H74.2185V18.45C74.2185 19.9333 73.4435 20.675 71.8935 20.675H69.2185C67.6685 20.675 66.8935 19.9333 66.8935 18.45V7.2C66.8935 5.73333 67.6685 5 69.2185 5H71.8935C73.4435 5 74.2185 5.73333 74.2185 7.2V9.575Z" fill="white"/>
</svg>
