<svg width="80" height="80" viewBox="0 0 80 80" fill="none" xmlns="http://www.w3.org/2000/svg">
<path d="M0 80V0H80L0 80Z" fill="#ED1C24"/>
<path d="M9.64001 38.96V35.9C9.64001 35.66 9.60001 35.5066 9.52001 35.44C9.45334 35.36 9.30001 35.32 9.06001 35.32H7.58001C6.36668 35.32 5.76001 34.7266 5.76001 33.54V30.24C5.76001 29.0666 6.38001 28.48 7.62001 28.48H9.58001C10.82 28.48 11.44 29.0666 11.44 30.24V32.08H9.62001V30.52C9.62001 30.28 9.58001 30.1266 9.50001 30.06C9.42001 29.98 9.26001 29.94 9.02001 29.94H8.18001C7.94001 29.94 7.78001 29.98 7.70001 30.06C7.62001 30.1266 7.58001 30.28 7.58001 30.52V33.3C7.58001 33.54 7.62001 33.7 7.70001 33.78C7.78001 33.8466 7.94001 33.88 8.18001 33.88H9.64001C10.8667 33.88 11.48 34.4666 11.48 35.64V39.24C11.48 40.4133 10.8533 41 9.60001 41H7.66001C6.42001 41 5.80001 40.4133 5.80001 39.24V37.4H7.62001V38.96C7.62001 39.2 7.66001 39.36 7.74001 39.44C7.82001 39.5066 7.98001 39.54 8.22001 39.54H9.06001C9.30001 39.54 9.45334 39.5066 9.52001 39.44C9.60001 39.36 9.64001 39.2 9.64001 38.96Z" fill="white"/>
<path d="M17.8666 41L17.3666 38.1H14.7266L14.2666 41H12.4666L14.6866 28.48H17.3066L19.6866 41H17.8666ZM14.9466 36.64H17.1266L15.9866 30.04L14.9466 36.64Z" fill="white"/>
<path d="M22.7619 39.54H25.8619V41H20.9619V28.48H22.7619V39.54Z" fill="white"/>
<path d="M28.7975 39.54H32.4175V41H26.9775V28.48H32.2775V29.94H28.7975V33.8H31.6775V35.26H28.7975V39.54Z" fill="white"/>
<path d="M11.8 11.4251V7.8501C11.8 7.5501 11.75 7.35843 11.65 7.2751C11.55 7.1751 11.35 7.1251 11.05 7.1251H8.54999V12.1501H11.05C11.35 12.1501 11.55 12.1084 11.65 12.0251C11.75 11.9251 11.8 11.7251 11.8 11.4251ZM11.8 18.5001V14.6501C11.8 14.3501 11.75 14.1584 11.65 14.0751C11.55 13.9751 11.35 13.9251 11.05 13.9251H8.54999V19.2251H11.05C11.35 19.2251 11.55 19.1834 11.65 19.1001C11.75 19.0001 11.8 18.8001 11.8 18.5001ZM6.29999 5.3501H11.725C13.2917 5.3501 14.075 6.08343 14.075 7.5501V11.5251C14.075 12.4084 13.7417 12.9251 13.075 13.0751C13.7417 13.2418 14.075 13.7251 14.075 14.5251V18.8001C14.075 20.2668 13.2917 21.0001 11.725 21.0001H6.29999V5.3501Z" fill="white"/>
<path d="M16.7295 5.3501H18.9795V21.0001H16.7295V5.3501Z" fill="white"/>
<path d="M28.9785 9.9251H26.7035V7.8501C26.7035 7.5501 26.6535 7.35843 26.5535 7.2751C26.4535 7.1751 26.2535 7.1251 25.9535 7.1251H24.6785C24.3785 7.1251 24.1785 7.1751 24.0785 7.2751C23.9785 7.35843 23.9285 7.5501 23.9285 7.8501V18.5251C23.9285 18.8251 23.9785 19.0251 24.0785 19.1251C24.1785 19.2084 24.3785 19.2501 24.6785 19.2501H25.9535C26.2535 19.2501 26.4535 19.2084 26.5535 19.1251C26.6535 19.0251 26.7035 18.8251 26.7035 18.5251V14.7001H25.4535V12.9501H28.9785V18.8001C28.9785 20.2834 28.2035 21.0251 26.6535 21.0251H23.9785C22.4285 21.0251 21.6535 20.2834 21.6535 18.8001V7.5501C21.6535 6.08343 22.4285 5.3501 23.9785 5.3501H26.6535C28.2035 5.3501 28.9785 6.08343 28.9785 7.5501V9.9251Z" fill="white"/>
</svg>
