<svg width="100" height="91" viewBox="0 0 115 104" fill="none" xmlns="http://www.w3.org/2000/svg">
<g opacity="0.3">
<g opacity="0.5">
<path opacity="0.0244" d="M57.5 102.98C88.5048 102.98 113.639 97.0461 113.639 89.7256C113.639 82.4051 88.5048 76.4707 57.5 76.4707C26.4953 76.4707 1.36096 82.4051 1.36096 89.7256C1.36096 97.0461 26.4953 102.98 57.5 102.98Z" fill="#FBFCFE"/>
<path opacity="0.0488" d="M57.5 104C87.7531 104 112.278 98.0656 112.278 90.7451C112.278 83.4247 87.7531 77.4902 57.5 77.4902C27.2469 77.4902 2.72192 83.4247 2.72192 90.7451C2.72192 98.0656 27.2469 104 57.5 104Z" fill="#F8FAFE"/>
<path opacity="0.0732" d="M57.8403 102.98C87.5297 102.98 111.598 97.2743 111.598 90.2353C111.598 83.1964 87.5297 77.4902 57.8403 77.4902C28.1509 77.4902 4.08289 83.1964 4.08289 90.2353C4.08289 97.2743 28.1509 102.98 57.8403 102.98Z" fill="#F4F7FD"/>
<path opacity="0.0976" d="M57.8403 102.98C86.7781 102.98 110.237 97.2743 110.237 90.2353C110.237 83.1964 86.7781 77.4902 57.8403 77.4902C28.9025 77.4902 5.44385 83.1964 5.44385 90.2353C5.44385 97.2743 28.9025 102.98 57.8403 102.98Z" fill="#F1F5FC"/>
<path opacity="0.122" d="M57.1598 102.98C85.3459 102.98 108.195 97.5024 108.195 90.7451C108.195 83.9877 85.3459 78.5098 57.1598 78.5098C28.9736 78.5098 6.12427 83.9877 6.12427 90.7451C6.12427 97.5024 28.9736 102.98 57.1598 102.98Z" fill="#EDF2FC"/>
<path opacity="0.1463" d="M57.1598 101.961C84.5943 101.961 106.834 96.7111 106.834 90.2352C106.834 83.7594 84.5943 78.5098 57.1598 78.5098C29.7253 78.5098 7.48523 83.7594 7.48523 90.2352C7.48523 96.7111 29.7253 101.961 57.1598 101.961Z" fill="#E9F0FB"/>
<path opacity="0.1707" d="M57.1598 101.961C83.8427 101.961 105.473 96.7111 105.473 90.2352C105.473 83.7594 83.8427 78.5098 57.1598 78.5098C30.4769 78.5098 8.84619 83.7594 8.84619 90.2352C8.84619 96.7111 30.4769 101.961 57.1598 101.961Z" fill="#E6EDFA"/>
<path opacity="0.1951" d="M57.5 100.941C83.6192 100.941 104.793 95.9197 104.793 89.7254C104.793 83.5312 83.6192 78.5098 57.5 78.5098C31.3809 78.5098 10.2072 83.5312 10.2072 89.7254C10.2072 95.9197 31.3809 100.941 57.5 100.941Z" fill="#E2EBFA"/>
<path opacity="0.2195" d="M57.5001 101.961C82.8676 101.961 103.432 96.9392 103.432 90.745C103.432 84.5507 82.8676 79.5293 57.5001 79.5293C32.1325 79.5293 11.5681 84.5507 11.5681 90.745C11.5681 96.9392 32.1325 101.961 57.5001 101.961Z" fill="#DFE8F9"/>
<path opacity="0.2439" d="M57.5 100.941C82.1158 100.941 102.071 96.1479 102.071 90.2352C102.071 84.3225 82.1158 79.5293 57.5 79.5293C32.8841 79.5293 12.929 84.3225 12.929 90.2352C12.929 96.1479 32.8841 100.941 57.5 100.941Z" fill="#DBE6F8"/>
<path opacity="0.2683" d="M57.5 99.9215C81.3642 99.9215 100.71 95.3565 100.71 89.7254C100.71 84.0942 81.3642 79.5293 57.5 79.5293C33.6357 79.5293 14.2899 84.0942 14.2899 89.7254C14.2899 95.3565 33.6357 99.9215 57.5 99.9215Z" fill="#D8E3F7"/>
<path opacity="0.2927" d="M57.8402 100.941C81.1408 100.941 100.03 96.376 100.03 90.7449C100.03 85.1138 81.1408 80.5488 57.8402 80.5488C34.5397 80.5488 15.6509 85.1138 15.6509 90.7449C15.6509 96.376 34.5397 100.941 57.8402 100.941Z" fill="#D4E1F7"/>
<path opacity="0.3171" d="M57.8402 99.9214C80.3892 99.9214 98.6687 95.5847 98.6687 90.2351C98.6687 84.8855 80.3892 80.5488 57.8402 80.5488C35.2913 80.5488 17.0118 84.8855 17.0118 90.2351C17.0118 95.5847 35.2913 99.9214 57.8402 99.9214Z" fill="#D0DEF6"/>
<path opacity="0.3415" d="M57.8403 99.9214C79.6375 99.9214 97.3077 95.5847 97.3077 90.2351C97.3077 84.8855 79.6375 80.5488 57.8403 80.5488C36.043 80.5488 18.3728 84.8855 18.3728 90.2351C18.3728 95.5847 36.043 99.9214 57.8403 99.9214Z" fill="#CDDCF5"/>
<path opacity="0.3659" d="M57.1597 99.9213C78.2054 99.9213 95.2662 95.8129 95.2662 90.7448C95.2662 85.6768 78.2054 81.5684 57.1597 81.5684C36.1141 81.5684 19.0532 85.6768 19.0532 90.7448C19.0532 95.8129 36.1141 99.9213 57.1597 99.9213Z" fill="#C9D9F5"/>
<path opacity="0.3902" d="M57.1598 98.9017C77.4538 98.9017 93.9053 95.0215 93.9053 90.235C93.9053 85.4486 77.4538 81.5684 57.1598 81.5684C36.8657 81.5684 20.4142 85.4486 20.4142 90.235C20.4142 95.0215 36.8657 98.9017 57.1598 98.9017Z" fill="#C6D7F4"/>
<path opacity="0.4146" d="M57.5 98.9017C77.2303 98.9017 93.2249 95.0215 93.2249 90.235C93.2249 85.4486 77.2303 81.5684 57.5 81.5684C37.7697 81.5684 21.7751 85.4486 21.7751 90.235C21.7751 95.0215 37.7697 98.9017 57.5 98.9017Z" fill="#C2D4F3"/>
<path opacity="0.439" d="M57.5 97.8821C76.4787 97.8821 91.8639 94.2301 91.8639 89.7252C91.8639 85.2203 76.4787 81.5684 57.5 81.5684C38.5214 81.5684 23.1361 85.2203 23.1361 89.7252C23.1361 94.2301 38.5214 97.8821 57.5 97.8821Z" fill="#BED2F3"/>
<path opacity="0.4634" d="M57.5 98.9016C75.7271 98.9016 90.503 95.2497 90.503 90.7447C90.503 86.2398 75.7271 82.5879 57.5 82.5879C39.273 82.5879 24.4971 86.2398 24.4971 90.7447C24.4971 95.2497 39.273 98.9016 57.5 98.9016Z" fill="#BBCFF2"/>
<path opacity="0.4878" d="M57.5 97.882C74.9754 97.882 89.1421 94.4583 89.1421 90.2349C89.1421 86.0116 74.9754 82.5879 57.5 82.5879C40.0246 82.5879 25.858 86.0116 25.858 90.2349C25.858 94.4583 40.0246 97.882 57.5 97.882Z" fill="#B7CDF1"/>
<path opacity="0.5122" d="M87.7811 89.7251C87.7811 93.6643 74.2211 96.8624 57.5001 96.8624C40.779 96.8624 27.219 93.6643 27.219 89.7251C27.219 85.7859 40.779 82.5879 57.5001 82.5879C74.2279 82.598 87.7811 85.7859 87.7811 89.7251Z" fill="#B4CAF1"/>
<path opacity="0.5366" d="M57.8402 97.8829C74.0002 97.8829 87.1005 94.6874 87.1005 90.7456C87.1005 86.8039 74.0002 83.6084 57.8402 83.6084C41.6801 83.6084 28.5798 86.8039 28.5798 90.7456C28.5798 94.6874 41.6801 97.8829 57.8402 97.8829Z" fill="#B0C8F0"/>
<path opacity="0.561" d="M85.7396 90.2358C85.7396 93.8949 73.2511 96.8633 57.8402 96.8633C42.4293 96.8633 29.9408 93.8949 29.9408 90.2358C29.9408 86.5768 42.4293 83.6084 57.8402 83.6084C73.2443 83.6084 85.7396 86.5768 85.7396 90.2358Z" fill="#ADC5EF"/>
<path opacity="0.5854" d="M83.6983 89.726C83.6983 93.1092 71.8149 95.8437 57.1598 95.8437C42.5047 95.8437 30.6213 93.0992 30.6213 89.726C30.6213 86.3429 42.5047 83.6084 57.1598 83.6084C71.8149 83.6084 83.6983 86.3529 83.6983 89.726Z" fill="#A9C3EF"/>
<path opacity="0.6098" d="M82.3373 90.7456C82.3373 94.1187 71.0658 96.8632 57.1598 96.8632C43.2538 96.8632 31.9823 94.1291 31.9823 90.7456C31.9823 87.3725 43.2538 84.6279 57.1598 84.6279C71.0658 84.6384 82.3373 87.3725 82.3373 90.7456Z" fill="#A5C0EE"/>
<path opacity="0.6341" d="M57.4999 95.8436C70.8414 95.8436 81.6568 93.3329 81.6568 90.2358C81.6568 87.1386 70.8414 84.6279 57.4999 84.6279C44.1585 84.6279 33.3431 87.1386 33.3431 90.2358C33.3431 93.3329 44.1585 95.8436 57.4999 95.8436Z" fill="#A2BEED"/>
<path opacity="0.6585" d="M80.2958 90.2358C80.2958 93.3393 70.0906 95.8436 57.4965 95.8436C44.9094 95.8543 34.7041 93.3393 34.7041 90.2358C34.7041 87.1322 44.9094 84.6279 57.5034 84.6279C70.0906 84.6279 80.2958 87.1429 80.2958 90.2358Z" fill="#9EBBED"/>
<path opacity="0.6829" d="M57.5 94.824C69.3382 94.824 78.9349 92.5415 78.9349 89.726C78.9349 86.9104 69.3382 84.6279 57.5 84.6279C45.6618 84.6279 36.0651 86.9104 36.0651 89.726C36.0651 92.5415 45.6618 94.824 57.5 94.824Z" fill="#9BB9EC"/>
<path opacity="0.7073" d="M77.574 90.2357C77.574 92.7716 68.5872 94.8239 57.5 94.8239C46.4127 94.8239 37.426 92.7716 37.426 90.2357C37.426 87.6998 46.4127 85.6475 57.5 85.6475C68.5872 85.6573 77.574 87.7097 77.574 90.2357Z" fill="#97B6EB"/>
<path opacity="0.7317" d="M76.213 90.2357C76.213 92.7671 67.8382 94.8239 57.5 94.8239C47.1686 94.8239 38.787 92.7671 38.787 90.2357C38.787 87.7043 47.1618 85.6475 57.5 85.6475C67.8382 85.6475 76.213 87.7043 76.213 90.2357Z" fill="#93B4EB"/>
<path opacity="0.7561" d="M57.8403 93.8043C67.6115 93.8043 75.5326 91.9783 75.5326 89.7259C75.5326 87.4734 67.6115 85.6475 57.8403 85.6475C48.0691 85.6475 40.1479 87.4734 40.1479 89.7259C40.1479 91.9783 48.0691 93.8043 57.8403 93.8043Z" fill="#90B1EA"/>
<path opacity="0.7805" d="M74.1716 90.7454C74.1716 92.9907 66.8615 94.8239 57.8403 94.8239C48.819 94.8239 41.5089 93.0016 41.5089 90.7454C41.5089 88.5001 48.819 86.667 57.8403 86.667C66.8547 86.6778 74.1716 88.5001 74.1716 90.7454Z" fill="#8CAFE9"/>
<path opacity="0.8049" d="M57.1597 93.8042C65.4277 93.8042 72.1302 92.2065 72.1302 90.2356C72.1302 88.2647 65.4277 86.667 57.1597 86.667C48.8918 86.667 42.1893 88.2647 42.1893 90.2356C42.1893 92.2065 48.8918 93.8042 57.1597 93.8042Z" fill="#89ACE8"/>
<path opacity="0.8293" d="M70.7692 89.7258C70.7692 91.4198 64.6761 92.7846 57.1598 92.7846C49.6434 92.7846 43.5503 91.4101 43.5503 89.7258C43.5503 88.0318 49.6434 86.667 57.1598 86.667C64.6761 86.667 70.7692 88.0415 70.7692 89.7258Z" fill="#85AAE8"/>
<path opacity="0.8537" d="M57.1598 93.8042C63.9244 93.8042 69.4083 92.4347 69.4083 90.7453C69.4083 89.056 63.9244 87.6865 57.1598 87.6865C50.3951 87.6865 44.9113 89.056 44.9113 90.7453C44.9113 92.4347 50.3951 93.8042 57.1598 93.8042Z" fill="#82A7E7"/>
<path opacity="0.878" d="M68.7278 90.2355C68.7278 91.6439 63.701 92.7846 57.4966 92.7846C51.2991 92.7846 46.2722 91.6439 46.2722 90.2355C46.2722 88.8271 51.2991 87.6865 57.5035 87.6865C63.701 87.6964 68.7278 88.8371 68.7278 90.2355Z" fill="#7EA5E6"/>
<path opacity="0.9024" d="M57.5 92.7846C62.9494 92.7846 67.3669 91.6433 67.3669 90.2355C67.3669 88.8278 62.9494 87.6865 57.5 87.6865C52.0507 87.6865 47.6332 88.8278 47.6332 90.2355C47.6332 91.6433 52.0507 92.7846 57.5 92.7846Z" fill="#7AA2E6"/>
<path opacity="0.9268" d="M57.5001 91.765C62.1977 91.765 66.006 90.852 66.006 89.7257C66.006 88.5995 62.1977 87.6865 57.5001 87.6865C52.8024 87.6865 48.9941 88.5995 48.9941 89.7257C48.9941 90.852 52.8024 91.765 57.5001 91.765Z" fill="#77A0E5"/>
<path opacity="0.9512" d="M64.6449 90.2355C64.6449 91.078 61.4485 91.7649 57.5 91.7649C53.5514 91.7649 50.355 91.078 50.355 90.2355C50.355 89.3929 53.5514 88.7061 57.5 88.7061C61.4485 88.7061 64.6449 89.3929 64.6449 90.2355Z" fill="#739DE4"/>
<path opacity="0.9756" d="M63.9645 90.2355C63.9645 91.0778 61.2208 91.7649 57.8402 91.7649C54.4596 91.7649 51.7159 91.0778 51.7159 90.2355C51.7159 89.3932 54.4596 88.7061 57.8402 88.7061C61.2208 88.7171 63.9645 89.3932 63.9645 90.2355Z" fill="#709BE4"/>
<path opacity="0.5" d="M62.6035 89.7257C62.6035 90.2921 60.4718 90.7453 57.8402 90.7453C55.2086 90.7453 53.0769 90.2921 53.0769 89.7257C53.0769 89.1592 55.2086 88.7061 57.8402 88.7061C60.4649 88.7061 62.6035 89.1686 62.6035 89.7257Z" fill="#6C98E3"/>
</g>
<path d="M65.9725 31.6078C65.852 31.6078 65.7515 31.5039 65.7515 31.3791V16.3238C65.7515 8.1307 59.3111 1.46602 51.3938 1.46602C43.4765 1.46602 37.0362 8.1307 37.0362 16.3238V31.3791C37.0362 31.5039 36.9357 31.6078 36.8151 31.6078H35.8405C35.72 31.6078 35.6195 31.5039 35.6195 31.3791V16.3238C35.6195 7.31971 42.6928 0 51.3938 0C60.0948 0 67.1682 7.31971 67.1682 16.3238V31.3791C67.1682 31.5039 67.0677 31.6078 66.9471 31.6078H65.9725Z" fill="#6C98E3"/>
<path d="M38.6726 90.7446H19.3363V20.8891C19.3363 20.0486 20.0148 19.3721 20.8577 19.3721H38.6623V90.7446H38.6726Z" fill="url(#paint0_linear)"/>
<path d="M37.6549 90.7446H90.5888C91.1421 90.7446 91.593 90.2936 91.593 89.7401V20.3663C91.593 19.8231 91.1524 19.3721 90.599 19.3721H37.6549V90.7446Z" fill="url(#paint1_linear)"/>
<path d="M28.4956 90.7446H19.3363V20.3766C19.3363 19.8231 19.765 19.3721 20.2912 19.3721H28.4956V90.7446Z" fill="url(#paint2_linear)"/>
<path d="M38.6726 90.745H19.3363L29.0096 79.5293L38.6726 90.745Z" fill="url(#paint3_linear)"/>
<path d="M53.9381 31.0979C53.9381 33.0683 52.3429 34.6666 50.3762 34.6666C48.4094 34.6666 46.8142 33.0683 46.8142 31.0979C46.8142 29.1275 48.4094 27.5293 50.3762 27.5293C52.3429 27.5293 53.9381 29.1275 53.9381 31.0979Z" fill="#89ADE9"/>
<path d="M84.469 31.0979C84.469 33.0683 82.8738 34.6666 80.907 34.6666C78.9403 34.6666 77.3451 33.0683 77.3451 31.0979C77.3451 29.1275 78.9403 27.5293 80.907 27.5293C82.8738 27.5293 84.469 29.1275 84.469 31.0979Z" fill="#89ADE9"/>
<path d="M80.2204 31.6078C80.0998 31.6078 79.9993 31.5039 79.9993 31.3791V16.3238C79.9993 8.1307 73.559 1.46602 65.6417 1.46602C57.7243 1.46602 51.284 8.1307 51.284 16.3238V31.3791C51.284 31.5039 51.1835 31.6078 51.0629 31.6078H50.0884C49.9678 31.6078 49.8673 31.5039 49.8673 31.3791V16.3238C49.8673 7.31971 56.9406 0 65.6417 0C74.3427 0 81.416 7.31971 81.416 16.3238V31.3791C81.416 31.5039 81.3155 31.6078 81.1949 31.6078H80.2204Z" fill="#6C98E3"/>
</g>
<defs>
<linearGradient id="paint0_linear" x1="19.3384" y1="55.0614" x2="38.67" y2="55.0614" gradientUnits="userSpaceOnUse">
<stop stop-color="#E3EDFE"/>
<stop offset="1" stop-color="#B3CDFA"/>
</linearGradient>
<linearGradient id="paint1_linear" x1="37.6536" y1="55.0614" x2="91.5962" y2="55.0614" gradientUnits="userSpaceOnUse">
<stop stop-color="#E3EDFE"/>
<stop offset="1" stop-color="#B3CDFA"/>
</linearGradient>
<linearGradient id="paint2_linear" x1="19.3285" y1="55.0614" x2="28.4908" y2="55.0614" gradientUnits="userSpaceOnUse">
<stop stop-color="#E3EDFE"/>
<stop offset="1" stop-color="#B3CDFA"/>
</linearGradient>
<linearGradient id="paint3_linear" x1="19.3384" y1="85.139" x2="38.67" y2="85.139" gradientUnits="userSpaceOnUse">
<stop stop-color="#E3EDFE"/>
<stop offset="1" stop-color="#B3CDFA"/>
</linearGradient>
</defs>
</svg>
