<svg width="16" height="18" viewBox="0 0 16 18" fill="none" xmlns="http://www.w3.org/2000/svg">
<path d="M2.97079 13.7646H14.8826C15.322 13.7646 15.6767 13.4099 15.6767 12.9705V1.32341C15.6767 0.884003 15.322 0.529297 14.8826 0.529297H2.97079C1.50961 0.529297 0.32373 1.71518 0.32373 3.17636V14.8234C0.32373 16.2846 1.50961 17.4705 2.97079 17.4705H14.8826C15.322 17.4705 15.6767 17.1158 15.6767 16.6764C15.6767 16.2369 15.322 15.8822 14.8826 15.8822H2.97079C2.38844 15.8822 1.91197 15.4058 1.91197 14.8234C1.91197 14.2411 2.38844 13.7646 2.97079 13.7646ZM8.56138 11.1493C8.41314 11.2975 8.20667 11.3822 8.0002 11.3822C7.79373 11.3822 7.58726 11.2975 7.43902 11.1493C7.29079 11.0011 7.20608 10.7999 7.20608 10.5881C7.20608 10.3816 7.29079 10.1752 7.43902 10.0269C7.73549 9.73047 8.26491 9.73047 8.56138 10.0269C8.70961 10.1752 8.79432 10.3816 8.79432 10.5881C8.79432 10.7999 8.70961 11.0011 8.56138 11.1493ZM6.4702 3.46753C7.0102 3.01753 7.72491 2.82694 8.42373 2.94871C9.38726 3.11812 10.1761 3.90694 10.3455 4.87047C10.5202 5.88165 10.0437 6.88753 9.14902 7.37989C8.93196 7.50165 8.79432 7.77165 8.79432 8.07871V8.20577C8.79432 8.64518 8.43961 8.99989 8.0002 8.99989C7.56079 8.99989 7.20608 8.64518 7.20608 8.20577V8.07871C7.20608 7.1893 7.65608 6.38989 8.38138 5.99283C8.61432 5.86577 8.85255 5.564 8.77844 5.14577C8.72549 4.83342 8.46079 4.56871 8.15373 4.51577C7.90491 4.46812 7.67197 4.53165 7.49197 4.68518C7.31197 4.83871 7.20608 5.06106 7.20608 5.294C7.20608 5.73341 6.85138 6.08812 6.41197 6.08812C5.97255 6.08812 5.61785 5.73341 5.61785 5.294C5.61785 4.58989 5.9302 3.92283 6.4702 3.46753Z" fill="#5B86E5"/>
</svg>
