<svg width="40" height="40" viewBox="0 0 40 40" fill="none" xmlns="http://www.w3.org/2000/svg">
<path d="M38.6328 33.75H38.5547V12.4609C38.5547 11.7071 37.9413 11.0938 37.1875 11.0938H32.8516V7.02547C32.8522 7.01438 32.8532 7.00344 32.8532 6.99219C32.8532 6.98094 32.8522 6.97 32.8516 6.95891V3.08594C32.8516 2.33211 32.2382 1.71875 31.4844 1.71875H17.5116C17.188 1.71875 16.9257 1.98102 16.9257 2.30469C16.9257 2.62836 17.188 2.89062 17.5116 2.89062H31.4844C31.592 2.89062 31.6797 2.9782 31.6797 3.08594V6.40625H8.32031V3.08594C8.32031 2.9782 8.40797 2.89062 8.51562 2.89062H14.7773C15.1009 2.89062 15.3632 2.62836 15.3632 2.30469C15.3632 1.98102 15.1009 1.71875 14.7773 1.71875H8.51562C7.7618 1.71875 7.14844 2.33211 7.14844 3.08594V6.95891C7.14781 6.97 7.1468 6.98094 7.1468 6.99219C7.1468 7.00344 7.14781 7.01438 7.14844 7.02547V11.0938H2.8125C2.05867 11.0938 1.44531 11.7071 1.44531 12.4609V33.75H1.36719C0.613359 33.75 0 34.3634 0 35.1172V35.3516C0 36.967 1.31422 38.2812 2.92969 38.2812H37.0703C38.6858 38.2812 40 36.967 40 35.3516V35.1172C40 34.3634 39.3866 33.75 38.6328 33.75ZM37.1875 12.2656C37.2952 12.2656 37.3828 12.3532 37.3828 12.4609V13.4375H32.8516V12.2656H37.1875ZM2.8125 12.2656H7.14844V13.4375H2.61719V12.4609C2.61719 12.3532 2.70484 12.2656 2.8125 12.2656ZM38.8281 35.3516C38.8281 36.3208 38.0396 37.1094 37.0703 37.1094H2.92969C1.96039 37.1094 1.17188 36.3208 1.17188 35.3516V35.1172C1.17188 35.0095 1.25953 34.9219 1.36719 34.9219H29.5703C29.8939 34.9219 30.1562 34.6596 30.1562 34.3359C30.1562 34.0123 29.8939 33.75 29.5703 33.75H2.61719V14.6094H7.14844V17.9688C7.14844 18.2924 7.41078 18.5547 7.73438 18.5547C8.05797 18.5547 8.32031 18.2924 8.32031 17.9688V7.57812H31.6797V31.2109C31.6797 31.3187 31.592 31.4062 31.4844 31.4062H8.51562C8.40797 31.4062 8.32031 31.3187 8.32031 31.2109V20.7031C8.32031 20.3795 8.05797 20.1172 7.73438 20.1172C7.41078 20.1172 7.14844 20.3795 7.14844 20.7031V31.2109C7.14844 31.9648 7.7618 32.5781 8.51562 32.5781H31.4844C32.2382 32.5781 32.8516 31.9648 32.8516 31.2109V14.6094H37.3828V33.75H32.3047C31.9811 33.75 31.7188 34.0123 31.7188 34.3359C31.7188 34.6596 31.9811 34.9219 32.3047 34.9219H38.6328C38.7405 34.9219 38.8281 35.0095 38.8281 35.1172V35.3516Z" fill="#555770"/>
<path d="M29.9233 5.23438C30.2469 5.23438 30.5092 4.97211 30.5092 4.64844C30.5092 4.32477 30.2469 4.0625 29.9233 4.0625H25.2324C24.9088 4.0625 24.6465 4.32477 24.6465 4.64844C24.6465 4.97211 24.9088 5.23438 25.2324 5.23438H29.9233Z" fill="#555770"/>
<path d="M10.0904 4.0625C9.76684 4.0625 9.50488 4.32477 9.50488 4.64844C9.50488 4.97211 9.76762 5.23438 10.0912 5.23438C10.4148 5.23438 10.6771 4.97211 10.6771 4.64844C10.6771 4.32477 10.4148 4.0625 10.0912 4.0625H10.0904Z" fill="#555770"/>
<path d="M12.4342 4.0625C12.1106 4.0625 11.8486 4.32477 11.8486 4.64844C11.8486 4.97211 12.1114 5.23438 12.435 5.23438C12.7586 5.23438 13.0209 4.97211 13.0209 4.64844C13.0209 4.32477 12.7586 4.0625 12.435 4.0625H12.4342Z" fill="#555770"/>
<path d="M14.7787 4.0625H14.7779C14.4543 4.0625 14.1924 4.32477 14.1924 4.64844C14.1924 4.97211 14.4551 5.23438 14.7787 5.23438C15.1023 5.23438 15.3646 4.97211 15.3646 4.64844C15.3646 4.32477 15.1023 4.0625 14.7787 4.0625Z" fill="#555770"/>
<path d="M10.0781 25.5469H29.9219C30.2455 25.5469 30.5078 25.2846 30.5078 24.9609V21.3996C30.5078 21.0759 30.2455 20.8137 29.9219 20.8137C29.5983 20.8137 29.3359 21.0759 29.3359 21.3996V24.375H10.6641V12.2656H29.3359V18.6652C29.3359 18.9889 29.5983 19.2512 29.9219 19.2512C30.2455 19.2512 30.5078 18.9889 30.5078 18.6652V11.6797C30.5078 11.356 30.2455 11.0938 29.9219 11.0938H10.0781C9.75453 11.0938 9.49219 11.356 9.49219 11.6797V24.9609C9.49219 25.2846 9.75453 25.5469 10.0781 25.5469Z" fill="#555770"/>
<path d="M10.0781 30.2344H29.9219C30.2455 30.2344 30.5078 29.9721 30.5078 29.6484C30.5078 29.3248 30.2455 29.0625 29.9219 29.0625H10.0781C9.75453 29.0625 9.49219 29.3248 9.49219 29.6484C9.49219 29.9721 9.75453 30.2344 10.0781 30.2344Z" fill="#555770"/>
<path d="M10.0781 27.8906H29.9219C30.2455 27.8906 30.5078 27.6284 30.5078 27.3047C30.5078 26.981 30.2455 26.7188 29.9219 26.7188H10.0781C9.75453 26.7188 9.49219 26.981 9.49219 27.3047C9.49219 27.6284 9.75453 27.8906 10.0781 27.8906Z" fill="#555770"/>
<path d="M15.7031 9.92188H24.2969C24.6205 9.92188 24.8828 9.65961 24.8828 9.33594C24.8828 9.01227 24.6205 8.75 24.2969 8.75H15.7031C15.3795 8.75 15.1172 9.01227 15.1172 9.33594C15.1172 9.65961 15.3795 9.92188 15.7031 9.92188Z" fill="#555770"/>
<path d="M12.2093 19.9219C12.178 19.9219 12.1499 19.9109 12.1249 19.8891C12.0999 19.8641 12.0874 19.8344 12.0874 19.8V16.7625C12.0874 16.7281 12.0999 16.7 12.1249 16.6781C12.1499 16.6531 12.178 16.6406 12.2093 16.6406H14.5062C14.5405 16.6406 14.5702 16.6531 14.5952 16.6781C14.6202 16.7 14.6327 16.7281 14.6327 16.7625V17.3156C14.6327 17.3469 14.6202 17.375 14.5952 17.4C14.5702 17.425 14.5405 17.4375 14.5062 17.4375H13.0577V17.9016H14.403C14.4374 17.9016 14.4671 17.9141 14.4921 17.9391C14.5171 17.9609 14.5296 17.9891 14.5296 18.0234V18.5297C14.5296 18.5641 14.5171 18.5938 14.4921 18.6188C14.4671 18.6406 14.4374 18.6516 14.403 18.6516H13.0577V19.125H14.5437C14.578 19.125 14.6077 19.1375 14.6327 19.1625C14.6577 19.1875 14.6702 19.2172 14.6702 19.2516V19.8C14.6702 19.8344 14.6577 19.8641 14.6327 19.8891C14.6077 19.9109 14.578 19.9219 14.5437 19.9219H12.2093Z" fill="#555770"/>
<path d="M15.2717 19.9219C15.2405 19.9219 15.2123 19.9109 15.1873 19.8891C15.1623 19.8641 15.1498 19.8344 15.1498 19.8V16.7625C15.1498 16.7281 15.1623 16.7 15.1873 16.6781C15.2123 16.6531 15.2405 16.6406 15.2717 16.6406H15.8952C15.9514 16.6406 15.992 16.6547 16.017 16.6828C16.042 16.7078 16.0592 16.7266 16.0686 16.7391L17.0342 18.2906V16.7625C17.0342 16.7281 17.0467 16.7 17.0717 16.6781C17.0967 16.6531 17.1248 16.6406 17.1561 16.6406H17.8639C17.8983 16.6406 17.9264 16.6531 17.9483 16.6781C17.9733 16.7 17.9858 16.7281 17.9858 16.7625V19.8C17.9858 19.8344 17.9733 19.8641 17.9483 19.8891C17.9264 19.9109 17.8983 19.9219 17.8639 19.9219H17.2452C17.1858 19.9219 17.1436 19.9094 17.1186 19.8844C17.0936 19.8563 17.0764 19.8359 17.067 19.8234L16.1014 18.3609V19.8C16.1014 19.8344 16.0889 19.8641 16.0639 19.8891C16.042 19.9109 16.0139 19.9219 15.9795 19.9219H15.2717Z" fill="#555770"/>
<path d="M18.6958 19.9219C18.6645 19.9219 18.6364 19.9109 18.6114 19.8891C18.5864 19.8641 18.5739 19.8344 18.5739 19.8V16.7625C18.5739 16.7281 18.5864 16.7 18.6114 16.6781C18.6364 16.6531 18.6645 16.6406 18.6958 16.6406H19.9802C20.2833 16.6406 20.5458 16.6906 20.7677 16.7906C20.9895 16.8875 21.1645 17.0313 21.2927 17.2219C21.4208 17.4125 21.4895 17.6469 21.4989 17.925C21.5052 18.0594 21.5083 18.1781 21.5083 18.2813C21.5083 18.3844 21.5052 18.5016 21.4989 18.6328C21.4864 18.9266 21.4192 19.1688 21.2974 19.3594C21.1786 19.55 21.0099 19.6922 20.7911 19.7859C20.5724 19.8766 20.3099 19.9219 20.0036 19.9219H18.6958ZM19.5817 19.125H19.9802C20.0833 19.125 20.1708 19.1078 20.2427 19.0734C20.3145 19.0391 20.3708 18.9859 20.4114 18.9141C20.452 18.8391 20.4739 18.7438 20.477 18.6281C20.4802 18.5375 20.4817 18.4563 20.4817 18.3844C20.4849 18.3125 20.4849 18.2406 20.4817 18.1687C20.4817 18.0969 20.4802 18.0172 20.477 17.9297C20.4708 17.7578 20.4208 17.6328 20.327 17.5547C20.2364 17.4766 20.113 17.4375 19.9567 17.4375H19.5817V19.125Z" fill="#555770"/>
<path d="M22.1061 19.9219C22.0749 19.9219 22.0468 19.9109 22.0218 19.8891C21.9968 19.8641 21.9843 19.8344 21.9843 19.8V16.7625C21.9843 16.7281 21.9968 16.7 22.0218 16.6781C22.0468 16.6531 22.0749 16.6406 22.1061 16.6406H24.403C24.4374 16.6406 24.4671 16.6531 24.4921 16.6781C24.5171 16.7 24.5296 16.7281 24.5296 16.7625V17.3156C24.5296 17.3469 24.5171 17.375 24.4921 17.4C24.4671 17.425 24.4374 17.4375 24.403 17.4375H22.9546V17.9016H24.2999C24.3343 17.9016 24.3639 17.9141 24.3889 17.9391C24.4139 17.9609 24.4264 17.9891 24.4264 18.0234V18.5297C24.4264 18.5641 24.4139 18.5938 24.3889 18.6188C24.3639 18.6406 24.3343 18.6516 24.2999 18.6516H22.9546V19.125H24.4405C24.4749 19.125 24.5046 19.1375 24.5296 19.1625C24.5546 19.1875 24.5671 19.2172 24.5671 19.2516V19.8C24.5671 19.8344 24.5546 19.8641 24.5296 19.8891C24.5046 19.9109 24.4749 19.9219 24.4405 19.9219H22.1061Z" fill="#555770"/>
<path d="M25.1686 19.9219C25.1373 19.9219 25.1092 19.9109 25.0842 19.8891C25.0592 19.8641 25.0467 19.8344 25.0467 19.8V16.7625C25.0467 16.7281 25.0592 16.7 25.0842 16.6781C25.1092 16.6531 25.1373 16.6406 25.1686 16.6406H26.4529C26.7561 16.6406 27.0186 16.6906 27.2404 16.7906C27.4623 16.8875 27.6373 17.0313 27.7654 17.2219C27.8936 17.4125 27.9623 17.6469 27.9717 17.925C27.9779 18.0594 27.9811 18.1781 27.9811 18.2813C27.9811 18.3844 27.9779 18.5016 27.9717 18.6328C27.9592 18.9266 27.892 19.1688 27.7701 19.3594C27.6514 19.55 27.4826 19.6922 27.2639 19.7859C27.0451 19.8766 26.7826 19.9219 26.4764 19.9219H25.1686ZM26.0545 19.125H26.4529C26.5561 19.125 26.6436 19.1078 26.7154 19.0734C26.7873 19.0391 26.8436 18.9859 26.8842 18.9141C26.9248 18.8391 26.9467 18.7438 26.9498 18.6281C26.9529 18.5375 26.9545 18.4563 26.9545 18.3844C26.9576 18.3125 26.9576 18.2406 26.9545 18.1687C26.9545 18.0969 26.9529 18.0172 26.9498 17.9297C26.9436 17.7578 26.8936 17.6328 26.7998 17.5547C26.7092 17.4766 26.5858 17.4375 26.4295 17.4375H26.0545V19.125Z" fill="#555770"/>
</svg>
