<svg width="16" height="15" viewBox="0 0 16 15" fill="none" xmlns="http://www.w3.org/2000/svg">
<path d="M15.0664 2.5H3.9375L3.69141 1.29688C3.63672 0.996094 3.36328 0.75 3.0625 0.75H0.328125C0.136719 0.75 0 0.914062 0 1.07812V1.73438C0 1.92578 0.136719 2.0625 0.328125 2.0625H2.51562L4.40234 11.7969C4.10156 12.125 3.9375 12.5352 3.9375 13C3.9375 13.9844 4.70312 14.75 5.6875 14.75C6.64453 14.75 7.4375 13.9844 7.4375 13C7.4375 12.7539 7.32812 12.3711 7.19141 12.125H11.1562C11.0195 12.3711 10.9375 12.7539 10.9375 13C10.9375 13.9844 11.7031 14.75 12.6875 14.75C13.6445 14.75 14.4375 13.9844 14.4375 13C14.4375 12.5078 14.2188 12.0703 13.8906 11.7422L13.918 11.6328C14 11.2227 13.6992 10.8125 13.2617 10.8125H5.55078L5.30469 9.5H13.8359C14.1641 9.5 14.4102 9.30859 14.4922 9.00781L15.7227 3.32031C15.8047 2.91016 15.5039 2.5 15.0664 2.5ZM5.6875 13.6562C5.30469 13.6562 5.03125 13.3828 5.03125 13C5.03125 12.6445 5.30469 12.3438 5.6875 12.3438C6.04297 12.3438 6.34375 12.6445 6.34375 13C6.34375 13.3828 6.04297 13.6562 5.6875 13.6562ZM12.6875 13.6562C12.3047 13.6562 12.0312 13.3828 12.0312 13C12.0312 12.6445 12.3047 12.3438 12.6875 12.3438C13.043 12.3438 13.3438 12.6445 13.3438 13C13.3438 13.3828 13.043 13.6562 12.6875 13.6562ZM13.3164 8.1875H5.03125L4.18359 3.8125H14.2734L13.3164 8.1875ZM10.8008 6.57422C11.0195 6.35547 10.8555 6 10.582 6H9.84375V4.57812C9.84375 4.41406 9.67969 4.25 9.51562 4.25H8.85938C8.66797 4.25 8.53125 4.41406 8.53125 4.57812V6H7.76562C7.49219 6 7.32812 6.35547 7.54688 6.57422L8.94141 7.96875C9.07812 8.10547 9.26953 8.10547 9.40625 7.96875L10.8008 6.57422Z" fill="white"/>
</svg>
