<svg width="40" height="40" viewBox="0 0 40 40" fill="none" xmlns="http://www.w3.org/2000/svg">
<g clip-path="url(#clip0_5954_212997)">
<path d="M35.0011 4.6665C35.3247 4.6665 35.587 4.40417 35.587 4.08057C35.587 3.75696 35.3247 3.49463 35.0011 3.49463C34.6775 3.49463 34.4152 3.75696 34.4152 4.08057C34.4152 4.40417 34.6775 4.6665 35.0011 4.6665Z" fill="#555770"/>
<path d="M31.9148 4.6665C32.2384 4.6665 32.5007 4.40417 32.5007 4.08057C32.5007 3.75696 32.2384 3.49463 31.9148 3.49463C31.5912 3.49463 31.3289 3.75696 31.3289 4.08057C31.3289 4.40417 31.5912 4.6665 31.9148 4.6665Z" fill="#555770"/>
<path d="M28.8286 4.6665C29.1522 4.6665 29.4146 4.40417 29.4146 4.08057C29.4146 3.75696 29.1522 3.49463 28.8286 3.49463C28.505 3.49463 28.2427 3.75696 28.2427 4.08057C28.2427 4.40417 28.505 4.6665 28.8286 4.6665Z" fill="#555770"/>
<path d="M36.2891 0.567383H9.87266C9.54898 0.567383 9.28672 0.829727 9.28672 1.15332C9.28672 1.47699 9.54898 1.73926 9.87266 1.73926H36.2891C37.6891 1.73926 38.8281 2.87824 38.8281 4.27832V6.42176H1.17188V4.27832C1.17188 2.87824 2.31086 1.73926 3.71094 1.73926H7.52891C7.85258 1.73926 8.11484 1.47699 8.11484 1.15332C8.11484 0.829727 7.85258 0.567383 7.52891 0.567383H3.71094C1.66477 0.567383 0 2.23207 0 4.27832V37.3873C0 38.5153 0.917656 39.4329 2.04562 39.4329H37.9545C39.0824 39.4329 40.0001 38.5153 40.0001 37.3873V4.27832C40 2.23207 38.3352 0.567383 36.2891 0.567383ZM10.6279 38.261C10.444 38.261 10.2724 38.1879 10.1449 38.0553C10.0174 37.9227 9.95125 37.7484 9.95844 37.5647L10.5174 23.4333C10.5245 23.2537 10.6052 23.0818 10.739 22.9616L16.1657 18.0848C16.2889 17.9742 16.448 17.9132 16.6135 17.9132H19.4662V19.7182C18.7027 19.966 18.1491 20.6837 18.1491 21.5286C18.1491 22.578 19.0028 23.4317 20.0521 23.4317C21.1015 23.4317 21.9552 22.5779 21.9552 21.5286C21.9552 20.6837 21.4015 19.966 20.638 19.7182V17.9132H23.3864C23.552 17.9132 23.711 17.9742 23.8341 18.0848L29.2609 22.9615C29.3946 23.0818 29.4754 23.2538 29.4825 23.4335L30.0414 37.5647C30.0487 37.7485 29.9825 37.9227 29.855 38.0553C29.7275 38.1879 29.556 38.261 29.372 38.261H10.6279ZM20.0522 20.7975C20.4554 20.7975 20.7834 21.1254 20.7834 21.5286C20.7834 21.9318 20.4554 22.2598 20.0522 22.2598C19.649 22.2598 19.321 21.9318 19.321 21.5286C19.321 21.1254 19.649 20.7975 20.0522 20.7975ZM38.8281 37.3873C38.8281 37.8691 38.4362 38.2611 37.9544 38.2611H35.7248V11.5706C35.7248 10.3685 34.7467 9.39051 33.5447 9.39051H6.45531C5.2532 9.39051 4.27523 10.3686 4.27523 11.5706V28.4223C4.27523 28.746 4.5375 29.0083 4.86117 29.0083C5.18477 29.0083 5.44711 28.746 5.44711 28.4223V11.5706C5.44711 11.0147 5.89937 10.5624 6.45531 10.5624H33.5447C34.1006 10.5624 34.5529 11.0147 34.5529 11.5706V38.261H31.0888C31.1798 38.0281 31.2227 37.7767 31.2124 37.5183L30.6535 23.3871C30.6339 22.8933 30.4119 22.4204 30.0442 22.09L24.6175 17.2132C24.2789 16.909 23.8416 16.7414 23.3864 16.7414H20.638V15.4011C20.638 15.0775 20.3758 14.8152 20.0521 14.8152C19.7284 14.8152 19.4662 15.0775 19.4662 15.4011V16.7414H16.6135C16.1584 16.7414 15.7211 16.909 15.3824 17.2132L9.9557 22.09C9.58797 22.4204 9.36586 22.8933 9.34641 23.3871L8.78742 37.5183C8.77719 37.7767 8.82008 38.0281 8.91102 38.261H5.44695V30.7661C5.44695 30.4424 5.18461 30.1801 4.86102 30.1801C4.53734 30.1801 4.27508 30.4424 4.27508 30.7661V38.261H2.04562C1.56383 38.261 1.17188 37.869 1.17188 37.3872V7.59356H38.8281V37.3873Z" fill="#555770"/>
<path d="M26.5069 29.9509H24.724L26.6882 26.4117C26.8752 26.0748 26.8702 25.6754 26.6747 25.3433C26.4793 25.0113 26.1325 24.813 25.7472 24.813H23.4468C23.0082 24.813 22.6172 25.0753 22.4508 25.4813L19.9473 31.5929C19.811 31.9255 19.8492 32.3021 20.0494 32.6006C20.2497 32.899 20.5839 33.0773 20.9433 33.0773H22.1573L21.2822 35.9677C21.1306 36.4687 21.3483 36.9888 21.8116 37.2324C21.974 37.3177 22.1471 37.3589 22.3176 37.3589C22.634 37.3589 22.9412 37.2171 23.1534 36.9513L27.348 31.6988C27.6085 31.3727 27.6579 30.9365 27.4768 30.5605C27.2958 30.1845 26.9243 29.9509 26.5069 29.9509ZM22.5476 35.8318L23.3161 33.2938C23.4158 32.9643 23.3554 32.6168 23.1502 32.3404C22.9451 32.0641 22.6301 31.9056 22.2858 31.9056H21.0855L23.5108 25.985H25.5848L23.6206 29.5242C23.4336 29.8612 23.4387 30.2606 23.6342 30.5926C23.8297 30.9246 24.1764 31.1229 24.5618 31.1229H26.3085L22.5476 35.8318Z" fill="#555770"/>
<path d="M19.32 25.168H14.0958C13.7722 25.168 13.5099 25.4302 13.5099 25.7539C13.5099 26.0776 13.7722 26.3398 14.0958 26.3398H19.32C19.6436 26.3398 19.9059 26.0776 19.9059 25.7539C19.9059 25.4303 19.6436 25.168 19.32 25.168Z" fill="#555770"/>
<path d="M14.0958 29.0312H17.0044C17.3281 29.0312 17.5904 28.769 17.5904 28.4453C17.5904 28.1216 17.3281 27.8594 17.0044 27.8594H14.0958C13.7722 27.8594 13.5099 28.1216 13.5099 28.4453C13.5099 28.7689 13.7722 29.0312 14.0958 29.0312Z" fill="#555770"/>
<path d="M14.0958 31.3521H16.2604C16.5841 31.3521 16.8464 31.0898 16.8464 30.7661C16.8464 30.4424 16.5841 30.1802 16.2604 30.1802H14.0958C13.7722 30.1802 13.5099 30.4424 13.5099 30.7661C13.5099 31.0897 13.7722 31.3521 14.0958 31.3521Z" fill="#555770"/>
<path d="M18.3558 34.7144H14.0958C13.7722 34.7144 13.5099 34.9766 13.5099 35.3003C13.5099 35.6239 13.7722 35.8862 14.0958 35.8862H18.3558C18.6795 35.8862 18.9418 35.6239 18.9418 35.3003C18.9418 34.9766 18.6795 34.7144 18.3558 34.7144Z" fill="#555770"/>
<path d="M8.56396 14.0342H14.3353C14.659 14.0342 14.9212 13.7719 14.9212 13.4482C14.9212 13.1246 14.659 12.8623 14.3353 12.8623H8.56396C8.24029 12.8623 7.97803 13.1246 7.97803 13.4482C7.97803 13.7718 8.24037 14.0342 8.56396 14.0342Z" fill="#555770"/>
<path d="M8.56396 16.8809H11.4497C11.7733 16.8809 12.0356 16.6186 12.0356 16.2949C12.0356 15.9712 11.7733 15.709 11.4497 15.709H8.56396C8.24029 15.709 7.97803 15.9712 7.97803 16.2949C7.97803 16.6186 8.24037 16.8809 8.56396 16.8809Z" fill="#555770"/>
<path d="M25.769 14.0342H31.5404C31.8641 14.0342 32.1264 13.7719 32.1264 13.4482C32.1264 13.1246 31.8641 12.8623 31.5404 12.8623H25.769C25.4454 12.8623 25.1831 13.1246 25.1831 13.4482C25.1831 13.7718 25.4454 14.0342 25.769 14.0342Z" fill="#555770"/>
<path d="M31.5404 15.709H28.6547C28.331 15.709 28.0687 15.9712 28.0687 16.2949C28.0687 16.6186 28.331 16.8809 28.6547 16.8809H31.5404C31.8641 16.8809 32.1264 16.6186 32.1264 16.2949C32.1264 15.9713 31.864 15.709 31.5404 15.709Z" fill="#555770"/>
</g>
<defs>
<clipPath id="clip0_5954_212997">
<rect width="40" height="40" fill="white"/>
</clipPath>
</defs>
</svg>
