<svg width="15" height="15" viewBox="0 0 15 15" fill="none" xmlns="http://www.w3.org/2000/svg">
<circle opacity="0.5" cx="7.5" cy="7.5" r="7.5" fill="white"/>
<path opacity="0.5" d="M7.42139 6.7124L5.22998 4.49951L4.77881 4.04834C4.71436 3.98389 4.60693 3.98389 4.521 4.04834L4.04834 4.521C3.98389 4.60693 3.98389 4.71436 4.04834 4.77881L6.7124 7.42139L4.04834 10.0854C3.98389 10.1499 3.98389 10.2573 4.04834 10.3433L4.521 10.8159C4.60693 10.8804 4.71436 10.8804 4.77881 10.8159L7.42139 8.15186L10.0854 10.8159C10.1499 10.8804 10.2573 10.8804 10.3433 10.8159L10.8159 10.3433C10.8804 10.2573 10.8804 10.1499 10.8159 10.0854L8.15186 7.42139L10.3647 5.22998L10.8159 4.77881C10.8804 4.71436 10.8804 4.60693 10.8159 4.521L10.3433 4.04834C10.2573 3.98389 10.1499 3.98389 10.0854 4.04834L7.42139 6.7124Z" fill="#1C1C28"/>
</svg>
