<svg width="320" height="320" viewBox="0 0 320 320" fill="none" xmlns="http://www.w3.org/2000/svg">
<rect width="320" height="320" fill="#F7FAFF"/>
<g opacity="0.7">
<g opacity="0.5">
<path opacity="0.0244" d="M160 251.033C215 251.033 259.586 240.485 259.586 227.474C259.586 214.463 215 203.916 160 203.916C105 203.916 60.4142 214.463 60.4142 227.474C60.4142 240.485 105 251.033 160 251.033Z" fill="#FBFCFE"/>
<path opacity="0.0488" d="M160 252.845C213.666 252.845 257.172 242.297 257.172 229.286C257.172 216.275 213.666 205.728 160 205.728C106.334 205.728 62.8284 216.275 62.8284 229.286C62.8284 242.297 106.334 252.845 160 252.845Z" fill="#F8FAFE"/>
<path opacity="0.0732" d="M160.604 251.033C213.27 251.033 255.964 240.891 255.964 228.38C255.964 215.869 213.27 205.728 160.604 205.728C107.937 205.728 65.2426 215.869 65.2426 228.38C65.2426 240.891 107.937 251.033 160.604 251.033Z" fill="#F4F7FD"/>
<path opacity="0.0976" d="M160.603 251.033C211.937 251.033 253.55 240.891 253.55 228.38C253.55 215.869 211.937 205.728 160.603 205.728C109.27 205.728 67.6567 215.869 67.6567 228.38C67.6567 240.891 109.27 251.033 160.603 251.033Z" fill="#F1F5FC"/>
<path opacity="0.122" d="M159.396 251.033C209.396 251.033 249.929 241.297 249.929 229.286C249.929 217.276 209.396 207.54 159.396 207.54C109.397 207.54 68.8639 217.276 68.8639 229.286C68.8639 241.297 109.397 251.033 159.396 251.033Z" fill="#EDF2FC"/>
<path opacity="0.1463" d="M159.397 249.221C208.063 249.221 247.515 239.89 247.515 228.38C247.515 216.871 208.063 207.54 159.397 207.54C110.73 207.54 71.2782 216.871 71.2782 228.38C71.2782 239.89 110.73 249.221 159.397 249.221Z" fill="#E9F0FB"/>
<path opacity="0.1707" d="M159.396 249.221C206.729 249.221 245.101 239.89 245.101 228.38C245.101 216.871 206.729 207.54 159.396 207.54C112.063 207.54 73.6923 216.871 73.6923 228.38C73.6923 239.89 112.063 249.221 159.396 249.221Z" fill="#E6EDFA"/>
<path opacity="0.1951" d="M160 247.408C206.333 247.408 243.894 238.484 243.894 227.474C243.894 216.465 206.333 207.54 160 207.54C113.667 207.54 76.1066 216.465 76.1066 227.474C76.1066 238.484 113.667 247.408 160 247.408Z" fill="#E2EBFA"/>
<path opacity="0.2195" d="M160 249.22C205 249.22 241.479 240.296 241.479 229.286C241.479 218.277 205 209.352 160 209.352C115 209.352 78.5208 218.277 78.5208 229.286C78.5208 240.296 115 249.22 160 249.22Z" fill="#DFE8F9"/>
<path opacity="0.2439" d="M160 247.408C203.666 247.408 239.065 238.889 239.065 228.38C239.065 217.871 203.666 209.352 160 209.352C116.334 209.352 80.9349 217.871 80.9349 228.38C80.9349 238.889 116.334 247.408 160 247.408Z" fill="#DBE6F8"/>
<path opacity="0.2683" d="M160 245.596C202.333 245.596 236.651 237.483 236.651 227.474C236.651 217.466 202.333 209.352 160 209.352C117.667 209.352 83.3491 217.466 83.3491 227.474C83.3491 237.483 117.667 245.596 160 245.596Z" fill="#D8E3F7"/>
<path opacity="0.2927" d="M160.604 247.408C201.937 247.408 235.444 239.295 235.444 229.286C235.444 219.278 201.937 211.164 160.604 211.164C119.27 211.164 85.7633 219.278 85.7633 229.286C85.7633 239.295 119.27 247.408 160.604 247.408Z" fill="#D4E1F7"/>
<path opacity="0.3171" d="M160.604 245.596C200.603 245.596 233.03 237.888 233.03 228.38C233.03 218.872 200.603 211.164 160.604 211.164C120.604 211.164 88.1775 218.872 88.1775 228.38C88.1775 237.888 120.604 245.596 160.604 245.596Z" fill="#D0DEF6"/>
<path opacity="0.3415" d="M160.604 245.596C199.27 245.596 230.615 237.888 230.615 228.38C230.615 218.872 199.27 211.164 160.604 211.164C121.937 211.164 90.5918 218.872 90.5918 228.38C90.5918 237.888 121.937 245.596 160.604 245.596Z" fill="#CDDCF5"/>
<path opacity="0.3659" d="M159.396 245.596C196.73 245.596 226.994 238.294 226.994 229.286C226.994 220.279 196.73 212.977 159.396 212.977C122.063 212.977 91.7988 220.279 91.7988 229.286C91.7988 238.294 122.063 245.596 159.396 245.596Z" fill="#C9D9F5"/>
<path opacity="0.3902" d="M159.396 243.784C195.396 243.784 224.58 236.888 224.58 228.38C224.58 219.873 195.396 212.977 159.396 212.977C123.397 212.977 94.213 219.873 94.213 228.38C94.213 236.888 123.397 243.784 159.396 243.784Z" fill="#C6D7F4"/>
<path opacity="0.4146" d="M160 243.784C195 243.784 223.373 236.888 223.373 228.38C223.373 219.873 195 212.977 160 212.977C125 212.977 96.6272 219.873 96.6272 228.38C96.6272 236.888 125 243.784 160 243.784Z" fill="#C2D4F3"/>
<path opacity="0.439" d="M160 241.972C193.666 241.972 220.959 235.481 220.959 227.474C220.959 219.467 193.666 212.977 160 212.977C126.333 212.977 99.0414 219.467 99.0414 227.474C99.0414 235.481 126.333 241.972 160 241.972Z" fill="#BED2F3"/>
<path opacity="0.4634" d="M160 243.784C192.333 243.784 218.544 237.293 218.544 229.287C218.544 221.28 192.333 214.789 160 214.789C127.667 214.789 101.456 221.28 101.456 229.287C101.456 237.293 127.667 243.784 160 243.784Z" fill="#BBCFF2"/>
<path opacity="0.4878" d="M160 241.972C191 241.972 216.13 235.887 216.13 228.381C216.13 220.874 191 214.789 160 214.789C129 214.789 103.87 220.874 103.87 228.381C103.87 235.887 129 241.972 160 241.972Z" fill="#B7CDF1"/>
<path opacity="0.5122" d="M213.716 227.474C213.716 234.476 189.662 240.16 160 240.16C130.338 240.16 106.284 234.476 106.284 227.474C106.284 220.473 130.338 214.789 160 214.789C189.674 214.807 213.716 220.473 213.716 227.474Z" fill="#B4CAF1"/>
<path opacity="0.5366" d="M160.603 241.972C189.27 241.972 212.509 236.292 212.509 229.286C212.509 222.281 189.27 216.601 160.603 216.601C131.937 216.601 108.698 222.281 108.698 229.286C108.698 236.292 131.937 241.972 160.603 241.972Z" fill="#B0C8F0"/>
<path opacity="0.561" d="M210.095 228.38C210.095 234.884 187.941 240.16 160.604 240.16C133.266 240.16 111.112 234.884 111.112 228.38C111.112 221.877 133.266 216.601 160.604 216.601C187.929 216.601 210.095 221.877 210.095 228.38Z" fill="#ADC5EF"/>
<path opacity="0.5854" d="M206.473 227.474C206.473 233.487 185.393 238.348 159.396 238.348C133.4 238.348 112.319 233.47 112.319 227.474C112.319 221.461 133.4 216.601 159.396 216.601C185.393 216.601 206.473 221.479 206.473 227.474Z" fill="#A9C3EF"/>
<path opacity="0.6098" d="M204.059 229.286C204.059 235.281 184.065 240.159 159.396 240.159C134.728 240.159 114.734 235.3 114.734 229.286C114.734 223.291 134.728 218.413 159.396 218.413C184.065 218.431 204.059 223.291 204.059 229.286Z" fill="#A5C0EE"/>
<path opacity="0.6341" d="M160 238.347C183.667 238.347 202.852 233.884 202.852 228.38C202.852 222.875 183.667 218.413 160 218.413C136.333 218.413 117.148 222.875 117.148 228.38C117.148 233.884 136.333 238.347 160 238.347Z" fill="#A2BEED"/>
<path opacity="0.6585" d="M200.438 228.38C200.438 233.896 182.335 238.347 159.994 238.347C137.665 238.366 119.562 233.896 119.562 228.38C119.562 222.864 137.665 218.413 160.006 218.413C182.335 218.413 200.438 222.883 200.438 228.38Z" fill="#9EBBED"/>
<path opacity="0.6829" d="M160 236.535C181 236.535 198.024 232.478 198.024 227.474C198.024 222.469 181 218.413 160 218.413C139 218.413 121.976 222.469 121.976 227.474C121.976 232.478 139 236.535 160 236.535Z" fill="#9BB9EC"/>
<path opacity="0.7073" d="M195.61 228.381C195.61 232.888 179.668 236.535 160 236.535C140.332 236.535 124.391 232.888 124.391 228.381C124.391 223.873 140.332 220.226 160 220.226C179.668 220.243 195.61 223.891 195.61 228.381Z" fill="#97B6EB"/>
<path opacity="0.7317" d="M193.195 228.381C193.195 232.88 178.339 236.535 160 236.535C141.673 236.535 126.805 232.88 126.805 228.381C126.805 223.881 141.661 220.226 160 220.226C178.339 220.226 193.195 223.881 193.195 228.381Z" fill="#93B4EB"/>
<path opacity="0.7561" d="M160.603 234.723C177.937 234.723 191.988 231.478 191.988 227.474C191.988 223.471 177.937 220.226 160.603 220.226C143.27 220.226 129.219 223.471 129.219 227.474C129.219 231.478 143.27 234.723 160.603 234.723Z" fill="#90B1EA"/>
<path opacity="0.7805" d="M189.574 229.286C189.574 233.277 176.607 236.535 160.604 236.535C144.601 236.535 131.633 233.296 131.633 229.286C131.633 225.296 144.601 222.038 160.604 222.038C176.594 222.057 189.574 225.296 189.574 229.286Z" fill="#8CAFE9"/>
<path opacity="0.8049" d="M159.397 234.723C174.063 234.723 185.953 231.883 185.953 228.38C185.953 224.877 174.063 222.038 159.397 222.038C144.73 222.038 132.84 224.877 132.84 228.38C132.84 231.883 144.73 234.723 159.397 234.723Z" fill="#89ACE8"/>
<path opacity="0.8293" d="M183.539 227.474C183.539 230.485 172.73 232.911 159.397 232.911C146.063 232.911 135.255 230.468 135.255 227.474C135.255 224.463 146.063 222.038 159.397 222.038C172.73 222.038 183.539 224.481 183.539 227.474Z" fill="#85AAE8"/>
<path opacity="0.8537" d="M159.396 234.723C171.396 234.723 181.124 232.289 181.124 229.286C181.124 226.284 171.396 223.85 159.396 223.85C147.396 223.85 137.669 226.284 137.669 229.286C137.669 232.289 147.396 234.723 159.396 234.723Z" fill="#82A7E7"/>
<path opacity="0.878" d="M179.917 228.38C179.917 230.883 171 232.911 159.994 232.911C149 232.911 140.083 230.883 140.083 228.38C140.083 225.877 149 223.85 160.006 223.85C171 223.867 179.917 225.894 179.917 228.38Z" fill="#7EA5E6"/>
<path opacity="0.9024" d="M160 232.911C169.667 232.911 177.503 230.882 177.503 228.38C177.503 225.878 169.667 223.85 160 223.85C150.333 223.85 142.497 225.878 142.497 228.38C142.497 230.882 150.333 232.911 160 232.911Z" fill="#7AA2E6"/>
<path opacity="0.9268" d="M160 231.098C168.333 231.098 175.089 229.476 175.089 227.474C175.089 225.472 168.333 223.85 160 223.85C151.667 223.85 144.911 225.472 144.911 227.474C144.911 229.476 151.667 231.098 160 231.098Z" fill="#77A0E5"/>
<path opacity="0.9512" d="M172.674 228.38C172.674 229.878 167.004 231.099 160 231.099C152.996 231.099 147.325 229.878 147.325 228.38C147.325 226.883 152.996 225.662 160 225.662C167.004 225.662 172.674 226.883 172.674 228.38Z" fill="#739DE4"/>
<path opacity="0.9756" d="M171.467 228.38C171.467 229.877 166.6 231.099 160.604 231.099C154.607 231.099 149.74 229.877 149.74 228.38C149.74 226.883 154.607 225.662 160.604 225.662C166.6 225.682 171.467 226.883 171.467 228.38Z" fill="#709BE4"/>
<path opacity="0.5" d="M169.053 227.474C169.053 228.481 165.272 229.286 160.604 229.286C155.935 229.286 152.154 228.481 152.154 227.474C152.154 226.468 155.935 225.662 160.604 225.662C165.26 225.662 169.053 226.484 169.053 227.474Z" fill="#6C98E3"/>
</g>
<path d="M175.029 124.178C174.816 124.178 174.637 123.994 174.637 123.772V97.0131C174.637 82.4511 163.213 70.6056 149.168 70.6056C135.123 70.6056 123.699 82.4511 123.699 97.0131V123.772C123.699 123.994 123.521 124.178 123.307 124.178H121.578C121.364 124.178 121.186 123.994 121.186 123.772V97.0131C121.186 81.0097 133.733 68 149.168 68C164.603 68 177.15 81.0097 177.15 97.0131V123.772C177.15 123.994 176.972 124.178 176.758 124.178H175.029Z" fill="#6C98E3"/>
<path d="M126.602 229.286H92.3009V105.128C92.3009 103.634 93.5044 102.432 94.9997 102.432H126.584V229.286H126.602Z" fill="url(#paint0_linear_1359_5892)"/>
<path d="M124.797 229.286H218.697C219.678 229.286 220.478 228.484 220.478 227.5V104.199C220.478 103.233 219.696 102.432 218.715 102.432H124.797V229.286Z" fill="url(#paint1_linear_1359_5892)"/>
<path d="M108.549 229.286H92.3009V104.217C92.3009 103.233 93.0614 102.432 93.9948 102.432H108.549V229.286Z" fill="url(#paint2_linear_1359_5892)"/>
<path d="M126.602 229.286H92.3009L109.46 209.352L126.602 229.286Z" fill="url(#paint3_linear_1359_5892)"/>
<path d="M153.682 123.272C153.682 126.774 150.852 129.615 147.363 129.615C143.874 129.615 141.044 126.774 141.044 123.272C141.044 119.77 143.874 116.93 147.363 116.93C150.852 116.93 153.682 119.77 153.682 123.272Z" fill="#89ADE9"/>
<path d="M207.841 123.272C207.841 126.774 205.011 129.615 201.522 129.615C198.033 129.615 195.204 126.774 195.204 123.272C195.204 119.77 198.033 116.93 201.522 116.93C205.011 116.93 207.841 119.77 207.841 123.272Z" fill="#89ADE9"/>
<path d="M200.304 124.178C200.09 124.178 199.912 123.994 199.912 123.772V97.0131C199.912 82.4511 188.487 70.6056 174.443 70.6056C160.398 70.6056 148.973 82.4511 148.973 97.0131V123.772C148.973 123.994 148.795 124.178 148.581 124.178H146.852C146.638 124.178 146.46 123.994 146.46 123.772V97.0131C146.46 81.0097 159.008 68 174.443 68C189.877 68 202.425 81.0097 202.425 97.0131V123.772C202.425 123.994 202.247 124.178 202.033 124.178H200.304Z" fill="#6C98E3"/>
</g>
<defs>
<linearGradient id="paint0_linear_1359_5892" x1="92.3046" y1="165.864" x2="126.597" y2="165.864" gradientUnits="userSpaceOnUse">
<stop stop-color="#E3EDFE"/>
<stop offset="1" stop-color="#B3CDFA"/>
</linearGradient>
<linearGradient id="paint1_linear_1359_5892" x1="124.794" y1="165.864" x2="220.484" y2="165.864" gradientUnits="userSpaceOnUse">
<stop stop-color="#E3EDFE"/>
<stop offset="1" stop-color="#B3CDFA"/>
</linearGradient>
<linearGradient id="paint2_linear_1359_5892" x1="92.2871" y1="165.864" x2="108.54" y2="165.864" gradientUnits="userSpaceOnUse">
<stop stop-color="#E3EDFE"/>
<stop offset="1" stop-color="#B3CDFA"/>
</linearGradient>
<linearGradient id="paint3_linear_1359_5892" x1="92.3046" y1="219.322" x2="126.597" y2="219.322" gradientUnits="userSpaceOnUse">
<stop stop-color="#E3EDFE"/>
<stop offset="1" stop-color="#B3CDFA"/>
</linearGradient>
</defs>
</svg>
