<svg width="148" height="148" viewBox="0 0 148 148" fill="none" xmlns="http://www.w3.org/2000/svg">
    <rect x="19" y="25" width="110" height="98" rx="6" fill="#E8F2F9"/>
    <rect width="148" height="148" rx="6" fill="white"/>
    <path opacity="0.7" d="M19 31C19 27.6863 21.6863 25 25 25H123C126.314 25 129 27.6863 129 31V117C129 120.314 126.314 123 123 123H25C21.6863 123 19 120.314 19 117V31Z" fill="#BEDFF7"/>
    <path d="M70.5 29.4434C72.047 28.5502 73.953 28.5502 75.5 29.4434L110.337 49.5566C111.884 50.4498 112.837 52.1004 112.837 53.8868V94.1132C112.837 95.8996 111.884 97.5502 110.337 98.4434L75.5 118.557C73.953 119.45 72.047 119.45 70.5 118.557L35.6628 98.4434C34.1158 97.5502 33.1628 95.8996 33.1628 94.1133V53.8867C33.1628 52.1004 34.1158 50.4498 35.6628 49.5566L70.5 29.4434Z" fill="#ADDCFD"/>
    <rect x="50" y="74" width="13" height="10" rx="2" fill="#8CBFF0"/>
    <path d="M55.2203 76.6364H54.4681L53.3836 77.3331V78.0575L54.4042 77.4055H54.4298V81H55.2203V76.6364ZM57.9411 81.0831C58.9937 81.0852 59.6222 80.2543 59.6222 78.8224C59.6222 77.3991 58.9894 76.5767 57.9411 76.5767C56.8928 76.5767 56.2622 77.397 56.26 78.8224C56.26 80.2521 56.8886 81.0831 57.9411 81.0831ZM57.9411 80.4162C57.3978 80.4162 57.0569 79.8707 57.059 78.8224C57.0612 77.7827 57.3999 77.2351 57.9411 77.2351C58.4845 77.2351 58.8232 77.7827 58.8254 78.8224C58.8254 79.8707 58.4866 80.4162 57.9411 80.4162Z" fill="white"/>
    <rect x="66" y="74" width="13" height="10" rx="2" fill="#8CBFF0"/>
    <path d="M69.588 81H72.5795V80.3395H70.6789V80.3097L71.431 79.5447C72.279 78.7308 72.5134 78.3345 72.5134 77.8423C72.5134 77.1115 71.9189 76.5767 71.0411 76.5767C70.176 76.5767 69.5624 77.1136 69.5624 77.9425H70.3145C70.3145 77.4972 70.5958 77.218 71.0305 77.218C71.4459 77.218 71.7549 77.4716 71.7549 77.8828C71.7549 78.2472 71.5333 78.5071 71.1029 78.9439L69.588 80.429V81ZM74.8657 81.0597C75.8096 81.0597 76.485 80.5398 76.4871 79.8303C76.485 79.2848 76.0823 78.8288 75.5752 78.7436V78.7138C76.0162 78.6158 76.3231 78.2195 76.3252 77.7464C76.3231 77.0753 75.7052 76.5767 74.8657 76.5767C74.0198 76.5767 73.4019 77.0732 73.404 77.7464C73.4019 78.2195 73.7045 78.6158 74.154 78.7138V78.7436C73.6384 78.8288 73.24 79.2848 73.2421 79.8303C73.24 80.5398 73.9133 81.0597 74.8657 81.0597ZM74.8657 80.4503C74.3714 80.4503 74.0518 80.1776 74.056 79.7749C74.0518 79.3572 74.3948 79.0611 74.8657 79.0611C75.3302 79.0611 75.6711 79.3594 75.6753 79.7749C75.6711 80.1776 75.3536 80.4503 74.8657 80.4503ZM74.8657 78.4624C74.4608 78.4624 74.1711 78.2003 74.1753 77.821C74.1711 77.446 74.4523 77.1946 74.8657 77.1946C75.2726 77.1946 75.5518 77.446 75.556 77.821C75.5518 78.2024 75.2641 78.4624 74.8657 78.4624Z" fill="white"/>
    <rect x="82" y="74" width="13" height="10" rx="2" fill="#8CBFF0"/>
    <path d="M87.0611 81.0597C87.9837 81.0597 88.6271 80.4332 88.6271 79.5661C88.6271 78.7266 88.0433 78.1214 87.2507 78.1214C86.897 78.1214 86.5838 78.2621 86.4219 78.4538H86.3963L86.522 77.2969H88.3991V76.6364H85.8679L85.6399 78.8864L86.3537 79.0036C86.5007 78.8416 86.7777 78.733 87.0398 78.7351C87.5192 78.7372 87.8643 79.0909 87.8622 79.5852C87.8643 80.0732 87.5277 80.4205 87.0611 80.4205C86.6669 80.4205 86.3494 80.1712 86.3217 79.8132H85.5547C85.576 80.5376 86.2088 81.0597 87.0611 81.0597ZM90.8558 76.5767C89.9098 76.5703 89.2812 77.2202 89.2812 78.0724C89.2834 78.8949 89.8693 79.4893 90.6342 79.4893C91.1051 79.4893 91.5142 79.2614 91.7251 78.8864H91.755C91.7528 79.8196 91.4141 80.3757 90.8111 80.3757C90.4339 80.3757 90.1804 80.1584 90.1016 79.8111H89.3239C89.4134 80.5334 89.9844 81.0597 90.8111 81.0597C91.8572 81.0597 92.5241 80.1861 92.522 78.6839C92.5199 77.0945 91.6932 76.581 90.8558 76.5767ZM90.858 77.2159C91.3246 77.2159 91.6676 77.6037 91.6676 78.049C91.6697 78.5007 91.3097 78.8885 90.8494 78.8885C90.3849 78.8885 90.0504 78.522 90.0483 78.0554C90.0483 77.5866 90.3956 77.2159 90.858 77.2159Z" fill="white"/>
    <path opacity="0.499" fill-rule="evenodd" clip-rule="evenodd" d="M50 47H95V55H50V47Z" fill="#58A8F7"/>
    <path opacity="0.2" fill-rule="evenodd" clip-rule="evenodd" d="M55 60H90V63H55V60Z" fill="#58A8F7"/>
    <path opacity="0.2" fill-rule="evenodd" clip-rule="evenodd" d="M55 65H90V68H55V65Z" fill="#58A8F7"/>
    <path opacity="0.499" d="M94.011 89H50.989C50.4428 89 50 89.8954 50 91V98C50 99.1046 50.4428 100 50.989 100H94.011C94.5572 100 95 99.1046 95 98V91C95 89.8954 94.5572 89 94.011 89Z" fill="#58A8F7"/>
    <path d="M93.5169 90H51.4831C51.2163 90 51 90.4477 51 91V98C51 98.5523 51.2163 99 51.4831 99H93.5169C93.7837 99 94 98.5523 94 98V91C94 90.4477 93.7837 90 93.5169 90Z" fill="white"/>
</svg>
