<svg width="40" height="40" viewBox="0 0 40 40" fill="none" xmlns="http://www.w3.org/2000/svg">
<g clip-path="url(#clip0)">
<path d="M30.2898 5.67011C30.7198 5.67011 31.0698 5.32011 31.0698 4.89011C31.0698 4.46011 30.7198 4.11011 30.2898 4.11011C29.8598 4.11011 29.5098 4.46011 29.5098 4.89011C29.5098 5.32011 29.8598 5.67011 30.2898 5.67011Z" fill="#555770"/>
<path d="M34.5105 5.67011C34.9405 5.67011 35.2905 5.32011 35.2905 4.89011C35.2905 4.46011 34.9405 4.11011 34.5105 4.11011C34.0805 4.11011 33.7305 4.46011 33.7305 4.89011C33.7305 5.32011 34.0805 5.67011 34.5105 5.67011Z" fill="#555770"/>
<path d="M26.0798 5.67011C26.5098 5.67011 26.8598 5.32011 26.8598 4.89011C26.8598 4.46011 26.5098 4.11011 26.0798 4.11011C25.6498 4.11011 25.2998 4.46011 25.2998 4.89011C25.2998 5.32011 25.6398 5.67011 26.0798 5.67011Z" fill="#555770"/>
<path d="M5.48996 5.67011H17.23C17.66 5.67011 18.01 5.32011 18.01 4.89011C18.01 4.46011 17.66 4.11011 17.23 4.11011H5.48996C5.05996 4.11011 4.70996 4.46011 4.70996 4.89011C4.70996 5.32011 5.05996 5.67011 5.48996 5.67011Z" fill="#555770"/>
<path d="M37.49 0H2.51C1.12 0 0 1.12 0 2.5V37.49C0 38.88 1.12 40 2.51 40H37.5C38.88 40 40.01 38.88 40.01 37.49V2.5C40 1.12 38.88 0 37.49 0ZM2.51 1.56H37.5C38.02 1.56 38.45 1.98 38.45 2.5V8.22H1.56V2.5C1.56 1.98 1.99 1.56 2.51 1.56ZM37.49 38.44H2.51C1.99 38.44 1.57 38.02 1.57 37.5V9.78H38.45V37.49C38.44 38.01 38.01 38.44 37.49 38.44Z" fill="#555770"/>
<path d="M18.9805 13.6001H20.8805V16.4501H18.9805V13.6001Z" fill="#555770"/>
<path d="M18.9805 31.6699H20.8805V34.5199H18.9805V31.6699Z" fill="#555770"/>
<path d="M27.5303 23.1201H30.3803V25.0201H27.5303V23.1201Z" fill="#555770"/>
<path d="M9.45996 23.1201H12.31V25.0201H9.45996V23.1201Z" fill="#555770"/>
<path d="M19.9198 35.4699C13.6198 35.4699 8.50977 30.3599 8.50977 24.0599C8.50977 17.7599 13.6198 12.6499 19.9198 12.6499C26.2198 12.6499 31.3298 17.7599 31.3298 24.0599V25.0599H29.4398V24.0599C29.4498 18.7999 25.1898 14.5299 19.9298 14.5299C14.6698 14.5299 10.3998 18.7799 10.3998 24.0399C10.3898 29.2999 14.6498 33.5699 19.9098 33.5699C22.6898 33.5699 25.3398 32.3599 27.1498 30.2399L28.5898 31.4899C26.4198 34.0199 23.2498 35.4699 19.9198 35.4699Z" fill="#555770"/>
<path d="M19.9203 28.8101H17.0703V26.9101H19.9203C20.4303 27.1101 21.0103 26.8601 21.2103 26.3501C21.4103 25.8401 21.1603 25.2601 20.6503 25.0601C20.4103 24.9701 20.1503 24.9701 19.9203 25.0601H18.0203V23.1701H19.9203C20.4503 23.3301 21.0003 23.0401 21.1703 22.5101C21.3303 21.9801 21.0403 21.4301 20.5103 21.2601C20.3203 21.2001 20.1103 21.2001 19.9203 21.2601H17.0703V19.3101H19.9203C21.4903 19.3101 22.7703 20.5801 22.7703 22.1601C22.7703 22.8601 22.5103 23.5401 22.0403 24.0601C23.0903 25.2301 22.9903 27.0301 21.8203 28.0801C21.3003 28.5601 20.6203 28.8101 19.9203 28.8101Z" fill="#555770"/>
</g>
<defs>
<clipPath id="clip0">
<rect width="40" height="40" fill="white"/>
</clipPath>
</defs>
</svg>
