<svg width="148" height="148" viewBox="0 0 148 148" fill="none" xmlns="http://www.w3.org/2000/svg">
    <rect width="148" height="148" rx="6" fill="white"/>
    <rect x="19" y="25" width="110" height="98" rx="6" fill="#E8F2F9"/>
    <path d="M19 31C19 27.6863 21.6863 25 25 25H123C126.314 25 129 27.6863 129 31V117C129 120.314 126.314 123 123 123H25C21.6863 123 19 120.314 19 117V31Z" fill="#E8F2F9"/>
    <path opacity="0.8" d="M69 25H25C21.6863 25 19 27.6863 19 31V117C19 120.314 21.6863 123 25 123H69V25Z" fill="url(#paint0_linear)"/>
    <rect x="78" y="40" width="13" height="10" rx="2" fill="#8CBFF0"/>
    <path d="M83.2203 42.6364H82.4681L81.3836 43.3331V44.0575L82.4042 43.4055H82.4298V47H83.2203V42.6364ZM85.9411 47.0831C86.9937 47.0852 87.6222 46.2543 87.6222 44.8224C87.6222 43.3991 86.9894 42.5767 85.9411 42.5767C84.8928 42.5767 84.2622 43.397 84.26 44.8224C84.26 46.2521 84.8886 47.0831 85.9411 47.0831ZM85.9411 46.4162C85.3978 46.4162 85.0569 45.8707 85.059 44.8224C85.0612 43.7827 85.3999 43.2351 85.9411 43.2351C86.4845 43.2351 86.8232 43.7827 86.8254 44.8224C86.8254 45.8707 86.4866 46.4162 85.9411 46.4162Z" fill="white"/>
    <rect x="94" y="40" width="13" height="10" rx="2" fill="#8CBFF0"/>
    <path d="M97.588 47H100.579V46.3395H98.6789V46.3097L99.431 45.5447C100.279 44.7308 100.513 44.3345 100.513 43.8423C100.513 43.1115 99.9189 42.5767 99.0411 42.5767C98.176 42.5767 97.5624 43.1136 97.5624 43.9425H98.3145C98.3145 43.4972 98.5958 43.218 99.0305 43.218C99.4459 43.218 99.7549 43.4716 99.7549 43.8828C99.7549 44.2472 99.5333 44.5071 99.1029 44.9439L97.588 46.429V47ZM102.866 47.0597C103.81 47.0597 104.485 46.5398 104.487 45.8303C104.485 45.2848 104.082 44.8288 103.575 44.7436V44.7138C104.016 44.6158 104.323 44.2195 104.325 43.7464C104.323 43.0753 103.705 42.5767 102.866 42.5767C102.02 42.5767 101.402 43.0732 101.404 43.7464C101.402 44.2195 101.704 44.6158 102.154 44.7138V44.7436C101.638 44.8288 101.24 45.2848 101.242 45.8303C101.24 46.5398 101.913 47.0597 102.866 47.0597ZM102.866 46.4503C102.371 46.4503 102.052 46.1776 102.056 45.7749C102.052 45.3572 102.395 45.0611 102.866 45.0611C103.33 45.0611 103.671 45.3594 103.675 45.7749C103.671 46.1776 103.354 46.4503 102.866 46.4503ZM102.866 44.4624C102.461 44.4624 102.171 44.2003 102.175 43.821C102.171 43.446 102.452 43.1946 102.866 43.1946C103.273 43.1946 103.552 43.446 103.556 43.821C103.552 44.2024 103.264 44.4624 102.866 44.4624Z" fill="white"/>
    <rect x="110" y="40" width="13" height="10" rx="2" fill="#8CBFF0"/>
    <path d="M115.061 47.0597C115.984 47.0597 116.627 46.4332 116.627 45.5661C116.627 44.7266 116.043 44.1214 115.251 44.1214C114.897 44.1214 114.584 44.2621 114.422 44.4538H114.396L114.522 43.2969H116.399V42.6364H113.868L113.64 44.8864L114.354 45.0036C114.501 44.8416 114.778 44.733 115.04 44.7351C115.519 44.7372 115.864 45.0909 115.862 45.5852C115.864 46.0732 115.528 46.4205 115.061 46.4205C114.667 46.4205 114.349 46.1712 114.322 45.8132H113.555C113.576 46.5376 114.209 47.0597 115.061 47.0597ZM118.856 42.5767C117.91 42.5703 117.281 43.2202 117.281 44.0724C117.283 44.8949 117.869 45.4893 118.634 45.4893C119.105 45.4893 119.514 45.2614 119.725 44.8864H119.755C119.753 45.8196 119.414 46.3757 118.811 46.3757C118.434 46.3757 118.18 46.1584 118.102 45.8111H117.324C117.413 46.5334 117.984 47.0597 118.811 47.0597C119.857 47.0597 120.524 46.1861 120.522 44.6839C120.52 43.0945 119.693 42.581 118.856 42.5767ZM118.858 43.2159C119.325 43.2159 119.668 43.6037 119.668 44.049C119.67 44.5007 119.31 44.8885 118.849 44.8885C118.385 44.8885 118.05 44.522 118.048 44.0554C118.048 43.5866 118.396 43.2159 118.858 43.2159Z" fill="white"/>
    <path opacity="0.499" fill-rule="evenodd" clip-rule="evenodd" d="M78 59H123V67H78V59Z" fill="#58A8F7"/>
    <path opacity="0.2" fill-rule="evenodd" clip-rule="evenodd" d="M78 73H91V76H78V73Z" fill="#58A8F7"/>
    <path opacity="0.2" fill-rule="evenodd" clip-rule="evenodd" d="M96 73H109V76H96V73Z" fill="#58A8F7"/>
    <path opacity="0.499" d="M122.011 96H78.989C78.4428 96 78 96.8954 78 98V105C78 106.105 78.4428 107 78.989 107H122.011C122.557 107 123 106.105 123 105V98C123 96.8954 122.557 96 122.011 96Z" fill="#58A8F7"/>
    <path d="M121.517 97H79.4831C79.2163 97 79 97.4477 79 98V105C79 105.552 79.2163 106 79.4831 106H121.517C121.784 106 122 105.552 122 105V98C122 97.4477 121.784 97 121.517 97Z" fill="white"/>
    <path d="M67.5714 56H20.4286C19.6396 56 19 56.6396 19 57.4286V85.2857C19 86.0747 19.6396 86.7143 20.4286 86.7143H67.5714C68.3604 86.7143 69 86.0747 69 85.2857V57.4286C69 56.6396 68.3604 56 67.5714 56Z" fill="#A0CDF8"/>
    <mask id="mask0" mask-type="alpha" maskUnits="userSpaceOnUse" x="19" y="56" width="50" height="31">
        <path d="M67.5714 56H20.4286C19.6396 56 19 56.6396 19 57.4286V85.2857C19 86.0747 19.6396 86.7143 20.4286 86.7143H67.5714C68.3604 86.7143 69 86.0747 69 85.2857V57.4286C69 56.6396 68.3604 56 67.5714 56Z" fill="white"/>
    </mask>
    <g mask="url(#mask0)">
        <path opacity="0.197" fill-rule="evenodd" clip-rule="evenodd" d="M59 70.626C67.5502 70.626 72.0976 77.4952 80.4286 86.7144H36.1429C43.3776 79.1221 50.4498 70.626 59 70.626Z" fill="#58A8F7"/>
        <path opacity="0.198" fill-rule="evenodd" clip-rule="evenodd" d="M30.4286 67.7007C39.5641 67.7007 45.832 76.7669 54 86.7143H7.57141C15.4612 76.7669 21.293 67.7007 30.4286 67.7007Z" fill="#0D87FF"/>
        <path opacity="0.499" d="M46.1428 67.6155C48.1153 67.6155 49.7143 66.0165 49.7143 64.0441C49.7143 62.0716 48.1153 60.4727 46.1428 60.4727C44.1704 60.4727 42.5714 62.0716 42.5714 64.0441C42.5714 66.0165 44.1704 67.6155 46.1428 67.6155Z" fill="#58A8F7"/>
    </g>
    <path opacity="0.197" fill-rule="evenodd" clip-rule="evenodd" d="M78 89H114V92H78V89Z" fill="#58A8F7"/>
    <defs>
        <linearGradient id="paint0_linear" x1="69" y1="70" x2="19" y2="70.5" gradientUnits="userSpaceOnUse">
            <stop stop-color="#E8F2F9"/>
            <stop offset="1" stop-color="#A0CDF8"/>
        </linearGradient>
    </defs>
</svg>