<svg width="65" height="65" viewBox="0 0 65 65" fill="none" xmlns="http://www.w3.org/2000/svg">
<g clip-path="url(#clip0_2183_17074)">
<path d="M5.72117 62.3025L3.27271 63.21C1.73785 63.774 0.239538 62.2657 0.795822 60.7165L17.4803 15.1689C17.4803 16.4483 18.4345 18.5412 20.1074 21.1245L5.60748 60.7165C5.40445 61.2806 5.46942 61.8447 5.72117 62.3025Z" fill="#D3EAF8"/>
<path d="M43.7353 48.1923L10.5491 34.0698L7.60526 42.1346L32.033 52.5251V52.5374L43.7353 48.1923Z" fill="#FBDB74"/>
<path d="M20.3226 56.8863L4.64517 50.2031L1.68509 58.2679L8.61631 61.2191L20.3226 56.8863Z" fill="#FBDB74"/>
<path d="M61.4187 20.5235L60.7447 21.8397C60.4523 22.416 59.6158 22.273 59.5143 21.6476L59.2869 20.176C59.2342 19.894 59.019 19.6774 58.7428 19.6283L57.2973 19.3994C56.6761 19.2972 56.534 18.4552 57.1065 18.1609L58.4139 17.4823C58.6698 17.3556 58.8078 17.0736 58.7713 16.7916L58.5439 15.3364C58.4424 14.711 59.2057 14.3145 59.6605 14.76L60.7 15.8065C60.903 16.0108 61.2075 16.064 61.4634 15.9209L62.7708 15.2424C63.3433 14.9481 63.9402 15.5612 63.6601 16.1253L62.986 17.4415C62.8602 17.699 62.9089 18.0056 63.1119 18.2099L64.1514 19.2563C64.594 19.7019 64.2163 20.4703 63.5789 20.3804L62.1333 20.1515C61.8247 20.127 61.5608 20.2823 61.4187 20.5235Z" fill="#EF9070"/>
<path d="M29.6536 11.4L29.0933 12.5118C28.8537 12.9859 28.1391 12.8837 28.066 12.3442L27.8751 11.1179C27.8386 10.8768 27.6599 10.6969 27.4163 10.656L26.2103 10.4639C25.6906 10.374 25.5769 9.67093 26.0439 9.42976L27.1361 8.86568C27.3513 8.75123 27.465 8.52233 27.4285 8.28934L27.2376 7.06307C27.1483 6.53987 27.798 6.20877 28.1634 6.58892L29.0283 7.45956C29.1948 7.62715 29.4587 7.66394 29.6617 7.56175L30.754 6.99767C31.225 6.75651 31.7326 7.26745 31.489 7.73752L30.9286 8.84933C30.8271 9.06597 30.8636 9.32349 31.0301 9.48699L31.9072 10.3699C32.2889 10.7541 31.96 11.3918 31.4362 11.3019L30.218 11.1097C29.9988 11.0648 29.7673 11.1833 29.6536 11.4Z" fill="#EF9070"/>
<path d="M46.6913 8.31793L46.131 9.42975C45.8914 9.9039 45.1768 9.80172 45.1037 9.26216L44.9129 8.03589C44.8763 7.79473 44.6976 7.61488 44.454 7.574L43.2481 7.38188C42.7283 7.29196 42.6146 6.5889 43.0816 6.34773L44.1738 5.78365C44.3891 5.6692 44.5027 5.4403 44.4662 5.20731L44.2754 3.98104C44.186 3.45783 44.8357 3.12674 45.2011 3.50688L46.066 4.37753C46.2325 4.54512 46.4964 4.58191 46.6995 4.47972L47.7917 3.91564C48.2627 3.67447 48.7703 4.18542 48.5267 4.65549L47.9663 5.7673C47.8648 5.98394 47.9014 6.24146 48.0678 6.40496L48.9449 7.28787C49.3266 7.6721 48.9977 8.30976 48.4739 8.21983L47.2557 8.02772C47.0365 7.98684 46.805 8.10129 46.6913 8.31793Z" fill="#EF9070"/>
<path d="M53.7119 36.575C52.7983 37.4947 51.3122 37.4947 50.3986 36.575C49.485 35.6553 49.485 34.1593 50.3986 33.2396C51.3122 32.3199 52.7983 32.3199 53.7119 33.2396C54.6255 34.1593 54.6255 35.6431 53.7119 36.575Z" fill="#FBDB74"/>
<path d="M45.664 25.8167C44.7504 26.7364 43.2643 26.7364 42.3507 25.8167C41.4371 24.897 41.4371 23.401 42.3507 22.4813C43.2643 21.5616 44.7504 21.5616 45.664 22.4813C46.5776 23.4132 46.5776 24.8929 45.664 25.8167Z" fill="#FBDB74"/>
<path d="M35.0013 24.9706C35.2571 24.7008 35.2408 24.2676 34.9769 24.01C33.9983 23.0903 32.971 22.1584 31.9315 21.2387C31.6514 20.9975 31.221 21.022 30.9773 21.3041C30.7378 21.5861 30.7621 22.0194 31.0423 22.2647C32.0818 23.1721 33.101 24.0918 34.0511 25.0115C34.315 25.2649 34.7455 25.2527 35.0013 24.9706Z" fill="#4B688C"/>
<path d="M43.784 34.4946C43.4917 34.7235 43.4429 35.1609 43.6703 35.4552C48.6363 41.7541 49.5743 45.0282 49.0017 45.6046C48.6728 45.9356 46.9715 45.8621 42.907 43.1643C39.3419 40.7935 35.0621 37.1515 30.8596 32.9209C26.657 28.6903 23.0391 24.382 20.6921 20.7931C18.0122 16.7015 17.9391 14.9888 18.268 14.6577C18.7878 14.1468 21.4799 14.8253 26.7869 18.8107C27.0914 19.0396 27.5097 18.9782 27.7411 18.6717C27.9685 18.3651 27.9076 17.9441 27.6031 17.7111C25.3414 16.0107 19.3116 11.6901 17.3179 13.6849C16.1485 14.8621 16.8875 17.4291 19.5633 21.533C21.9631 25.1995 25.6459 29.5854 29.9094 33.8774C34.7211 38.7211 41.7944 44.7543 46.3015 46.5447L43.8125 47.4644L11.4099 33.6893L13.899 26.904L23.5345 31.0202C23.9771 31.2777 24.5374 30.9425 24.5374 30.4193C24.5374 30.1373 24.3587 29.8961 24.1192 29.7816L14.37 25.6246L16.5789 19.5914C16.7048 19.2317 16.5261 18.8515 16.1728 18.7207C15.8155 18.594 15.4379 18.7739 15.308 19.1295C11.8038 28.6903 3.66658 50.9143 0.162396 60.4873C-0.194926 61.4602 0.0487026 62.5066 0.771466 63.2464C1.49423 63.974 2.54995 64.207 3.5001 63.8473L48.888 47.0679C49.3184 47.0148 49.688 46.8513 49.9681 46.5692C51.9984 44.5254 47.5684 38.1979 44.7382 34.605C44.5068 34.3147 44.0764 34.2616 43.784 34.4946ZM41.9446 48.1674L20.3632 56.1545L5.51004 49.827L7.9991 43.0417L27.7411 51.4498C28.0984 51.6051 28.4882 51.4252 28.6304 51.09C28.7684 50.7467 28.6182 50.3502 28.273 50.1949L8.46606 41.7582L10.9551 34.9728L41.9446 48.1674ZM8.64472 60.4873L2.54995 57.8917L5.03902 51.1064L18.5076 56.8453L8.64472 60.4873ZM3.03315 62.5597C2.56213 62.7273 2.07894 62.6251 1.72568 62.2654C1.36836 61.9057 1.25466 61.4111 1.43332 60.9492L2.07894 59.1711L6.7769 61.1781L3.03315 62.5597Z" fill="#4B688C"/>
<path d="M38.3268 28.294C38.0588 28.5515 38.0466 28.9848 38.3024 29.2546C38.948 29.9454 39.5733 30.6076 40.1702 31.2861C40.426 31.5681 40.8443 31.5927 41.1244 31.3392C41.4046 31.0858 41.429 30.6607 41.1772 30.3787C40.5681 29.7001 39.9347 29.0093 39.285 28.3226C39.0252 28.0528 38.5907 28.0406 38.3268 28.294Z" fill="#4B688C"/>
<path d="M26.8478 21.1897C26.5433 21.4064 26.4661 21.8274 26.6813 22.1339C26.8966 22.4405 27.3148 22.5182 27.6193 22.3015C27.7574 22.1993 41.8391 12.0009 37.0396 0.420865C36.9016 0.0775108 36.5077 -0.0900789 36.1504 0.0488979C35.8093 0.187875 35.6428 0.59663 35.7809 0.944072C40.1784 11.5145 26.9899 21.0875 26.8478 21.1897Z" fill="#4B688C"/>
<path d="M61.7881 25.3179C50.2848 20.4865 40.154 34.6457 40.0524 34.8011C39.8372 35.1076 39.9144 35.5286 40.2189 35.7453C40.5235 35.9619 40.9417 35.8843 41.1569 35.5777C41.2462 35.4387 50.7558 22.146 61.2684 26.5687C61.6095 26.7077 62.0033 26.5565 62.1576 26.1968C62.2957 25.8534 62.1292 25.4569 61.7881 25.3179Z" fill="#4B688C"/>
<path d="M34.0227 29.8553C33.7303 30.0964 33.6938 30.5338 33.9334 30.8159C34.1729 31.1102 34.6074 31.1469 34.8876 30.9058C38.3917 27.9546 37.4254 21.7047 40.9295 19.6609C42.034 19.011 43.4064 18.9333 44.8641 18.8557C49.0545 18.6268 50.9711 17.8706 52.2014 13.08C52.5587 11.6984 52.8998 10.1655 53.8012 9.11912C54.5768 8.22395 56.0873 7.74979 56.9359 8.49373C57.2161 8.73489 57.6465 8.71037 57.8901 8.41606C58.1297 8.13402 58.0931 7.70074 57.813 7.45549C56.3147 6.16382 54.0042 6.81783 52.7861 8.22395C51.6938 9.49109 51.3122 11.1138 50.8939 12.7366C49.8544 16.7751 48.5713 17.2861 44.787 17.4904C43.2399 17.5804 41.6401 17.6703 40.2433 18.4755C36.0164 20.9444 37.1817 27.1943 34.0227 29.8553Z" fill="#4B688C"/>
<path d="M64.6061 18.8106L63.5788 17.7887L64.2407 16.4725C64.5087 15.9493 64.4071 15.3361 64.0011 14.9151C63.5829 14.4941 62.9738 14.4042 62.4541 14.674L61.1709 15.3525L60.1315 14.3061C59.7132 13.8851 59.1042 13.7951 58.5844 14.0649C58.0647 14.3347 57.7845 14.8824 57.8738 15.471L58.1134 16.9017L56.8059 17.5802C56.2862 17.85 56.006 18.3977 56.0954 18.9863C56.1847 19.5749 56.6273 20.0082 57.1998 20.0981L58.6331 20.3148L58.8605 21.7863C59.0636 23.078 60.7771 23.3437 61.3618 22.1828L62.0236 20.8789L63.457 21.1078C64.0417 21.1977 64.5858 20.9157 64.8538 20.3924C65.1137 19.8325 65.0243 19.2193 64.6061 18.8106ZM62.2185 19.5014C61.646 19.4114 61.0897 19.6935 60.8217 20.2167L60.1883 21.5451L59.9609 20.0736C59.8716 19.4973 59.429 19.0517 58.8565 18.9618L57.4231 18.7697L58.7306 18.0912C59.2503 17.8214 59.5305 17.2614 59.4412 16.685L59.161 15.2544L60.2005 16.3008C60.6065 16.7096 61.2278 16.8118 61.7475 16.542L63.0306 15.8389L62.3688 17.1551C62.1008 17.6783 62.2023 18.3037 62.6084 18.7125L63.6641 19.7221L62.2185 19.5014Z" fill="#4B688C"/>
<path d="M26.1007 11.1304L27.2174 11.3103L27.396 12.4466C27.4854 12.9698 27.8914 13.3909 28.4111 13.4685C28.4761 13.4808 28.537 13.4808 28.602 13.4808C29.0608 13.4808 29.479 13.2233 29.6943 12.8022L30.214 11.7804L31.3306 11.9602C31.8504 12.0501 32.3701 11.7804 32.6137 11.2939C32.8533 10.8198 32.768 10.2475 32.3863 9.86329L31.5864 9.05804L32.1062 8.03616C32.3457 7.562 32.2605 6.98974 31.8788 6.60551C31.4971 6.22128 30.9246 6.13136 30.4576 6.37661L29.4425 6.89982L28.6426 6.09457C28.2609 5.71034 27.6884 5.62041 27.2214 5.86567C26.7504 6.10683 26.4865 6.63413 26.5596 7.15733L26.7382 8.28141L25.7231 8.80462C25.2521 9.04578 24.9882 9.57308 25.0613 10.0963C25.1587 10.6318 25.5648 11.0405 26.1007 11.1304ZM27.4447 9.45454C27.9158 9.21337 28.1797 8.68608 28.0904 8.16287L27.9645 7.3331L28.5614 7.93397C28.9431 8.3182 29.5156 8.40812 29.9825 8.16287L30.7297 7.77864L30.348 8.53075C30.1084 9.00491 30.1937 9.57716 30.5754 9.96139L31.1723 10.5623L30.348 10.4355C29.8161 10.3456 29.3085 10.6154 29.0649 11.1018L28.6832 11.8539L28.5573 11.0119C28.468 10.4887 28.0619 10.0677 27.5422 9.99001L26.7179 9.86329L27.4447 9.45454Z" fill="#4B688C"/>
<path d="M43.1262 8.05207L44.2429 8.23192L44.4215 9.36826C44.6124 10.5455 46.1878 10.7989 46.7198 9.74023L47.2395 8.71834L48.3561 8.89819C48.8759 8.98812 49.3956 8.71834 49.6392 8.23192C49.8788 7.75777 49.7935 7.18551 49.4119 6.80128L48.6119 5.99603L49.1317 4.97414C49.3712 4.49999 49.286 3.92773 48.9043 3.5435C48.5226 3.15927 47.9501 3.06934 47.4831 3.3146L46.468 3.8378L45.6681 3.03256C45.2864 2.64833 44.7139 2.5584 44.2469 2.80365C43.78 3.04891 43.512 3.57211 43.5851 4.09532L43.7637 5.2194L42.7486 5.7426C42.2776 5.98377 42.0137 6.51106 42.103 7.03427C42.1964 7.55339 42.6024 7.96215 43.1262 8.05207ZM44.4703 6.37617C44.9413 6.13501 45.2052 5.60771 45.1321 5.08451L45.0062 4.25473L45.6031 4.85561C45.9848 5.23984 46.5573 5.32976 47.0243 5.08451L47.7714 4.70028L47.3897 5.45239C47.1502 5.92654 47.2354 6.4988 47.6171 6.88303L48.214 7.4839L47.3897 7.35719C46.87 7.26726 46.3503 7.53704 46.1066 8.00711L45.7249 8.75922L45.5991 7.91718C45.5097 7.39398 45.1037 6.97296 44.584 6.89529L43.7597 6.76858L44.4703 6.37617Z" fill="#4B688C"/>
<path d="M49.9153 32.7533C49.3428 33.3296 49.0383 34.0817 49.0383 34.8992C49.0383 35.7167 49.355 36.4729 49.9275 37.0452C50.5122 37.6338 51.2878 37.9404 52.0593 37.9404C52.8348 37.9404 53.6063 37.6461 54.191 37.0575C55.3726 35.868 55.3726 33.9386 54.191 32.7614C53.0135 31.5679 51.0969 31.5679 49.9153 32.7533ZM53.2287 36.0887C52.5831 36.7386 51.5273 36.7386 50.8817 36.0887C50.565 35.7699 50.3985 35.3489 50.3863 34.8992C50.3863 34.4537 50.565 34.0286 50.8695 33.722C51.1984 33.3909 51.6167 33.2356 52.0511 33.2356C52.4816 33.2356 52.8998 33.4032 53.2327 33.722C53.8784 34.3638 53.8784 35.4388 53.2287 36.0887Z" fill="#4B688C"/>
<path d="M43.9993 27.1941C44.7748 27.1941 45.5463 26.8998 46.131 26.3112C47.3126 25.1217 47.3126 23.1924 46.131 22.0029C44.9494 20.8135 43.0329 20.8135 41.8634 22.0029C40.6819 23.1924 40.694 25.1095 41.8634 26.299C42.4644 26.8876 43.2399 27.1941 43.9993 27.1941ZM42.8217 22.9635C43.1506 22.6324 43.5688 22.4771 44.0033 22.4771C44.4337 22.4771 44.8519 22.6447 45.1849 22.9635C45.8305 23.6134 45.8305 24.6762 45.1849 25.3425C44.5393 25.9924 43.4836 25.9924 42.838 25.3425C42.172 24.6762 42.172 23.6175 42.8217 22.9635Z" fill="#4B688C"/>
</g>
<defs>
<clipPath id="clip0_2183_17074">
<rect width="65" height="64.0152" fill="white"/>
</clipPath>
</defs>
</svg>
