<svg width="13" height="11" viewBox="0 0 13 11" fill="none" xmlns="http://www.w3.org/2000/svg">
<path d="M10.3353 9.63637H2.21027C2.03449 9.63637 1.89777 9.79262 1.89777 9.94887V10.5739C1.89777 10.7496 2.03449 10.8864 2.21027 10.8864H10.3353C10.4915 10.8864 10.6478 10.7496 10.6478 10.5739V9.94887C10.6478 9.79262 10.4915 9.63637 10.3353 9.63637ZM11.5853 3.38637C11.0579 3.38637 10.6478 3.81606 10.6478 4.32387C10.6478 4.48012 10.6673 4.59731 10.7259 4.71449L9.31965 5.57387C9.00715 5.74965 8.61652 5.65199 8.44074 5.33949L6.85871 2.54652C7.07355 2.39027 7.21027 2.11684 7.21027 1.82387C7.21027 1.31606 6.78058 0.886368 6.27277 0.886368C5.74543 0.886368 5.33527 1.31606 5.33527 1.82387C5.33527 2.11684 5.47199 2.39027 5.6673 2.54652L4.08527 5.33949C3.90949 5.65199 3.51886 5.74965 3.2259 5.57387L1.80011 4.71449C1.85871 4.59731 1.89777 4.48012 1.89777 4.32387C1.89777 3.81606 1.46808 3.38637 0.960271 3.38637C0.432927 3.38637 0.0227709 3.81606 0.0227709 4.32387C0.0227709 4.85121 0.432927 5.26137 0.960271 5.26137C0.999333 5.26137 1.05793 5.26137 1.09699 5.26137L2.52277 9.01137H10.0228L11.429 5.26137C11.4681 5.26137 11.5267 5.26137 11.5853 5.26137C12.0931 5.26137 12.5228 4.85121 12.5228 4.32387C12.5228 3.81606 12.0931 3.38637 11.5853 3.38637Z" fill="white"/>
</svg>
