<svg width="16" height="16" viewBox="0 0 16 16" fill="none" xmlns="http://www.w3.org/2000/svg">
<rect width="16" height="16" rx="8" fill="#F2CE54"/>
<path d="M11.25 11H4.75C4.60938 11 4.5 11.125 4.5 11.25V11.75C4.5 11.8906 4.60938 12 4.75 12H11.25C11.375 12 11.5 11.8906 11.5 11.75V11.25C11.5 11.125 11.375 11 11.25 11ZM12.25 6C11.8281 6 11.5 6.34375 11.5 6.75C11.5 6.875 11.5156 6.96875 11.5625 7.0625L10.4375 7.75C10.1875 7.89063 9.875 7.8125 9.73438 7.5625L8.46875 5.32812C8.64063 5.20312 8.75 4.98438 8.75 4.75C8.75 4.34375 8.40625 4 8 4C7.57812 4 7.25 4.34375 7.25 4.75C7.25 4.98438 7.35938 5.20312 7.51562 5.32812L6.25 7.5625C6.10938 7.8125 5.79688 7.89063 5.5625 7.75L4.42188 7.0625C4.46875 6.96875 4.5 6.875 4.5 6.75C4.5 6.34375 4.15625 6 3.75 6C3.32812 6 3 6.34375 3 6.75C3 7.17188 3.32812 7.5 3.75 7.5C3.78125 7.5 3.82813 7.5 3.85938 7.5L5 10.5H11L12.125 7.5C12.1562 7.5 12.2031 7.5 12.25 7.5C12.6562 7.5 13 7.17188 13 6.75C13 6.34375 12.6562 6 12.25 6Z" fill="white"/>
</svg>
