<svg width="22" height="22" viewBox="0 0 22 22" fill="none" xmlns="http://www.w3.org/2000/svg">
<rect x="0.5" y="0.5" width="21" height="21" rx="3.5" fill="#FFF0BF" stroke="#F2CE54"/>
<path d="M14.5625 15H6.4375C6.26172 15 6.125 15.1562 6.125 15.3125V15.9375C6.125 16.1133 6.26172 16.25 6.4375 16.25H14.5625C14.7188 16.25 14.875 16.1133 14.875 15.9375V15.3125C14.875 15.1562 14.7188 15 14.5625 15ZM15.8125 8.75C15.2852 8.75 14.875 9.17969 14.875 9.6875C14.875 9.84375 14.8945 9.96094 14.9531 10.0781L13.5469 10.9375C13.2344 11.1133 12.8438 11.0156 12.668 10.7031L11.0859 7.91016C11.3008 7.75391 11.4375 7.48047 11.4375 7.1875C11.4375 6.67969 11.0078 6.25 10.5 6.25C9.97266 6.25 9.5625 6.67969 9.5625 7.1875C9.5625 7.48047 9.69922 7.75391 9.89453 7.91016L8.3125 10.7031C8.13672 11.0156 7.74609 11.1133 7.45312 10.9375L6.02734 10.0781C6.08594 9.96094 6.125 9.84375 6.125 9.6875C6.125 9.17969 5.69531 8.75 5.1875 8.75C4.66016 8.75 4.25 9.17969 4.25 9.6875C4.25 10.2148 4.66016 10.625 5.1875 10.625C5.22656 10.625 5.28516 10.625 5.32422 10.625L6.75 14.375H14.25L15.6562 10.625C15.6953 10.625 15.7539 10.625 15.8125 10.625C16.3203 10.625 16.75 10.2148 16.75 9.6875C16.75 9.17969 16.3203 8.75 15.8125 8.75Z" fill="#F2CE54"/>
</svg>
