<svg width="193" height="196" viewBox="0 0 193 196" fill="none" xmlns="http://www.w3.org/2000/svg">
<g opacity="0.2">
<g clip-path="url(#clip0_3307_122668)">
<path d="M101.839 5.16395C101.683 5.16395 101.526 5.16395 101.37 5.0857C101.213 5.0857 101.057 5.0857 100.822 5.00745C100.666 4.9292 100.587 4.85095 100.431 4.7727C100.274 4.69445 100.118 4.53795 100.04 4.4597C99.8832 4.3032 99.8049 4.1467 99.7267 4.06845C99.5702 3.91195 99.492 3.75546 99.492 3.59896C99.4137 3.44246 99.3355 3.28596 99.3355 3.12946C99.2572 2.97296 99.2572 2.73821 99.2572 2.58171C99.2572 2.42521 99.2572 2.26872 99.3355 2.11222C99.3355 1.95572 99.4137 1.79922 99.492 1.64272C99.5702 1.48622 99.6484 1.32972 99.7267 1.17322C99.8049 1.01672 99.8832 0.860225 100.04 0.781976C100.196 0.625477 100.274 0.547227 100.431 0.468978C100.587 0.312479 100.666 0.234229 100.822 0.234229C100.979 0.15598 101.135 0.15598 101.292 0.0777301C101.683 -0.000519402 101.996 -0.000519402 102.387 0.0777301C102.544 0.0777301 102.7 0.15598 102.857 0.234229C103.013 0.234229 103.17 0.312479 103.326 0.468978C103.404 0.547227 103.561 0.625477 103.717 0.781976C103.796 0.860225 103.952 1.01672 104.03 1.17322C104.109 1.32972 104.187 1.48622 104.265 1.64272C104.343 1.79922 104.343 1.95572 104.422 2.11222C104.422 2.26872 104.5 2.42521 104.5 2.58171C104.5 2.73821 104.5 2.89471 104.422 3.12946C104.422 3.28596 104.343 3.44246 104.265 3.59896C104.187 3.75546 104.109 3.91195 104.03 4.06845C103.952 4.1467 103.796 4.3032 103.717 4.4597C103.561 4.53795 103.404 4.69445 103.326 4.7727C103.17 4.85095 103.013 4.9292 102.857 5.00745C102.7 5.0857 102.544 5.0857 102.387 5.16395C102.231 5.16395 101.996 5.16395 101.839 5.16395Z" fill="white"/>
<path d="M101.839 81.1451C100.431 81.1451 99.2572 79.9713 99.2572 78.5628C99.2572 77.1543 100.431 75.9024 101.839 75.9024C103.248 75.9024 104.422 77.0761 104.422 78.4846C104.422 79.9713 103.326 81.1451 101.839 81.1451ZM101.839 68.4687C100.431 68.4687 99.2572 67.2949 99.2572 65.8864C99.2572 64.4779 100.431 63.3042 101.839 63.3042C103.248 63.3042 104.422 64.4779 104.422 65.8864C104.422 67.2949 103.326 68.4687 101.839 68.4687ZM101.839 55.7922C100.431 55.7922 99.2572 54.6185 99.2572 53.21C99.2572 51.8015 100.431 50.6278 101.839 50.6278C103.248 50.6278 104.422 51.8015 104.422 53.21C104.422 54.6185 103.326 55.7922 101.839 55.7922ZM101.839 43.1941C100.431 43.1941 99.2572 42.0203 99.2572 40.6118C99.2572 39.2033 100.431 38.0296 101.839 38.0296C103.248 38.0296 104.422 39.2033 104.422 40.6118C104.422 42.0203 103.326 43.1941 101.839 43.1941ZM101.839 30.5176C100.431 30.5176 99.2572 29.3439 99.2572 27.9354C99.2572 26.5269 100.431 25.3532 101.839 25.3532C103.248 25.3532 104.422 26.5269 104.422 27.9354C104.422 29.3439 103.326 30.5176 101.839 30.5176ZM101.839 17.8412C100.431 17.8412 99.2572 16.6675 99.2572 15.259C99.2572 13.8505 100.431 12.6768 101.839 12.6768C103.248 12.6768 104.422 13.8505 104.422 15.259C104.422 16.6675 103.326 17.8412 101.839 17.8412Z" fill="white"/>
<path d="M101.839 93.7432C101.683 93.7432 101.526 93.7432 101.37 93.6649C101.213 93.6649 101.057 93.5867 100.9 93.5084C100.744 93.4302 100.587 93.3519 100.431 93.2737C100.274 93.1954 100.118 93.0389 100.04 92.9607C99.8832 92.8824 99.8049 92.7259 99.7267 92.5694C99.6484 92.4129 99.5702 92.2564 99.492 92.0999C99.4137 91.9434 99.4137 91.7869 99.3355 91.6304C99.3355 91.4739 99.2572 91.3175 99.2572 91.0827C99.2572 90.3785 99.5702 89.7525 100.04 89.283C100.196 89.1265 100.274 89.0482 100.431 88.97C100.587 88.8917 100.744 88.8135 100.9 88.7352C101.057 88.657 101.213 88.657 101.37 88.5787C101.683 88.5005 102.074 88.5005 102.387 88.5787C102.544 88.5787 102.7 88.657 102.857 88.7352C103.013 88.8135 103.17 88.8917 103.326 88.97C103.483 89.0482 103.639 89.2047 103.717 89.283C104.187 89.7525 104.5 90.4567 104.5 91.0827C104.5 91.2392 104.5 91.3957 104.422 91.6304C104.422 91.7869 104.343 91.9434 104.265 92.0999C104.187 92.2564 104.109 92.4129 104.03 92.5694C103.952 92.7259 103.796 92.8824 103.717 92.9607C103.561 93.1172 103.483 93.1954 103.326 93.2737C103.17 93.3519 103.013 93.4302 102.857 93.5084C102.7 93.5867 102.544 93.5867 102.387 93.6649C102.231 93.7432 101.996 93.7432 101.839 93.7432Z" fill="white"/>
<path d="M190.418 5.16456C189.714 5.16456 189.088 4.85156 188.618 4.38206C188.462 4.30381 188.383 4.14732 188.305 3.99082C188.227 3.83432 188.149 3.67782 188.07 3.52132C187.992 3.36482 187.992 3.20832 187.914 3.05182C187.914 2.89532 187.836 2.73883 187.836 2.50408C187.836 2.34758 187.836 2.19108 187.914 2.03458C187.914 1.87808 187.992 1.72158 188.07 1.56508C188.149 1.40858 188.227 1.25209 188.305 1.09559C188.383 0.939087 188.54 0.782588 188.618 0.704339C188.775 0.54784 188.853 0.46959 189.009 0.391341C189.166 0.313091 189.322 0.234842 189.479 0.156592C189.635 0.0783428 189.792 0.0783428 189.948 9.33595e-05C190.261 -0.0781561 190.653 -0.0781561 190.966 9.33595e-05C191.122 9.33595e-05 191.279 0.0783428 191.435 0.156592C191.592 0.234842 191.748 0.313091 191.905 0.391341C192.061 0.46959 192.139 0.626089 192.296 0.704339C192.452 0.860838 192.531 0.939087 192.609 1.09559C192.687 1.25209 192.765 1.40858 192.844 1.56508C192.922 1.72158 192.922 1.87808 193 2.03458C193 2.19108 193.078 2.34758 193.078 2.50408C193.078 2.66058 193.078 2.81707 193 3.05182C193 3.20832 192.922 3.36482 192.844 3.52132C192.765 3.67782 192.687 3.83432 192.609 3.99082C192.531 4.14732 192.374 4.30381 192.296 4.38206C191.826 4.92981 191.122 5.16456 190.418 5.16456Z" fill="white"/>
<path d="M190.418 81.1451C189.009 81.1451 187.836 79.9713 187.836 78.5628C187.836 77.1543 189.009 75.9806 190.418 75.9806C191.826 75.9806 193 77.1543 193 78.5628C193 79.9713 191.905 81.1451 190.418 81.1451ZM190.418 68.4686C189.009 68.4686 187.836 67.2949 187.836 65.8864C187.836 64.4779 189.009 63.3042 190.418 63.3042C191.826 63.3042 193 64.4779 193 65.8864C193 67.2949 191.905 68.4686 190.418 68.4686ZM190.418 55.7922C189.009 55.7922 187.836 54.6185 187.836 53.21C187.836 51.8015 189.009 50.6278 190.418 50.6278C191.826 50.6278 193 51.8015 193 53.21C193 54.6185 191.905 55.7922 190.418 55.7922ZM190.418 43.1941C189.009 43.1941 187.836 42.0203 187.836 40.6118C187.836 39.2033 189.009 38.0296 190.418 38.0296C191.826 38.0296 193 39.2033 193 40.6118C193 42.0203 191.905 43.1941 190.418 43.1941ZM190.418 30.5176C189.009 30.5176 187.836 29.3439 187.836 27.9354C187.836 26.5269 189.009 25.3532 190.418 25.3532C191.826 25.3532 193 26.5269 193 27.9354C193 29.3439 191.905 30.5176 190.418 30.5176ZM190.418 17.8412C189.009 17.8412 187.836 16.6675 187.836 15.259C187.836 13.8505 189.009 12.6768 190.418 12.6768C191.826 12.6768 193 13.8505 193 15.259C193 16.6675 191.905 17.8412 190.418 17.8412Z" fill="white"/>
<path d="M190.418 93.7432C189.714 93.7432 189.088 93.4302 188.618 92.9607C188.462 92.8042 188.383 92.7259 188.305 92.5694C188.227 92.4129 188.149 92.2564 188.07 92.0999C187.992 91.9434 187.992 91.7869 187.914 91.6304C187.914 91.4739 187.836 91.3174 187.836 91.0827C187.836 90.3785 188.149 89.7525 188.618 89.283C188.775 89.1265 188.853 89.0482 189.009 88.97C189.166 88.8917 189.322 88.8135 189.479 88.7352C189.635 88.657 189.792 88.657 189.948 88.5787C190.261 88.5005 190.653 88.5005 190.966 88.5787C191.122 88.5787 191.279 88.657 191.435 88.7352C191.592 88.8135 191.748 88.8917 191.905 88.97C192.061 89.0482 192.139 89.2047 192.296 89.283C192.765 89.7525 193.078 90.4567 193.078 91.0827C193.078 91.2392 193.078 91.3957 193 91.6304C193 91.7869 192.922 91.9434 192.844 92.0999C192.765 92.2564 192.687 92.4129 192.609 92.5694C192.531 92.7259 192.374 92.8824 192.296 92.9607C191.826 93.5084 191.122 93.7432 190.418 93.7432Z" fill="white"/>
<path d="M179.385 5.16447C179.228 5.16447 179.072 5.16447 178.915 5.08622C178.759 5.08622 178.602 5.00797 178.446 4.92972C178.289 4.85147 178.133 4.77322 177.976 4.69497C177.82 4.61672 177.663 4.46022 177.585 4.38197C177.115 3.91247 176.802 3.20823 176.802 2.50398C176.802 2.34748 176.802 2.19099 176.881 2.03449C176.881 1.87799 176.959 1.72149 177.037 1.56499C177.115 1.40849 177.194 1.25199 177.272 1.09549C177.35 0.938994 177.507 0.782495 177.585 0.704245C178.524 -0.234748 180.324 -0.234748 181.263 0.704245C181.341 0.860744 181.497 0.938994 181.576 1.09549C181.654 1.25199 181.732 1.40849 181.81 1.56499C181.889 1.72149 181.889 1.87799 181.967 2.03449C181.967 2.19099 182.045 2.34748 182.045 2.50398C182.045 3.20823 181.732 3.83422 181.263 4.38197C180.715 4.92972 180.011 5.16447 179.385 5.16447Z" fill="white"/>
<path d="M179.385 81.1446C177.976 81.1446 176.802 79.9708 176.802 78.5623C176.802 77.1538 177.976 75.9801 179.385 75.9801C180.793 75.9801 181.967 77.1538 181.967 78.5623C181.967 79.9708 180.793 81.1446 179.385 81.1446ZM179.385 68.4682C177.976 68.4682 176.802 67.2944 176.802 65.8859C176.802 64.4774 177.976 63.3037 179.385 63.3037C180.793 63.3037 181.967 64.4774 181.967 65.8859C181.967 67.2944 180.793 68.4682 179.385 68.4682ZM179.385 55.7917C177.976 55.7917 176.802 54.618 176.802 53.2095C176.802 51.801 177.976 50.6273 179.385 50.6273C180.793 50.6273 181.967 51.801 181.967 53.2095C181.967 54.618 180.793 55.7917 179.385 55.7917ZM179.385 43.1936C177.976 43.1936 176.802 42.0198 176.802 40.6113C176.802 39.2028 177.976 38.0291 179.385 38.0291C180.793 38.0291 181.967 39.2028 181.967 40.6113C181.967 42.0198 180.793 43.1936 179.385 43.1936ZM179.385 30.5172C177.976 30.5172 176.802 29.3434 176.802 27.9349C176.802 26.5264 177.976 25.3527 179.385 25.3527C180.793 25.3527 181.967 26.5264 181.967 27.9349C181.967 29.3434 180.793 30.5172 179.385 30.5172ZM179.385 17.8407C177.976 17.8407 176.802 16.667 176.802 15.2585C176.802 13.85 177.976 12.6763 179.385 12.6763C180.793 12.6763 181.967 13.85 181.967 15.2585C181.967 16.667 180.793 17.8407 179.385 17.8407Z" fill="white"/>
<path d="M179.385 93.743C179.228 93.743 179.072 93.7429 178.915 93.6647C178.759 93.6647 178.602 93.5864 178.446 93.5082C178.289 93.43 178.133 93.3517 177.976 93.2734C177.82 93.1952 177.663 93.0387 177.585 92.9605C177.115 92.491 176.802 91.7867 176.802 91.1607C176.802 91.0042 176.802 90.8477 176.881 90.6912C176.881 90.5347 176.959 90.3782 177.037 90.2217C177.115 90.0652 177.194 89.9087 177.272 89.7522C177.35 89.5957 177.507 89.4392 177.585 89.361C178.524 88.422 180.324 88.422 181.263 89.361C181.341 89.5175 181.497 89.5957 181.576 89.7522C181.654 89.9087 181.732 90.0652 181.81 90.2217C181.889 90.3782 181.889 90.5347 181.967 90.6912C181.967 90.8477 182.045 91.0042 182.045 91.1607C182.045 91.865 181.732 92.491 181.263 92.9605C180.715 93.5082 180.011 93.743 179.385 93.743Z" fill="white"/>
<path d="M168.273 5.24267C167.569 5.24267 166.943 4.92967 166.474 4.46017C166.317 4.30367 166.239 4.22542 166.161 4.06892C166.082 3.91242 166.004 3.75593 165.926 3.59943C165.848 3.44293 165.769 3.28643 165.769 3.12993C165.769 2.97343 165.691 2.81693 165.691 2.58218C165.691 1.87794 166.004 1.25194 166.474 0.782445C166.552 0.625946 166.708 0.547697 166.865 0.469447C167.021 0.391198 167.178 0.312948 167.334 0.234699C167.491 0.156449 167.647 0.156449 167.804 0.0781997C168.665 -0.0782993 169.525 0.156449 170.151 0.782445C170.621 1.25194 170.934 1.95619 170.934 2.58218C170.934 2.73868 170.934 2.89518 170.856 3.12993C170.856 3.28643 170.777 3.44293 170.699 3.59943C170.621 3.75593 170.543 3.91242 170.464 4.06892C170.386 4.22542 170.23 4.38192 170.151 4.46017C169.995 4.53842 169.917 4.69492 169.76 4.77317C169.604 4.85142 169.447 4.92967 169.291 5.00792C169.134 5.08617 168.978 5.16442 168.821 5.16442C168.665 5.16442 168.43 5.24267 168.273 5.24267Z" fill="white"/>
<path d="M168.273 81.1446C166.865 81.1446 165.691 79.9708 165.691 78.5623C165.691 77.1539 166.865 75.9801 168.273 75.9801C169.682 75.9801 170.856 77.1539 170.856 78.5623C170.856 79.9708 169.76 81.1446 168.273 81.1446ZM168.273 68.4682C166.865 68.4682 165.691 67.2944 165.691 65.8859C165.691 64.4774 166.865 63.3037 168.273 63.3037C169.682 63.3037 170.856 64.4774 170.856 65.8859C170.856 67.2944 169.76 68.4682 168.273 68.4682ZM168.273 55.7917C166.865 55.7917 165.691 54.618 165.691 53.2095C165.691 51.801 166.865 50.6273 168.273 50.6273C169.682 50.6273 170.856 51.801 170.856 53.2095C170.856 54.618 169.76 55.7917 168.273 55.7917ZM168.273 43.1936C166.865 43.1936 165.691 42.0198 165.691 40.6113C165.691 39.2028 166.865 38.0291 168.273 38.0291C169.682 38.0291 170.856 39.2028 170.856 40.6113C170.856 42.0198 169.76 43.1936 168.273 43.1936ZM168.273 30.5172C166.865 30.5172 165.691 29.3434 165.691 27.9349C165.691 26.5264 166.865 25.3527 168.273 25.3527C169.682 25.3527 170.856 26.5264 170.856 27.9349C170.856 29.3434 169.76 30.5172 168.273 30.5172ZM168.273 17.8407C166.865 17.8407 165.691 16.667 165.691 15.2585C165.691 13.85 166.865 12.6763 168.273 12.6763C169.682 12.6763 170.856 13.85 170.856 15.2585C170.856 16.667 169.76 17.8407 168.273 17.8407Z" fill="white"/>
<path d="M168.273 93.743C168.117 93.743 167.96 93.743 167.726 93.6648C167.569 93.6648 167.413 93.5865 167.256 93.5083C167.1 93.43 166.943 93.3518 166.787 93.2735C166.63 93.1953 166.474 93.0388 166.395 92.9605C165.926 92.491 165.613 91.7868 165.613 91.1608C165.613 90.4565 165.926 89.8306 166.395 89.3611C166.474 89.2046 166.63 89.1263 166.787 89.0481C166.943 88.9698 167.1 88.8916 167.256 88.8133C167.413 88.7351 167.569 88.7351 167.726 88.6568C168.586 88.5003 169.447 88.7351 170.073 89.3611C170.542 89.8306 170.855 90.5348 170.855 91.1608C170.855 91.865 170.542 92.491 170.073 92.9605C169.682 93.5083 168.978 93.743 168.273 93.743Z" fill="white"/>
<path d="M157.24 5.16442C156.536 5.16442 155.91 4.85142 155.44 4.38192C154.971 3.91242 154.658 3.20818 154.658 2.58218C154.658 2.42568 154.658 2.26919 154.736 2.11269C154.736 1.95619 154.814 1.79969 154.893 1.64319C154.971 1.48669 155.049 1.33019 155.127 1.17369C155.206 1.01719 155.362 0.860695 155.44 0.782445C156.066 0.156449 156.927 -0.0782993 157.788 0.0781997C157.944 0.0781997 158.101 0.156449 158.257 0.234699C158.414 0.312948 158.57 0.391198 158.727 0.469447C158.883 0.547697 158.962 0.704196 159.118 0.782445C159.275 0.938944 159.353 1.01719 159.431 1.17369C159.509 1.33019 159.588 1.48669 159.666 1.64319C159.744 1.79969 159.744 1.95619 159.822 2.11269C159.822 2.26919 159.901 2.42568 159.901 2.58218C159.901 2.73868 159.901 2.89518 159.822 3.12993C159.822 3.28643 159.744 3.44293 159.666 3.59943C159.588 3.75593 159.509 3.91242 159.353 4.06892C159.275 4.22542 159.118 4.38192 159.04 4.46017C158.883 4.61667 158.805 4.69492 158.649 4.77317C158.492 4.85142 158.336 4.92967 158.179 5.00792C158.023 5.08617 157.866 5.16442 157.71 5.16442C157.553 5.16442 157.397 5.16442 157.24 5.16442Z" fill="white"/>
<path d="M157.24 81.1446C155.832 81.1446 154.658 79.9708 154.658 78.5623C154.658 77.1539 155.832 75.9801 157.24 75.9801C158.649 75.9801 159.822 77.1539 159.822 78.5623C159.822 79.9708 158.649 81.1446 157.24 81.1446ZM157.24 68.4682C155.832 68.4682 154.658 67.2944 154.658 65.8859C154.658 64.4774 155.832 63.3037 157.24 63.3037C158.649 63.3037 159.822 64.4774 159.822 65.8859C159.822 67.2944 158.649 68.4682 157.24 68.4682ZM157.24 55.7917C155.832 55.7917 154.658 54.618 154.658 53.2095C154.658 51.801 155.832 50.6273 157.24 50.6273C158.649 50.6273 159.822 51.801 159.822 53.2095C159.822 54.618 158.649 55.7917 157.24 55.7917ZM157.24 43.1936C155.832 43.1936 154.658 42.0198 154.658 40.6113C154.658 39.2028 155.832 38.0291 157.24 38.0291C158.649 38.0291 159.822 39.2028 159.822 40.6113C159.822 42.0198 158.649 43.1936 157.24 43.1936ZM157.24 30.5172C155.832 30.5172 154.658 29.3434 154.658 27.9349C154.658 26.5264 155.832 25.3527 157.24 25.3527C158.649 25.3527 159.822 26.5264 159.822 27.9349C159.822 29.3434 158.649 30.5172 157.24 30.5172ZM157.24 17.8407C155.832 17.8407 154.658 16.667 154.658 15.2585C154.658 13.85 155.832 12.6763 157.24 12.6763C158.649 12.6763 159.822 13.85 159.822 15.2585C159.822 16.667 158.649 17.8407 157.24 17.8407Z" fill="white"/>
<path d="M157.24 93.743C156.536 93.743 155.91 93.43 155.44 92.9605C154.971 92.491 154.658 91.7868 154.658 91.1608C154.658 91.0043 154.658 90.8478 154.736 90.6913C154.736 90.5348 154.814 90.3783 154.893 90.2218C154.971 90.0653 155.049 89.9088 155.127 89.7523C155.206 89.5958 155.362 89.4393 155.44 89.3611C155.597 89.2046 155.675 89.1263 155.832 89.0481C155.988 88.9698 156.145 88.8916 156.301 88.8133C156.458 88.7351 156.614 88.7351 156.771 88.6568C157.631 88.5003 158.492 88.7351 159.118 89.3611C159.588 89.8306 159.901 90.5348 159.901 91.1608C159.901 91.3173 159.901 91.4738 159.822 91.7085C159.822 91.865 159.744 92.0215 159.666 92.178C159.588 92.3345 159.509 92.491 159.431 92.6475C159.353 92.804 159.196 92.9605 159.118 93.0388C158.962 93.1953 158.883 93.2735 158.727 93.3518C158.57 93.43 158.414 93.5083 158.257 93.5865C158.101 93.6648 157.944 93.6648 157.788 93.743C157.553 93.743 157.397 93.743 157.24 93.743Z" fill="white"/>
<path d="M146.129 5.16447C145.972 5.16447 145.816 5.16447 145.581 5.08622C145.424 5.08622 145.268 5.00797 145.111 4.92972C144.955 4.85147 144.798 4.77322 144.642 4.69497C144.485 4.61672 144.329 4.46022 144.251 4.38197C143.781 3.91247 143.468 3.20823 143.468 2.50398C143.468 2.34748 143.468 2.19099 143.546 2.03449C143.546 1.87799 143.625 1.72149 143.703 1.56499C143.781 1.40849 143.859 1.25199 143.938 1.09549C144.016 0.938994 144.172 0.782495 144.251 0.704245C145.19 -0.234748 146.989 -0.234748 147.928 0.704245C148.085 0.860744 148.163 0.938994 148.241 1.09549C148.32 1.25199 148.398 1.40849 148.476 1.56499C148.554 1.72149 148.554 1.87799 148.633 2.03449C148.633 2.19099 148.711 2.34748 148.711 2.50398C148.711 3.20823 148.398 3.83422 147.928 4.38197C147.772 4.46022 147.694 4.61672 147.537 4.69497C147.381 4.77322 147.224 4.85147 147.068 4.92972C146.911 5.00797 146.755 5.08622 146.598 5.08622C146.52 5.16447 146.285 5.16447 146.129 5.16447Z" fill="white"/>
<path d="M146.129 81.1446C144.72 81.1446 143.546 79.9708 143.546 78.5623C143.546 77.1538 144.72 75.9801 146.129 75.9801C147.537 75.9801 148.711 77.1538 148.711 78.5623C148.711 79.9708 147.615 81.1446 146.129 81.1446ZM146.129 68.4682C144.72 68.4682 143.546 67.2944 143.546 65.8859C143.546 64.4774 144.72 63.3037 146.129 63.3037C147.537 63.3037 148.711 64.4774 148.711 65.8859C148.711 67.2944 147.615 68.4682 146.129 68.4682ZM146.129 55.7917C144.72 55.7917 143.546 54.618 143.546 53.2095C143.546 51.801 144.72 50.6273 146.129 50.6273C147.537 50.6273 148.711 51.801 148.711 53.2095C148.711 54.618 147.615 55.7917 146.129 55.7917ZM146.129 43.1936C144.72 43.1936 143.546 42.0198 143.546 40.6113C143.546 39.2028 144.72 38.0291 146.129 38.0291C147.537 38.0291 148.711 39.2028 148.711 40.6113C148.711 42.0198 147.615 43.1936 146.129 43.1936ZM146.129 30.5172C144.72 30.5172 143.546 29.3434 143.546 27.9349C143.546 26.5264 144.72 25.3527 146.129 25.3527C147.537 25.3527 148.711 26.5264 148.711 27.9349C148.711 29.3434 147.615 30.5172 146.129 30.5172ZM146.129 17.8407C144.72 17.8407 143.546 16.667 143.546 15.2585C143.546 13.85 144.72 12.6763 146.129 12.6763C147.537 12.6763 148.711 13.85 148.711 15.2585C148.711 16.667 147.615 17.8407 146.129 17.8407Z" fill="white"/>
<path d="M146.129 93.743C145.972 93.743 145.816 93.7429 145.581 93.6647C145.424 93.6647 145.268 93.5864 145.111 93.5082C144.955 93.43 144.798 93.3517 144.642 93.2734C144.485 93.1952 144.329 93.0387 144.251 92.9605C143.781 92.491 143.468 91.7867 143.468 91.1607C143.468 90.4565 143.781 89.8305 144.251 89.361C145.19 88.422 146.989 88.422 147.928 89.361C148.085 89.5175 148.163 89.5957 148.241 89.7522C148.32 89.9087 148.398 90.0652 148.476 90.2217C148.554 90.3782 148.554 90.5347 148.633 90.6912C148.633 90.8477 148.711 91.0042 148.711 91.1607C148.711 91.3172 148.711 91.4737 148.633 91.7085C148.633 91.865 148.554 92.0215 148.476 92.178C148.398 92.3345 148.32 92.491 148.241 92.6475C148.163 92.804 148.007 92.9605 147.928 93.0387C147.537 93.5082 146.833 93.743 146.129 93.743Z" fill="white"/>
<path d="M135.096 5.16434C134.939 5.16434 134.783 5.16434 134.548 5.08609C134.391 5.08609 134.235 5.00784 134.078 4.92959C133.922 4.85134 133.765 4.77309 133.609 4.69484C133.452 4.6166 133.374 4.4601 133.218 4.38185C132.748 3.91235 132.435 3.2081 132.435 2.58211C132.435 1.87786 132.748 1.25187 133.218 0.78237C134.157 -0.156623 135.956 -0.156623 136.895 0.78237C137.052 0.938869 137.13 1.01712 137.208 1.17362C137.287 1.33012 137.365 1.48662 137.443 1.64311C137.521 1.79961 137.6 1.95611 137.6 2.11261C137.6 2.26911 137.678 2.42561 137.678 2.58211C137.678 3.28635 137.365 3.91235 136.895 4.38185C136.426 4.92959 135.722 5.16434 135.096 5.16434Z" fill="white"/>
<path d="M135.096 81.1446C133.687 81.1446 132.513 79.9708 132.513 78.5623C132.513 77.1538 133.687 75.9801 135.096 75.9801C136.504 75.9801 137.678 77.1538 137.678 78.5623C137.678 79.9708 136.504 81.1446 135.096 81.1446ZM135.096 68.4682C133.687 68.4682 132.513 67.2944 132.513 65.8859C132.513 64.4774 133.687 63.3037 135.096 63.3037C136.504 63.3037 137.678 64.4774 137.678 65.8859C137.678 67.2944 136.504 68.4682 135.096 68.4682ZM135.096 55.7917C133.687 55.7917 132.513 54.618 132.513 53.2095C132.513 51.801 133.687 50.6273 135.096 50.6273C136.504 50.6273 137.678 51.801 137.678 53.2095C137.678 54.618 136.504 55.7917 135.096 55.7917ZM135.096 43.1936C133.687 43.1936 132.513 42.0198 132.513 40.6113C132.513 39.2028 133.687 38.0291 135.096 38.0291C136.504 38.0291 137.678 39.2028 137.678 40.6113C137.678 42.0198 136.504 43.1936 135.096 43.1936ZM135.096 30.5172C133.687 30.5172 132.513 29.3434 132.513 27.9349C132.513 26.5264 133.687 25.3527 135.096 25.3527C136.504 25.3527 137.678 26.5264 137.678 27.9349C137.678 29.3434 136.504 30.5172 135.096 30.5172ZM135.096 17.8407C133.687 17.8407 132.513 16.667 132.513 15.2585C132.513 13.85 133.687 12.6763 135.096 12.6763C136.504 12.6763 137.678 13.85 137.678 15.2585C137.678 16.667 136.504 17.8407 135.096 17.8407Z" fill="white"/>
<path d="M135.096 93.7425C134.391 93.7425 133.765 93.4295 133.296 92.9601C132.826 92.4906 132.513 91.7863 132.513 91.1603C132.513 91.0038 132.513 90.8473 132.592 90.6908C132.592 90.5343 132.67 90.3778 132.748 90.2213C132.826 90.0648 132.905 89.9083 132.983 89.7518C133.061 89.5953 133.218 89.4388 133.296 89.3606C133.452 89.2041 133.531 89.1258 133.687 89.0476C133.844 88.9693 134 88.8911 134.157 88.8128C134.313 88.7346 134.47 88.7346 134.626 88.6563C135.487 88.4998 136.348 88.7346 136.974 89.3606C137.443 89.8301 137.756 90.5343 137.756 91.1603C137.756 91.3168 137.756 91.4733 137.678 91.7081C137.678 91.8646 137.6 92.0211 137.521 92.1776C137.443 92.3341 137.365 92.4906 137.287 92.6471C137.208 92.8036 137.052 92.96 136.974 93.0383C136.426 93.5078 135.722 93.7425 135.096 93.7425Z" fill="white"/>
<path d="M123.984 5.16442C123.828 5.16442 123.671 5.16442 123.515 5.08617C123.358 5.08617 123.202 5.00792 123.045 4.92967C122.889 4.85142 122.732 4.77317 122.576 4.69492C122.419 4.61667 122.263 4.46017 122.184 4.38192C121.715 3.91242 121.402 3.20818 121.402 2.58218C121.402 1.87794 121.715 1.25194 122.184 0.782445C122.81 0.156449 123.671 -0.0782993 124.532 0.0781997C124.688 0.0781997 124.845 0.156449 125.001 0.234699C125.158 0.312948 125.314 0.391198 125.471 0.469447C125.549 0.547697 125.706 0.625946 125.862 0.782445C126.332 1.25194 126.645 1.95619 126.645 2.58218C126.645 2.73868 126.645 2.89518 126.566 3.12993C126.566 3.28643 126.488 3.44293 126.41 3.59943C126.332 3.75593 126.253 3.91242 126.175 4.06892C126.097 4.22542 125.94 4.38192 125.862 4.46017C125.784 4.61667 125.627 4.69492 125.471 4.77317C125.314 4.85142 125.158 4.92967 125.001 5.00792C124.845 5.08617 124.688 5.16442 124.532 5.16442C124.375 5.16442 124.141 5.16442 123.984 5.16442Z" fill="white"/>
<path d="M123.984 81.1446C122.576 81.1446 121.402 79.9708 121.402 78.5623C121.402 77.1539 122.576 75.9801 123.984 75.9801C125.393 75.9801 126.566 77.1539 126.566 78.5623C126.566 79.9708 125.471 81.1446 123.984 81.1446ZM123.984 68.4682C122.576 68.4682 121.402 67.2944 121.402 65.8859C121.402 64.4774 122.576 63.3037 123.984 63.3037C125.393 63.3037 126.566 64.4774 126.566 65.8859C126.566 67.2944 125.471 68.4682 123.984 68.4682ZM123.984 55.7917C122.576 55.7917 121.402 54.618 121.402 53.2095C121.402 51.801 122.576 50.6273 123.984 50.6273C125.393 50.6273 126.566 51.801 126.566 53.2095C126.566 54.618 125.471 55.7917 123.984 55.7917ZM123.984 43.1936C122.576 43.1936 121.402 42.0198 121.402 40.6113C121.402 39.2028 122.576 38.0291 123.984 38.0291C125.393 38.0291 126.566 39.2028 126.566 40.6113C126.566 42.0198 125.471 43.1936 123.984 43.1936ZM123.984 30.5172C122.576 30.5172 121.402 29.3434 121.402 27.9349C121.402 26.5264 122.576 25.3527 123.984 25.3527C125.393 25.3527 126.566 26.5264 126.566 27.9349C126.566 29.3434 125.471 30.5172 123.984 30.5172ZM123.984 17.8407C122.576 17.8407 121.402 16.667 121.402 15.2585C121.402 13.85 122.576 12.6763 123.984 12.6763C125.393 12.6763 126.566 13.85 126.566 15.2585C126.566 16.667 125.471 17.8407 123.984 17.8407Z" fill="white"/>
<path d="M123.984 93.743C123.828 93.743 123.671 93.743 123.515 93.6648C123.358 93.6648 123.202 93.5865 123.045 93.5083C122.889 93.43 122.732 93.3518 122.576 93.2735C122.419 93.1953 122.263 93.0388 122.184 92.9605C121.715 92.491 121.402 91.7868 121.402 91.1608C121.402 90.4565 121.715 89.8306 122.184 89.3611C122.81 88.7351 123.671 88.5003 124.532 88.6568C124.688 88.6568 124.845 88.7351 125.001 88.8133C125.158 88.8916 125.314 88.9698 125.471 89.0481C125.627 89.1263 125.784 89.2828 125.862 89.3611C126.332 89.8306 126.645 90.5348 126.645 91.1608C126.645 91.3173 126.645 91.4738 126.566 91.7085C126.566 91.865 126.488 92.0215 126.41 92.178C126.332 92.3345 126.253 92.491 126.175 92.6475C126.097 92.804 125.94 92.9605 125.862 93.0388C125.784 93.1953 125.627 93.2735 125.471 93.3518C125.314 93.43 125.158 93.5083 125.001 93.5865C124.845 93.6648 124.688 93.743 124.532 93.743C124.375 93.743 124.141 93.743 123.984 93.743Z" fill="white"/>
<path d="M112.951 5.16434C112.247 5.16434 111.621 4.85134 111.151 4.38185C110.995 4.22535 110.916 4.1471 110.838 3.9906C110.76 3.8341 110.682 3.6776 110.603 3.5211C110.525 3.3646 110.525 3.2081 110.447 3.05161C110.447 2.89511 110.369 2.73861 110.369 2.50386C110.369 2.34736 110.369 2.19086 110.447 2.03436C110.447 1.87786 110.525 1.72136 110.603 1.56487C110.682 1.40837 110.76 1.25187 110.838 1.09537C110.838 1.01712 110.995 0.86062 111.073 0.78237C112.012 -0.156623 113.812 -0.156623 114.751 0.78237C115.22 1.25187 115.533 1.95611 115.533 2.58211C115.533 2.73861 115.533 2.89511 115.455 3.12985C115.455 3.28635 115.377 3.44285 115.298 3.59935C115.22 3.75585 115.142 3.91235 115.064 4.06885C114.985 4.22535 114.829 4.38185 114.751 4.4601C114.594 4.61659 114.516 4.69484 114.359 4.77309C114.203 4.85134 114.046 4.92959 113.89 5.00784C113.733 5.08609 113.577 5.08609 113.42 5.16434C113.264 5.16434 113.107 5.16434 112.951 5.16434Z" fill="white"/>
<path d="M112.951 81.1446C111.542 81.1446 110.369 79.9708 110.369 78.5623C110.369 77.1538 111.542 75.9801 112.951 75.9801C114.359 75.9801 115.533 77.1538 115.533 78.5623C115.533 79.9708 114.359 81.1446 112.951 81.1446ZM112.951 68.4682C111.542 68.4682 110.369 67.2944 110.369 65.8859C110.369 64.4774 111.542 63.3037 112.951 63.3037C114.359 63.3037 115.533 64.4774 115.533 65.8859C115.533 67.2944 114.359 68.4682 112.951 68.4682ZM112.951 55.7917C111.542 55.7917 110.369 54.618 110.369 53.2095C110.369 51.801 111.542 50.6273 112.951 50.6273C114.359 50.6273 115.533 51.801 115.533 53.2095C115.533 54.618 114.359 55.7917 112.951 55.7917ZM112.951 43.1936C111.542 43.1936 110.369 42.0198 110.369 40.6113C110.369 39.2028 111.542 38.0291 112.951 38.0291C114.359 38.0291 115.533 39.2028 115.533 40.6113C115.533 42.0198 114.359 43.1936 112.951 43.1936ZM112.951 30.5172C111.542 30.5172 110.369 29.3434 110.369 27.9349C110.369 26.5264 111.542 25.3527 112.951 25.3527C114.359 25.3527 115.533 26.5264 115.533 27.9349C115.533 29.3434 114.359 30.5172 112.951 30.5172ZM112.951 17.8407C111.542 17.8407 110.369 16.667 110.369 15.2585C110.369 13.85 111.542 12.6763 112.951 12.6763C114.359 12.6763 115.533 13.85 115.533 15.2585C115.533 16.667 114.359 17.8407 112.951 17.8407Z" fill="white"/>
<path d="M112.951 93.7425C112.247 93.7425 111.621 93.4295 111.151 92.9601C110.682 92.4906 110.369 91.7863 110.369 91.1603C110.369 91.0038 110.369 90.8473 110.447 90.6908C110.447 90.5343 110.525 90.3778 110.603 90.2213C110.682 90.0648 110.76 89.9083 110.838 89.7518C110.916 89.5953 111.073 89.4388 111.151 89.3606C111.777 88.7346 112.638 88.4998 113.499 88.6563C113.655 88.6563 113.812 88.7346 113.968 88.8128C114.125 88.8911 114.281 88.9693 114.438 89.0476C114.594 89.1258 114.751 89.2823 114.829 89.3606C115.298 89.8301 115.611 90.5343 115.611 91.1603C115.611 91.8646 115.298 92.4906 114.829 92.9601C114.672 93.1165 114.594 93.1948 114.438 93.273C114.281 93.3513 114.125 93.4295 113.968 93.5078C113.812 93.586 113.655 93.586 113.499 93.6643C113.264 93.7425 113.107 93.7425 112.951 93.7425Z" fill="white"/>
</g>
<g clip-path="url(#clip1_3307_122668)">
<path d="M2.58223 5.16395C2.42573 5.16395 2.26924 5.16395 2.11274 5.0857C1.95624 5.0857 1.79974 5.0857 1.56499 5.00745C1.40849 4.9292 1.33024 4.85095 1.17374 4.7727C1.01724 4.69445 0.860744 4.53795 0.782495 4.4597C0.625996 4.3032 0.547746 4.1467 0.469497 4.06845C0.312998 3.91195 0.234748 3.75546 0.234748 3.59896C0.156499 3.44246 0.0782495 3.28596 0.0782495 3.12946C0 2.97296 0 2.73821 0 2.58171C0 2.42521 0 2.26872 0.0782495 2.11222C0.0782495 1.95572 0.156499 1.79922 0.234748 1.64272C0.312998 1.48622 0.391247 1.32972 0.469497 1.17322C0.547746 1.01672 0.625996 0.860225 0.782495 0.781976C0.938994 0.625477 1.01724 0.547227 1.17374 0.468978C1.33024 0.312479 1.40849 0.234229 1.56499 0.234229C1.72149 0.15598 1.87799 0.15598 2.03449 0.0777301C2.42573 -0.000519402 2.73873 -0.000519402 3.12998 0.0777301C3.28648 0.0777301 3.44298 0.15598 3.59948 0.234229C3.75598 0.234229 3.91247 0.312479 4.06897 0.468978C4.14722 0.547227 4.30372 0.625477 4.46022 0.781976C4.53847 0.860225 4.69497 1.01672 4.77322 1.17322C4.85147 1.32972 4.92972 1.48622 5.00797 1.64272C5.08622 1.79922 5.08622 1.95572 5.16447 2.11222C5.16447 2.26872 5.24272 2.42521 5.24272 2.58171C5.24272 2.73821 5.24272 2.89471 5.16447 3.12946C5.16447 3.28596 5.08622 3.44246 5.00797 3.59896C4.92972 3.75546 4.85147 3.91195 4.77322 4.06845C4.69497 4.1467 4.53847 4.3032 4.46022 4.4597C4.30372 4.53795 4.14722 4.69445 4.06897 4.7727C3.91247 4.85095 3.75598 4.9292 3.59948 5.00745C3.44298 5.0857 3.28648 5.0857 3.12998 5.16395C2.97348 5.16395 2.73873 5.16395 2.58223 5.16395Z" fill="white"/>
<path d="M2.58223 81.1451C1.17374 81.1451 0 79.9713 0 78.5628C0 77.1543 1.17374 75.9024 2.58223 75.9024C3.99072 75.9024 5.16447 77.0761 5.16447 78.4846C5.16447 79.9713 4.06897 81.1451 2.58223 81.1451ZM2.58223 68.4687C1.17374 68.4687 0 67.2949 0 65.8864C0 64.4779 1.17374 63.3042 2.58223 63.3042C3.99072 63.3042 5.16447 64.4779 5.16447 65.8864C5.16447 67.2949 4.06897 68.4687 2.58223 68.4687ZM2.58223 55.7922C1.17374 55.7922 0 54.6185 0 53.21C0 51.8015 1.17374 50.6278 2.58223 50.6278C3.99072 50.6278 5.16447 51.8015 5.16447 53.21C5.16447 54.6185 4.06897 55.7922 2.58223 55.7922ZM2.58223 43.1941C1.17374 43.1941 0 42.0203 0 40.6118C0 39.2033 1.17374 38.0296 2.58223 38.0296C3.99072 38.0296 5.16447 39.2033 5.16447 40.6118C5.16447 42.0203 4.06897 43.1941 2.58223 43.1941ZM2.58223 30.5176C1.17374 30.5176 0 29.3439 0 27.9354C0 26.5269 1.17374 25.3532 2.58223 25.3532C3.99072 25.3532 5.16447 26.5269 5.16447 27.9354C5.16447 29.3439 4.06897 30.5176 2.58223 30.5176ZM2.58223 17.8412C1.17374 17.8412 0 16.6675 0 15.259C0 13.8505 1.17374 12.6768 2.58223 12.6768C3.99072 12.6768 5.16447 13.8505 5.16447 15.259C5.16447 16.6675 4.06897 17.8412 2.58223 17.8412Z" fill="white"/>
<path d="M2.58223 93.7432C2.42573 93.7432 2.26924 93.7432 2.11274 93.6649C1.95624 93.6649 1.79974 93.5867 1.64324 93.5084C1.48674 93.4302 1.33024 93.3519 1.17374 93.2737C1.01724 93.1954 0.860744 93.0389 0.782495 92.9607C0.625996 92.8824 0.547746 92.7259 0.469497 92.5694C0.391247 92.4129 0.312998 92.2564 0.234748 92.0999C0.156499 91.9434 0.156499 91.7869 0.0782495 91.6304C0.0782495 91.4739 0 91.3175 0 91.0827C0 90.3785 0.312998 89.7525 0.782495 89.283C0.938994 89.1265 1.01724 89.0482 1.17374 88.97C1.33024 88.8917 1.48674 88.8135 1.64324 88.7352C1.79974 88.657 1.95624 88.657 2.11274 88.5787C2.42573 88.5005 2.81698 88.5005 3.12998 88.5787C3.28648 88.5787 3.44298 88.657 3.59948 88.7352C3.75598 88.8135 3.91247 88.8917 4.06897 88.97C4.22547 89.0482 4.38197 89.2047 4.46022 89.283C4.92972 89.7525 5.24272 90.4567 5.24272 91.0827C5.24272 91.2392 5.24272 91.3957 5.16447 91.6304C5.16447 91.7869 5.08622 91.9434 5.00797 92.0999C4.92972 92.2564 4.85147 92.4129 4.77322 92.5694C4.69497 92.7259 4.53847 92.8824 4.46022 92.9607C4.30372 93.1172 4.22547 93.1954 4.06897 93.2737C3.91247 93.3519 3.75598 93.4302 3.59948 93.5084C3.44298 93.5867 3.28648 93.5867 3.12998 93.6649C2.97348 93.7432 2.73873 93.7432 2.58223 93.7432Z" fill="white"/>
<path d="M91.1606 5.16456C90.4564 5.16456 89.8304 4.85156 89.3609 4.38206C89.2044 4.30381 89.1261 4.14732 89.0479 3.99082C88.9696 3.83432 88.8914 3.67782 88.8131 3.52132C88.7349 3.36482 88.7349 3.20832 88.6566 3.05182C88.6566 2.89532 88.5784 2.73883 88.5784 2.50408C88.5784 2.34758 88.5784 2.19108 88.6566 2.03458C88.6566 1.87808 88.7349 1.72158 88.8131 1.56508C88.8914 1.40858 88.9696 1.25209 89.0479 1.09559C89.1261 0.939087 89.2826 0.782588 89.3609 0.704339C89.5174 0.54784 89.5956 0.46959 89.7521 0.391341C89.9086 0.313091 90.0651 0.234842 90.2216 0.156592C90.3781 0.0783428 90.5346 0.0783428 90.6911 9.33595e-05C91.0041 -0.0781561 91.3954 -0.0781561 91.7083 9.33595e-05C91.8648 9.33595e-05 92.0214 0.0783428 92.1779 0.156592C92.3344 0.234842 92.4908 0.313091 92.6473 0.391341C92.8038 0.46959 92.8821 0.626089 93.0386 0.704339C93.1951 0.860838 93.2733 0.939087 93.3516 1.09559C93.4298 1.25209 93.5081 1.40858 93.5863 1.56508C93.6646 1.72158 93.6646 1.87808 93.7428 2.03458C93.7428 2.19108 93.8211 2.34758 93.8211 2.50408C93.8211 2.66058 93.8211 2.81707 93.7428 3.05182C93.7428 3.20832 93.6646 3.36482 93.5863 3.52132C93.5081 3.67782 93.4298 3.83432 93.3516 3.99082C93.2733 4.14732 93.1168 4.30381 93.0386 4.38206C92.5691 4.92981 91.8649 5.16456 91.1606 5.16456Z" fill="white"/>
<path d="M91.1606 81.1451C89.7521 81.1451 88.5784 79.9713 88.5784 78.5628C88.5784 77.1543 89.7521 75.9806 91.1606 75.9806C92.5691 75.9806 93.7428 77.1543 93.7428 78.5628C93.7428 79.9713 92.6473 81.1451 91.1606 81.1451ZM91.1606 68.4686C89.7521 68.4686 88.5784 67.2949 88.5784 65.8864C88.5784 64.4779 89.7521 63.3042 91.1606 63.3042C92.5691 63.3042 93.7428 64.4779 93.7428 65.8864C93.7428 67.2949 92.6473 68.4686 91.1606 68.4686ZM91.1606 55.7922C89.7521 55.7922 88.5784 54.6185 88.5784 53.21C88.5784 51.8015 89.7521 50.6278 91.1606 50.6278C92.5691 50.6278 93.7428 51.8015 93.7428 53.21C93.7428 54.6185 92.6473 55.7922 91.1606 55.7922ZM91.1606 43.1941C89.7521 43.1941 88.5784 42.0203 88.5784 40.6118C88.5784 39.2033 89.7521 38.0296 91.1606 38.0296C92.5691 38.0296 93.7428 39.2033 93.7428 40.6118C93.7428 42.0203 92.6473 43.1941 91.1606 43.1941ZM91.1606 30.5176C89.7521 30.5176 88.5784 29.3439 88.5784 27.9354C88.5784 26.5269 89.7521 25.3532 91.1606 25.3532C92.5691 25.3532 93.7428 26.5269 93.7428 27.9354C93.7428 29.3439 92.6473 30.5176 91.1606 30.5176ZM91.1606 17.8412C89.7521 17.8412 88.5784 16.6675 88.5784 15.259C88.5784 13.8505 89.7521 12.6768 91.1606 12.6768C92.5691 12.6768 93.7428 13.8505 93.7428 15.259C93.7428 16.6675 92.6473 17.8412 91.1606 17.8412Z" fill="white"/>
<path d="M91.1606 93.7432C90.4564 93.7432 89.8304 93.4302 89.3609 92.9607C89.2044 92.8042 89.1261 92.7259 89.0479 92.5694C88.9696 92.4129 88.8914 92.2564 88.8131 92.0999C88.7349 91.9434 88.7349 91.7869 88.6566 91.6304C88.6566 91.4739 88.5784 91.3174 88.5784 91.0827C88.5784 90.3785 88.8914 89.7525 89.3609 89.283C89.5174 89.1265 89.5956 89.0482 89.7521 88.97C89.9086 88.8917 90.0651 88.8135 90.2216 88.7352C90.3781 88.657 90.5346 88.657 90.6911 88.5787C91.0041 88.5005 91.3954 88.5005 91.7083 88.5787C91.8648 88.5787 92.0214 88.657 92.1779 88.7352C92.3344 88.8135 92.4908 88.8917 92.6473 88.97C92.8038 89.0482 92.8821 89.2047 93.0386 89.283C93.5081 89.7525 93.8211 90.4567 93.8211 91.0827C93.8211 91.2392 93.8211 91.3957 93.7428 91.6304C93.7428 91.7869 93.6646 91.9434 93.5863 92.0999C93.5081 92.2564 93.4298 92.4129 93.3516 92.5694C93.2733 92.7259 93.1168 92.8824 93.0386 92.9607C92.5691 93.5084 91.8649 93.7432 91.1606 93.7432Z" fill="white"/>
<path d="M80.1275 5.16447C79.971 5.16447 79.8145 5.16447 79.658 5.08622C79.5015 5.08622 79.345 5.00797 79.1885 4.92972C79.032 4.85147 78.8755 4.77322 78.719 4.69497C78.5625 4.61672 78.406 4.46022 78.3278 4.38197C77.8583 3.91247 77.5453 3.20823 77.5453 2.50398C77.5453 2.34748 77.5453 2.19099 77.6235 2.03449C77.6235 1.87799 77.7018 1.72149 77.78 1.56499C77.8583 1.40849 77.9365 1.25199 78.0148 1.09549C78.093 0.938994 78.2495 0.782495 78.3278 0.704245C79.2668 -0.234748 81.0665 -0.234748 82.0055 0.704245C82.0838 0.860744 82.2402 0.938994 82.3185 1.09549C82.3967 1.25199 82.475 1.40849 82.5532 1.56499C82.6315 1.72149 82.6315 1.87799 82.7097 2.03449C82.7097 2.19099 82.788 2.34748 82.788 2.50398C82.788 3.20823 82.475 3.83422 82.0055 4.38197C81.4578 4.92972 80.7535 5.16447 80.1275 5.16447Z" fill="white"/>
<path d="M80.1275 81.1446C78.719 81.1446 77.5453 79.9708 77.5453 78.5623C77.5453 77.1538 78.719 75.9801 80.1275 75.9801C81.536 75.9801 82.7098 77.1538 82.7098 78.5623C82.7098 79.9708 81.536 81.1446 80.1275 81.1446ZM80.1275 68.4682C78.719 68.4682 77.5453 67.2944 77.5453 65.8859C77.5453 64.4774 78.719 63.3037 80.1275 63.3037C81.536 63.3037 82.7098 64.4774 82.7098 65.8859C82.7098 67.2944 81.536 68.4682 80.1275 68.4682ZM80.1275 55.7917C78.719 55.7917 77.5453 54.618 77.5453 53.2095C77.5453 51.801 78.719 50.6273 80.1275 50.6273C81.536 50.6273 82.7098 51.801 82.7098 53.2095C82.7098 54.618 81.536 55.7917 80.1275 55.7917ZM80.1275 43.1936C78.719 43.1936 77.5453 42.0198 77.5453 40.6113C77.5453 39.2028 78.719 38.0291 80.1275 38.0291C81.536 38.0291 82.7098 39.2028 82.7098 40.6113C82.7098 42.0198 81.536 43.1936 80.1275 43.1936ZM80.1275 30.5172C78.719 30.5172 77.5453 29.3434 77.5453 27.9349C77.5453 26.5264 78.719 25.3527 80.1275 25.3527C81.536 25.3527 82.7098 26.5264 82.7098 27.9349C82.7098 29.3434 81.536 30.5172 80.1275 30.5172ZM80.1275 17.8407C78.719 17.8407 77.5453 16.667 77.5453 15.2585C77.5453 13.85 78.719 12.6763 80.1275 12.6763C81.536 12.6763 82.7098 13.85 82.7098 15.2585C82.7098 16.667 81.536 17.8407 80.1275 17.8407Z" fill="white"/>
<path d="M80.1275 93.743C79.971 93.743 79.8145 93.7429 79.658 93.6647C79.5015 93.6647 79.345 93.5864 79.1885 93.5082C79.032 93.43 78.8755 93.3517 78.719 93.2734C78.5625 93.1952 78.406 93.0387 78.3278 92.9605C77.8583 92.491 77.5453 91.7867 77.5453 91.1607C77.5453 91.0042 77.5453 90.8477 77.6235 90.6912C77.6235 90.5347 77.7018 90.3782 77.78 90.2217C77.8583 90.0652 77.9365 89.9087 78.0148 89.7522C78.093 89.5957 78.2495 89.4392 78.3278 89.361C79.2668 88.422 81.0665 88.422 82.0055 89.361C82.0838 89.5175 82.2402 89.5957 82.3185 89.7522C82.3967 89.9087 82.475 90.0652 82.5532 90.2217C82.6315 90.3782 82.6315 90.5347 82.7097 90.6912C82.7097 90.8477 82.788 91.0042 82.788 91.1607C82.788 91.865 82.475 92.491 82.0055 92.9605C81.4578 93.5082 80.7535 93.743 80.1275 93.743Z" fill="white"/>
<path d="M69.0162 5.24267C68.3119 5.24267 67.686 4.92967 67.2165 4.46017C67.06 4.30367 66.9817 4.22542 66.9035 4.06892C66.8252 3.91242 66.747 3.75593 66.6687 3.59943C66.5905 3.44293 66.5122 3.28643 66.5122 3.12993C66.5122 2.97343 66.434 2.81693 66.434 2.58218C66.434 1.87794 66.747 1.25194 67.2165 0.782445C67.2947 0.625946 67.4512 0.547697 67.6077 0.469447C67.7642 0.391198 67.9207 0.312948 68.0772 0.234699C68.2337 0.156449 68.3902 0.156449 68.5467 0.0781997C69.4074 -0.0782993 70.2682 0.156449 70.8942 0.782445C71.3637 1.25194 71.6767 1.95619 71.6767 2.58218C71.6767 2.73868 71.6767 2.89518 71.5984 3.12993C71.5984 3.28643 71.5202 3.44293 71.4419 3.59943C71.3637 3.75593 71.2854 3.91242 71.2072 4.06892C71.1289 4.22542 70.9724 4.38192 70.8942 4.46017C70.7377 4.53842 70.6594 4.69492 70.5029 4.77317C70.3464 4.85142 70.1899 4.92967 70.0334 5.00792C69.8769 5.08617 69.7204 5.16442 69.5639 5.16442C69.4074 5.16442 69.1727 5.24267 69.0162 5.24267Z" fill="white"/>
<path d="M69.0162 81.1446C67.6077 81.1446 66.434 79.9708 66.434 78.5623C66.434 77.1539 67.6077 75.9801 69.0162 75.9801C70.4247 75.9801 71.5984 77.1539 71.5984 78.5623C71.5984 79.9708 70.5029 81.1446 69.0162 81.1446ZM69.0162 68.4682C67.6077 68.4682 66.434 67.2944 66.434 65.8859C66.434 64.4774 67.6077 63.3037 69.0162 63.3037C70.4247 63.3037 71.5984 64.4774 71.5984 65.8859C71.5984 67.2944 70.5029 68.4682 69.0162 68.4682ZM69.0162 55.7917C67.6077 55.7917 66.434 54.618 66.434 53.2095C66.434 51.801 67.6077 50.6273 69.0162 50.6273C70.4247 50.6273 71.5984 51.801 71.5984 53.2095C71.5984 54.618 70.5029 55.7917 69.0162 55.7917ZM69.0162 43.1936C67.6077 43.1936 66.434 42.0198 66.434 40.6113C66.434 39.2028 67.6077 38.0291 69.0162 38.0291C70.4247 38.0291 71.5984 39.2028 71.5984 40.6113C71.5984 42.0198 70.5029 43.1936 69.0162 43.1936ZM69.0162 30.5172C67.6077 30.5172 66.434 29.3434 66.434 27.9349C66.434 26.5264 67.6077 25.3527 69.0162 25.3527C70.4247 25.3527 71.5984 26.5264 71.5984 27.9349C71.5984 29.3434 70.5029 30.5172 69.0162 30.5172ZM69.0162 17.8407C67.6077 17.8407 66.434 16.667 66.434 15.2585C66.434 13.85 67.6077 12.6763 69.0162 12.6763C70.4247 12.6763 71.5984 13.85 71.5984 15.2585C71.5984 16.667 70.5029 17.8407 69.0162 17.8407Z" fill="white"/>
<path d="M69.0161 93.743C68.8596 93.743 68.7031 93.743 68.4683 93.6648C68.3118 93.6648 68.1553 93.5865 67.9988 93.5083C67.8423 93.43 67.6858 93.3518 67.5293 93.2735C67.3728 93.1953 67.2163 93.0388 67.1381 92.9605C66.6686 92.491 66.3556 91.7868 66.3556 91.1608C66.3556 90.4565 66.6686 89.8306 67.1381 89.3611C67.2163 89.2046 67.3728 89.1263 67.5293 89.0481C67.6858 88.9698 67.8423 88.8916 67.9988 88.8133C68.1553 88.7351 68.3118 88.7351 68.4683 88.6568C69.3291 88.5003 70.1898 88.7351 70.8158 89.3611C71.2853 89.8306 71.5983 90.5348 71.5983 91.1608C71.5983 91.865 71.2853 92.491 70.8158 92.9605C70.4246 93.5083 69.7203 93.743 69.0161 93.743Z" fill="white"/>
<path d="M57.9829 5.16442C57.2786 5.16442 56.6526 4.85142 56.1831 4.38192C55.7136 3.91242 55.4006 3.20818 55.4006 2.58218C55.4006 2.42568 55.4006 2.26919 55.4789 2.11269C55.4789 1.95619 55.5571 1.79969 55.6354 1.64319C55.7136 1.48669 55.7919 1.33019 55.8701 1.17369C55.9484 1.01719 56.1049 0.860695 56.1831 0.782445C56.8091 0.156449 57.6699 -0.0782993 58.5306 0.0781997C58.6871 0.0781997 58.8436 0.156449 59.0001 0.234699C59.1566 0.312948 59.3131 0.391198 59.4696 0.469447C59.6261 0.547697 59.7044 0.704196 59.8609 0.782445C60.0173 0.938944 60.0956 1.01719 60.1738 1.17369C60.2521 1.33019 60.3303 1.48669 60.4086 1.64319C60.4868 1.79969 60.4868 1.95619 60.5651 2.11269C60.5651 2.26919 60.6433 2.42568 60.6433 2.58218C60.6433 2.73868 60.6433 2.89518 60.5651 3.12993C60.5651 3.28643 60.4868 3.44293 60.4086 3.59943C60.3303 3.75593 60.2521 3.91242 60.0956 4.06892C60.0174 4.22542 59.8609 4.38192 59.7826 4.46017C59.6261 4.61667 59.5479 4.69492 59.3914 4.77317C59.2349 4.85142 59.0784 4.92967 58.9219 5.00792C58.7654 5.08617 58.6089 5.16442 58.4524 5.16442C58.2959 5.16442 58.1394 5.16442 57.9829 5.16442Z" fill="white"/>
<path d="M57.9829 81.1446C56.5744 81.1446 55.4006 79.9708 55.4006 78.5623C55.4006 77.1539 56.5744 75.9801 57.9829 75.9801C59.3914 75.9801 60.5651 77.1539 60.5651 78.5623C60.5651 79.9708 59.3914 81.1446 57.9829 81.1446ZM57.9829 68.4682C56.5744 68.4682 55.4006 67.2944 55.4006 65.8859C55.4006 64.4774 56.5744 63.3037 57.9829 63.3037C59.3914 63.3037 60.5651 64.4774 60.5651 65.8859C60.5651 67.2944 59.3914 68.4682 57.9829 68.4682ZM57.9829 55.7917C56.5744 55.7917 55.4006 54.618 55.4006 53.2095C55.4006 51.801 56.5744 50.6273 57.9829 50.6273C59.3914 50.6273 60.5651 51.801 60.5651 53.2095C60.5651 54.618 59.3914 55.7917 57.9829 55.7917ZM57.9829 43.1936C56.5744 43.1936 55.4006 42.0198 55.4006 40.6113C55.4006 39.2028 56.5744 38.0291 57.9829 38.0291C59.3914 38.0291 60.5651 39.2028 60.5651 40.6113C60.5651 42.0198 59.3914 43.1936 57.9829 43.1936ZM57.9829 30.5172C56.5744 30.5172 55.4006 29.3434 55.4006 27.9349C55.4006 26.5264 56.5744 25.3527 57.9829 25.3527C59.3914 25.3527 60.5651 26.5264 60.5651 27.9349C60.5651 29.3434 59.3914 30.5172 57.9829 30.5172ZM57.9829 17.8407C56.5744 17.8407 55.4006 16.667 55.4006 15.2585C55.4006 13.85 56.5744 12.6763 57.9829 12.6763C59.3914 12.6763 60.5651 13.85 60.5651 15.2585C60.5651 16.667 59.3914 17.8407 57.9829 17.8407Z" fill="white"/>
<path d="M57.9829 93.743C57.2786 93.743 56.6526 93.43 56.1831 92.9605C55.7136 92.491 55.4006 91.7868 55.4006 91.1608C55.4006 91.0043 55.4006 90.8478 55.4789 90.6913C55.4789 90.5348 55.5571 90.3783 55.6354 90.2218C55.7136 90.0653 55.7919 89.9088 55.8701 89.7523C55.9484 89.5958 56.1049 89.4393 56.1831 89.3611C56.3396 89.2046 56.4179 89.1263 56.5744 89.0481C56.7309 88.9698 56.8874 88.8916 57.0439 88.8133C57.2004 88.7351 57.3569 88.7351 57.5134 88.6568C58.3741 88.5003 59.2349 88.7351 59.8609 89.3611C60.3303 89.8306 60.6433 90.5348 60.6433 91.1608C60.6433 91.3173 60.6433 91.4738 60.5651 91.7085C60.5651 91.865 60.4868 92.0215 60.4086 92.178C60.3303 92.3345 60.2521 92.491 60.1738 92.6475C60.0956 92.804 59.9391 92.9605 59.8609 93.0388C59.7044 93.1953 59.6261 93.2735 59.4696 93.3518C59.3131 93.43 59.1566 93.5083 59.0001 93.5865C58.8436 93.6648 58.6871 93.6648 58.5306 93.743C58.2959 93.743 58.1394 93.743 57.9829 93.743Z" fill="white"/>
<path d="M46.8714 5.16447C46.7149 5.16447 46.5584 5.16447 46.3237 5.08622C46.1672 5.08622 46.0107 5.00797 45.8542 4.92972C45.6977 4.85147 45.5412 4.77322 45.3847 4.69497C45.2282 4.61672 45.0717 4.46022 44.9934 4.38197C44.5239 3.91247 44.2109 3.20823 44.2109 2.50398C44.2109 2.34748 44.2109 2.19099 44.2892 2.03449C44.2892 1.87799 44.3674 1.72149 44.4457 1.56499C44.5239 1.40849 44.6022 1.25199 44.6804 1.09549C44.7587 0.938994 44.9152 0.782495 44.9934 0.704245C45.9324 -0.234748 47.7322 -0.234748 48.6712 0.704245C48.8277 0.860744 48.9059 0.938994 48.9841 1.09549C49.0624 1.25199 49.1407 1.40849 49.2189 1.56499C49.2971 1.72149 49.2971 1.87799 49.3754 2.03449C49.3754 2.19099 49.4536 2.34748 49.4536 2.50398C49.4536 3.20823 49.1406 3.83422 48.6712 4.38197C48.5147 4.46022 48.4364 4.61672 48.2799 4.69497C48.1234 4.77322 47.9669 4.85147 47.8104 4.92972C47.6539 5.00797 47.4974 5.08622 47.3409 5.08622C47.2627 5.16447 47.0279 5.16447 46.8714 5.16447Z" fill="white"/>
<path d="M46.8714 81.1446C45.4629 81.1446 44.2892 79.9708 44.2892 78.5623C44.2892 77.1538 45.4629 75.9801 46.8714 75.9801C48.2799 75.9801 49.4536 77.1538 49.4536 78.5623C49.4536 79.9708 48.3582 81.1446 46.8714 81.1446ZM46.8714 68.4682C45.4629 68.4682 44.2892 67.2944 44.2892 65.8859C44.2892 64.4774 45.4629 63.3037 46.8714 63.3037C48.2799 63.3037 49.4536 64.4774 49.4536 65.8859C49.4536 67.2944 48.3582 68.4682 46.8714 68.4682ZM46.8714 55.7917C45.4629 55.7917 44.2892 54.618 44.2892 53.2095C44.2892 51.801 45.4629 50.6273 46.8714 50.6273C48.2799 50.6273 49.4536 51.801 49.4536 53.2095C49.4536 54.618 48.3582 55.7917 46.8714 55.7917ZM46.8714 43.1936C45.4629 43.1936 44.2892 42.0198 44.2892 40.6113C44.2892 39.2028 45.4629 38.0291 46.8714 38.0291C48.2799 38.0291 49.4536 39.2028 49.4536 40.6113C49.4536 42.0198 48.3582 43.1936 46.8714 43.1936ZM46.8714 30.5172C45.4629 30.5172 44.2892 29.3434 44.2892 27.9349C44.2892 26.5264 45.4629 25.3527 46.8714 25.3527C48.2799 25.3527 49.4536 26.5264 49.4536 27.9349C49.4536 29.3434 48.3582 30.5172 46.8714 30.5172ZM46.8714 17.8407C45.4629 17.8407 44.2892 16.667 44.2892 15.2585C44.2892 13.85 45.4629 12.6763 46.8714 12.6763C48.2799 12.6763 49.4536 13.85 49.4536 15.2585C49.4536 16.667 48.3582 17.8407 46.8714 17.8407Z" fill="white"/>
<path d="M46.8714 93.743C46.7149 93.743 46.5584 93.7429 46.3237 93.6647C46.1672 93.6647 46.0107 93.5864 45.8542 93.5082C45.6977 93.43 45.5412 93.3517 45.3847 93.2734C45.2282 93.1952 45.0717 93.0387 44.9934 92.9605C44.5239 92.491 44.2109 91.7867 44.2109 91.1607C44.2109 90.4565 44.5239 89.8305 44.9934 89.361C45.9324 88.422 47.7322 88.422 48.6712 89.361C48.8277 89.5175 48.9059 89.5957 48.9841 89.7522C49.0624 89.9087 49.1407 90.0652 49.2189 90.2217C49.2971 90.3782 49.2971 90.5347 49.3754 90.6912C49.3754 90.8477 49.4536 91.0042 49.4536 91.1607C49.4536 91.3172 49.4536 91.4737 49.3754 91.7085C49.3754 91.865 49.2971 92.0215 49.2189 92.178C49.1407 92.3345 49.0624 92.491 48.9841 92.6475C48.9059 92.804 48.7494 92.9605 48.6712 93.0387C48.2799 93.5082 47.5757 93.743 46.8714 93.743Z" fill="white"/>
<path d="M35.8383 5.16434C35.6818 5.16434 35.5253 5.16434 35.2906 5.08609C35.1341 5.08609 34.9776 5.00784 34.8211 4.92959C34.6646 4.85134 34.5081 4.77309 34.3516 4.69484C34.1951 4.6166 34.1168 4.4601 33.9604 4.38185C33.4909 3.91235 33.1779 3.2081 33.1779 2.58211C33.1779 1.87786 33.4909 1.25187 33.9604 0.78237C34.8993 -0.156623 36.6991 -0.156623 37.6381 0.78237C37.7946 0.938869 37.8728 1.01712 37.9511 1.17362C38.0293 1.33012 38.1076 1.48662 38.1858 1.64311C38.2641 1.79961 38.3423 1.95611 38.3423 2.11261C38.3423 2.26911 38.4206 2.42561 38.4206 2.58211C38.4206 3.28635 38.1076 3.91235 37.6381 4.38185C37.1686 4.92959 36.4643 5.16434 35.8383 5.16434Z" fill="white"/>
<path d="M35.8383 81.1446C34.4298 81.1446 33.2561 79.9708 33.2561 78.5623C33.2561 77.1538 34.4298 75.9801 35.8383 75.9801C37.2468 75.9801 38.4206 77.1538 38.4206 78.5623C38.4206 79.9708 37.2468 81.1446 35.8383 81.1446ZM35.8383 68.4682C34.4298 68.4682 33.2561 67.2944 33.2561 65.8859C33.2561 64.4774 34.4298 63.3037 35.8383 63.3037C37.2468 63.3037 38.4206 64.4774 38.4206 65.8859C38.4206 67.2944 37.2468 68.4682 35.8383 68.4682ZM35.8383 55.7917C34.4298 55.7917 33.2561 54.618 33.2561 53.2095C33.2561 51.801 34.4298 50.6273 35.8383 50.6273C37.2468 50.6273 38.4206 51.801 38.4206 53.2095C38.4206 54.618 37.2468 55.7917 35.8383 55.7917ZM35.8383 43.1936C34.4298 43.1936 33.2561 42.0198 33.2561 40.6113C33.2561 39.2028 34.4298 38.0291 35.8383 38.0291C37.2468 38.0291 38.4206 39.2028 38.4206 40.6113C38.4206 42.0198 37.2468 43.1936 35.8383 43.1936ZM35.8383 30.5172C34.4298 30.5172 33.2561 29.3434 33.2561 27.9349C33.2561 26.5264 34.4298 25.3527 35.8383 25.3527C37.2468 25.3527 38.4206 26.5264 38.4206 27.9349C38.4206 29.3434 37.2468 30.5172 35.8383 30.5172ZM35.8383 17.8407C34.4298 17.8407 33.2561 16.667 33.2561 15.2585C33.2561 13.85 34.4298 12.6763 35.8383 12.6763C37.2468 12.6763 38.4206 13.85 38.4206 15.2585C38.4206 16.667 37.2468 17.8407 35.8383 17.8407Z" fill="white"/>
<path d="M35.8383 93.7425C35.1341 93.7425 34.5081 93.4295 34.0386 92.9601C33.5691 92.4906 33.2561 91.7863 33.2561 91.1603C33.2561 91.0038 33.2561 90.8473 33.3344 90.6908C33.3344 90.5343 33.4126 90.3778 33.4909 90.2213C33.5691 90.0648 33.6473 89.9083 33.7256 89.7518C33.8038 89.5953 33.9603 89.4388 34.0386 89.3606C34.1951 89.2041 34.2733 89.1258 34.4298 89.0476C34.5863 88.9693 34.7428 88.8911 34.8993 88.8128C35.0558 88.7346 35.2123 88.7346 35.3688 88.6563C36.2296 88.4998 37.0903 88.7346 37.7163 89.3606C38.1858 89.8301 38.4988 90.5343 38.4988 91.1603C38.4988 91.3168 38.4988 91.4733 38.4206 91.7081C38.4206 91.8646 38.3423 92.0211 38.2641 92.1776C38.1858 92.3341 38.1076 92.4906 38.0293 92.6471C37.9511 92.8036 37.7946 92.96 37.7163 93.0383C37.1686 93.5078 36.4643 93.7425 35.8383 93.7425Z" fill="white"/>
<path d="M24.7269 5.16442C24.5704 5.16442 24.4139 5.16442 24.2574 5.08617C24.1009 5.08617 23.9444 5.00792 23.7879 4.92967C23.6314 4.85142 23.4749 4.77317 23.3184 4.69492C23.1619 4.61667 23.0054 4.46017 22.9271 4.38192C22.4577 3.91242 22.1447 3.20818 22.1447 2.58218C22.1447 1.87794 22.4577 1.25194 22.9271 0.782445C23.5531 0.156449 24.4139 -0.0782993 25.2746 0.0781997C25.4311 0.0781997 25.5876 0.156449 25.7441 0.234699C25.9006 0.312948 26.0571 0.391198 26.2136 0.469447C26.2919 0.547697 26.4484 0.625946 26.6049 0.782445C27.0744 1.25194 27.3874 1.95619 27.3874 2.58218C27.3874 2.73868 27.3874 2.89518 27.3091 3.12993C27.3091 3.28643 27.2309 3.44293 27.1526 3.59943C27.0744 3.75593 26.9961 3.91242 26.9179 4.06892C26.8396 4.22542 26.6831 4.38192 26.6049 4.46017C26.5266 4.61667 26.3701 4.69492 26.2136 4.77317C26.0571 4.85142 25.9006 4.92967 25.7441 5.00792C25.5876 5.08617 25.4311 5.16442 25.2746 5.16442C25.1181 5.16442 24.8834 5.16442 24.7269 5.16442Z" fill="white"/>
<path d="M24.7269 81.1446C23.3184 81.1446 22.1447 79.9708 22.1447 78.5623C22.1447 77.1539 23.3184 75.9801 24.7269 75.9801C26.1354 75.9801 27.3091 77.1539 27.3091 78.5623C27.3091 79.9708 26.2136 81.1446 24.7269 81.1446ZM24.7269 68.4682C23.3184 68.4682 22.1447 67.2944 22.1447 65.8859C22.1447 64.4774 23.3184 63.3037 24.7269 63.3037C26.1354 63.3037 27.3091 64.4774 27.3091 65.8859C27.3091 67.2944 26.2136 68.4682 24.7269 68.4682ZM24.7269 55.7917C23.3184 55.7917 22.1447 54.618 22.1447 53.2095C22.1447 51.801 23.3184 50.6273 24.7269 50.6273C26.1354 50.6273 27.3091 51.801 27.3091 53.2095C27.3091 54.618 26.2136 55.7917 24.7269 55.7917ZM24.7269 43.1936C23.3184 43.1936 22.1447 42.0198 22.1447 40.6113C22.1447 39.2028 23.3184 38.0291 24.7269 38.0291C26.1354 38.0291 27.3091 39.2028 27.3091 40.6113C27.3091 42.0198 26.2136 43.1936 24.7269 43.1936ZM24.7269 30.5172C23.3184 30.5172 22.1447 29.3434 22.1447 27.9349C22.1447 26.5264 23.3184 25.3527 24.7269 25.3527C26.1354 25.3527 27.3091 26.5264 27.3091 27.9349C27.3091 29.3434 26.2136 30.5172 24.7269 30.5172ZM24.7269 17.8407C23.3184 17.8407 22.1447 16.667 22.1447 15.2585C22.1447 13.85 23.3184 12.6763 24.7269 12.6763C26.1354 12.6763 27.3091 13.85 27.3091 15.2585C27.3091 16.667 26.2136 17.8407 24.7269 17.8407Z" fill="white"/>
<path d="M24.7269 93.743C24.5704 93.743 24.4139 93.743 24.2574 93.6648C24.1009 93.6648 23.9444 93.5865 23.7879 93.5083C23.6314 93.43 23.4749 93.3518 23.3184 93.2735C23.1619 93.1953 23.0054 93.0388 22.9271 92.9605C22.4577 92.491 22.1447 91.7868 22.1447 91.1608C22.1447 90.4565 22.4577 89.8306 22.9271 89.3611C23.5531 88.7351 24.4139 88.5003 25.2746 88.6568C25.4311 88.6568 25.5876 88.7351 25.7441 88.8133C25.9006 88.8916 26.0571 88.9698 26.2136 89.0481C26.3701 89.1263 26.5266 89.2828 26.6049 89.3611C27.0744 89.8306 27.3874 90.5348 27.3874 91.1608C27.3874 91.3173 27.3874 91.4738 27.3091 91.7085C27.3091 91.865 27.2309 92.0215 27.1526 92.178C27.0744 92.3345 26.9961 92.491 26.9179 92.6475C26.8396 92.804 26.6831 92.9605 26.6049 93.0388C26.5266 93.1953 26.3701 93.2735 26.2136 93.3518C26.0571 93.43 25.9006 93.5083 25.7441 93.5865C25.5876 93.6648 25.4311 93.743 25.2746 93.743C25.1181 93.743 24.8834 93.743 24.7269 93.743Z" fill="white"/>
<path d="M13.6937 5.16434C12.9894 5.16434 12.3634 4.85134 11.8939 4.38185C11.7374 4.22535 11.6592 4.1471 11.5809 3.9906C11.5027 3.8341 11.4244 3.6776 11.3462 3.5211C11.2679 3.3646 11.2679 3.2081 11.1897 3.05161C11.1897 2.89511 11.1115 2.73861 11.1115 2.50386C11.1115 2.34736 11.1115 2.19086 11.1897 2.03436C11.1897 1.87786 11.2679 1.72136 11.3462 1.56487C11.4244 1.40837 11.5027 1.25187 11.5809 1.09537C11.5809 1.01712 11.7374 0.86062 11.8157 0.78237C12.7547 -0.156623 14.5544 -0.156623 15.4934 0.78237C15.9629 1.25187 16.2759 1.95611 16.2759 2.58211C16.2759 2.73861 16.2759 2.89511 16.1977 3.12985C16.1977 3.28635 16.1194 3.44285 16.0412 3.59935C15.9629 3.75585 15.8847 3.91235 15.8064 4.06885C15.7282 4.22535 15.5717 4.38185 15.4934 4.4601C15.3369 4.61659 15.2587 4.69484 15.1022 4.77309C14.9457 4.85134 14.7892 4.92959 14.6327 5.00784C14.4762 5.08609 14.3197 5.08609 14.1632 5.16434C14.0067 5.16434 13.8502 5.16434 13.6937 5.16434Z" fill="white"/>
<path d="M13.6937 81.1446C12.2852 81.1446 11.1115 79.9708 11.1115 78.5623C11.1115 77.1538 12.2852 75.9801 13.6937 75.9801C15.1022 75.9801 16.2759 77.1538 16.2759 78.5623C16.2759 79.9708 15.1022 81.1446 13.6937 81.1446ZM13.6937 68.4682C12.2852 68.4682 11.1115 67.2944 11.1115 65.8859C11.1115 64.4774 12.2852 63.3037 13.6937 63.3037C15.1022 63.3037 16.2759 64.4774 16.2759 65.8859C16.2759 67.2944 15.1022 68.4682 13.6937 68.4682ZM13.6937 55.7917C12.2852 55.7917 11.1115 54.618 11.1115 53.2095C11.1115 51.801 12.2852 50.6273 13.6937 50.6273C15.1022 50.6273 16.2759 51.801 16.2759 53.2095C16.2759 54.618 15.1022 55.7917 13.6937 55.7917ZM13.6937 43.1936C12.2852 43.1936 11.1115 42.0198 11.1115 40.6113C11.1115 39.2028 12.2852 38.0291 13.6937 38.0291C15.1022 38.0291 16.2759 39.2028 16.2759 40.6113C16.2759 42.0198 15.1022 43.1936 13.6937 43.1936ZM13.6937 30.5172C12.2852 30.5172 11.1115 29.3434 11.1115 27.9349C11.1115 26.5264 12.2852 25.3527 13.6937 25.3527C15.1022 25.3527 16.2759 26.5264 16.2759 27.9349C16.2759 29.3434 15.1022 30.5172 13.6937 30.5172ZM13.6937 17.8407C12.2852 17.8407 11.1115 16.667 11.1115 15.2585C11.1115 13.85 12.2852 12.6763 13.6937 12.6763C15.1022 12.6763 16.2759 13.85 16.2759 15.2585C16.2759 16.667 15.1022 17.8407 13.6937 17.8407Z" fill="white"/>
<path d="M13.6937 93.7425C12.9894 93.7425 12.3634 93.4295 11.8939 92.9601C11.4244 92.4906 11.1115 91.7863 11.1115 91.1603C11.1115 91.0038 11.1115 90.8473 11.1897 90.6908C11.1897 90.5343 11.2679 90.3778 11.3462 90.2213C11.4244 90.0648 11.5027 89.9083 11.5809 89.7518C11.6592 89.5953 11.8157 89.4388 11.8939 89.3606C12.5199 88.7346 13.3807 88.4998 14.2414 88.6563C14.3979 88.6563 14.5544 88.7346 14.7109 88.8128C14.8674 88.8911 15.0239 88.9693 15.1804 89.0476C15.3369 89.1258 15.4934 89.2823 15.5717 89.3606C16.0412 89.8301 16.3542 90.5343 16.3542 91.1603C16.3542 91.8646 16.0412 92.4906 15.5717 92.9601C15.4152 93.1165 15.3369 93.1948 15.1804 93.273C15.0239 93.3513 14.8674 93.4295 14.7109 93.5078C14.5544 93.586 14.3979 93.586 14.2414 93.6643C14.0067 93.7425 13.8502 93.7425 13.6937 93.7425Z" fill="white"/>
</g>
<g clip-path="url(#clip2_3307_122668)">
<path d="M101.839 106.627C101.683 106.627 101.526 106.627 101.37 106.549C101.213 106.549 101.057 106.549 100.822 106.47C100.666 106.392 100.587 106.314 100.431 106.236C100.274 106.157 100.118 106.001 100.04 105.923C99.8832 105.766 99.8049 105.61 99.7267 105.531C99.5702 105.375 99.492 105.218 99.492 105.062C99.4137 104.905 99.3355 104.749 99.3355 104.592C99.2572 104.436 99.2572 104.201 99.2572 104.045C99.2572 103.888 99.2572 103.732 99.3355 103.575C99.3355 103.419 99.4137 103.262 99.492 103.106C99.5702 102.949 99.6484 102.793 99.7267 102.636C99.8049 102.48 99.8832 102.323 100.04 102.245C100.196 102.088 100.274 102.01 100.431 101.932C100.587 101.775 100.666 101.697 100.822 101.697C100.979 101.619 101.135 101.619 101.292 101.541C101.683 101.462 101.996 101.462 102.387 101.541C102.544 101.541 102.7 101.619 102.857 101.697C103.013 101.697 103.17 101.775 103.326 101.932C103.404 102.01 103.561 102.088 103.717 102.245C103.796 102.323 103.952 102.48 104.03 102.636C104.109 102.793 104.187 102.949 104.265 103.106C104.343 103.262 104.343 103.419 104.422 103.575C104.422 103.732 104.5 103.888 104.5 104.045C104.5 104.201 104.5 104.358 104.422 104.592C104.422 104.749 104.343 104.905 104.265 105.062C104.187 105.218 104.109 105.375 104.03 105.531C103.952 105.61 103.796 105.766 103.717 105.923C103.561 106.001 103.404 106.157 103.326 106.236C103.17 106.314 103.013 106.392 102.857 106.47C102.7 106.549 102.544 106.549 102.387 106.627C102.231 106.627 101.996 106.627 101.839 106.627Z" fill="white"/>
<path d="M101.839 182.608C100.431 182.608 99.2572 181.434 99.2572 180.026C99.2572 178.617 100.431 177.365 101.839 177.365C103.248 177.365 104.422 178.539 104.422 179.947C104.422 181.434 103.326 182.608 101.839 182.608ZM101.839 169.932C100.431 169.932 99.2572 168.758 99.2572 167.349C99.2572 165.941 100.431 164.767 101.839 164.767C103.248 164.767 104.422 165.941 104.422 167.349C104.422 168.758 103.326 169.932 101.839 169.932ZM101.839 157.255C100.431 157.255 99.2572 156.081 99.2572 154.673C99.2572 153.264 100.431 152.091 101.839 152.091C103.248 152.091 104.422 153.264 104.422 154.673C104.422 156.081 103.326 157.255 101.839 157.255ZM101.839 144.657C100.431 144.657 99.2572 143.483 99.2572 142.075C99.2572 140.666 100.431 139.492 101.839 139.492C103.248 139.492 104.422 140.666 104.422 142.075C104.422 143.483 103.326 144.657 101.839 144.657ZM101.839 131.981C100.431 131.981 99.2572 130.807 99.2572 129.398C99.2572 127.99 100.431 126.816 101.839 126.816C103.248 126.816 104.422 127.99 104.422 129.398C104.422 130.807 103.326 131.981 101.839 131.981ZM101.839 119.304C100.431 119.304 99.2572 118.13 99.2572 116.722C99.2572 115.313 100.431 114.14 101.839 114.14C103.248 114.14 104.422 115.313 104.422 116.722C104.422 118.13 103.326 119.304 101.839 119.304Z" fill="white"/>
<path d="M101.839 195.206C101.683 195.206 101.526 195.206 101.37 195.128C101.213 195.128 101.057 195.05 100.9 194.971C100.744 194.893 100.587 194.815 100.431 194.737C100.274 194.658 100.118 194.502 100.04 194.424C99.8832 194.345 99.8049 194.189 99.7267 194.032C99.6484 193.876 99.5702 193.719 99.492 193.563C99.4137 193.406 99.4137 193.25 99.3355 193.093C99.3355 192.937 99.2572 192.78 99.2572 192.546C99.2572 191.841 99.5702 191.215 100.04 190.746C100.196 190.589 100.274 190.511 100.431 190.433C100.587 190.355 100.744 190.276 100.9 190.198C101.057 190.12 101.213 190.12 101.37 190.042C101.683 189.963 102.074 189.963 102.387 190.042C102.544 190.042 102.7 190.12 102.857 190.198C103.013 190.276 103.17 190.355 103.326 190.433C103.483 190.511 103.639 190.668 103.717 190.746C104.187 191.215 104.5 191.92 104.5 192.546C104.5 192.702 104.5 192.859 104.422 193.093C104.422 193.25 104.343 193.406 104.265 193.563C104.187 193.719 104.109 193.876 104.03 194.032C103.952 194.189 103.796 194.345 103.717 194.424C103.561 194.58 103.483 194.658 103.326 194.737C103.17 194.815 103.013 194.893 102.857 194.971C102.7 195.05 102.544 195.05 102.387 195.128C102.231 195.206 101.996 195.206 101.839 195.206Z" fill="white"/>
<path d="M190.418 106.627C189.714 106.627 189.088 106.314 188.618 105.845C188.462 105.767 188.383 105.61 188.305 105.454C188.227 105.297 188.149 105.141 188.07 104.984C187.992 104.828 187.992 104.671 187.914 104.515C187.914 104.358 187.836 104.202 187.836 103.967C187.836 103.81 187.836 103.654 187.914 103.497C187.914 103.341 187.992 103.184 188.07 103.028C188.149 102.871 188.227 102.715 188.305 102.558C188.383 102.402 188.54 102.245 188.618 102.167C188.775 102.011 188.853 101.932 189.009 101.854C189.166 101.776 189.322 101.698 189.479 101.619C189.635 101.541 189.792 101.541 189.948 101.463C190.261 101.385 190.653 101.385 190.966 101.463C191.122 101.463 191.279 101.541 191.435 101.619C191.592 101.698 191.748 101.776 191.905 101.854C192.061 101.932 192.139 102.089 192.296 102.167C192.452 102.324 192.531 102.402 192.609 102.558C192.687 102.715 192.765 102.871 192.844 103.028C192.922 103.184 192.922 103.341 193 103.497C193 103.654 193.078 103.81 193.078 103.967C193.078 104.123 193.078 104.28 193 104.515C193 104.671 192.922 104.828 192.844 104.984C192.765 105.141 192.687 105.297 192.609 105.454C192.531 105.61 192.374 105.767 192.296 105.845C191.826 106.393 191.122 106.627 190.418 106.627Z" fill="white"/>
<path d="M190.418 182.608C189.009 182.608 187.836 181.434 187.836 180.026C187.836 178.617 189.009 177.443 190.418 177.443C191.826 177.443 193 178.617 193 180.026C193 181.434 191.905 182.608 190.418 182.608ZM190.418 169.932C189.009 169.932 187.836 168.758 187.836 167.349C187.836 165.941 189.009 164.767 190.418 164.767C191.826 164.767 193 165.941 193 167.349C193 168.758 191.905 169.932 190.418 169.932ZM190.418 157.255C189.009 157.255 187.836 156.081 187.836 154.673C187.836 153.264 189.009 152.091 190.418 152.091C191.826 152.091 193 153.264 193 154.673C193 156.081 191.905 157.255 190.418 157.255ZM190.418 144.657C189.009 144.657 187.836 143.483 187.836 142.075C187.836 140.666 189.009 139.492 190.418 139.492C191.826 139.492 193 140.666 193 142.075C193 143.483 191.905 144.657 190.418 144.657ZM190.418 131.981C189.009 131.981 187.836 130.807 187.836 129.398C187.836 127.99 189.009 126.816 190.418 126.816C191.826 126.816 193 127.99 193 129.398C193 130.807 191.905 131.981 190.418 131.981ZM190.418 119.304C189.009 119.304 187.836 118.13 187.836 116.722C187.836 115.313 189.009 114.14 190.418 114.14C191.826 114.14 193 115.313 193 116.722C193 118.13 191.905 119.304 190.418 119.304Z" fill="white"/>
<path d="M190.418 195.206C189.714 195.206 189.088 194.893 188.618 194.424C188.462 194.267 188.383 194.189 188.305 194.032C188.227 193.876 188.149 193.719 188.07 193.563C187.992 193.406 187.992 193.25 187.914 193.093C187.914 192.937 187.836 192.78 187.836 192.546C187.836 191.841 188.149 191.215 188.618 190.746C188.775 190.589 188.853 190.511 189.009 190.433C189.166 190.355 189.322 190.276 189.479 190.198C189.635 190.12 189.792 190.12 189.948 190.042C190.261 189.963 190.653 189.963 190.966 190.042C191.122 190.042 191.279 190.12 191.435 190.198C191.592 190.276 191.748 190.355 191.905 190.433C192.061 190.511 192.139 190.668 192.296 190.746C192.765 191.215 193.078 191.92 193.078 192.546C193.078 192.702 193.078 192.859 193 193.093C193 193.25 192.922 193.406 192.844 193.563C192.765 193.719 192.687 193.876 192.609 194.032C192.531 194.189 192.374 194.345 192.296 194.424C191.826 194.971 191.122 195.206 190.418 195.206Z" fill="white"/>
<path d="M179.385 106.627C179.228 106.627 179.072 106.627 178.915 106.549C178.759 106.549 178.602 106.471 178.446 106.393C178.289 106.314 178.133 106.236 177.976 106.158C177.82 106.08 177.663 105.923 177.585 105.845C177.115 105.375 176.802 104.671 176.802 103.967C176.802 103.81 176.802 103.654 176.881 103.497C176.881 103.341 176.959 103.184 177.037 103.028C177.115 102.871 177.194 102.715 177.272 102.558C177.35 102.402 177.507 102.245 177.585 102.167C178.524 101.228 180.324 101.228 181.263 102.167C181.341 102.324 181.497 102.402 181.576 102.558C181.654 102.715 181.732 102.871 181.81 103.028C181.889 103.184 181.889 103.341 181.967 103.497C181.967 103.654 182.045 103.81 182.045 103.967C182.045 104.671 181.732 105.297 181.263 105.845C180.715 106.393 180.011 106.627 179.385 106.627Z" fill="white"/>
<path d="M179.385 182.607C177.976 182.607 176.802 181.434 176.802 180.025C176.802 178.617 177.976 177.443 179.385 177.443C180.793 177.443 181.967 178.617 181.967 180.025C181.967 181.434 180.793 182.607 179.385 182.607ZM179.385 169.931C177.976 169.931 176.802 168.757 176.802 167.349C176.802 165.94 177.976 164.767 179.385 164.767C180.793 164.767 181.967 165.94 181.967 167.349C181.967 168.757 180.793 169.931 179.385 169.931ZM179.385 157.255C177.976 157.255 176.802 156.081 176.802 154.672C176.802 153.264 177.976 152.09 179.385 152.09C180.793 152.09 181.967 153.264 181.967 154.672C181.967 156.081 180.793 157.255 179.385 157.255ZM179.385 144.656C177.976 144.656 176.802 143.483 176.802 142.074C176.802 140.666 177.976 139.492 179.385 139.492C180.793 139.492 181.967 140.666 181.967 142.074C181.967 143.483 180.793 144.656 179.385 144.656ZM179.385 131.98C177.976 131.98 176.802 130.806 176.802 129.398C176.802 127.989 177.976 126.816 179.385 126.816C180.793 126.816 181.967 127.989 181.967 129.398C181.967 130.806 180.793 131.98 179.385 131.98ZM179.385 119.304C177.976 119.304 176.802 118.13 176.802 116.721C176.802 115.313 177.976 114.139 179.385 114.139C180.793 114.139 181.967 115.313 181.967 116.721C181.967 118.13 180.793 119.304 179.385 119.304Z" fill="white"/>
<path d="M179.385 195.206C179.228 195.206 179.072 195.206 178.915 195.128C178.759 195.128 178.602 195.049 178.446 194.971C178.289 194.893 178.133 194.815 177.976 194.736C177.82 194.658 177.663 194.502 177.585 194.423C177.115 193.954 176.802 193.25 176.802 192.624C176.802 192.467 176.802 192.311 176.881 192.154C176.881 191.998 176.959 191.841 177.037 191.685C177.115 191.528 177.194 191.372 177.272 191.215C177.35 191.059 177.507 190.902 177.585 190.824C178.524 189.885 180.324 189.885 181.263 190.824C181.341 190.98 181.497 191.059 181.576 191.215C181.654 191.372 181.732 191.528 181.81 191.685C181.889 191.841 181.889 191.998 181.967 192.154C181.967 192.311 182.045 192.467 182.045 192.624C182.045 193.328 181.732 193.954 181.263 194.423C180.715 194.971 180.011 195.206 179.385 195.206Z" fill="white"/>
<path d="M168.273 106.706C167.569 106.706 166.943 106.393 166.474 105.923C166.317 105.767 166.239 105.688 166.161 105.532C166.082 105.375 166.004 105.219 165.926 105.062C165.848 104.906 165.769 104.749 165.769 104.593C165.769 104.436 165.691 104.28 165.691 104.045C165.691 103.341 166.004 102.715 166.474 102.245C166.552 102.089 166.708 102.011 166.865 101.932C167.021 101.854 167.178 101.776 167.334 101.698C167.491 101.619 167.647 101.619 167.804 101.541C168.665 101.385 169.525 101.619 170.151 102.245C170.621 102.715 170.934 103.419 170.934 104.045C170.934 104.202 170.934 104.358 170.856 104.593C170.856 104.749 170.777 104.906 170.699 105.062C170.621 105.219 170.543 105.375 170.464 105.532C170.386 105.688 170.23 105.845 170.151 105.923C169.995 106.001 169.917 106.158 169.76 106.236C169.604 106.314 169.447 106.393 169.291 106.471C169.134 106.549 168.978 106.627 168.821 106.627C168.665 106.627 168.43 106.706 168.273 106.706Z" fill="white"/>
<path d="M168.273 182.607C166.865 182.607 165.691 181.434 165.691 180.025C165.691 178.617 166.865 177.443 168.273 177.443C169.682 177.443 170.856 178.617 170.856 180.025C170.856 181.434 169.76 182.607 168.273 182.607ZM168.273 169.931C166.865 169.931 165.691 168.757 165.691 167.349C165.691 165.94 166.865 164.767 168.273 164.767C169.682 164.767 170.856 165.94 170.856 167.349C170.856 168.757 169.76 169.931 168.273 169.931ZM168.273 157.255C166.865 157.255 165.691 156.081 165.691 154.672C165.691 153.264 166.865 152.09 168.273 152.09C169.682 152.09 170.856 153.264 170.856 154.672C170.856 156.081 169.76 157.255 168.273 157.255ZM168.273 144.656C166.865 144.656 165.691 143.483 165.691 142.074C165.691 140.666 166.865 139.492 168.273 139.492C169.682 139.492 170.856 140.666 170.856 142.074C170.856 143.483 169.76 144.656 168.273 144.656ZM168.273 131.98C166.865 131.98 165.691 130.806 165.691 129.398C165.691 127.989 166.865 126.816 168.273 126.816C169.682 126.816 170.856 127.989 170.856 129.398C170.856 130.806 169.76 131.98 168.273 131.98ZM168.273 119.304C166.865 119.304 165.691 118.13 165.691 116.721C165.691 115.313 166.865 114.139 168.273 114.139C169.682 114.139 170.856 115.313 170.856 116.721C170.856 118.13 169.76 119.304 168.273 119.304Z" fill="white"/>
<path d="M168.273 195.206C168.117 195.206 167.96 195.206 167.726 195.128C167.569 195.128 167.413 195.049 167.256 194.971C167.1 194.893 166.943 194.815 166.787 194.736C166.63 194.658 166.474 194.502 166.395 194.423C165.926 193.954 165.613 193.25 165.613 192.624C165.613 191.919 165.926 191.293 166.395 190.824C166.474 190.667 166.63 190.589 166.787 190.511C166.943 190.433 167.1 190.354 167.256 190.276C167.413 190.198 167.569 190.198 167.726 190.12C168.586 189.963 169.447 190.198 170.073 190.824C170.542 191.293 170.855 191.998 170.855 192.624C170.855 193.328 170.542 193.954 170.073 194.423C169.682 194.971 168.978 195.206 168.273 195.206Z" fill="white"/>
<path d="M157.24 106.627C156.536 106.627 155.91 106.314 155.44 105.845C154.971 105.375 154.658 104.671 154.658 104.045C154.658 103.889 154.658 103.732 154.736 103.576C154.736 103.419 154.814 103.263 154.893 103.106C154.971 102.95 155.049 102.793 155.127 102.637C155.206 102.48 155.362 102.324 155.44 102.245C156.066 101.619 156.927 101.385 157.788 101.541C157.944 101.541 158.101 101.619 158.257 101.698C158.414 101.776 158.57 101.854 158.727 101.932C158.883 102.011 158.962 102.167 159.118 102.245C159.275 102.402 159.353 102.48 159.431 102.637C159.509 102.793 159.588 102.95 159.666 103.106C159.744 103.263 159.744 103.419 159.822 103.576C159.822 103.732 159.901 103.889 159.901 104.045C159.901 104.202 159.901 104.358 159.822 104.593C159.822 104.749 159.744 104.906 159.666 105.062C159.588 105.219 159.509 105.375 159.353 105.532C159.275 105.688 159.118 105.845 159.04 105.923C158.883 106.08 158.805 106.158 158.649 106.236C158.492 106.314 158.336 106.393 158.179 106.471C158.023 106.549 157.866 106.627 157.71 106.627C157.553 106.627 157.397 106.627 157.24 106.627Z" fill="white"/>
<path d="M157.24 182.607C155.832 182.607 154.658 181.434 154.658 180.025C154.658 178.617 155.832 177.443 157.24 177.443C158.649 177.443 159.822 178.617 159.822 180.025C159.822 181.434 158.649 182.607 157.24 182.607ZM157.24 169.931C155.832 169.931 154.658 168.757 154.658 167.349C154.658 165.94 155.832 164.767 157.24 164.767C158.649 164.767 159.822 165.94 159.822 167.349C159.822 168.757 158.649 169.931 157.24 169.931ZM157.24 157.255C155.832 157.255 154.658 156.081 154.658 154.672C154.658 153.264 155.832 152.09 157.24 152.09C158.649 152.09 159.822 153.264 159.822 154.672C159.822 156.081 158.649 157.255 157.24 157.255ZM157.24 144.656C155.832 144.656 154.658 143.483 154.658 142.074C154.658 140.666 155.832 139.492 157.24 139.492C158.649 139.492 159.822 140.666 159.822 142.074C159.822 143.483 158.649 144.656 157.24 144.656ZM157.24 131.98C155.832 131.98 154.658 130.806 154.658 129.398C154.658 127.989 155.832 126.816 157.24 126.816C158.649 126.816 159.822 127.989 159.822 129.398C159.822 130.806 158.649 131.98 157.24 131.98ZM157.24 119.304C155.832 119.304 154.658 118.13 154.658 116.721C154.658 115.313 155.832 114.139 157.24 114.139C158.649 114.139 159.822 115.313 159.822 116.721C159.822 118.13 158.649 119.304 157.24 119.304Z" fill="white"/>
<path d="M157.24 195.206C156.536 195.206 155.91 194.893 155.44 194.423C154.971 193.954 154.658 193.25 154.658 192.624C154.658 192.467 154.658 192.311 154.736 192.154C154.736 191.998 154.814 191.841 154.893 191.685C154.971 191.528 155.049 191.372 155.127 191.215C155.206 191.059 155.362 190.902 155.44 190.824C155.597 190.667 155.675 190.589 155.832 190.511C155.988 190.433 156.145 190.354 156.301 190.276C156.458 190.198 156.614 190.198 156.771 190.12C157.631 189.963 158.492 190.198 159.118 190.824C159.588 191.293 159.901 191.998 159.901 192.624C159.901 192.78 159.901 192.937 159.822 193.171C159.822 193.328 159.744 193.484 159.666 193.641C159.588 193.797 159.509 193.954 159.431 194.11C159.353 194.267 159.196 194.423 159.118 194.502C158.962 194.658 158.883 194.736 158.727 194.815C158.57 194.893 158.414 194.971 158.257 195.049C158.101 195.128 157.944 195.128 157.788 195.206C157.553 195.206 157.397 195.206 157.24 195.206Z" fill="white"/>
<path d="M146.129 106.627C145.972 106.627 145.816 106.627 145.581 106.549C145.424 106.549 145.268 106.471 145.111 106.393C144.955 106.314 144.798 106.236 144.642 106.158C144.485 106.08 144.329 105.923 144.251 105.845C143.781 105.375 143.468 104.671 143.468 103.967C143.468 103.81 143.468 103.654 143.546 103.497C143.546 103.341 143.625 103.184 143.703 103.028C143.781 102.871 143.859 102.715 143.938 102.558C144.016 102.402 144.172 102.245 144.251 102.167C145.19 101.228 146.989 101.228 147.928 102.167C148.085 102.324 148.163 102.402 148.241 102.558C148.32 102.715 148.398 102.871 148.476 103.028C148.554 103.184 148.554 103.341 148.633 103.497C148.633 103.654 148.711 103.81 148.711 103.967C148.711 104.671 148.398 105.297 147.928 105.845C147.772 105.923 147.694 106.08 147.537 106.158C147.381 106.236 147.224 106.314 147.068 106.393C146.911 106.471 146.755 106.549 146.598 106.549C146.52 106.627 146.285 106.627 146.129 106.627Z" fill="white"/>
<path d="M146.129 182.607C144.72 182.607 143.546 181.434 143.546 180.025C143.546 178.617 144.72 177.443 146.129 177.443C147.537 177.443 148.711 178.617 148.711 180.025C148.711 181.434 147.615 182.607 146.129 182.607ZM146.129 169.931C144.72 169.931 143.546 168.757 143.546 167.349C143.546 165.94 144.72 164.767 146.129 164.767C147.537 164.767 148.711 165.94 148.711 167.349C148.711 168.757 147.615 169.931 146.129 169.931ZM146.129 157.255C144.72 157.255 143.546 156.081 143.546 154.672C143.546 153.264 144.72 152.09 146.129 152.09C147.537 152.09 148.711 153.264 148.711 154.672C148.711 156.081 147.615 157.255 146.129 157.255ZM146.129 144.656C144.72 144.656 143.546 143.483 143.546 142.074C143.546 140.666 144.72 139.492 146.129 139.492C147.537 139.492 148.711 140.666 148.711 142.074C148.711 143.483 147.615 144.656 146.129 144.656ZM146.129 131.98C144.72 131.98 143.546 130.806 143.546 129.398C143.546 127.989 144.72 126.816 146.129 126.816C147.537 126.816 148.711 127.989 148.711 129.398C148.711 130.806 147.615 131.98 146.129 131.98ZM146.129 119.304C144.72 119.304 143.546 118.13 143.546 116.721C143.546 115.313 144.72 114.139 146.129 114.139C147.537 114.139 148.711 115.313 148.711 116.721C148.711 118.13 147.615 119.304 146.129 119.304Z" fill="white"/>
<path d="M146.129 195.206C145.972 195.206 145.816 195.206 145.581 195.128C145.424 195.128 145.268 195.049 145.111 194.971C144.955 194.893 144.798 194.815 144.642 194.736C144.485 194.658 144.329 194.502 144.251 194.423C143.781 193.954 143.468 193.25 143.468 192.624C143.468 191.919 143.781 191.293 144.251 190.824C145.19 189.885 146.989 189.885 147.928 190.824C148.085 190.98 148.163 191.059 148.241 191.215C148.32 191.372 148.398 191.528 148.476 191.685C148.554 191.841 148.554 191.998 148.633 192.154C148.633 192.311 148.711 192.467 148.711 192.624C148.711 192.78 148.711 192.937 148.633 193.171C148.633 193.328 148.554 193.484 148.476 193.641C148.398 193.797 148.32 193.954 148.241 194.11C148.163 194.267 148.007 194.423 147.928 194.502C147.537 194.971 146.833 195.206 146.129 195.206Z" fill="white"/>
<path d="M135.096 106.627C134.939 106.627 134.783 106.627 134.548 106.549C134.391 106.549 134.235 106.471 134.078 106.392C133.922 106.314 133.765 106.236 133.609 106.158C133.452 106.079 133.374 105.923 133.218 105.845C132.748 105.375 132.435 104.671 132.435 104.045C132.435 103.341 132.748 102.715 133.218 102.245C134.157 101.306 135.956 101.306 136.895 102.245C137.052 102.402 137.13 102.48 137.208 102.637C137.287 102.793 137.365 102.95 137.443 103.106C137.521 103.263 137.6 103.419 137.6 103.576C137.6 103.732 137.678 103.889 137.678 104.045C137.678 104.749 137.365 105.375 136.895 105.845C136.426 106.392 135.722 106.627 135.096 106.627Z" fill="white"/>
<path d="M135.096 182.607C133.687 182.607 132.513 181.434 132.513 180.025C132.513 178.617 133.687 177.443 135.096 177.443C136.504 177.443 137.678 178.617 137.678 180.025C137.678 181.434 136.504 182.607 135.096 182.607ZM135.096 169.931C133.687 169.931 132.513 168.757 132.513 167.349C132.513 165.94 133.687 164.767 135.096 164.767C136.504 164.767 137.678 165.94 137.678 167.349C137.678 168.757 136.504 169.931 135.096 169.931ZM135.096 157.255C133.687 157.255 132.513 156.081 132.513 154.672C132.513 153.264 133.687 152.09 135.096 152.09C136.504 152.09 137.678 153.264 137.678 154.672C137.678 156.081 136.504 157.255 135.096 157.255ZM135.096 144.656C133.687 144.656 132.513 143.483 132.513 142.074C132.513 140.666 133.687 139.492 135.096 139.492C136.504 139.492 137.678 140.666 137.678 142.074C137.678 143.483 136.504 144.656 135.096 144.656ZM135.096 131.98C133.687 131.98 132.513 130.806 132.513 129.398C132.513 127.989 133.687 126.816 135.096 126.816C136.504 126.816 137.678 127.989 137.678 129.398C137.678 130.806 136.504 131.98 135.096 131.98ZM135.096 119.304C133.687 119.304 132.513 118.13 132.513 116.721C132.513 115.313 133.687 114.139 135.096 114.139C136.504 114.139 137.678 115.313 137.678 116.721C137.678 118.13 136.504 119.304 135.096 119.304Z" fill="white"/>
<path d="M135.096 195.205C134.391 195.205 133.765 194.892 133.296 194.423C132.826 193.953 132.513 193.249 132.513 192.623C132.513 192.467 132.513 192.31 132.592 192.154C132.592 191.997 132.67 191.841 132.748 191.684C132.826 191.528 132.905 191.371 132.983 191.215C133.061 191.058 133.218 190.902 133.296 190.823C133.452 190.667 133.531 190.589 133.687 190.51C133.844 190.432 134 190.354 134.157 190.276C134.313 190.197 134.47 190.197 134.626 190.119C135.487 189.963 136.348 190.197 136.974 190.823C137.443 191.293 137.756 191.997 137.756 192.623C137.756 192.78 137.756 192.936 137.678 193.171C137.678 193.327 137.6 193.484 137.521 193.64C137.443 193.797 137.365 193.953 137.287 194.11C137.208 194.266 137.052 194.423 136.974 194.501C136.426 194.971 135.722 195.205 135.096 195.205Z" fill="white"/>
<path d="M123.984 106.627C123.828 106.627 123.671 106.627 123.515 106.549C123.358 106.549 123.202 106.471 123.045 106.393C122.889 106.314 122.732 106.236 122.576 106.158C122.419 106.08 122.263 105.923 122.184 105.845C121.715 105.375 121.402 104.671 121.402 104.045C121.402 103.341 121.715 102.715 122.184 102.245C122.81 101.619 123.671 101.385 124.532 101.541C124.688 101.541 124.845 101.619 125.001 101.698C125.158 101.776 125.314 101.854 125.471 101.932C125.549 102.011 125.706 102.089 125.862 102.245C126.332 102.715 126.645 103.419 126.645 104.045C126.645 104.202 126.645 104.358 126.566 104.593C126.566 104.749 126.488 104.906 126.41 105.062C126.332 105.219 126.253 105.375 126.175 105.532C126.097 105.688 125.94 105.845 125.862 105.923C125.784 106.08 125.627 106.158 125.471 106.236C125.314 106.314 125.158 106.393 125.001 106.471C124.845 106.549 124.688 106.627 124.532 106.627C124.375 106.627 124.141 106.627 123.984 106.627Z" fill="white"/>
<path d="M123.984 182.607C122.576 182.607 121.402 181.434 121.402 180.025C121.402 178.617 122.576 177.443 123.984 177.443C125.393 177.443 126.566 178.617 126.566 180.025C126.566 181.434 125.471 182.607 123.984 182.607ZM123.984 169.931C122.576 169.931 121.402 168.757 121.402 167.349C121.402 165.94 122.576 164.767 123.984 164.767C125.393 164.767 126.566 165.94 126.566 167.349C126.566 168.757 125.471 169.931 123.984 169.931ZM123.984 157.255C122.576 157.255 121.402 156.081 121.402 154.672C121.402 153.264 122.576 152.09 123.984 152.09C125.393 152.09 126.566 153.264 126.566 154.672C126.566 156.081 125.471 157.255 123.984 157.255ZM123.984 144.656C122.576 144.656 121.402 143.483 121.402 142.074C121.402 140.666 122.576 139.492 123.984 139.492C125.393 139.492 126.566 140.666 126.566 142.074C126.566 143.483 125.471 144.656 123.984 144.656ZM123.984 131.98C122.576 131.98 121.402 130.806 121.402 129.398C121.402 127.989 122.576 126.816 123.984 126.816C125.393 126.816 126.566 127.989 126.566 129.398C126.566 130.806 125.471 131.98 123.984 131.98ZM123.984 119.304C122.576 119.304 121.402 118.13 121.402 116.721C121.402 115.313 122.576 114.139 123.984 114.139C125.393 114.139 126.566 115.313 126.566 116.721C126.566 118.13 125.471 119.304 123.984 119.304Z" fill="white"/>
<path d="M123.984 195.206C123.828 195.206 123.671 195.206 123.515 195.128C123.358 195.128 123.202 195.049 123.045 194.971C122.889 194.893 122.732 194.815 122.576 194.736C122.419 194.658 122.263 194.502 122.184 194.423C121.715 193.954 121.402 193.25 121.402 192.624C121.402 191.919 121.715 191.293 122.184 190.824C122.81 190.198 123.671 189.963 124.532 190.12C124.688 190.12 124.845 190.198 125.001 190.276C125.158 190.354 125.314 190.433 125.471 190.511C125.627 190.589 125.784 190.746 125.862 190.824C126.332 191.293 126.645 191.998 126.645 192.624C126.645 192.78 126.645 192.937 126.566 193.171C126.566 193.328 126.488 193.484 126.41 193.641C126.332 193.797 126.253 193.954 126.175 194.11C126.097 194.267 125.94 194.423 125.862 194.502C125.784 194.658 125.627 194.736 125.471 194.815C125.314 194.893 125.158 194.971 125.001 195.049C124.845 195.128 124.688 195.206 124.532 195.206C124.375 195.206 124.141 195.206 123.984 195.206Z" fill="white"/>
<path d="M112.951 106.627C112.247 106.627 111.621 106.314 111.151 105.845C110.995 105.688 110.916 105.61 110.838 105.453C110.76 105.297 110.682 105.14 110.603 104.984C110.525 104.827 110.525 104.671 110.447 104.514C110.447 104.358 110.369 104.201 110.369 103.967C110.369 103.81 110.369 103.654 110.447 103.497C110.447 103.341 110.525 103.184 110.603 103.028C110.682 102.871 110.76 102.715 110.838 102.558C110.838 102.48 110.995 102.324 111.073 102.245C112.012 101.306 113.812 101.306 114.751 102.245C115.22 102.715 115.533 103.419 115.533 104.045C115.533 104.201 115.533 104.358 115.455 104.593C115.455 104.749 115.377 104.906 115.298 105.062C115.22 105.219 115.142 105.375 115.064 105.532C114.985 105.688 114.829 105.845 114.751 105.923C114.594 106.079 114.516 106.158 114.359 106.236C114.203 106.314 114.046 106.392 113.89 106.471C113.733 106.549 113.577 106.549 113.42 106.627C113.264 106.627 113.107 106.627 112.951 106.627Z" fill="white"/>
<path d="M112.951 182.607C111.542 182.607 110.369 181.434 110.369 180.025C110.369 178.617 111.542 177.443 112.951 177.443C114.359 177.443 115.533 178.617 115.533 180.025C115.533 181.434 114.359 182.607 112.951 182.607ZM112.951 169.931C111.542 169.931 110.369 168.757 110.369 167.349C110.369 165.94 111.542 164.767 112.951 164.767C114.359 164.767 115.533 165.94 115.533 167.349C115.533 168.757 114.359 169.931 112.951 169.931ZM112.951 157.255C111.542 157.255 110.369 156.081 110.369 154.672C110.369 153.264 111.542 152.09 112.951 152.09C114.359 152.09 115.533 153.264 115.533 154.672C115.533 156.081 114.359 157.255 112.951 157.255ZM112.951 144.656C111.542 144.656 110.369 143.483 110.369 142.074C110.369 140.666 111.542 139.492 112.951 139.492C114.359 139.492 115.533 140.666 115.533 142.074C115.533 143.483 114.359 144.656 112.951 144.656ZM112.951 131.98C111.542 131.98 110.369 130.806 110.369 129.398C110.369 127.989 111.542 126.816 112.951 126.816C114.359 126.816 115.533 127.989 115.533 129.398C115.533 130.806 114.359 131.98 112.951 131.98ZM112.951 119.304C111.542 119.304 110.369 118.13 110.369 116.721C110.369 115.313 111.542 114.139 112.951 114.139C114.359 114.139 115.533 115.313 115.533 116.721C115.533 118.13 114.359 119.304 112.951 119.304Z" fill="white"/>
<path d="M112.951 195.205C112.247 195.205 111.621 194.892 111.151 194.423C110.682 193.953 110.369 193.249 110.369 192.623C110.369 192.467 110.369 192.31 110.447 192.154C110.447 191.997 110.525 191.841 110.603 191.684C110.682 191.528 110.76 191.371 110.838 191.215C110.916 191.058 111.073 190.902 111.151 190.823C111.777 190.197 112.638 189.963 113.499 190.119C113.655 190.119 113.812 190.197 113.968 190.276C114.125 190.354 114.281 190.432 114.438 190.51C114.594 190.589 114.751 190.745 114.829 190.823C115.298 191.293 115.611 191.997 115.611 192.623C115.611 193.327 115.298 193.953 114.829 194.423C114.672 194.579 114.594 194.658 114.438 194.736C114.281 194.814 114.125 194.892 113.968 194.971C113.812 195.049 113.655 195.049 113.499 195.127C113.264 195.205 113.107 195.205 112.951 195.205Z" fill="white"/>
</g>
</g>
<defs>
<clipPath id="clip0_3307_122668">
<rect width="93.7429" height="93.7429" fill="white" transform="translate(99.2572)"/>
</clipPath>
<clipPath id="clip1_3307_122668">
<rect width="93.7429" height="93.7429" fill="white"/>
</clipPath>
<clipPath id="clip2_3307_122668">
<rect width="93.7429" height="93.7429" fill="white" transform="translate(99.2572 101.463)"/>
</clipPath>
</defs>
</svg>
