<svg width="150" height="150" viewBox="0 0 150 150" fill="none" xmlns="http://www.w3.org/2000/svg">
<g clip-path="url(#clip0_1451_93227)">
<path d="M96.3281 63.5283V53.3603C98.3495 50.8402 105.352 41.3755 105.352 31.5005C105.352 26.607 103.33 22.1823 100.078 18.9883V2.11002C100.078 -0.644428 95.6835 -0.761639 95.6835 2.11002V15.8236C93.2812 14.6222 90.5859 13.919 87.7148 13.919C82.8808 13.919 78.3105 15.9115 74.9999 19.3106C71.6894 15.8822 67.1191 13.919 62.2851 13.919C59.414 13.919 56.7187 14.5929 54.3163 15.8236V2.11002C54.3163 -0.644428 49.9218 -0.761639 49.9218 2.11002V18.959C46.6699 22.153 44.6484 26.5777 44.6484 31.4712C44.6484 41.5806 51.621 50.8402 53.6718 53.3603V63.499L19.3359 121.02C16.8163 125.269 18.7792 130.924 23.4081 132.682C28.5644 134.646 33.9257 136.316 39.4042 137.664C39.5214 140.946 41.6308 143.905 44.912 145.019C54.6386 148.242 64.8046 149.912 75.0585 149.971C75.2343 149.971 75.4394 149.971 75.6152 149.971C85.957 149.971 95.9179 148.33 105.205 145.077C108.486 143.935 110.566 140.916 110.625 137.635C116.074 136.287 121.435 134.616 126.562 132.682C131.191 130.924 133.184 125.269 130.635 121.02L96.3281 63.5283ZM49.0722 31.5005C49.0722 24.2335 55.0195 18.3144 62.3144 18.3144C66.6796 18.3144 70.7519 20.4534 73.2128 24.0284C74.0624 25.2591 75.9667 25.2591 76.8163 24.0284C79.3066 20.4534 83.3788 18.3144 87.7148 18.3144C95.0097 18.3144 100.957 24.2335 100.957 31.5005C100.957 39.6173 95.039 47.8807 93.0761 50.3714H86.2792C83.5253 50.3714 83.4081 54.7668 86.2792 54.7668H91.9335V61.9166H58.0663V54.7668H74.5898C77.3437 54.7668 77.4609 50.3714 74.5898 50.3714H56.8945C54.9609 47.9393 49.0722 39.8225 49.0722 31.5005ZM103.769 140.946C94.7753 144.081 85.1367 145.634 75.0878 145.605C65.2734 145.546 55.6054 143.964 46.289 140.858C44.4433 140.242 43.3886 138.191 43.9452 136.316L48.164 122.309C48.955 119.672 44.7949 118.295 43.9452 121.049L40.2538 133.356C35.039 132.067 29.912 130.455 24.9609 128.58C22.8515 127.789 21.9433 125.21 23.1152 123.276L57.1288 66.312H60.4394L47.3144 109.914C46.5234 112.522 50.6542 114.046 51.5331 111.174L65.039 66.312H84.9609L106.055 136.404C106.055 136.433 106.055 136.433 106.055 136.462C106.055 136.492 106.055 136.492 106.084 136.521C106.611 138.367 105.586 140.301 103.769 140.946ZM127.178 126.353C126.826 127.379 126.035 128.199 125.01 128.58C120.088 130.455 114.961 132.038 109.746 133.327L89.5898 66.312H92.871L126.855 123.247C127.412 124.185 127.529 125.327 127.178 126.353Z" fill="url(#paint0_linear_1451_93227)"/>
<path d="M9.84375 21.9186V18.666H13.0957C14.2969 18.666 15.293 17.6697 15.293 16.4683C15.293 15.2669 14.2969 14.2706 13.0957 14.2706H9.84375V11.018C9.84375 9.8166 8.84766 8.82031 7.64648 8.82031C6.44531 8.82031 5.44922 9.8166 5.44922 11.018V14.2706H2.19727C0.996094 14.2706 0 15.2669 0 16.4683C0 17.6697 0.996094 18.666 2.19727 18.666H5.44922V21.9186C5.44922 23.12 6.44531 24.1163 7.64648 24.1163C8.84766 24.1163 9.84375 23.1493 9.84375 21.9186Z" fill="url(#paint1_linear_1451_93227)"/>
<path d="M23.7598 61.1552H27.0117V64.4078C27.0117 65.6092 28.0078 66.6055 29.209 66.6055C30.4102 66.6055 31.4063 65.6092 31.4063 64.4078V61.1552H34.6582C35.8594 61.1552 36.8555 60.159 36.8555 58.9575C36.8555 57.7561 35.8594 56.7599 34.6582 56.7599H31.4063V53.5073C31.4063 52.3059 30.4102 51.3096 29.209 51.3096C28.0078 51.3096 27.0117 52.3059 27.0117 53.5073V56.7599H23.7598C22.5586 56.7599 21.5625 57.7561 21.5625 58.9575C21.5625 60.159 22.5293 61.1552 23.7598 61.1552Z" fill="url(#paint2_linear_1451_93227)"/>
<path d="M22.0898 83.5718C22.0898 82.3704 21.0938 81.3741 19.8926 81.3741H16.6406V78.1215C16.6406 76.9201 15.6445 75.9238 14.4434 75.9238C13.2422 75.9238 12.2461 76.9201 12.2461 78.1215V81.3741H8.99414C7.79297 81.3741 6.79688 82.3704 6.79688 83.5718C6.79688 84.7732 7.79297 85.7695 8.99414 85.7695H12.2461V89.0221C12.2461 90.2235 13.2422 91.2198 14.4434 91.2198C15.6445 91.2198 16.6406 90.2235 16.6406 89.0221V85.7695H19.8926C21.123 85.7695 22.0898 84.7732 22.0898 83.5718Z" fill="url(#paint3_linear_1451_93227)"/>
<path d="M147.803 14.2706H144.551V11.018C144.551 9.8166 143.555 8.82031 142.354 8.82031C141.152 8.82031 140.156 9.8166 140.156 11.018V14.2706H136.904C135.703 14.2706 134.707 15.2669 134.707 16.4683C134.707 17.6697 135.703 18.666 136.904 18.666H140.156V21.9186C140.156 23.12 141.152 24.1163 142.354 24.1163C143.555 24.1163 144.551 23.12 144.551 21.9186V18.666H147.803C149.004 18.666 150 17.6697 150 16.4683C150 15.2669 149.004 14.2706 147.803 14.2706Z" fill="url(#paint4_linear_1451_93227)"/>
<path d="M115.342 61.1552H118.594V64.4078C118.594 65.6092 119.59 66.6055 120.791 66.6055C121.992 66.6055 122.988 65.6092 122.988 64.4078V61.1552H126.24C127.441 61.1552 128.437 60.159 128.437 58.9575C128.437 57.7561 127.441 56.7599 126.24 56.7599H122.988V53.5073C122.988 52.3059 121.992 51.3096 120.791 51.3096C119.59 51.3096 118.594 52.3059 118.594 53.5073V56.7599H115.342C114.141 56.7599 113.145 57.7561 113.145 58.9575C113.145 60.159 114.141 61.1552 115.342 61.1552Z" fill="url(#paint5_linear_1451_93227)"/>
<path d="M141.006 81.3741H137.754V78.1215C137.754 76.9201 136.758 75.9238 135.557 75.9238C134.355 75.9238 133.359 76.9201 133.359 78.1215V81.3741H130.107C128.906 81.3741 127.91 82.3704 127.91 83.5718C127.91 84.7732 128.906 85.7695 130.107 85.7695H133.359V89.0221C133.359 90.2235 134.355 91.2198 135.557 91.2198C136.758 91.2198 137.754 90.2235 137.754 89.0221V85.7695H141.006C142.207 85.7695 143.203 84.7732 143.203 83.5718C143.203 82.3704 142.207 81.3741 141.006 81.3741Z" fill="url(#paint6_linear_1451_93227)"/>
</g>
<defs>
<linearGradient id="paint0_linear_1451_93227" x1="74.9917" y1="0" x2="74.9917" y2="149.971" gradientUnits="userSpaceOnUse">
<stop stop-color="#E4E4EB" stop-opacity="0.32"/>
<stop offset="1" stop-color="#E4E4EB"/>
</linearGradient>
<linearGradient id="paint1_linear_1451_93227" x1="7.64648" y1="8.82031" x2="7.64648" y2="24.1163" gradientUnits="userSpaceOnUse">
<stop stop-color="#E4E4EB" stop-opacity="0.32"/>
<stop offset="1" stop-color="#E4E4EB"/>
</linearGradient>
<linearGradient id="paint2_linear_1451_93227" x1="29.209" y1="51.3096" x2="29.209" y2="66.6055" gradientUnits="userSpaceOnUse">
<stop stop-color="#E4E4EB" stop-opacity="0.32"/>
<stop offset="1" stop-color="#E4E4EB"/>
</linearGradient>
<linearGradient id="paint3_linear_1451_93227" x1="14.4434" y1="75.9238" x2="14.4434" y2="91.2198" gradientUnits="userSpaceOnUse">
<stop stop-color="#E4E4EB" stop-opacity="0.32"/>
<stop offset="1" stop-color="#E4E4EB"/>
</linearGradient>
<linearGradient id="paint4_linear_1451_93227" x1="142.354" y1="8.82031" x2="142.354" y2="24.1163" gradientUnits="userSpaceOnUse">
<stop stop-color="#E4E4EB" stop-opacity="0.32"/>
<stop offset="1" stop-color="#E4E4EB"/>
</linearGradient>
<linearGradient id="paint5_linear_1451_93227" x1="120.791" y1="51.3096" x2="120.791" y2="66.6055" gradientUnits="userSpaceOnUse">
<stop stop-color="#E4E4EB" stop-opacity="0.32"/>
<stop offset="1" stop-color="#E4E4EB"/>
</linearGradient>
<linearGradient id="paint6_linear_1451_93227" x1="135.557" y1="75.9238" x2="135.557" y2="91.2198" gradientUnits="userSpaceOnUse">
<stop stop-color="#E4E4EB" stop-opacity="0.32"/>
<stop offset="1" stop-color="#E4E4EB"/>
</linearGradient>
<clipPath id="clip0_1451_93227">
<rect width="150" height="150" fill="white"/>
</clipPath>
</defs>
</svg>
