<svg width="108" height="109" viewBox="0 0 108 109" fill="none" xmlns="http://www.w3.org/2000/svg">
<path d="M2.23231 91.7844C6.31231 101.741 12.9648 103.813 17.642 101.741C26.6876 97.7327 50.1849 93.2548 74.3174 103.781C106.28 117.722 113.08 96.6883 102.88 75.4126C92.6788 54.1369 89.2213 32.6214 100.981 20.7676C112.74 8.91377 97.3517 -9.6299 70.0234 9.67277C52.3629 22.1468 39.4021 19.3692 32.4422 15.8429C25.8827 12.5194 18.5877 9.04487 11.753 11.7578C3.45991 15.0497 0.192161 22.1869 12.8098 38.1314C30.69 60.726 -6.91356 69.4677 2.23231 91.7844Z" fill="#EBF1FF"/>
<path d="M18.8447 43.2844H82.342V92.1176C82.342 92.2171 82.3025 92.3124 82.2322 92.3828C82.1618 92.4531 82.0664 92.4926 81.967 92.4926H19.2197C19.1203 92.4926 19.0249 92.4531 18.9546 92.3828C18.8842 92.3124 18.8447 92.2171 18.8447 92.1176V43.2844Z" fill="#9AB7F8"/>
<path d="M66.4126 24.1477H36.8877L18.8447 43.2842H82.342L66.4126 24.1477Z" fill="#5B86E5"/>
<path d="M24.859 16.4932L36.8876 24.1478L18.8446 43.2843L5.17566 32.8959L24.859 16.4932Z" fill="#7197EA"/>
<path d="M78.4411 16.4932L66.4125 24.1478L82.3419 43.2843L98.1244 32.8959L78.4411 16.4932Z" fill="#7197EA"/>
<path d="M44.6445 16.8845C44.984 16.7236 45.2481 16.4377 45.3816 16.0865C45.5152 15.7354 45.5079 15.3463 45.3612 15.0004L39.9501 2.24083C39.8734 2.0601 39.761 1.89673 39.6196 1.76055C39.4782 1.62437 39.3107 1.51819 39.1273 1.44839C38.9438 1.3786 38.7481 1.34663 38.5519 1.35442C38.3557 1.3622 38.1632 1.40957 37.9858 1.49368L36.9433 1.988C36.7659 2.07211 36.6074 2.19122 36.4772 2.33816C36.347 2.48511 36.2479 2.65686 36.1858 2.84309C36.1237 3.02932 36.1 3.22619 36.1159 3.42185C36.1318 3.61751 36.1872 3.80793 36.2786 3.98166L42.7322 16.2469C42.9071 16.5793 43.2038 16.8313 43.5602 16.9501C43.9166 17.069 44.3051 17.0454 44.6445 16.8845Z" fill="#5B86E5"/>
<path d="M51.4287 15.6476C51.6744 15.6301 51.9038 15.5183 52.069 15.3357C52.2342 15.153 52.3224 14.9136 52.3153 14.6674L52.048 5.58369C52.0442 5.45502 52.0144 5.32845 51.9604 5.21158C51.9065 5.09471 51.8295 4.98995 51.734 4.90361C51.6385 4.81727 51.5266 4.75113 51.4049 4.70916C51.2832 4.66719 51.1543 4.65026 51.0259 4.65938L50.2712 4.71316C50.1428 4.7223 50.0176 4.75729 49.9031 4.81603C49.7886 4.87478 49.6872 4.95606 49.6049 5.055C49.5227 5.15394 49.4612 5.26849 49.4243 5.39177C49.3875 5.51505 49.3759 5.64452 49.3903 5.77239L50.4123 14.8024C50.4399 15.0472 50.5611 15.2718 50.7506 15.4294C50.94 15.5869 51.183 15.6651 51.4287 15.6476Z" fill="#5B86E5"/>
<path d="M56.6661 19.0055C57.3418 19.3962 58.2904 19.0377 58.8165 18.1927L68.1589 3.1887C68.717 2.29237 68.5848 1.19992 67.8681 0.785547L66.8691 0.208049C66.1524 -0.206401 65.1396 0.223948 64.6412 1.15477L56.2977 16.7362C55.8279 17.6137 55.9903 18.6148 56.6661 19.0055Z" fill="#5B86E5"/>
</svg>
