<svg width="103" height="90" viewBox="0 0 103 90" fill="none" xmlns="http://www.w3.org/2000/svg">
<path opacity="0.2" d="M17.5778 78.2057L0 68.2477L29.1639 50.5469L60.732 34.1523L61.7543 90L17.5778 78.2057Z" fill="#A9A9AB"/>
<path d="M61.7541 89.9997L20.8149 66.3638V23.6356L61.7541 47.2809V89.9997Z" fill="#B76F3F"/>
<path opacity="0.1" d="M20.8149 23.6356V66.3638L61.7541 89.9997L21.9982 65.6917L20.8149 23.6356Z" fill="#8C4320"/>
<path opacity="0.5" d="M38.0142 76.4352V33.565L44.5171 37.3229V80.5528L38.0142 76.4352Z" fill="#9C480C"/>
<path d="M61.7541 47.2812L20.8149 23.6359L61.7541 0L102.703 23.6359L61.7541 47.2812Z" fill="#EFD995"/>
<path d="M99.6832 23.6359L61.8772 45.3881L20.8149 23.6359L61.7541 47.2812L102.703 23.6359L61.7541 0L99.6832 23.6359Z" fill="#FFEDB4"/>
<path d="M39.0933 13.2238L86.5827 40.4945L93.7767 36.4053L39.2826 13.0345L39.0933 13.2238Z" fill="#DAC176"/>
<path d="M45.7857 9.28563L62.7671 18.7703L56.0181 22.6512L39.2827 13.0341L45.7857 9.28563Z" fill="#E6E1E4"/>
<path d="M93.9565 36.225L86.7625 40.3047L62.8237 26.551L69.7621 22.689L93.9565 36.225Z" fill="#E6E1E4"/>
<path d="M43.9683 37.0676L86.2895 13.4791L86.1853 14.1038L44.5173 37.3232L43.9683 37.0676Z" fill="#E1CD8E"/>
<path d="M69.7623 22.6893L62.8239 26.5513L56.0181 22.6514L62.7671 18.7705L69.7623 22.6893Z" fill="#F9F9F9"/>
<path d="M56.0178 22.6516L62.8237 26.5515L43.9585 37.0679L37.4556 33.31L56.0178 22.6516Z" fill="#F1F1F1"/>
<path d="M86.2989 13.4793L69.7623 22.6895L62.7671 18.7707L79.0955 9.3996L86.2989 13.4793Z" fill="#F1F1F1"/>
<path d="M37.4653 76.1708V33.3101L43.9683 37.068V80.2979L37.4653 76.1708Z" fill="#B3A4AD"/>
<path d="M61.7539 89.9997L102.703 66.3638V23.6356L61.7539 47.2809V89.9997Z" fill="#D9AF6A"/>
<path opacity="0.2" d="M61.7539 90L102.703 66.3641V65.6258L61.7539 89.2711V90Z" fill="#9D6F40"/>
<path d="M64.187 59.6627L75.8488 52.9231V43.1734L64.4047 49.2977L64.187 49.913V59.6627Z" fill="#AA5C26"/>
<path d="M87.0463 75.3851V32.6758L80.0322 36.7177V79.427L87.0463 75.3851Z" fill="#DAC176"/>
<path d="M87.3114 75.5366V32.5149L80.2974 36.5662V79.5879L87.3114 75.5366Z" fill="#D6D6D6"/>
<path d="M33.13 47.4328L23.6265 41.9332V27.9334L33.13 33.433V47.4328ZM24.4973 41.4315L32.2592 45.9183V33.9347L24.4973 29.4479V41.4315Z" fill="#A45823"/>
<path d="M26.5703 40.608L29.8076 42.4727V38.6391L26.5703 36.7649V40.608Z" fill="#A45823"/>
<path d="M24.9897 35.8845L31.3791 39.5761L28.1892 32.8934L24.9897 35.8845Z" fill="#A45823"/>
<path d="M64.6414 49.4769L76.3032 42.7373L76.0665 42.5574L64.4048 49.297L64.6414 49.4769Z" fill="#FEFEFE"/>
<path d="M64.6414 59.2269V49.4772L64.4048 49.2974V59.0376L64.6414 59.2269Z" fill="#8B8B8B"/>
<path d="M64.6411 59.2268L76.3029 52.4872V42.7375L64.6411 49.4771V59.2268Z" fill="#D6D6D6"/>
<path d="M65.2944 50.8028L75.6499 44.8205V44.2052L65.2944 50.1876V50.8028Z" fill="#6F6F6F"/>
<path d="M69.5825 51.0581L75.65 47.5558V46.9405L69.5825 50.4334V51.0581Z" fill="#8E8E8E"/>
<path d="M65.3325 57.6176L68.4941 55.7907V50.5467L65.3325 52.3736V57.6176Z" fill="#8E8E8E"/>
<path d="M69.5825 52.3927L75.65 48.8999V48.2751L69.5825 51.7774V52.3927Z" fill="#8E8E8E"/>
<path d="M69.5825 53.7369L75.65 50.2346V49.6193L69.5825 53.1216V53.7369Z" fill="#8E8E8E"/>
<path d="M69.5825 55.0811L75.65 51.5787V50.9635L69.5825 54.4658V55.0811Z" fill="#8E8E8E"/>
</svg>
