<svg width="280" height="214" viewBox="0 0 280 214" fill="none" xmlns="http://www.w3.org/2000/svg">
<g clip-path="url(#clip0_1068_6082)">
<path d="M89.6917 158.824C85.1443 157.354 80.6789 155.666 76.3226 153.61C67.2005 149.323 58.7339 143.905 53.053 135.33C44.3815 122.221 45.7744 100.959 59.3757 91.472C72.5809 82.2567 84.2977 70.9724 93.8158 57.7824C103.02 45.0417 107.963 29.3199 117.659 16.7152C128.515 2.59968 144.848 -3.52569 162.191 2.04159C174.331 5.9346 183.904 14.864 193.422 22.9223C202.708 30.7764 213.673 36.5614 225.363 39.9372C232.969 42.1287 240.767 42.6596 248.592 43.5307C259.011 44.6878 269.417 49.3975 274.879 58.708C281.912 70.6865 281.093 85.3466 276.081 97.8968C272.913 105.819 267.928 112.911 261.961 118.982C254.505 126.577 245.901 132.988 238.718 140.856C231.535 148.724 227.015 158.456 222.304 167.876C217.879 176.723 213.209 187.245 204.524 192.69C188.301 202.872 169.743 189.07 156.018 180.78C151.457 178.03 146.814 175.267 141.83 173.334C124.992 166.814 106.83 164.377 89.6917 158.824Z" fill="#EEF1F9"/>
<path d="M45.2828 125.311C44.9414 125.311 44.6683 125.039 44.6683 124.699V123.882C44.6683 123.542 44.9414 123.27 45.2828 123.27C45.6242 123.27 45.8973 123.542 45.8973 123.882V124.699C45.911 125.039 45.6242 125.311 45.2828 125.311Z" fill="#AFC7DB"/>
<path d="M144.247 190.921H142.595C142.253 190.921 141.98 190.648 141.98 190.308C141.98 189.968 142.253 189.695 142.595 189.695H144.247C144.588 189.695 144.862 189.968 144.862 190.308C144.862 190.648 144.588 190.921 144.247 190.921ZM138.484 190.921H136.832C136.49 190.921 136.217 190.648 136.217 190.308C136.217 189.968 136.49 189.695 136.832 189.695H138.484C138.826 189.695 139.099 189.968 139.099 190.308C139.099 190.648 138.826 190.921 138.484 190.921ZM132.721 190.921H131.069C130.728 190.921 130.455 190.648 130.455 190.308C130.455 189.968 130.728 189.695 131.069 189.695H132.721C133.063 189.695 133.336 189.968 133.336 190.308C133.336 190.648 133.063 190.921 132.721 190.921ZM126.959 190.921H125.306C124.965 190.921 124.692 190.648 124.692 190.308C124.692 189.968 124.965 189.695 125.306 189.695H126.959C127.3 189.695 127.573 189.968 127.573 190.308C127.573 190.648 127.3 190.921 126.959 190.921ZM121.196 190.921H119.544C119.202 190.921 118.929 190.648 118.929 190.308C118.929 189.968 119.202 189.695 119.544 189.695H121.196C121.537 189.695 121.81 189.968 121.81 190.308C121.81 190.648 121.537 190.921 121.196 190.921ZM115.419 190.921H113.767C113.426 190.921 113.153 190.648 113.153 190.308C113.153 189.968 113.426 189.695 113.767 189.695H115.419C115.761 189.695 116.034 189.968 116.034 190.308C116.048 190.648 115.761 190.921 115.419 190.921ZM109.657 190.921H108.018C107.677 190.921 107.403 190.648 107.403 190.308C107.403 189.968 107.677 189.695 108.018 189.695H109.657C109.998 189.695 110.271 189.968 110.271 190.308C110.285 190.648 109.998 190.921 109.657 190.921ZM103.894 190.921H102.242C101.9 190.921 101.627 190.648 101.627 190.308C101.627 189.968 101.9 189.695 102.242 189.695H103.894C104.235 189.695 104.508 189.968 104.508 190.308C104.522 190.648 104.235 190.921 103.894 190.921ZM98.1311 190.921H96.4787C96.1373 190.921 95.8642 190.648 95.8642 190.308C95.8642 189.968 96.1373 189.695 96.4787 189.695H98.1311C98.4725 189.695 98.7456 189.968 98.7456 190.308C98.7456 190.648 98.4725 190.921 98.1311 190.921ZM92.3683 190.921H90.7159C90.3745 190.921 90.1014 190.648 90.1014 190.308C90.1014 189.968 90.3745 189.695 90.7159 189.695H92.3683C92.7097 189.695 92.9828 189.968 92.9828 190.308C92.9828 190.648 92.7097 190.921 92.3683 190.921ZM86.6055 190.921H84.9532C84.6118 190.921 84.3386 190.648 84.3386 190.308C84.3386 189.968 84.6118 189.695 84.9532 189.695H86.6055C86.9469 189.695 87.22 189.968 87.22 190.308C87.22 190.648 86.9469 190.921 86.6055 190.921ZM80.8428 190.921H79.1904C78.849 190.921 78.5759 190.648 78.5759 190.308C78.5759 189.968 78.849 189.695 79.1904 189.695H80.8428C81.1841 189.695 81.4573 189.968 81.4573 190.308C81.4573 190.648 81.1841 190.921 80.8428 190.921ZM75.08 190.921H73.4276C73.0862 190.921 72.8131 190.648 72.8131 190.308C72.8131 189.968 73.0862 189.695 73.4276 189.695H75.08C75.4214 189.695 75.6945 189.968 75.6945 190.308C75.6945 190.648 75.4214 190.921 75.08 190.921ZM69.3172 190.921H67.6648C67.3234 190.921 67.0503 190.648 67.0503 190.308C67.0503 189.968 67.3234 189.695 67.6648 189.695H69.3172C69.6586 189.695 69.9317 189.968 69.9317 190.308C69.9317 190.648 69.6586 190.921 69.3172 190.921ZM63.5544 190.921H61.902C61.5606 190.921 61.2875 190.648 61.2875 190.308C61.2875 189.968 61.5606 189.695 61.902 189.695H63.5544C63.8958 189.695 64.1689 189.968 64.1689 190.308C64.1689 190.648 63.8958 190.921 63.5544 190.921ZM57.778 190.921H56.1256C55.7842 190.921 55.5111 190.648 55.5111 190.308C55.5111 189.968 55.7842 189.695 56.1256 189.695H57.778C58.1194 189.695 58.3925 189.968 58.3925 190.308C58.4061 190.648 58.1194 190.921 57.778 190.921ZM52.0289 190.839C52.0015 190.839 51.9742 190.839 51.9333 190.825C51.3461 190.744 50.7725 190.594 50.2126 190.39C49.8985 190.267 49.7347 189.913 49.8439 189.6C49.9668 189.287 50.3219 189.124 50.636 189.233C51.1139 189.41 51.6055 189.532 52.0971 189.614C52.4385 189.668 52.6707 189.981 52.6161 190.308C52.5887 190.621 52.3293 190.839 52.0289 190.839ZM148.207 189.981C147.989 189.981 147.77 189.859 147.661 189.655C147.497 189.355 147.606 188.988 147.907 188.824C148.357 188.579 148.767 188.293 149.163 187.967C149.423 187.749 149.819 187.776 150.037 188.035C150.256 188.293 150.228 188.688 149.969 188.906C149.518 189.287 149.027 189.627 148.508 189.9C148.412 189.954 148.303 189.981 148.207 189.981ZM47.1127 188.076C46.9352 188.076 46.7577 187.994 46.6348 187.858C46.2524 187.409 45.9247 186.905 45.6516 186.388C45.4877 186.088 45.6106 185.721 45.911 185.557C46.2114 185.394 46.5802 185.517 46.744 185.816C46.9762 186.265 47.263 186.687 47.5907 187.068C47.8092 187.327 47.7682 187.722 47.5088 187.94C47.3995 188.035 47.2493 188.076 47.1127 188.076ZM151.881 185.721C151.812 185.721 151.744 185.707 151.676 185.68C151.348 185.557 151.184 185.217 151.307 184.89C151.485 184.414 151.607 183.924 151.676 183.42C151.717 183.08 152.031 182.849 152.372 182.889C152.714 182.93 152.946 183.243 152.905 183.584C152.823 184.169 152.686 184.741 152.481 185.299C152.372 185.571 152.14 185.721 151.881 185.721ZM45.2828 182.767C44.9415 182.767 44.6683 182.495 44.6683 182.154V180.507C44.6683 180.167 44.9415 179.895 45.2828 179.895C45.6242 179.895 45.8974 180.167 45.8974 180.507V182.154C45.911 182.495 45.6242 182.767 45.2828 182.767ZM152.359 180.031C152.017 180.031 151.744 179.759 151.744 179.418V177.771C151.744 177.431 152.017 177.159 152.359 177.159C152.7 177.159 152.973 177.431 152.973 177.771V179.418C152.973 179.759 152.7 180.031 152.359 180.031ZM45.2828 177.023C44.9415 177.023 44.6683 176.751 44.6683 176.41V174.763C44.6683 174.423 44.9415 174.151 45.2828 174.151C45.6242 174.151 45.8974 174.423 45.8974 174.763V176.41C45.911 176.751 45.6242 177.023 45.2828 177.023ZM152.359 174.287C152.017 174.287 151.744 174.015 151.744 173.674V172.027C151.744 171.687 152.017 171.415 152.359 171.415C152.7 171.415 152.973 171.687 152.973 172.027V173.674C152.973 174.015 152.7 174.287 152.359 174.287ZM45.2828 171.279C44.9415 171.279 44.6683 171.006 44.6683 170.666V169.019C44.6683 168.679 44.9415 168.406 45.2828 168.406C45.6242 168.406 45.8974 168.679 45.8974 169.019V170.666C45.911 170.993 45.6242 171.279 45.2828 171.279ZM152.359 168.543C152.017 168.543 151.744 168.27 151.744 167.93V166.283C151.744 165.943 152.017 165.67 152.359 165.67C152.7 165.67 152.973 165.943 152.973 166.283V167.93C152.973 168.27 152.7 168.543 152.359 168.543ZM45.2828 165.534C44.9415 165.534 44.6683 165.262 44.6683 164.922V163.275C44.6683 162.934 44.9415 162.662 45.2828 162.662C45.6242 162.662 45.8974 162.934 45.8974 163.275V164.922C45.911 165.248 45.6242 165.534 45.2828 165.534ZM152.359 162.798C152.017 162.798 151.744 162.526 151.744 162.186V160.539C151.744 160.198 152.017 159.926 152.359 159.926C152.7 159.926 152.973 160.198 152.973 160.539V162.186C152.973 162.512 152.7 162.798 152.359 162.798ZM45.2828 159.79C44.9415 159.79 44.6683 159.518 44.6683 159.178V157.531C44.6683 157.19 44.9415 156.918 45.2828 156.918C45.6242 156.918 45.8974 157.19 45.8974 157.531V159.178C45.911 159.504 45.6242 159.79 45.2828 159.79ZM152.359 157.054C152.017 157.054 151.744 156.782 151.744 156.442V154.795C151.744 154.454 152.017 154.182 152.359 154.182C152.7 154.182 152.973 154.454 152.973 154.795V156.442C152.973 156.768 152.7 157.054 152.359 157.054ZM45.2828 154.032C44.9415 154.032 44.6683 153.76 44.6683 153.42V151.773C44.6683 151.432 44.9415 151.16 45.2828 151.16C45.6242 151.16 45.8974 151.432 45.8974 151.773V153.42C45.911 153.76 45.6242 154.032 45.2828 154.032ZM152.359 151.296C152.017 151.296 151.744 151.024 151.744 150.684V149.05C151.744 148.71 152.017 148.438 152.359 148.438C152.7 148.438 152.973 148.71 152.973 149.05V150.697C152.973 151.024 152.7 151.296 152.359 151.296ZM45.2828 148.288C44.9415 148.288 44.6683 148.016 44.6683 147.675V146.028C44.6683 145.688 44.9415 145.416 45.2828 145.416C45.6242 145.416 45.8974 145.688 45.8974 146.028V147.675C45.911 148.016 45.6242 148.288 45.2828 148.288ZM152.359 145.552C152.017 145.552 151.744 145.28 151.744 144.939V143.292C151.744 142.952 152.017 142.68 152.359 142.68C152.7 142.68 152.973 142.952 152.973 143.292V144.939C152.973 145.28 152.7 145.552 152.359 145.552ZM45.2828 142.544C44.9415 142.544 44.6683 142.272 44.6683 141.931V140.284C44.6683 139.944 44.9415 139.672 45.2828 139.672C45.6242 139.672 45.8974 139.944 45.8974 140.284V141.931C45.911 142.272 45.6242 142.544 45.2828 142.544ZM152.359 139.808C152.017 139.808 151.744 139.536 151.744 139.195V137.548C151.744 137.208 152.017 136.936 152.359 136.936C152.7 136.936 152.973 137.208 152.973 137.548V139.195C152.973 139.536 152.7 139.808 152.359 139.808ZM45.2828 136.8C44.9415 136.8 44.6683 136.527 44.6683 136.187V134.54C44.6683 134.2 44.9415 133.927 45.2828 133.927C45.6242 133.927 45.8974 134.2 45.8974 134.54V136.187C45.911 136.527 45.6242 136.8 45.2828 136.8ZM152.359 134.064C152.017 134.064 151.744 133.791 151.744 133.451V131.804C151.744 131.464 152.017 131.191 152.359 131.191C152.7 131.191 152.973 131.464 152.973 131.804V133.451C152.973 133.791 152.7 134.064 152.359 134.064ZM45.2828 131.055C44.9415 131.055 44.6683 130.783 44.6683 130.443V128.796C44.6683 128.455 44.9415 128.183 45.2828 128.183C45.6242 128.183 45.8974 128.455 45.8974 128.796V130.443C45.911 130.783 45.6242 131.055 45.2828 131.055ZM152.359 128.319C152.017 128.319 151.744 128.047 151.744 127.707V126.06C151.744 125.719 152.017 125.447 152.359 125.447C152.7 125.447 152.973 125.719 152.973 126.06V127.707C152.973 128.047 152.7 128.319 152.359 128.319ZM152.359 122.575C152.017 122.575 151.744 122.303 151.744 121.963V120.316C151.744 119.975 152.017 119.703 152.359 119.703C152.7 119.703 152.973 119.975 152.973 120.316V121.963C152.973 122.303 152.7 122.575 152.359 122.575ZM152.359 116.831C152.017 116.831 151.744 116.559 151.744 116.218V114.571C151.744 114.231 152.017 113.959 152.359 113.959C152.7 113.959 152.973 114.231 152.973 114.571V116.218C152.973 116.559 152.7 116.831 152.359 116.831ZM152.359 111.087C152.017 111.087 151.744 110.814 151.744 110.474V108.827C151.744 108.487 152.017 108.215 152.359 108.215C152.7 108.215 152.973 108.487 152.973 108.827V110.474C152.973 110.801 152.7 111.087 152.359 111.087ZM152.359 105.342C152.017 105.342 151.744 105.07 151.744 104.73V103.083C151.744 102.743 152.017 102.47 152.359 102.47C152.7 102.47 152.973 102.743 152.973 103.083V104.73C152.973 105.057 152.7 105.342 152.359 105.342ZM152.359 99.5982C152.017 99.5982 151.744 99.3259 151.744 98.9856V97.3386C151.744 96.9983 152.017 96.7261 152.359 96.7261C152.7 96.7261 152.973 96.9983 152.973 97.3386V98.9856C152.973 99.3123 152.7 99.5982 152.359 99.5982ZM152.359 93.8403C152.017 93.8403 151.744 93.5681 151.744 93.2278V91.5808C151.744 91.2405 152.017 90.9682 152.359 90.9682C152.7 90.9682 152.973 91.2405 152.973 91.5808V93.2278C152.973 93.5681 152.7 93.8403 152.359 93.8403ZM152.359 88.0961C152.017 88.0961 151.744 87.8239 151.744 87.4836V85.8365C151.744 85.4962 152.017 85.224 152.359 85.224C152.7 85.224 152.973 85.4962 152.973 85.8365V87.4836C152.973 87.8239 152.7 88.0961 152.359 88.0961ZM152.359 82.3519C152.017 82.3519 151.744 82.0796 151.744 81.7393V80.0923C151.744 79.752 152.017 79.4798 152.359 79.4798C152.7 79.4798 152.973 79.752 152.973 80.0923V81.7393C152.973 82.0796 152.7 82.3519 152.359 82.3519ZM234.267 79.0306C233.925 79.0306 233.652 78.7583 233.652 78.418V76.771C233.652 76.4307 233.925 76.1585 234.267 76.1585C234.608 76.1585 234.881 76.4307 234.881 76.771V78.418C234.881 78.7583 234.608 79.0306 234.267 79.0306ZM152.359 76.6076C152.017 76.6076 151.744 76.3354 151.744 75.9951V74.3481C151.744 74.0078 152.017 73.7355 152.359 73.7355C152.7 73.7355 152.973 74.0078 152.973 74.3481V75.9951C152.973 76.3354 152.7 76.6076 152.359 76.6076ZM234.267 73.2863C233.925 73.2863 233.652 73.0141 233.652 72.6738V71.0268C233.652 70.6865 233.925 70.4142 234.267 70.4142C234.608 70.4142 234.881 70.6865 234.881 71.0268V72.6738C234.881 73.0005 234.608 73.2863 234.267 73.2863ZM152.359 70.8634C152.017 70.8634 151.744 70.5912 151.744 70.2509V68.6038C151.744 68.2635 152.017 67.9913 152.359 67.9913C152.7 67.9913 152.973 68.2635 152.973 68.6038V70.2509C152.973 70.5912 152.7 70.8634 152.359 70.8634ZM234.267 67.5421C233.925 67.5421 233.652 67.2699 233.652 66.9296V65.2825C233.652 64.9422 233.925 64.67 234.267 64.67C234.608 64.67 234.881 64.9422 234.881 65.2825V66.9296C234.881 67.2563 234.608 67.5421 234.267 67.5421ZM152.359 65.1192C152.017 65.1192 151.744 64.8469 151.744 64.5067V62.8596C151.744 62.5193 152.017 62.2471 152.359 62.2471C152.7 62.2471 152.973 62.5193 152.973 62.8596V64.5067C152.973 64.8469 152.7 65.1192 152.359 65.1192ZM234.267 61.7843C233.925 61.7843 233.652 61.512 233.652 61.1717V59.5247C233.652 59.1844 233.925 58.9122 234.267 58.9122C234.608 58.9122 234.881 59.1844 234.881 59.5247V61.1717C234.881 61.512 234.608 61.7843 234.267 61.7843ZM152.359 59.375C152.017 59.375 151.744 59.1027 151.744 58.7624V57.1154C151.744 56.7751 152.017 56.5028 152.359 56.5028C152.7 56.5028 152.973 56.7751 152.973 57.1154V58.7624C152.973 59.1027 152.7 59.375 152.359 59.375ZM234.267 56.04C233.925 56.04 233.652 55.7678 233.652 55.4275V53.7805C233.652 53.4402 233.925 53.1679 234.267 53.1679C234.608 53.1679 234.881 53.4402 234.881 53.7805V55.4275C234.881 55.7678 234.608 56.04 234.267 56.04ZM152.359 53.6307C152.017 53.6307 151.744 53.3585 151.744 53.0182V51.3711C151.744 51.0309 152.017 50.7586 152.359 50.7586C152.7 50.7586 152.973 51.0309 152.973 51.3711V53.0182C152.973 53.3449 152.7 53.6307 152.359 53.6307ZM234.267 50.2958C233.939 50.2958 233.652 50.0236 233.652 49.6969C233.638 49.1932 233.57 48.6896 233.461 48.1996C233.379 47.8729 233.584 47.5326 233.925 47.4645C234.253 47.3829 234.594 47.587 234.663 47.9273C234.799 48.499 234.881 49.0843 234.895 49.6833C234.908 50.0236 234.635 50.3094 234.294 50.3094C234.267 50.2958 234.267 50.2958 234.267 50.2958ZM152.782 47.9273C152.714 47.9273 152.645 47.9137 152.577 47.9001C152.249 47.7912 152.085 47.4373 152.195 47.1106C152.386 46.5525 152.645 46.0217 152.946 45.5044C153.123 45.2186 153.506 45.1233 153.792 45.3002C154.079 45.4772 154.175 45.8583 153.997 46.1442C153.738 46.5798 153.519 47.0426 153.355 47.5054C153.274 47.764 153.041 47.9273 152.782 47.9273ZM232.123 45.1097C231.959 45.1097 231.795 45.0416 231.672 44.9191C231.331 44.5516 230.934 44.2249 230.525 43.9254C230.238 43.7349 230.17 43.3401 230.375 43.0679C230.566 42.782 230.962 42.714 231.235 42.9181C231.713 43.2584 232.164 43.6396 232.573 44.0752C232.805 44.3202 232.792 44.7149 232.546 44.9463C232.423 45.0552 232.273 45.1097 232.123 45.1097ZM156.401 43.626C156.182 43.626 155.977 43.5171 155.854 43.3129C155.691 43.0134 155.8 42.6459 156.087 42.469C156.606 42.1831 157.152 41.9517 157.712 41.7747C158.039 41.6795 158.381 41.8564 158.49 42.1831C158.586 42.5098 158.408 42.8501 158.08 42.959C157.602 43.1087 157.124 43.3129 156.687 43.5579C156.606 43.5987 156.51 43.626 156.401 43.626ZM227.043 42.6595C227.029 42.6595 227.002 42.6595 226.988 42.6595C226.783 42.6459 226.565 42.6323 226.36 42.6323H225.404C225.062 42.6323 224.789 42.3601 224.789 42.0198C224.789 41.6795 225.062 41.4072 225.404 41.4072H226.36C226.606 41.4072 226.851 41.4208 227.097 41.4344C227.439 41.4617 227.684 41.7611 227.657 42.1014C227.63 42.4145 227.37 42.6595 227.043 42.6595ZM221.28 42.6323H219.627C219.286 42.6323 219.013 42.3601 219.013 42.0198C219.013 41.6795 219.286 41.4072 219.627 41.4072H221.28C221.621 41.4072 221.894 41.6795 221.894 42.0198C221.908 42.3464 221.621 42.6323 221.28 42.6323ZM215.517 42.6323H213.865C213.523 42.6323 213.25 42.3601 213.25 42.0198C213.25 41.6795 213.523 41.4072 213.865 41.4072H215.517C215.858 41.4072 216.132 41.6795 216.132 42.0198C216.145 42.3464 215.858 42.6323 215.517 42.6323ZM209.754 42.6323H208.116C207.774 42.6323 207.501 42.3601 207.501 42.0198C207.501 41.6795 207.774 41.4072 208.116 41.4072H209.768C210.109 41.4072 210.382 41.6795 210.382 42.0198C210.369 42.3464 210.096 42.6323 209.754 42.6323ZM203.991 42.6323H202.339C201.998 42.6323 201.725 42.3601 201.725 42.0198C201.725 41.6795 201.998 41.4072 202.339 41.4072H203.991C204.333 41.4072 204.606 41.6795 204.606 42.0198C204.606 42.3464 204.333 42.6323 203.991 42.6323ZM198.229 42.6323H196.576C196.235 42.6323 195.962 42.3601 195.962 42.0198C195.962 41.6795 196.235 41.4072 196.576 41.4072H198.229C198.57 41.4072 198.843 41.6795 198.843 42.0198C198.843 42.3464 198.57 42.6323 198.229 42.6323ZM192.466 42.6323H190.814C190.472 42.6323 190.199 42.3601 190.199 42.0198C190.199 41.6795 190.472 41.4072 190.814 41.4072H192.466C192.807 41.4072 193.08 41.6795 193.08 42.0198C193.08 42.3464 192.807 42.6323 192.466 42.6323ZM186.703 42.6323H185.051C184.709 42.6323 184.436 42.3601 184.436 42.0198C184.436 41.6795 184.709 41.4072 185.051 41.4072H186.703C187.044 41.4072 187.318 41.6795 187.318 42.0198C187.318 42.3464 187.044 42.6323 186.703 42.6323ZM180.94 42.6323H179.288C178.947 42.6323 178.673 42.3601 178.673 42.0198C178.673 41.6795 178.947 41.4072 179.288 41.4072H180.94C181.282 41.4072 181.555 41.6795 181.555 42.0198C181.555 42.3464 181.282 42.6323 180.94 42.6323ZM175.178 42.6323H173.525C173.184 42.6323 172.911 42.3601 172.911 42.0198C172.911 41.6795 173.184 41.4072 173.525 41.4072H175.178C175.519 41.4072 175.792 41.6795 175.792 42.0198C175.792 42.3464 175.519 42.6323 175.178 42.6323ZM169.401 42.6323H167.749C167.407 42.6323 167.134 42.3601 167.134 42.0198C167.134 41.6795 167.407 41.4072 167.749 41.4072H169.401C169.743 41.4072 170.016 41.6795 170.016 42.0198C170.029 42.3464 169.743 42.6323 169.401 42.6323ZM163.638 42.6323H161.986C161.645 42.6323 161.371 42.3601 161.371 42.0198C161.371 41.6795 161.645 41.4072 161.986 41.4072H163.638C163.98 41.4072 164.253 41.6795 164.253 42.0198C164.267 42.3464 163.98 42.6323 163.638 42.6323Z" fill="#AFC7DB"/>
<path d="M234.266 83.9851C233.925 83.9851 233.652 83.7129 233.652 83.3726V82.5559C233.652 82.2156 233.925 81.9434 234.266 81.9434C234.608 81.9434 234.881 82.2156 234.881 82.5559V83.3726C234.881 83.7129 234.608 83.9851 234.266 83.9851Z" fill="#AFC7DB"/>
<path d="M62.3254 176.696C58.3788 176.696 55.1833 173.497 55.1833 169.577V59.8648C55.1833 56.2576 58.133 53.3311 61.7382 53.3311H218.904C222.522 53.3311 225.458 56.2712 225.458 59.8784V169.59C225.458 173.524 222.249 176.71 218.316 176.71H62.3254V176.696Z" fill="white"/>
<path d="M218.904 53.7395C222.29 53.7395 225.049 56.4891 225.049 59.8785V169.591C225.049 173.293 222.031 176.301 218.316 176.301H62.3254C58.611 176.301 55.593 173.293 55.593 169.591V59.8785C55.593 56.5027 58.3515 53.7531 61.7382 53.7531H218.904V53.7395ZM218.904 52.9092H61.7382C57.8872 52.9092 54.76 56.0263 54.76 59.8649V169.577C54.76 173.742 58.1467 177.104 62.3117 177.104H218.303C222.481 177.104 225.854 173.742 225.854 169.577V59.8649C225.882 56.0263 222.755 52.9092 218.904 52.9092Z" fill="#5B86E5"/>
<path d="M225.882 59.8649V67.8687H54.7737V59.8649C54.7737 56.0263 57.9009 52.9092 61.7382 52.9092H218.904C222.755 52.9092 225.882 56.0263 225.882 59.8649Z" fill="#5B86E5"/>
<path d="M200.399 60.8079C200.531 59.9991 199.981 59.2367 199.169 59.105C198.358 58.9734 197.593 59.5222 197.461 60.331C197.329 61.1398 197.88 61.9022 198.691 62.0338C199.502 62.1655 200.267 61.6166 200.399 60.8079Z" fill="white"/>
<path d="M207.624 62.0568C208.446 62.0568 209.112 61.3925 209.112 60.5731C209.112 59.7536 208.446 59.0894 207.624 59.0894C206.802 59.0894 206.135 59.7536 206.135 60.5731C206.135 61.3925 206.802 62.0568 207.624 62.0568Z" fill="white"/>
<path d="M216.309 62.0568C217.131 62.0568 217.798 61.3925 217.798 60.5731C217.798 59.7536 217.131 59.0894 216.309 59.0894C215.487 59.0894 214.821 59.7536 214.821 60.5731C214.821 61.3925 215.487 62.0568 216.309 62.0568Z" fill="white"/>
<path d="M99.2099 52.9092V111.223C99.2099 112.706 98.0082 113.904 96.5197 113.904H54.7737V59.8649C54.7737 56.0263 57.9009 52.9092 61.7518 52.9092H99.2099Z" fill="url(#paint0_linear_1068_6082)"/>
<path d="M93.2286 110.624H8.41201C6.92352 110.624 5.7218 109.426 5.7218 107.942V35.6903C5.7218 34.2066 6.92352 33.0088 8.41201 33.0088H93.2286C94.7171 33.0088 95.9188 34.2066 95.9188 35.6903V107.942C95.9188 109.426 94.7171 110.624 93.2286 110.624Z" fill="url(#paint1_linear_1068_6082)"/>
<path d="M95.9189 41.4754H5.73547V35.6903C5.73547 34.2066 6.93719 33.0088 8.42568 33.0088H93.2423C94.7308 33.0088 95.9325 34.2066 95.9325 35.6903V41.4754H95.9189Z" fill="#5B86E5"/>
<path d="M84.1202 53.5898H19.1729V54.4066H84.1202V53.5898Z" fill="url(#paint2_linear_1068_6082)"/>
<path d="M84.1202 75.2603H19.1729V76.077H84.1202V75.2603Z" fill="url(#paint3_linear_1068_6082)"/>
<path d="M84.1202 96.9438H19.1729V97.7606H84.1202V96.9438Z" fill="url(#paint4_linear_1068_6082)"/>
<path d="M32.7604 57.8642C34.9778 57.8642 36.7753 56.0725 36.7753 53.8623C36.7753 51.6521 34.9778 49.8604 32.7604 49.8604C30.5431 49.8604 28.7456 51.6521 28.7456 53.8623C28.7456 56.0725 30.5431 57.8642 32.7604 57.8642Z" fill="url(#paint5_linear_1068_6082)"/>
<path d="M32.7604 56.7345C34.3518 56.7345 35.6418 55.4486 35.6418 53.8623C35.6418 52.2761 34.3518 50.9902 32.7604 50.9902C31.1691 50.9902 29.879 52.2761 29.879 53.8623C29.879 55.4486 31.1691 56.7345 32.7604 56.7345Z" fill="url(#paint6_linear_1068_6082)"/>
<path d="M70.5872 79.8612C72.8045 79.8612 74.602 78.0695 74.602 75.8593C74.602 73.6491 72.8045 71.8574 70.5872 71.8574C68.3699 71.8574 66.5724 73.6491 66.5724 75.8593C66.5724 78.0695 68.3699 79.8612 70.5872 79.8612Z" fill="url(#paint7_linear_1068_6082)"/>
<path d="M70.5872 78.731C72.1786 78.731 73.4686 77.4452 73.4686 75.8589C73.4686 74.2727 72.1786 72.9868 70.5872 72.9868C68.9959 72.9868 67.7058 74.2727 67.7058 75.8589C67.7058 77.4452 68.9959 78.731 70.5872 78.731Z" fill="url(#paint8_linear_1068_6082)"/>
<path d="M49.5981 101.163C51.8154 101.163 53.6129 99.3718 53.6129 97.1616C53.6129 94.9514 51.8154 93.1597 49.5981 93.1597C47.3808 93.1597 45.5833 94.9514 45.5833 97.1616C45.5833 99.3718 47.3808 101.163 49.5981 101.163Z" fill="url(#paint9_linear_1068_6082)"/>
<path d="M49.5982 100.034C51.1895 100.034 52.4796 98.7479 52.4796 97.1617C52.4796 95.5754 51.1895 94.2896 49.5982 94.2896C48.0068 94.2896 46.7168 95.5754 46.7168 97.1617C46.7168 98.7479 48.0068 100.034 49.5982 100.034Z" fill="url(#paint10_linear_1068_6082)"/>
<path d="M83.3008 52.7598H18.3535V53.5765H83.3008V52.7598Z" fill="white"/>
<path d="M83.3008 74.4434H18.3535V75.2601H83.3008V74.4434Z" fill="white"/>
<path d="M83.3008 96.1274H18.3535V96.9442H83.3008V96.1274Z" fill="white"/>
<path d="M33.5732 56.6825C35.5949 55.775 36.4958 53.4057 35.5854 51.3904C34.675 49.3751 32.298 48.4771 30.2762 49.3846C28.2544 50.2922 27.3535 52.6615 28.264 54.6768C29.1744 56.692 31.5514 57.5901 33.5732 56.6825Z" fill="white"/>
<path d="M34.8007 53.2453C34.9139 51.663 33.7189 50.2889 32.1315 50.1761C30.5441 50.0632 29.1656 51.2544 29.0524 52.8367C28.9392 54.419 30.1342 55.7931 31.7216 55.906C33.309 56.0188 34.6875 54.8276 34.8007 53.2453Z" fill="#3676E2"/>
<path d="M69.7679 79.0443C71.9852 79.0443 73.7827 77.2526 73.7827 75.0424C73.7827 72.8322 71.9852 71.0405 69.7679 71.0405C67.5506 71.0405 65.7531 72.8322 65.7531 75.0424C65.7531 77.2526 67.5506 79.0443 69.7679 79.0443Z" fill="white"/>
<path d="M69.7679 77.9146C71.3592 77.9146 72.6493 76.6287 72.6493 75.0425C72.6493 73.4563 71.3592 72.1704 69.7679 72.1704C68.1765 72.1704 66.8865 73.4563 66.8865 75.0425C66.8865 76.6287 68.1765 77.9146 69.7679 77.9146Z" fill="#3676E2"/>
<path d="M48.7652 100.347C50.9825 100.347 52.78 98.5554 52.78 96.3452C52.78 94.135 50.9825 92.3433 48.7652 92.3433C46.5479 92.3433 44.7504 94.135 44.7504 96.3452C44.7504 98.5554 46.5479 100.347 48.7652 100.347Z" fill="white"/>
<path d="M51.5754 97.0055C51.9378 95.461 50.9754 93.9161 49.4259 93.555C47.8764 93.1938 46.3265 94.1531 45.9642 95.6976C45.6018 97.2421 46.5642 98.7869 48.1137 99.1481C49.6632 99.5093 51.2131 98.55 51.5754 97.0055Z" fill="#3676E2"/>
<path d="M78.2618 37.283C78.2618 37.8002 77.8384 38.2222 77.3195 38.2222C76.8005 38.2222 76.3772 37.8002 76.3772 37.283C76.3772 36.7657 76.8005 36.3438 77.3195 36.3438C77.8521 36.3574 78.2618 36.7657 78.2618 37.283Z" fill="white"/>
<path d="M82.7954 38.2222C82.2765 38.2222 81.8531 37.8002 81.8531 37.283C81.8531 36.7657 82.2765 36.3438 82.7954 36.3438C83.3144 36.3438 83.7377 36.7657 83.7377 37.283C83.7377 37.8002 83.3144 38.2222 82.7954 38.2222Z" fill="white"/>
<path d="M88.2578 38.2222C87.7389 38.2222 87.3156 37.8002 87.3156 37.283C87.3156 36.7657 87.7389 36.3438 88.2578 36.3438C88.7768 36.3438 89.2001 36.7657 89.2001 37.283C89.2001 37.8002 88.7768 38.2222 88.2578 38.2222Z" fill="white"/>
<path d="M14.4342 113.319L14.5571 110.379C14.5571 110.379 10.1463 103.233 13.7105 101.354C17.2746 99.4758 20.6613 102.389 20.6613 105.642C20.6613 108.895 20.4018 109.685 18.8997 109.875L19.2001 112.516" fill="#EAA192"/>
<path d="M17.3839 108.732C17.2064 109.875 17.0698 110.297 15.9227 110.461C14.325 110.678 13.1506 110.338 11.7714 107.48C10.3921 104.621 9.66835 101.232 13.4101 100.047C17.1518 98.8768 18.0394 96.9167 18.8314 97.6109C19.6235 98.3051 21.2622 102.783 20.0058 103.573C18.7495 104.362 17.0835 104.24 17.3156 105.506C17.5614 106.813 17.6297 107.126 17.3839 108.732Z" fill="url(#paint11_linear_1068_6082)"/>
<path d="M14.243 147.961C14.1065 148.179 13.7924 148.111 13.3554 147.798C13.3417 147.798 13.3417 147.798 13.3417 147.798C12.9321 147.526 12.4268 147.049 11.8396 146.437C11.1158 145.675 10.2692 144.694 9.39519 143.592C5.31209 138.515 0.218447 130.878 0.477908 130.184C0.860273 129.191 0.805649 128.292 3.04521 128.85C3.44123 128.946 3.78263 129.191 4.00112 129.517C5.16187 131.232 9.20401 137.249 11.8669 141.972C12.4268 142.952 12.9184 143.891 13.3144 144.708C14.1065 146.328 14.5161 147.539 14.243 147.961Z" fill="#EAA192"/>
<path d="M7.79751 134.608L13.9153 144.953L11.6485 146.573L4.06946 136.84L7.79751 134.608Z" fill="#EAA192"/>
<path d="M17.8072 149.799C17.7799 149.826 17.7663 149.84 17.7389 149.854L16.6465 150.18C16.4826 150.289 15.8817 150.248 15.7042 150.153L14.8849 149.84C14.1474 149.486 13.4647 148.996 12.9184 148.397L11.8669 146.805L11.6348 146.464L12.0308 146.083L13.2325 144.94L13.492 144.681H13.5056L13.6831 144.695L14.9668 144.79C15.3492 144.817 15.7179 144.94 16.032 145.13L17.1927 146.328C17.1927 146.328 16.865 146.519 16.3597 146.315C16.1276 146.219 15.7725 146.219 15.4448 146.247L16.1685 146.832L17.8618 148.411C18.2579 148.792 18.2306 149.459 17.8072 149.799Z" fill="#EAA192"/>
<path d="M11.1842 114.422C10.2283 114.218 10.4877 113.061 9.88689 113.809C7.19668 117.199 -1.63867 128.66 0.751109 130.743C3.57788 133.193 10.7882 122.575 12.4815 119.254C13.9017 116.477 13.4784 114.912 11.1842 114.422Z" fill="#EAA192"/>
<path d="M9.04019 113.85C7.74288 115.293 6.06321 117.784 3.40032 121.895C3.22279 122.181 3.03161 122.466 2.84042 122.78C2.84042 122.78 2.81311 122.834 2.77215 122.902C2.26688 123.678 -0.710102 128.592 0.163873 131.478C0.477959 132.458 1.99376 134.404 3.56419 136.555C3.63247 136.636 3.70074 136.718 3.75537 136.813L5.5716 135.575L7.27858 134.404L7.78385 134.037C6.66407 132.008 5.74913 130.361 5.76278 130.212C5.77644 130.076 8.17987 126.754 10.0507 123.991C10.0644 123.977 10.0644 123.95 10.078 123.937C10.9657 122.63 11.8123 121.391 12.3586 120.574C12.9867 119.69 13.4374 118.669 13.6013 117.593C13.9153 115.579 13.1916 114.354 12.3586 113.632C11.389 112.775 9.90051 112.884 9.04019 113.85Z" fill="#5B86E5"/>
<path d="M3.5096 136.582L7.57905 133.764C7.66099 133.71 7.78389 133.723 7.85217 133.805L8.22088 134.322C8.28916 134.404 8.26184 134.526 8.17991 134.594L4.13777 137.453C4.05583 137.521 3.93293 137.494 3.86465 137.412L3.46863 136.854C3.40035 136.772 3.42766 136.65 3.5096 136.582Z" fill="white"/>
<path d="M3.40031 121.908C3.22279 122.194 3.03161 122.48 2.84042 122.793C2.84042 122.793 2.81311 122.847 2.77214 122.915C2.26688 123.691 -0.710102 128.605 0.163873 131.491C0.477959 132.471 1.99376 134.418 3.56419 136.568C3.63246 136.65 3.70074 136.732 3.75537 136.827L5.5716 135.588L7.51073 133.873C7.51073 133.873 4.12408 135.207 2.7858 133.451C1.47484 131.709 -0.969564 130.416 3.40031 121.908Z" fill="url(#paint12_linear_1068_6082)"/>
<path d="M23.1057 145.974C20.8662 146.205 19.2685 148.411 19.6098 150.752C19.883 152.617 20.4975 155.053 21.8221 158.007C25.1268 165.371 27.0386 174.804 30.1931 175.28C33.3477 175.757 34.4674 170.203 32.6102 162.526C30.9306 155.584 30.7121 146.872 28.4725 146.069C27.3254 145.661 25.0585 145.77 23.1057 145.974Z" fill="#EAA192"/>
<path d="M32.4191 173.252C26.3286 169.564 28.9232 198.217 31.0671 205.839C33.2111 213.462 34.4265 206.942 34.604 194.487C34.7815 182.032 34.8089 174.709 32.4191 173.252Z" fill="#EAA192"/>
<path d="M15.0078 145.715C12.7819 145.389 10.6925 147.145 10.4467 149.5C10.2555 151.378 10.2692 153.896 10.8291 157.068C12.2356 165.004 11.7987 174.627 14.7483 175.852C17.698 177.077 20.1287 171.959 20.197 164.064C20.2653 156.932 22.1771 148.424 20.197 147.104C19.1865 146.45 16.9606 146.001 15.0078 145.715Z" fill="#EAA192"/>
<path d="M17.3156 173.593C11.4846 169.509 12.1674 198.271 13.7924 206.016C15.4175 213.761 17.0698 207.35 18.0804 194.922C19.0909 182.522 19.6098 175.199 17.3156 173.593Z" fill="#EAA192"/>
<path d="M29.7289 203.13L30.0976 206.983H34.604L34.5357 202.79L29.7289 203.13Z" fill="#EAA192"/>
<path d="M13.1096 203.13L13.3008 206.983H17.8072L17.739 202.79L13.1096 203.13Z" fill="#EAA192"/>
<path d="M34.9044 203.743H29.3055L27.3117 175.975L21.0847 157.231C21.0847 157.231 20.0878 174.137 19.8556 176.656C19.7464 177.867 19.2957 184.21 18.8587 190.485C18.3944 197.237 17.9438 203.893 17.9438 203.893H12.8638L11.7167 175.063L11.5665 173.375L9.25867 147.594L28.6773 145.307L29.3601 145.226C29.3601 145.226 34.8907 166.719 35.1912 173.906C35.5053 181.107 34.9044 203.743 34.9044 203.743Z" fill="url(#paint13_linear_1068_6082)"/>
<path opacity="0.5" d="M34.9045 203.743H29.3055C35.0683 202.886 35.2185 173.906 35.2185 173.906C35.5053 181.106 34.9045 203.743 34.9045 203.743Z" fill="#C3D3DD"/>
<path d="M11.4982 153.815C11.6621 157.109 12.4951 163.22 11.5665 173.375L9.25867 147.594L28.6773 145.307L29.0733 145.375C29.0733 145.375 24.5942 149.091 18.3671 149.799C12.1401 150.507 11.3344 150.275 11.4982 153.815Z" fill="#C3D3DD"/>
<path d="M30.0292 145.049C30.0292 145.049 23.3651 148.942 15.9364 149.091C13.451 149.146 10.87 148.778 8.43928 147.703C8.43928 147.703 8.64412 135.874 8.33004 129.545C8.02961 123.215 7.33316 114.667 9.92777 112.979C11.0202 112.271 13.1232 112.108 14.4479 112.067C14.7619 112.053 15.2536 112.339 16.2914 112.326C17.9438 112.312 19.0226 111.958 19.0226 111.958C21.6308 111.985 27.2707 112.625 27.4209 118.369V118.437C27.6531 125.706 27.6804 138.855 30.0292 145.049Z" fill="#5B86E5"/>
<path d="M27.4483 118.451C27.6532 125.665 27.6805 138.678 29.9883 144.926C28.7866 142.598 27.8307 139.958 27.421 137.276C26.7792 132.961 26.2057 129.095 26.3695 124.807C26.5471 120.52 21.9041 119.199 21.9041 119.199L27.4483 118.451Z" fill="url(#paint14_linear_1068_6082)"/>
<path opacity="0.5" d="M30.0565 145.062C30.0292 145.048 30.0292 145.048 30.0292 145.048C30.0156 145.007 29.9883 144.967 29.9746 144.912C30.0156 144.967 30.0292 145.021 30.0565 145.062Z" fill="#C3D3DD"/>
<path d="M48.2599 99.7479C48.5193 99.7888 48.5739 100.102 48.4783 100.619C48.4783 100.633 48.4783 100.633 48.4783 100.633C48.3828 101.109 48.1643 101.776 47.8229 102.552C47.4132 103.518 46.8533 104.675 46.1978 105.928C43.1799 111.699 38.2228 119.417 37.4854 119.458C36.4202 119.512 35.6145 119.921 35.2185 117.661C35.1502 117.267 35.2322 116.858 35.4507 116.518C36.5568 114.762 40.4487 108.65 43.7125 104.322C44.3952 103.423 45.0507 102.593 45.6379 101.899C46.826 100.537 47.7682 99.6799 48.2599 99.7479Z" fill="#EAA192"/>
<path d="M49.1339 97.7335C49.1612 97.7471 49.1885 97.7879 49.2158 97.8424C49.6255 98.4957 49.6938 99.2988 49.448 100.034C49.2978 100.469 49.1202 100.891 48.9973 101.205C48.9564 101.3 48.9154 101.381 48.8608 101.463L48.0278 102.756L47.8366 103.056L47.3996 102.879L46.0613 102.321L45.7609 102.198L45.7063 102.048L45.3239 100.987C45.2147 100.674 45.1737 100.333 45.2283 100.02L45.7882 98.6591C45.7882 98.6591 46.0613 98.8496 46.075 99.3397C46.075 99.5575 46.2115 99.8433 46.3481 100.088L46.5666 99.2988L46.8124 98.4685C46.9216 98.0057 48.1507 97.0529 49.1339 97.7335Z" fill="#EAA192"/>
<path d="M38.1544 111.754L45.6242 101.694L48.014 102.783L41.7186 114.558L38.1544 111.754Z" fill="#EAA192"/>
<path d="M18.7085 116.069C18.8997 117.021 17.739 117.253 18.6676 117.498C22.8462 118.587 36.9391 122.031 37.8813 119.009C39.0011 115.442 26.3421 113.142 22.6004 112.938C19.5006 112.761 18.2306 113.768 18.7085 116.069Z" fill="#EAA192"/>
<path d="M42.2512 114.285C40.8993 116.559 39.5747 118.587 38.7963 119.254C36.4884 121.214 30.7803 120.479 29.8653 120.329C29.7834 120.316 29.7288 120.316 29.7288 120.316C25.9325 120.098 21.3714 119.499 19.3913 118.845C18.1486 118.451 17.0971 116.545 17.4931 115.306C17.8209 114.245 18.0667 111.822 20.1014 111.971C21.4533 112.08 22.8053 112.298 23.8704 112.502C26.8884 113.047 34.8361 114.49 35.0409 114.422C35.1775 114.367 36.4338 112.992 37.9633 111.359L42.2512 114.285Z" fill="#5B86E5"/>
<path d="M37.6629 111.822L42.0327 114.639C42.1147 114.694 42.2103 114.667 42.2649 114.585L42.6746 113.945C42.7292 113.864 42.7019 113.768 42.62 113.727L38.3047 110.896C38.2364 110.842 38.1272 110.869 38.0862 110.937L37.6219 111.577C37.5673 111.672 37.5809 111.781 37.6629 111.822Z" fill="white"/>
<path d="M30.0156 211.829V206.152C30.0156 206.152 31.7909 206.847 34.604 205.962C34.604 205.962 36.6797 208.126 38.6598 208.317C40.6399 208.507 41.6777 209.379 41.705 210.536C41.746 212.605 30.0156 211.829 30.0156 211.829Z" fill="url(#paint15_linear_1068_6082)"/>
<path d="M13.2599 206.411C13.2599 206.411 16.6602 206.683 17.7936 206.18C17.7936 206.18 18.3262 207.922 18.5993 208.548C18.8724 209.174 19.0636 209.61 20.2244 209.923C21.5353 210.277 21.7948 211.951 20.5794 212.06C19.3641 212.183 13.2599 212.06 13.2599 212.06V206.411Z" fill="url(#paint16_linear_1068_6082)"/>
<path d="M242.31 147.812C244.754 147.24 249.916 153.692 252.47 160.253C254.136 164.541 256.703 173.634 251.172 175.825C245.546 178.057 243.02 171.796 241.709 168.502C240.398 165.194 239.934 160.689 239.838 158.701C239.742 156.782 239.51 148.465 242.31 147.812Z" fill="#3D5A99"/>
<path d="M253.535 195.753C253.467 195.753 253.412 195.698 253.412 195.63C253.412 195.562 253.303 188.756 251.05 175.839C248.796 162.921 242.72 150.03 242.665 149.908C242.638 149.853 242.665 149.772 242.72 149.745C242.774 149.717 242.856 149.745 242.883 149.799C242.938 149.935 249.029 162.839 251.295 175.798C253.549 188.743 253.658 195.562 253.672 195.63C253.658 195.698 253.603 195.753 253.535 195.753Z" fill="#3D5A99"/>
<path d="M258.342 178.125C253.822 169.046 259.776 160.879 264.145 156.823C270.632 150.793 275.712 149.772 275.712 149.772C275.712 149.772 276.709 155.68 274.633 161.369C270.932 171.497 265.934 179.977 258.342 178.125Z" fill="#3D5A99"/>
<path d="M256.853 200.708C256.799 200.708 256.744 200.667 256.73 200.599C256.717 200.49 255.201 189.042 257.946 178.207C260.691 167.358 269.225 159.695 269.307 159.627C269.362 159.586 269.43 159.586 269.485 159.64C269.526 159.695 269.526 159.763 269.471 159.817C269.389 159.899 260.895 167.494 258.178 178.275C255.447 189.069 256.949 200.462 256.976 200.585C256.99 200.653 256.935 200.708 256.867 200.721C256.853 200.708 256.853 200.708 256.853 200.708Z" fill="#3D5A99"/>
<path d="M255.379 136.568C255.379 136.568 253.316 137.861 250.531 147.58C248.209 155.72 245.587 174.845 255.283 174.845H255.474C265.156 174.845 262.548 155.72 260.226 147.58C257.441 137.861 255.379 136.568 255.379 136.568Z" fill="#5B86E5"/>
<path d="M255.378 197.278C255.31 197.278 255.255 197.223 255.255 197.155V142.381C255.255 142.313 255.31 142.258 255.378 142.258C255.447 142.258 255.501 142.313 255.501 142.381V197.155C255.488 197.223 255.447 197.278 255.378 197.278Z" fill="#3D5A99"/>
<path d="M255.379 158.402C255.351 158.402 255.31 158.388 255.297 158.361C255.256 158.32 255.256 158.239 255.297 158.184L259.803 153.692C259.844 153.638 259.926 153.638 259.98 153.692C260.021 153.733 260.021 153.815 259.98 153.869L255.474 158.361C255.433 158.388 255.406 158.402 255.379 158.402Z" fill="#3D5A99"/>
<path d="M255.379 155.04C255.351 155.04 255.31 155.026 255.297 154.999C255.256 154.958 255.256 154.876 255.297 154.822L259.216 150.915C259.257 150.861 259.339 150.861 259.393 150.915C259.434 150.956 259.434 151.038 259.393 151.092L255.474 154.999C255.433 155.026 255.406 155.04 255.379 155.04Z" fill="#3D5A99"/>
<path d="M255.42 146.042C255.392 146.042 255.351 146.029 255.338 146.001C255.297 145.961 255.297 145.879 255.338 145.824L257.454 143.715C257.495 143.66 257.577 143.66 257.632 143.715C257.673 143.755 257.673 143.837 257.632 143.892L255.515 146.001C255.488 146.029 255.447 146.042 255.42 146.042Z" fill="#3D5A99"/>
<path d="M255.42 168.488C255.392 168.488 255.351 168.475 255.338 168.447C255.297 168.407 255.297 168.325 255.338 168.27L260.418 163.207C260.458 163.152 260.54 163.152 260.595 163.207C260.636 163.248 260.636 163.329 260.595 163.384L255.515 168.447C255.488 168.475 255.447 168.488 255.42 168.488Z" fill="#3D5A99"/>
<path d="M255.379 148.274C255.351 148.274 255.31 148.261 255.297 148.234L252.47 145.416C252.429 145.375 252.429 145.294 252.47 145.239C252.511 145.185 252.593 145.185 252.647 145.239L255.474 148.057C255.515 148.098 255.515 148.179 255.474 148.234C255.433 148.261 255.406 148.274 255.379 148.274Z" fill="#3D5A99"/>
<path d="M255.379 156.55C255.351 156.55 255.31 156.537 255.297 156.51L251.05 152.276C251.009 152.236 251.009 152.154 251.05 152.099C251.091 152.045 251.173 152.045 251.227 152.099L255.474 156.333C255.515 156.373 255.515 156.455 255.474 156.51C255.433 156.537 255.406 156.55 255.379 156.55Z" fill="#3D5A99"/>
<path d="M255.379 166.406C255.351 166.406 255.31 166.392 255.297 166.365L249.998 161.084C249.957 161.043 249.957 160.961 249.998 160.907C250.039 160.852 250.121 160.852 250.176 160.907L255.474 166.188C255.515 166.229 255.515 166.311 255.474 166.365C255.433 166.392 255.406 166.406 255.379 166.406Z" fill="#3D5A99"/>
<path d="M248.346 178.153C251.295 171.047 246.352 165.181 242.842 162.349C237.612 158.13 233.72 157.612 233.72 157.612C233.72 157.612 233.283 162.131 235.14 166.324C238.472 173.81 242.692 179.963 248.346 178.153Z" fill="#5B86E5"/>
<path d="M252.907 200.299C252.839 200.299 252.798 200.258 252.784 200.19C252.77 200.081 251.705 188.783 248.237 178.193C244.782 167.63 235.782 160.62 235.7 160.552C235.646 160.511 235.632 160.43 235.673 160.389C235.714 160.334 235.796 160.321 235.837 160.362C235.933 160.43 244.973 167.481 248.469 178.125C251.951 188.743 253.016 200.068 253.03 200.177C253.03 200.245 252.989 200.299 252.907 200.299Z" fill="#3D5A99"/>
<path d="M240.603 165.194C240.535 165.194 240.48 165.14 240.48 165.072C240.439 162.989 240.057 161.873 240.057 161.873C240.029 161.805 240.07 161.737 240.139 161.723C240.207 161.71 240.275 161.737 240.289 161.805C240.302 161.846 240.671 162.962 240.726 165.085C240.726 165.14 240.671 165.194 240.603 165.194Z" fill="#3D5A99"/>
<path d="M242.078 166.964C242.078 166.964 242.064 166.964 242.078 166.964C241.996 166.95 241.955 166.895 241.955 166.827C242.146 165.017 241.695 163.03 241.695 163.002C241.682 162.934 241.723 162.866 241.791 162.853C241.859 162.839 241.927 162.88 241.941 162.948C241.941 162.962 242.392 165.003 242.201 166.841C242.187 166.923 242.132 166.964 242.078 166.964Z" fill="#3D5A99"/>
<path d="M235.495 163.982C235.427 163.982 235.373 163.928 235.373 163.86C235.373 163.792 235.427 163.737 235.495 163.737C237.899 163.669 239.032 163.343 239.046 163.343C239.114 163.329 239.183 163.356 239.196 163.424C239.21 163.492 239.183 163.561 239.114 163.574C239.073 163.588 237.94 163.914 235.495 163.982C235.509 163.982 235.495 163.982 235.495 163.982Z" fill="#3D5A99"/>
<path d="M244.659 170.612C244.645 170.612 244.618 170.612 244.604 170.598C244.549 170.571 244.522 170.503 244.549 170.435C244.563 170.421 245.369 168.706 245.396 166.705C245.396 166.637 245.437 166.596 245.519 166.583C245.587 166.583 245.642 166.637 245.642 166.705C245.615 168.76 244.809 170.476 244.782 170.544C244.754 170.585 244.713 170.612 244.659 170.612Z" fill="#3D5A99"/>
<path d="M239.073 168.692C238.609 168.692 238.117 168.665 237.626 168.597C237.558 168.584 237.517 168.529 237.517 168.461C237.53 168.393 237.585 168.339 237.653 168.352C240.48 168.72 242.815 167.848 242.842 167.835C242.911 167.808 242.979 167.848 242.993 167.903C243.02 167.971 242.979 168.039 242.924 168.053C242.911 168.08 241.272 168.692 239.073 168.692Z" fill="#3D5A99"/>
<path d="M239.442 170.339C239.101 170.339 238.732 170.326 238.35 170.298C238.281 170.298 238.227 170.23 238.24 170.162C238.24 170.094 238.309 170.053 238.363 170.053C241.955 170.312 243.826 169.21 243.853 169.196C243.908 169.155 243.989 169.182 244.017 169.237C244.058 169.291 244.03 169.373 243.976 169.4C243.894 169.455 242.392 170.339 239.442 170.339Z" fill="#3D5A99"/>
<path d="M244.003 174.273C243.225 174.273 242.269 174.219 241.176 174.042C241.108 174.028 241.067 173.974 241.081 173.906C241.094 173.838 241.149 173.797 241.217 173.811C244.563 174.341 246.557 173.77 246.57 173.77C246.639 173.743 246.707 173.783 246.721 173.851C246.734 173.919 246.707 173.988 246.639 174.001C246.584 174.001 245.655 174.273 244.003 174.273Z" fill="#3D5A99"/>
<path d="M247.062 175.036C247.035 175.036 247.021 175.036 246.994 175.022C246.939 174.981 246.926 174.913 246.953 174.859C246.967 174.845 247.977 173.28 248.032 172.027C248.032 171.959 248.086 171.905 248.155 171.905C248.223 171.905 248.277 171.959 248.277 172.027C248.223 173.348 247.212 174.913 247.171 174.981C247.144 175.022 247.103 175.036 247.062 175.036Z" fill="#3D5A99"/>
<path d="M273.746 161.791C271.451 160.77 265.156 166.12 261.387 172.068C258.929 175.961 254.682 184.401 259.68 187.6C264.774 190.866 268.447 185.19 270.373 182.196C272.298 179.201 273.609 174.859 274.087 172.94C274.551 171.088 276.368 162.976 273.746 161.791Z" fill="#5B86E5"/>
<path d="M255.283 207.065C255.215 207.065 255.16 207.01 255.16 206.956C255.16 206.888 254.873 199.864 259.571 187.573C264.255 175.281 272.708 163.765 272.79 163.643C272.831 163.588 272.913 163.575 272.954 163.616C273.008 163.656 273.022 163.738 272.981 163.779C272.899 163.888 264.473 175.39 259.789 187.654C255.119 199.891 255.392 206.874 255.392 206.942C255.406 207.01 255.351 207.065 255.283 207.065Z" fill="#3D5A99"/>
<path d="M269.977 167.957C269.922 167.957 269.881 167.93 269.867 167.876C269.458 166.841 269.485 165.167 269.485 165.099C269.485 165.031 269.54 164.963 269.608 164.976C269.676 164.976 269.731 165.031 269.731 165.099C269.731 165.112 269.703 166.8 270.099 167.78C270.127 167.848 270.099 167.916 270.031 167.944C270.004 167.957 269.99 167.957 269.977 167.957Z" fill="#3D5A99"/>
<path d="M267.204 172.477C267.15 172.477 267.109 172.449 267.095 172.395C266.453 170.802 265.921 167.957 265.907 167.917C265.894 167.849 265.934 167.794 266.003 167.78C266.071 167.767 266.126 167.808 266.139 167.876C266.139 167.903 266.672 170.734 267.314 172.3C267.341 172.368 267.314 172.436 267.245 172.463C267.232 172.477 267.218 172.477 267.204 172.477Z" fill="#3D5A99"/>
<path d="M263.367 179.487C263.326 179.487 263.299 179.473 263.272 179.446C261.729 177.527 261.087 174.124 261.059 173.988C261.046 173.92 261.087 173.865 261.155 173.852C261.223 173.838 261.278 173.879 261.292 173.947C261.292 173.988 261.947 177.432 263.449 179.296C263.49 179.351 263.476 179.419 263.435 179.46C263.422 179.473 263.395 179.487 263.367 179.487Z" fill="#3D5A99"/>
<path d="M268.147 176.683C266.576 176.683 265.17 176.356 265.074 176.342C265.006 176.329 264.965 176.261 264.979 176.193C264.992 176.125 265.061 176.084 265.129 176.097C265.17 176.111 269.034 176.996 271.137 175.825C271.192 175.798 271.274 175.812 271.301 175.866C271.329 175.92 271.315 176.002 271.26 176.029C270.373 176.547 269.212 176.683 268.147 176.683Z" fill="#3D5A99"/>
<path d="M270.974 170.734C269.663 170.734 268.584 170.435 268.516 170.421C268.447 170.407 268.42 170.339 268.434 170.271C268.447 170.203 268.516 170.176 268.584 170.19C268.611 170.203 271.383 170.965 273.363 170.04C273.432 170.013 273.5 170.04 273.527 170.094C273.555 170.149 273.527 170.231 273.473 170.258C272.667 170.625 271.779 170.734 270.974 170.734Z" fill="#3D5A99"/>
<path d="M263.968 183.448C262.589 183.448 261.592 183.216 261.578 183.216C261.51 183.203 261.469 183.135 261.483 183.067C261.496 182.999 261.565 182.958 261.633 182.971C261.66 182.985 264.815 183.693 267.723 182.522C267.792 182.495 267.86 182.522 267.887 182.59C267.915 182.658 267.887 182.726 267.819 182.754C266.481 183.298 265.102 183.448 263.968 183.448Z" fill="#3D5A99"/>
<path d="M263.886 194.12C263.886 194.12 263.886 194.133 263.886 194.12L263.545 196.583L263.449 197.278L263.299 198.407L263.203 199.102L261.455 211.856H248.018L247.554 208.507L246.27 199.102L246.174 198.407L246.024 197.278L245.929 196.583L245.587 194.12H263.886Z" fill="#5B86E5"/>
<path d="M263.558 196.583L263.463 197.278H246.024L245.929 196.583H263.558Z" fill="white"/>
<path d="M263.299 198.407L263.203 199.101H246.27L246.175 198.407H263.299Z" fill="white"/>
<path d="M263.886 194.133L263.545 196.583L263.449 197.278L263.299 198.407L263.203 199.102L261.455 211.856H248.018L247.554 208.507C260.24 208.303 263.777 194.569 263.886 194.133Z" fill="#DBE7EE"/>
<path d="M273.609 211.788H7.87939V213.23H273.609V211.788Z" fill="#5B86E5"/>
<path d="M245.587 122.902H216.022C214.575 122.902 213.4 121.731 213.4 120.288V90.8049C213.4 89.362 214.575 88.1914 216.022 88.1914H245.587C247.035 88.1914 248.209 89.362 248.209 90.8049V120.275C248.209 121.731 247.035 122.902 245.587 122.902Z" fill="#5B86E5"/>
<path d="M236.853 101.576C237.261 98.2484 234.886 95.2205 231.547 94.8134C228.208 94.4064 225.17 96.7743 224.762 100.102C224.353 103.43 226.729 106.458 230.068 106.865C233.407 107.272 236.444 104.905 236.853 101.576Z" fill="white"/>
<path d="M240.289 116.327H221.321V109.439C221.321 108.432 222.14 107.615 223.151 107.615H238.472C239.483 107.615 240.302 108.432 240.302 109.439V116.327H240.289Z" fill="white"/>
<path d="M159.419 153.447L160.006 149.5C161.986 148.915 163.802 148.016 165.414 146.873L168.909 148.833C170.016 149.459 171.408 149.173 172.201 148.18L174.727 144.981C175.519 143.987 175.451 142.571 174.59 141.646L171.859 138.719C172.597 136.882 173.047 134.908 173.17 132.866L176.885 131.369C178.059 130.892 178.714 129.64 178.428 128.401L177.499 124.44C177.212 123.202 176.065 122.371 174.795 122.467L170.794 122.766C169.783 120.996 168.5 119.431 167.011 118.111L168.145 114.272C168.513 113.061 167.926 111.768 166.779 111.223L163.092 109.481C161.945 108.936 160.566 109.304 159.856 110.352L157.602 113.646C155.65 113.333 153.629 113.333 151.594 113.687L149.3 110.406C148.576 109.372 147.197 109.018 146.05 109.576L142.376 111.359C141.229 111.917 140.669 113.224 141.051 114.422L142.24 118.233C140.751 119.594 139.495 121.187 138.525 122.943L134.524 122.684C133.254 122.603 132.121 123.46 131.847 124.699L130.96 128.674C130.687 129.912 131.356 131.165 132.544 131.627L136.272 133.084C136.34 134.064 136.49 135.058 136.723 136.051C136.955 137.045 137.269 137.998 137.651 138.91L134.961 141.864C134.101 142.803 134.06 144.218 134.865 145.198L137.433 148.37C138.225 149.35 139.631 149.609 140.737 148.983L144.206 146.982C145.858 148.125 147.688 148.996 149.641 149.554L150.283 153.502C150.488 154.754 151.567 155.666 152.85 155.666L156.933 155.639C158.149 155.625 159.227 154.686 159.419 153.447ZM144.151 134.309C142.786 128.51 146.405 122.698 152.222 121.337C158.039 119.976 163.87 123.583 165.236 129.381C166.602 135.18 162.983 140.992 157.165 142.354C151.348 143.715 145.517 140.108 144.151 134.309Z" fill="url(#paint17_linear_1068_6082)"/>
<path d="M127.191 123.719L127.641 120.711C129.143 120.261 130.523 119.581 131.752 118.71L134.401 120.193C135.248 120.67 136.313 120.452 136.9 119.703L138.826 117.267C139.426 116.504 139.385 115.429 138.716 114.721L136.641 112.489C137.2 111.087 137.542 109.59 137.637 108.038L140.464 106.894C141.365 106.527 141.857 105.574 141.639 104.635L140.929 101.613C140.71 100.674 139.836 100.034 138.866 100.116L135.821 100.347C135.056 98.9995 134.073 97.8017 132.94 96.808L133.8 93.895C134.073 92.9694 133.636 91.9894 132.762 91.5674L129.949 90.2334C129.075 89.8251 128.024 90.0973 127.491 90.9004L125.784 93.4186C124.296 93.1872 122.766 93.1872 121.209 93.4458L119.461 90.9549C118.915 90.1654 117.864 89.8931 116.99 90.3151L114.19 91.6763C113.316 92.0983 112.893 93.0919 113.18 94.0175L114.081 96.9169C112.948 97.9514 111.992 99.1628 111.254 100.497L108.209 100.306C107.239 100.238 106.379 100.892 106.174 101.831L105.505 104.853C105.3 105.792 105.806 106.745 106.707 107.099L109.547 108.201C109.602 108.95 109.711 109.712 109.889 110.461C110.066 111.223 110.298 111.944 110.599 112.639L108.55 114.885C107.895 115.592 107.868 116.681 108.482 117.43L110.435 119.839C111.036 120.588 112.115 120.792 112.948 120.302L115.583 118.778C116.84 119.649 118.232 120.302 119.721 120.738L120.213 123.732C120.363 124.685 121.196 125.379 122.165 125.379L125.279 125.366C126.221 125.379 127.04 124.672 127.191 123.719ZM115.57 109.154C114.532 104.744 117.277 100.32 121.715 99.2854C126.139 98.2509 130.577 100.987 131.615 105.411C132.653 109.835 129.908 114.245 125.47 115.279C121.046 116.314 116.607 113.564 115.57 109.154Z" fill="url(#paint18_linear_1068_6082)"/>
<path d="M157.766 151.8L158.353 147.853C160.334 147.268 162.15 146.369 163.761 145.226L167.257 147.186C168.363 147.812 169.756 147.526 170.548 146.533L173.074 143.334C173.866 142.34 173.798 140.924 172.938 139.999L170.207 137.072C170.944 135.235 171.395 133.261 171.518 131.219L175.232 129.722C176.406 129.245 177.062 127.993 176.775 126.754L175.847 122.793C175.56 121.555 174.413 120.724 173.143 120.82L169.142 121.119C168.131 119.35 166.847 117.784 165.359 116.464L166.492 112.625C166.861 111.414 166.274 110.121 165.127 109.576L161.44 107.834C160.293 107.289 158.913 107.657 158.203 108.705L155.95 111.999C153.997 111.686 151.976 111.686 149.941 112.04L147.647 108.759C146.923 107.725 145.544 107.371 144.397 107.929L140.724 109.712C139.577 110.27 139.017 111.577 139.399 112.775L140.587 116.586C139.099 117.948 137.842 119.54 136.873 121.296L132.872 121.037C131.602 120.956 130.468 121.813 130.195 123.052L129.307 127.027C129.034 128.265 129.703 129.518 130.892 129.98L134.62 131.437C134.688 132.417 134.838 133.411 135.07 134.404C135.302 135.398 135.616 136.351 135.999 137.263L133.309 140.217C132.448 141.156 132.407 142.572 133.213 143.552L135.78 146.723C136.572 147.703 137.979 147.962 139.085 147.336L142.554 145.335C144.206 146.478 146.036 147.349 147.989 147.907L148.63 151.855C148.835 153.107 149.914 154.019 151.198 154.019L155.281 153.992C156.51 153.978 157.575 153.053 157.766 151.8ZM142.499 132.662C141.133 126.863 144.752 121.051 150.57 119.69C156.387 118.329 162.218 121.936 163.584 127.734C164.949 133.533 161.33 139.345 155.513 140.707C149.696 142.068 143.865 138.461 142.499 132.662Z" fill="#5B86E5"/>
<path d="M125.538 122.072L125.989 119.063C127.491 118.614 128.87 117.934 130.099 117.063L132.749 118.546C133.595 119.023 134.66 118.805 135.248 118.056L137.173 115.62C137.774 114.857 137.733 113.782 137.064 113.074L134.988 110.842C135.548 109.44 135.89 107.943 135.985 106.391L138.812 105.247C139.713 104.88 140.205 103.927 139.986 102.988L139.276 99.966C139.058 99.0268 138.184 98.387 137.214 98.4687L134.169 98.7001C133.404 97.3525 132.421 96.1547 131.287 95.161L132.148 92.2481C132.421 91.3224 131.984 90.3424 131.11 89.9204L128.297 88.5865C127.423 88.1781 126.371 88.4503 125.839 89.2534L124.132 91.7716C122.643 91.5402 121.114 91.5402 119.557 91.7989L117.809 89.3079C117.263 88.5184 116.211 88.2462 115.337 88.6681L112.538 90.0293C111.664 90.4513 111.241 91.4449 111.527 92.3706L112.429 95.2699C111.295 96.3044 110.339 97.5159 109.602 98.8498L106.557 98.6593C105.587 98.5912 104.727 99.2446 104.522 100.184L103.853 103.206C103.648 104.145 104.153 105.098 105.055 105.452L107.895 106.554C107.95 107.303 108.059 108.065 108.236 108.814C108.414 109.576 108.646 110.297 108.946 110.992L106.898 113.238C106.243 113.945 106.215 115.034 106.83 115.783L108.783 118.192C109.383 118.941 110.462 119.145 111.295 118.655L113.931 117.131C115.187 118.002 116.58 118.655 118.069 119.091L118.56 122.085C118.71 123.038 119.543 123.732 120.513 123.732L123.627 123.719C124.582 123.732 125.402 123.025 125.538 122.072ZM113.917 107.507C112.879 103.097 115.624 98.6729 120.062 97.6384C124.487 96.6039 128.925 99.3398 129.963 103.764C131.001 108.188 128.256 112.598 123.818 113.632C119.393 114.667 114.969 111.931 113.917 107.507Z" fill="#5B86E5"/>
</g>
<defs>
<linearGradient id="paint0_linear_1068_6082" x1="54.7706" y1="83.4089" x2="99.2163" y2="83.4089" gradientUnits="userSpaceOnUse">
<stop stop-color="#E2F4FF"/>
<stop offset="1" stop-color="#D7ECFF"/>
</linearGradient>
<linearGradient id="paint1_linear_1068_6082" x1="50.8233" y1="41.1525" x2="50.8233" y2="102.884" gradientUnits="userSpaceOnUse">
<stop stop-color="#8AD3FF"/>
<stop offset="1" stop-color="#5F9CFF"/>
</linearGradient>
<linearGradient id="paint2_linear_1068_6082" x1="19.1709" y1="53.9951" x2="84.1241" y2="53.9951" gradientUnits="userSpaceOnUse">
<stop stop-color="#E2F4FF"/>
<stop offset="1" stop-color="#D7ECFF"/>
</linearGradient>
<linearGradient id="paint3_linear_1068_6082" x1="19.1709" y1="75.6765" x2="84.1241" y2="75.6765" gradientUnits="userSpaceOnUse">
<stop stop-color="#E2F4FF"/>
<stop offset="1" stop-color="#D7ECFF"/>
</linearGradient>
<linearGradient id="paint4_linear_1068_6082" x1="19.1709" y1="97.3576" x2="84.1241" y2="97.3576" gradientUnits="userSpaceOnUse">
<stop stop-color="#E2F4FF"/>
<stop offset="1" stop-color="#D7ECFF"/>
</linearGradient>
<linearGradient id="paint5_linear_1068_6082" x1="28.7464" y1="53.86" x2="36.7653" y2="53.86" gradientUnits="userSpaceOnUse">
<stop stop-color="#E2F4FF"/>
<stop offset="1" stop-color="#D7ECFF"/>
</linearGradient>
<linearGradient id="paint6_linear_1068_6082" x1="29.8714" y1="53.8601" x2="35.6403" y2="53.8601" gradientUnits="userSpaceOnUse">
<stop stop-color="#E2F4FF"/>
<stop offset="1" stop-color="#D7ECFF"/>
</linearGradient>
<linearGradient id="paint7_linear_1068_6082" x1="66.5768" y1="75.8648" x2="74.5957" y2="75.8648" gradientUnits="userSpaceOnUse">
<stop stop-color="#E2F4FF"/>
<stop offset="1" stop-color="#D7ECFF"/>
</linearGradient>
<linearGradient id="paint8_linear_1068_6082" x1="67.7018" y1="75.8644" x2="73.4707" y2="75.8644" gradientUnits="userSpaceOnUse">
<stop stop-color="#E2F4FF"/>
<stop offset="1" stop-color="#D7ECFF"/>
</linearGradient>
<linearGradient id="paint9_linear_1068_6082" x1="45.5861" y1="97.1636" x2="53.605" y2="97.1636" gradientUnits="userSpaceOnUse">
<stop stop-color="#E2F4FF"/>
<stop offset="1" stop-color="#D7ECFF"/>
</linearGradient>
<linearGradient id="paint10_linear_1068_6082" x1="46.7112" y1="97.1637" x2="52.4801" y2="97.1637" gradientUnits="userSpaceOnUse">
<stop stop-color="#E2F4FF"/>
<stop offset="1" stop-color="#D7ECFF"/>
</linearGradient>
<linearGradient id="paint11_linear_1068_6082" x1="10.6547" y1="103.987" x2="20.4646" y2="103.987" gradientUnits="userSpaceOnUse">
<stop stop-color="#294698"/>
<stop offset="1" stop-color="#0E4BA6"/>
</linearGradient>
<linearGradient id="paint12_linear_1068_6082" x1="7.59658" y1="124.675" x2="0.841344" y2="134.897" gradientUnits="userSpaceOnUse">
<stop stop-color="#E2F4FF"/>
<stop offset="1" stop-color="#D7ECFF"/>
</linearGradient>
<linearGradient id="paint13_linear_1068_6082" x1="9.26128" y1="174.566" x2="35.2882" y2="174.566" gradientUnits="userSpaceOnUse">
<stop stop-color="#294698"/>
<stop offset="1" stop-color="#0E4BA6"/>
</linearGradient>
<linearGradient id="paint14_linear_1068_6082" x1="21.9031" y1="131.684" x2="29.9869" y2="131.684" gradientUnits="userSpaceOnUse">
<stop stop-color="#E2F4FF"/>
<stop offset="1" stop-color="#D7ECFF"/>
</linearGradient>
<linearGradient id="paint15_linear_1068_6082" x1="30.0184" y1="208.97" x2="41.7043" y2="208.97" gradientUnits="userSpaceOnUse">
<stop stop-color="#294698"/>
<stop offset="1" stop-color="#0E4BA6"/>
</linearGradient>
<linearGradient id="paint16_linear_1068_6082" x1="13.2503" y1="209.142" x2="21.3545" y2="209.142" gradientUnits="userSpaceOnUse">
<stop stop-color="#294698"/>
<stop offset="1" stop-color="#0E4BA6"/>
</linearGradient>
<linearGradient id="paint17_linear_1068_6082" x1="130.878" y1="132.434" x2="178.478" y2="132.434" gradientUnits="userSpaceOnUse">
<stop stop-color="#E2F4FF"/>
<stop offset="1" stop-color="#D7ECFF"/>
</linearGradient>
<linearGradient id="paint18_linear_1068_6082" x1="105.469" y1="107.729" x2="141.694" y2="107.729" gradientUnits="userSpaceOnUse">
<stop stop-color="#E2F4FF"/>
<stop offset="1" stop-color="#D7ECFF"/>
</linearGradient>
<clipPath id="clip0_1068_6082">
<rect width="280" height="213.231" fill="white"/>
</clipPath>
</defs>
</svg>
