<svg width="794" height="331" viewBox="0 0 794 331" fill="none" xmlns="http://www.w3.org/2000/svg">
<g clip-path="url(#clip0_922_4966)">
<path opacity="0.4" d="M0 283.051C4.266 272.262 11.2263 260.125 22.8268 248.063C49.6952 220.267 91.3822 216.596 107.024 224.763C95.1243 208.055 99.2406 167.298 120.571 139.728C154.923 95.2995 202.149 102.792 214.048 104.365C214.497 99.495 216.593 86.6836 225.424 72.5985C235.528 56.4156 256.933 35.5127 301.09 27.7958C350.411 19.105 382.817 31.8416 401.303 44.0537C417.619 54.8422 426.226 66.8296 428.995 71.3248C438.35 64.7318 484.902 35.4378 535.72 63.5331C558.622 76.1947 571.12 93.3515 577.931 109.31C596.566 103.915 611.161 110.209 617.223 113.58C617.223 113.58 665.346 94.7001 693.786 135.232C722.301 175.764 698.951 209.254 698.951 209.254C698.951 209.254 738.542 210.303 772.296 249.636C781.95 260.949 788.911 272.262 793.85 283.126H0V283.051Z" fill="#B1D0FF"/>
<path d="M694.16 279.53H107.099C107.099 279.53 105.228 254.806 127.606 244.691C149.983 234.577 169.891 250.385 169.891 250.385C169.891 250.385 171.089 235.926 187.629 231.955C204.169 227.984 212.177 240.196 212.177 240.196C212.177 240.196 203.421 200.638 240.019 179.66C279.61 156.959 317.405 189.55 317.405 189.55C317.405 189.55 356.922 154.637 412.23 171.119C462.374 186.028 471.056 230.082 471.056 230.082C471.056 230.082 475.322 213.075 494.482 207.83C516.635 201.687 531.229 212.85 531.229 212.85C531.229 212.85 543.054 169.321 597.39 178.237C656.59 187.902 649.779 232.479 649.779 232.479C649.779 232.479 670.885 223.639 687.5 238.923C704.114 254.206 694.16 279.53 694.16 279.53Z" fill="#5685E0"/>
<path d="M12.2739 281.328C12.2739 281.328 9.2054 285.373 30.8348 289.869C56.2811 295.113 118.026 291.142 124.013 300.882C130.599 311.446 81.9519 308.524 82.4758 320.886C82.9249 331.375 116.08 331 153.351 331C190.698 331 541.408 331 571.644 331C601.88 331 596.417 321.86 592.151 317.664C585.939 311.596 588.633 305.977 615.876 305.227C642.295 304.478 661.604 303.804 675.974 303.804C714.368 303.804 706.884 291.142 736.82 291.142C756.205 291.142 779.48 286.272 779.48 280.653C655.916 270.389 521.575 264.246 377.728 264.92C247.652 265.519 125.51 271.738 12.2739 281.328Z" fill="#BBCCE5"/>
<path d="M557.125 198.615H543.279V278.93H557.125V198.615Z" fill="#155DA0"/>
<path d="M672.457 198.615H658.611V278.93H672.457V198.615Z" fill="#155DA0"/>
<path d="M710.102 103.466H504.436V219.069H710.102V103.466Z" fill="#155DA0"/>
<path opacity="0.37" d="M504.436 190.299C509.45 200.113 516.411 209.853 525.167 219.068H710.102V161.454C694.909 144.073 673.729 128.264 648.357 116.652C635.485 110.733 622.537 106.388 609.889 103.541H540.734C525.092 108.111 512.369 116.202 504.436 127.665V190.299V190.299Z" fill="white"/>
<path d="M571.943 174.041H567.079V182.357H558.771V174.041H541.558V168.123L559.22 142.125H567.079V167.448H571.943V174.041ZM558.771 167.448V160.63C558.771 159.507 558.846 157.858 558.921 155.686C558.996 153.513 559.071 152.239 559.145 151.94H558.921C558.247 153.438 557.424 154.936 556.451 156.36L549.042 167.523H558.771V167.448Z" fill="white"/>
<path d="M603.003 162.204C603.003 169.246 601.88 174.416 599.56 177.862C597.24 181.233 593.722 182.957 588.932 182.957C584.292 182.957 580.775 181.233 578.455 177.712C576.06 174.191 574.937 169.096 574.937 162.278C574.937 155.161 576.06 149.917 578.38 146.545C580.7 143.174 584.217 141.525 589.007 141.525C593.648 141.525 597.165 143.323 599.56 146.845C601.805 150.291 603.003 155.461 603.003 162.204ZM583.319 162.204C583.319 167.148 583.768 170.67 584.592 172.842C585.415 175.015 586.912 176.064 588.932 176.064C590.878 176.064 592.375 175.015 593.198 172.842C594.097 170.67 594.546 167.148 594.546 162.278C594.546 157.334 594.097 153.812 593.198 151.64C592.3 149.467 590.878 148.418 588.932 148.418C586.912 148.418 585.49 149.467 584.666 151.64C583.768 153.737 583.319 157.334 583.319 162.204Z" fill="white"/>
<path d="M636.308 174.041H631.443V182.357H623.136V174.041H605.922V168.123L623.585 142.125H631.443V167.448H636.308V174.041ZM623.136 167.448V160.63C623.136 159.507 623.21 157.858 623.285 155.686C623.36 153.513 623.435 152.239 623.51 151.94H623.285C622.612 153.438 621.788 154.936 620.815 156.36L613.406 167.523H623.136V167.448Z" fill="white"/>
<path d="M640.424 178.461C640.424 176.888 640.873 175.764 641.696 174.94C642.519 174.116 643.717 173.741 645.289 173.741C646.785 173.741 647.983 174.116 648.806 174.94C649.629 175.764 650.078 176.888 650.078 178.386C650.078 179.81 649.629 181.009 648.806 181.833C647.983 182.657 646.785 183.106 645.289 183.106C643.717 183.106 642.519 182.732 641.696 181.908C640.798 181.083 640.424 179.96 640.424 178.461Z" fill="white"/>
<path d="M656.44 178.461C656.44 176.888 656.889 175.764 657.713 174.94C658.536 174.116 659.733 173.741 661.305 173.741C662.802 173.741 664 174.116 664.823 174.94C665.646 175.764 666.095 176.888 666.095 178.386C666.095 179.81 665.646 181.009 664.823 181.833C664 182.657 662.802 183.106 661.305 183.106C659.733 183.106 658.536 182.732 657.713 181.908C656.889 181.083 656.44 179.96 656.44 178.461Z" fill="white"/>
<path d="M672.531 178.461C672.531 176.888 672.98 175.764 673.804 174.94C674.627 174.116 675.824 173.741 677.396 173.741C678.893 173.741 680.09 174.116 680.914 174.94C681.737 175.764 682.186 176.888 682.186 178.386C682.186 179.81 681.737 181.009 680.914 181.833C680.09 182.657 678.893 183.106 677.396 183.106C675.824 183.106 674.627 182.732 673.804 181.908C672.98 181.083 672.531 179.96 672.531 178.461Z" fill="white"/>
<path d="M370.094 5.61914L292.184 74.2466L314.711 78.8917L374.585 22.8509L370.094 5.61914Z" fill="#3279BA"/>
<path d="M299.293 118.15C314.794 118.15 327.359 105.571 327.359 90.0548C327.359 74.5382 314.794 61.9595 299.293 61.9595C283.793 61.9595 271.228 74.5382 271.228 90.0548C271.228 105.571 283.793 118.15 299.293 118.15Z" fill="#DAE4F2"/>
<path d="M284.026 89.2306C284.026 76.569 292.408 65.8554 303.859 62.3341C302.362 62.1093 300.865 61.9595 299.293 61.9595C283.801 61.9595 271.228 74.5462 271.228 90.0548C271.228 105.563 283.801 118.15 299.293 118.15C302.137 118.15 304.906 117.701 307.526 116.951C294.204 114.779 284.026 103.166 284.026 89.2306Z" fill="white"/>
<path d="M329.904 112.981H265.465C257.681 112.981 251.245 106.612 251.245 98.7456C251.245 90.9539 259.402 85.3348 267.186 84.5107C281.78 82.9374 298.545 81.9634 319.725 81.9634C335.517 81.9634 344.124 90.879 344.124 98.7456C344.124 106.612 337.762 112.981 329.904 112.981Z" fill="#3279BA"/>
<path d="M337.164 227.534L362.011 266.268H337.987L321.971 229.932L337.164 227.534Z" fill="#40659D"/>
<path d="M256.334 227.534L264.192 266.268H240.168L241.066 229.932L256.334 227.534Z" fill="#40659D"/>
<path d="M402.127 136.805C402.127 136.805 352.506 135.531 352.506 164.601C352.506 186.852 379.824 203.56 402.127 204.384V136.805Z" fill="#1567B1"/>
<path d="M402.127 204.384C412.047 204.384 420.089 189.256 420.089 170.594C420.089 151.933 412.047 136.805 402.127 136.805C392.206 136.805 384.165 151.933 384.165 170.594C384.165 189.256 392.206 204.384 402.127 204.384Z" fill="#60A0DA"/>
<path d="M393.819 157.034C393.819 157.034 405.869 157.633 408.638 169.321C408.638 169.321 413.727 154.711 403.474 149.991C396.514 146.769 393.819 157.034 393.819 157.034Z" fill="white"/>
<path d="M397.112 176.963C397.412 178.162 398.31 181.009 400.929 183.481C403.549 185.953 406.393 186.777 407.59 187.077C407.441 187.452 406.468 190.299 403.699 191.123C402.651 191.423 401.378 191.498 399.807 190.898C393.37 188.501 397.112 176.963 397.112 176.963Z" fill="white"/>
<path d="M208.36 150.666C208.36 184.23 208.36 198.091 208.36 210.902C208.36 223.714 216.443 235.326 240.393 235.326C264.342 235.326 297.348 235.326 322.495 235.326C347.642 235.326 371.292 231.58 371.292 187.602C371.292 143.623 371.292 171.868 371.292 151.415C371.292 130.962 369.196 103.691 328.257 98.3711C287.319 93.0518 255.661 92.5273 234.705 107.886C213.749 123.245 208.36 138.379 208.36 150.666Z" fill="#DAE4F2"/>
<path d="M261.722 234.802C237.773 234.802 229.69 223.114 229.69 210.378C229.69 197.566 229.69 183.781 229.69 150.141C229.69 137.779 235.004 122.72 256.034 107.362C265.764 100.244 277.739 96.573 291.959 95.1495C268.234 94.4003 248.924 97.4721 234.63 107.886C213.674 123.245 208.285 138.379 208.285 150.666C208.285 184.23 208.285 198.091 208.285 210.902C208.285 223.714 216.368 235.326 240.318 235.326C264.267 235.326 297.272 235.326 322.419 235.326C326.835 235.326 331.251 235.176 335.517 234.802C311.717 234.802 283.127 234.802 261.722 234.802Z" fill="white"/>
<path d="M401.452 275.184L399.806 269.19C399.731 268.441 399.507 267.767 399.207 267.093C397.486 262.822 392.621 259.75 386.933 259.75H331.7C325.787 259.75 320.848 263.047 319.276 267.542L316.956 276.008C316.731 276.832 316.582 277.657 316.582 278.556C316.582 284.849 322.719 290.018 330.278 290.018H388.43C395.989 290.018 402.126 284.849 402.126 278.556C402.051 277.432 401.827 276.308 401.452 275.184Z" fill="#DAE4F2"/>
<path d="M388.43 287.921H330.203C323.841 287.921 318.677 282.751 318.677 276.383C318.677 270.015 323.841 264.845 330.203 264.845H388.43C394.792 264.845 399.956 270.015 399.956 276.383C399.956 282.751 394.717 287.921 388.43 287.921Z" fill="#7A98C4"/>
<path d="M388.43 262.672H330.203C322.644 262.672 316.507 268.816 316.507 276.383C316.507 283.95 322.644 290.093 330.203 290.093H388.43C395.989 290.093 402.126 283.95 402.126 276.383C402.051 268.816 395.914 262.672 388.43 262.672ZM388.43 287.921H330.203C323.841 287.921 318.677 282.751 318.677 276.383C318.677 270.015 323.841 264.845 330.203 264.845H388.43C394.792 264.845 399.956 270.015 399.956 276.383C399.956 282.751 394.717 287.921 388.43 287.921Z" fill="#5D7EAF"/>
<path d="M395.8 278.294C396.798 274.066 394.182 269.829 389.958 268.83C385.734 267.832 381.502 270.45 380.505 274.679C379.507 278.907 382.123 283.144 386.347 284.142C390.57 285.141 394.803 282.522 395.8 278.294Z" fill="#155DA0"/>
<path d="M335.352 282.019C338.421 278.946 338.421 273.966 335.352 270.894C332.283 267.821 327.307 267.821 324.238 270.894C321.169 273.966 321.169 278.946 324.238 282.019C327.307 285.091 332.283 285.091 335.352 282.019Z" fill="#155DA0"/>
<path d="M350.635 280.878C350.635 283.65 348.389 285.898 345.62 285.898C342.851 285.898 340.606 283.65 340.606 280.878C340.606 278.106 342.851 275.858 345.62 275.858C348.389 275.858 350.635 278.106 350.635 280.878Z" fill="#155DA0"/>
<path d="M364.48 280.878C364.48 283.65 362.235 285.898 359.466 285.898C356.697 285.898 354.452 283.65 354.452 280.878C354.452 278.106 356.697 275.858 359.466 275.858C362.235 275.858 364.48 278.106 364.48 280.878Z" fill="#155DA0"/>
<path d="M377.129 280.878C377.129 283.65 374.884 285.898 372.115 285.898C369.345 285.898 367.1 283.65 367.1 280.878C367.1 278.106 369.345 275.858 372.115 275.858C374.884 275.858 377.129 278.106 377.129 280.878Z" fill="#155DA0"/>
<path d="M296 275.184L294.354 269.19C294.279 268.441 294.054 267.767 293.755 267.093C292.034 262.822 287.169 259.75 281.481 259.75H226.247C220.335 259.75 215.395 263.047 213.824 267.542L211.504 276.008C211.279 276.832 211.129 277.657 211.129 278.556C211.129 284.849 217.266 290.018 224.825 290.018H283.053C290.612 290.018 296.749 284.849 296.749 278.556C296.674 277.432 296.449 276.308 296 275.184Z" fill="#DAE4F2"/>
<path d="M282.978 287.921H224.751C218.389 287.921 213.225 282.751 213.225 276.383C213.225 270.015 218.389 264.845 224.751 264.845H282.978C289.34 264.845 294.504 270.015 294.504 276.383C294.504 282.751 289.34 287.921 282.978 287.921Z" fill="#7A98C4"/>
<path d="M282.978 262.672H224.751C217.192 262.672 211.055 268.816 211.055 276.383C211.055 283.95 217.192 290.093 224.751 290.093H282.978C290.537 290.093 296.674 283.95 296.674 276.383C296.674 268.816 290.537 262.672 282.978 262.672ZM282.978 287.921H224.751C218.389 287.921 213.225 282.751 213.225 276.383C213.225 270.015 218.389 264.845 224.751 264.845H282.978C289.34 264.845 294.504 270.015 294.504 276.383C294.504 282.751 289.34 287.921 282.978 287.921Z" fill="#5D7EAF"/>
<path d="M288.279 282.023C291.348 278.951 291.348 273.971 288.279 270.898C285.21 267.826 280.234 267.826 277.166 270.898C274.097 273.971 274.097 278.951 277.166 282.023C280.234 285.096 285.21 285.096 288.279 282.023Z" fill="#155DA0"/>
<path d="M227.38 283.732C231.39 282.069 233.294 277.467 231.633 273.453C229.972 269.439 225.375 267.533 221.365 269.196C217.356 270.859 215.451 275.461 217.112 279.475C218.773 283.489 223.37 285.395 227.38 283.732Z" fill="#155DA0"/>
<path d="M245.183 280.878C245.183 283.65 242.937 285.898 240.168 285.898C237.399 285.898 235.154 283.65 235.154 280.878C235.154 278.106 237.399 275.858 240.168 275.858C242.937 275.858 245.183 278.106 245.183 280.878Z" fill="#155DA0"/>
<path d="M259.028 280.878C259.028 283.65 256.783 285.898 254.014 285.898C251.245 285.898 249 283.65 249 280.878C249 278.106 251.245 275.858 254.014 275.858C256.783 275.858 259.028 278.106 259.028 280.878Z" fill="#155DA0"/>
<path d="M271.677 280.878C271.677 283.65 269.432 285.898 266.662 285.898C263.893 285.898 261.648 283.65 261.648 280.878C261.648 278.106 263.893 275.858 266.662 275.858C269.432 275.858 271.677 278.106 271.677 280.878Z" fill="#155DA0"/>
<path d="M254.837 126.541C242.862 128.189 223.628 132.909 211.204 146.695L220.709 162.952C220.709 162.952 238.222 149.467 257.681 146.095C262.471 145.271 265.989 141.151 265.914 136.281V135.981C265.689 130.212 260.525 125.792 254.837 126.541Z" fill="#155DA0"/>
<path d="M215.246 131.561C215.246 131.561 157.842 130.062 157.842 163.702C157.842 189.4 189.425 208.729 215.246 209.628V131.561Z" fill="#3279BA"/>
<path d="M163.829 175.09C163.829 148.193 200.577 143.773 215.246 143.099V131.636C215.246 131.636 157.842 130.138 157.842 163.777C157.842 171.419 160.686 178.536 165.326 184.755C164.353 181.608 163.829 178.387 163.829 175.09Z" fill="white"/>
<path d="M215.246 209.628C226.695 209.628 235.977 192.152 235.977 170.595C235.977 149.037 226.695 131.561 215.246 131.561C203.796 131.561 194.515 149.037 194.515 170.595C194.515 192.152 203.796 209.628 215.246 209.628Z" fill="#60A0DA"/>
<path d="M205.591 154.936C205.591 154.936 219.512 155.61 222.73 169.096C222.73 169.096 228.643 152.164 216.818 146.77C208.735 143.099 205.591 154.936 205.591 154.936Z" fill="white"/>
<path d="M209.408 177.937C209.782 179.361 210.83 182.582 213.824 185.504C216.818 188.426 220.185 189.325 221.533 189.625C221.383 190.074 220.185 193.371 217.042 194.345C215.845 194.719 214.348 194.719 212.552 194.045C205.067 191.273 209.408 177.937 209.408 177.937Z" fill="white"/>
<path d="M386.335 16.8569L411.033 74.2462V93.2761H404.372L373.312 25.3979L386.335 16.8569Z" fill="#3279BA"/>
<path d="M375.408 28.9194C383.385 28.9194 389.852 22.4456 389.852 14.4597C389.852 6.47383 383.385 0 375.408 0C367.43 0 360.963 6.47383 360.963 14.4597C360.963 22.4456 367.43 28.9194 375.408 28.9194Z" fill="#60A0DA"/>
<path d="M450.55 63.0835L401.453 58.813V85.26C401.453 92.0029 406.917 97.4721 413.652 97.4721H440.221C445.909 97.4721 450.475 92.827 450.4 87.133L450.25 79.4162H438.275L437.976 86.6086H415.224V70.8003H450.55V63.0835Z" fill="#3279BA"/>
<path d="M288.067 146.695C291.581 146.695 294.429 143.844 294.429 140.327C294.429 136.81 291.581 133.958 288.067 133.958C284.554 133.958 281.706 136.81 281.706 140.327C281.706 143.844 284.554 146.695 288.067 146.695Z" fill="#155DA0"/>
<path d="M288.067 161.679C290.34 161.679 292.183 159.834 292.183 157.559C292.183 155.283 290.34 153.438 288.067 153.438C285.794 153.438 283.951 155.283 283.951 157.559C283.951 159.834 285.794 161.679 288.067 161.679Z" fill="#155DA0"/>
<path d="M288.067 176.663C290.34 176.663 292.183 174.818 292.183 172.543C292.183 170.267 290.34 168.422 288.067 168.422C285.794 168.422 283.951 170.267 283.951 172.543C283.951 174.818 285.794 176.663 288.067 176.663Z" fill="#155DA0"/>
</g>
<defs>
<clipPath id="clip0_922_4966">
<rect width="794" height="331" fill="white"/>
</clipPath>
</defs>
</svg>
