<svg width="794" height="308" viewBox="0 0 794 308" fill="none" xmlns="http://www.w3.org/2000/svg">
<g clip-path="url(#clip0_922_5085)">
<path opacity="0.5" d="M794 260.167C789.734 249.404 782.774 237.297 771.173 225.264C744.305 197.461 702.543 193.798 686.976 202.02C698.876 185.353 694.759 144.695 673.429 117.191C639.077 72.8705 591.851 80.3444 579.952 81.9139C579.503 77.0559 577.407 64.2755 568.576 50.2245C558.472 34.0809 537.067 13.2287 492.91 5.53054C443.589 -3.13921 411.108 9.56645 392.622 21.6742C376.306 32.4366 367.699 44.3949 364.93 48.8792C355.575 42.3769 309.023 13.0792 258.205 41.1064C235.304 53.7373 222.805 70.8525 215.994 86.772C197.359 81.3908 182.764 87.6689 176.702 91.0321C176.702 91.0321 128.579 72.1979 100.139 112.632C71.6239 153.066 94.9746 186.474 94.9746 186.474C94.9746 186.474 55.3832 187.52 21.6294 226.758C11.8999 237.969 4.93958 249.33 0 260.167H794Z" fill="url(#paint0_linear_922_5085)"/>
<path d="M100.663 256.654H687.799C687.799 256.654 689.67 231.99 667.292 221.9C644.914 211.811 625.006 227.58 625.006 227.58C625.006 227.58 623.809 213.156 607.269 209.195C590.729 205.233 582.721 217.416 582.721 217.416C582.721 217.416 591.477 177.954 554.879 157.027C515.288 134.381 477.493 166.892 477.493 166.892C477.493 166.892 437.976 132.064 382.668 148.506C332.524 163.38 323.842 207.326 323.842 207.326C323.842 207.326 319.576 190.36 300.416 185.129C278.263 179 263.669 190.136 263.669 190.136C263.669 190.136 251.844 146.713 197.508 155.607C138.308 165.248 145.119 209.718 145.119 209.718C145.119 209.718 123.939 200.899 107.398 216.145C90.7835 231.243 100.663 256.654 100.663 256.654Z" fill="url(#paint1_linear_922_5085)"/>
<path d="M782.549 258.448C782.549 258.448 785.618 262.484 763.988 266.968C738.542 272.2 676.797 268.239 670.81 277.955C664.224 288.493 712.871 285.578 712.347 297.91C711.898 308.374 678.743 308 641.472 308C604.126 308 253.416 308 223.179 308C192.943 308 198.407 298.882 202.673 294.696C208.884 288.642 206.19 283.037 178.948 282.29C152.528 281.542 133.219 280.87 118.849 280.87C80.4554 280.87 87.9396 268.239 58.0028 268.239C38.6187 268.239 15.3428 263.381 15.3428 257.775C138.907 247.536 273.249 241.407 417.095 242.08C547.171 242.678 669.313 248.807 782.549 258.448Z" fill="url(#paint2_linear_922_5085)"/>
<path opacity="0.37" d="M455.863 29.0737L353.33 139.613L360.664 165.174L444.263 183.335L455.863 29.0737Z" fill="white"/>
<path d="M473.302 181.392H460.429V264.054H473.302V181.392Z" fill="#155DA0"/>
<path d="M597.09 181.392H584.217V264.054H597.09V181.392Z" fill="#155DA0"/>
<path d="M638.328 29.0737H423.681V183.335H638.328V29.0737Z" fill="url(#paint3_linear_922_5085)"/>
<path d="M155.821 263.754H185.683C185.683 263.754 185.384 252.768 174.232 251.198C170.191 250.6 166.748 250.6 163.979 250.824L167.721 210.391L154.474 205.981L157.243 252.02C156.794 252.17 156.495 252.244 156.495 252.244L155.821 263.754Z" fill="#3C7EBC"/>
<path d="M160.686 260.391L160.536 252.244C160.536 252.244 160.761 252.17 161.285 252.02L158.59 207.326L154.474 205.981L157.243 252.02C156.794 252.17 156.495 252.244 156.495 252.244L155.821 263.754H185.683C185.683 263.754 185.683 263.605 185.683 263.306L160.686 260.391Z" fill="white"/>
<path d="M168.021 250.75V250.824C168.395 250.824 168.844 250.75 169.218 250.75C168.844 250.75 168.395 250.75 168.021 250.75Z" fill="white"/>
<path d="M241.291 263.754H271.153C271.153 263.754 270.854 252.768 259.702 251.198C255.661 250.6 252.218 250.6 249.449 250.824L253.191 210.391L239.944 205.981L242.713 252.02C242.264 252.17 241.965 252.244 241.965 252.244L241.291 263.754Z" fill="#3C7EBC"/>
<path d="M246.23 260.391L246.081 252.244C246.081 252.244 246.305 252.17 246.829 252.02L244.135 207.326L240.019 205.981L242.788 252.02C242.339 252.17 242.039 252.244 242.039 252.244L241.366 263.754H271.228C271.228 263.754 271.228 263.605 271.228 263.306L246.23 260.391Z" fill="white"/>
<path d="M253.49 250.75V250.824C253.864 250.824 254.313 250.75 254.688 250.75C254.313 250.75 253.939 250.75 253.49 250.75Z" fill="white"/>
<path d="M144.969 136.175C144.969 149.254 145.343 183.41 145.493 200.45C145.568 205.981 150.059 210.391 155.597 210.391H251.619C257.158 210.391 261.723 205.906 261.723 200.301V121.451C261.723 121.451 264.342 102.318 233.957 102.318C203.571 102.318 180.893 103.813 164.353 106.727C147.664 109.568 144.969 124.216 144.969 136.175Z" fill="#DAE4F2"/>
<path d="M160.611 200.45C160.461 183.41 160.087 149.329 160.087 136.175C160.087 124.216 162.782 109.568 179.396 106.653C193.766 104.186 212.701 102.692 237.249 102.393C236.202 102.318 235.079 102.318 233.956 102.318C203.57 102.318 180.893 103.813 164.353 106.727C147.813 109.568 145.044 124.216 145.044 136.249C145.044 149.329 145.418 183.485 145.568 200.525C145.643 206.056 150.133 210.465 155.672 210.465H170.64C165.102 210.391 160.611 205.981 160.611 200.45Z" fill="white"/>
<path d="M297.123 148.282C297.123 148.282 287.319 127.953 257.382 123.992L233.882 102.318C233.882 102.318 280.733 99.1041 306.179 144.844L297.123 148.282Z" fill="#84A0C8"/>
<path d="M294.728 158.895C294.728 158.895 291.136 146.115 302.961 143.948C318.603 141.182 322.719 153.738 322.719 153.738L294.728 158.895Z" fill="#5895CE"/>
<path d="M283.352 172.274L338.735 162.109L336.34 148.88L280.957 159.045C277.29 159.718 274.895 163.23 275.568 166.893C276.167 170.555 279.685 172.946 283.352 172.274Z" fill="#3279BA"/>
<path d="M140.179 198.283L86.293 179.673C82.027 178.178 77.3868 180.495 76.0397 184.83C74.6925 189.165 77.2371 193.724 81.578 194.845L136.512 209.942C136.512 218.836 142.2 227.058 151.181 229.823C156.794 231.542 162.632 230.795 167.422 228.104L168.694 224.068L155.073 219.808L152.079 208.074L161.06 200.45L174.682 204.711L175.954 200.675C173.484 195.742 169.143 191.855 163.53 190.062C154.624 187.371 145.194 190.959 140.179 198.283ZM81.5031 186.25C81.9522 184.83 83.3742 184.083 84.7962 184.531C86.2182 184.979 86.9666 186.399 86.5176 187.82C86.0685 189.24 84.6465 189.987 83.2245 189.539C81.8774 189.09 81.0541 187.595 81.5031 186.25Z" fill="#3175B4"/>
<path d="M162.408 98.9547C180.07 98.9547 223.104 98.9547 239.57 98.9547C256.035 98.9547 261.648 90.7334 261.648 67.639C261.648 44.5446 248.476 13.3784 207.088 13.3784C165.775 13.3784 150.208 38.1918 146.84 61.1367C143.472 84.0816 146.167 98.9547 162.408 98.9547Z" fill="#DAE4F2"/>
<path d="M160.462 62.4073C163.755 40.2845 180.444 21.6744 220.485 21.6744C228.044 21.6744 234.48 22.0481 240.019 22.646C231.861 17.0406 221.084 13.4531 207.088 13.4531C165.775 13.4531 150.208 38.2665 146.84 61.2114C143.472 84.1564 146.167 99.0294 162.408 99.0294C165.925 99.0294 170.416 99.0294 175.505 99.0294C159.788 98.9547 157.169 84.6048 160.462 62.4073Z" fill="white"/>
<path d="M255.137 67.6391C255.137 60.1652 253.715 51.7944 250.496 43.9468C247.877 37.7434 241.815 33.7075 235.079 33.7075H197.733C176.927 33.7075 161.21 55.7556 166.374 73.4687C171.463 91.1819 193.018 88.5661 211.055 88.5661H241.515C248.401 88.5661 254.238 83.3343 254.837 76.4583C254.987 73.8424 255.137 70.8529 255.137 67.6391Z" fill="#155DA0"/>
<path d="M204.843 59.9408C204.843 62.2577 202.972 64.1262 200.652 64.1262C198.332 64.1262 196.46 62.2577 196.46 59.9408C196.46 57.6238 198.332 55.7554 200.652 55.7554C202.972 55.7554 204.843 57.6238 204.843 59.9408Z" fill="white"/>
<path d="M246.23 59.9408C246.23 62.2577 244.359 64.1262 242.039 64.1262C239.719 64.1262 237.848 62.2577 237.848 59.9408C237.848 57.6238 239.719 55.7554 242.039 55.7554C244.359 55.7554 246.23 57.6238 246.23 59.9408Z" fill="white"/>
<path d="M348.989 153.439C350.561 161.885 347.941 169.433 343.226 170.33C338.511 171.227 333.422 165.024 331.85 156.578C330.278 148.133 332.898 140.584 337.613 139.687C342.328 138.79 347.417 144.994 348.989 153.439Z" fill="#6E868E"/>
<path d="M337.613 139.687C332.898 140.584 330.278 148.133 331.85 156.578C333.422 165.024 338.511 171.153 343.226 170.33L361.038 167.042L355.425 136.474L337.613 139.687Z" fill="#3279BA"/>
<path d="M360.995 167.015C365.711 166.152 368.278 158.606 366.728 150.161C365.178 141.716 360.098 135.57 355.382 136.433C350.665 137.297 348.099 144.843 349.649 153.287C351.199 161.732 356.279 167.878 360.995 167.015Z" fill="#1C5E9B"/>
<path d="M365.379 150.375C366.651 157.475 364.481 163.753 360.514 164.501C356.548 165.248 352.282 160.091 351.009 152.991C349.737 145.891 351.907 139.613 355.874 138.865C359.841 138.192 364.107 143.349 365.379 150.375Z" fill="white"/>
<path d="M315.085 159.942C313.289 161.511 310.52 161.287 309.023 159.418L304.458 154.112C302.886 152.318 303.111 149.553 304.982 148.058C306.778 146.488 309.547 146.713 311.044 148.581L315.609 153.888C317.106 155.681 316.882 158.372 315.085 159.942Z" fill="#5895CE"/>
<path d="M326.985 168.611L326.536 168.91C324.665 170.032 322.12 169.434 320.998 167.565L318.079 162.782C316.956 160.913 317.555 158.372 319.426 157.251L319.875 156.952C321.746 155.831 324.291 156.429 325.413 158.298L328.332 163.081C329.53 164.949 328.931 167.49 326.985 168.611Z" fill="#5895CE"/>
<path d="M319.576 169.807C317.779 171.377 315.01 171.153 313.513 169.284L308.948 163.903C307.376 162.109 307.601 159.344 309.472 157.849C311.268 156.28 314.037 156.504 315.534 158.372L320.1 163.753C321.596 165.547 321.372 168.313 319.576 169.807Z" fill="#5895CE"/>
<path d="M311.792 171.825C310.146 173.544 307.377 173.619 305.73 171.975L300.641 167.117C298.92 165.473 298.845 162.707 300.491 161.063C302.138 159.344 304.907 159.269 306.554 160.913L311.643 165.772C313.364 167.341 313.439 170.106 311.792 171.825Z" fill="#5895CE"/>
<path d="M111.066 183.335C111.066 183.335 109.494 165.846 115.706 147.61C122.217 128.551 142.574 107.55 171.239 105.681L156.046 130.495C156.046 130.495 121.244 129.373 118.55 184.157L111.066 183.335Z" fill="white"/>
<path d="M126.708 192.304C126.408 188.043 124.537 182.961 117.652 181.392C112.338 180.121 106.201 181.765 103.207 184.307C99.2405 187.67 99.0908 192.378 99.0908 192.378C98.9411 192.827 98.9411 193.35 99.016 193.873L99.9141 200.002C100.213 202.094 102.159 203.514 104.18 203.216C105.228 203.066 106.051 202.543 106.65 201.721V202.393C106.725 204.486 108.521 206.13 110.616 205.981C111.515 205.906 112.263 205.607 112.862 205.084V205.159C112.637 207.102 114.059 208.896 115.93 209.12L116.379 209.195C118.325 209.419 120.121 207.999 120.346 206.13L120.795 202.543C121.394 202.991 122.142 203.216 122.965 203.216C125.061 203.216 126.782 201.497 126.782 199.404V193.275C126.857 192.902 126.857 192.603 126.708 192.304Z" fill="white"/>
<path opacity="0.37" d="M423.681 140.435C427.797 155.233 434.683 169.808 444.263 183.261H636.757C637.281 181.915 637.805 180.57 638.328 179.225V104.784C632.94 88.1924 624.034 71.974 611.685 57.3999C601.88 45.89 590.804 36.4729 578.904 29.0737H455.863C454.666 29.9706 453.468 30.9422 452.271 31.9138C438.35 43.7226 428.845 59.0441 423.681 76.0099V140.435Z" fill="white"/>
<path d="M476.692 131.497C474.182 131.497 471.945 131.036 469.98 130.112C468.027 129.189 466.476 127.916 465.328 126.295C464.18 124.673 463.582 122.815 463.535 120.719H470.992C471.075 122.128 471.667 123.27 472.768 124.146C473.868 125.022 475.176 125.46 476.692 125.46C477.899 125.46 478.964 125.194 479.888 124.661C480.823 124.117 481.551 123.365 482.072 122.406C482.604 121.436 482.871 120.323 482.871 119.068C482.871 117.79 482.598 116.665 482.054 115.695C481.521 114.724 480.781 113.966 479.834 113.422C478.887 112.877 477.804 112.599 476.585 112.587C475.52 112.587 474.484 112.806 473.478 113.244C472.483 113.682 471.708 114.28 471.152 115.038L464.316 113.812L466.038 94.6364H488.268V100.922H472.377L471.436 110.031H471.649C472.288 109.131 473.253 108.385 474.543 107.793C475.833 107.201 477.278 106.906 478.876 106.906C481.065 106.906 483.019 107.42 484.735 108.45C486.451 109.48 487.807 110.895 488.801 112.694C489.795 114.481 490.287 116.541 490.275 118.873C490.287 121.323 489.718 123.501 488.57 125.407C487.434 127.301 485.842 128.792 483.794 129.881C481.758 130.959 479.39 131.497 476.692 131.497ZM509.895 131.799C506.841 131.787 504.213 131.036 502.011 129.544C499.821 128.053 498.135 125.892 496.951 123.063C495.779 120.234 495.199 116.831 495.211 112.854C495.211 108.888 495.797 105.509 496.969 102.715C498.152 99.9216 499.839 97.7969 502.029 96.3409C504.231 94.8731 506.853 94.1392 509.895 94.1392C512.937 94.1392 515.553 94.8731 517.743 96.3409C519.944 97.8087 521.637 99.9394 522.821 102.733C524.005 105.515 524.59 108.888 524.579 112.854C524.579 116.843 523.987 120.252 522.803 123.081C521.631 125.91 519.95 128.07 517.76 129.562C515.571 131.053 512.949 131.799 509.895 131.799ZM509.895 125.425C511.978 125.425 513.641 124.377 514.884 122.282C516.127 120.187 516.742 117.044 516.731 112.854C516.731 110.096 516.447 107.799 515.878 105.964C515.322 104.13 514.529 102.751 513.499 101.827C512.481 100.904 511.28 100.442 509.895 100.442C507.823 100.442 506.166 101.478 504.923 103.55C503.68 105.621 503.053 108.723 503.041 112.854C503.041 115.647 503.319 117.979 503.876 119.849C504.444 121.708 505.243 123.105 506.273 124.04C507.302 124.963 508.51 125.425 509.895 125.425ZM544.319 131.799C541.265 131.787 538.637 131.036 536.435 129.544C534.245 128.053 532.558 125.892 531.375 123.063C530.203 120.234 529.623 116.831 529.635 112.854C529.635 108.888 530.221 105.509 531.392 102.715C532.576 99.9216 534.263 97.7969 536.453 96.3409C538.654 94.8731 541.276 94.1392 544.319 94.1392C547.361 94.1392 549.977 94.8731 552.167 96.3409C554.368 97.8087 556.061 99.9394 557.245 102.733C558.428 105.515 559.014 108.888 559.002 112.854C559.002 116.843 558.411 120.252 557.227 123.081C556.055 125.91 554.374 128.07 552.184 129.562C549.994 131.053 547.373 131.799 544.319 131.799ZM544.319 125.425C546.402 125.425 548.065 124.377 549.308 122.282C550.551 120.187 551.166 117.044 551.154 112.854C551.154 110.096 550.87 107.799 550.302 105.964C549.746 104.13 548.953 102.751 547.923 101.827C546.905 100.904 545.703 100.442 544.319 100.442C542.247 100.442 540.59 101.478 539.347 103.55C538.104 105.621 537.477 108.723 537.465 112.854C537.465 115.647 537.743 117.979 538.299 119.849C538.868 121.708 539.667 123.105 540.696 124.04C541.726 124.963 542.934 125.425 544.319 125.425Z" fill="white"/>
<path d="M563.786 124.291C563.786 122.647 564.235 121.451 565.058 120.629C565.956 119.807 567.154 119.358 568.8 119.358C570.372 119.358 571.644 119.807 572.467 120.629C573.366 121.451 573.74 122.647 573.74 124.216C573.74 125.711 573.291 126.907 572.393 127.804C571.494 128.701 570.297 129.074 568.725 129.074C567.079 129.074 565.881 128.626 564.983 127.804C564.235 127.057 563.786 125.861 563.786 124.291Z" fill="white"/>
<path d="M580.55 124.291C580.55 122.647 580.999 121.451 581.823 120.629C582.721 119.807 583.918 119.358 585.565 119.358C587.136 119.358 588.409 119.807 589.232 120.629C590.13 121.451 590.504 122.647 590.504 124.216C590.504 125.711 590.055 126.907 589.157 127.804C588.259 128.701 587.061 129.074 585.49 129.074C583.843 129.074 582.646 128.626 581.748 127.804C580.999 127.057 580.55 125.861 580.55 124.291Z" fill="white"/>
<path d="M597.315 124.291C597.315 122.647 597.764 121.451 598.587 120.629C599.485 119.807 600.683 119.358 602.329 119.358C603.901 119.358 605.173 119.807 605.997 120.629C606.895 121.451 607.269 122.647 607.269 124.216C607.269 125.711 606.82 126.907 605.922 127.804C605.024 128.701 603.826 129.074 602.255 129.074C600.608 129.074 599.411 128.626 598.512 127.804C597.764 127.057 597.315 125.861 597.315 124.291Z" fill="white"/>
<path d="M148.412 6.12856C143.697 4.4843 139.431 3.81164 136.512 3.58743C135.763 1.12103 133.219 -0.448487 130.674 0.0746867C127.905 0.597861 126.109 3.28847 126.633 6.05382C127.157 8.81917 129.851 10.6129 132.62 10.0897C134.566 9.71604 135.988 8.29599 136.512 6.57699C139.281 6.80121 143.248 7.47386 147.514 8.96864C158.216 12.7803 165.925 20.03 170.341 30.5683L173.11 29.4472C167.122 15.2467 156.345 8.96864 148.412 6.12856Z" fill="#60A0DA"/>
<path d="M217.267 103.065C217.267 103.215 217.267 103.289 217.267 103.439V122.871C217.267 124.291 218.464 125.487 219.886 125.487C221.308 125.487 222.506 124.291 222.506 122.871V103.439C222.506 103.215 222.506 103.065 222.431 102.841L217.267 103.065Z" fill="#60A0DA"/>
</g>
<defs>
<linearGradient id="paint0_linear_922_5085" x1="630.866" y1="248.84" x2="228.201" y2="126.343" gradientUnits="userSpaceOnUse">
<stop offset="0.11" stop-color="#1D5DA2"/>
<stop offset="0.9048" stop-color="#7797C1"/>
</linearGradient>
<linearGradient id="paint1_linear_922_5085" x1="102.852" y1="200.37" x2="692.895" y2="200.37" gradientUnits="userSpaceOnUse">
<stop offset="0.11" stop-color="#3A617B"/>
<stop offset="0.9048" stop-color="#5886CE"/>
</linearGradient>
<linearGradient id="paint2_linear_922_5085" x1="15.3271" y1="275.005" x2="782.704" y2="275.005" gradientUnits="userSpaceOnUse">
<stop offset="0.11" stop-color="#9EACBC"/>
<stop offset="0.9048" stop-color="#707F93"/>
</linearGradient>
<linearGradient id="paint3_linear_922_5085" x1="423.679" y1="106.187" x2="638.301" y2="106.187" gradientUnits="userSpaceOnUse">
<stop offset="0.2434" stop-color="#3B70A2"/>
<stop offset="1" stop-color="#11538F"/>
</linearGradient>
<clipPath id="clip0_922_5085">
<rect width="794" height="308" fill="white"/>
</clipPath>
</defs>
</svg>
