<svg width="586" height="464" viewBox="0 0 586 464" fill="none" xmlns="http://www.w3.org/2000/svg">
<path opacity="0.24" d="M73.9706 376.782H15.4429C-0.220584 360.51 -4.40357 334.573 4.95132 314.014C13.8629 294.422 33.016 281.47 44.6101 263.333C69.367 224.626 57.3978 166.964 91.0322 135.671C107.844 120.024 132.021 115.51 154.914 113.679C177.806 111.849 201.461 111.905 222.626 103.002C248.724 92.0289 268.4 68.4568 295.294 59.5761C325.484 49.6037 361.596 62.0436 379.238 88.5039C390.275 105.06 394.446 125.858 407.496 140.879C428.604 165.156 465.796 167.044 492.121 185.533C510.183 198.212 522.369 218.93 524.699 240.876C527.506 267.381 517.447 297.481 533.338 318.869C541.078 329.297 553.639 335.187 561.982 345.137C570.302 355.063 572.644 364.103 570.018 376.782H73.9706Z" fill="url(#paint0_linear_128_3391)"/>
<path opacity="0.3" d="M88.918 376.782H30.4016C14.7382 360.51 10.5552 334.573 19.9101 314.014C28.8216 294.422 47.9747 281.47 59.5689 263.333C84.3258 224.626 72.3565 166.964 105.991 135.671C122.802 120.024 146.98 115.51 169.872 113.679C192.765 111.849 216.419 111.905 237.584 103.002C263.683 92.0289 283.359 68.4568 310.253 59.5761C340.443 49.6037 376.555 62.0436 394.196 88.5039C405.234 105.06 409.405 125.858 422.454 140.879C443.562 165.156 480.755 167.044 507.08 185.533C525.142 198.212 537.327 218.93 539.657 240.876C542.465 267.381 532.405 297.481 548.296 318.869C556.037 329.297 568.597 335.187 576.941 345.137C585.261 355.063 587.603 364.103 584.977 376.782H88.918Z" fill="url(#paint1_linear_128_3391)"/>
<path d="M223.603 176.322L221.194 176.401H3.56464L3.04177 176.47C0.882075 162.029 12.1807 147.36 26.4006 143.471C38.8359 140.071 53.3854 143.096 63.7974 135.489C73.1295 128.677 75.4484 115.942 81.5523 106.129C85.3488 100.022 90.7595 94.9281 97.0908 91.5282C105.025 87.264 114.925 85.7744 123.064 89.6292C137.477 96.4746 140.239 115.578 149.878 128.302C152.027 131.145 154.732 133.794 158.176 134.738C161.347 135.614 164.712 134.931 167.963 134.351C178.614 132.475 191.39 132.646 198.017 141.197C201.131 145.222 202.245 150.385 203.973 155.16C205.701 159.948 208.531 164.86 213.316 166.577C215.613 167.384 218.215 167.407 220.239 168.76C222.671 170.386 223.456 173.286 223.603 176.322Z" fill="#EBF0FE"/>
<path d="M573.667 203.806H319.88C317.857 201.145 317.607 197.029 319.051 193.868C320.926 189.718 324.836 186.898 328.735 184.555C332.634 182.201 336.783 180.041 339.704 176.55C345.308 169.852 344.978 160.244 346.217 151.602C347.672 141.345 351.969 131.191 359.721 124.311C362.79 121.582 366.348 119.422 370.076 117.693C380.704 112.747 393.867 111.508 403.802 117.739C413.304 123.697 417.965 135.034 426.251 142.596C428.206 144.393 430.445 145.996 433.037 146.599C440.459 148.304 446.768 141.573 452.338 136.376C460.249 128.996 470.82 123.481 481.55 124.857C494.168 126.495 503.92 137.32 508.706 149.112C510.706 154.024 512.23 159.459 516.208 162.95C526.415 171.899 543.647 161.87 555.548 168.374C560.016 170.819 563.005 175.265 565.392 179.768C569.37 187.284 572.178 195.426 573.667 203.806Z" fill="#EBF0FE"/>
<path d="M218.59 344.67H200.335V376.77H156.107V344.67H89.9863V311.773L158.937 210.924H200.324V311.205H218.579V344.67H218.59ZM156.107 311.194V291.908C156.107 288.281 156.243 283.38 156.505 277.217C156.766 271.054 156.971 267.824 157.13 267.517H155.88C153.311 273.339 150.401 278.786 147.15 283.858L128.781 311.194H156.107Z" fill="url(#paint2_linear_128_3391)"/>
<path d="M206.508 344.67H188.252V376.77H144.024V344.67H77.9148V311.773L146.866 210.924H188.252V311.205H206.508V344.67ZM144.024 311.205V291.92C144.024 288.292 144.161 283.391 144.422 277.228C144.683 271.065 144.888 267.836 145.047 267.529H143.797C141.228 273.351 138.318 278.797 135.067 283.869L116.698 311.205H144.024Z" fill="url(#paint3_linear_128_3391)"/>
<path d="M507.194 345.773L500.84 312.911L488.984 315.207L482.915 316.379L463.887 217.917L423.239 225.786L374.691 337.893L380.932 370.198L445.847 357.633L449.542 376.77H494.588L489.269 349.241L495.339 348.07L507.194 345.773ZM427.638 327.079L412.668 329.967L423.352 304.746L425.512 299.641C427.74 294.046 429.559 288.144 430.98 281.936L432.207 281.708C432.116 282.027 432.525 285.245 433.435 291.351C434.344 297.446 435.14 302.279 435.833 305.849L439.493 324.782L427.638 327.079Z" fill="url(#paint4_linear_128_3391)"/>
<path d="M495.338 348.07L488.984 315.219L471.059 318.687L452.019 220.226L423.239 225.786L411.383 228.083L362.835 340.201L369.076 372.495L380.931 370.198L433.992 359.941L437.243 376.77H482.289L477.413 351.538L489.269 349.241L495.338 348.07ZM423.352 304.746C423.568 305.986 423.784 307.112 423.978 308.146L427.638 327.079L400.801 332.276L413.656 301.938C415.884 296.355 417.703 290.453 419.124 284.244L420.352 284.006C420.261 284.335 420.67 287.553 421.579 293.648C422.227 297.992 422.818 301.699 423.352 304.746Z" fill="url(#paint5_linear_128_3391)"/>
<path d="M224.763 292.648H197.766L180.614 167.009C180.614 167.009 155.834 139.924 127.383 134.852L154.482 131.93L215.555 133.59L224.763 292.648Z" fill="url(#paint6_linear_128_3391)"/>
<path d="M118.199 223.58C118.199 223.58 102.854 246.049 109.662 265.334L138.204 223.58L134.499 218.6L118.199 223.58Z" fill="#111023"/>
<path d="M197.766 292.647L196.846 298.447C196.846 298.447 188.707 299.584 188.252 311.205H209.406L220.898 299.982L221.966 292.647H197.766Z" fill="#111023"/>
<path d="M165.098 166.918L131.259 165.656L136.761 217.496L113.822 225.717L100.603 161.699C96.7381 149.77 104.82 137.296 117.278 135.943L127.36 134.852H127.372C155.823 139.923 180.602 167.009 180.602 167.009L165.098 166.918Z" fill="url(#paint7_linear_128_3391)"/>
<path d="M102.785 22.2331V23.7455L100.955 23.9843C100.489 22.9722 99.9777 22.1649 99.4776 21.7214C97.0337 19.6064 95.3287 17.9462 93.5782 18.9583C92.2596 19.7315 92.3619 23.3475 92.487 25.0531L87.4969 25.6899L43.2801 31.2958L43.2573 31.2162C46.1218 30.534 48.3497 25.3943 48.3497 19.1402C48.3497 12.9657 46.19 7.88289 43.3824 7.08691L102.797 13.7958V14.9898V22.2331H102.785Z" fill="url(#paint8_linear_128_3391)"/>
<path d="M46.5652 10.3157C46.4402 10.4977 46.3265 10.6796 46.2242 10.8843C45.5876 12.1124 45.2921 13.5224 44.5078 14.6481C43.9395 15.4896 43.0983 16.1377 42.1662 16.5016C41.1773 16.8882 40.0861 16.9564 39.0176 17.0929C38.3129 17.1838 37.5854 17.3317 36.9375 17.6273C37.2785 11.7257 39.5973 7.13185 42.4618 6.97266L43.3825 7.075C44.5987 7.4275 45.7127 8.59871 46.5652 10.3157Z" fill="url(#paint9_linear_128_3391)"/>
<path d="M48.327 18.139C48.3043 18.1617 48.2929 18.1845 48.2702 18.1958C47.5427 19.1737 47.1903 20.3904 46.5197 21.3911C45.7354 22.5737 44.4736 23.4265 43.0869 23.7449C41.8024 24.0292 40.4271 23.8813 39.2563 24.4613C38.6652 24.7683 38.1764 25.2459 37.8241 25.803C37.233 23.8813 36.8806 21.5844 36.8806 19.1169C36.8806 18.6052 36.892 18.1049 36.9374 17.6045C37.5854 17.3089 38.3128 17.1611 39.0176 17.0701C40.0861 16.9223 41.1659 16.8654 42.1662 16.4788C43.1096 16.1149 43.9394 15.4668 44.5077 14.6253C45.2921 13.4996 45.599 12.0896 46.2241 10.8615C46.3264 10.6682 46.4401 10.4863 46.5651 10.293C47.554 12.3284 48.2133 15.0574 48.327 18.139Z" fill="url(#paint10_linear_128_3391)"/>
<path d="M48.3496 19.1283C48.3496 25.3824 46.1217 30.5334 43.2573 31.2043C43.0527 31.2612 42.8254 31.2839 42.6094 31.2839C40.6088 31.2839 38.847 29.1121 37.824 25.8145C38.1877 25.2459 38.6651 24.7797 39.2562 24.4727C40.427 23.8928 41.8137 24.0406 43.0868 23.7563C44.4736 23.4379 45.7353 22.5737 46.5196 21.4025C47.2016 20.4019 47.5426 19.1738 48.2701 18.2072C48.2928 18.1845 48.3042 18.1618 48.3269 18.1504C48.3383 18.4688 48.3496 18.7985 48.3496 19.1283Z" fill="url(#paint11_linear_128_3391)"/>
<path d="M137.795 16.1611H155.664C153.8 16.9116 152.208 17.7644 151.492 18.4353C150.924 18.9584 151.174 19.9136 151.867 21.1303H137.784V16.1611H137.795Z" fill="#111023"/>
<path d="M177.409 19.1517V21.1303H167.724C166.792 18.9811 166.099 17.1618 165.86 16.1611H177.409V19.1517Z" fill="#111023"/>
<path d="M137.795 21.1302V22.2332H102.785V14.9785H137.795V16.1611V21.1302Z" fill="url(#paint12_linear_128_3391)"/>
<path d="M104.172 34.6158L96.4654 40.4833C96.4654 40.4833 87.1105 30.6701 87.4856 25.6896L92.4756 25.0528C92.3506 23.3358 92.2483 19.7198 93.5668 18.958C95.3173 17.9459 97.0224 19.6061 99.4662 21.7211C99.9664 22.1646 100.466 22.9719 100.944 23.9839C102.751 27.8387 104.172 34.6158 104.172 34.6158Z" fill="url(#paint13_linear_128_3391)"/>
<path d="M52.3053 7.12092C51.7938 5.99519 50.1229 6.96172 50.6344 8.07608C53.8058 15.0124 53.3966 22.6424 49.6 29.2489C48.9862 30.3178 50.6458 31.2843 51.2596 30.2155C55.4199 22.9949 55.7609 14.6826 52.3053 7.12092Z" fill="#5B2B89"/>
<path d="M189.571 42.3608V48.3078L182.456 41.5762L189.571 42.3608Z" fill="url(#paint14_linear_128_3391)"/>
<path d="M189.571 48.3076L196.732 55.0733L203.564 61.5321C203.564 61.5321 219.227 50.5591 225.297 50.4681C225.729 50.4567 226.138 50.4908 226.536 50.5477C231.901 51.3095 235.175 57.5067 234.231 63.4538C233.22 69.867 233.401 76.9512 227.229 78.0997C221.057 79.2595 193.879 85.8547 193.879 85.8547L164.132 45.4762L167.633 43.0314L175.442 37.562L177.022 36.459L180.455 39.6997L182.444 41.5759L189.571 48.3076Z" fill="url(#paint15_linear_128_3391)"/>
<path d="M208.781 43.5996L226.547 50.5473C226.149 50.4904 225.74 50.4563 225.308 50.4677C219.227 50.5587 203.575 61.5317 203.575 61.5317L196.743 55.073L208.781 43.5996Z" fill="url(#paint16_linear_128_3391)"/>
<path d="M227.241 78.111L216.92 106.22L215.533 133.59C215.533 133.59 214.328 133.806 212.225 134.102C202.381 135.512 172.896 138.866 154.459 131.93L161.643 97.9193L158.324 71.0951L118.256 75.5298L93.1123 43.0314L96.4655 40.4729L104.172 34.6055L127.94 57.8251L165.132 41.5645C166.485 42.5424 167.656 43.02 167.656 43.02L164.155 45.4648L193.902 85.8433C193.89 85.8547 221.08 79.2595 227.241 78.111Z" fill="url(#paint17_linear_128_3391)"/>
<path d="M175.453 37.5731L167.644 43.0426C167.644 43.0426 166.474 42.565 165.121 41.5871C163.359 40.3249 161.279 38.244 161.018 35.3103C160.677 31.3759 154.038 24.9627 151.867 21.142C151.174 19.9253 150.924 18.9702 151.492 18.4471C152.208 17.7648 153.8 16.9234 155.664 16.1729C159.79 14.5355 165.303 13.4097 165.803 15.9682C165.814 16.0251 165.837 16.1047 165.86 16.1729C166.099 17.1735 166.792 18.9929 167.724 21.142C170.554 27.7372 175.453 37.5731 175.453 37.5731Z" fill="url(#paint18_linear_128_3391)"/>
<path opacity="0.38" d="M216.92 106.22C171.396 96.5546 164.144 45.4873 164.144 45.4873L193.902 85.8885L227.252 78.1108L216.92 106.22Z" fill="url(#paint19_linear_128_3391)"/>
<path d="M208.52 18.7764C209.486 18.5148 210.452 18.7081 210.85 20.2432C211.748 23.7569 207.803 27.9869 207.803 27.9869L208.781 43.5993L196.743 55.0727L201.461 41.5753L189.582 42.3599L182.467 41.5753L180.478 39.699C180.478 39.699 179.091 26.7474 179.091 19.1516C179.091 17.4005 179.159 15.9336 179.352 14.9784L179.409 14.6146C187.73 16.0246 199.278 12.7725 199.278 12.7725C199.278 12.7725 200.892 28.5441 203.109 28.817C205.325 29.0785 206.007 20.2432 206.007 20.2432C206.007 20.2432 207.269 19.1175 208.52 18.7764Z" fill="url(#paint20_linear_128_3391)"/>
<path d="M208.61 7.31469L208.519 18.7767C207.269 19.1178 206.007 20.2435 206.007 20.2435C206.007 20.2435 205.325 29.0788 203.109 28.8173C200.892 28.5444 199.278 12.7728 199.278 12.7728C199.278 12.7728 187.729 16.0249 179.409 14.6149V14.6035C176.795 14.1714 174.51 13.2731 172.998 11.6698C166.633 4.96089 168.849 1.16297 177.965 3.2325C187.082 5.30202 205.985 -5.68238 208.61 7.31469Z" fill="#111023"/>
<path d="M201.449 41.5752L196.732 55.0726L189.571 48.3068V42.3598L201.449 41.5752Z" fill="#F79244"/>
<path d="M178.613 16.6963C180.443 15.7752 182.353 15.6729 184.274 16.3665C185.445 16.7872 184.558 18.527 183.399 18.1063C182.182 17.6742 180.818 17.7538 179.67 18.3337C178.556 18.8795 177.488 17.2535 178.613 16.6963Z" fill="#111023"/>
<path d="M196.389 23.3708C197.16 23.3305 197.737 22.3725 197.677 21.2312C197.618 20.0898 196.944 19.1972 196.173 19.2375C195.402 19.2779 194.825 20.2358 194.885 21.3772C194.945 22.5185 195.618 23.4111 196.389 23.3708Z" fill="#111023"/>
<path d="M198.721 16.2293C196.8 15.5016 194.902 15.5926 193.049 16.4909C191.924 17.0367 192.981 18.6627 194.095 18.1283C195.254 17.5711 196.63 17.5143 197.835 17.9691C199.006 18.4012 199.892 16.6728 198.721 16.2293Z" fill="#111023"/>
<path d="M185.24 27.714C185.865 24.7803 187.377 21.7897 188.4 18.9584C188.616 18.3671 189.48 18.8105 189.264 19.3905C188.616 21.1757 187.968 22.9496 187.32 24.7348C187.093 25.3489 186.547 26.3723 186.491 27.0204C186.275 29.2378 187.298 29.0672 188.446 29.6016C189.014 29.8632 188.571 30.7387 188.014 30.4658C186.604 29.8177 184.808 29.7381 185.24 27.714Z" fill="#F79244"/>
<path d="M184.172 21.5515C183.262 20.8237 182.228 20.3348 181.068 20.187C180.352 20.096 180.057 21.199 180.784 21.29C181.375 21.3696 181.921 21.5287 182.444 21.7789C181.841 21.9722 181.228 22.1769 180.625 22.3702C179.932 22.5976 180.227 23.7006 180.921 23.4732C181.921 23.1434 182.921 22.825 183.922 22.4953C184.274 22.3816 184.524 21.8358 184.172 21.5515Z" fill="#111023"/>
<path d="M188.866 40.0404C190.26 40.0404 191.39 38.4062 191.39 36.3903C191.39 34.3744 190.26 32.7402 188.866 32.7402C187.473 32.7402 186.343 34.3744 186.343 36.3903C186.343 38.4062 187.473 40.0404 188.866 40.0404Z" fill="white"/>
<path opacity="0.5" d="M538.204 376.972H82.0988C82.0988 376.972 57.5579 393.266 94.0453 396.029C130.533 398.793 187.435 401.397 186.037 413.814C184.639 426.231 151.686 423.775 151.686 445.698C151.686 467.621 303.661 462.561 303.661 462.561C303.661 462.561 389.514 463.687 401.745 449.166C413.976 434.657 367.133 421.364 375.635 415.645C384.138 409.925 445.848 427.095 455.044 413.188C464.24 399.293 453.203 390.492 470.162 388.661C487.121 386.83 535.339 393.482 538.204 376.972Z" fill="url(#paint21_linear_128_3391)"/>
<path opacity="0.6" d="M503.717 415.656C522.763 415.656 538.204 411.262 538.204 405.842C538.204 400.423 522.763 396.029 503.717 396.029C484.67 396.029 469.23 400.423 469.23 405.842C469.23 411.262 484.67 415.656 503.717 415.656Z" fill="url(#paint22_linear_128_3391)"/>
<path d="M136.557 421.785C153.206 421.785 166.702 418.445 166.702 414.326C166.702 410.206 153.206 406.866 136.557 406.866C119.909 406.866 106.412 410.206 106.412 414.326C106.412 418.445 119.909 421.785 136.557 421.785Z" fill="#DBEFFF"/>
<path d="M309.333 449.996C328.241 449.996 343.57 447.043 343.57 443.401C343.57 439.758 328.241 436.806 309.333 436.806C290.424 436.806 275.096 439.758 275.096 443.401C275.096 447.043 290.424 449.996 309.333 449.996Z" fill="#E9F5FF"/>
<path d="M353.674 289.031C346.649 272.964 333.475 262.958 314.151 259.012C312.048 258.58 309.991 258.239 307.979 257.989C290.929 255.828 276.868 259.899 265.797 270.201C253.407 281.709 244.268 301.915 238.357 330.82C234.743 348.525 233.731 363.841 235.334 376.77H277.573C277.038 369.22 278.528 356.871 282.029 339.746C285.814 321.223 289.565 308.715 293.282 302.21C295.441 298.435 297.885 295.945 300.613 294.74C302.58 293.864 304.705 293.659 306.967 294.126C312.378 295.24 315.492 299.641 316.311 307.327C317.129 315.026 315.697 327.875 312.026 345.875C309.263 359.373 306.49 369.663 303.716 376.77H350.025C352.173 370.118 354.06 362.795 355.685 354.801C356.765 349.514 357.618 344.442 358.232 339.587C360.88 318.892 359.357 302.04 353.674 289.031Z" fill="url(#paint23_linear_128_3391)"/>
<path d="M341.841 286.621C335.532 272.191 324.245 262.639 307.979 257.989C306.149 257.466 304.262 256.999 302.307 256.601C282.461 252.542 266.342 256.272 253.953 267.79C241.574 279.309 232.424 299.516 226.525 328.409C225.32 334.288 224.41 339.917 223.785 345.273C222.41 357.042 222.421 367.548 223.831 376.77H266.013C265.956 376.497 265.922 376.225 265.888 375.94C265.001 368.583 266.433 355.711 270.184 337.336C273.97 318.812 277.721 306.304 281.449 299.811C285.166 293.307 289.724 290.612 295.135 291.726C297.351 292.181 299.181 293.182 300.613 294.74C302.716 296.991 303.989 300.38 304.478 304.917C305.297 312.615 303.864 325.464 300.193 343.465C297.101 358.565 293.998 369.663 290.883 376.77H337.408C339.863 369.493 342.011 361.374 343.853 352.402C349.525 324.611 348.854 302.688 341.841 286.621Z" fill="url(#paint24_linear_128_3391)"/>
<path d="M374.089 178.255L373.804 178.471L344.103 201.6L325.564 216.03L310.128 258.762L305.842 257.216L321.744 213.244L371.304 174.662L374.089 178.255Z" fill="#2A2A2A"/>
<path d="M388.32 274.159C384.944 278.173 380.34 280.925 375.828 283.597L375.521 283.062C377.305 280.777 379.192 278.093 378.658 275.239C378.283 273.295 376.851 271.748 375.384 270.441C372.895 268.246 370.121 266.392 367.746 264.084C365.37 261.776 363.358 258.876 362.972 255.59C362.472 251.269 364.802 247.187 365.711 242.934C366.075 241.228 366.2 239.409 365.518 237.806C363.995 234.19 359.391 233.36 355.742 231.904C352.48 230.585 349.411 228.14 348.502 224.74C347.183 219.805 350.696 214.757 350.218 209.674C349.888 206.126 347.365 202.953 344.103 201.6L373.804 178.472C378.84 182.838 383.182 188.626 383.239 195.233C383.261 199.417 381.568 203.397 380.363 207.4C379.886 209.014 379.476 210.697 379.772 212.346C380.238 214.87 382.25 216.781 384.103 218.566C387.933 222.239 391.787 226.708 391.718 232.018C391.65 237.976 386.569 243.287 387.456 249.177C388.024 252.941 390.923 255.942 392.082 259.558C393.673 264.562 391.696 270.145 388.32 274.159Z" fill="url(#paint25_linear_128_3391)"/>
<defs>
<linearGradient id="paint0_linear_128_3391" x1="-184.432" y1="159.717" x2="-38.7548" y2="561.319" gradientUnits="userSpaceOnUse">
<stop stop-color="#73B6E7"/>
<stop offset="1" stop-color="#0063F7"/>
</linearGradient>
<linearGradient id="paint1_linear_128_3391" x1="-169.473" y1="159.717" x2="-23.796" y2="561.319" gradientUnits="userSpaceOnUse">
<stop stop-color="#73A8E7"/>
<stop offset="1" stop-color="#0063F7"/>
</linearGradient>
<linearGradient id="paint2_linear_128_3391" x1="162" y1="271.999" x2="168.288" y2="428.866" gradientUnits="userSpaceOnUse">
<stop stop-color="#5B8DEF"/>
<stop offset="1" stop-color="#0063F7"/>
</linearGradient>
<linearGradient id="paint3_linear_128_3391" x1="143.384" y1="387.692" x2="142.157" y2="325.139" gradientUnits="userSpaceOnUse">
<stop stop-color="#F9E6D9"/>
<stop offset="0.121" stop-color="#FCF1EA"/>
<stop offset="0.2698" stop-color="#FEF9F6"/>
<stop offset="0.4751" stop-color="#FFFEFD"/>
<stop offset="1" stop-color="white"/>
</linearGradient>
<linearGradient id="paint4_linear_128_3391" x1="423.5" y1="259.999" x2="444.844" y2="424.533" gradientUnits="userSpaceOnUse">
<stop stop-color="#5B8DEF"/>
<stop offset="1" stop-color="#0063F7"/>
</linearGradient>
<linearGradient id="paint5_linear_128_3391" x1="429.83" y1="382.074" x2="428.603" y2="319.521" gradientUnits="userSpaceOnUse">
<stop stop-color="#F9E6D9"/>
<stop offset="0.121" stop-color="#FCF1EA"/>
<stop offset="0.2698" stop-color="#FEF9F6"/>
<stop offset="0.4751" stop-color="#FFFEFD"/>
<stop offset="1" stop-color="white"/>
</linearGradient>
<linearGradient id="paint6_linear_128_3391" x1="95.9286" y1="183.843" x2="209.591" y2="290.447" gradientUnits="userSpaceOnUse">
<stop stop-color="#5B8DEF"/>
<stop offset="1" stop-color="#0063F7"/>
</linearGradient>
<linearGradient id="paint7_linear_128_3391" x1="73.4757" y1="164.202" x2="134.676" y2="248.622" gradientUnits="userSpaceOnUse">
<stop stop-color="#5B8DEF"/>
<stop offset="1" stop-color="#0063F7"/>
</linearGradient>
<linearGradient id="paint8_linear_128_3391" x1="43.2513" y1="19.1849" x2="102.785" y2="19.1849" gradientUnits="userSpaceOnUse">
<stop stop-color="#51ADC6"/>
<stop offset="0.0060817" stop-color="#55AFC4"/>
<stop offset="0.0663" stop-color="#74BFB5"/>
<stop offset="0.1333" stop-color="#8FCDA7"/>
<stop offset="0.2102" stop-color="#A5D89D"/>
<stop offset="0.3001" stop-color="#B6E094"/>
<stop offset="0.4112" stop-color="#C1E78E"/>
<stop offset="0.5672" stop-color="#C8EA8B"/>
<stop offset="1" stop-color="#CAEB8A"/>
</linearGradient>
<linearGradient id="paint9_linear_128_3391" x1="46.5617" y1="12.2999" x2="36.928" y2="12.2999" gradientUnits="userSpaceOnUse">
<stop stop-color="#8AEBD6"/>
<stop offset="0.4615" stop-color="#89E9D7"/>
<stop offset="0.6276" stop-color="#84E2DA"/>
<stop offset="0.7461" stop-color="#7DD7DE"/>
<stop offset="0.8419" stop-color="#72C6E5"/>
<stop offset="0.9229" stop-color="#64B0EE"/>
<stop offset="0.9944" stop-color="#5395F9"/>
<stop offset="1" stop-color="#5193FA"/>
</linearGradient>
<linearGradient id="paint10_linear_128_3391" x1="48.3244" y1="18.0668" x2="36.8766" y2="18.0668" gradientUnits="userSpaceOnUse">
<stop stop-color="#31D1D6"/>
<stop offset="0.3733" stop-color="#32CED8"/>
<stop offset="0.6175" stop-color="#36C6DF"/>
<stop offset="0.824" stop-color="#3CB7EB"/>
<stop offset="1" stop-color="#45A3FA"/>
</linearGradient>
<linearGradient id="paint11_linear_128_3391" x1="48.3448" y1="24.7156" x2="37.8194" y2="24.7156" gradientUnits="userSpaceOnUse">
<stop stop-color="#8AEBD6"/>
<stop offset="0.4615" stop-color="#89E9D7"/>
<stop offset="0.6276" stop-color="#84E2DA"/>
<stop offset="0.7461" stop-color="#7DD7DE"/>
<stop offset="0.8419" stop-color="#72C6E5"/>
<stop offset="0.9229" stop-color="#64B0EE"/>
<stop offset="0.9944" stop-color="#5395F9"/>
<stop offset="1" stop-color="#5193FA"/>
</linearGradient>
<linearGradient id="paint12_linear_128_3391" x1="102.785" y1="18.6058" x2="137.795" y2="18.6058" gradientUnits="userSpaceOnUse">
<stop stop-color="#31D1D6"/>
<stop offset="0.3733" stop-color="#32CED8"/>
<stop offset="0.6175" stop-color="#36C6DF"/>
<stop offset="0.824" stop-color="#3CB7EB"/>
<stop offset="1" stop-color="#45A3FA"/>
</linearGradient>
<linearGradient id="paint13_linear_128_3391" x1="87.473" y1="29.5607" x2="104.169" y2="29.5607" gradientUnits="userSpaceOnUse">
<stop stop-color="#F7BE86"/>
<stop offset="0.3293" stop-color="#F7BC83"/>
<stop offset="0.5448" stop-color="#F7B67B"/>
<stop offset="0.7276" stop-color="#F7AC6C"/>
<stop offset="0.8912" stop-color="#F79E57"/>
<stop offset="1" stop-color="#F79244"/>
</linearGradient>
<linearGradient id="paint14_linear_128_3391" x1="180.157" y1="43.7506" x2="184.403" y2="50.697" gradientUnits="userSpaceOnUse">
<stop stop-color="#FF8800"/>
<stop offset="1" stop-color="#E63535"/>
</linearGradient>
<linearGradient id="paint15_linear_128_3391" x1="141.437" y1="52.4142" x2="167.797" y2="110.453" gradientUnits="userSpaceOnUse">
<stop stop-color="#FF8800"/>
<stop offset="1" stop-color="#E63535"/>
</linearGradient>
<linearGradient id="paint16_linear_128_3391" x1="187.117" y1="49.3918" x2="195.699" y2="71.4718" gradientUnits="userSpaceOnUse">
<stop stop-color="#FF8800"/>
<stop offset="1" stop-color="#E63535"/>
</linearGradient>
<linearGradient id="paint17_linear_128_3391" x1="29.9249" y1="48.5044" x2="100.815" y2="187.175" gradientUnits="userSpaceOnUse">
<stop stop-color="#FF8800"/>
<stop offset="1" stop-color="#E63535"/>
</linearGradient>
<linearGradient id="paint18_linear_128_3391" x1="151.186" y1="28.7404" x2="175.458" y2="28.7404" gradientUnits="userSpaceOnUse">
<stop stop-color="#F7BE86"/>
<stop offset="0.3293" stop-color="#F7BC83"/>
<stop offset="0.5448" stop-color="#F7B67B"/>
<stop offset="0.7276" stop-color="#F7AC6C"/>
<stop offset="0.8912" stop-color="#F79E57"/>
<stop offset="1" stop-color="#F79244"/>
</linearGradient>
<linearGradient id="paint19_linear_128_3391" x1="164.144" y1="75.8503" x2="227.244" y2="75.8503" gradientUnits="userSpaceOnUse">
<stop stop-color="#872E08"/>
<stop offset="0.3227" stop-color="#873609"/>
<stop offset="0.5338" stop-color="#874F0E"/>
<stop offset="0.7129" stop-color="#884515"/>
<stop offset="0.8732" stop-color="#89581F"/>
<stop offset="1" stop-color="#8A522A"/>
</linearGradient>
<linearGradient id="paint20_linear_128_3391" x1="179.086" y1="33.9176" x2="210.981" y2="33.9176" gradientUnits="userSpaceOnUse">
<stop stop-color="#F7BE86"/>
<stop offset="0.3293" stop-color="#F7BC83"/>
<stop offset="0.5448" stop-color="#F7B67B"/>
<stop offset="0.7276" stop-color="#F7AC6C"/>
<stop offset="0.8912" stop-color="#F79E57"/>
<stop offset="1" stop-color="#F79244"/>
</linearGradient>
<linearGradient id="paint21_linear_128_3391" x1="-75.9092" y1="406.552" x2="-60.0136" y2="531.272" gradientUnits="userSpaceOnUse">
<stop stop-color="#C4E6FF"/>
<stop offset="1" stop-color="#9DD0FF"/>
</linearGradient>
<linearGradient id="paint22_linear_128_3391" x1="503.717" y1="396.029" x2="503.717" y2="415.656" gradientUnits="userSpaceOnUse">
<stop stop-color="#95C6F3"/>
<stop offset="1" stop-color="#B1DEFF"/>
</linearGradient>
<linearGradient id="paint23_linear_128_3391" x1="283.5" y1="274.999" x2="269.144" y2="414.724" gradientUnits="userSpaceOnUse">
<stop stop-color="#5B8DEF"/>
<stop offset="1" stop-color="#0063F7"/>
</linearGradient>
<linearGradient id="paint24_linear_128_3391" x1="286.086" y1="384.894" x2="284.859" y2="322.34" gradientUnits="userSpaceOnUse">
<stop stop-color="#F9E6D9"/>
<stop offset="0.121" stop-color="#FCF1EA"/>
<stop offset="0.2698" stop-color="#FEF9F6"/>
<stop offset="0.4751" stop-color="#FFFEFD"/>
<stop offset="1" stop-color="white"/>
</linearGradient>
<linearGradient id="paint25_linear_128_3391" x1="344.098" y1="231.043" x2="392.64" y2="231.043" gradientUnits="userSpaceOnUse">
<stop stop-color="#FFC504"/>
<stop offset="0.2528" stop-color="#FFB504"/>
<stop offset="0.7431" stop-color="#F86F11"/>
<stop offset="1" stop-color="#F56617"/>
</linearGradient>
</defs>
</svg>
