<svg width="680" height="307" viewBox="0 0 680 307" fill="none" xmlns="http://www.w3.org/2000/svg">
<g clip-path="url(#clip0_128_3310)">
<path d="M104.816 112.641C133.616 112.641 156.534 120.719 173.568 136.876C190.603 153.034 199.145 175.173 199.145 203.295C199.145 236.581 188.863 262.146 168.35 280.093C147.837 298.039 118.474 306.987 80.313 306.987C47.1647 306.987 20.4107 301.619 0 290.932V236.53C10.7425 242.205 23.2243 246.858 37.4964 250.488C51.7686 254.067 65.2735 255.857 78.0621 255.857C116.479 255.857 135.714 240.109 135.714 208.664C135.714 178.701 115.814 163.72 76.016 163.72C68.8031 163.72 60.8741 164.436 52.1778 165.867C43.4815 167.299 36.4222 168.833 30.9998 170.418L5.93395 156.971L17.1368 4.80664H178.735V58.289H72.384L66.9104 116.884L74.0209 115.453C82.308 113.612 92.5901 112.641 104.816 112.641Z" fill="#F2F2F2"/>
<path d="M441.516 153.749C441.516 205.8 432.974 244.352 415.939 269.406C398.905 294.409 372.611 306.936 337.161 306.936C302.785 306.936 276.849 294 259.406 268.179C241.962 242.358 233.214 204.215 233.214 153.749C233.214 101.136 241.706 62.328 258.689 37.3763C275.673 12.4758 301.813 0 337.161 0C371.537 0 397.523 13.0383 415.121 39.1659C432.718 65.2424 441.516 103.488 441.516 153.749ZM295.828 153.851C295.828 190.41 298.999 216.64 305.291 232.49C311.583 248.34 322.224 256.266 337.161 256.266C351.791 256.266 362.38 248.238 368.928 232.183C375.425 216.128 378.698 190.052 378.698 153.851C378.698 117.293 375.425 91.0121 368.826 75.0594C362.227 59.1067 351.689 51.0793 337.161 51.0793C322.377 51.0793 311.788 59.0556 305.394 75.0594C299.051 91.0121 295.828 117.293 295.828 153.851Z" fill="#F2F2F2"/>
<path d="M680 153.749C680 205.8 671.457 244.352 654.423 269.406C637.388 294.409 611.094 306.936 575.644 306.936C541.268 306.936 515.333 294 497.889 268.179C480.445 242.358 471.698 204.215 471.698 153.749C471.698 101.136 480.189 62.328 497.173 37.3763C514.207 12.4758 540.347 0 575.695 0C610.071 0 636.058 13.0383 653.655 39.1659C671.252 65.2424 680 103.488 680 153.749ZM534.362 153.851C534.362 190.41 537.534 216.64 543.826 232.49C550.118 248.34 560.758 256.266 575.695 256.266C590.326 256.266 600.915 248.238 607.462 232.183C613.959 216.128 617.233 190.052 617.233 153.851C617.233 117.293 613.959 91.0121 607.36 75.0594C600.761 59.1067 590.223 51.0793 575.695 51.0793C560.912 51.0793 550.323 59.0556 543.928 75.0594C537.534 91.0632 534.362 117.293 534.362 153.851Z" fill="#F2F2F2"/>
<path d="M377.471 295.892H322.787C315.216 295.892 308.821 289.705 308.975 282.087C309.077 274.724 315.114 268.793 322.531 268.793H353.07C360.999 268.793 367.649 262.555 367.854 254.63C368.059 246.449 361.46 239.751 353.326 239.751H294.242C293.015 238.677 293.782 237.348 294.805 237.348H353.019C362.483 237.348 370.412 245.119 370.258 254.579C370.105 263.782 362.585 271.196 353.326 271.196H322.736C316.648 271.196 311.533 275.951 311.379 281.984C311.175 288.274 316.239 293.438 322.531 293.438H377.42C378.085 293.438 378.648 293.949 378.699 294.563C378.699 295.329 378.136 295.892 377.471 295.892Z" fill="#1C2B6B"/>
<path d="M380.796 300.596H386.935V288.273H380.796C377.369 288.273 374.657 291.034 374.657 294.409C374.606 297.835 377.369 300.596 380.796 300.596Z" fill="url(#paint0_linear_128_3310)"/>
<path d="M393.074 292.722H390.209C389.544 292.722 389.032 292.211 389.032 291.546C389.032 290.881 389.544 290.37 390.209 290.37H393.074C393.739 290.37 394.25 290.881 394.25 291.546C394.199 292.211 393.687 292.722 393.074 292.722Z" fill="#192B59"/>
<path d="M393.074 298.398H390.209C389.544 298.398 389.032 297.887 389.032 297.222C389.032 296.557 389.544 296.046 390.209 296.046H393.074C393.739 296.046 394.25 296.557 394.25 297.222C394.199 297.887 393.687 298.398 393.074 298.398Z" fill="#192B59"/>
<path d="M387.651 301.772C386.474 301.772 385.502 300.801 385.502 299.625V289.245C385.502 288.069 386.474 287.098 387.651 287.098C388.828 287.098 389.799 288.069 389.799 289.245V299.625C389.799 300.801 388.828 301.772 387.651 301.772Z" fill="url(#paint1_linear_128_3310)"/>
<path d="M290.099 162.339H161.956C156.943 162.339 152.851 158.249 152.851 153.238V132.326C152.851 127.315 156.943 123.225 161.956 123.225H290.048C295.061 123.225 299.153 127.315 299.153 132.326V153.238C299.153 158.249 295.112 162.339 290.099 162.339Z" fill="url(#paint2_linear_128_3310)"/>
<path d="M237.051 162.339H165.895V158.76C165.895 156.102 168.044 153.954 170.704 153.954H232.243C234.903 153.954 237.051 156.102 237.051 158.76V162.339Z" fill="url(#paint3_linear_128_3310)"/>
<path d="M168.76 141.427C170.342 141.427 171.624 140.145 171.624 138.563C171.624 136.982 170.342 135.7 168.76 135.7C167.178 135.7 165.895 136.982 165.895 138.563C165.895 140.145 167.178 141.427 168.76 141.427Z" fill="#20D357"/>
<path d="M177.251 141.427C178.834 141.427 180.116 140.145 180.116 138.563C180.116 136.982 178.834 135.7 177.251 135.7C175.669 135.7 174.387 136.982 174.387 138.563C174.387 140.145 175.669 141.427 177.251 141.427Z" fill="#FFAC00"/>
<path d="M185.743 141.427C187.325 141.427 188.608 140.145 188.608 138.563C188.608 136.982 187.325 135.7 185.743 135.7C184.161 135.7 182.878 136.982 182.878 138.563C182.878 140.145 184.161 141.427 185.743 141.427Z" fill="#E64D4E"/>
<path d="M292.539 139.586C293.104 136.101 290.737 132.818 287.251 132.253C283.765 131.687 280.481 134.054 279.915 137.538C279.349 141.022 281.717 144.305 285.202 144.871C288.688 145.436 291.973 143.07 292.539 139.586Z" fill="#FFAC00"/>
<path d="M275.673 140.865H249.226C248.459 140.865 247.794 140.251 247.794 139.433V137.644C247.794 136.877 248.408 136.212 249.226 136.212H275.673C276.441 136.212 277.106 136.825 277.106 137.644V139.433C277.054 140.2 276.441 140.865 275.673 140.865Z" fill="#FFAC00"/>
<path d="M286.109 162.34H165.895V169.191H286.109V162.34Z" fill="#1C2B6B"/>
<path d="M290.099 208.254H161.956C156.943 208.254 152.851 204.164 152.851 199.153V178.241C152.851 173.23 156.943 169.14 161.956 169.14H290.048C295.061 169.14 299.153 173.23 299.153 178.241V199.153C299.153 204.164 295.112 208.254 290.099 208.254Z" fill="url(#paint4_linear_128_3310)"/>
<path d="M237.051 208.255H165.895V204.675C165.895 202.017 168.044 199.869 170.704 199.869H232.243C234.903 199.869 237.051 202.017 237.051 204.675V208.255Z" fill="url(#paint5_linear_128_3310)"/>
<path d="M171.624 184.479C171.624 186.064 170.345 187.342 168.76 187.342C167.174 187.342 165.895 186.064 165.895 184.479C165.895 182.893 167.174 181.615 168.76 181.615C170.345 181.615 171.624 182.893 171.624 184.479Z" fill="#20D357"/>
<path d="M180.116 184.479C180.116 186.064 178.837 187.342 177.251 187.342C175.666 187.342 174.387 186.064 174.387 184.479C174.387 182.893 175.666 181.615 177.251 181.615C178.837 181.615 180.116 182.893 180.116 184.479Z" fill="#FFAC00"/>
<path d="M188.608 184.479C188.608 186.064 187.329 187.342 185.743 187.342C184.157 187.342 182.878 186.064 182.878 184.479C182.878 182.893 184.157 181.615 185.743 181.615C187.329 181.615 188.608 182.893 188.608 184.479Z" fill="#E64D4E"/>
<path d="M288.669 190.383C291.932 189.033 293.481 185.294 292.13 182.033C290.778 178.771 287.038 177.223 283.775 178.574C280.512 179.924 278.963 183.663 280.314 186.924C281.666 190.186 285.406 191.734 288.669 190.383Z" fill="#FFAC00"/>
<path d="M275.673 186.78H249.226C248.459 186.78 247.794 186.166 247.794 185.348V183.559C247.794 182.792 248.408 182.127 249.226 182.127H275.673C276.441 182.127 277.106 182.741 277.106 183.559V185.348C277.054 186.115 276.441 186.78 275.673 186.78Z" fill="#FFAC00"/>
<path d="M286.109 208.254H165.895V215.105H286.109V208.254Z" fill="#1C2B6B"/>
<path d="M290.099 254.169H161.956C156.943 254.169 152.851 250.079 152.851 245.068V224.156C152.851 219.145 156.943 215.055 161.956 215.055H290.048C295.061 215.055 299.153 219.145 299.153 224.156V245.068C299.153 250.079 295.112 254.169 290.099 254.169Z" fill="url(#paint6_linear_128_3310)"/>
<path d="M237.051 254.17H165.895V250.59C165.895 247.932 168.044 245.784 170.704 245.784H232.243C234.903 245.784 237.051 247.932 237.051 250.59V254.17Z" fill="url(#paint7_linear_128_3310)"/>
<path d="M168.76 233.257C170.342 233.257 171.624 231.975 171.624 230.394C171.624 228.812 170.342 227.53 168.76 227.53C167.178 227.53 165.895 228.812 165.895 230.394C165.895 231.975 167.178 233.257 168.76 233.257Z" fill="#20D357"/>
<path d="M177.251 233.257C178.834 233.257 180.116 231.975 180.116 230.394C180.116 228.812 178.834 227.53 177.251 227.53C175.669 227.53 174.387 228.812 174.387 230.394C174.387 231.975 175.669 233.257 177.251 233.257Z" fill="#FFAC00"/>
<path d="M185.743 233.257C187.325 233.257 188.608 231.975 188.608 230.394C188.608 228.812 187.325 227.53 185.743 227.53C184.161 227.53 182.878 228.812 182.878 230.394C182.878 231.975 184.161 233.257 185.743 233.257Z" fill="#E64D4E"/>
<path d="M286.211 236.786C289.742 236.786 292.605 233.924 292.605 230.394C292.605 226.864 289.742 224.003 286.211 224.003C282.679 224.003 279.816 226.864 279.816 230.394C279.816 233.924 282.679 236.786 286.211 236.786Z" fill="#FFAC00"/>
<path d="M275.673 232.695H249.226C248.459 232.695 247.794 232.081 247.794 231.263V229.474C247.794 228.707 248.408 228.042 249.226 228.042H275.673C276.441 228.042 277.106 228.656 277.106 229.474V231.263C277.054 232.03 276.441 232.695 275.673 232.695Z" fill="#FFAC00"/>
<path d="M286.109 254.17H165.895V261.021H286.109V254.17Z" fill="#1C2B6B"/>
<path d="M290.099 300.084H161.956C156.943 300.084 152.851 295.994 152.851 290.983V270.071C152.851 265.06 156.943 260.97 161.956 260.97H290.048C295.061 260.97 299.153 265.06 299.153 270.071V290.983C299.153 295.994 295.112 300.084 290.099 300.084Z" fill="url(#paint8_linear_128_3310)"/>
<path d="M237.051 300.085H165.895V296.505C165.895 293.847 168.044 291.699 170.704 291.699H232.243C234.903 291.699 237.051 293.847 237.051 296.505V300.085Z" fill="url(#paint9_linear_128_3310)"/>
<path d="M171.624 276.309C171.624 277.894 170.345 279.172 168.76 279.172C167.174 279.172 165.895 277.894 165.895 276.309C165.895 274.724 167.174 273.445 168.76 273.445C170.345 273.445 171.624 274.724 171.624 276.309Z" fill="#20D357"/>
<path d="M180.116 276.309C180.116 277.894 178.837 279.172 177.251 279.172C175.666 279.172 174.387 277.894 174.387 276.309C174.387 274.724 175.666 273.445 177.251 273.445C178.837 273.445 180.116 274.724 180.116 276.309Z" fill="#FFAC00"/>
<path d="M188.608 276.309C188.608 277.894 187.329 279.172 185.743 279.172C184.157 279.172 182.878 277.894 182.878 276.309C182.878 274.724 184.157 273.445 185.743 273.445C187.329 273.445 188.608 274.724 188.608 276.309Z" fill="#E64D4E"/>
<path d="M288.671 282.215C291.934 280.865 293.483 277.126 292.132 273.865C290.78 270.603 287.04 269.055 283.777 270.406C280.514 271.756 278.965 275.495 280.316 278.756C281.668 282.018 285.408 283.566 288.671 282.215Z" fill="#FFAC00"/>
<path d="M275.673 278.61H249.226C248.459 278.61 247.794 277.996 247.794 277.178V275.389C247.794 274.622 248.408 273.957 249.226 273.957H275.673C276.441 273.957 277.106 274.571 277.106 275.389V277.178C277.054 277.945 276.441 278.61 275.673 278.61Z" fill="#FFAC00"/>
<path d="M286.109 300.085H165.895V306.936H286.109V300.085Z" fill="#1C2B6B"/>
<path d="M380.643 234.177H362.534C359.465 234.177 356.958 231.672 356.958 228.604V210.504C356.958 207.436 359.465 204.931 362.534 204.931H380.643C383.712 204.931 386.219 207.436 386.219 210.504V228.604C386.219 231.672 383.712 234.177 380.643 234.177Z" fill="url(#paint10_linear_128_3310)"/>
<path d="M379.169 227.139C383.364 222.946 383.364 216.148 379.169 211.954C374.974 207.761 368.172 207.761 363.977 211.954C359.782 216.148 359.782 222.946 363.977 227.139C368.172 231.332 374.974 231.332 379.169 227.139Z" fill="#1C2B6B"/>
<path d="M370.003 219.554C370.003 220.628 369.133 221.497 368.059 221.497C366.984 221.497 366.115 220.628 366.115 219.554C366.115 218.481 366.984 217.611 368.059 217.611C369.133 217.662 370.003 218.481 370.003 219.554Z" fill="#0B1228"/>
<path d="M377.011 219.554C377.011 220.628 376.141 221.497 375.067 221.497C373.993 221.497 373.123 220.628 373.123 219.554C373.123 218.481 373.993 217.611 375.067 217.611C376.141 217.662 377.011 218.481 377.011 219.554Z" fill="#0B1228"/>
<path d="M492.263 295.483H476.405C472.926 295.483 470.113 292.671 470.113 289.194C470.113 285.717 472.926 282.905 476.405 282.905H492.263C505.051 282.905 515.487 272.474 515.487 259.692V224.872C515.487 221.395 518.3 218.583 521.779 218.583C525.257 218.583 528.071 221.395 528.071 224.872V259.692C528.122 279.377 512.059 295.483 492.263 295.483Z" fill="url(#paint11_linear_128_3310)"/>
<path d="M425.199 302.488H488.068V301.976C488.068 290.216 478.451 280.553 466.634 280.553H446.581C434.816 280.553 425.147 290.165 425.147 301.976V302.488H425.199Z" fill="url(#paint12_radial_128_3310)"/>
<path d="M432.462 302.488H476.097V280.502C476.097 268.538 466.276 258.721 454.305 258.721C442.335 258.721 432.514 268.538 432.514 280.502V302.488H432.462Z" fill="url(#paint13_linear_128_3310)"/>
<path d="M494.206 187.138C496.918 187.138 499.117 189.336 499.117 192.046V234.126H469.345V212.038C469.345 198.284 480.497 187.138 494.206 187.138Z" fill="#F2DAD4"/>
<path d="M422.232 187.138C419.52 187.138 417.321 189.336 417.321 192.046V234.126H447.093V212.038C447.093 198.284 435.941 187.138 422.232 187.138Z" fill="url(#paint14_linear_128_3310)"/>
<path d="M435.736 219.555H428.319C427.654 219.555 427.091 218.992 427.091 218.327V199.92C427.091 199.256 427.654 198.693 428.319 198.693C433.076 198.693 436.964 202.579 436.964 207.334V218.327C436.913 219.043 436.401 219.555 435.736 219.555Z" fill="url(#paint15_linear_128_3310)"/>
<path d="M494.206 187.138C496.918 187.138 499.117 189.336 499.117 192.046V234.126H469.345V212.038C469.345 198.284 480.497 187.138 494.206 187.138Z" fill="url(#paint16_linear_128_3310)"/>
<path d="M480.702 219.555H488.119C488.784 219.555 489.347 218.992 489.347 218.327V199.92C489.347 199.256 488.784 198.693 488.119 198.693C483.362 198.693 479.474 202.579 479.474 207.334V218.327C479.525 219.043 480.037 219.555 480.702 219.555Z" fill="url(#paint17_linear_128_3310)"/>
<path d="M447.758 266.85H468.68C485.51 266.85 499.117 253.249 499.117 236.427C499.117 219.606 485.51 206.005 468.68 206.005H447.758C430.928 206.005 417.321 219.606 417.321 236.427C417.321 253.198 430.928 266.85 447.758 266.85Z" fill="url(#paint18_linear_128_3310)"/>
<path d="M449.241 266.85H466.736C472.159 266.85 476.558 262.453 476.558 257.033C476.558 251.613 472.159 247.216 466.736 247.216H449.241C443.819 247.216 439.419 251.613 439.419 257.033C439.419 262.402 443.819 266.85 449.241 266.85Z" fill="#E28D91"/>
<path d="M451.595 257.34C452.311 256.42 453.641 256.266 454.562 256.982C455.124 257.442 455.841 257.749 456.659 257.902V255.09C456.199 254.835 455.789 254.477 455.482 253.965L454.05 251.46C452.925 249.466 454.357 247.012 456.659 247.012H459.524C461.826 247.012 463.258 249.517 462.133 251.46L460.7 253.965C460.393 254.477 459.984 254.886 459.524 255.09V257.954C460.342 257.8 461.058 257.493 461.672 257.084C462.593 256.42 463.923 256.573 464.588 257.545C465.253 258.465 465.099 259.794 464.128 260.459C462.491 261.686 460.496 262.3 458.194 262.3C455.841 262.3 453.743 261.584 452.055 260.306C451.032 259.59 450.879 258.26 451.595 257.34Z" fill="#192B59"/>
<path d="M446.53 302.488H461.263C461.263 298.448 457.989 295.125 453.897 295.125C449.804 295.125 446.53 298.397 446.53 302.488Z" fill="#192B59"/>
<path d="M427.859 302.488H442.591C442.591 298.448 439.317 295.125 435.225 295.125C431.184 295.125 427.859 298.397 427.859 302.488Z" fill="#192B59"/>
<path d="M475.842 244.966C478.61 244.966 480.855 242.723 480.855 239.955C480.855 237.188 478.61 234.944 475.842 234.944C473.073 234.944 470.829 237.188 470.829 239.955C470.829 242.723 473.073 244.966 475.842 244.966Z" fill="#192B59"/>
<path d="M440.136 244.966C442.904 244.966 445.149 242.723 445.149 239.955C445.149 237.188 442.904 234.944 440.136 234.944C437.367 234.944 435.123 237.188 435.123 239.955C435.123 242.723 437.367 244.966 440.136 244.966Z" fill="#192B59"/>
</g>
<defs>
<linearGradient id="paint0_linear_128_3310" x1="374.627" y1="294.412" x2="386.955" y2="294.412" gradientUnits="userSpaceOnUse">
<stop stop-color="#4E9CFF"/>
<stop offset="0.193" stop-color="#4190F5"/>
<stop offset="0.7095" stop-color="#2274DD"/>
<stop offset="1" stop-color="#176AD4"/>
</linearGradient>
<linearGradient id="paint1_linear_128_3310" x1="385.489" y1="294.412" x2="392.777" y2="294.412" gradientUnits="userSpaceOnUse">
<stop stop-color="#4E9CFF"/>
<stop offset="0.193" stop-color="#4190F5"/>
<stop offset="0.7095" stop-color="#2274DD"/>
<stop offset="1" stop-color="#176AD4"/>
</linearGradient>
<linearGradient id="paint2_linear_128_3310" x1="152.89" y1="142.796" x2="299.165" y2="142.796" gradientUnits="userSpaceOnUse">
<stop stop-color="#4E9CFF"/>
<stop offset="0.193" stop-color="#4190F5"/>
<stop offset="0.7095" stop-color="#2274DD"/>
<stop offset="1" stop-color="#176AD4"/>
</linearGradient>
<linearGradient id="paint3_linear_128_3310" x1="201.486" y1="165.192" x2="201.486" y2="153.611" gradientUnits="userSpaceOnUse">
<stop stop-color="#E5E5E5"/>
<stop offset="0.4764" stop-color="#F4F4F4"/>
<stop offset="1" stop-color="white"/>
</linearGradient>
<linearGradient id="paint4_linear_128_3310" x1="152.89" y1="188.711" x2="299.165" y2="188.711" gradientUnits="userSpaceOnUse">
<stop stop-color="#4E9CFF"/>
<stop offset="0.193" stop-color="#4190F5"/>
<stop offset="0.7095" stop-color="#2274DD"/>
<stop offset="1" stop-color="#176AD4"/>
</linearGradient>
<linearGradient id="paint5_linear_128_3310" x1="201.486" y1="211.108" x2="201.486" y2="199.526" gradientUnits="userSpaceOnUse">
<stop stop-color="#E5E5E5"/>
<stop offset="0.4764" stop-color="#F4F4F4"/>
<stop offset="1" stop-color="white"/>
</linearGradient>
<linearGradient id="paint6_linear_128_3310" x1="152.89" y1="234.627" x2="299.165" y2="234.627" gradientUnits="userSpaceOnUse">
<stop stop-color="#4E9CFF"/>
<stop offset="0.193" stop-color="#4190F5"/>
<stop offset="0.7095" stop-color="#2274DD"/>
<stop offset="1" stop-color="#176AD4"/>
</linearGradient>
<linearGradient id="paint7_linear_128_3310" x1="201.486" y1="257.023" x2="201.486" y2="245.441" gradientUnits="userSpaceOnUse">
<stop stop-color="#E5E5E5"/>
<stop offset="0.4764" stop-color="#F4F4F4"/>
<stop offset="1" stop-color="white"/>
</linearGradient>
<linearGradient id="paint8_linear_128_3310" x1="152.89" y1="280.542" x2="299.165" y2="280.542" gradientUnits="userSpaceOnUse">
<stop stop-color="#4E9CFF"/>
<stop offset="0.193" stop-color="#4190F5"/>
<stop offset="0.7095" stop-color="#2274DD"/>
<stop offset="1" stop-color="#176AD4"/>
</linearGradient>
<linearGradient id="paint9_linear_128_3310" x1="201.486" y1="302.938" x2="201.486" y2="291.356" gradientUnits="userSpaceOnUse">
<stop stop-color="#E5E5E5"/>
<stop offset="0.4764" stop-color="#F4F4F4"/>
<stop offset="1" stop-color="white"/>
</linearGradient>
<linearGradient id="paint10_linear_128_3310" x1="363.861" y1="213.344" x2="387.095" y2="232.102" gradientUnits="userSpaceOnUse">
<stop stop-color="#4E9CFF"/>
<stop offset="0.193" stop-color="#4190F5"/>
<stop offset="0.7095" stop-color="#2274DD"/>
<stop offset="1" stop-color="#176AD4"/>
</linearGradient>
<linearGradient id="paint11_linear_128_3310" x1="470.128" y1="256.995" x2="528.123" y2="256.995" gradientUnits="userSpaceOnUse">
<stop stop-color="#A50404"/>
<stop offset="1" stop-color="#E64D4E"/>
</linearGradient>
<radialGradient id="paint12_radial_128_3310" cx="0" cy="0" r="1" gradientUnits="userSpaceOnUse" gradientTransform="translate(453.848 292.06) rotate(180) scale(33.0079 18.832)">
<stop offset="0.2058" stop-color="#A50404"/>
<stop offset="1" stop-color="#E64D4E"/>
</radialGradient>
<linearGradient id="paint13_linear_128_3310" x1="411.906" y1="264.711" x2="446.905" y2="316.39" gradientUnits="userSpaceOnUse">
<stop stop-color="#FF8800"/>
<stop offset="1" stop-color="#E63535"/>
</linearGradient>
<linearGradient id="paint14_linear_128_3310" x1="403.295" y1="193.569" x2="443.678" y2="231.465" gradientUnits="userSpaceOnUse">
<stop stop-color="#FF8800"/>
<stop offset="1" stop-color="#E63535"/>
</linearGradient>
<linearGradient id="paint15_linear_128_3310" x1="436.262" y1="223.841" x2="425.831" y2="195.248" gradientUnits="userSpaceOnUse">
<stop stop-color="#A50404"/>
<stop offset="1" stop-color="#E64D4E"/>
</linearGradient>
<linearGradient id="paint16_linear_128_3310" x1="455.32" y1="193.569" x2="495.703" y2="231.465" gradientUnits="userSpaceOnUse">
<stop stop-color="#FF8800"/>
<stop offset="1" stop-color="#E63535"/>
</linearGradient>
<linearGradient id="paint17_linear_128_3310" x1="483.87" y1="216.42" x2="486.727" y2="196.836" gradientUnits="userSpaceOnUse">
<stop stop-color="#A50404"/>
<stop offset="1" stop-color="#E64D4E"/>
</linearGradient>
<linearGradient id="paint18_linear_128_3310" x1="378.787" y1="214.332" x2="420.817" y2="298.017" gradientUnits="userSpaceOnUse">
<stop stop-color="#FF8800"/>
<stop offset="1" stop-color="#E63535"/>
</linearGradient>
<clipPath id="clip0_128_3310">
<rect width="680" height="306.936" fill="white"/>
</clipPath>
</defs>
</svg>
