<svg width="60" height="60" viewBox="0 0 60 60" fill="none" xmlns="http://www.w3.org/2000/svg">
<path d="M10.3448 18.6207H20.6897L31.0345 4.13794H19.6552L9.31036 18.6207H10.3448Z" fill="#FF6243"/>
<path d="M58.9655 4.13794H57.931L47.5862 18.6207H58.9655C59.5368 18.6207 60 18.1575 60 17.5862V5.17242C60 4.60113 59.5368 4.13794 58.9655 4.13794Z" fill="#FF6243"/>
<path d="M39.3103 18.6207L49.6552 4.13794H39.3103L28.9655 18.6207H39.3103Z" fill="#FF6243"/>
<path d="M10.3448 4.13794H1.03448C0.463194 4.13794 0 4.60113 0 5.17242V17.5862C0 18.1575 0.463194 18.6207 1.03448 18.6207L11.3793 4.13794H10.3448Z" fill="#FF6243"/>
<path d="M49.6551 39.3104H58.9655C59.5368 39.3104 60 38.8472 60 38.2759V25.8621C60 25.2908 59.5368 24.8276 58.9655 24.8276H57.931L47.5862 39.3104H49.6551Z" fill="#FF6243"/>
<path d="M19.6552 24.8276L9.31036 39.3104H20.6897L31.0345 24.8276H19.6552Z" fill="#FF6243"/>
<path d="M39.3103 24.8276L28.9655 39.3104H39.3103L49.6552 24.8276H39.3103Z" fill="#FF6243"/>
<path d="M10.3448 24.8276H1.03448C0.463194 24.8276 0 25.2908 0 25.8621V38.2759C0 38.8472 0.463194 39.3104 1.03448 39.3104L11.3793 24.8276H10.3448Z" fill="#FF6243"/>
<path d="M10.3448 1.03448C10.3448 0.463194 9.88165 0 9.31036 0H7.24139C6.6701 0 6.20691 0.463194 6.20691 1.03448V4.13793H10.3448V1.03448Z" fill="#898890"/>
<path d="M10.3448 18.6206H6.20691V24.8275H10.3448V18.6206Z" fill="#898890"/>
<path d="M6.20691 39.3103V55.862H10.3448V39.3103H6.20691Z" fill="#898890"/>
<path d="M3.10345 55.8621C2.53216 55.8621 2.06897 56.3253 2.06897 56.8965V58.9655C2.06897 59.5368 2.53216 60 3.10345 60H13.4483C14.0196 60 14.4828 59.5368 14.4828 58.9655V56.8965C14.4828 56.3253 14.0196 55.8621 13.4483 55.8621H3.10345Z" fill="#787680"/>
<path d="M53.7931 1.03448C53.7931 0.463194 53.3299 0 52.7586 0H50.6896C50.1183 0 49.6552 0.463194 49.6552 1.03448V4.13793H53.7931V1.03448Z" fill="#898890"/>
<path d="M49.6552 18.6206H53.7931V24.8275H49.6552V18.6206Z" fill="#898890"/>
<path d="M49.6552 39.3103H53.7931V55.862H49.6552V39.3103Z" fill="#898890"/>
<path d="M46.5517 55.8621C45.9804 55.8621 45.5172 56.3253 45.5172 56.8965V58.9655C45.5172 59.5368 45.9804 60 46.5517 60H56.8965C57.4678 60 57.931 59.5368 57.931 58.9655V56.8965C57.931 56.3253 57.4678 55.8621 56.8965 55.8621H46.5517Z" fill="#787680"/>
<path d="M19.6552 4.13794H11.3793L1.03448 18.6207H9.31035L19.6552 4.13794Z" fill="#D8D7DA"/>
<path d="M28.9655 18.6207L39.3103 4.13794H31.0345L20.6896 18.6207H28.9655Z" fill="#D8D7DA"/>
<path d="M47.5862 18.6207L57.931 4.13794H49.6552L39.3104 18.6207H47.5862Z" fill="#D8D7DA"/>
<path d="M19.6552 24.8276H11.3793L1.03448 39.3104H9.31035L19.6552 24.8276Z" fill="#D8D7DA"/>
<path d="M31.0345 24.8276L20.6896 39.3104H28.9655L39.3103 24.8276H31.0345Z" fill="#D8D7DA"/>
<path d="M39.3104 39.3104H47.5862L57.931 24.8276H49.6552L39.3104 39.3104Z" fill="#D8D7DA"/>
<path d="M6.20691 18.6206H10.3448V21.7241H6.20691V18.6206Z" fill="#787680"/>
<path d="M49.6552 18.6206H53.7931V21.7241H49.6552V18.6206Z" fill="#787680"/>
<path d="M6.20691 39.3103H10.3448V42.4137H6.20691V39.3103Z" fill="#787680"/>
<path d="M49.6552 39.3103H53.7931V42.4137H49.6552V39.3103Z" fill="#787680"/>
</svg>
