<svg width="14" height="14" viewBox="0 0 14 14" fill="none" xmlns="http://www.w3.org/2000/svg">
<path opacity="0.8" d="M14 1.5C14 0.6875 13.3125 0 12.5 0H1.5C0.65625 0 0 0.6875 0 1.5V12.5C0 13.3438 0.65625 14 1.5 14H12.5C13.3125 14 14 13.3438 14 12.5V1.5ZM12 3V7.125C12 7.53125 11.6562 7.84375 11.25 7.84375H10.7812C10.375 7.84375 10.0625 7.5 10.0625 7.09375L10.125 5.34375L3.6875 11.8438C3.4375 12.0625 3.03125 12.0625 2.78125 11.8438L2.15625 11.2188C1.9375 10.9688 1.9375 10.5625 2.15625 10.3125L8.65625 3.875L6.90625 3.9375C6.5 3.9375 6.15625 3.625 6.15625 3.21875V2.75C6.15625 2.34375 6.46875 2 6.875 2H11C11.5625 2 12 2.4375 12 3Z" fill="white"/>
</svg>
