<svg width="78" height="36" viewBox="0 0 78 36" fill="none" xmlns="http://www.w3.org/2000/svg">
<g filter="url(#filter0_d_4966_25599)">
<circle cx="18" cy="15" r="13" fill="white"/>
<circle cx="18" cy="15" r="12.5" stroke="#95BF47"/>
</g>
<path d="M22.8265 10.7379C22.8265 10.6532 22.77 10.625 22.6852 10.625C22.6286 10.625 21.6393 10.5968 21.6393 10.5968C21.6393 10.5968 21.0456 10.004 20.8195 9.77823V22L24.3529 21.0968C24.3529 21.0968 22.8265 10.7944 22.8265 10.7379ZM19.9997 9.77823C19.9715 9.6371 19.8584 9.41129 19.8019 9.27016C19.5192 8.70565 19.0669 8.39516 18.5581 8.39516C18.5298 8.39516 18.5298 8.39516 18.5298 8.39516C18.5015 8.39516 18.445 8.42339 18.445 8.42339C18.4167 8.39516 18.3885 8.39516 18.3885 8.36694C18.1623 8.1129 17.8797 8 17.5122 8C16.8338 8.02823 16.1553 8.50806 15.6183 9.38306C15.2225 10.004 14.9398 10.7661 14.855 11.3589C14.0635 11.6129 13.5265 11.7823 13.5265 11.7823C13.1307 11.9234 13.1024 11.9234 13.0742 12.2903C13.0459 12.5726 12 20.5323 12 20.5323L20.5368 22V9.6371C20.5085 9.6371 20.452 9.6371 20.4237 9.66532C20.3955 9.66532 20.2541 9.69355 19.9997 9.77823ZM18.445 10.2581C17.9927 10.3992 17.4839 10.5685 17.0034 10.7097C17.1447 10.1734 17.3991 9.6371 17.7383 9.29839C17.8514 9.15726 18.021 9.01613 18.2189 8.93145C18.4167 9.32661 18.445 9.89113 18.445 10.2581ZM17.5122 8.47984H17.5405C17.6535 8.47984 17.8231 8.53629 17.9362 8.56452C17.7383 8.67742 17.5687 8.81855 17.3991 8.9879C16.9468 9.43952 16.6359 10.1734 16.4945 10.8508C16.0988 10.9919 15.6748 11.1048 15.3073 11.2177C15.5617 10.1452 16.4663 8.50806 17.5122 8.47984ZM16.2119 14.6895C16.2401 15.4234 18.1623 15.5645 18.2754 17.2863C18.3602 18.6129 17.5687 19.5444 16.4097 19.6008C15.0246 19.6855 14.2897 18.8952 14.2897 18.8952L14.5724 17.6532C14.5724 17.6532 15.3356 18.2177 15.9292 18.1613C16.3249 18.1613 16.4945 17.8226 16.4663 17.5968C16.4097 16.6371 14.855 16.6935 14.742 15.1411C14.6572 13.8427 15.5335 12.5161 17.4274 12.375C18.1623 12.3468 18.5298 12.5161 18.5298 12.5161L18.1058 14.1532C18.1058 14.1532 17.6253 13.9274 17.0316 13.9556C16.2119 14.0121 16.1836 14.5484 16.2119 14.6895ZM18.8973 10.1169C18.8973 9.77823 18.8408 9.29839 18.6994 8.90323C19.2082 8.9879 19.4626 9.58065 19.5757 9.91935C19.3778 9.97581 19.1517 10.0605 18.8973 10.1169Z" fill="#95BF47"/>
<g filter="url(#filter1_d_4966_25599)">
<circle cx="60" cy="15" r="13" fill="white"/>
<circle cx="60" cy="15" r="12.5" stroke="#5B86E5"/>
</g>
<g clip-path="url(#clip0_4966_25599)">
<path d="M65.8656 13.3874C64.8787 11.5013 63.7291 9.11329 63.4745 8.07647C63.3984 7.77039 63.4036 7.5167 63.674 7.28231C63.9049 7.07826 64.191 7.08929 64.3538 7.19683C64.59 7.36228 64.5375 7.72351 64.4824 7.92205C64.4115 8.19505 64.2934 8.27226 64.2015 8.31362L64.5952 9.35595C64.9076 9.22635 65.3223 8.92027 65.5112 8.22262C65.7317 7.38986 65.5165 6.6536 64.9338 6.25653C64.3564 5.85945 63.5585 5.92838 62.9915 6.41646C62.6031 6.75012 62.1936 7.35677 62.4351 8.35498C62.7737 9.75028 64.2855 12.7201 64.9233 13.9251C64.9286 13.9306 64.9286 13.9417 64.9233 13.9472L61.7133 21.8612C61.7081 21.8722 61.6923 21.8833 61.6766 21.8778L56.086 19.3712C56.0703 19.3657 56.065 19.3491 56.0703 19.3326L59.296 11.3993C59.296 11.3937 59.3013 11.3882 59.3118 11.3827L62.4456 10.3569L62.128 9.29253L58.9837 10.3183L58.9732 10.3238C58.6766 10.4259 58.4404 10.6575 58.3144 10.9581L55.0887 18.8914C54.8524 19.476 55.1097 20.1488 55.6661 20.3997L61.2593 22.9118C61.3984 22.9752 61.5454 23.0028 61.6897 23.0028C61.8288 23.0028 61.9653 22.9752 62.0992 22.9173C62.3695 22.8043 62.5847 22.5837 62.6976 22.2996L65.9128 14.3884C66.044 14.0685 66.0283 13.699 65.8656 13.3874Z" fill="#5B86E5"/>
<path d="M61.4144 18.1964C61.0653 18.5383 60.7976 18.4528 60.5115 18.3232L59.6585 17.9427C59.3724 17.8159 59.2832 17.6339 59.3882 17.3747L59.9446 16.0042C59.9446 16.0042 60.5693 16.2827 60.7792 16.3985C60.9341 16.4812 61.0128 16.575 60.9682 16.8314L60.9105 17.1761L61.1572 17.2864L61.459 16.4923L61.816 15.7146L61.5693 15.6043L61.3488 15.9159C61.2044 16.12 61.1519 16.1476 60.921 16.0731C60.6585 15.9904 60.0679 15.7202 60.0653 15.7174L60.7215 14.0987C60.7451 14.0381 60.7661 14.005 60.8632 14.0491L62.1729 14.6365C62.4013 14.7385 62.4459 15.0004 62.3803 15.4251L62.3304 15.7643L62.5535 15.8635C62.9472 15.0087 63.1362 14.6475 63.1362 14.6475C63.1362 14.6475 62.5483 14.4627 62.2176 14.3138L60.5404 13.5638L59.6532 13.1309L59.5509 13.3845L59.8291 13.5803C60.0233 13.7182 60.0548 13.7871 59.9892 13.9995C59.9892 13.9995 59.7635 14.6089 59.3593 15.6016C58.9577 16.5943 58.6979 17.1816 58.6979 17.1816C58.6244 17.3609 58.5299 17.3967 58.3015 17.3443L57.9735 17.2699L57.8711 17.5236L58.7819 17.8958L60.2805 18.5659C60.6191 18.7176 61.3908 19.0981 61.3908 19.0981C61.4958 18.8885 62.0076 17.9592 62.068 17.86L61.8554 17.7662L61.4144 18.1964Z" fill="#5B86E5"/>
</g>
<line x1="34" y1="15" x2="41" y2="15" stroke="#828282" stroke-width="2"/>
<path d="M41.5 13.4964L43.2362 15L41.5 16.5036L41.5 13.4964Z" fill="#828282" stroke="#828282"/>
<defs>
<filter id="filter0_d_4966_25599" x="0" y="0" width="36" height="36" filterUnits="userSpaceOnUse" color-interpolation-filters="sRGB">
<feFlood flood-opacity="0" result="BackgroundImageFix"/>
<feColorMatrix in="SourceAlpha" type="matrix" values="0 0 0 0 0 0 0 0 0 0 0 0 0 0 0 0 0 0 127 0" result="hardAlpha"/>
<feOffset dy="3"/>
<feGaussianBlur stdDeviation="2.5"/>
<feColorMatrix type="matrix" values="0 0 0 0 0 0 0 0 0 0 0 0 0 0 0 0 0 0 0.03 0"/>
<feBlend mode="normal" in2="BackgroundImageFix" result="effect1_dropShadow_4966_25599"/>
<feBlend mode="normal" in="SourceGraphic" in2="effect1_dropShadow_4966_25599" result="shape"/>
</filter>
<filter id="filter1_d_4966_25599" x="42" y="0" width="36" height="36" filterUnits="userSpaceOnUse" color-interpolation-filters="sRGB">
<feFlood flood-opacity="0" result="BackgroundImageFix"/>
<feColorMatrix in="SourceAlpha" type="matrix" values="0 0 0 0 0 0 0 0 0 0 0 0 0 0 0 0 0 0 127 0" result="hardAlpha"/>
<feOffset dy="3"/>
<feGaussianBlur stdDeviation="2.5"/>
<feColorMatrix type="matrix" values="0 0 0 0 0 0 0 0 0 0 0 0 0 0 0 0 0 0 0.03 0"/>
<feBlend mode="normal" in2="BackgroundImageFix" result="effect1_dropShadow_4966_25599"/>
<feBlend mode="normal" in="SourceGraphic" in2="effect1_dropShadow_4966_25599" result="shape"/>
</filter>
<clipPath id="clip0_4966_25599">
<rect width="11" height="17" fill="white" transform="translate(55 6)"/>
</clipPath>
</defs>
</svg>
