<svg width="26" height="24" viewBox="0 0 26 24" fill="none" xmlns="http://www.w3.org/2000/svg">
<path d="M22.75 4.125H13.8125L11.4766 1.83984C10.8672 1.23047 10.0547 0.875 9.19141 0.875H3.25C1.42188 0.875 0 2.34766 0 4.125V20.375C0 22.2031 1.42188 23.625 3.25 23.625H22.75C24.5273 23.625 26 22.2031 26 20.375V7.375C26 5.59766 24.5273 4.125 22.75 4.125ZM24.375 20.375C24.375 21.2891 23.6133 22 22.75 22H3.25C2.33594 22 1.625 21.2891 1.625 20.375V4.125C1.625 3.26172 2.33594 2.5 3.25 2.5H9.19141C9.64844 2.5 10.0547 2.70312 10.3594 3.00781L13.1016 5.75H22.75C23.6133 5.75 24.375 6.51172 24.375 7.375V20.375ZM16.1484 15.9062C16.707 15.0938 17.0625 14.1289 17.0625 13.0625C17.0625 10.4219 14.8281 8.1875 12.1875 8.1875C9.49609 8.1875 7.3125 10.4219 7.3125 13.0625C7.3125 15.7539 9.49609 17.9375 12.1875 17.9375C13.2031 17.9375 14.168 17.6328 14.9805 17.0742L18.0781 20.1719C18.2305 20.3242 18.4336 20.375 18.6875 20.375C18.8906 20.375 19.0938 20.3242 19.2461 20.1719C19.5508 19.8672 19.5508 19.3086 19.2461 19.0039L16.1484 15.9062ZM12.1875 16.3125C10.3594 16.3125 8.9375 14.8906 8.9375 13.0625C8.9375 11.2852 10.3594 9.8125 12.1875 9.8125C13.9648 9.8125 15.4375 11.2852 15.4375 13.0625C15.4375 14.8906 13.9648 16.3125 12.1875 16.3125Z" fill="#4F4F4F"/>
</svg>
