<svg width="40" height="40" viewBox="0 0 40 40" fill="none" xmlns="http://www.w3.org/2000/svg">
<path d="M37.3156 0H2.68432C1.20422 0 0 1.20422 0 2.68462V37.3119C0 38.7923 1.20422 39.9965 2.68432 39.9965H37.3156C38.7957 39.9965 39.9999 38.7923 39.9999 37.3119V2.68462C39.9999 1.20422 38.7957 0 37.3156 0V0ZM38.8281 2.68462V3.19793H19.0557C18.5058 3.19793 18.0587 2.74352 18.0587 2.18475C18.0587 1.81945 17.9687 1.47491 17.8106 1.17187H37.3156C38.1496 1.17187 38.8281 1.85028 38.8281 2.68462ZM15.8902 1.17187C16.4398 1.17187 16.8872 1.62628 16.8872 2.18475C16.8872 3.38958 17.8598 4.3698 19.0557 4.3698H38.8284V6.09618H1.17187V4.3698H6.86156C8.05754 4.3698 9.03013 3.38958 9.03013 2.18475C9.03013 1.62628 9.47752 1.17187 10.0271 1.17187H15.8902ZM2.68432 1.17187H8.10667C7.94859 1.47491 7.85857 1.81945 7.85857 2.18475C7.85857 2.74352 7.41118 3.19793 6.86156 3.19793H1.17187V2.68462C1.17187 1.85028 1.85028 1.17187 2.68432 1.17187ZM37.3156 38.8247H2.68432C1.85028 38.8247 1.17187 38.1463 1.17187 37.3119V7.26774H38.8281V37.3119C38.8281 38.1463 38.1496 38.8247 37.3156 38.8247Z" fill="#555770"/>
<path d="M36.6225 23.5967H23.7621C23.2762 23.5967 22.8813 23.9919 22.8813 24.4774V36.6545C22.8813 37.1401 23.2762 37.535 23.7621 37.535H25.5461C25.8696 37.535 26.1321 37.2728 26.1321 36.949C26.1321 36.6255 25.8696 36.3634 25.5461 36.3634H24.0532V24.7686H36.3314V36.3634H28.2601C27.9366 36.3634 27.6741 36.6255 27.6741 36.949C27.6741 37.2728 27.9366 37.535 28.2601 37.535H36.6225C37.108 37.535 37.5029 37.1401 37.5029 36.6545V24.4774C37.5029 23.9919 37.108 23.5967 36.6225 23.5967Z" fill="#555770"/>
<path d="M3.78424 21.8926H29.4489C29.7724 21.8926 30.0345 21.6304 30.0345 21.3069C30.0345 20.9832 29.7724 20.721 29.4489 20.721H3.9292V10.1079H36.3102V20.721H32.2815C31.9581 20.721 31.6956 20.9832 31.6956 21.3069C31.6956 21.6304 31.9581 21.8926 32.2815 21.8926H36.4548C37.0212 21.8926 37.4817 21.4321 37.4817 20.866V9.96295C37.4817 9.39655 37.0212 8.93604 36.4548 8.93604H3.78424C3.21814 8.93604 2.75732 9.39655 2.75732 9.96295V20.866C2.75732 21.4321 3.21814 21.8926 3.78424 21.8926Z" fill="#555770"/>
<path d="M29.2015 35.0759C29.2418 35.2214 29.3697 35.2944 29.5858 35.2944C29.7615 35.2944 29.9309 35.2465 30.0942 35.1509C30.2574 35.0557 30.3389 34.9428 30.3389 34.8119C30.3389 34.7969 30.334 34.7695 30.324 34.7292L28.9153 30.1332C28.875 30.0078 28.7834 29.9111 28.6403 29.8433C28.4972 29.7756 28.3327 29.7417 28.1469 29.7417C27.961 29.7417 27.7968 29.7756 27.6537 29.8433C27.5106 29.9111 27.4187 30.0078 27.3787 30.1332L25.9777 34.7292C25.9676 34.7695 25.9624 34.7969 25.9624 34.8119C25.9624 34.9428 26.0442 35.0557 26.2075 35.1509C26.3704 35.2465 26.5398 35.2944 26.7159 35.2944C26.9316 35.2944 27.0595 35.2214 27.0998 35.0759L27.3561 34.1338H28.9455L29.2015 35.0759ZM27.5972 33.2299L28.1472 31.2108L28.6971 33.2299H27.5972Z" fill="#555770"/>
<path d="M31.288 29.7871C31.1375 29.7871 31.0142 29.8222 30.919 29.8924C30.8235 29.9629 30.7759 30.0459 30.7759 30.1411V34.9403C30.7759 35.0358 30.8235 35.1188 30.919 35.189C31.0142 35.2595 31.1375 35.2946 31.288 35.2946H32.6213C33.1837 35.2946 33.6332 35.1512 33.9695 34.8649C34.3062 34.5787 34.4743 34.1295 34.4743 33.5164V31.5651C34.4743 30.9523 34.3062 30.5027 33.9695 30.2165C33.6332 29.9302 33.1837 29.7871 32.6213 29.7871H31.288ZM33.2994 31.5651V33.5164C33.2994 34.0187 33.0732 34.2698 32.6213 34.2698H31.9511V30.8116H32.6213C33.0732 30.8116 33.2994 31.0627 33.2994 31.5651Z" fill="#555770"/>
<path d="M32.8943 28.0095C33.0088 28.1239 33.1586 28.181 33.3084 28.181C33.4586 28.181 33.6084 28.1239 33.7229 28.0095L33.9945 27.7379L34.2661 28.0095C34.3802 28.1239 34.5304 28.181 34.6802 28.181C34.8304 28.181 34.9802 28.1239 35.0946 28.0095C35.3235 27.7806 35.3235 27.4098 35.0946 27.1809L34.823 26.9093L35.0946 26.6374C35.3235 26.4085 35.3235 26.0378 35.0946 25.8089C34.8658 25.58 34.4947 25.58 34.2661 25.8089L33.9945 26.0805L33.7229 25.8089C33.4943 25.5803 33.1232 25.58 32.8943 25.8089C32.6657 26.0378 32.6654 26.4085 32.8943 26.6374L33.1662 26.9093L32.8943 27.1809C32.6654 27.4098 32.6654 27.7806 32.8943 28.0095Z" fill="#555770"/>
<path d="M30.1439 14.355C30.1439 14.0315 29.8815 13.769 29.558 13.769H10.6816C10.3582 13.769 10.0957 14.0315 10.0957 14.355C10.0957 14.6785 10.3582 14.9409 10.6816 14.9409H29.558C29.8815 14.9409 30.1439 14.6788 30.1439 14.355Z" fill="#555770"/>
<path d="M15.069 16.3555C14.7455 16.3555 14.4834 16.6179 14.4834 16.9414C14.4834 17.2649 14.7455 17.5273 15.069 17.5273H25.1707C25.4941 17.5273 25.7566 17.2649 25.7566 16.9414C25.7566 16.6179 25.4941 16.3555 25.1707 16.3555H15.069Z" fill="#555770"/>
<path d="M2.76562 25.2081C2.76562 26.2658 3.62592 27.1261 4.68335 27.1261C5.74078 27.1261 6.60107 26.2658 6.60107 25.2081C6.60107 24.1503 5.74078 23.29 4.68335 23.29C3.62592 23.29 2.76562 24.1506 2.76562 25.2081ZM5.4295 25.2081C5.4295 25.6194 5.09473 25.9542 4.68335 25.9542C4.27228 25.9542 3.9375 25.6194 3.9375 25.2081C3.9375 24.7967 4.27228 24.4619 4.68335 24.4619C5.09473 24.4619 5.4295 24.7967 5.4295 25.2081Z" fill="#555770"/>
<path d="M14.5533 24.0718C14.5533 23.7483 14.2908 23.4858 13.9673 23.4858H8.24805C7.92456 23.4858 7.66211 23.7483 7.66211 24.0718C7.66211 24.3953 7.92456 24.6577 8.24805 24.6577H13.9673C14.2908 24.6577 14.5533 24.3953 14.5533 24.0718Z" fill="#555770"/>
<path d="M8.24805 25.6016C7.92456 25.6016 7.66211 25.864 7.66211 26.1875C7.66211 26.511 7.92456 26.7734 8.24805 26.7734H10.0501C10.3736 26.7734 10.636 26.511 10.636 26.1875C10.636 25.864 10.3736 25.6016 10.0501 25.6016H8.24805Z" fill="#555770"/>
<path d="M20.8015 29.2061H3.30762C2.98413 29.2061 2.72168 29.4685 2.72168 29.792C2.72168 30.1155 2.98413 30.3779 3.30762 30.3779H20.8015C21.125 30.3779 21.3875 30.1155 21.3875 29.792C21.3875 29.4685 21.125 29.2061 20.8015 29.2061Z" fill="#555770"/>
<path d="M20.8015 32.2427H3.30762C2.98413 32.2427 2.72168 32.5051 2.72168 32.8286C2.72168 33.1521 2.98413 33.4146 3.30762 33.4146H20.8015C21.125 33.4146 21.3875 33.1521 21.3875 32.8286C21.3875 32.5051 21.125 32.2427 20.8015 32.2427Z" fill="#555770"/>
<path d="M15.7875 35.2793H3.30762C2.98413 35.2793 2.72168 35.5417 2.72168 35.8652C2.72168 36.1887 2.98413 36.4512 3.30762 36.4512H15.7875C16.111 36.4512 16.3731 36.1887 16.3731 35.8652C16.3731 35.5417 16.111 35.2793 15.7875 35.2793Z" fill="#555770"/>
</svg>
