<svg width="80" height="80" viewBox="0 0 80 80" fill="none" xmlns="http://www.w3.org/2000/svg">
<path d="M50 31.25H72.5V73.75C72.5 75.0761 71.9732 76.3479 71.0355 77.2855C70.0979 78.2232 68.8261 78.75 67.5 78.75H48.75V31.25H50Z" fill="#FFAD39"/>
<path d="M31.25 31.25V78.75H12.5C11.1739 78.75 9.90215 78.2232 8.96447 77.2855C8.02678 76.3479 7.5 75.0761 7.5 73.75V31.25H31.25Z" fill="#FFAD39"/>
<path d="M30 16.25V31.25H3.75C3.08757 31.248 2.45283 30.984 1.98442 30.5156C1.51601 30.0472 1.25198 29.4124 1.25 28.75V18.75C1.25198 18.0876 1.51601 17.4528 1.98442 16.9844C2.45283 16.516 3.08757 16.252 3.75 16.25H30Z" fill="#FEBD55"/>
<path d="M78.75 18.75V28.75C78.748 29.4124 78.484 30.0472 78.0156 30.5156C77.5472 30.984 76.9124 31.248 76.25 31.25H50V16.25H76.25C76.9124 16.252 77.5472 16.516 78.0156 16.9844C78.484 17.4528 78.748 18.0876 78.75 18.75Z" fill="#FEBD55"/>
<path d="M46.25 13.75V16.25H33.75V13.75C33.752 13.0876 34.016 12.4528 34.4844 11.9844C34.9528 11.516 35.5876 11.252 36.25 11.25H43.75C44.4124 11.252 45.0472 11.516 45.5156 11.9844C45.984 12.4528 46.248 13.0876 46.25 13.75Z" fill="#CB3541"/>
<path d="M43.75 13.75H36.25C35.8135 13.7476 35.3852 13.6309 35.0078 13.4116C34.6304 13.1923 34.317 12.878 34.0987 12.5C33.8731 12.8781 33.7527 13.3097 33.75 13.75V16.25H46.25V13.75C46.2473 13.3097 46.1269 12.8781 45.9013 12.5C45.683 12.878 45.3696 13.1923 44.9922 13.4116C44.6148 13.6309 44.1865 13.7476 43.75 13.75Z" fill="#A81E29"/>
<path d="M33.7499 13.75V16.25H14.9999C14.5045 16.2606 14.0121 16.1708 13.5524 15.9861C13.0926 15.8014 12.675 15.5255 12.3247 15.1752C11.9743 14.8248 11.6985 14.4072 11.5138 13.9475C11.3291 13.4877 11.2393 12.9954 11.2499 12.5C11.2499 7.5 17.4999 7.5 17.4999 7.5C23.4987 7.5255 29.28 9.7491 33.7499 13.75Z" fill="#E03E3E"/>
<path d="M23.75 1.25C33.75 1.25 33.75 13.75 33.75 13.75C29.2802 9.74911 23.4988 7.5255 17.5 7.5C17.5 7.5 17.5 1.25 23.75 1.25Z" fill="#CB3541"/>
<path d="M46.25 13.75C46.25 13.75 46.25 1.25 56.25 1.25C62.5 1.25 62.5 7.5 62.5 7.5C56.5012 7.5255 50.7198 9.74911 46.25 13.75Z" fill="#CB3541"/>
<path d="M46.25 13.75C50.7198 9.7491 56.5012 7.5255 62.5 7.5C62.5 7.5 68.75 7.5 68.75 12.5C68.7606 12.9954 68.6708 13.4877 68.4861 13.9475C68.3014 14.4072 68.0255 14.8248 67.6752 15.1752C67.3248 15.5255 66.9072 15.8014 66.4475 15.9861C65.9877 16.1708 65.4954 16.2606 65 16.25H46.25V13.75Z" fill="#E03E3E"/>
<path d="M31.25 31.25H48.75V78.75H31.25V31.25Z" fill="#CB3541"/>
<path d="M50 16.25V31.25H48.75H31.25H30V16.25H33.75H46.25H50Z" fill="#FF6161"/>
<path d="M75.7875 52.85C76.05 54.0375 78.75 54.975 78.75 56.25C78.75 57.525 76.05 58.4625 75.7875 59.65C75.5125 60.875 77.5375 62.925 77.025 64.025C76.4875 65.15 73.6625 64.8 72.9 65.775C72.1375 66.75 73.1125 69.4875 72.1625 70.2625C71.2125 71.0375 68.8125 69.4625 67.7125 70.0125C66.6375 70.55 66.3375 73.45 65.15 73.725C63.9875 74 62.4875 71.525 61.25 71.525C60.0125 71.525 58.5125 74 57.35 73.725C56.1625 73.45 55.8625 70.55 54.775 70.0125C53.6875 69.475 51.275 71.0375 50.3375 70.2625C49.4 69.4875 50.35 66.7375 49.5875 65.775C48.825 64.8125 46.0125 65.15 45.475 64.025C44.9625 62.925 46.9875 60.875 46.7125 59.65C46.45 58.4625 43.75 57.525 43.75 56.25C43.75 54.975 46.45 54.0375 46.7125 52.85C46.9875 51.625 44.9625 49.575 45.475 48.475C46.0125 47.35 48.8375 47.7 49.6 46.725C50.3625 45.75 49.3875 43.0125 50.3375 42.2375C51.2875 41.4625 53.6875 43.0375 54.7875 42.4875C55.8625 41.95 56.1625 39.05 57.35 38.775C58.5125 38.5 60.0125 40.975 61.25 40.975C62.4875 40.975 63.9875 38.5 65.15 38.775C66.3375 39.05 66.6375 41.95 67.725 42.4875C68.8125 43.025 71.225 41.4625 72.1625 42.2375C73.1 43.0125 72.15 45.7625 72.9125 46.725C73.675 47.6875 76.4875 47.35 77.025 48.475C77.5375 49.575 75.5125 51.625 75.7875 52.85Z" fill="#CB3541"/>
<path d="M75 56.2499C75 57.2499 72.875 57.9887 72.6713 58.9212C72.4575 59.8862 74.0462 61.4937 73.64 62.3637C73.2337 63.2337 71 62.9712 70.4075 63.7299C69.815 64.4887 70.5675 66.6524 69.8238 67.2612C69.08 67.8699 67.1988 66.6362 66.3325 67.0624C65.4663 67.4887 65.25 69.7649 64.31 69.9837C63.3988 70.1962 62.2238 68.2474 61.25 68.2474C60.2762 68.2474 59.1012 70.1962 58.19 69.9837C57.2487 69.7649 57.0162 67.4837 56.1675 67.0624C55.3187 66.6412 53.4175 67.8674 52.6762 67.2612C51.935 66.6549 52.6863 64.4924 52.0913 63.7299C51.4963 62.9674 49.275 63.2499 48.8588 62.3624C48.4425 61.4749 50.0425 59.8849 49.8287 58.9212C49.625 57.9874 47.5 57.2499 47.5 56.2499C47.5 55.2499 49.625 54.5112 49.8287 53.5787C50.0425 52.6137 48.4538 51.0062 48.86 50.1362C49.2663 49.2662 51.5 49.5287 52.0925 48.7699C52.685 48.0112 51.9325 45.8474 52.6762 45.2387C53.42 44.6299 55.3012 45.8637 56.1675 45.4374C57.0337 45.0112 57.25 42.7349 58.19 42.5162C59.1012 42.3037 60.2762 44.2524 61.25 44.2524C62.2238 44.2524 63.3988 42.3037 64.31 42.5162C65.2513 42.7349 65.4838 45.0162 66.3325 45.4374C67.1813 45.8587 69.0825 44.6324 69.8238 45.2387C70.565 45.8449 69.8137 48.0074 70.4087 48.7699C71.0037 49.5324 73.225 49.2537 73.6412 50.1374C74.0575 51.0212 72.4575 52.6149 72.6713 53.5787C72.875 54.5124 75 55.2499 75 56.2499Z" fill="#FF6161"/>
<path d="M65 66.25C64.2583 66.25 63.5333 66.0301 62.9166 65.618C62.2999 65.206 61.8193 64.6203 61.5355 63.9351C61.2516 63.2498 61.1774 62.4958 61.3221 61.7684C61.4668 61.041 61.8239 60.3728 62.3484 59.8484C62.8728 59.3239 63.541 58.9668 64.2684 58.8221C64.9958 58.6774 65.7498 58.7516 66.4351 59.0355C67.1203 59.3193 67.706 59.7999 68.118 60.4166C68.5301 61.0333 68.75 61.7583 68.75 62.5C68.75 63.4946 68.3549 64.4484 67.6517 65.1517C66.9484 65.8549 65.9946 66.25 65 66.25ZM65 61.25C64.7528 61.25 64.5111 61.3233 64.3055 61.4607C64.1 61.598 63.9398 61.7932 63.8452 62.0217C63.7505 62.2501 63.7258 62.5014 63.774 62.7439C63.8223 62.9863 63.9413 63.2091 64.1161 63.3839C64.2909 63.5587 64.5137 63.6778 64.7561 63.726C64.9986 63.7742 65.25 63.7495 65.4784 63.6549C65.7068 63.5602 65.902 63.4 66.0393 63.1945C66.1767 62.9889 66.25 62.7472 66.25 62.5C66.25 62.1685 66.1183 61.8505 65.8839 61.6161C65.6495 61.3817 65.3315 61.25 65 61.25Z" fill="#FBFBFB"/>
<path d="M57.5 53.75C56.7583 53.75 56.0333 53.5301 55.4166 53.118C54.7999 52.706 54.3193 52.1203 54.0355 51.4351C53.7516 50.7498 53.6774 49.9958 53.8221 49.2684C53.9668 48.541 54.3239 47.8728 54.8484 47.3484C55.3728 46.8239 56.041 46.4668 56.7684 46.3221C57.4958 46.1774 58.2498 46.2516 58.9351 46.5355C59.6203 46.8193 60.206 47.2999 60.618 47.9166C61.0301 48.5333 61.25 49.2583 61.25 50C61.25 50.9946 60.8549 51.9484 60.1517 52.6517C59.4484 53.3549 58.4946 53.75 57.5 53.75ZM57.5 48.75C57.2528 48.75 57.0111 48.8233 56.8055 48.9607C56.6 49.098 56.4398 49.2932 56.3452 49.5217C56.2505 49.7501 56.2258 50.0014 56.274 50.2439C56.3223 50.4863 56.4413 50.7091 56.6161 50.8839C56.7909 51.0587 57.0137 51.1778 57.2561 51.226C57.4986 51.2742 57.75 51.2495 57.9784 51.1549C58.2068 51.0602 58.402 50.9 58.5393 50.6945C58.6767 50.4889 58.75 50.2472 58.75 50C58.75 49.6685 58.6183 49.3505 58.3839 49.1161C58.1495 48.8817 57.8315 48.75 57.5 48.75Z" fill="#FBFBFB"/>
<path d="M55.0002 63.75C54.753 63.75 54.5114 63.6766 54.3059 63.5393C54.1004 63.4019 53.9402 63.2067 53.8456 62.9783C53.751 62.75 53.7263 62.4987 53.7745 62.2562C53.8227 62.0138 53.9417 61.7911 54.1165 61.6163L66.6165 49.1163C66.8522 48.8886 67.168 48.7626 67.4957 48.7654C67.8235 48.7683 68.137 48.8997 68.3687 49.1315C68.6005 49.3633 68.732 49.6768 68.7348 50.0045C68.7377 50.3323 68.6117 50.648 68.384 50.8838L55.884 63.3838C55.6496 63.6182 55.3317 63.75 55.0002 63.75Z" fill="#FBFBFB"/>
<path d="M72.5 36.25V31.25H50H48.75V36.25H72.5Z" fill="#E68C15"/>
<path d="M67.5 73.75H48.75V78.75H67.5C68.8261 78.75 70.0979 78.2232 71.0355 77.2855C71.9732 76.3479 72.5 75.0761 72.5 73.75V68.75C72.5 70.0761 71.9732 71.3479 71.0355 72.2855C70.0979 73.2232 68.8261 73.75 67.5 73.75Z" fill="#E68C15"/>
<path d="M13.75 51.25V41.25C13.75 39.9239 14.2768 38.6521 15.2145 37.7145C16.1521 36.7768 17.4239 36.25 18.75 36.25H31.25V31.25H7.5V73.75C7.5 75.0761 8.02678 76.3479 8.96447 77.2855C9.90215 78.2232 11.1739 78.75 12.5 78.75H31.25V73.1738C26.2814 72.0413 21.8444 69.2557 18.6652 65.2729C15.486 61.2901 13.7531 56.346 13.75 51.25Z" fill="#E68C15"/>
<path d="M36.25 73.75C34.5671 73.7449 32.89 73.5516 31.25 73.1737V78.75H48.75V73.75H36.25Z" fill="#A81E29"/>
<path d="M31.25 31.25H48.75V36.25H31.25V31.25Z" fill="#A81E29"/>
<path d="M14.375 25C13.2147 25 12.1019 24.5391 11.2814 23.7186C10.4609 22.8981 10 21.7853 10 20.625C10 19.4647 10.4609 18.3519 11.2814 17.5314C12.1019 16.7109 13.2147 16.25 14.375 16.25H3.75C3.08757 16.252 2.45283 16.516 1.98442 16.9844C1.51601 17.4528 1.25198 18.0876 1.25 18.75V28.75C1.25198 29.4124 1.51601 30.0472 1.98442 30.5156C2.45283 30.984 3.08757 31.248 3.75 31.25H30V25H14.375Z" fill="#FFA930"/>
<path d="M76.25 25H50V31.25H76.25C76.9124 31.248 77.5472 30.984 78.0156 30.5156C78.484 30.0472 78.748 29.4124 78.75 28.75V22.5C78.75 23.163 78.4866 23.7989 78.0178 24.2678C77.5489 24.7366 76.913 25 76.25 25Z" fill="#FFA930"/>
<path d="M30 25V31.25H31.25H48.75H50V25H30Z" fill="#CB3541"/>
<path d="M28.75 7.50003C28.75 7.50003 21.4563 5.07378 17.66 6.20878C17.569 6.63369 17.5155 7.06576 17.5 7.50003C23.4988 7.52553 29.2802 9.74913 33.75 13.75C33.75 13.75 33.75 8.23378 30.8125 4.53003C30.8162 6.11128 30.3625 7.50003 28.75 7.50003Z" fill="#A81E29"/>
<path d="M52.5 7.5C50.425 7.5 50.2663 5.20375 50.5363 3.15125C46.25 6.64875 46.25 13.75 46.25 13.75C50.7198 9.7491 56.5012 7.5255 62.5 7.5C62.4817 6.97979 62.4097 6.46287 62.285 5.95749C58.335 5.55749 52.5 7.5 52.5 7.5Z" fill="#A81E29"/>
<path d="M28.5975 10.9762C28.6366 11.1591 28.6346 11.3485 28.5915 11.5305C28.5483 11.7125 28.4652 11.8826 28.3482 12.0285C28.2311 12.1744 28.0831 12.2924 27.9147 12.374C27.7464 12.4555 27.562 12.4986 27.375 12.5H15C14.3369 12.5 13.7011 12.2366 13.2322 11.7678C12.7634 11.2989 12.5 10.663 12.5 9.99999V9.32874C12.0857 9.74369 11.7611 10.2392 11.5461 10.7847C11.3311 11.3302 11.2303 11.914 11.25 12.5C11.2394 12.9953 11.3292 13.4877 11.5139 13.9475C11.6986 14.4072 11.9744 14.8248 12.3248 15.1752C12.6751 15.5255 13.0928 15.8014 13.5525 15.9861C14.0123 16.1708 14.5046 16.2606 15 16.25H33.75V13.75C32.1356 12.269 30.3124 11.0333 28.3387 10.0825C28.448 10.3732 28.5345 10.6721 28.5975 10.9762Z" fill="#CB3541"/>
<path d="M66.25 12.5H53.875C53.6877 12.4989 53.5031 12.4562 53.3344 12.3748C53.1658 12.2934 53.0174 12.1754 52.9001 12.0295C52.7827 11.8835 52.6994 11.7133 52.6562 11.5311C52.6129 11.3489 52.6108 11.1594 52.65 10.9763C52.7667 10.4167 52.9646 9.87724 53.2375 9.375C50.6679 10.4085 48.302 11.8898 46.25 13.75V16.25H65C65.4954 16.2606 65.9877 16.1708 66.4475 15.9861C66.9072 15.8014 67.3248 15.5255 67.6752 15.1752C68.0255 14.8248 68.3014 14.4072 68.4861 13.9475C68.6708 13.4877 68.7606 12.9954 68.75 12.5C68.7513 11.9994 68.6759 11.5015 68.5262 11.0238C68.3292 11.4628 68.0096 11.8356 67.6058 12.0975C67.202 12.3594 66.7313 12.4991 66.25 12.5Z" fill="#CB3541"/>
<path d="M62.5 40.375V16.25H60V40.375C60.1503 40.562 60.3406 40.7129 60.5569 40.8165C60.7733 40.9202 61.0101 40.974 61.25 40.974C61.4899 40.974 61.7267 40.9202 61.9431 40.8165C62.1594 40.7129 62.3497 40.562 62.5 40.375Z" fill="#A81E29"/>
<path d="M45.475 64.025C44.9625 62.925 46.9875 60.875 46.7125 59.65C46.45 58.4625 43.75 57.525 43.75 56.25C43.75 54.975 46.45 54.0375 46.7125 52.85C46.915 51.9463 45.87 50.6 45.5113 49.5038C44.4713 50.1288 42.2013 49.9775 41.725 50.975C41.2125 52.075 43.2375 54.125 42.9625 55.35C42.7 56.5375 40 57.475 40 58.75C40 60.025 42.7 60.9625 42.9625 62.15C43.2375 63.375 41.2125 65.425 41.725 66.525C42.2625 67.65 45.0875 67.3 45.8375 68.275C46.5875 69.25 45.6375 71.9875 46.5875 72.7625C47.0563 73.15 47.8938 72.95 48.75 72.7213V65.2675C47.6137 64.8863 45.8838 64.8813 45.475 64.025Z" fill="#961B25"/>
<path d="M57.35 73.725C56.1625 73.45 55.8625 70.55 54.775 70.0125C53.6875 69.475 51.275 71.0375 50.3375 70.2625C49.4 69.4875 50.35 66.7375 49.5875 65.775C49.3632 65.5284 49.0723 65.3522 48.75 65.2675V72.7212C49.4678 72.4152 50.2635 72.3422 51.025 72.5125C51.4562 72.8179 51.7809 73.2506 51.9537 73.75C52.4325 74.775 52.8288 76.0475 53.6 76.225C54.7625 76.5 56.2625 74.025 57.5 74.025C58.7375 74.025 60.2375 76.5 61.4 76.225C62.1687 76.0475 62.5662 74.775 63.0425 73.75C63.1676 73.4702 63.32 73.2035 63.4975 72.9537C62.7363 72.315 61.9513 71.525 61.2475 71.525C60.0125 71.525 58.5125 74 57.35 73.725Z" fill="#E68C15"/>
<path d="M68.8386 69.9488C68.4659 69.8542 68.0732 69.8764 67.7136 70.0125C67.0111 70.3638 66.6373 71.715 66.1323 72.6925C67.0273 72.9325 67.9173 73.1675 68.4136 72.7625C68.9998 72.2838 68.8561 71.0488 68.8386 69.9488Z" fill="#E68C15"/>
<path d="M54.7874 42.4875C54.9764 42.3759 55.1372 42.2224 55.2574 42.0388C54.6737 41.5525 54.1049 41.155 53.5999 41.275C53.1887 41.37 52.8862 41.7888 52.6187 42.3075C53.3041 42.5965 54.0637 42.6595 54.7874 42.4875Z" fill="#E68C15"/>
<path d="M57.35 38.775C57.6097 38.7631 57.8689 38.8067 58.1104 38.9031C58.3518 38.9994 58.5699 39.1463 58.75 39.3337V31.25H56.25V40.0413C56.5463 39.4138 56.875 38.885 57.35 38.775Z" fill="#E68C15"/>
<path d="M48.7498 44.7763C47.896 44.5488 47.061 44.3513 46.5873 44.7375C45.9335 45.2713 46.1785 46.7375 46.1548 47.91C46.8748 47.5913 47.9498 47.5 48.7498 47.235V44.7763Z" fill="#961B25"/>
</svg>
