<svg width="169" height="61" viewBox="0 0 169 61" fill="none" xmlns="http://www.w3.org/2000/svg">
<circle cx="139" cy="30" r="29.5" fill="white" stroke="#E5E8EF"/>
<g clip-path="url(#clip0_4434_19352)">
<path d="M149.231 27.9056C147.393 24.3553 145.253 19.8602 144.779 17.9086C144.637 17.3324 144.647 16.8549 145.15 16.4137C145.58 16.0296 146.113 16.0503 146.416 16.2528C146.856 16.5642 146.758 17.2442 146.656 17.6179C146.524 18.1318 146.304 18.2771 146.133 18.355L146.866 20.317C147.447 20.073 148.219 19.4969 148.571 18.1837C148.982 16.6161 148.581 15.2302 147.496 14.4828C146.421 13.7353 144.935 13.8651 143.88 14.7838C143.157 15.4119 142.394 16.5538 142.844 18.4328C143.474 21.0593 146.289 26.6495 147.477 28.9178C147.486 28.9282 147.486 28.9489 147.477 28.9593L141.5 43.8563C141.49 43.8771 141.461 43.8978 141.432 43.8874L131.023 39.1692C130.994 39.1588 130.984 39.1277 130.994 39.0965L137 24.1632C137 24.1528 137.009 24.1425 137.029 24.1321L142.863 22.2012L142.272 20.1976L136.418 22.1285L136.398 22.1389C135.846 22.331 135.406 22.767 135.172 23.3327L129.166 38.266C128.726 39.3664 129.205 40.633 130.241 41.1053L140.655 45.8339C140.914 45.9533 141.187 46.0052 141.456 46.0052C141.715 46.0052 141.969 45.9533 142.218 45.8443C142.722 45.6315 143.122 45.2162 143.333 44.6816L149.319 29.7898C149.563 29.1877 149.534 28.4922 149.231 27.9056Z" fill="#5B86E5"/>
<path d="M140.943 36.958C140.293 37.6016 139.795 37.4407 139.262 37.1967L137.674 36.4804C137.141 36.2417 136.975 35.8991 137.171 35.4112L138.207 32.8315C138.207 32.8315 139.37 33.3557 139.761 33.5737C140.049 33.7294 140.196 33.9059 140.112 34.3886L140.005 35.0375L140.464 35.2451L141.026 33.7502L141.691 32.2864L141.232 32.0788L140.821 32.6654C140.552 33.0495 140.455 33.1014 140.025 32.9612C139.536 32.8055 138.436 32.2968 138.431 32.2916L139.653 29.2448C139.697 29.1306 139.736 29.0683 139.917 29.1513L142.355 30.2569C142.781 30.449 142.864 30.9421 142.741 31.7414L142.649 32.3799L143.064 32.5667C143.797 30.9577 144.149 30.2777 144.149 30.2777C144.149 30.2777 143.054 29.9299 142.439 29.6496L139.316 28.2378L137.664 27.4229L137.474 27.9004L137.992 28.2689C138.353 28.5285 138.412 28.6582 138.29 29.0579C138.29 29.0579 137.869 30.205 137.117 32.0736C136.369 33.9422 135.885 35.0478 135.885 35.0478C135.749 35.3852 135.573 35.4527 135.148 35.3541L134.537 35.2139L134.346 35.6915L136.042 36.3922L138.832 37.6535C139.463 37.939 140.899 38.6553 140.899 38.6553C141.095 38.2608 142.048 36.5116 142.16 36.3247L141.764 36.1482L140.943 36.958Z" fill="#5B86E5"/>
</g>
<circle cx="30" cy="31" r="29.5" fill="white" stroke="#E5E8EF"/>
<circle cx="30" cy="31" r="19" fill="#95BF47"/>
<path d="M36.1354 25.5202C36.1354 25.4113 36.0627 25.375 35.9535 25.375C35.8807 25.375 34.6073 25.3387 34.6073 25.3387C34.6073 25.3387 33.8432 24.5766 33.5521 24.2863V40L38.1002 38.8387C38.1002 38.8387 36.1354 25.5927 36.1354 25.5202ZM32.497 24.2863C32.4606 24.1048 32.3151 23.8145 32.2423 23.6331C31.8785 22.9073 31.2963 22.5081 30.6414 22.5081C30.605 22.5081 30.605 22.5081 30.605 22.5081C30.5686 22.5081 30.4958 22.5444 30.4958 22.5444C30.4595 22.5081 30.4231 22.5081 30.4231 22.4718C30.132 22.1452 29.7682 22 29.2952 22C28.4219 22.0363 27.5487 22.6532 26.8574 23.7782C26.348 24.5766 25.9842 25.5565 25.875 26.3185C24.8563 26.6452 24.165 26.8629 24.165 26.8629C23.6556 27.0444 23.6192 27.0444 23.5828 27.5161C23.5464 27.879 22.2002 38.1129 22.2002 38.1129L33.1883 40V24.1048C33.1519 24.1048 33.0791 24.1048 33.0428 24.1411C33.0064 24.1411 32.8245 24.1774 32.497 24.2863ZM30.4958 24.9032C29.9137 25.0847 29.2588 25.3024 28.6402 25.4839C28.8222 24.7944 29.1496 24.1048 29.5862 23.6694C29.7318 23.4879 29.9501 23.3065 30.2048 23.1976C30.4595 23.7056 30.4958 24.4315 30.4958 24.9032ZM29.2952 22.6169H29.3315C29.4771 22.6169 29.6954 22.6895 29.8409 22.7258C29.5862 22.871 29.3679 23.0524 29.1496 23.2702C28.5675 23.8508 28.1672 24.7944 27.9853 25.6653C27.4759 25.8468 26.9302 25.9919 26.4572 26.1371C26.7846 24.7581 27.9489 22.6532 29.2952 22.6169ZM27.6215 30.6008C27.6579 31.5444 30.132 31.7258 30.2775 33.9395C30.3867 35.6452 29.3679 36.8427 27.8762 36.9153C26.0933 37.0242 25.1473 36.0081 25.1473 36.0081L25.5112 34.4113C25.5112 34.4113 26.4936 35.1371 27.2576 35.0645C27.767 35.0645 27.9853 34.629 27.9489 34.3387C27.8762 33.1048 25.875 33.1774 25.7295 31.1815C25.6203 29.5121 26.7483 27.8065 29.186 27.625C30.132 27.5887 30.605 27.8065 30.605 27.8065L30.0592 29.9113C30.0592 29.9113 29.4407 29.621 28.6766 29.6573C27.6215 29.7298 27.5851 30.4194 27.6215 30.6008ZM31.078 24.7218C31.078 24.2863 31.0052 23.6694 30.8233 23.1613C31.4782 23.2702 31.8057 24.0323 31.9512 24.4677C31.6965 24.5403 31.4055 24.6492 31.078 24.7218Z" fill="white"/>
<line x1="60" y1="29.5001" x2="109" y2="29.5001" stroke="#E5E8EF"/>
<path d="M91 29.5L81.25 35.9952L81.25 23.0048L91 29.5Z" fill="#E5E8EF"/>
<defs>
<clipPath id="clip0_4434_19352">
<rect width="20.48" height="32" fill="white" transform="translate(129 14)"/>
</clipPath>
</defs>
</svg>
