<svg width="16" height="16" viewBox="0 0 16 16" fill="none" xmlns="http://www.w3.org/2000/svg">
<path d="M13.4538 3.12903C13.4538 3.03226 13.3891 3 13.2921 3C13.2274 3 12.0954 2.96774 12.0954 2.96774C12.0954 2.96774 11.4162 2.29032 11.1575 2.03226V16L15.2002 14.9677C15.2002 14.9677 13.4538 3.19355 13.4538 3.12903ZM10.2196 2.03226C10.1873 1.87097 10.0579 1.6129 9.99321 1.45161C9.66979 0.806452 9.15233 0.451613 8.57017 0.451613C8.53783 0.451613 8.53783 0.451613 8.53783 0.451613C8.50549 0.451613 8.44081 0.483871 8.44081 0.483871C8.40847 0.451613 8.37612 0.451613 8.37612 0.419355C8.11739 0.129032 7.79397 0 7.37353 0C6.59733 0.0322581 5.82113 0.580645 5.20663 1.58065C4.75385 2.29032 4.43043 3.16129 4.33341 3.83871C3.42784 4.12903 2.81335 4.32258 2.81335 4.32258C2.36056 4.48387 2.32822 4.48387 2.29588 4.90323C2.26354 5.22581 1.06689 14.3226 1.06689 14.3226L10.8341 16V1.87097C10.8018 1.87097 10.7371 1.87097 10.7047 1.90323C10.6724 1.90323 10.5107 1.93548 10.2196 2.03226ZM8.44081 2.58065C7.92334 2.74194 7.34119 2.93548 6.79138 3.09677C6.95309 2.48387 7.24416 1.87097 7.63226 1.48387C7.76163 1.32258 7.95568 1.16129 8.18207 1.06452C8.40847 1.51613 8.44081 2.16129 8.44081 2.58065ZM7.37353 0.548387H7.40587C7.53524 0.548387 7.72929 0.612903 7.85866 0.645161C7.63226 0.774194 7.43821 0.935484 7.24416 1.12903C6.7267 1.64516 6.37094 2.48387 6.20923 3.25806C5.75644 3.41935 5.27132 3.54839 4.85088 3.67742C5.14195 2.45161 6.17689 0.580645 7.37353 0.548387ZM5.88581 7.64516C5.91815 8.48387 8.11739 8.64516 8.24676 10.6129C8.34378 12.129 7.43821 13.1935 6.1122 13.2581C4.52746 13.3548 3.68657 12.4516 3.68657 12.4516L4.00999 11.0323C4.00999 11.0323 4.88322 11.6774 5.56239 11.6129C6.01518 11.6129 6.20923 11.2258 6.17689 10.9677C6.1122 9.87097 4.33341 9.93548 4.20404 8.16129C4.10702 6.67742 5.10961 5.16129 7.2765 5C8.11739 4.96774 8.53783 5.16129 8.53783 5.16129L8.05271 7.03226C8.05271 7.03226 7.5029 6.77419 6.82372 6.80645C5.88581 6.87097 5.85347 7.48387 5.88581 7.64516ZM8.95827 2.41935C8.95827 2.03226 8.89359 1.48387 8.73188 1.03226C9.31403 1.12903 9.60511 1.80645 9.73448 2.19355C9.50808 2.25806 9.24935 2.35484 8.95827 2.41935Z" fill="#95BF47"/>
</svg>
