<svg width="16" height="19" viewBox="0 0 16 19" fill="none" xmlns="http://www.w3.org/2000/svg">
<path d="M13.4648 4.38477C13.4648 4.2793 13.3945 4.24414 13.2891 4.24414C13.2188 4.24414 11.9883 4.20898 11.9883 4.20898C11.9883 4.20898 11.25 3.4707 10.9688 3.18945V18.4121L15.3633 17.2871C15.3633 17.2871 13.4648 4.45508 13.4648 4.38477ZM9.94922 3.18945C9.91406 3.01367 9.77344 2.73242 9.70312 2.55664C9.35156 1.85352 8.78906 1.4668 8.15625 1.4668C8.12109 1.4668 8.12109 1.4668 8.12109 1.4668C8.08594 1.4668 8.01562 1.50195 8.01562 1.50195C7.98047 1.4668 7.94531 1.4668 7.94531 1.43164C7.66406 1.11523 7.3125 0.974609 6.85547 0.974609C6.01172 1.00977 5.16797 1.60742 4.5 2.69727C4.00781 3.4707 3.65625 4.41992 3.55078 5.1582C2.56641 5.47461 1.89844 5.68555 1.89844 5.68555C1.40625 5.86133 1.37109 5.86133 1.33594 6.31836C1.30078 6.66992 0 16.584 0 16.584L10.6172 18.4121V3.01367C10.582 3.01367 10.5117 3.01367 10.4766 3.04883C10.4414 3.04883 10.2656 3.08398 9.94922 3.18945ZM8.01562 3.78711C7.45312 3.96289 6.82031 4.17383 6.22266 4.34961C6.39844 3.68164 6.71484 3.01367 7.13672 2.5918C7.27734 2.41602 7.48828 2.24023 7.73438 2.13477C7.98047 2.62695 8.01562 3.33008 8.01562 3.78711ZM6.85547 1.57227H6.89062C7.03125 1.57227 7.24219 1.64258 7.38281 1.67773C7.13672 1.81836 6.92578 1.99414 6.71484 2.20508C6.15234 2.76758 5.76562 3.68164 5.58984 4.52539C5.09766 4.70117 4.57031 4.8418 4.11328 4.98242C4.42969 3.64648 5.55469 1.60742 6.85547 1.57227ZM5.23828 9.30664C5.27344 10.2207 7.66406 10.3965 7.80469 12.541C7.91016 14.1934 6.92578 15.3535 5.48438 15.4238C3.76172 15.5293 2.84766 14.5449 2.84766 14.5449L3.19922 12.998C3.19922 12.998 4.14844 13.7012 4.88672 13.6309C5.37891 13.6309 5.58984 13.209 5.55469 12.9277C5.48438 11.7324 3.55078 11.8027 3.41016 9.86914C3.30469 8.25195 4.39453 6.59961 6.75 6.42383C7.66406 6.38867 8.12109 6.59961 8.12109 6.59961L7.59375 8.63867C7.59375 8.63867 6.99609 8.35742 6.25781 8.39258C5.23828 8.46289 5.20312 9.13086 5.23828 9.30664ZM8.57812 3.61133C8.57812 3.18945 8.50781 2.5918 8.33203 2.09961C8.96484 2.20508 9.28125 2.94336 9.42188 3.36523C9.17578 3.43555 8.89453 3.54102 8.57812 3.61133Z" fill="white"/>
</svg>
