<svg width="25" height="20" viewBox="0 0 25 20" fill="none" xmlns="http://www.w3.org/2000/svg">
<path d="M21.8608 5.11163C21.8757 5.32482 21.8757 5.53805 21.8757 5.75124C21.8757 12.2537 17.0235 19.7461 8.15519 19.7461C5.42302 19.7461 2.88497 18.939 0.75 17.5381C1.13819 17.5837 1.5114 17.5989 1.91452 17.5989C4.16889 17.5989 6.24416 16.8223 7.90138 15.4974C5.78134 15.4517 4.00469 14.0355 3.39256 12.0863C3.69118 12.1319 3.98975 12.1624 4.30331 12.1624C4.73626 12.1624 5.16926 12.1014 5.57233 11.9949C3.36273 11.538 1.70547 9.55833 1.70547 7.16747V7.10658C2.34743 7.47207 3.09398 7.70049 3.8852 7.73091C2.58631 6.84764 1.73534 5.34005 1.73534 3.63446C1.73534 2.72077 1.97417 1.88321 2.39223 1.15224C4.76608 4.137 8.33433 6.08621 12.3355 6.29944C12.2608 5.93396 12.216 5.55328 12.216 5.17257C12.216 2.46188 14.3659 0.253784 17.0384 0.253784C18.4268 0.253784 19.6809 0.847691 20.5618 1.80708C21.6517 1.59389 22.6967 1.18271 23.6224 0.619269C23.2641 1.76142 22.5027 2.72082 21.5024 3.32991C22.4728 3.22336 23.4134 2.94919 24.2793 2.56852C23.6225 3.5431 22.8013 4.41108 21.8608 5.11163Z" fill="#8F90A6"/>
</svg>
