<svg width="16" height="11" viewBox="0 0 16 11" fill="none" xmlns="http://www.w3.org/2000/svg">
<path d="M8 2.6875C7.75391 2.71484 7.37109 2.76953 7.125 2.82422C7.23438 3.01562 7.31641 3.37109 7.34375 3.5625C7.34375 4.41016 6.63281 5.09375 5.8125 5.09375C5.59375 5.09375 5.23828 5.01172 5.07422 4.90234C4.99219 5.14844 4.9375 5.50391 4.9375 5.75C4.9375 7.44531 6.30469 8.8125 8 8.8125C9.69531 8.8125 11.0625 7.44531 11.0625 5.75C11.0625 4.08203 9.69531 2.6875 8 2.6875ZM15.7656 5.36719C14.2891 2.46875 11.3359 0.5 8 0.5C4.63672 0.5 1.68359 2.46875 0.207031 5.36719C0.152344 5.47656 0.125 5.64062 0.125 5.77734C0.125 5.88672 0.152344 6.05078 0.207031 6.16016C1.68359 9.05859 4.63672 11 8 11C11.3359 11 14.2891 9.05859 15.7656 6.16016C15.8203 6.05078 15.8477 5.88672 15.8477 5.75C15.8477 5.64062 15.8203 5.47656 15.7656 5.36719ZM8 9.6875C5.29297 9.6875 2.80469 8.18359 1.49219 5.75C2.80469 3.31641 5.29297 1.8125 8 1.8125C10.6797 1.8125 13.168 3.31641 14.4805 5.75C13.168 8.18359 10.6797 9.6875 8 9.6875Z" fill="white"/>
</svg>
