<svg width="41" height="26" viewBox="0 0 41 26" fill="none" xmlns="http://www.w3.org/2000/svg">
<path d="M40.5 23.9704H40.4999V24.4704C40.4999 25.0421 40.0406 25.5 39.479 25.5H1.52063C0.959585 25.5 0.5 25.0422 0.5 24.4704V1.5295C0.5 0.958233 0.95967 0.5 1.52063 0.5H39.4791C40.0406 0.5 40.5 0.958251 40.5 1.5295V23.9704Z" fill="white" stroke="#E2E2E2"/>
<g clip-path="url(#clip0_5841_11569)">
<path d="M13.4234 5.50659C12.1584 5.50659 11.0025 6.64764 11.0025 7.92739C11.0025 8.63181 11.0019 11.4197 11.0014 14.1911C11.233 14.3368 12.3484 14.6946 12.7969 14.7263C13.7792 14.7958 14.3883 14.471 14.4826 13.6524L14.4776 10.6121H16.6505V13.583C16.5364 15.2846 15.0434 15.6312 12.771 15.5166C12.1829 15.487 11.3833 15.3353 11.0011 15.2358C11.0005 18.0095 11 20.4932 11 20.4932C11 20.4932 13.8368 20.4932 14.7815 20.4932C15.8134 20.4932 17.1566 19.529 17.1566 18.0627C17.1566 15.6021 17.1566 5.50659 17.1566 5.50659C17.1566 5.50659 14.3883 5.50659 13.4234 5.50659Z" fill="url(#paint0_linear_5841_11569)"/>
<path d="M20.3612 5.50659C19.0962 5.50659 17.9403 6.64764 17.9403 7.92739C17.9403 8.37368 17.9401 9.65632 17.9398 11.2411C18.6989 10.6482 19.9223 10.3575 21.4791 10.4774C22.3649 10.5456 23.0203 10.6692 23.3775 10.7751V11.8268C22.9837 11.6303 22.2067 11.3377 21.5584 11.291C20.09 11.1852 19.3194 11.8733 19.3194 12.9855C19.3194 13.9865 19.9148 14.8431 21.5519 14.729C22.0919 14.6914 22.9905 14.3767 23.373 14.1948L23.3775 15.2151C23.0483 15.3189 22.0244 15.5418 21.0607 15.5497C19.6099 15.5615 18.5862 15.2534 17.9391 14.7534C17.9385 17.7148 17.9379 20.4932 17.9379 20.4932C17.9379 20.4932 20.7746 20.4932 21.7193 20.4932C22.7512 20.4932 24.0944 19.529 24.0944 18.0627C24.0944 15.6021 24.0944 5.50659 24.0944 5.50659C24.0944 5.50659 21.3262 5.50659 20.3612 5.50659Z" fill="url(#paint1_linear_5841_11569)"/>
<path d="M27.5373 13.3046C27.1231 13.3085 26.2198 13.3004 26.0564 13.3043L26.054 14.6285L27.5348 14.6333C27.8226 14.6333 28.1847 14.3868 28.1847 13.9573C28.1847 13.5773 27.8722 13.3014 27.5373 13.3046Z" fill="url(#paint2_linear_5841_11569)"/>
<path d="M28.0048 11.9755C28.0048 11.5955 27.7192 11.3392 27.4157 11.3463C26.9891 11.3562 26.2197 11.3357 26.0515 11.3506L26.0465 12.5561L27.4455 12.566C27.6782 12.5613 28.0048 12.3481 28.0048 11.9755Z" fill="url(#paint3_linear_5841_11569)"/>
<path d="M27.2669 5.50663C26.0019 5.50663 24.8459 6.64768 24.8459 7.92743C24.8459 8.31086 24.8458 9.3122 24.8455 10.5916H28.4402C29.1554 10.5916 29.9978 10.8975 29.9978 11.7672C29.9978 12.2336 29.7495 12.7619 28.8544 12.9331V12.953C29.377 12.953 30.2832 13.2589 30.2832 14.1816C30.2832 15.1341 29.3042 15.3987 28.78 15.3987L24.8446 15.4026C24.8441 18.1082 24.8435 20.4932 24.8435 20.4932C24.8435 20.4932 27.6803 20.4932 28.625 20.4932C29.6569 20.4932 31.0001 19.529 31.0001 18.0627C31.0001 15.6021 31.0001 5.50659 31.0001 5.50659C31.0001 5.50659 28.2318 5.50663 27.2669 5.50663Z" fill="url(#paint4_linear_5841_11569)"/>
</g>
<defs>
<linearGradient id="paint0_linear_5841_11569" x1="11" y1="12.9999" x2="17.1565" y2="12.9999" gradientUnits="userSpaceOnUse">
<stop stop-color="#2B327B"/>
<stop offset="1" stop-color="#0078C0"/>
</linearGradient>
<linearGradient id="paint1_linear_5841_11569" x1="17.9379" y1="12.9999" x2="24.0944" y2="12.9999" gradientUnits="userSpaceOnUse">
<stop stop-color="#872D34"/>
<stop offset="1" stop-color="#FF1146"/>
</linearGradient>
<linearGradient id="paint2_linear_5841_11569" x1="26.054" y1="13.9683" x2="28.1847" y2="13.9683" gradientUnits="userSpaceOnUse">
<stop stop-color="#008144"/>
<stop offset="1" stop-color="#00BB36"/>
</linearGradient>
<linearGradient id="paint3_linear_5841_11569" x1="26.0465" y1="11.9555" x2="28.0048" y2="11.9555" gradientUnits="userSpaceOnUse">
<stop stop-color="#008144"/>
<stop offset="1" stop-color="#00BB36"/>
</linearGradient>
<linearGradient id="paint4_linear_5841_11569" x1="24.8435" y1="13" x2="31" y2="13" gradientUnits="userSpaceOnUse">
<stop stop-color="#008144"/>
<stop offset="1" stop-color="#00BB36"/>
</linearGradient>
<clipPath id="clip0_5841_11569">
<rect width="20" height="20" fill="white" transform="translate(11 3)"/>
</clipPath>
</defs>
</svg>
