<svg width="41" height="26" viewBox="0 0 41 26" fill="none" xmlns="http://www.w3.org/2000/svg">
<path d="M2.56246 0H38.4375C39.8521 0 41 1.01278 41 2.26186V23.7393C41 24.9872 39.8521 26 38.4375 26H2.56246C1.14668 26.0001 0 24.9872 0 23.7394V2.26186C0 1.01278 1.14795 0 2.56246 0Z" fill="#26A6D1"/>
<path d="M6.04879 9L2 17.817H6.84697L7.44785 16.4112H8.82134L9.42222 17.817H14.7574V16.744L15.2328 17.817H17.9925L18.4679 16.7213V17.817H29.5636L30.9128 16.4477L32.1761 17.817L37.8751 17.8283L33.8135 13.4331L37.8751 9H32.2645L30.9511 10.344L29.7276 9H17.657L16.6205 11.2757L15.5596 9H10.7228V10.0364L10.1847 9C10.1847 9 6.04879 9 6.04879 9ZM6.98665 10.252H9.34929L12.0349 16.2308V10.252H14.623L16.6973 14.5388L18.609 10.252H21.1843V16.5788H19.6173L19.6045 11.6212L17.32 16.5788H15.9183L13.621 11.6212V16.5788H10.3973L9.78618 15.1604H6.48442L5.87454 16.5775H4.14736L6.98665 10.252ZM22.6179 10.252H28.9896L30.9384 12.3235L32.95 10.252H34.8988L31.9378 13.4318L34.8988 16.575H32.8616L30.9128 14.4795L28.8909 16.575H22.6179V10.252ZM8.136 11.3225L7.0482 13.8492H9.22254L8.136 11.3225ZM24.1914 11.562V12.7169H27.6674V14.0042H24.1914V15.2651H28.0902L29.9018 13.4079L28.1671 11.5609H24.1914V11.562Z" fill="white"/>
</svg>
