<svg width="41" height="26" viewBox="0 0 41 26" fill="none" xmlns="http://www.w3.org/2000/svg">
<path d="M40.5 23.9704H40.4999V24.4704C40.4999 25.0421 40.0406 25.5 39.479 25.5H1.52063C0.959585 25.5 0.5 25.0422 0.5 24.4704V1.5295C0.5 0.958233 0.95967 0.5 1.52063 0.5H39.4791C40.0406 0.5 40.5 0.95825 40.5 1.5295V23.9704Z" fill="white" stroke="#E2E2E2"/>
<g clip-path="url(#clip0_5841_11578)">
<path d="M26.1966 6.62564C25.7563 6.20646 25.1179 6.07015 24.5448 6.27294C24.3828 6.3271 24.2647 6.46759 24.2394 6.63654L24.1121 7.51107C23.9191 8.83196 22.7889 9.81293 21.454 9.81826H19.6359C19.4272 9.8183 19.2455 9.96037 19.195 10.1628L17.8314 15.6171C17.7706 15.8607 17.9188 16.1074 18.1624 16.1681C18.1983 16.1771 18.2352 16.1816 18.2722 16.1816H20.5449C20.7535 16.1816 20.9353 16.0395 20.9858 15.8371L21.8085 12.5454H23.5811C24.9419 12.5499 26.129 11.6225 26.4537 10.301L26.7892 8.95647C27.0253 8.12946 26.799 7.23942 26.1966 6.62564Z" fill="#03A9F4"/>
<path d="M11.4544 21.636C11.2034 21.636 10.9999 21.4324 11 21.1814C11 21.1444 11.0046 21.1075 11.0135 21.0716L11.4681 19.2625V19.2435L11.9226 17.4353C11.9731 17.2329 12.1549 17.0909 12.3635 17.0908H13.5198C14.1474 17.0907 14.6562 17.5993 14.6564 18.2269C14.6564 18.3198 14.645 18.4124 14.6225 18.5026L14.5089 18.9571C14.3825 19.4632 13.9278 19.8181 13.4062 19.818H12.2644L11.8962 21.2916C11.8456 21.4943 11.6633 21.6364 11.4544 21.636ZM12.4916 18.9089H13.4061C13.5104 18.9086 13.6011 18.8374 13.6261 18.7362L13.7398 18.2816C13.7709 18.1606 13.698 18.0371 13.5769 18.006C13.5583 18.0012 13.5391 17.9988 13.5198 17.9989H12.7189L12.4916 18.9089Z" fill="#283593"/>
<path d="M16.3151 21.6361H15.6679C14.9721 21.6362 14.4078 21.0723 14.4077 20.3764C14.4076 20.2733 14.4203 20.1706 14.4452 20.0707L14.5052 19.8289C14.6398 19.2861 15.1279 18.9058 15.687 18.908H16.3342C17.0301 18.9092 17.5932 19.4742 17.592 20.1701C17.5918 20.2727 17.5791 20.3748 17.5542 20.4743L17.4942 20.7161C17.3596 21.2575 16.873 21.6371 16.3151 21.6361ZM15.3279 20.2916C15.2812 20.4797 15.3958 20.67 15.5839 20.7167C15.6114 20.7235 15.6396 20.7269 15.6679 20.727H16.3151C16.4553 20.7274 16.5776 20.6321 16.6115 20.4961L16.6715 20.2543C16.7182 20.0662 16.6036 19.8759 16.4155 19.8292C16.388 19.8224 16.3598 19.8189 16.3315 19.8188H15.6843C15.5441 19.8185 15.4218 19.9137 15.3879 20.0498L15.3279 20.2916Z" fill="#283593"/>
<path d="M16.9088 21.6361C16.6577 21.636 16.4543 21.4324 16.4543 21.1814C16.4543 21.1444 16.4589 21.1075 16.4679 21.0715L16.9224 19.2534C16.9832 19.0097 17.23 18.8613 17.4738 18.9221C17.7175 18.9828 17.8659 19.2296 17.8051 19.4734L17.3506 21.2915C17.3 21.4943 17.1177 21.6364 16.9088 21.6361Z" fill="#283593"/>
<path d="M22.3631 21.6361C22.1121 21.636 21.9086 21.4324 21.9087 21.1814C21.9087 21.1444 21.9133 21.1075 21.9222 21.0716L22.3767 19.2625V19.2435L22.8313 17.4353C22.8818 17.2329 23.0636 17.0909 23.2722 17.0908H24.4285C25.0561 17.0907 25.5649 17.5993 25.5651 18.2269C25.5651 18.3198 25.5537 18.4124 25.5312 18.5026L25.4176 18.9571C25.2911 19.4632 24.8365 19.8181 24.3149 19.818H23.1731L22.8049 21.2916C22.7543 21.4943 22.572 21.6365 22.3631 21.6361ZM23.4003 18.9089H24.3158C24.42 18.9086 24.5107 18.8374 24.5358 18.7362L24.6494 18.2817C24.6805 18.1606 24.6076 18.0372 24.4865 18.0061C24.4679 18.0013 24.4487 17.9989 24.4294 17.999H23.6276L23.4003 18.9089Z" fill="#03A9F4"/>
<path d="M27.2238 21.6361H26.5766C25.8807 21.6362 25.3165 21.0723 25.3163 20.3764C25.3163 20.2733 25.329 20.1706 25.3539 20.0707L25.4139 19.8289C25.5485 19.2861 26.0366 18.9058 26.5957 18.908H27.2429C27.9388 18.9078 28.503 19.4718 28.5032 20.1676C28.5032 20.2707 28.4906 20.3734 28.4656 20.4734L28.4056 20.7152C28.2711 21.2579 27.7829 21.6382 27.2238 21.6361ZM26.2366 20.2916C26.1899 20.4797 26.3045 20.67 26.4926 20.7167C26.5201 20.7235 26.5483 20.7269 26.5766 20.727H27.2238C27.364 20.7274 27.4863 20.6321 27.5202 20.4961L27.5802 20.2543C27.6269 20.0662 27.5123 19.8759 27.3242 19.8292C27.2967 19.8224 27.2685 19.8189 27.2402 19.8188H26.593C26.4528 19.8185 26.3305 19.9137 26.2966 20.0498L26.2366 20.2916Z" fill="#03A9F4"/>
<path d="M27.8175 21.6361C27.5664 21.636 27.363 21.4324 27.363 21.1814C27.363 21.1444 27.3676 21.1075 27.3765 21.0715L27.8311 19.2534C27.8919 19.0097 28.1387 18.8613 28.3824 18.9221C28.6262 18.9828 28.7746 19.2296 28.7138 19.4734L28.2593 21.2915C28.2087 21.4943 28.0264 21.6364 27.8175 21.6361Z" fill="#03A9F4"/>
<path d="M19.6359 21.1814C19.4839 21.1813 19.342 21.1053 19.2577 20.9787L18.3487 19.6151C18.2094 19.4063 18.2657 19.124 18.4746 18.9847C18.6835 18.8453 18.9657 18.9017 19.1051 19.1106L20.0141 20.4742C20.1537 20.6829 20.0977 20.9651 19.889 21.1047C19.8141 21.1548 19.726 21.1815 19.6359 21.1814Z" fill="#283593"/>
<path d="M18.7268 22.5449C18.4758 22.5448 18.2724 22.3412 18.2725 22.0902C18.2725 21.984 18.3097 21.8811 18.3778 21.7995L20.6504 19.0723C20.8113 18.8795 21.098 18.8536 21.2908 19.0145C21.4836 19.1754 21.5094 19.4622 21.3485 19.655L19.0759 22.3821C18.9895 22.4855 18.8616 22.5451 18.7268 22.5449Z" fill="#283593"/>
<path d="M29.6355 21.636C29.3845 21.6359 29.181 21.4324 29.1811 21.1814C29.1811 21.1443 29.1857 21.1074 29.1946 21.0715L30.1036 17.4353C30.1644 17.1916 30.4112 17.0432 30.655 17.1039C30.8987 17.1647 31.0471 17.4115 30.9864 17.6553L30.0773 21.2915C30.0268 21.4943 29.8445 21.6364 29.6355 21.636Z" fill="#03A9F4"/>
<path d="M24.6957 4.24115C24.259 3.74093 23.6271 3.4542 22.963 3.45484H17.8178C17.5979 3.45484 17.4096 3.61216 17.3705 3.82846L15.5524 13.8281C15.5077 14.0751 15.6717 14.3115 15.9188 14.3562C15.9454 14.361 15.9725 14.3635 15.9996 14.3635H18.7268C18.9354 14.3634 19.1172 14.2214 19.1677 14.019L19.9913 10.7273H21.454C23.2419 10.7202 24.7555 9.40578 25.0129 7.63648L25.2402 6.08289C25.3339 5.41912 25.1353 4.7473 24.6957 4.24115Z" fill="#283593"/>
</g>
<defs>
<clipPath id="clip0_5841_11578">
<rect width="20" height="20" fill="white" transform="translate(11 3)"/>
</clipPath>
</defs>
</svg>
