<svg width="16" height="16" viewBox="0 0 16 16" fill="none" xmlns="http://www.w3.org/2000/svg">
<path d="M13.4535 3.12903C13.4535 3.03226 13.3888 3 13.2918 3C13.2271 3 12.0952 2.96774 12.0952 2.96774C12.0952 2.96774 11.416 2.29032 11.1573 2.03226V16L15.2 14.9677C15.2 14.9677 13.4535 3.19355 13.4535 3.12903ZM10.2194 2.03226C10.187 1.87097 10.0576 1.6129 9.99297 1.45161C9.66955 0.806452 9.15208 0.451613 8.56993 0.451613C8.53759 0.451613 8.53759 0.451613 8.53759 0.451613C8.50525 0.451613 8.44056 0.483871 8.44056 0.483871C8.40822 0.451613 8.37588 0.451613 8.37588 0.419355C8.11715 0.129032 7.79373 0 7.37329 0C6.59709 0.0322581 5.82088 0.580645 5.20639 1.58065C4.75361 2.29032 4.43019 3.16129 4.33316 3.83871C3.4276 4.12903 2.8131 4.32258 2.8131 4.32258C2.36032 4.48387 2.32798 4.48387 2.29564 4.90323C2.26329 5.22581 1.06665 14.3226 1.06665 14.3226L10.8339 16V1.87097C10.8015 1.87097 10.7368 1.87097 10.7045 1.90323C10.6721 1.90323 10.5104 1.93548 10.2194 2.03226ZM8.44056 2.58065C7.9231 2.74194 7.34094 2.93548 6.79114 3.09677C6.95284 2.48387 7.24392 1.87097 7.63202 1.48387C7.76139 1.32258 7.95544 1.16129 8.18183 1.06452C8.40822 1.51613 8.44056 2.16129 8.44056 2.58065ZM7.37329 0.548387H7.40563C7.53499 0.548387 7.72905 0.612903 7.85841 0.645161C7.63202 0.774194 7.43797 0.935484 7.24392 1.12903C6.72645 1.64516 6.37069 2.48387 6.20898 3.25806C5.7562 3.41936 5.27107 3.54839 4.85063 3.67742C5.14171 2.45161 6.17664 0.580645 7.37329 0.548387ZM5.88557 7.64516C5.91791 8.48387 8.11715 8.64516 8.24651 10.6129C8.34354 12.129 7.43797 13.1935 6.11196 13.2581C4.52721 13.3548 3.68633 12.4516 3.68633 12.4516L4.00975 11.0323C4.00975 11.0323 4.88297 11.6774 5.56215 11.6129C6.01493 11.6129 6.20898 11.2258 6.17664 10.9677C6.11196 9.87097 4.33316 9.93548 4.2038 8.16129C4.10677 6.67742 5.10937 5.16129 7.27626 5C8.11715 4.96774 8.53759 5.16129 8.53759 5.16129L8.05246 7.03226C8.05246 7.03226 7.50265 6.77419 6.82348 6.80645C5.88557 6.87097 5.85323 7.48387 5.88557 7.64516ZM8.95803 2.41935C8.95803 2.03226 8.89335 1.48387 8.73164 1.03226C9.31379 1.12903 9.60487 1.80645 9.73423 2.19355C9.50784 2.25806 9.24911 2.35484 8.95803 2.41935Z" fill="#95BF47"/>
</svg>
