<svg width="32" height="32" viewBox="0 0 32 32" fill="none" xmlns="http://www.w3.org/2000/svg">
<circle cx="16" cy="16" r="16" fill="#FFFAE9"/>
<g clip-path="url(#clip0_3911_12595)">
<path d="M17.6202 24.3845C17.6202 22.9637 16.4643 21.8119 15.0384 21.8119C13.6124 21.8119 12.4565 22.9637 12.4565 24.3845C12.4565 25.8053 13.6124 26.9571 15.0384 26.9571C16.4643 26.9571 17.6202 25.8053 17.6202 24.3845Z" fill="#F7C92B"/>
<path d="M15.038 21.8119C14.777 21.8119 14.5251 21.8508 14.2876 21.9227C15.3474 22.2429 16.119 23.2236 16.119 24.3845C16.119 25.5451 15.3474 26.526 14.2876 26.8463C14.5251 26.9181 14.777 26.9571 15.038 26.9571C16.464 26.9571 17.6198 25.8053 17.6198 24.3845C17.6198 22.9637 16.464 21.8119 15.038 21.8119Z" fill="#F2B51D"/>
<path d="M15.3397 9.36996C14.5104 9.53596 13.7033 9.00087 13.5367 8.17456C13.37 7.34842 13.9072 6.5441 14.7363 6.3781C15.5654 6.2121 16.3726 6.74719 16.5393 7.5735C16.7058 8.39964 16.1688 9.20396 15.3397 9.36996Z" fill="#F7C92B"/>
<path d="M16.5397 7.5735C16.373 6.74719 15.5658 6.2121 14.7367 6.3781C14.6595 6.39354 14.585 6.41469 14.5132 6.44054C14.9972 6.61711 15.3805 7.03303 15.4894 7.5735C15.6406 8.32277 15.2128 9.05408 14.5134 9.30753C14.7693 9.40085 15.0534 9.42737 15.3401 9.36996C16.1692 9.20396 16.7062 8.39964 16.5397 7.5735Z" fill="#F2B51D"/>
<path d="M21.4328 23.954H8.64337C7.49894 23.954 6.57129 23.0297 6.57129 21.8895C6.57129 21.2582 6.85803 20.6608 7.35112 20.2646L7.76197 19.9342C8.71233 19.1705 9.26495 18.0193 9.26495 16.8027V14.633C9.26495 11.4316 11.8693 8.83655 15.0821 8.83655C18.2948 8.83655 20.8993 11.4316 20.8993 14.633V16.8428C20.8993 18.0364 21.4312 19.1685 22.3513 19.9329L22.7514 20.2652C23.2289 20.6618 23.5048 21.2493 23.5048 21.8687V21.8895C23.5048 23.0297 22.5772 23.954 21.4328 23.954Z" fill="#F7E249"/>
<path d="M22.7512 20.2652L22.3511 19.9328C21.431 19.1683 20.8991 18.0363 20.8991 16.8426V14.6327C20.8991 11.4315 18.2946 8.8363 15.0819 8.8363C14.5126 8.8363 13.9627 8.91821 13.4429 9.07011C15.8575 9.77524 17.621 11.9987 17.621 14.6327V16.8426C17.621 18.0363 18.153 19.1683 19.073 19.9328L19.4733 20.2652C19.9506 20.6618 20.2267 21.2492 20.2267 21.8686V21.8894C20.2267 23.0296 19.2991 23.9539 18.1546 23.9539H21.4327C22.577 23.9539 23.5046 23.0296 23.5046 21.8894V21.8686C23.5046 21.2492 23.2286 20.6618 22.7512 20.2652Z" fill="#F7C92B"/>
<path d="M25.4961 9.93184C25.4961 7.18436 23.2609 4.95703 20.5035 4.95703C17.7461 4.95703 15.5107 7.18436 15.5107 9.93184C15.5107 12.6793 17.7461 14.9066 20.5035 14.9066C23.2609 14.9066 25.4961 12.6793 25.4961 9.93184Z" fill="#F2545D"/>
<path d="M21.8437 5.13843C23.1169 6.03993 23.9475 7.52151 23.9475 9.19646C23.9475 11.9439 21.7123 14.1713 18.9549 14.1713C18.4908 14.1713 18.0416 14.108 17.6152 13.9898C18.4305 14.5672 19.4275 14.9066 20.504 14.9066C23.2612 14.9066 25.4966 12.6793 25.4966 9.93179C25.4966 7.64673 23.9504 5.72186 21.8437 5.13843Z" fill="#CC474E"/>
<path d="M20.5039 12.2553C20.3114 12.2553 20.1553 12.0999 20.1553 11.908V8.55816L20.0253 8.67649C19.883 8.80573 19.6626 8.79566 19.5329 8.65383C19.4032 8.51217 19.4133 8.29246 19.5556 8.16322L20.269 7.51499C20.3711 7.42234 20.5182 7.39834 20.6447 7.4539C20.771 7.50945 20.8524 7.634 20.8524 7.77163V11.908C20.8524 12.0999 20.6963 12.2553 20.5039 12.2553Z" fill="#E3FAFF"/>
</g>
<defs>
<clipPath id="clip0_3911_12595">
<rect width="22" height="22" fill="white" transform="translate(5 5)"/>
</clipPath>
</defs>
</svg>
