<svg width="11" height="11" viewBox="0 0 11 11" fill="none" xmlns="http://www.w3.org/2000/svg">
<path d="M7.03125 5L10.25 1.8125L10.9062 1.15625C11 1.0625 11 0.90625 10.9062 0.78125L10.2188 0.09375C10.0938 0 9.9375 0 9.84375 0.09375L6 3.96875L2.125 0.09375C2.03125 0 1.875 0 1.75 0.09375L1.0625 0.78125C0.96875 0.90625 0.96875 1.0625 1.0625 1.15625L4.9375 5L1.0625 8.875C0.96875 8.96875 0.96875 9.125 1.0625 9.25L1.75 9.9375C1.875 10.0312 2.03125 10.0312 2.125 9.9375L6 6.0625L9.1875 9.28125L9.84375 9.9375C9.9375 10.0312 10.0938 10.0312 10.2188 9.9375L10.9062 9.25C11 9.125 11 8.96875 10.9062 8.875L7.03125 5Z" fill="#CECECE"/>
</svg>
