<svg width="63" height="55" viewBox="0 0 63 55" fill="none" xmlns="http://www.w3.org/2000/svg">
<g clip-path="url(#clip0_5_469)">
<path opacity="0.2" d="M10.742 47.7924L0 41.707L17.8224 30.8898L37.114 20.8708L37.7387 55L10.742 47.7924Z" fill="#A9A9AB"/>
<path d="M37.7386 54.9998L12.7202 40.5557V14.444L37.7386 28.8939V54.9998Z" fill="#B76F3F"/>
<path opacity="0.1" d="M12.7202 14.444V40.5557L37.7386 54.9998L13.4433 40.145L12.7202 14.444Z" fill="#8C4320"/>
<path opacity="0.5" d="M23.231 46.7104V20.512L27.205 22.8085V49.2267L23.231 46.7104Z" fill="#9C480C"/>
<path d="M37.7386 28.8941L12.7202 14.4442L37.7386 0L62.7628 14.4442L37.7386 28.8941Z" fill="#EFD995"/>
<path d="M60.9175 14.4442L37.8138 27.7372L12.7202 14.4442L37.7386 28.8941L62.7628 14.4442L37.7386 0L60.9175 14.4442Z" fill="#FFEDB4"/>
<path d="M23.8901 8.08127L52.9115 24.7467L57.3078 22.2478L24.0058 7.96558L23.8901 8.08127Z" fill="#DAC176"/>
<path d="M27.9799 5.67456L38.3575 11.4707L34.233 13.8424L24.0059 7.96526L27.9799 5.67456Z" fill="#E6E1E4"/>
<path d="M57.4176 22.1375L53.0213 24.6306L38.3921 16.2256L42.6322 13.8655L57.4176 22.1375Z" fill="#E6E1E4"/>
<path d="M26.8691 22.6524L52.7321 8.23718L52.6685 8.61897L27.2046 22.8086L26.8691 22.6524Z" fill="#E1CD8E"/>
<path d="M42.6326 13.8657L38.3925 16.2258L34.2334 13.8425L38.3578 11.4708L42.6326 13.8657Z" fill="#F9F9F9"/>
<path d="M34.2333 13.8427L38.3924 16.2259L26.8637 22.6526L22.8896 20.3561L34.2333 13.8427Z" fill="#F1F1F1"/>
<path d="M52.7379 8.2373L42.6322 13.8657L38.3574 11.4709L48.3359 5.74414L52.7379 8.2373Z" fill="#F1F1F1"/>
<path d="M22.8955 46.5489V20.3562L26.8695 22.6527V49.071L22.8955 46.5489Z" fill="#B3A4AD"/>
<path d="M37.7388 54.9998L62.763 40.5557V14.444L37.7388 28.8939V54.9998Z" fill="#D9AF6A"/>
<path opacity="0.2" d="M37.7388 55L62.763 40.5558V40.1046L37.7388 54.5546V55Z" fill="#9D6F40"/>
<path d="M39.2251 36.4606L46.3517 32.3419V26.3838L39.3581 30.1264L39.2251 30.5024V36.4606Z" fill="#AA5C26"/>
<path d="M53.1951 46.0688V19.9686L48.9087 22.4387V48.5388L53.1951 46.0688Z" fill="#DAC176"/>
<path d="M53.3572 46.1613V19.8702L49.0708 22.3461V48.6371L53.3572 46.1613Z" fill="#D6D6D6"/>
<path d="M20.2462 28.9867L14.4385 25.6259V17.0704L20.2462 20.4313V28.9867ZM14.9707 25.3193L19.714 28.0612V20.7379L14.9707 17.996V25.3193Z" fill="#A45823"/>
<path d="M16.2373 24.8161L18.2156 25.9556V23.6129L16.2373 22.4675V24.8161Z" fill="#A45823"/>
<path d="M15.2715 21.9295L19.1761 24.1855L17.2267 20.1016L15.2715 21.9295Z" fill="#A45823"/>
<path d="M39.503 30.2359L46.6297 26.1172L46.485 26.0073L39.3584 30.126L39.503 30.2359Z" fill="#FEFEFE"/>
<path d="M39.503 36.1943V30.2361L39.3584 30.1262V36.0786L39.503 36.1943Z" fill="#8B8B8B"/>
<path d="M39.5029 36.1942L46.6296 32.0756V26.1174L39.5029 30.2361V36.1942Z" fill="#D6D6D6"/>
<path d="M39.9023 31.0461L46.2307 27.3903V27.0143L39.9023 30.6701V31.0461Z" fill="#6F6F6F"/>
<path d="M42.5225 31.2022L46.2304 29.0619V28.6859L42.5225 30.8204V31.2022Z" fill="#8E8E8E"/>
<path d="M39.9253 35.2107L41.8574 34.0943V30.8896L39.9253 32.0061V35.2107Z" fill="#8E8E8E"/>
<path d="M42.5225 32.0178L46.2304 29.8832V29.5015L42.5225 31.6418V32.0178Z" fill="#8E8E8E"/>
<path d="M42.5225 32.8392L46.2304 30.6989V30.3229L42.5225 32.4632V32.8392Z" fill="#8E8E8E"/>
<path d="M42.5225 33.6606L46.2304 31.5203V31.1443L42.5225 33.2846V33.6606Z" fill="#8E8E8E"/>
<path d="M49.9443 17.9557L52.8192 19.8704L49.0708 22.0338V22.3462L53.3572 19.8704L49.9443 17.9557Z" fill="#F1F1F1"/>
</g>
<defs>
<clipPath id="clip0_5_469">
<rect width="62.7629" height="55" fill="white"/>
</clipPath>
</defs>
</svg>
