<svg width="20" height="21" viewBox="0 0 20 21" fill="none" xmlns="http://www.w3.org/2000/svg">
<path d="M20 1.11447V19.0949C20 19.7131 19.5045 20.2094 18.8973 20.2094H13.7991V12.3855H16.3973L16.7857 9.33539H13.7946V7.3862C13.7946 6.50184 14.0357 5.90174 15.2902 5.90174H16.8884V3.17196C16.6116 3.13586 15.6652 3.05013 14.558 3.05013C12.2545 3.05013 10.6741 4.47142 10.6741 7.08389V9.33539H8.06696V12.3855H10.6741V20.2139H1.10268C0.495536 20.2139 0 19.7131 0 19.0994V1.11447C0 0.500836 0.495536 0 1.10268 0H18.8929C19.5045 0 20 0.500836 20 1.11447Z" fill="#8F90A6"/>
</svg>
