<svg width="44" height="54" viewBox="0 0 44 54" fill="none" xmlns="http://www.w3.org/2000/svg">
<path opacity="0.05" d="M33.8762 2.28453L33.8742 2.28353C33.8573 2.27355 33.8404 2.26357 33.8235 2.25459L30.3982 0.278478C29.8214 -0.111754 29.0457 -0.106764 28.1923 0.388262L3.2263 14.8548C1.44408 15.8868 0 18.6563 0 21.0396V46.0943C0 47.3718 0.415719 48.279 1.07411 48.6872L4.51523 50.6613C4.63458 50.7531 4.76287 50.827 4.89912 50.8819H4.90012C5.43419 51.0965 6.09357 51.0256 6.80666 50.6124L31.7737 36.1469C33.5549 35.1149 35 32.3454 35 29.9611V4.90637C34.999 3.59794 34.5644 2.67875 33.8762 2.28453Z" fill="black"/>
<path d="M42.8762 5.28453L42.8742 5.28353C42.8573 5.27355 42.8404 5.26357 42.8235 5.25459L39.3982 3.27848C38.8214 2.88825 38.0457 2.89324 37.1923 3.38826L12.2263 17.8548C10.4441 18.8868 9 21.6563 9 24.0396V49.0943C9 50.3718 9.41572 51.279 10.0741 51.6872L13.5152 53.6613C13.6346 53.7531 13.7629 53.827 13.8991 53.8819H13.9001C14.4342 54.0965 15.0936 54.0256 15.8067 53.6124L40.7737 39.1469C42.5549 38.1149 44 35.3454 44 32.9611V7.90637C43.999 6.59795 43.5644 5.67875 42.8762 5.28453Z" fill="#CAA522"/>
<path d="M40.8168 5.38944L16.1822 19.8758C14.4248 20.9093 13 23.6828 13 26.0696V51.1604C13 53.5472 14.4248 54.6446 16.1832 53.6111L40.8168 39.1247C42.5742 38.0913 44 35.3177 44 32.93V7.84015C43.999 5.45241 42.5752 4.35498 40.8168 5.38944Z" fill="#F2C935"/>
<path d="M40.6899 5.39081L15.9903 19.9643C15.3174 20.3615 14.6936 21.0141 14.1791 21.8024C14.1181 21.9029 14.0571 22.0065 14 22.111L24.5764 30.3902C26.8137 32.1418 30.4598 29.99 32.6981 25.5981L43 5.37773C42.4185 4.89007 41.599 4.85388 40.6899 5.39081Z" fill="#E9BE25"/>
</svg>
