<svg width="20" height="20" viewBox="0 0 20 20" fill="none" xmlns="http://www.w3.org/2000/svg">
<path fill-rule="evenodd" clip-rule="evenodd" d="M19.9297 5.87507C19.8539 4.27329 19.488 2.85443 18.3146 1.68544C17.1456 0.516453 15.7267 0.150586 14.1249 0.0702733C12.4741 -0.0234244 7.52593 -0.0234244 5.87507 0.0702733C4.27775 0.146124 2.8589 0.511991 1.68544 1.68098C0.511991 2.84997 0.150586 4.26882 0.0702733 5.87061C-0.0234244 7.52147 -0.0234244 12.4696 0.0702733 14.1205C0.146124 15.7223 0.511991 17.1411 1.68544 18.3101C2.8589 19.4791 4.27328 19.845 5.87507 19.9253C7.52593 20.019 12.4741 20.019 14.1249 19.9253C15.7267 19.8494 17.1456 19.4835 18.3146 18.3101C19.4835 17.1411 19.8494 15.7223 19.9297 14.1205C20.0234 12.4696 20.0234 7.52593 19.9297 5.87507ZM15.3385 5.85722C15.9989 5.85722 16.5343 5.32627 16.5343 4.66146C16.5343 4.00112 15.9989 3.4657 15.3385 3.4657C14.6782 3.4657 14.1428 4.00112 14.1428 4.66146C14.1428 5.32181 14.6737 5.85722 15.3385 5.85722ZM10.0022 4.87117C7.16453 4.87117 4.87563 7.16007 4.87563 9.99777C4.87563 12.8355 7.16453 15.1244 10.0022 15.1244C12.8399 15.1244 15.1288 12.8355 15.1288 9.99777C15.1288 7.16007 12.8399 4.87117 10.0022 4.87117ZM10.0022 13.3307C8.16843 13.3307 6.66927 11.836 6.66927 9.99777C6.66927 8.15951 8.16397 6.66481 10.0022 6.66481C11.8405 6.66481 13.3352 8.15951 13.3352 9.99777C13.3352 11.836 11.836 13.3307 10.0022 13.3307ZM15.8963 17.7925C16.7752 17.44 17.449 16.7663 17.797 15.8918C18.2447 14.7667 18.2198 12.3056 18.2037 10.7102C18.201 10.4455 18.1985 10.2047 18.1985 9.99777C18.1985 9.79078 18.201 9.55 18.2037 9.28545C18.2198 7.69092 18.2447 5.23266 17.797 4.10374C17.4445 3.22476 16.7708 2.55103 15.8963 2.20301C14.7676 1.75769 12.2945 1.78141 10.6996 1.79671C10.4409 1.79919 10.2053 1.80145 10.0022 1.80145C9.79524 1.80145 9.55447 1.79901 9.28991 1.79633C7.69538 1.78017 5.23712 1.75527 4.1082 2.20301C3.22922 2.55549 2.55549 3.22922 2.20747 4.10374C1.76215 5.2324 1.78587 7.70545 1.80117 9.30037C1.80365 9.55911 1.80591 9.79474 1.80591 9.99777C1.80591 10.2048 1.80347 10.4455 1.80079 10.7101C1.78464 12.3046 1.75973 14.7629 2.20747 15.8918C2.55996 16.7708 3.23369 17.4445 4.1082 17.7925C5.23687 18.2379 7.70991 18.2141 9.30483 18.1988C9.56357 18.1963 9.7992 18.1941 10.0022 18.1941C10.2092 18.1941 10.45 18.1965 10.7145 18.1992C12.3091 18.2154 14.7673 18.2403 15.8963 17.7925Z" fill="#8F90A6"/>
</svg>
