<svg width="26" height="26" viewBox="0 0 26 26" fill="none" xmlns="http://www.w3.org/2000/svg">
<circle cx="13" cy="13" r="11" fill="#EBF1FF"/>
<g filter="url(#filter0_d_1068_6253)">
<circle cx="13" cy="13" r="8" fill="white"/>
<circle cx="13" cy="13" r="7.5" stroke="#5B86E5"/>
</g>
<path d="M14.4062 16.7188C14.4062 15.9453 13.7734 15.3125 13 15.3125C12.209 15.3125 11.5938 15.9453 11.5938 16.7188C11.5938 17.5098 12.209 18.125 13 18.125C13.7734 18.125 14.4062 17.5098 14.4062 16.7188ZM11.752 9.58203L11.9805 14.3633C11.998 14.5742 12.1914 14.75 12.4023 14.75H13.5801C13.791 14.75 13.9844 14.5742 14.002 14.3633L14.2305 9.58203C14.248 9.33594 14.0547 9.125 13.8086 9.125H12.1738C11.9277 9.125 11.7344 9.33594 11.752 9.58203Z" fill="#5B86E5"/>
<defs>
<filter id="filter0_d_1068_6253" x="0" y="0" width="26" height="26" filterUnits="userSpaceOnUse" color-interpolation-filters="sRGB">
<feFlood flood-opacity="0" result="BackgroundImageFix"/>
<feColorMatrix in="SourceAlpha" type="matrix" values="0 0 0 0 0 0 0 0 0 0 0 0 0 0 0 0 0 0 127 0" result="hardAlpha"/>
<feOffset/>
<feGaussianBlur stdDeviation="2.5"/>
<feColorMatrix type="matrix" values="0 0 0 0 0.104219 0 0 0 0 0.26 0 0 0 0 0.604167 0 0 0 0.39 0"/>
<feBlend mode="normal" in2="BackgroundImageFix" result="effect1_dropShadow_1068_6253"/>
<feBlend mode="normal" in="SourceGraphic" in2="effect1_dropShadow_1068_6253" result="shape"/>
</filter>
</defs>
</svg>
