<svg width="18" height="14" viewBox="0 0 18 14" fill="none" xmlns="http://www.w3.org/2000/svg">
<path opacity="0.8" d="M15 12H4.5C3.09375 12 2 10.9062 2 9.5V3H1.5C0.65625 3 0 3.6875 0 4.5V12.5C0 13.3438 0.65625 14 1.5 14H13.5C14.3125 14 15 13.3438 15 12.5V12ZM18 9.5V1.5C18 0.6875 17.3125 0 16.5 0H4.5C3.65625 0 3 0.6875 3 1.5V9.5C3 10.3438 3.65625 11 4.5 11H16.5C17.3125 11 18 10.3438 18 9.5ZM8 3C8 3.84375 7.3125 4.5 6.5 4.5C5.65625 4.5 5 3.84375 5 3C5 2.1875 5.65625 1.5 6.5 1.5C7.3125 1.5 8 2.1875 8 3ZM5 7.5L6.71875 5.78125C6.875 5.625 7.09375 5.625 7.25 5.78125L8.5 7L12.7188 2.78125C12.875 2.625 13.0938 2.625 13.25 2.78125L16 5.5V9H5V7.5Z" fill="white"/>
</svg>