<svg width="320" height="320" viewBox="0 0 320 320" fill="none" xmlns="http://www.w3.org/2000/svg">
<rect width="320" height="320" fill="#F7FAFF"/>
<g opacity="0.3" clip-path="url(#clip0_718_5169)">
<g opacity="0.5">
<path opacity="0.0244" d="M160 238.327C207.403 238.327 245.831 229.254 245.831 218.061C245.831 206.869 207.403 197.796 160 197.796C112.597 197.796 74.1687 206.869 74.1687 218.061C74.1687 229.254 112.597 238.327 160 238.327Z" fill="#FBFCFE"/>
<path opacity="0.0488" d="M160 239.886C206.254 239.886 243.75 230.812 243.75 219.62C243.75 208.428 206.254 199.354 160 199.354C113.746 199.354 76.2493 208.428 76.2493 219.62C76.2493 230.812 113.746 239.886 160 239.886Z" fill="#F8FAFE"/>
<path opacity="0.0732" d="M160.52 238.327C205.912 238.327 242.71 229.602 242.71 218.841C242.71 208.079 205.912 199.354 160.52 199.354C115.128 199.354 78.3301 208.079 78.3301 218.841C78.3301 229.602 115.128 238.327 160.52 238.327Z" fill="#F4F7FD"/>
<path opacity="0.0976" d="M160.52 238.327C204.763 238.327 240.629 229.602 240.629 218.841C240.629 208.079 204.763 199.354 160.52 199.354C116.277 199.354 80.4109 208.079 80.4109 218.841C80.4109 229.602 116.277 238.327 160.52 238.327Z" fill="#F1F5FC"/>
<path opacity="0.122" d="M159.48 238.327C202.574 238.327 237.508 229.952 237.508 219.62C237.508 209.289 202.574 200.914 159.48 200.914C116.386 200.914 81.4514 209.289 81.4514 219.62C81.4514 229.952 116.386 238.327 159.48 238.327Z" fill="#EDF2FC"/>
<path opacity="0.1463" d="M159.48 236.768C201.424 236.768 235.427 228.742 235.427 218.841C235.427 208.94 201.424 200.914 159.48 200.914C117.535 200.914 83.532 208.94 83.532 218.841C83.532 228.742 117.535 236.768 159.48 236.768Z" fill="#E9F0FB"/>
<path opacity="0.1707" d="M159.48 236.768C200.275 236.768 233.347 228.742 233.347 218.841C233.347 208.94 200.275 200.914 159.48 200.914C118.684 200.914 85.6128 208.94 85.6128 218.841C85.6128 228.742 118.684 236.768 159.48 236.768Z" fill="#E6EDFA"/>
<path opacity="0.1951" d="M160 235.209C199.934 235.209 232.306 227.532 232.306 218.061C232.306 208.591 199.934 200.914 160 200.914C120.066 200.914 87.6936 208.591 87.6936 218.061C87.6936 227.532 120.066 235.209 160 235.209Z" fill="#E2EBFA"/>
<path opacity="0.2195" d="M160 236.768C198.785 236.768 230.226 229.091 230.226 219.62C230.226 210.15 198.785 202.473 160 202.473C121.216 202.473 89.7744 210.15 89.7744 219.62C89.7744 229.091 121.216 236.768 160 236.768Z" fill="#DFE8F9"/>
<path opacity="0.2439" d="M160 235.209C197.636 235.209 228.145 227.881 228.145 218.841C228.145 209.801 197.636 202.473 160 202.473C122.365 202.473 91.8552 209.801 91.8552 218.841C91.8552 227.881 122.365 235.209 160 235.209Z" fill="#DBE6F8"/>
<path opacity="0.2683" d="M160 233.65C196.486 233.65 226.064 226.671 226.064 218.061C226.064 209.452 196.486 202.473 160 202.473C123.514 202.473 93.9358 209.452 93.9358 218.061C93.9358 226.671 123.514 233.65 160 233.65Z" fill="#D8E3F7"/>
<path opacity="0.2927" d="M160.52 235.209C196.144 235.209 225.024 228.23 225.024 219.62C225.024 211.011 196.144 204.031 160.52 204.031C124.896 204.031 96.0166 211.011 96.0166 219.62C96.0166 228.23 124.896 235.209 160.52 235.209Z" fill="#D4E1F7"/>
<path opacity="0.3171" d="M160.52 233.65C194.995 233.65 222.943 227.02 222.943 218.841C222.943 210.662 194.995 204.031 160.52 204.031C126.045 204.031 98.0974 210.662 98.0974 218.841C98.0974 227.02 126.045 233.65 160.52 233.65Z" fill="#D0DEF6"/>
<path opacity="0.3415" d="M160.52 233.65C193.846 233.65 220.862 227.02 220.862 218.841C220.862 210.662 193.846 204.031 160.52 204.031C127.194 204.031 100.178 210.662 100.178 218.841C100.178 227.02 127.194 233.65 160.52 233.65Z" fill="#CDDCF5"/>
<path opacity="0.3659" d="M159.48 233.65C191.657 233.65 217.741 227.369 217.741 219.62C217.741 211.872 191.657 205.59 159.48 205.59C127.303 205.59 101.219 211.872 101.219 219.62C101.219 227.369 127.303 233.65 159.48 233.65Z" fill="#C9D9F5"/>
<path opacity="0.3902" d="M159.48 232.091C190.507 232.091 215.66 226.159 215.66 218.841C215.66 211.523 190.507 205.59 159.48 205.59C128.452 205.59 103.299 211.523 103.299 218.841C103.299 226.159 128.452 232.091 159.48 232.091Z" fill="#C6D7F4"/>
<path opacity="0.4146" d="M160 232.091C190.166 232.091 214.62 226.159 214.62 218.841C214.62 211.523 190.166 205.59 160 205.59C129.834 205.59 105.38 211.523 105.38 218.841C105.38 226.159 129.834 232.091 160 232.091Z" fill="#C2D4F3"/>
<path opacity="0.439" d="M160 230.532C189.016 230.532 212.539 224.949 212.539 218.061C212.539 211.174 189.016 205.59 160 205.59C130.983 205.59 107.461 211.174 107.461 218.061C107.461 224.949 130.983 230.532 160 230.532Z" fill="#BED2F3"/>
<path opacity="0.4634" d="M160 232.091C187.867 232.091 210.458 226.508 210.458 219.62C210.458 212.733 187.867 207.149 160 207.149C132.132 207.149 109.542 212.733 109.542 219.62C109.542 226.508 132.132 232.091 160 232.091Z" fill="#BBCFF2"/>
<path opacity="0.4878" d="M160 230.532C186.718 230.532 208.378 225.298 208.378 218.841C208.378 212.384 186.718 207.149 160 207.149C133.282 207.149 111.622 212.384 111.622 218.841C111.622 225.298 133.282 230.532 160 230.532Z" fill="#B7CDF1"/>
<path opacity="0.5122" d="M206.297 218.061C206.297 224.084 185.565 228.974 160 228.974C134.435 228.974 113.703 224.084 113.703 218.061C113.703 212.039 134.435 207.149 160 207.149C185.575 207.165 206.297 212.039 206.297 218.061Z" fill="#B4CAF1"/>
<path opacity="0.5366" d="M160.52 230.532C185.227 230.532 205.256 225.647 205.256 219.62C205.256 213.594 185.227 208.708 160.52 208.708C135.813 208.708 115.784 213.594 115.784 219.62C115.784 225.647 135.813 230.532 160.52 230.532Z" fill="#B0C8F0"/>
<path opacity="0.561" d="M203.176 218.841C203.176 224.435 184.082 228.974 160.52 228.974C136.958 228.974 117.865 224.435 117.865 218.841C117.865 213.246 136.958 208.708 160.52 208.708C184.071 208.708 203.176 213.246 203.176 218.841Z" fill="#ADC5EF"/>
<path opacity="0.5854" d="M200.055 218.061C200.055 223.234 181.886 227.415 159.48 227.415C137.074 227.415 118.905 223.219 118.905 218.061C118.905 212.889 137.074 208.708 159.48 208.708C181.886 208.708 200.055 212.904 200.055 218.061Z" fill="#A9C3EF"/>
<path opacity="0.6098" d="M197.974 219.62C197.974 224.777 180.741 228.973 159.48 228.973C138.219 228.973 120.986 224.793 120.986 219.62C120.986 214.463 138.219 210.266 159.48 210.266C180.741 210.282 197.974 214.463 197.974 219.62Z" fill="#A5C0EE"/>
<path opacity="0.6341" d="M160 227.414C180.398 227.414 196.933 223.576 196.933 218.84C196.933 214.105 180.398 210.266 160 210.266C139.602 210.266 123.066 214.105 123.066 218.84C123.066 223.576 139.602 227.414 160 227.414Z" fill="#A2BEED"/>
<path opacity="0.6585" d="M194.853 218.84C194.853 223.585 179.25 227.414 159.995 227.414C140.75 227.431 125.147 223.585 125.147 218.84C125.147 214.095 140.75 210.266 160.005 210.266C179.25 210.266 194.853 214.112 194.853 218.84Z" fill="#9EBBED"/>
<path opacity="0.6829" d="M160 225.855C178.099 225.855 192.772 222.366 192.772 218.061C192.772 213.756 178.099 210.266 160 210.266C141.901 210.266 127.228 213.756 127.228 218.061C127.228 222.366 141.901 225.855 160 225.855Z" fill="#9BB9EC"/>
<path opacity="0.7073" d="M190.691 218.841C190.691 222.718 176.951 225.856 160 225.856C143.049 225.856 129.309 222.718 129.309 218.841C129.309 214.964 143.049 211.826 160 211.826C176.951 211.841 190.691 214.979 190.691 218.841Z" fill="#97B6EB"/>
<path opacity="0.7317" d="M188.611 218.841C188.611 222.711 175.806 225.856 160 225.856C144.204 225.856 131.39 222.711 131.39 218.841C131.39 214.971 144.194 211.826 160 211.826C175.806 211.826 188.611 214.971 188.611 218.841Z" fill="#93B4EB"/>
<path opacity="0.7561" d="M160.52 224.297C175.459 224.297 187.57 221.505 187.57 218.061C187.57 214.618 175.459 211.826 160.52 211.826C145.581 211.826 133.47 214.618 133.47 218.061C133.47 221.505 145.581 224.297 160.52 224.297Z" fill="#90B1EA"/>
<path opacity="0.7805" d="M185.489 219.62C185.489 223.053 174.313 225.856 160.52 225.856C146.727 225.856 135.551 223.069 135.551 219.62C135.551 216.187 146.727 213.385 160.52 213.385C174.302 213.401 185.489 216.187 185.489 219.62Z" fill="#8CAFE9"/>
<path opacity="0.8049" d="M159.48 224.297C172.121 224.297 182.368 221.854 182.368 218.841C182.368 215.827 172.121 213.385 159.48 213.385C146.839 213.385 136.592 215.827 136.592 218.841C136.592 221.854 146.839 224.297 159.48 224.297Z" fill="#89ACE8"/>
<path opacity="0.8293" d="M180.287 218.061C180.287 220.651 170.972 222.738 159.48 222.738C147.988 222.738 138.672 220.636 138.672 218.061C138.672 215.471 147.988 213.385 159.48 213.385C170.972 213.385 180.287 215.486 180.287 218.061Z" fill="#85AAE8"/>
<path opacity="0.8537" d="M159.48 224.297C169.822 224.297 178.207 222.203 178.207 219.62C178.207 217.037 169.822 214.943 159.48 214.943C149.137 214.943 140.753 217.037 140.753 219.62C140.753 222.203 149.137 224.297 159.48 224.297Z" fill="#82A7E7"/>
<path opacity="0.878" d="M177.166 218.84C177.166 220.994 169.481 222.738 159.995 222.738C150.519 222.738 142.834 220.994 142.834 218.84C142.834 216.687 150.519 214.943 160.005 214.943C169.481 214.958 177.166 216.702 177.166 218.84Z" fill="#7EA5E6"/>
<path opacity="0.9024" d="M160 222.738C168.332 222.738 175.086 220.993 175.086 218.84C175.086 216.688 168.332 214.943 160 214.943C151.669 214.943 144.915 216.688 144.915 218.84C144.915 220.993 151.669 222.738 160 222.738Z" fill="#7AA2E6"/>
<path opacity="0.9268" d="M160 221.179C167.182 221.179 173.005 219.783 173.005 218.061C173.005 216.339 167.182 214.943 160 214.943C152.818 214.943 146.995 216.339 146.995 218.061C146.995 219.783 152.818 221.179 160 221.179Z" fill="#77A0E5"/>
<path opacity="0.9512" d="M170.924 218.841C170.924 220.129 166.037 221.179 160 221.179C153.963 221.179 149.076 220.129 149.076 218.841C149.076 217.553 153.963 216.502 160 216.502C166.037 216.502 170.924 217.553 170.924 218.841Z" fill="#739DE4"/>
<path opacity="0.9756" d="M169.884 218.841C169.884 220.129 165.689 221.179 160.52 221.179C155.352 221.179 151.157 220.129 151.157 218.841C151.157 217.553 155.352 216.502 160.52 216.502C165.689 216.519 169.884 217.553 169.884 218.841Z" fill="#709BE4"/>
<path opacity="0.5" d="M167.803 218.061C167.803 218.927 164.544 219.62 160.52 219.62C156.497 219.62 153.238 218.927 153.238 218.061C153.238 217.195 156.497 216.502 160.52 216.502C164.533 216.502 167.803 217.21 167.803 218.061Z" fill="#6C98E3"/>
</g>
<path d="M172.954 129.205C172.769 129.205 172.616 129.046 172.616 128.855V105.837C172.616 93.3102 162.769 83.1206 150.664 83.1206C138.559 83.1206 128.713 93.3102 128.713 105.837V128.855C128.713 129.046 128.559 129.205 128.375 129.205H126.885C126.7 129.205 126.547 129.046 126.547 128.855V105.837C126.547 92.0703 137.361 80.8792 150.664 80.8792C163.967 80.8792 174.782 92.0703 174.782 105.837V128.855C174.782 129.046 174.628 129.205 174.444 129.205H172.954Z" fill="#6C98E3"/>
<path d="M131.214 219.62H101.651V112.817C101.651 111.532 102.688 110.498 103.977 110.498H131.199V219.62H131.214Z" fill="url(#paint0_linear_718_5169)"/>
<path d="M129.658 219.62H210.589C211.435 219.62 212.125 218.93 212.125 218.084V112.018C212.125 111.187 211.451 110.498 210.605 110.498H129.658V219.62Z" fill="url(#paint1_linear_718_5169)"/>
<path d="M115.655 219.62H101.651V112.034C101.651 111.187 102.307 110.498 103.111 110.498H115.655V219.62Z" fill="url(#paint2_linear_718_5169)"/>
<path d="M131.214 219.62H101.651L116.441 202.472L131.214 219.62Z" fill="url(#paint3_linear_718_5169)"/>
<path d="M154.554 128.425C154.554 131.438 152.115 133.881 149.108 133.881C146.101 133.881 143.662 131.438 143.662 128.425C143.662 125.413 146.101 122.969 149.108 122.969C152.115 122.969 154.554 125.413 154.554 128.425Z" fill="#89ADE9"/>
<path d="M201.233 128.425C201.233 131.438 198.794 133.881 195.787 133.881C192.78 133.881 190.341 131.438 190.341 128.425C190.341 125.413 192.78 122.969 195.787 122.969C198.794 122.969 201.233 125.413 201.233 128.425Z" fill="#89ADE9"/>
<path d="M194.737 129.205C194.553 129.205 194.399 129.046 194.399 128.855V105.837C194.399 93.3102 184.552 83.1206 172.448 83.1206C160.343 83.1206 150.496 93.3102 150.496 105.837V128.855C150.496 129.046 150.342 129.205 150.158 129.205H148.668C148.484 129.205 148.33 129.046 148.33 128.855V105.837C148.33 92.0703 159.145 80.8792 172.448 80.8792C185.751 80.8792 196.565 92.0703 196.565 105.837V128.855C196.565 129.046 196.411 129.205 196.227 129.205H194.737Z" fill="#6C98E3"/>
</g>
<defs>
<linearGradient id="paint0_linear_718_5169" x1="101.654" y1="165.064" x2="131.211" y2="165.064" gradientUnits="userSpaceOnUse">
<stop stop-color="#E3EDFE"/>
<stop offset="1" stop-color="#B3CDFA"/>
</linearGradient>
<linearGradient id="paint1_linear_718_5169" x1="129.656" y1="165.064" x2="212.13" y2="165.064" gradientUnits="userSpaceOnUse">
<stop stop-color="#E3EDFE"/>
<stop offset="1" stop-color="#B3CDFA"/>
</linearGradient>
<linearGradient id="paint2_linear_718_5169" x1="101.639" y1="165.064" x2="115.648" y2="165.064" gradientUnits="userSpaceOnUse">
<stop stop-color="#E3EDFE"/>
<stop offset="1" stop-color="#B3CDFA"/>
</linearGradient>
<linearGradient id="paint3_linear_718_5169" x1="101.654" y1="211.049" x2="131.211" y2="211.049" gradientUnits="userSpaceOnUse">
<stop stop-color="#E3EDFE"/>
<stop offset="1" stop-color="#B3CDFA"/>
</linearGradient>
<clipPath id="clip0_718_5169">
<rect width="175.824" height="160" fill="white" transform="translate(72.0879 80.8792)"/>
</clipPath>
</defs>
</svg>
