<svg width="73" height="72" viewBox="0 0 73 72" fill="none" xmlns="http://www.w3.org/2000/svg">
<g clip-path="url(#clip0_7834_40175)">
<path d="M36.5001 72.0002C56.3824 72.0002 72.5002 55.8824 72.5002 36.0001C72.5002 16.1178 56.3824 0 36.5001 0C16.6178 0 0.5 16.1178 0.5 36.0001C0.5 55.8824 16.6178 72.0002 36.5001 72.0002Z" fill="#35B26F"/>
<path d="M72.5001 36.0001C72.5001 55.8002 56.3001 72.0002 36.5 72.0002C25.0251 72.0002 14.9001 66.8252 8.375 58.5003C14.45 63.4503 22.325 66.3753 30.875 66.3753C50.675 66.3753 66.875 50.1753 66.875 30.3752C66.875 21.8253 63.95 13.9502 59 7.87524C67.3251 14.4 72.5001 24.525 72.5001 36.0001Z" fill="#2AA362"/>
<path d="M56.075 25.6499L32.675 51.3001C31.0999 53.1001 28.4 53.1001 26.825 51.3001L16.9249 40.275C15.575 38.7 15.575 36.225 17.1499 34.65C18.725 33.3 21.1999 33.3 22.775 34.8749L29.75 42.75L50.225 20.475C51.8 18.8999 54.275 18.6749 55.85 20.25C57.4249 21.5999 57.4249 24.3 56.075 25.6499Z" fill="white"/>
</g>
<defs>
<clipPath id="clip0_7834_40175">
<rect width="72" height="72" fill="white" transform="translate(0.5)"/>
</clipPath>
</defs>
</svg>
