<svg width="33" height="32" viewBox="0 0 33 32" fill="none" xmlns="http://www.w3.org/2000/svg">
<circle cx="16.5" cy="16" r="16" fill="#FFFAE9"/>
<path d="M21.1614 14.3121L20.9354 12.8011C20.8234 12.0523 19.9328 11.7173 19.3551 12.2067L18.4959 12.9345C18.1405 13.2355 17.5969 13.1225 17.3909 12.7048L16.0225 9.92999C15.8335 9.54678 15.287 9.54678 15.098 9.92999L13.7296 12.7048C13.5236 13.1225 12.9799 13.2355 12.6246 12.9345L11.7654 12.2067C11.1876 11.7173 10.297 12.0523 10.185 12.8011L9.95902 14.3121C9.88823 14.7853 9.38206 15.0573 8.94836 14.8552L7.09161 13.9898C6.24317 13.5943 5.38319 14.5133 5.83406 15.3337L8.95643 21.015H22.1642L25.2865 15.3337C25.7374 14.5134 24.8774 13.5943 24.029 13.9898L22.1721 14.8552C21.7384 15.0573 21.2322 14.7853 21.1614 14.3121Z" fill="url(#paint0_linear_8679_79977)"/>
<path d="M20.6765 14.9202L20.47 13.5465C20.3677 12.8656 19.5542 12.561 19.0265 13.006L18.2417 13.6677C17.917 13.9414 17.4205 13.8386 17.2323 13.4589L15.9823 10.9361C15.8097 10.5877 15.3105 10.5877 15.1379 10.9361L13.8879 13.4589C13.6997 13.8386 13.2032 13.9414 12.8785 13.6677L12.0938 13.0061C11.566 12.5611 10.7525 12.8657 10.6502 13.5465L10.4437 14.9202C10.3791 15.3505 9.91675 15.5977 9.52057 15.414L7.82456 14.6272C7.04955 14.2676 6.26405 15.1032 6.67584 15.849L9.5279 21.0142H21.5923L24.4444 15.849C24.8562 15.1032 24.0707 14.2676 23.2957 14.6272L21.5997 15.414C21.2035 15.5977 20.7412 15.3504 20.6765 14.9202Z" fill="url(#paint1_linear_8679_79977)"/>
<path d="M20.0859 15.6538L19.9033 14.4456C19.8128 13.8468 19.0932 13.579 18.6264 13.9703L17.9322 14.5522C17.6451 14.793 17.2058 14.7026 17.0394 14.3686L15.9338 12.1498C15.7811 11.8433 15.3396 11.8433 15.1869 12.1498L14.0812 14.3686C13.9148 14.7026 13.4756 14.793 13.1884 14.5522L12.4942 13.9703C12.0273 13.579 11.3078 13.8468 11.2173 14.4456L11.0347 15.6538C10.9775 16.0322 10.5685 16.2497 10.2181 16.0881L8.7179 15.396C8.03237 15.0798 7.33756 15.8147 7.70182 16.4707L10.2246 21.0135H20.896L23.4187 16.4707C23.783 15.8147 23.0882 15.0798 22.4027 15.396L20.9025 16.0881C20.552 16.2497 20.1431 16.0322 20.0859 15.6538Z" fill="url(#paint2_linear_8679_79977)"/>
<path d="M22.4758 21.9551H8.64355C8.07886 21.9551 7.62109 21.4973 7.62109 20.9326C7.62109 20.3679 8.07886 19.9102 8.64355 19.9102H22.4757C23.0404 19.9102 23.4982 20.3679 23.4982 20.9326C23.4982 21.4973 23.0404 21.9551 22.4758 21.9551Z" fill="url(#paint3_linear_8679_79977)"/>
<path d="M22.4758 24H8.64355C8.07886 24 7.62109 23.5422 7.62109 22.9775C7.62109 22.4128 8.07886 21.9551 8.64355 21.9551H22.4757C23.0404 21.9551 23.4982 22.4128 23.4982 22.9775C23.4982 23.5422 23.0404 24 22.4758 24Z" fill="url(#paint4_linear_8679_79977)"/>
<path d="M17.2024 9.61898C17.2153 10.526 16.4904 11.2717 15.5832 11.2847C14.676 11.2976 13.9301 10.5729 13.9172 9.66586C13.9042 8.75887 14.6291 8.0131 15.5364 8.00017C16.4436 7.98724 17.1894 8.71198 17.2024 9.61898Z" fill="url(#paint5_linear_8679_79977)"/>
<path d="M16.9304 9.62273C16.9412 10.3797 16.3362 11.0021 15.5791 11.0129C14.8219 11.0237 14.1994 10.4188 14.1886 9.66181C14.1778 8.90484 14.7828 8.28243 15.54 8.27163C16.2971 8.26087 16.9196 8.86576 16.9304 9.62273Z" fill="url(#paint6_linear_8679_79977)"/>
<path d="M16.2733 8.16211C16.3872 8.38158 16.4532 8.6302 16.457 8.89426C16.4699 9.80126 15.745 10.547 14.8378 10.56C14.5737 10.5638 14.3233 10.5049 14.1006 10.3973C14.378 10.9316 14.9399 11.2931 15.5829 11.284C16.4901 11.271 17.215 10.5253 17.2021 9.61822C17.1929 8.97537 16.8154 8.42409 16.2733 8.16211Z" fill="url(#paint7_linear_8679_79977)"/>
<path d="M12.5159 11.9666C12.5288 12.8737 11.8039 13.6194 10.8967 13.6324C9.98951 13.6453 9.24356 12.9205 9.23064 12.0135C9.21771 11.1065 9.94262 10.3608 10.8498 10.3478C11.757 10.3348 12.5029 11.0596 12.5159 11.9666Z" fill="url(#paint8_linear_8679_79977)"/>
<path d="M12.2439 11.9704C12.2547 12.7273 11.6497 13.3498 10.8925 13.3606C10.1354 13.3714 9.5129 12.7665 9.5021 12.0095C9.4913 11.2525 10.0963 10.6301 10.8535 10.6193C11.6106 10.6085 12.2331 11.2134 12.2439 11.9704Z" fill="url(#paint9_linear_8679_79977)"/>
<path d="M11.5868 10.5098C11.7007 10.7292 11.7667 10.9779 11.7705 11.2419C11.7834 12.1489 11.0585 12.8947 10.1513 12.9077C9.88714 12.9114 9.63674 12.8525 9.41406 12.7449C9.69144 13.2792 10.2533 13.6408 10.8964 13.6316C11.8035 13.6187 12.5285 12.8729 12.5156 11.9659C12.5064 11.323 12.1289 10.7717 11.5868 10.5098Z" fill="url(#paint10_linear_8679_79977)"/>
<path d="M21.8899 11.9666C21.9028 12.8737 21.1779 13.6194 20.2707 13.6324C19.3635 13.6453 18.6176 12.9205 18.6047 12.0135C18.5917 11.1065 19.3166 10.3608 20.2239 10.3478C21.131 10.3348 21.877 11.0596 21.8899 11.9666Z" fill="url(#paint11_linear_8679_79977)"/>
<path d="M21.6179 11.9704C21.6287 12.7273 21.0237 13.3498 20.2666 13.3606C19.5094 13.3714 18.8869 12.7665 18.8761 12.0095C18.8653 11.2525 19.4703 10.6301 20.2275 10.6193C20.9846 10.6085 21.6071 11.2134 21.6179 11.9704Z" fill="url(#paint12_linear_8679_79977)"/>
<path d="M20.9618 10.5098C21.0757 10.7292 21.1417 10.9779 21.1455 11.2419C21.1584 12.1489 20.4335 12.8947 19.5263 12.9077C19.2621 12.9114 19.0117 12.8525 18.7891 12.7449C19.0664 13.2792 19.6283 13.6408 20.2714 13.6316C21.1785 13.6187 21.9035 12.8729 21.8906 11.9659C21.8813 11.323 21.5038 10.7717 20.9618 10.5098Z" fill="url(#paint13_linear_8679_79977)"/>
<path d="M7.78541 14.5302C7.79833 15.4372 7.07342 16.1829 6.16621 16.1959C5.25904 16.2088 4.5131 15.484 4.50017 14.577C4.48724 13.67 5.21215 12.9243 6.11937 12.9113C7.02658 12.8983 7.77248 13.6232 7.78541 14.5302Z" fill="url(#paint14_linear_8679_79977)"/>
<path d="M7.51343 14.5339C7.52423 15.2908 6.91921 15.9132 6.16207 15.924C5.40493 15.9348 4.78243 15.3299 4.77163 14.5729C4.76083 13.816 5.36585 13.1936 6.12299 13.1828C6.88013 13.172 7.50263 13.7769 7.51343 14.5339Z" fill="url(#paint15_linear_8679_79977)"/>
<path d="M6.85629 13.0742C6.97023 13.2937 7.03624 13.5423 7.04002 13.8064C7.05294 14.7134 6.32803 15.4591 5.42082 15.4721C5.15667 15.4759 4.90628 15.417 4.68359 15.3094C4.96097 15.8437 5.52288 16.2052 6.1659 16.1961C7.07307 16.1831 7.79802 15.4374 7.7851 14.5303C7.7759 13.8875 7.39842 13.3362 6.85629 13.0742Z" fill="url(#paint16_linear_8679_79977)"/>
<path d="M26.6204 14.5302C26.6333 15.4372 25.9084 16.1829 25.0012 16.1959C24.094 16.2088 23.3481 15.484 23.3351 14.577C23.3222 13.67 24.0471 12.9243 24.9543 12.9113C25.8615 12.8983 26.6074 13.6232 26.6204 14.5302Z" fill="url(#paint17_linear_8679_79977)"/>
<path d="M26.3484 14.5339C26.3592 15.2908 25.7542 15.9132 24.997 15.924C24.2399 15.9348 23.6174 15.3299 23.6066 14.5729C23.5958 13.816 24.2008 13.1936 24.9579 13.1828C25.7151 13.172 26.3376 13.7769 26.3484 14.5339Z" fill="url(#paint18_linear_8679_79977)"/>
<path d="M25.6912 13.0742C25.8052 13.2937 25.8712 13.5423 25.875 13.8064C25.8879 14.7134 25.163 15.4591 24.2558 15.4721C23.9916 15.4759 23.7412 15.417 23.5186 15.3094C23.7959 15.8437 24.3578 16.2052 25.0009 16.1961C25.908 16.1831 26.633 15.4374 26.6201 14.5303C26.6109 13.8875 26.2333 13.3362 25.6912 13.0742Z" fill="url(#paint19_linear_8679_79977)"/>
<path d="M15.2197 13.5017L13.3294 16.2337C13.2313 16.3754 13.2313 16.5631 13.3294 16.7049L15.2197 19.4368C15.3843 19.6748 15.7361 19.6748 15.9007 19.4368L17.791 16.7049C17.889 16.5631 17.889 16.3755 17.791 16.2337L15.9007 13.5017C15.7361 13.2638 15.3843 13.2638 15.2197 13.5017Z" fill="url(#paint20_linear_8679_79977)"/>
<path d="M15.262 13.8702L13.6064 16.263C13.5205 16.3871 13.5205 16.5515 13.6064 16.6757L15.262 19.0685C15.4062 19.2769 15.7143 19.2769 15.8585 19.0685L17.5141 16.6757C17.6 16.5516 17.6 16.3872 17.5141 16.263L15.8585 13.8702C15.7143 13.6618 15.4062 13.6618 15.262 13.8702Z" fill="url(#paint21_linear_8679_79977)"/>
<path d="M16.0234 14.1092C15.9038 13.9363 15.6474 13.9135 15.5129 14.0751C15.5059 14.0836 15.4992 14.0924 15.4928 14.1016L13.9522 16.3282C13.7972 16.5524 13.7972 16.8492 13.9522 17.0733L15.4221 19.1977C15.5722 19.2591 15.7562 19.2166 15.8584 19.069L17.5139 16.6762C17.5999 16.552 17.5999 16.3876 17.5139 16.2635L16.0234 14.1092Z" fill="url(#paint22_linear_8679_79977)"/>
<path d="M15.8583 13.8699C15.7761 13.7511 15.6407 13.7003 15.5127 13.717V19.2212C15.6407 19.2379 15.7761 19.1871 15.8583 19.0683L17.5139 16.6755C17.5998 16.5513 17.5998 16.3869 17.5139 16.2627L15.8583 13.8699Z" fill="url(#paint23_linear_8679_79977)"/>
<path d="M15.262 19.0689C15.4062 19.2773 15.7143 19.2773 15.8585 19.0689L17.5141 16.6761C17.557 16.614 17.5785 16.5419 17.5785 16.4697H13.542C13.542 16.5419 13.5635 16.614 13.6064 16.6761L15.262 19.0689Z" fill="url(#paint24_linear_8679_79977)"/>
<defs>
<linearGradient id="paint0_linear_8679_79977" x1="12.443" y1="10.0973" x2="18.8193" y2="20.4675" gradientUnits="userSpaceOnUse">
<stop stop-color="#FFD945"/>
<stop offset="0.3043" stop-color="#FFCD3E"/>
<stop offset="0.8558" stop-color="#FFAD2B"/>
<stop offset="1" stop-color="#FFA325"/>
</linearGradient>
<linearGradient id="paint1_linear_8679_79977" x1="18.5469" y1="19.9164" x2="10.2938" y2="9.76363" gradientUnits="userSpaceOnUse">
<stop stop-color="#FFD945"/>
<stop offset="0.3043" stop-color="#FFCD3E"/>
<stop offset="0.8558" stop-color="#FFAD2B"/>
<stop offset="1" stop-color="#FFA325"/>
</linearGradient>
<linearGradient id="paint2_linear_8679_79977" x1="11.8012" y1="13.3277" x2="17.2641" y2="18.7906" gradientUnits="userSpaceOnUse">
<stop stop-color="#FFD945"/>
<stop offset="0.3043" stop-color="#FFCD3E"/>
<stop offset="0.8558" stop-color="#FFAD2B"/>
<stop offset="1" stop-color="#FFA325"/>
</linearGradient>
<linearGradient id="paint3_linear_8679_79977" x1="15.5597" y1="19.7829" x2="15.5597" y2="22.0262" gradientUnits="userSpaceOnUse">
<stop stop-color="#FFD945"/>
<stop offset="0.3043" stop-color="#FFCD3E"/>
<stop offset="0.8558" stop-color="#FFAD2B"/>
<stop offset="1" stop-color="#FFA325"/>
</linearGradient>
<linearGradient id="paint4_linear_8679_79977" x1="15.5597" y1="21.8279" x2="15.5597" y2="24.0712" gradientUnits="userSpaceOnUse">
<stop stop-color="#FFD945"/>
<stop offset="0.3043" stop-color="#FFCD3E"/>
<stop offset="0.8558" stop-color="#FFAD2B"/>
<stop offset="1" stop-color="#FFA325"/>
</linearGradient>
<linearGradient id="paint5_linear_8679_79977" x1="14.9646" y1="8.83949" x2="16.5026" y2="10.9964" gradientUnits="userSpaceOnUse">
<stop stop-color="#FFD945"/>
<stop offset="0.3043" stop-color="#FFCD3E"/>
<stop offset="0.8558" stop-color="#FFAD2B"/>
<stop offset="1" stop-color="#FFA325"/>
</linearGradient>
<linearGradient id="paint6_linear_8679_79977" x1="15.7105" y1="9.91873" x2="14.1038" y2="7.39346" gradientUnits="userSpaceOnUse">
<stop stop-color="#FFD945" stop-opacity="0"/>
<stop offset="1" stop-color="#FBED21"/>
</linearGradient>
<linearGradient id="paint7_linear_8679_79977" x1="15.6098" y1="10.2443" x2="17.8087" y2="6.0136" gradientUnits="userSpaceOnUse">
<stop stop-color="#F35227" stop-opacity="0"/>
<stop offset="1" stop-color="#F35227"/>
</linearGradient>
<linearGradient id="paint8_linear_8679_79977" x1="10.2755" y1="11.1864" x2="11.8135" y2="13.3433" gradientUnits="userSpaceOnUse">
<stop stop-color="#FFD945"/>
<stop offset="0.3043" stop-color="#FFCD3E"/>
<stop offset="0.8558" stop-color="#FFAD2B"/>
<stop offset="1" stop-color="#FFA325"/>
</linearGradient>
<linearGradient id="paint9_linear_8679_79977" x1="11.0214" y1="12.2656" x2="9.4147" y2="9.74026" gradientUnits="userSpaceOnUse">
<stop stop-color="#FFD945" stop-opacity="0"/>
<stop offset="1" stop-color="#FBED21"/>
</linearGradient>
<linearGradient id="paint10_linear_8679_79977" x1="10.9222" y1="12.5907" x2="13.1211" y2="8.36003" gradientUnits="userSpaceOnUse">
<stop stop-color="#F35227" stop-opacity="0"/>
<stop offset="1" stop-color="#F35227"/>
</linearGradient>
<linearGradient id="paint11_linear_8679_79977" x1="19.653" y1="11.1897" x2="21.191" y2="13.3466" gradientUnits="userSpaceOnUse">
<stop stop-color="#FFD945"/>
<stop offset="0.3043" stop-color="#FFCD3E"/>
<stop offset="0.8558" stop-color="#FFAD2B"/>
<stop offset="1" stop-color="#FFA325"/>
</linearGradient>
<linearGradient id="paint12_linear_8679_79977" x1="20.3989" y1="12.2689" x2="18.7921" y2="9.74358" gradientUnits="userSpaceOnUse">
<stop stop-color="#FFD945" stop-opacity="0"/>
<stop offset="1" stop-color="#FBED21"/>
</linearGradient>
<linearGradient id="paint13_linear_8679_79977" x1="20.298" y1="12.5935" x2="22.497" y2="8.36287" gradientUnits="userSpaceOnUse">
<stop stop-color="#F35227" stop-opacity="0"/>
<stop offset="1" stop-color="#F35227"/>
</linearGradient>
<linearGradient id="paint14_linear_8679_79977" x1="5.54243" y1="13.7492" x2="7.08043" y2="15.9061" gradientUnits="userSpaceOnUse">
<stop stop-color="#FFD945"/>
<stop offset="0.3043" stop-color="#FFCD3E"/>
<stop offset="0.8558" stop-color="#FFAD2B"/>
<stop offset="1" stop-color="#FFA325"/>
</linearGradient>
<linearGradient id="paint15_linear_8679_79977" x1="6.28829" y1="14.8283" x2="4.68155" y2="12.303" gradientUnits="userSpaceOnUse">
<stop stop-color="#FFD945" stop-opacity="0"/>
<stop offset="1" stop-color="#FBED21"/>
</linearGradient>
<linearGradient id="paint16_linear_8679_79977" x1="6.19046" y1="15.154" x2="8.38938" y2="10.9233" gradientUnits="userSpaceOnUse">
<stop stop-color="#F35227" stop-opacity="0"/>
<stop offset="1" stop-color="#F35227"/>
</linearGradient>
<linearGradient id="paint17_linear_8679_79977" x1="24.3843" y1="13.7558" x2="25.9223" y2="15.9127" gradientUnits="userSpaceOnUse">
<stop stop-color="#FFD945"/>
<stop offset="0.3043" stop-color="#FFCD3E"/>
<stop offset="0.8558" stop-color="#FFAD2B"/>
<stop offset="1" stop-color="#FFA325"/>
</linearGradient>
<linearGradient id="paint18_linear_8679_79977" x1="25.1302" y1="14.835" x2="23.5234" y2="12.3097" gradientUnits="userSpaceOnUse">
<stop stop-color="#FFD945" stop-opacity="0"/>
<stop offset="1" stop-color="#FBED21"/>
</linearGradient>
<linearGradient id="paint19_linear_8679_79977" x1="25.0272" y1="15.1597" x2="27.2262" y2="10.929" gradientUnits="userSpaceOnUse">
<stop stop-color="#F35227" stop-opacity="0"/>
<stop offset="1" stop-color="#F35227"/>
</linearGradient>
<linearGradient id="paint20_linear_8679_79977" x1="17.3837" y1="18.2928" x2="10.9488" y2="11.8579" gradientUnits="userSpaceOnUse">
<stop stop-color="#FFD945"/>
<stop offset="0.3043" stop-color="#FFCD3E"/>
<stop offset="0.8558" stop-color="#FFAD2B"/>
<stop offset="1" stop-color="#FFA325"/>
</linearGradient>
<linearGradient id="paint21_linear_8679_79977" x1="14.4433" y1="15.6244" x2="17.1717" y2="17.6883" gradientUnits="userSpaceOnUse">
<stop stop-color="#FF7044"/>
<stop offset="1" stop-color="#F82814"/>
</linearGradient>
<linearGradient id="paint22_linear_8679_79977" x1="15.6842" y1="16.5721" x2="13.2601" y2="11.6004" gradientUnits="userSpaceOnUse">
<stop stop-color="#FF7044" stop-opacity="0"/>
<stop offset="1" stop-color="#FFA325"/>
</linearGradient>
<linearGradient id="paint23_linear_8679_79977" x1="15.7316" y1="16.4648" x2="13.7554" y2="13.2377" gradientUnits="userSpaceOnUse">
<stop stop-color="#F82814" stop-opacity="0"/>
<stop offset="1" stop-color="#C0272D"/>
</linearGradient>
<linearGradient id="paint24_linear_8679_79977" x1="15.9163" y1="17.1024" x2="14.4855" y2="14.7658" gradientUnits="userSpaceOnUse">
<stop stop-color="#F82814" stop-opacity="0"/>
<stop offset="1" stop-color="#C0272D"/>
</linearGradient>
</defs>
</svg>
