<svg width="20" height="16" viewBox="0 0 20 16" fill="none" xmlns="http://www.w3.org/2000/svg">
<path d="M19.0625 3.65625L10.5625 0.125C10.4062 0.0625 10.1562 0.03125 9.96875 0.03125C9.8125 0.03125 9.5625 0.0625 9.40625 0.125L0.90625 3.65625C0.34375 3.90625 0 4.4375 0 5.0625V15.75C0 15.9062 0.09375 16 0.25 16H1.75C1.875 16 2 15.9062 2 15.75V6.5C2 6.25 2.21875 6 2.5 6H17.5C17.75 6 18 6.25 18 6.5V15.75C18 15.9062 18.0938 16 18.25 16H19.75C19.875 16 20 15.9062 20 15.75V5.0625C20 4.4375 19.625 3.90625 19.0625 3.65625ZM9.5 13H4.5C4.21875 13 4 13.25 4 13.5V15.5C4 15.7812 4.21875 16 4.5 16H9.5C9.75 16 10 15.7812 10 15.5V13.5C10 13.25 9.75 13 9.5 13ZM15.5 13H11.5C11.2188 13 11 13.25 11 13.5V15.5C11 15.7812 11.2188 16 11.5 16H15.5C15.75 16 16 15.7812 16 15.5V13.5C16 13.25 15.75 13 15.5 13ZM9.5 9H4.5C4.21875 9 4 9.25 4 9.5V11.5C4 11.7812 4.21875 12 4.5 12H9.5C9.75 12 10 11.7812 10 11.5V9.5C10 9.25 9.75 9 9.5 9Z" fill="#5B86E5"/>
</svg>
