<svg width="24" height="24" viewBox="0 0 24 24" fill="none" xmlns="http://www.w3.org/2000/svg">
<g opacity="0.4">
<path d="M12.0525 1.87523C12.0351 1.87509 12.0175 1.875 12 1.875C11.7412 1.875 11.5312 2.08486 11.5312 2.34375C11.5312 2.60264 11.7412 2.8125 12 2.8125C12.0139 2.8125 12.0278 2.81259 12.0416 2.81273C12.0435 2.81273 12.0453 2.81273 12.0472 2.81273C12.3035 2.81273 12.5128 2.60644 12.5158 2.34947C12.5188 2.09058 12.3114 1.87828 12.0525 1.87523Z" fill="black"/>
<path d="M20.0625 9.09375H18.0469V6.04688C18.0469 2.71261 15.3343 0 12 0C8.66573 0 5.95312 2.71261 5.95312 6.04688V9.09375H3.9375C3.16209 9.09375 2.53125 9.72459 2.53125 10.5V22.5938C2.53125 23.3692 3.16209 24 3.9375 24H20.0625C20.8379 24 21.4688 23.3692 21.4688 22.5938V10.5C21.4688 9.72459 20.8379 9.09375 20.0625 9.09375ZM20.5312 22.5938C20.5312 22.8522 20.321 23.0625 20.0625 23.0625H3.9375C3.67903 23.0625 3.46875 22.8522 3.46875 22.5938V10.5C3.46875 10.2415 3.67903 10.0312 3.9375 10.0312H10.4531C10.712 10.0312 10.9219 9.82139 10.9219 9.5625C10.9219 9.30361 10.712 9.09375 10.4531 9.09375H8.76562V6.04688C8.76562 4.74544 9.54173 3.57572 10.7429 3.0668C10.9812 2.96583 11.0926 2.69072 10.9916 2.45231C10.8907 2.21395 10.6156 2.10253 10.3771 2.20359C8.82867 2.85966 7.82812 4.36823 7.82812 6.04688V9.09375H6.89062V6.04688C6.89062 3.22955 9.18267 0.9375 12 0.9375C14.8173 0.9375 17.1094 3.22955 17.1094 6.04688V9.09375H16.1719V6.04688C16.1719 4.40667 15.203 2.91188 13.7035 2.23875C13.4673 2.13286 13.19 2.23823 13.0839 2.47444C12.9779 2.71064 13.0834 2.98805 13.3195 3.09403C14.4828 3.61622 15.2344 4.77525 15.2344 6.04688V9.09375H13.7109C13.452 9.09375 13.2421 9.30361 13.2421 9.5625C13.2421 9.82139 13.452 10.0312 13.7109 10.0312H20.0625C20.321 10.0312 20.5312 10.2415 20.5312 10.5V22.5938Z" fill="black"/>
<path d="M12.0704 9.09375H12.0586C11.7998 9.09375 11.5898 9.30361 11.5898 9.5625C11.5898 9.82139 11.7998 10.0312 12.0586 10.0312H12.0704C12.3293 10.0312 12.5392 9.82139 12.5392 9.5625C12.5392 9.30361 12.3293 9.09375 12.0704 9.09375Z" fill="black"/>
<path d="M13.2896 16.5347C13.7194 16.1636 13.9688 15.6263 13.9688 15.0469C13.9688 13.9613 13.0856 13.0781 12 13.0781C10.9144 13.0781 10.0312 13.9613 10.0312 15.0469C10.0312 15.6331 10.2971 16.1888 10.741 16.5597L10.4302 19.4976C10.4162 19.6297 10.459 19.7616 10.548 19.8604C10.6368 19.9592 10.7635 20.0156 10.8964 20.0156H13.1368C13.2697 20.0156 13.3964 19.9592 13.4853 19.8604C13.5742 19.7616 13.617 19.6297 13.603 19.4976L13.2896 16.5347ZM12.5463 15.9213C12.3946 16.0164 12.3103 16.1897 12.3292 16.3678L12.6158 19.0781H11.4173L11.7019 16.3868C11.7212 16.2046 11.6326 16.0279 11.475 15.9344C11.158 15.7463 10.9688 15.4145 10.9688 15.0469C10.9688 14.4782 11.4314 14.0156 12 14.0156C12.5686 14.0156 13.0312 14.4782 13.0312 15.0469C13.0312 15.4041 12.85 15.731 12.5463 15.9213Z" fill="black"/>
</g>
</svg>
