<svg width="152" height="40" viewBox="0 0 152 40" fill="none" xmlns="http://www.w3.org/2000/svg">
<path d="M8.48485 0H31.5152C36.2 0 40 3.8 40 8.48485V31.5152C40 36.2 36.2 40 31.5152 40H8.48485C3.8 40 0 36.2 0 31.5152V8.48485C0 3.8 3.8 0 8.48485 0Z" fill="url(#paint0_linear_6962_224137)"/>
<g clip-path="url(#clip0_6962_224137)">
<path d="M29.9202 18.8195L29.2302 18.1722L28.4341 17.4192L26.8683 15.9264C26.7754 15.8339 26.6295 15.8339 26.5366 15.9264L24.1615 18.1722L23.4715 18.8195C23.4184 18.8592 23.3919 18.9252 23.3919 18.9913V21.2107C23.352 22.9941 21.8792 24.4209 20.0879 24.4209C18.2966 24.4209 16.8237 22.9809 16.7706 21.2107V8.29052C16.7706 8.15841 16.6645 8.05273 16.5318 8.05273H12.3255C12.2326 8.05273 12.153 8.10557 12.1132 8.17163L10.1627 11.5932L10.0565 11.765L8.02635 15.3583C7.93347 15.5168 8.05289 15.7282 8.23865 15.7282H9.91055C10.0432 15.7282 10.1494 15.8339 10.1494 15.966V21.2107C10.1892 26.6271 14.621 30.9999 20.0613 30.9999C25.5016 30.9999 29.9335 26.6271 29.9733 21.2107V18.9913C29.9733 18.9219 29.9733 18.8724 29.9202 18.8195Z" fill="white"/>
<path d="M29.9202 11.0119L26.8683 8.06594C26.7754 7.97346 26.6295 7.97346 26.5233 8.06594L23.4582 10.9987C23.4051 11.0384 23.3786 11.1044 23.3786 11.1705V15.464C23.3786 15.6754 23.644 15.7943 23.7899 15.6357L25.0239 14.4468L26.5101 13.02C26.6029 12.9275 26.7489 12.9275 26.8551 13.02L28.3412 14.4468L29.5752 15.6357C29.7344 15.781 29.9865 15.6754 29.9865 15.464V11.1837C29.9998 11.1176 29.9733 11.0516 29.9202 11.0119Z" fill="white"/>
</g>
<path d="M53.88 27.14C52.56 27.14 51.3467 26.8333 50.24 26.22C49.1467 25.6067 48.2733 24.7533 47.62 23.66C46.98 22.5533 46.66 21.3133 46.66 19.94C46.66 18.5667 46.98 17.3333 47.62 16.24C48.2733 15.1467 49.1467 14.2933 50.24 13.68C51.3467 13.0667 52.56 12.76 53.88 12.76C55.2 12.76 56.4067 13.0667 57.5 13.68C58.6067 14.2933 59.4733 15.1467 60.1 16.24C60.74 17.3333 61.06 18.5667 61.06 19.94C61.06 21.3133 60.74 22.5533 60.1 23.66C59.46 24.7533 58.5933 25.6067 57.5 26.22C56.4067 26.8333 55.2 27.14 53.88 27.14ZM53.88 24.02C55 24.02 55.8933 23.6467 56.56 22.9C57.24 22.1533 57.58 21.1667 57.58 19.94C57.58 18.7 57.24 17.7133 56.56 16.98C55.8933 16.2333 55 15.86 53.88 15.86C52.7467 15.86 51.84 16.2267 51.16 16.96C50.4933 17.6933 50.16 18.6867 50.16 19.94C50.16 21.18 50.4933 22.1733 51.16 22.92C51.84 23.6533 52.7467 24.02 53.88 24.02ZM69.7627 15.72C71.0693 15.72 72.1093 16.1467 72.8827 17C73.6693 17.84 74.0627 19 74.0627 20.48V27H70.6627V20.94C70.6627 20.1933 70.4693 19.6133 70.0827 19.2C69.696 18.7867 69.176 18.58 68.5227 18.58C67.8693 18.58 67.3493 18.7867 66.9627 19.2C66.576 19.6133 66.3827 20.1933 66.3827 20.94V27H62.9627V15.84H66.3827V17.32C66.7293 16.8267 67.196 16.44 67.7827 16.16C68.3693 15.8667 69.0293 15.72 69.7627 15.72ZM86.9592 21.24C86.9592 21.56 86.9392 21.8933 86.8992 22.24H79.1592C79.2126 22.9333 79.4326 23.4667 79.8192 23.84C80.2192 24.2 80.7059 24.38 81.2792 24.38C82.1326 24.38 82.7259 24.02 83.0592 23.3H86.6992C86.5126 24.0333 86.1726 24.6933 85.6792 25.28C85.1992 25.8667 84.5926 26.3267 83.8592 26.66C83.1259 26.9933 82.3059 27.16 81.3992 27.16C80.3059 27.16 79.3326 26.9267 78.4792 26.46C77.6259 25.9933 76.9592 25.3267 76.4792 24.46C75.9992 23.5933 75.7592 22.58 75.7592 21.42C75.7592 20.26 75.9926 19.2467 76.4592 18.38C76.9392 17.5133 77.6059 16.8467 78.4592 16.38C79.3126 15.9133 80.2926 15.68 81.3992 15.68C82.4792 15.68 83.4392 15.9067 84.2792 16.36C85.1192 16.8133 85.7726 17.46 86.2392 18.3C86.7192 19.14 86.9592 20.12 86.9592 21.24ZM83.4592 20.34C83.4592 19.7533 83.2592 19.2867 82.8592 18.94C82.4592 18.5933 81.9592 18.42 81.3592 18.42C80.7859 18.42 80.2992 18.5867 79.8992 18.92C79.5126 19.2533 79.2726 19.7267 79.1792 20.34H83.4592ZM92.1234 12.96V21.36C92.1234 22.2 92.3301 22.8467 92.7434 23.3C93.1568 23.7533 93.7634 23.98 94.5634 23.98C95.3634 23.98 95.9768 23.7533 96.4034 23.3C96.8301 22.8467 97.0434 22.2 97.0434 21.36V12.96H100.463V21.34C100.463 22.5933 100.197 23.6533 99.6634 24.52C99.1301 25.3867 98.4101 26.04 97.5034 26.48C96.6101 26.92 95.6101 27.14 94.5034 27.14C93.3968 27.14 92.4034 26.9267 91.5234 26.5C90.6568 26.06 89.9701 25.4067 89.4634 24.54C88.9568 23.66 88.7034 22.5933 88.7034 21.34V12.96H92.1234ZM106.285 17.42C106.618 16.9 107.078 16.48 107.665 16.16C108.252 15.84 108.938 15.68 109.725 15.68C110.645 15.68 111.478 15.9133 112.225 16.38C112.972 16.8467 113.558 17.5133 113.985 18.38C114.425 19.2467 114.645 20.2533 114.645 21.4C114.645 22.5467 114.425 23.56 113.985 24.44C113.558 25.3067 112.972 25.98 112.225 26.46C111.478 26.9267 110.645 27.16 109.725 27.16C108.952 27.16 108.265 27 107.665 26.68C107.078 26.36 106.618 25.9467 106.285 25.44V32.32H102.865V15.84H106.285V17.42ZM111.165 21.4C111.165 20.5467 110.925 19.88 110.445 19.4C109.978 18.9067 109.398 18.66 108.705 18.66C108.025 18.66 107.445 18.9067 106.965 19.4C106.498 19.8933 106.265 20.5667 106.265 21.42C106.265 22.2733 106.498 22.9467 106.965 23.44C107.445 23.9333 108.025 24.18 108.705 24.18C109.385 24.18 109.965 23.9333 110.445 23.44C110.925 22.9333 111.165 22.2533 111.165 21.4ZM121.519 27.14C120.493 27.14 119.573 26.9733 118.759 26.64C117.946 26.3067 117.293 25.8133 116.799 25.16C116.319 24.5067 116.066 23.72 116.039 22.8H119.679C119.733 23.32 119.913 23.72 120.219 24C120.526 24.2667 120.926 24.4 121.419 24.4C121.926 24.4 122.326 24.2867 122.619 24.06C122.913 23.82 123.059 23.4933 123.059 23.08C123.059 22.7333 122.939 22.4467 122.699 22.22C122.473 21.9933 122.186 21.8067 121.839 21.66C121.506 21.5133 121.026 21.3467 120.399 21.16C119.493 20.88 118.753 20.6 118.179 20.32C117.606 20.04 117.113 19.6267 116.699 19.08C116.286 18.5333 116.079 17.82 116.079 16.94C116.079 15.6333 116.553 14.6133 117.499 13.88C118.446 13.1333 119.679 12.76 121.199 12.76C122.746 12.76 123.993 13.1333 124.939 13.88C125.886 14.6133 126.393 15.64 126.459 16.96H122.759C122.733 16.5067 122.566 16.1533 122.259 15.9C121.953 15.6333 121.559 15.5 121.079 15.5C120.666 15.5 120.333 15.6133 120.079 15.84C119.826 16.0533 119.699 16.3667 119.699 16.78C119.699 17.2333 119.913 17.5867 120.339 17.84C120.766 18.0933 121.433 18.3667 122.339 18.66C123.246 18.9667 123.979 19.26 124.539 19.54C125.113 19.82 125.606 20.2267 126.019 20.76C126.433 21.2933 126.639 21.98 126.639 22.82C126.639 23.62 126.433 24.3467 126.019 25C125.619 25.6533 125.033 26.1733 124.259 26.56C123.486 26.9467 122.573 27.14 121.519 27.14ZM139.264 21.24C139.264 21.56 139.244 21.8933 139.204 22.24H131.464C131.517 22.9333 131.737 23.4667 132.124 23.84C132.524 24.2 133.011 24.38 133.584 24.38C134.437 24.38 135.031 24.02 135.364 23.3H139.004C138.817 24.0333 138.477 24.6933 137.984 25.28C137.504 25.8667 136.897 26.3267 136.164 26.66C135.431 26.9933 134.611 27.16 133.704 27.16C132.611 27.16 131.637 26.9267 130.784 26.46C129.931 25.9933 129.264 25.3267 128.784 24.46C128.304 23.5933 128.064 22.58 128.064 21.42C128.064 20.26 128.297 19.2467 128.764 18.38C129.244 17.5133 129.911 16.8467 130.764 16.38C131.617 15.9133 132.597 15.68 133.704 15.68C134.784 15.68 135.744 15.9067 136.584 16.36C137.424 16.8133 138.077 17.46 138.544 18.3C139.024 19.14 139.264 20.12 139.264 21.24ZM135.764 20.34C135.764 19.7533 135.564 19.2867 135.164 18.94C134.764 18.5933 134.264 18.42 133.664 18.42C133.091 18.42 132.604 18.5867 132.204 18.92C131.817 19.2533 131.577 19.7267 131.484 20.34H135.764ZM144.488 12.2V27H141.068V12.2H144.488ZM150.387 12.2V27H146.967V12.2H150.387Z" fill="#163F59"/>
<defs>
<linearGradient id="paint0_linear_6962_224137" x1="-12.9204" y1="12.9204" x2="12.9204" y2="52.9204" gradientUnits="userSpaceOnUse">
<stop stop-color="#FF9433"/>
<stop offset="1" stop-color="#FF6D00"/>
</linearGradient>
<clipPath id="clip0_6962_224137">
<rect width="22" height="23" fill="white" transform="translate(8 8)"/>
</clipPath>
</defs>
</svg>
