<svg width="28" height="28" viewBox="0 0 28 28" fill="none" xmlns="http://www.w3.org/2000/svg">
<g clip-path="url(#clip0_2848_14706)">
<path d="M3.90186 22.21V26.5407C3.90186 26.6963 4.02796 26.8224 4.18355 26.8224H23.8164C23.9719 26.8224 24.0981 26.6963 24.0981 26.5407V22.21H3.90186Z" fill="#FE9901"/>
<path d="M6.507 26.5407V22.2646H3.90186V26.5407C3.90186 26.6963 4.02796 26.8224 4.18355 26.8224H6.7887C6.63311 26.8224 6.507 26.6963 6.507 26.5407Z" fill="#FB8801"/>
<path d="M6.42327 9.0389C6.49694 9.06909 6.53702 9.14916 6.52127 9.22719L5.61269 13.7209L9.63304 16.6966L11.2815 12.6116L7.95879 8.84673C7.90558 8.78641 7.89994 8.69591 7.94933 8.63236C8.21451 8.29127 8.30775 7.82358 8.14407 7.37651C7.93287 6.79973 7.33316 6.44404 6.72597 6.5369C5.94202 6.65683 5.45672 7.42338 5.65617 8.16779C5.76598 8.57762 6.05889 8.88939 6.42327 9.0389Z" fill="#FEE45A"/>
<path d="M6.42322 9.03887C6.49688 9.06906 6.53697 9.14912 6.52122 9.22716L5.62462 13.6617L6.39555 14.2323L7.47902 8.87377C7.49477 8.79573 7.45468 8.71566 7.38102 8.68548C7.01663 8.53602 6.72373 8.22419 6.61391 7.81441C6.48507 7.33355 6.64224 6.84371 6.98081 6.52461C6.8967 6.52051 6.8115 6.52379 6.72597 6.53686C5.94202 6.65679 5.45672 7.42334 5.65617 8.16775C5.76593 8.57758 6.05884 8.88935 6.42322 9.03887Z" fill="#FEDF30"/>
<path d="M20.0421 8.84543L16.7183 12.6114L18.3668 16.6965L22.3871 13.7208L21.4789 9.22879C21.4629 9.15004 21.5031 9.06894 21.5775 9.03837C21.9629 8.87994 22.2682 8.53979 22.3611 8.09419C22.4948 7.45303 22.1204 6.79974 21.4995 6.59138C20.7782 6.34933 20.0133 6.76753 19.8194 7.49126C19.7091 7.90268 19.8081 8.32082 20.051 8.63286C20.1 8.69592 20.0948 8.78561 20.0421 8.84543Z" fill="#FEDF30"/>
<path d="M20.0421 8.84562L16.7588 12.5658L17.1508 13.5372L21.1224 9.03714C21.1752 8.97731 21.1803 8.88757 21.1313 8.82462C20.8884 8.51257 20.7894 8.09443 20.8997 7.68302C21.0252 7.21435 21.3904 6.87408 21.828 6.75798C21.7288 6.68836 21.6189 6.6316 21.4996 6.59162C20.7783 6.34957 20.0134 6.76777 19.8194 7.4915C19.7092 7.90292 19.8082 8.32106 20.051 8.6331C20.1 8.69611 20.0948 8.78579 20.0421 8.84562Z" fill="#FED402"/>
<path d="M26.5536 9.28313C25.949 9.34581 25.4599 9.83296 25.3945 10.4373C25.3692 10.671 25.4059 10.8939 25.4899 11.0918C25.5403 11.2105 25.5009 11.3483 25.3972 11.425L18.3457 16.6443L20.6138 22.2647H24.098L26.3315 12.1075C26.3611 11.9727 26.4841 11.8796 26.622 11.8872C26.7034 11.8917 26.7867 11.8886 26.8716 11.8769C27.4759 11.794 27.9511 11.2905 27.9962 10.6822C28.0566 9.86884 27.3717 9.19831 26.5536 9.28313Z" fill="#FED402"/>
<path d="M26.5536 9.28312C25.949 9.3458 25.4599 9.83295 25.3945 10.4373C25.3691 10.6711 25.4058 10.8939 25.4898 11.0918C25.5402 11.2105 25.5008 11.3483 25.3971 11.4251L18.3911 16.6107L18.7087 17.3976L26.2223 11.8362C26.326 11.7595 26.3654 11.6217 26.315 11.5029C26.231 11.305 26.1943 11.0822 26.2196 10.8484C26.2851 10.2441 26.7742 9.75699 27.3788 9.69427C27.4718 9.68464 27.5629 9.68519 27.6515 9.69416C27.3838 9.40568 26.9874 9.23817 26.5536 9.28312Z" fill="#FAC600"/>
<path d="M7.38609 22.2648L9.65419 16.6443L2.60274 11.4251C2.49905 11.3483 2.45967 11.2105 2.51004 11.0918C2.59404 10.8939 2.63074 10.6711 2.60542 10.4374C2.54001 9.83295 2.05083 9.34579 1.44615 9.28312C0.627971 9.19836 -0.0570995 9.86926 0.00376769 10.683C0.049213 11.2912 0.524557 11.7943 1.1288 11.877C1.21351 11.8886 1.29669 11.8917 1.3779 11.8872C1.51582 11.8797 1.63876 11.9727 1.6684 12.1076L3.90189 22.2648H7.38609Z" fill="#FED402"/>
<path d="M2.36435 11.4796C2.33471 11.3447 2.21172 11.2517 2.07385 11.2592C1.99264 11.2637 1.90946 11.2606 1.82475 11.249C1.22051 11.1663 0.745163 10.6631 0.699718 10.055C0.681015 9.80499 0.732968 9.56858 0.837367 9.36328C0.318437 9.56316 -0.0410246 10.0842 0.00376452 10.6831C0.0492099 11.2913 0.524609 11.7944 1.1288 11.8772C1.21351 11.8887 1.29669 11.8918 1.3779 11.8874C1.51582 11.8798 1.63876 11.9728 1.6684 12.1077L3.90189 22.2649H4.81802L2.36435 11.4796Z" fill="#FAC600"/>
<path d="M20.673 22.2648L14.8748 7.89698C14.8326 7.7922 14.857 7.67227 14.9369 7.59237L16.1653 6.36393C16.2753 6.2539 16.2753 6.07556 16.1653 5.96558L14.1992 3.99952C14.0892 3.88948 13.9109 3.88948 13.8008 3.99952L11.8348 5.96558C11.7247 6.07562 11.7247 6.25395 11.8348 6.36393L13.0632 7.59237C13.1431 7.67227 13.1676 7.7922 13.1252 7.89698L7.32715 22.2648H20.673Z" fill="#FEE45A"/>
<path d="M14.3903 7.59243L13.1619 6.36398C13.0518 6.25395 13.0518 6.07562 13.1619 5.96558L14.6636 4.46387L14.1992 3.99952C14.0892 3.88948 13.9109 3.88948 13.8009 3.99952L11.8348 5.96558C11.7248 6.07562 11.7248 6.25395 11.8348 6.36398L13.0633 7.59243C13.1432 7.67233 13.1676 7.79226 13.1253 7.89704L7.32715 22.2648H8.65425L14.4523 7.89698C14.4947 7.7922 14.4702 7.67233 14.3903 7.59243Z" fill="#FEDF30"/>
<path d="M13.841 14.483L12.205 16.7523C12.1561 16.8202 12.1556 16.9115 12.2037 16.9798L13.8398 19.302C13.9179 19.4128 14.0821 19.4128 14.1602 19.302L15.7962 16.9798C15.8443 16.9115 15.8438 16.8202 15.795 16.7523L14.1589 14.483C14.0808 14.3745 13.9192 14.3745 13.841 14.483Z" fill="#925CB4"/>
<path d="M13.5727 16.9798C13.5245 16.9115 13.525 16.8202 13.5739 16.7523L14.6845 15.2119L14.159 14.483C14.0808 14.3745 13.9192 14.3745 13.841 14.483L12.205 16.7523C12.1561 16.8202 12.1556 16.9115 12.2037 16.9798L13.8398 19.302C13.9178 19.4128 14.0821 19.4128 14.1602 19.302L14.6845 18.5579L13.5727 16.9798Z" fill="#814BA2"/>
<path d="M6.61719 24.8765C6.84371 24.8765 7.02734 24.6928 7.02734 24.4663C7.02734 24.2398 6.84371 24.0562 6.61719 24.0562C6.39066 24.0562 6.20703 24.2398 6.20703 24.4663C6.20703 24.6928 6.39066 24.8765 6.61719 24.8765Z" fill="#FED402"/>
<path d="M9.57031 24.8765C9.79684 24.8765 9.98047 24.6928 9.98047 24.4663C9.98047 24.2398 9.79684 24.0562 9.57031 24.0562C9.34379 24.0562 9.16016 24.2398 9.16016 24.4663C9.16016 24.6928 9.34379 24.8765 9.57031 24.8765Z" fill="#FED402"/>
<path d="M12.5234 24.8765C12.75 24.8765 12.9336 24.6928 12.9336 24.4663C12.9336 24.2398 12.75 24.0562 12.5234 24.0562C12.2969 24.0562 12.1133 24.2398 12.1133 24.4663C12.1133 24.6928 12.2969 24.8765 12.5234 24.8765Z" fill="#FED402"/>
<path d="M15.4766 24.8765C15.7031 24.8765 15.8867 24.6928 15.8867 24.4663C15.8867 24.2398 15.7031 24.0562 15.4766 24.0562C15.25 24.0562 15.0664 24.2398 15.0664 24.4663C15.0664 24.6928 15.25 24.8765 15.4766 24.8765Z" fill="#FED402"/>
<path d="M18.4297 24.8765C18.6562 24.8765 18.8398 24.6928 18.8398 24.4663C18.8398 24.2398 18.6562 24.0562 18.4297 24.0562C18.2032 24.0562 18.0195 24.2398 18.0195 24.4663C18.0195 24.6928 18.2032 24.8765 18.4297 24.8765Z" fill="#FED402"/>
<path d="M21.3828 24.8765C21.6093 24.8765 21.793 24.6928 21.793 24.4663C21.793 24.2398 21.6093 24.0562 21.3828 24.0562C21.1563 24.0562 20.9727 24.2398 20.9727 24.4663C20.9727 24.6928 21.1563 24.8765 21.3828 24.8765Z" fill="#FED402"/>
<path d="M9.54612 1.29697C9.83525 2.12674 10.1726 2.46406 11.0023 2.75319C11.162 2.8088 11.162 3.03395 11.0023 3.08957C10.1726 3.3787 9.83525 3.71601 9.54612 4.54579C9.4905 4.70542 9.26535 4.70542 9.20973 4.54579C8.9206 3.71601 8.58329 3.3787 7.75351 3.08957C7.59388 3.03395 7.59388 2.8088 7.75351 2.75319C8.58329 2.46406 8.9206 2.12674 9.20973 1.29697C9.26535 1.13734 9.4905 1.13734 9.54612 1.29697Z" fill="#FE9901"/>
<path d="M8.50705 2.38062C8.31018 2.52761 8.06709 2.64383 7.75351 2.75309C7.59388 2.80871 7.59388 3.03386 7.75351 3.08947C8.58329 3.37861 8.9206 3.71592 9.20973 4.54569C9.26535 4.70532 9.4905 4.70532 9.54611 4.54569C9.65401 4.23605 9.76864 3.99515 9.91301 3.79959C9.63077 3.00061 9.29794 2.66379 8.50705 2.38062Z" fill="#FB8801"/>
<path d="M18.8466 2.81821C19.1358 3.64798 19.4731 3.9853 20.3029 4.27443C20.4625 4.33005 20.4625 4.5552 20.3029 4.61081C19.4731 4.89995 19.1358 5.23726 18.8466 6.06703C18.791 6.22666 18.5659 6.22666 18.5103 6.06703C18.2211 5.23726 17.8838 4.89995 17.0541 4.61081C16.8944 4.5552 16.8944 4.33005 17.0541 4.27443C17.8838 3.9853 18.2211 3.64798 18.5103 2.81821C18.5659 2.65858 18.791 2.65858 18.8466 2.81821Z" fill="#FE9901"/>
<path d="M17.8349 3.88013C17.6332 4.0373 17.3827 4.15996 17.054 4.27442C16.8944 4.33004 16.8944 4.55519 17.054 4.61081C17.8838 4.89994 18.2211 5.23725 18.5103 6.06702C18.5659 6.22665 18.791 6.22665 18.8466 6.06702C18.9588 5.74513 19.0786 5.498 19.2312 5.29839C18.95 4.50072 18.619 4.16286 17.8349 3.88013Z" fill="#FB8801"/>
</g>
<defs>
<clipPath id="clip0_2848_14706">
<rect width="28" height="28" fill="white"/>
</clipPath>
</defs>
</svg>
