<svg width="50" height="50" viewBox="0 0 50 50" fill="none" xmlns="http://www.w3.org/2000/svg">
<g clip-path="url(#clip0_6998_31049)">
<path d="M24.9998 49.9997C38.8068 49.9997 49.9996 38.807 49.9996 25C49.9996 11.193 38.8068 0.000183105 24.9998 0.000183105C11.1928 0.000183105 0 11.193 0 25C0 38.807 11.1928 49.9997 24.9998 49.9997Z" fill="#55ACEE"/>
<path d="M40.3142 17.9666C39.2429 18.4416 38.0904 18.7629 36.8818 18.9064C38.1158 18.1671 39.0628 16.9973 39.5098 15.6011C38.3551 16.2861 37.0757 16.783 35.7151 17.0508C34.6251 15.8899 33.072 15.1644 31.3523 15.1644C28.0527 15.1644 25.3766 17.8405 25.3766 21.14C25.3766 21.6084 25.4297 22.0643 25.5322 22.5019C20.5659 22.2528 16.1625 19.8739 13.215 16.2575C12.7007 17.1399 12.4057 18.1671 12.4057 19.2621C12.4057 21.3348 13.4614 23.1646 15.064 24.2359C14.0849 24.2052 13.1628 23.9364 12.3576 23.4877C12.3571 23.5131 12.3571 23.5385 12.3571 23.5634C12.3571 26.4588 14.4178 28.8737 17.1509 29.4223C16.65 29.5596 16.121 29.6322 15.5769 29.6322C15.191 29.6322 14.8171 29.5952 14.4525 29.5257C15.2128 31.8992 17.4192 33.627 20.0347 33.6756C17.9892 35.2785 15.4129 36.2336 12.6125 36.2336C12.1312 36.2336 11.6543 36.2055 11.1877 36.1498C13.8309 37.8459 16.9727 38.8348 20.3471 38.8348C31.3385 38.8348 37.3493 29.7294 37.3493 21.8321C37.3493 21.5732 37.3435 21.3152 37.3319 21.0594C38.5004 20.2171 39.5134 19.1649 40.3142 17.9666Z" fill="#F1F2F2"/>
</g>
<defs>
<clipPath id="clip0_6998_31049">
<rect width="50" height="50" fill="white" transform="translate(0 0.000183105)"/>
</clipPath>
</defs>
</svg>
