<svg width="133" height="30" viewBox="0 0 133 30" fill="none" xmlns="http://www.w3.org/2000/svg">
<rect width="30" height="30" rx="6" fill="#5B86E5"/>
<g clip-path="url(#clip0_7753_38126)">
<path d="M17.5871 12.6934C17.5152 12.6215 17.3712 12.5495 17.2992 12.4775C17.1553 12.4775 17.0833 12.4775 16.9394 12.4775L6.93561 15.2844L7.00758 15.4283L6.93561 15.2844C6.79167 15.3563 6.7197 15.4283 6.64773 15.5003C6.57576 15.5722 6.50379 15.7162 6.50379 15.8601C6.50379 16.0041 6.50379 16.148 6.57576 16.22C6.64773 16.3639 6.7197 16.4359 6.79167 16.5078L8.95076 18.0192L6.35985 20.6101C6.07197 20.826 6 20.97 6 21.1859C6 21.4018 6.07197 21.5457 6.21591 21.6897L8.59091 24.0647C8.73485 24.2086 8.87879 24.2806 9.0947 24.2806C9.31061 24.2806 9.45455 24.2086 9.59848 24.0647L9.52652 23.9927L9.59848 24.0647L12.1894 21.4738L13.7008 23.6328C13.7727 23.7048 13.9167 23.8488 13.9886 23.8488C14.1326 23.9207 14.2765 23.9207 14.3485 23.9207C14.4924 23.9207 14.5644 23.8488 14.7083 23.7768C14.7803 23.7048 14.8523 23.5609 14.9242 23.4169L14.7803 23.345L14.9242 23.4169L17.7311 13.4131C17.7311 13.2692 17.7311 13.1972 17.7311 13.0533C17.7311 12.9094 17.6591 12.7654 17.5871 12.6934ZM6.79167 16.4359L6.7197 16.5078L6.79167 16.4359ZM14.1326 22.3374L12.4773 19.9624L12.4053 19.8184L12.2614 19.9624L9.16667 23.0571L7.29545 21.1859L10.3182 18.0192L10.4621 17.8753L10.3182 17.8033L7.94318 16.076L16.6515 13.6291L14.1326 22.3374Z" fill="white"/>
<path d="M19.6743 16.7953C19.7462 16.9392 19.8902 17.0112 20.1061 17.0832H20.1781C20.322 17.0832 20.4659 17.0112 20.5379 16.9392C21.5455 16.0756 22.1932 14.7801 22.1932 13.4127C22.1932 10.8938 20.1781 8.80664 17.6591 8.80664C16.2917 8.80664 14.9962 9.45437 14.1326 10.5339C13.9167 10.7498 13.9167 10.8938 13.9167 11.0377C13.9167 11.1816 14.0606 11.3256 14.2046 11.4695C14.4924 11.6135 14.8523 11.5415 15.0682 11.3256C15.7159 10.5339 16.6515 10.1021 17.5871 10.1021C19.3864 10.1021 20.8977 11.6135 20.8977 13.4127C20.8977 14.3483 20.4659 15.2839 19.8182 15.9317C19.5303 16.1476 19.4584 16.5794 19.6743 16.7953Z" fill="white"/>
<path d="M17.5871 6C13.9886 6 10.9659 8.59091 10.3182 12.1174C10.3182 12.2614 10.3182 12.4773 10.4621 12.5492C10.5341 12.6932 10.678 12.7652 10.8939 12.7652C11.1818 12.8371 11.5417 12.5492 11.5417 12.2614C12.0454 9.31061 14.6364 7.15152 17.6591 7.15152C21.0417 7.15152 23.8485 9.95833 23.8485 13.3409C23.8485 16.2197 21.8333 18.8106 18.9545 19.3864C18.6667 19.4583 18.4507 19.7462 18.4507 20.1061C18.4507 20.25 18.5947 20.3939 18.6667 20.5379C18.7386 20.6099 18.8826 20.6098 18.9545 20.6098C19.0265 20.6098 19.0265 20.6098 19.0985 20.6098C22.481 19.8902 25 16.8674 25 13.3409C25 9.31061 21.6894 6 17.5871 6Z" fill="white"/>
</g>
<path d="M48.4688 22.2C47.0422 22.2 45.7555 21.8933 44.6088 21.28C43.4622 20.6533 42.5622 19.7933 41.9088 18.7C41.2555 17.5933 40.9288 16.36 40.9288 15C40.9288 13.64 41.2555 12.4133 41.9088 11.32C42.5622 10.2133 43.4622 9.35333 44.6088 8.74C45.7555 8.11333 47.0422 7.8 48.4688 7.8C49.8955 7.8 51.1822 8.11333 52.3288 8.74C53.4755 9.35333 54.3755 10.2067 55.0288 11.3C55.6822 12.3933 56.0088 13.6267 56.0088 15C56.0088 16.3733 55.6822 17.6067 55.0288 18.7C54.3755 19.7933 53.4755 20.6533 52.3288 21.28C51.1822 21.8933 49.8955 22.2 48.4688 22.2ZM48.4688 19.92C49.4022 19.92 50.2422 19.7133 50.9888 19.3C51.7355 18.8733 52.3222 18.2867 52.7488 17.54C53.1755 16.78 53.3888 15.9333 53.3888 15C53.3888 14.0667 53.1755 13.2267 52.7488 12.48C52.3222 11.72 51.7355 11.1333 50.9888 10.72C50.2422 10.2933 49.4022 10.08 48.4688 10.08C47.5355 10.08 46.6955 10.2933 45.9488 10.72C45.2022 11.1333 44.6155 11.72 44.1888 12.48C43.7622 13.2267 43.5488 14.0667 43.5488 15C43.5488 15.9333 43.7622 16.78 44.1888 17.54C44.6155 18.2867 45.2022 18.8733 45.9488 19.3C46.6955 19.7133 47.5355 19.92 48.4688 19.92ZM64.5848 11.2C65.9314 11.2 67.0114 11.5933 67.8248 12.38C68.6381 13.1667 69.0448 14.3333 69.0448 15.88V22H66.5448V16.2C66.5448 15.2667 66.3248 14.5667 65.8848 14.1C65.4448 13.62 64.8181 13.38 64.0048 13.38C63.0848 13.38 62.3581 13.66 61.8248 14.22C61.2914 14.7667 61.0248 15.56 61.0248 16.6V22H58.5248V11.32H60.9048V12.7C61.3181 12.2067 61.8381 11.8333 62.4648 11.58C63.0914 11.3267 63.7981 11.2 64.5848 11.2ZM82.3538 16.72C82.3538 16.8933 82.3405 17.14 82.3138 17.46H73.9338C74.0805 18.2467 74.4605 18.8733 75.0738 19.34C75.7005 19.7933 76.4738 20.02 77.3938 20.02C78.5672 20.02 79.5338 19.6333 80.2938 18.86L81.6338 20.4C81.1538 20.9733 80.5472 21.4067 79.8138 21.7C79.0805 21.9933 78.2538 22.14 77.3338 22.14C76.1605 22.14 75.1272 21.9067 74.2338 21.44C73.3405 20.9733 72.6472 20.3267 72.1538 19.5C71.6738 18.66 71.4338 17.7133 71.4338 16.66C71.4338 15.62 71.6672 14.6867 72.1338 13.86C72.6138 13.02 73.2738 12.3667 74.1138 11.9C74.9538 11.4333 75.9005 11.2 76.9538 11.2C77.9938 11.2 78.9205 11.4333 79.7338 11.9C80.5605 12.3533 81.2005 13 81.6538 13.84C82.1205 14.6667 82.3538 15.6267 82.3538 16.72ZM76.9538 13.2C76.1538 13.2 75.4738 13.44 74.9138 13.92C74.3672 14.3867 74.0338 15.0133 73.9138 15.8H79.9738C79.8672 15.0267 79.5405 14.4 78.9938 13.92C78.4472 13.44 77.7672 13.2 76.9538 13.2ZM90.7552 8C91.9686 8 93.0219 8.2 93.9152 8.6C94.8219 9 95.5152 9.57333 95.9952 10.32C96.4752 11.0667 96.7152 11.9533 96.7152 12.98C96.7152 13.9933 96.4752 14.88 95.9952 15.64C95.5152 16.3867 94.8219 16.96 93.9152 17.36C93.0219 17.76 91.9686 17.96 90.7552 17.96H87.5952V22H84.9952V8H90.7552ZM90.6352 15.76C91.7686 15.76 92.6286 15.52 93.2152 15.04C93.8019 14.56 94.0952 13.8733 94.0952 12.98C94.0952 12.0867 93.8019 11.4 93.2152 10.92C92.6286 10.44 91.7686 10.2 90.6352 10.2H87.5952V15.76H90.6352ZM98.974 11.32H101.474V22H98.974V11.32ZM100.234 9.56C99.7807 9.56 99.4007 9.42 99.094 9.14C98.7873 8.84667 98.634 8.48667 98.634 8.06C98.634 7.63333 98.7873 7.28 99.094 7C99.4007 6.70667 99.7807 6.56 100.234 6.56C100.687 6.56 101.067 6.7 101.374 6.98C101.681 7.24667 101.834 7.58667 101.834 8C101.834 8.44 101.681 8.81333 101.374 9.12C101.081 9.41333 100.701 9.56 100.234 9.56ZM111.555 22L108.815 18.3L106.055 22H103.295L107.455 16.58L103.475 11.32H106.255L108.875 14.82L111.495 11.32H114.195L110.195 16.54L114.375 22H111.555ZM125.909 16.72C125.909 16.8933 125.895 17.14 125.869 17.46H117.489C117.635 18.2467 118.015 18.8733 118.629 19.34C119.255 19.7933 120.029 20.02 120.949 20.02C122.122 20.02 123.089 19.6333 123.849 18.86L125.189 20.4C124.709 20.9733 124.102 21.4067 123.369 21.7C122.635 21.9933 121.809 22.14 120.889 22.14C119.715 22.14 118.682 21.9067 117.789 21.44C116.895 20.9733 116.202 20.3267 115.709 19.5C115.229 18.66 114.989 17.7133 114.989 16.66C114.989 15.62 115.222 14.6867 115.689 13.86C116.169 13.02 116.829 12.3667 117.669 11.9C118.509 11.4333 119.455 11.2 120.509 11.2C121.549 11.2 122.475 11.4333 123.289 11.9C124.115 12.3533 124.755 13 125.209 13.84C125.675 14.6667 125.909 15.6267 125.909 16.72ZM120.509 13.2C119.709 13.2 119.029 13.44 118.469 13.92C117.922 14.3867 117.589 15.0133 117.469 15.8H123.529C123.422 15.0267 123.095 14.4 122.549 13.92C122.002 13.44 121.322 13.2 120.509 13.2ZM128.31 7.16H130.81V22H128.31V7.16Z" fill="#5B86E5"/>
<defs>
<clipPath id="clip0_7753_38126">
<rect width="19" height="18.2803" fill="white" transform="translate(6 6)"/>
</clipPath>
</defs>
</svg>
