<svg width="117" height="30" viewBox="0 0 117 30" fill="none" xmlns="http://www.w3.org/2000/svg">
<path d="M26.9413 0H3.05873C1.37031 0 0 1.37031 0 3.05873V26.9413C0 28.6297 1.37031 30 3.05873 30H26.9413C28.6297 30 30 28.6297 30 26.9413V3.05873C30 1.37031 28.6297 0 26.9413 0Z" fill="#5B86E5"/>
<g clip-path="url(#clip0_3964_9749)">
<path d="M22.0005 13.2013C20.7517 10.7882 19.2969 7.73297 18.9747 6.40645C18.8784 6.01484 18.8851 5.69027 19.2272 5.39039C19.5194 5.12932 19.8815 5.14343 20.0874 5.28103C20.3863 5.4927 20.3199 5.95487 20.2502 6.20888C20.1605 6.55815 20.011 6.65694 19.8948 6.70986L20.393 8.04343C20.7882 7.87762 21.313 7.48601 21.5521 6.59343C21.8311 5.52798 21.5588 4.58601 20.8214 4.07799C20.0907 3.56996 19.081 3.65816 18.3636 4.28261C17.872 4.70949 17.3539 5.48565 17.6595 6.76278C18.0879 8.54793 20.001 12.3476 20.8081 13.8893C20.8148 13.8963 20.8148 13.9105 20.8081 13.9175L16.7461 24.0428C16.7394 24.0569 16.7195 24.071 16.6996 24.064L9.62499 20.857C9.60506 20.85 9.59842 20.8288 9.60506 20.8076L13.6871 10.6577C13.6871 10.6506 13.6937 10.6435 13.707 10.6365L17.6727 9.32409L17.2709 7.96229L13.2918 9.27469L13.2785 9.28175C12.9032 9.41228 12.6043 9.70863 12.4449 10.0932L8.36285 20.2432C8.06393 20.9911 8.38942 21.8519 9.09356 22.173L16.1715 25.387C16.3475 25.4681 16.5335 25.5034 16.7162 25.5034C16.8922 25.5034 17.0649 25.4681 17.2343 25.394C17.5764 25.2494 17.8488 24.9671 17.9916 24.6037L22.0603 14.482C22.2264 14.0727 22.2065 13.6 22.0005 13.2013Z" fill="white"/>
<path d="M16.3675 19.3544C15.9258 19.7919 15.587 19.6825 15.2249 19.5167L14.1455 19.0299C13.7835 18.8676 13.6705 18.6347 13.8034 18.3031L14.5075 16.5497C14.5075 16.5497 15.298 16.906 15.5637 17.0542C15.7597 17.16 15.8593 17.28 15.8029 17.6081L15.7298 18.0491L16.042 18.1902L16.424 17.1741L16.8757 16.1793L16.5635 16.0381L16.2845 16.4368C16.1018 16.6979 16.0354 16.7331 15.7431 16.6379C15.4109 16.532 14.6636 16.1863 14.6603 16.1828L15.4907 14.1119C15.5205 14.0342 15.5471 13.9919 15.67 14.0484L17.3274 14.7998C17.6164 14.9303 17.6728 15.2655 17.5898 15.8088L17.5267 16.2428L17.809 16.3698C18.3072 15.2761 18.5464 14.8139 18.5464 14.8139C18.5464 14.8139 17.8024 14.5775 17.3839 14.387L15.2615 13.4274L14.1388 12.8735L14.0093 13.1981L14.3614 13.4486C14.6072 13.625 14.647 13.7132 14.564 13.9848C14.564 13.9848 14.2783 14.7645 13.7668 16.0346C13.2587 17.3047 12.9298 18.0561 12.9298 18.0561C12.8369 18.2855 12.7173 18.3313 12.4283 18.2643L12.0131 18.169L11.8836 18.4936L13.0361 18.9699L14.9327 19.8272C15.3611 20.0212 16.3376 20.5081 16.3376 20.5081C16.4705 20.24 17.1181 19.051 17.1945 18.924L16.9255 18.8041L16.3675 19.3544Z" fill="white"/>
</g>
<path d="M41.894 20.1401C40.8953 20.1401 39.9947 19.9254 39.192 19.4961C38.3893 19.0574 37.7593 18.4554 37.302 17.6901C36.8447 16.9154 36.616 16.0521 36.616 15.1001C36.616 14.1481 36.8447 13.2894 37.302 12.5241C37.7593 11.7494 38.3893 11.1474 39.192 10.7181C39.9947 10.2794 40.8953 10.0601 41.894 10.0601C42.8927 10.0601 43.7933 10.2794 44.596 10.7181C45.3987 11.1474 46.0287 11.7447 46.486 12.5101C46.9433 13.2754 47.172 14.1387 47.172 15.1001C47.172 16.0614 46.9433 16.9247 46.486 17.6901C46.0287 18.4554 45.3987 19.0574 44.596 19.4961C43.7933 19.9254 42.8927 20.1401 41.894 20.1401ZM41.894 18.5441C42.5473 18.5441 43.1353 18.3994 43.658 18.1101C44.1807 17.8114 44.5913 17.4007 44.89 16.8781C45.1887 16.3461 45.338 15.7534 45.338 15.1001C45.338 14.4467 45.1887 13.8587 44.89 13.3361C44.5913 12.8041 44.1807 12.3934 43.658 12.1041C43.1353 11.8054 42.5473 11.6561 41.894 11.6561C41.2407 11.6561 40.6527 11.8054 40.13 12.1041C39.6073 12.3934 39.1967 12.8041 38.898 13.3361C38.5993 13.8587 38.45 14.4467 38.45 15.1001C38.45 15.7534 38.5993 16.3461 38.898 16.8781C39.1967 17.4007 39.6073 17.8114 40.13 18.1101C40.6527 18.3994 41.2407 18.5441 41.894 18.5441Z" fill="#5B86E5"/>
<path d="M53.4552 12.4401C54.3978 12.4401 55.1538 12.7154 55.7232 13.2661C56.2925 13.8167 56.5772 14.6334 56.5772 15.7161V20.0001H54.8272V15.9401C54.8272 15.2867 54.6732 14.7967 54.3652 14.4701C54.0572 14.1341 53.6185 13.9661 53.0492 13.9661C52.4052 13.9661 51.8965 14.1621 51.5232 14.5541C51.1498 14.9367 50.9632 15.4921 50.9632 16.2201V20.0001H49.2132V12.5241H50.8792V13.4901C51.1685 13.1447 51.5325 12.8834 51.9712 12.7061C52.4098 12.5287 52.9045 12.4401 53.4552 12.4401Z" fill="#5B86E5"/>
<path d="M66.1735 16.3041C66.1735 16.4254 66.1642 16.5981 66.1455 16.8221H60.2795C60.3822 17.3727 60.6482 17.8114 61.0775 18.1381C61.5162 18.4554 62.0575 18.6141 62.7015 18.6141C63.5228 18.6141 64.1995 18.3434 64.7315 17.8021L65.6695 18.8801C65.3335 19.2814 64.9088 19.5847 64.3955 19.7901C63.8822 19.9954 63.3035 20.0981 62.6595 20.0981C61.8382 20.0981 61.1148 19.9347 60.4895 19.6081C59.8642 19.2814 59.3788 18.8287 59.0335 18.2501C58.6975 17.6621 58.5295 16.9994 58.5295 16.2621C58.5295 15.5341 58.6928 14.8807 59.0195 14.3021C59.3555 13.7141 59.8175 13.2567 60.4055 12.9301C60.9935 12.6034 61.6562 12.4401 62.3935 12.4401C63.1215 12.4401 63.7702 12.6034 64.3395 12.9301C64.9182 13.2474 65.3662 13.7001 65.6835 14.2881C66.0102 14.8667 66.1735 15.5387 66.1735 16.3041ZM62.3935 13.8401C61.8335 13.8401 61.3575 14.0081 60.9655 14.3441C60.5828 14.6707 60.3495 15.1094 60.2655 15.6601H64.5075C64.4328 15.1187 64.2042 14.6801 63.8215 14.3441C63.4388 14.0081 62.9628 13.8401 62.3935 13.8401Z" fill="#5B86E5"/>
<path d="M75.6525 18.4741V20.0001H68.3025V10.2001H75.4565V11.7261H70.1225V14.2741H74.8545V15.7721H70.1225V18.4741H75.6525Z" fill="#5B86E5"/>
<path d="M82.1507 19.5941C81.9453 19.7621 81.6933 19.8881 81.3947 19.9721C81.1053 20.0561 80.7973 20.0981 80.4707 20.0981C79.6493 20.0981 79.0147 19.8834 78.5667 19.4541C78.1187 19.0247 77.8947 18.3994 77.8947 17.5781V13.9801H76.6627V12.5801H77.8947V10.8721H79.6447V12.5801H81.6467V13.9801H79.6447V17.5361C79.6447 17.9001 79.7333 18.1801 79.9107 18.3761C80.088 18.5627 80.3447 18.6561 80.6807 18.6561C81.0727 18.6561 81.3993 18.5534 81.6607 18.3481L82.1507 19.5941Z" fill="#5B86E5"/>
<path d="M86.1803 20.0981C85.5736 20.0981 84.9809 20.0187 84.4023 19.8601C83.8236 19.7014 83.3616 19.5007 83.0163 19.2581L83.6883 17.9281C84.0243 18.1521 84.4256 18.3341 84.8923 18.4741C85.3683 18.6047 85.8349 18.6701 86.2923 18.6701C87.3376 18.6701 87.8603 18.3947 87.8603 17.8441C87.8603 17.5827 87.7249 17.4007 87.4543 17.2981C87.1929 17.1954 86.7683 17.0974 86.1803 17.0041C85.5643 16.9107 85.0603 16.8034 84.6683 16.6821C84.2856 16.5607 83.9496 16.3507 83.6603 16.0521C83.3803 15.7441 83.2403 15.3194 83.2403 14.7781C83.2403 14.0687 83.5343 13.5041 84.1223 13.0841C84.7196 12.6547 85.5223 12.4401 86.5303 12.4401C87.0436 12.4401 87.5569 12.5007 88.0703 12.6221C88.5836 12.7341 89.0036 12.8881 89.3303 13.0841L88.6583 14.4141C88.0236 14.0407 87.3096 13.8541 86.5163 13.8541C86.0029 13.8541 85.6109 13.9334 85.3403 14.0921C85.0789 14.2414 84.9483 14.4421 84.9483 14.6941C84.9483 14.9741 85.0883 15.1747 85.3683 15.2961C85.6576 15.4081 86.1009 15.5154 86.6983 15.6181C87.2956 15.7114 87.7856 15.8187 88.1683 15.9401C88.5509 16.0614 88.8776 16.2667 89.1483 16.5561C89.4283 16.8454 89.5683 17.2561 89.5683 17.7881C89.5683 18.4881 89.2649 19.0481 88.6583 19.4681C88.0516 19.8881 87.2256 20.0981 86.1803 20.0981Z" fill="#5B86E5"/>
<path d="M98.2186 12.5241L94.7186 20.6021C94.392 21.4141 93.9953 21.9834 93.5286 22.3101C93.062 22.6461 92.4973 22.8141 91.8346 22.8141C91.4613 22.8141 91.0926 22.7534 90.7286 22.6321C90.3646 22.5107 90.066 22.3427 89.8326 22.1281L90.5326 20.8401C90.7006 20.9987 90.8966 21.1247 91.1206 21.2181C91.354 21.3114 91.5873 21.3581 91.8206 21.3581C92.1286 21.3581 92.3806 21.2787 92.5766 21.1201C92.782 20.9614 92.9686 20.6954 93.1366 20.3221L93.2626 20.0281L90.0006 12.5241H91.8206L94.1726 18.0541L96.5386 12.5241H98.2186Z" fill="#5B86E5"/>
<defs>
<clipPath id="clip0_3964_9749">
<rect width="13.92" height="21.75" fill="white" transform="translate(8.25 3.75)"/>
</clipPath>
</defs>
</svg>
