<svg width="50" height="50" viewBox="0 0 50 50" fill="none" xmlns="http://www.w3.org/2000/svg">
<path d="M50 25.1528C50 37.7076 40.8574 48.1135 28.9062 50V32.4235H34.7314L35.8398 25.1528H28.9062V20.4347C28.9062 18.445 29.875 16.5065 32.9805 16.5065H36.1328V10.3166C36.1328 10.3166 33.2715 9.82531 30.5361 9.82531C24.8262 9.82531 21.0938 13.3074 21.0938 19.6113V25.1528H14.7461V32.4235H21.0938V50C9.14258 48.1135 0 37.7076 0 25.1528C0 11.2618 11.1934 0 25 0C38.8066 0 50 11.2618 50 25.1528Z" fill="#1877F2"/>
<path d="M34.7314 32.2266L35.8398 25H28.9062V20.3104C28.9062 18.3334 29.8748 16.4062 32.9804 16.4062H36.1328V10.2539C36.1328 10.2539 33.2719 9.76562 30.5366 9.76562C24.8261 9.76562 21.0938 13.2266 21.0938 19.4922V25H14.7461V32.2266H21.0938V49.6962C22.3666 49.8959 23.6711 50 25 50C26.3289 50 27.6334 49.8959 28.9062 49.6962V32.2266H34.7314Z" fill="white"/>
</svg>
