<svg width="211" height="30" viewBox="0 0 211 30" fill="none" xmlns="http://www.w3.org/2000/svg">
<rect width="30" height="30" rx="6" fill="#5B86E5"/>
<rect width="30" height="30" rx="6" fill="#5B86E5"/>
<path d="M18.7423 21.8276C17.567 22.5103 16.268 22.8207 14.9072 22.8207C10.6392 22.8207 7.1134 19.2827 7.1134 15C7.1134 13.8207 7.36082 12.7034 7.85567 11.6483C7.97938 11.3379 7.85567 11.0276 7.60825 10.8414C7.54639 10.7793 7.48454 10.7793 7.42268 10.7793C7.17526 10.7793 6.98969 10.9034 6.86598 11.0896C6.30928 12.331 6 13.6345 6 14.9379C6 19.9655 10.0206 24 14.9691 24C16.5155 24 18 23.6276 19.3608 22.8207C19.6701 22.6345 19.732 22.3241 19.6082 22.0138C19.4227 21.7655 19.0515 21.6414 18.7423 21.8276Z" fill="white"/>
<path d="M8.47415 9.84827C8.59786 9.97241 8.78342 10.0345 8.96899 10.0345C9.15456 10.0345 9.40198 9.97241 9.52569 9.78621C9.83497 9.47586 9.77311 8.97931 9.46384 8.66896C9.21641 8.42069 8.78342 8.42069 8.47415 8.73103C8.16487 9.10345 8.16487 9.53793 8.47415 9.84827Z" fill="white"/>
<path d="M21.464 20.2138C21.1547 19.9034 20.6599 19.9034 20.3506 20.2138C20.0413 20.5241 20.0413 21.0207 20.3506 21.331C20.4743 21.4552 20.7217 21.5793 20.9073 21.5793C21.0929 21.5793 21.2784 21.5172 21.464 21.331C21.7733 20.9586 21.7733 20.4621 21.464 20.2138Z" fill="white"/>
<path d="M10.3299 13.4483C10.3299 13.4483 10.3299 13.3862 10.3918 13.3862L10.8866 13.3241C11.1959 13.2621 11.3815 13.0138 11.3196 12.7034C11.2577 12.3931 11.0103 12.2069 10.701 12.269L10.2062 12.331C9.77321 12.3931 9.40207 12.7034 9.27836 13.1379C9.15465 13.5724 9.27836 14.0069 9.58764 14.3793L11.3815 16.1793C11.3815 16.1793 11.4433 16.2414 11.4433 16.3034L11.0103 18.8483C10.9485 19.2207 11.134 19.6552 11.5052 19.9655C11.6907 20.0896 11.9382 20.2138 12.1856 20.2138C12.3711 20.2138 12.5567 20.1517 12.7423 20.0896L14.9691 18.9103C15.0309 18.9103 15.0309 18.9103 15.0928 18.9103L17.3196 20.0896C17.6907 20.2759 18.1856 20.2759 18.5567 20.0276C18.9278 19.7793 19.1134 19.3448 19.0516 18.8483L18.6186 16.3034C18.6186 16.2414 18.6186 16.2414 18.6804 16.1793L20.4742 14.3793C20.7835 14.069 20.9072 13.5724 20.7835 13.1379C20.6598 12.7034 20.2887 12.3931 19.8557 12.331L17.3196 11.9586C17.2577 11.9586 17.2577 11.8965 17.1959 11.8965L16.0825 9.6C15.8969 9.16551 15.4639 8.91724 15.0309 8.91724C14.598 8.91724 14.165 9.16551 13.9794 9.6L12.866 11.8965C12.866 11.9586 12.8041 11.9586 12.7423 11.9586L12.4949 12.0207C12.1856 12.0828 12 12.331 12.0619 12.6414C12.1237 12.9517 12.3711 13.1379 12.6804 13.0759L12.9278 13.0138C13.299 12.9517 13.6701 12.7034 13.7938 12.3931L14.9072 10.0965C14.9072 10.0345 14.9691 10.0345 15.0309 10.0345C15.0928 10.0345 15.0928 10.0345 15.1547 10.0965L16.2681 12.3931C16.4536 12.7655 16.7629 13.0138 17.134 13.0138L19.6701 13.3862C19.732 13.3862 19.732 13.4483 19.7938 13.4483C19.7938 13.5103 19.7938 13.5724 19.732 13.5724L17.9382 15.3724C17.6907 15.6207 17.5052 16.0552 17.6289 16.4276L18.0619 18.9724C18.0619 19.0345 18.0619 19.0965 18 19.0965C17.9382 19.1586 17.9382 19.1586 17.8763 19.0965L15.6495 17.9172C15.2784 17.731 14.9072 17.731 14.5361 17.9172L12.3093 19.0965C12.2474 19.0965 12.2474 19.0965 12.1856 19.0965C12.0619 19.0345 12.0619 19.0345 12.0619 18.9724L12.4949 16.4276C12.5567 16.0552 12.433 15.6828 12.1856 15.3724L10.3299 13.6345C10.3299 13.5724 10.2681 13.5103 10.3299 13.4483Z" fill="white"/>
<path d="M14.9689 6C13.4225 6 11.938 6.37241 10.5772 7.17931C10.3297 7.30345 10.206 7.67586 10.3916 7.92414C10.5772 8.23448 10.8864 8.29655 11.1957 8.17241C12.371 7.48966 13.6699 7.17931 15.0308 7.17931C19.2988 7.17931 22.8246 10.7172 22.8246 15C22.8246 16.1793 22.5772 17.2966 22.0823 18.3517C21.9586 18.6621 22.0823 18.9724 22.3297 19.1586C22.3916 19.2207 22.5153 19.2207 22.5772 19.2207C22.8246 19.2207 23.0101 19.0966 23.1339 18.9103C23.6906 17.669 23.9998 16.3655 23.9998 15.0621C23.938 10.0345 19.9174 6 14.9689 6Z" fill="white"/>
<path d="M46.578 21.144C45.306 21.144 44.16 20.868 43.14 20.316C42.12 19.752 41.316 18.978 40.728 17.994C40.152 17.01 39.864 15.912 39.864 14.7C39.864 13.488 40.152 12.39 40.728 11.406C41.316 10.422 42.12 9.654 43.14 9.102C44.16 8.538 45.306 8.256 46.578 8.256C47.838 8.256 48.978 8.538 49.998 9.102C51.018 9.654 51.816 10.422 52.392 11.406C52.968 12.378 53.256 13.476 53.256 14.7C53.256 15.924 52.968 17.028 52.392 18.012C51.816 18.984 51.018 19.752 49.998 20.316C48.978 20.868 47.838 21.144 46.578 21.144ZM46.578 19.542C47.502 19.542 48.33 19.332 49.062 18.912C49.806 18.492 50.388 17.916 50.808 17.184C51.24 16.44 51.456 15.612 51.456 14.7C51.456 13.788 51.24 12.966 50.808 12.234C50.388 11.49 49.806 10.908 49.062 10.488C48.33 10.068 47.502 9.858 46.578 9.858C45.654 9.858 44.814 10.068 44.058 10.488C43.314 10.908 42.726 11.49 42.294 12.234C41.874 12.966 41.664 13.788 41.664 14.7C41.664 15.612 41.874 16.44 42.294 17.184C42.726 17.916 43.314 18.492 44.058 18.912C44.814 19.332 45.654 19.542 46.578 19.542ZM60.8492 11.37C62.0612 11.37 63.0212 11.724 63.7292 12.432C64.4492 13.128 64.8092 14.154 64.8092 15.51V21H63.0812V15.708C63.0812 14.784 62.8592 14.088 62.4152 13.62C61.9712 13.152 61.3352 12.918 60.5072 12.918C59.5712 12.918 58.8332 13.194 58.2932 13.746C57.7532 14.286 57.4832 15.066 57.4832 16.086V21H55.7552V11.46H57.4112V12.9C57.7592 12.408 58.2272 12.03 58.8152 11.766C59.4152 11.502 60.0932 11.37 60.8492 11.37ZM76.6819 16.284C76.6819 16.416 76.6699 16.59 76.6459 16.806H68.9059C69.0139 17.646 69.3799 18.324 70.0039 18.84C70.6399 19.344 71.4259 19.596 72.3619 19.596C73.5019 19.596 74.4199 19.212 75.1159 18.444L76.0699 19.56C75.6379 20.064 75.0979 20.448 74.4499 20.712C73.8139 20.976 73.0999 21.108 72.3079 21.108C71.2999 21.108 70.4059 20.904 69.6259 20.496C68.8459 20.076 68.2399 19.494 67.8079 18.75C67.3879 18.006 67.1779 17.166 67.1779 16.23C67.1779 15.306 67.3819 14.472 67.7899 13.728C68.2099 12.984 68.7799 12.408 69.4999 12C70.2319 11.58 71.0539 11.37 71.9659 11.37C72.8779 11.37 73.6879 11.58 74.3959 12C75.1159 12.408 75.6739 12.984 76.0699 13.728C76.4779 14.472 76.6819 15.324 76.6819 16.284ZM71.9659 12.828C71.1379 12.828 70.4419 13.08 69.8779 13.584C69.3259 14.088 69.0019 14.748 68.9059 15.564H75.0259C74.9299 14.76 74.5999 14.106 74.0359 13.602C73.4839 13.086 72.7939 12.828 71.9659 12.828ZM83.0054 21.144C82.0574 21.144 81.1394 21 80.2514 20.712C79.3754 20.412 78.6854 20.028 78.1814 19.56L78.8474 18.156C79.3274 18.588 79.9394 18.942 80.6834 19.218C81.4394 19.482 82.2134 19.614 83.0054 19.614C84.0494 19.614 84.8294 19.44 85.3454 19.092C85.8614 18.732 86.1194 18.258 86.1194 17.67C86.1194 17.238 85.9754 16.89 85.6874 16.626C85.4114 16.35 85.0634 16.14 84.6434 15.996C84.2354 15.852 83.6534 15.69 82.8974 15.51C81.9494 15.282 81.1814 15.054 80.5934 14.826C80.0174 14.598 79.5194 14.25 79.0994 13.782C78.6914 13.302 78.4874 12.66 78.4874 11.856C78.4874 11.184 78.6614 10.578 79.0094 10.038C79.3694 9.498 79.9094 9.066 80.6294 8.742C81.3494 8.418 82.2434 8.256 83.3114 8.256C84.0554 8.256 84.7874 8.352 85.5074 8.544C86.2274 8.736 86.8454 9.012 87.3614 9.372L86.7674 10.812C86.2394 10.476 85.6754 10.224 85.0754 10.056C84.4754 9.876 83.8874 9.786 83.3114 9.786C82.2914 9.786 81.5234 9.972 81.0074 10.344C80.5034 10.716 80.2514 11.196 80.2514 11.784C80.2514 12.216 80.3954 12.57 80.6834 12.846C80.9714 13.11 81.3254 13.32 81.7454 13.476C82.1774 13.62 82.7594 13.776 83.4914 13.944C84.4394 14.172 85.2014 14.4 85.7774 14.628C86.3534 14.856 86.8454 15.204 87.2534 15.672C87.6734 16.14 87.8834 16.77 87.8834 17.562C87.8834 18.222 87.7034 18.828 87.3434 19.38C86.9834 19.92 86.4374 20.352 85.7054 20.676C84.9734 20.988 84.0734 21.144 83.0054 21.144ZM99.153 11.46V21H97.515V19.56C97.167 20.052 96.705 20.436 96.129 20.712C95.565 20.976 94.947 21.108 94.275 21.108C93.003 21.108 92.001 20.76 91.269 20.064C90.537 19.356 90.171 18.318 90.171 16.95V11.46H91.899V16.752C91.899 17.676 92.121 18.378 92.565 18.858C93.009 19.326 93.645 19.56 94.473 19.56C95.385 19.56 96.105 19.284 96.633 18.732C97.161 18.18 97.425 17.4 97.425 16.392V11.46H99.153ZM107.501 11.37C108.425 11.37 109.253 11.574 109.985 11.982C110.717 12.39 111.287 12.96 111.695 13.692C112.115 14.424 112.325 15.27 112.325 16.23C112.325 17.19 112.115 18.042 111.695 18.786C111.287 19.518 110.717 20.088 109.985 20.496C109.253 20.904 108.425 21.108 107.501 21.108C106.793 21.108 106.145 20.97 105.557 20.694C104.969 20.418 104.483 20.016 104.099 19.488V21H102.443V7.644H104.171V12.9C104.555 12.396 105.035 12.018 105.611 11.766C106.187 11.502 106.817 11.37 107.501 11.37ZM107.357 19.596C107.969 19.596 108.515 19.458 108.995 19.182C109.487 18.894 109.871 18.498 110.147 17.994C110.435 17.478 110.579 16.89 110.579 16.23C110.579 15.57 110.435 14.988 110.147 14.484C109.871 13.968 109.487 13.572 108.995 13.296C108.515 13.02 107.969 12.882 107.357 12.882C106.757 12.882 106.211 13.02 105.719 13.296C105.227 13.572 104.843 13.968 104.567 14.484C104.291 14.988 104.153 15.57 104.153 16.23C104.153 16.89 104.291 17.478 104.567 17.994C104.843 18.498 105.227 18.894 105.719 19.182C106.211 19.458 106.757 19.596 107.357 19.596ZM117.448 21.108C116.668 21.108 115.918 21.006 115.198 20.802C114.478 20.586 113.914 20.316 113.506 19.992L114.226 18.624C114.646 18.924 115.156 19.164 115.756 19.344C116.356 19.524 116.962 19.614 117.574 19.614C119.086 19.614 119.842 19.182 119.842 18.318C119.842 18.03 119.74 17.802 119.536 17.634C119.332 17.466 119.074 17.346 118.762 17.274C118.462 17.19 118.03 17.1 117.466 17.004C116.698 16.884 116.068 16.746 115.576 16.59C115.096 16.434 114.682 16.17 114.334 15.798C113.986 15.426 113.812 14.904 113.812 14.232C113.812 13.368 114.172 12.678 114.892 12.162C115.612 11.634 116.578 11.37 117.79 11.37C118.426 11.37 119.062 11.448 119.698 11.604C120.334 11.76 120.856 11.97 121.264 12.234L120.526 13.602C119.746 13.098 118.828 12.846 117.772 12.846C117.04 12.846 116.482 12.966 116.098 13.206C115.714 13.446 115.522 13.764 115.522 14.16C115.522 14.472 115.63 14.718 115.846 14.898C116.062 15.078 116.326 15.21 116.638 15.294C116.962 15.378 117.412 15.474 117.988 15.582C118.756 15.714 119.374 15.858 119.842 16.014C120.322 16.158 120.73 16.41 121.066 16.77C121.402 17.13 121.57 17.634 121.57 18.282C121.57 19.146 121.198 19.836 120.454 20.352C119.722 20.856 118.72 21.108 117.448 21.108ZM127.888 21.108C126.916 21.108 126.046 20.898 125.278 20.478C124.522 20.058 123.928 19.482 123.496 18.75C123.064 18.006 122.848 17.166 122.848 16.23C122.848 15.294 123.064 14.46 123.496 13.728C123.928 12.984 124.522 12.408 125.278 12C126.046 11.58 126.916 11.37 127.888 11.37C128.752 11.37 129.52 11.544 130.192 11.892C130.876 12.24 131.404 12.744 131.776 13.404L130.462 14.25C130.162 13.794 129.79 13.452 129.346 13.224C128.902 12.996 128.41 12.882 127.87 12.882C127.246 12.882 126.682 13.02 126.178 13.296C125.686 13.572 125.296 13.968 125.008 14.484C124.732 14.988 124.594 15.57 124.594 16.23C124.594 16.902 124.732 17.496 125.008 18.012C125.296 18.516 125.686 18.906 126.178 19.182C126.682 19.458 127.246 19.596 127.87 19.596C128.41 19.596 128.902 19.482 129.346 19.254C129.79 19.026 130.162 18.684 130.462 18.228L131.776 19.056C131.404 19.716 130.876 20.226 130.192 20.586C129.52 20.934 128.752 21.108 127.888 21.108ZM135.669 13.062C135.969 12.51 136.413 12.09 137.001 11.802C137.589 11.514 138.303 11.37 139.143 11.37V13.044C139.047 13.032 138.915 13.026 138.747 13.026C137.811 13.026 137.073 13.308 136.533 13.872C136.005 14.424 135.741 15.216 135.741 16.248V21H134.013V11.46H135.669V13.062ZM141.273 11.46H143.001V21H141.273V11.46ZM142.137 9.624C141.801 9.624 141.519 9.516 141.291 9.3C141.075 9.084 140.967 8.82 140.967 8.508C140.967 8.196 141.075 7.932 141.291 7.716C141.519 7.488 141.801 7.374 142.137 7.374C142.473 7.374 142.749 7.482 142.965 7.698C143.193 7.902 143.307 8.16 143.307 8.472C143.307 8.796 143.193 9.072 142.965 9.3C142.749 9.516 142.473 9.624 142.137 9.624ZM151.358 11.37C152.282 11.37 153.11 11.574 153.842 11.982C154.574 12.39 155.144 12.96 155.552 13.692C155.972 14.424 156.182 15.27 156.182 16.23C156.182 17.19 155.972 18.042 155.552 18.786C155.144 19.518 154.574 20.088 153.842 20.496C153.11 20.904 152.282 21.108 151.358 21.108C150.674 21.108 150.044 20.976 149.468 20.712C148.904 20.448 148.424 20.064 148.028 19.56V24.492H146.3V11.46H147.956V12.972C148.34 12.444 148.826 12.048 149.414 11.784C150.002 11.508 150.65 11.37 151.358 11.37ZM151.214 19.596C151.826 19.596 152.372 19.458 152.852 19.182C153.344 18.894 153.728 18.498 154.004 17.994C154.292 17.478 154.436 16.89 154.436 16.23C154.436 15.57 154.292 14.988 154.004 14.484C153.728 13.968 153.344 13.572 152.852 13.296C152.372 13.02 151.826 12.882 151.214 12.882C150.614 12.882 150.068 13.026 149.576 13.314C149.096 13.59 148.712 13.98 148.424 14.484C148.148 14.988 148.01 15.57 148.01 16.23C148.01 16.89 148.148 17.478 148.424 17.994C148.7 18.498 149.084 18.894 149.576 19.182C150.068 19.458 150.614 19.596 151.214 19.596ZM163.934 20.442C163.682 20.658 163.37 20.826 162.998 20.946C162.626 21.054 162.242 21.108 161.846 21.108C160.886 21.108 160.142 20.85 159.614 20.334C159.086 19.818 158.822 19.08 158.822 18.12V12.882H157.202V11.46H158.822V9.372H160.55V11.46H163.286V12.882H160.55V18.048C160.55 18.564 160.676 18.96 160.928 19.236C161.192 19.512 161.564 19.65 162.044 19.65C162.572 19.65 163.022 19.5 163.394 19.2L163.934 20.442ZM166.023 11.46H167.751V21H166.023V11.46ZM166.887 9.624C166.551 9.624 166.269 9.516 166.041 9.3C165.825 9.084 165.717 8.82 165.717 8.508C165.717 8.196 165.825 7.932 166.041 7.716C166.269 7.488 166.551 7.374 166.887 7.374C167.223 7.374 167.499 7.482 167.715 7.698C167.943 7.902 168.057 8.16 168.057 8.472C168.057 8.796 167.943 9.072 167.715 9.3C167.499 9.516 167.223 9.624 166.887 9.624ZM175.136 21.108C174.188 21.108 173.336 20.898 172.58 20.478C171.824 20.058 171.23 19.482 170.798 18.75C170.378 18.006 170.168 17.166 170.168 16.23C170.168 15.294 170.378 14.46 170.798 13.728C171.23 12.984 171.824 12.408 172.58 12C173.336 11.58 174.188 11.37 175.136 11.37C176.084 11.37 176.93 11.58 177.674 12C178.43 12.408 179.018 12.984 179.438 13.728C179.87 14.46 180.086 15.294 180.086 16.23C180.086 17.166 179.87 18.006 179.438 18.75C179.018 19.482 178.43 20.058 177.674 20.478C176.93 20.898 176.084 21.108 175.136 21.108ZM175.136 19.596C175.748 19.596 176.294 19.458 176.774 19.182C177.266 18.894 177.65 18.498 177.926 17.994C178.202 17.478 178.34 16.89 178.34 16.23C178.34 15.57 178.202 14.988 177.926 14.484C177.65 13.968 177.266 13.572 176.774 13.296C176.294 13.02 175.748 12.882 175.136 12.882C174.524 12.882 173.972 13.02 173.48 13.296C173 13.572 172.616 13.968 172.328 14.484C172.052 14.988 171.914 15.57 171.914 16.23C171.914 16.89 172.052 17.478 172.328 17.994C172.616 18.498 173 18.894 173.48 19.182C173.972 19.458 174.524 19.596 175.136 19.596ZM187.57 11.37C188.782 11.37 189.742 11.724 190.45 12.432C191.17 13.128 191.53 14.154 191.53 15.51V21H189.802V15.708C189.802 14.784 189.58 14.088 189.136 13.62C188.692 13.152 188.056 12.918 187.228 12.918C186.292 12.918 185.554 13.194 185.014 13.746C184.474 14.286 184.204 15.066 184.204 16.086V21H182.476V11.46H184.132V12.9C184.48 12.408 184.948 12.03 185.536 11.766C186.136 11.502 186.814 11.37 187.57 11.37Z" fill="#5B86E5"/>
</svg>
