<svg width="50" height="50" viewBox="0 0 50 50" fill="none" xmlns="http://www.w3.org/2000/svg">
<path d="M25 49.4141C38.4835 49.4141 49.4141 38.4835 49.4141 25C49.4141 11.5165 38.4835 0.585938 25 0.585938C11.5165 0.585938 0.585938 11.5165 0.585938 25C0.585938 38.4835 11.5165 49.4141 25 49.4141Z" fill="#F7EC1E"/>
<path fill-rule="evenodd" clip-rule="evenodd" d="M25.7822 8.33909C29.0688 8.56848 32.2731 10.3398 33.7871 13.3414C35.1309 16.0059 34.6803 19.1325 34.5089 21.9965C35.398 22.4033 36.3638 21.533 37.1765 21.533C38.9831 21.533 40.2933 23.6044 37.2433 24.8151C36.6028 25.061 35.1591 25.3542 34.834 26.1203C34.3848 27.1702 37.3008 32.4479 41.9283 33.214C42.3457 33.2799 42.6441 33.6531 42.6167 34.0747C42.5307 35.5787 39.3946 36.1366 37.8935 36.3731C37.3677 37.4134 37.9987 38.9835 35.7423 38.539C32.6158 37.9238 31.5832 38.6997 30.1107 39.7402C23.2846 44.5922 20.2055 38.9079 17.4901 38.4538C15.4728 38.1133 14.1916 38.662 13.5127 38.662C12.2602 38.662 12.5279 37.0635 12.1553 36.3731C10.8076 36.165 8.04395 35.6732 7.51807 34.4436C6.69581 32.5141 9.82276 34.1598 13.2738 30.1306C13.995 29.28 14.5966 28.335 15.0618 27.3215C15.8935 25.6096 14.3923 25.4303 12.8144 24.8053C9.16201 23.3582 11.8392 20.9369 13.3976 21.6746C14.019 21.9676 14.9082 22.2606 15.5393 21.9871C15.3959 19.6794 15.0517 16.0284 15.9408 14.0328C17.6483 10.1713 21.645 8.05032 25.7822 8.33909V8.33909Z" fill="white"/>
<path fill-rule="evenodd" clip-rule="evenodd" d="M25.7346 9.02095C21.8526 8.75 18.1446 10.7393 16.566 14.3092L16.5652 14.311C16.1827 15.1696 16.0435 16.4574 16.0364 17.8963C16.0307 19.0578 16.1094 20.2425 16.1781 21.2767C16.1934 21.5075 16.2082 21.7308 16.2215 21.9447C16.2394 22.2321 16.0752 22.4998 15.811 22.6143C15.313 22.8301 14.7727 22.8018 14.3309 22.7136C13.8784 22.6232 13.4455 22.4529 13.1061 22.2929L13.1051 22.2924C12.9157 22.2028 12.6491 22.1926 12.363 22.2936C12.0749 22.3953 11.8501 22.5817 11.7414 22.7668C11.649 22.924 11.6339 23.0778 11.7397 23.2639C11.8687 23.4907 12.2222 23.8353 13.0661 24.1697C13.3 24.2623 13.508 24.3362 13.7201 24.4116C13.8707 24.4651 14.0234 24.5193 14.1887 24.5815C14.5438 24.715 14.9274 24.8754 15.2407 25.1007C15.5701 25.3376 15.8667 25.6791 15.956 26.1721C16.0405 26.6383 15.9171 27.1231 15.68 27.6133C15.1892 28.6809 14.5551 29.6764 13.7952 30.5726L13.793 30.5752C11.9525 32.7241 10.1732 33.3739 8.99003 33.7291C8.88468 33.7608 8.79021 33.7884 8.70377 33.8136C8.54284 33.8606 8.40976 33.8995 8.28609 33.9412C8.19541 33.9717 8.13197 33.997 8.08823 34.0167C8.0996 34.055 8.11773 34.107 8.14673 34.1751C8.20123 34.3022 8.34281 34.47 8.63839 34.6555C8.92739 34.8369 9.30673 34.9995 9.74105 35.1416C10.6093 35.4257 11.5897 35.594 12.2596 35.6974C12.4711 35.7301 12.6552 35.86 12.7568 36.0483C12.9065 36.3256 12.9743 36.6534 13.02 36.8945C13.0336 36.9661 13.0458 37.0332 13.0573 37.0968C13.091 37.2826 13.1194 37.4389 13.1622 37.5919C13.2185 37.7924 13.2748 37.8839 13.3137 37.9238L13.3147 37.9248C13.33 37.9405 13.3666 37.9783 13.5127 37.9783C13.6093 37.9783 13.7557 37.9572 14.0115 37.9095C14.0544 37.9015 14.0997 37.8929 14.1472 37.8838C14.3607 37.8433 14.6183 37.7944 14.9021 37.7535C15.6093 37.6517 16.5075 37.5947 17.6034 37.7796C18.4527 37.9218 19.2764 38.4568 20.0283 38.9608C20.1107 39.016 20.193 39.0715 20.2755 39.127C20.9914 39.6095 21.7163 40.0979 22.5363 40.4619C23.4337 40.8604 24.4211 41.0966 25.5659 40.9704C26.7154 40.8437 28.0793 40.3454 29.7147 39.1829L29.7162 39.1818C29.7483 39.1592 29.7804 39.1365 29.8125 39.1137C30.4986 38.6281 31.1948 38.1354 32.1118 37.8633C33.0858 37.5743 34.2452 37.5476 35.8743 37.8682L35.8744 37.8682C36.3883 37.9695 36.6227 37.9297 36.7141 37.8951C36.7607 37.8775 36.7913 37.8592 36.8337 37.7552C36.8881 37.6213 36.9168 37.456 36.9641 37.1835C36.969 37.1553 36.9741 37.1259 36.9795 37.0952C37.0293 36.81 37.1013 36.425 37.2835 36.0646C37.3826 35.8685 37.57 35.732 37.7871 35.6978C38.5384 35.5794 39.6385 35.3887 40.5522 35.0566C41.0108 34.89 41.3775 34.7032 41.6227 34.5042C41.8636 34.3087 41.9275 34.1534 41.9342 34.0356L41.9345 34.0303C41.939 33.9612 41.8901 33.9 41.8217 33.8892L41.8166 33.8883C39.2795 33.4683 37.2583 31.8254 35.9459 30.2035C35.2859 29.3878 34.7846 28.5529 34.4746 27.8348C34.3201 27.4769 34.2058 27.1312 34.1479 26.82C34.0949 26.5348 34.0682 26.1722 34.2055 25.8513C34.3518 25.5078 34.6053 25.2569 34.8552 25.075C35.107 24.8918 35.3923 24.7515 35.6584 24.6411C35.9267 24.5298 36.1998 24.4391 36.4333 24.3641C36.4847 24.3476 36.5332 24.3322 36.579 24.3176C36.7522 24.2623 36.8871 24.2193 36.9949 24.1781C37.6868 23.903 38.0536 23.6085 38.23 23.377C38.3937 23.1623 38.398 23.0025 38.3691 22.8903C38.2977 22.6129 37.8712 22.2166 37.1764 22.2166C37.087 22.2166 36.9595 22.2418 36.7642 22.309C36.6396 22.3519 36.5427 22.3902 36.4333 22.4335C36.3413 22.47 36.2405 22.5099 36.1069 22.559C35.6409 22.73 34.9396 22.9452 34.2245 22.6181C33.9678 22.5006 33.8096 22.2374 33.8265 21.9556C33.8496 21.5688 33.8771 21.1844 33.9045 20.8019C33.9813 19.7277 34.0571 18.6679 34.0328 17.6098C34.0001 16.1918 33.7857 14.8565 33.1767 13.6492C31.7909 10.9015 28.8276 9.23683 25.7346 9.02095ZM15.316 13.7554C17.1527 9.60283 21.4377 7.35052 25.8298 7.65708C29.3101 7.89999 32.7554 9.77787 34.3974 13.0335L33.7871 13.3414L34.3974 13.0335C35.1324 14.4907 35.3645 16.0509 35.3996 17.5783C35.4256 18.7068 35.3429 19.8615 35.2647 20.9536C35.254 21.1025 35.2435 21.2503 35.2332 21.3967C35.3444 21.3738 35.476 21.3342 35.6358 21.2755C35.6979 21.2527 35.7824 21.2197 35.8748 21.1837C36.023 21.1259 36.1913 21.0602 36.3195 21.0162C36.5616 20.9329 36.8595 20.8494 37.1764 20.8494C38.2884 20.8494 39.4202 21.4887 39.6932 22.5497C39.8364 23.1066 39.7093 23.6917 39.3173 24.2059C38.9384 24.7029 38.3262 25.1207 37.4955 25.4504C37.4931 25.4513 37.4907 25.4523 37.4883 25.4532C37.339 25.5105 37.1524 25.5699 36.9732 25.6269C36.932 25.64 36.8913 25.653 36.8514 25.6658C36.6239 25.7389 36.3957 25.8155 36.1823 25.904C35.9668 25.9934 35.7902 26.0855 35.6598 26.1804C35.5471 26.2624 35.4954 26.3272 35.4726 26.3684C35.4719 26.3855 35.4692 26.4468 35.4921 26.5701C35.5258 26.7515 35.6018 26.9964 35.7298 27.2929C35.9848 27.8835 36.4175 28.6128 37.0088 29.3435C38.1986 30.8139 39.9483 32.1924 42.0377 32.5391C42.8016 32.6612 43.3478 33.344 43.299 34.1161C43.262 34.7491 42.902 35.2267 42.4843 35.5658C42.0703 35.9017 41.5431 36.1512 41.0192 36.3416C40.1378 36.6619 39.1386 36.8589 38.3968 36.9838C38.3717 37.084 38.3494 37.1981 38.3263 37.3305C38.3212 37.3594 38.316 37.3902 38.3105 37.4223C38.2696 37.6643 38.2147 37.9886 38.1 38.2704C37.9524 38.6334 37.6848 38.9893 37.1986 39.1736C36.7573 39.3408 36.2246 39.3307 35.6103 39.2097C34.1129 38.915 33.1927 38.9687 32.5007 39.174C31.8037 39.3808 31.2739 39.7552 30.5345 40.2777L30.5068 40.2973C30.5067 40.2974 30.5066 40.2974 30.5065 40.2975C28.7289 41.561 27.1482 42.1715 25.7157 42.3294C24.2784 42.4878 23.0465 42.1844 21.9815 41.7115C21.0445 41.2955 20.2183 40.738 19.5128 40.2619C19.4292 40.2055 19.3473 40.1502 19.2671 40.0964C18.4648 39.5587 17.8855 39.213 17.3774 39.128L17.3763 39.1278C16.4551 38.9723 15.7042 39.0193 15.0968 39.1068C14.8463 39.1428 14.6247 39.1849 14.4127 39.2251C14.3621 39.2347 14.3121 39.2442 14.2623 39.2535C14.0239 39.298 13.7556 39.3455 13.5127 39.3455C13.0358 39.3455 12.6345 39.1852 12.3355 38.8789C12.0606 38.5975 11.9258 38.2462 11.8458 37.9609C11.7837 37.7394 11.7396 37.4948 11.7038 37.2967C11.6943 37.2439 11.6854 37.1943 11.6768 37.1494C11.665 37.0868 11.6537 37.0317 11.6428 36.9832C10.9835 36.8729 10.1186 36.7036 9.31594 36.441C8.82515 36.2805 8.33074 36.0766 7.91154 35.8135C7.49918 35.5546 7.09808 35.1999 6.88954 34.7123L6.88919 34.7115C6.76966 34.431 6.67816 34.1212 6.70702 33.807C6.74014 33.4464 6.9214 33.1725 7.16552 32.9826C7.37751 32.8177 7.63416 32.7181 7.84975 32.6455C7.99946 32.5951 8.17701 32.5431 8.3559 32.4908C8.43676 32.4671 8.51789 32.4434 8.59684 32.4197C9.63416 32.1082 11.1434 31.5664 12.7535 29.6871C13.434 28.8844 14.0015 27.9926 14.4405 27.0363C14.4426 27.0317 14.4448 27.0272 14.4469 27.0227C14.6235 26.6593 14.6227 26.4821 14.6107 26.4159C14.6032 26.3742 14.5818 26.3108 14.4426 26.2108C14.2873 26.0991 14.0517 25.9906 13.7076 25.8612C13.5932 25.8182 13.4567 25.7694 13.31 25.7171C13.0704 25.6315 12.8039 25.5363 12.5626 25.4408L12.5625 25.4408C11.5803 25.0516 10.8988 24.5509 10.5513 23.9398C10.1806 23.288 10.2472 22.6112 10.5625 22.0745C10.8613 21.5655 11.3697 21.1944 11.9077 21.0044C12.4476 20.8138 13.0997 20.7775 13.6893 21.0564C13.9713 21.1893 14.2936 21.3119 14.5987 21.3729C14.6771 21.3885 14.7496 21.3992 14.8163 21.4054C14.8159 21.3986 14.8154 21.3918 14.815 21.385C14.7461 20.35 14.6632 19.1051 14.6692 17.8895C14.6765 16.4274 14.8097 14.8923 15.316 13.7554Z" fill="black"/>
</svg>
