<svg width="50" height="50" viewBox="0 0 50 50" fill="none" xmlns="http://www.w3.org/2000/svg">
<path d="M25 50.0001C38.8071 50.0001 50 38.8072 50 25.0001C50 11.193 38.8071 7.62939e-05 25 7.62939e-05C11.1929 7.62939e-05 0 11.193 0 25.0001C0 38.8072 11.1929 50.0001 25 50.0001Z" fill="#CB2027"/>
<path d="M27.0159 33.4774C25.1259 33.3312 24.3318 32.394 22.8495 31.4942C22.0349 35.7684 21.0393 39.8657 18.0905 42.0062C17.1791 35.5461 19.4265 30.6938 20.4702 25.5435C18.6912 22.5487 20.6841 16.5209 24.4365 18.0062C29.0548 19.8325 20.4381 29.1417 26.2227 30.3043C32.2616 31.5183 34.727 19.8258 30.9817 16.0226C25.5707 10.5318 15.2312 15.8979 16.5026 23.7582C16.8123 25.6799 18.7981 26.2632 17.2959 28.9148C13.8327 28.1479 12.7997 25.4165 12.9325 21.7751C13.1469 15.8145 18.2883 11.641 23.4454 11.0635C29.9674 10.3335 36.0889 13.4584 36.9338 19.5932C37.8844 26.5172 33.9894 34.0157 27.0159 33.4774Z" fill="#F1F2F2"/>
</svg>
