<svg width="40" height="40" viewBox="0 0 40 40" fill="none" xmlns="http://www.w3.org/2000/svg">
<rect width="40" height="40" rx="8" fill="url(#paint0_linear_403_2489)"/>
<g clip-path="url(#clip0_403_2489)">
<path opacity="0.6" d="M27.5164 19.0498V20.4681C28.9046 21.1618 29.7113 22.0204 29.7113 22.8723C29.7113 24.8245 25.7835 26.3581 21.8976 26.6814C21.5428 26.7106 21.279 27.022 21.3087 27.3764C21.3365 27.7172 21.6304 27.9924 22.0036 27.9657C25.3863 27.6872 30.9999 26.2276 30.9999 22.8723C30.9999 21.0397 29.2069 19.7791 27.5164 19.0498V19.0498Z" fill="white"/>
<path opacity="0.6" d="M16.1251 24.493C15.7672 24.1288 15.1453 24.3068 15.036 24.8071L14.7513 26.111C10.4857 24.9629 8.43771 22.4936 12.4912 20.4681V19.0498C7.17228 21.3443 8.00695 25.6541 14.4759 27.3717L14.2199 28.5441C14.1101 29.0467 14.6082 29.4719 15.0887 29.2798L18.3102 27.9911C18.7364 27.8207 18.8532 27.2698 18.5306 26.9414L16.1251 24.493Z" fill="white"/>
<path d="M20.2865 10.7571C20.0878 10.6445 19.8445 10.6455 19.6467 10.7597L14.4238 13.7751C15.3084 14.2858 19.5222 16.7187 20.0029 16.9962L25.5839 13.7589L20.2865 10.7571Z" fill="white"/>
<path d="M13.7796 20.922C13.7796 21.1522 13.9024 21.3649 14.1017 21.48L19.3594 24.5155V18.1127L13.7795 14.8911V20.922H13.7796Z" fill="white"/>
<path d="M26.228 20.9218V14.875L20.6482 18.1116V24.5153L25.9059 21.4798C26.1053 21.3647 26.228 21.152 26.228 20.9218Z" fill="white"/>
</g>
<defs>
<linearGradient id="paint0_linear_403_2489" x1="20" y1="0" x2="20" y2="40" gradientUnits="userSpaceOnUse">
<stop stop-color="#B9D253"/>
<stop offset="1" stop-color="#50BD3E"/>
</linearGradient>
<clipPath id="clip0_403_2489">
<rect width="22" height="22" fill="white" transform="translate(9 9)"/>
</clipPath>
</defs>
</svg>
