<svg width="48" height="47" viewBox="0 0 48 47" fill="none" xmlns="http://www.w3.org/2000/svg">
<rect y="0.833008" width="48" height="45.3333" rx="2" fill="#F7FAFF"/>
<g opacity="0.8" clip-path="url(#clip0)">
<g opacity="0.5">
<path opacity="0.0244" d="M24 37.2145C32.6274 37.2145 39.6213 35.6078 39.6213 33.6258C39.6213 31.6438 32.6274 30.0371 24 30.0371C15.3726 30.0371 8.37866 31.6438 8.37866 33.6258C8.37866 35.6078 15.3726 37.2145 24 37.2145Z" fill="#FBFCFE"/>
<path opacity="0.0488" d="M23.9999 37.4908C32.4182 37.4908 39.2425 35.8841 39.2425 33.9022C39.2425 31.9202 32.4182 30.3135 23.9999 30.3135C15.5817 30.3135 8.75732 31.9202 8.75732 33.9022C8.75732 35.8841 15.5817 37.4908 23.9999 37.4908Z" fill="#F8FAFE"/>
<path opacity="0.0732" d="M24.0946 37.2148C32.356 37.2148 39.0532 35.6699 39.0532 33.7641C39.0532 31.8584 32.356 30.3135 24.0946 30.3135C15.8332 30.3135 9.13599 31.8584 9.13599 33.7641C9.13599 35.6699 15.8332 37.2148 24.0946 37.2148Z" fill="#F4F7FD"/>
<path opacity="0.0976" d="M24.0945 37.2148C32.1468 37.2148 38.6744 35.6699 38.6744 33.7641C38.6744 31.8584 32.1468 30.3135 24.0945 30.3135C16.0423 30.3135 9.51465 31.8584 9.51465 33.7641C9.51465 35.6699 16.0423 37.2148 24.0945 37.2148Z" fill="#F1F5FC"/>
<path opacity="0.122" d="M23.9053 37.2141C31.7484 37.2141 38.1065 35.731 38.1065 33.9015C38.1065 32.072 31.7484 30.5889 23.9053 30.5889C16.0622 30.5889 9.7041 32.072 9.7041 33.9015C9.7041 35.731 16.0622 37.2141 23.9053 37.2141Z" fill="#EDF2FC"/>
<path opacity="0.1463" d="M23.9052 36.9381C31.5392 36.9381 37.7277 35.5167 37.7277 33.7635C37.7277 32.0102 31.5392 30.5889 23.9052 30.5889C16.2713 30.5889 10.0828 32.0102 10.0828 33.7635C10.0828 35.5167 16.2713 36.9381 23.9052 36.9381Z" fill="#E9F0FB"/>
<path opacity="0.1707" d="M23.9055 36.9381C31.3303 36.9381 37.3492 35.5167 37.3492 33.7635C37.3492 32.0102 31.3303 30.5889 23.9055 30.5889C16.4807 30.5889 10.4617 32.0102 10.4617 33.7635C10.4617 35.5167 16.4807 36.9381 23.9055 36.9381Z" fill="#E6EDFA"/>
<path opacity="0.1951" d="M24.0001 36.662C31.268 36.662 37.1599 35.3025 37.1599 33.6254C37.1599 31.9484 31.268 30.5889 24.0001 30.5889C16.7322 30.5889 10.8403 31.9484 10.8403 33.6254C10.8403 35.3025 16.7322 36.662 24.0001 36.662Z" fill="#E2EBFA"/>
<path opacity="0.2195" d="M24.0001 36.9384C31.0589 36.9384 36.7811 35.5789 36.7811 33.9018C36.7811 32.2248 31.0589 30.8652 24.0001 30.8652C16.9413 30.8652 11.219 32.2248 11.219 33.9018C11.219 35.5789 16.9413 36.9384 24.0001 36.9384Z" fill="#DFE8F9"/>
<path opacity="0.2439" d="M24 36.6623C30.8497 36.6623 36.4024 35.3646 36.4024 33.7638C36.4024 32.163 30.8497 30.8652 24 30.8652C17.1504 30.8652 11.5977 32.163 11.5977 33.7638C11.5977 35.3646 17.1504 36.6623 24 36.6623Z" fill="#DBE6F8"/>
<path opacity="0.2683" d="M24 36.3863C30.6405 36.3863 36.0237 35.1504 36.0237 33.6258C36.0237 32.1012 30.6405 30.8652 24 30.8652C17.3595 30.8652 11.9763 32.1012 11.9763 33.6258C11.9763 35.1504 17.3595 36.3863 24 36.3863Z" fill="#D8E3F7"/>
<path opacity="0.2927" d="M24.0946 36.6626C30.5783 36.6626 35.8343 35.4267 35.8343 33.9021C35.8343 32.3775 30.5783 31.1416 24.0946 31.1416C17.611 31.1416 12.355 32.3775 12.355 33.9021C12.355 35.4267 17.611 36.6626 24.0946 36.6626Z" fill="#D4E1F7"/>
<path opacity="0.3171" d="M24.0946 36.3866C30.3691 36.3866 35.4555 35.2125 35.4555 33.7641C35.4555 32.3157 30.3691 31.1416 24.0946 31.1416C17.8201 31.1416 12.7336 32.3157 12.7336 33.7641C12.7336 35.2125 17.8201 36.3866 24.0946 36.3866Z" fill="#D0DEF6"/>
<path opacity="0.3415" d="M24.0948 36.3866C30.1601 36.3866 35.077 35.2125 35.077 33.7641C35.077 32.3157 30.1601 31.1416 24.0948 31.1416C18.0295 31.1416 13.1125 32.3157 13.1125 33.7641C13.1125 35.2125 18.0295 36.3866 24.0948 36.3866Z" fill="#CDDCF5"/>
<path opacity="0.3659" d="M23.9053 36.3859C29.7615 36.3859 34.5089 35.2736 34.5089 33.9015C34.5089 32.5293 29.7615 31.417 23.9053 31.417C18.0491 31.417 13.3018 32.5293 13.3018 33.9015C13.3018 35.2736 18.0491 36.3859 23.9053 36.3859Z" fill="#C9D9F5"/>
<path opacity="0.3902" d="M23.9053 36.1099C29.5523 36.1099 34.1301 35.0593 34.1301 33.7634C34.1301 32.4675 29.5523 31.417 23.9053 31.417C18.2582 31.417 13.6804 32.4675 13.6804 33.7634C13.6804 35.0593 18.2582 36.1099 23.9053 36.1099Z" fill="#C6D7F4"/>
<path opacity="0.4146" d="M23.9999 36.1099C29.4901 36.1099 33.9407 35.0593 33.9407 33.7634C33.9407 32.4675 29.4901 31.417 23.9999 31.417C18.5097 31.417 14.0591 32.4675 14.0591 33.7634C14.0591 35.0593 18.5097 36.1099 23.9999 36.1099Z" fill="#C2D4F3"/>
<path opacity="0.439" d="M24.0001 35.8338C29.2811 35.8338 33.5623 34.8451 33.5623 33.6254C33.5623 32.4057 29.2811 31.417 24.0001 31.417C18.7191 31.417 14.438 32.4057 14.438 33.6254C14.438 34.8451 18.7191 35.8338 24.0001 35.8338Z" fill="#BED2F3"/>
<path opacity="0.4634" d="M24.0001 36.1102C29.0719 36.1102 33.1835 35.1215 33.1835 33.9018C33.1835 32.6821 29.0719 31.6934 24.0001 31.6934C18.9282 31.6934 14.8167 32.6821 14.8167 33.9018C14.8167 35.1215 18.9282 36.1102 24.0001 36.1102Z" fill="#BBCFF2"/>
<path opacity="0.4878" d="M24 35.8341C28.8628 35.8341 32.8048 34.9072 32.8048 33.7638C32.8048 32.6203 28.8628 31.6934 24 31.6934C19.1373 31.6934 15.1953 32.6203 15.1953 33.7638C15.1953 34.9072 19.1373 35.8341 24 35.8341Z" fill="#B7CDF1"/>
<path opacity="0.5122" d="M32.426 33.6257C32.426 34.6922 28.6528 35.5581 24 35.5581C19.3472 35.5581 15.574 34.6922 15.574 33.6257C15.574 32.5592 19.3472 31.6934 24 31.6934C28.6547 31.6961 32.426 32.5592 32.426 33.6257Z" fill="#B4CAF1"/>
<path opacity="0.5366" d="M24.0946 35.8345C28.5914 35.8345 32.2367 34.9693 32.2367 33.9021C32.2367 32.8349 28.5914 31.9697 24.0946 31.9697C19.5979 31.9697 15.9526 32.8349 15.9526 33.9021C15.9526 34.9693 19.5979 35.8345 24.0946 35.8345Z" fill="#B0C8F0"/>
<path opacity="0.561" d="M31.8579 33.7641C31.8579 34.7547 28.3829 35.5584 24.0946 35.5584C19.8064 35.5584 16.3313 34.7547 16.3313 33.7641C16.3313 32.7734 19.8064 31.9697 24.0946 31.9697C28.381 31.9697 31.8579 32.7734 31.8579 33.7641Z" fill="#ADC5EF"/>
<path opacity="0.5854" d="M31.29 33.626C31.29 34.542 27.9833 35.2824 23.9054 35.2824C19.8274 35.2824 16.5208 34.5393 16.5208 33.626C16.5208 32.7101 19.8274 31.9697 23.9054 31.9697C27.9833 31.9697 31.29 32.7128 31.29 33.626Z" fill="#A9C3EF"/>
<path opacity="0.6098" d="M30.9112 33.9014C30.9112 34.8147 27.7748 35.5577 23.9053 35.5577C20.0358 35.5577 16.8994 34.8175 16.8994 33.9014C16.8994 32.9882 20.0358 32.2451 23.9053 32.2451C27.7748 32.248 30.9112 32.9882 30.9112 33.9014Z" fill="#A5C0EE"/>
<path opacity="0.6341" d="M24 35.2817C27.7124 35.2817 30.7219 34.6019 30.7219 33.7634C30.7219 32.9249 27.7124 32.2451 24 32.2451C20.2876 32.2451 17.2781 32.9249 17.2781 33.7634C17.2781 34.6019 20.2876 35.2817 24 35.2817Z" fill="#A2BEED"/>
<path opacity="0.6585" d="M30.3431 33.7634C30.3431 34.6037 27.5034 35.2817 23.999 35.2817C20.4965 35.2846 17.6567 34.6037 17.6567 33.7634C17.6567 32.9231 20.4965 32.2451 24.0009 32.2451C27.5034 32.2451 30.3431 32.926 30.3431 33.7634Z" fill="#9EBBED"/>
<path opacity="0.6829" d="M23.9999 35.0056C27.294 35.0056 29.9644 34.3877 29.9644 33.6254C29.9644 32.8631 27.294 32.2451 23.9999 32.2451C20.7058 32.2451 18.0354 32.8631 18.0354 33.6254C18.0354 34.3877 20.7058 35.0056 23.9999 35.0056Z" fill="#9BB9EC"/>
<path opacity="0.7073" d="M29.5857 33.7637C29.5857 34.4503 27.085 35.006 23.9999 35.006C20.9147 35.006 18.4141 34.4503 18.4141 33.7637C18.4141 33.0771 20.9147 32.5215 23.9999 32.5215C27.085 32.5242 29.5857 33.0798 29.5857 33.7637Z" fill="#97B6EB"/>
<path opacity="0.7317" d="M29.2072 33.7637C29.2072 34.4491 26.8768 35.006 24.0001 35.006C21.1252 35.006 18.793 34.4491 18.793 33.7637C18.793 33.0783 21.1234 32.5215 24.0001 32.5215C26.8768 32.5215 29.2072 33.0783 29.2072 33.7637Z" fill="#93B4EB"/>
<path opacity="0.7561" d="M24.0947 34.7299C26.8137 34.7299 29.0178 34.2355 29.0178 33.6257C29.0178 33.0159 26.8137 32.5215 24.0947 32.5215C21.3758 32.5215 19.1716 33.0159 19.1716 33.6257C19.1716 34.2355 21.3758 34.7299 24.0947 34.7299Z" fill="#90B1EA"/>
<path opacity="0.7805" d="M28.6391 33.9021C28.6391 34.51 26.6049 35.0063 24.0947 35.0063C21.5844 35.0063 19.5503 34.5129 19.5503 33.9021C19.5503 33.2942 21.5844 32.7979 24.0947 32.7979C26.603 32.8008 28.6391 33.2942 28.6391 33.9021Z" fill="#8CAFE9"/>
<path opacity="0.8049" d="M23.9054 34.7302C26.2061 34.7302 28.0711 34.2976 28.0711 33.764C28.0711 33.2304 26.2061 32.7979 23.9054 32.7979C21.6048 32.7979 19.7397 33.2304 19.7397 33.764C19.7397 34.2976 21.6048 34.7302 23.9054 34.7302Z" fill="#89ACE8"/>
<path opacity="0.8293" d="M27.6924 33.626C27.6924 34.0846 25.9969 34.4542 23.9054 34.4542C21.8139 34.4542 20.1184 34.082 20.1184 33.626C20.1184 33.1674 21.8139 32.7979 23.9054 32.7979C25.9969 32.7979 27.6924 33.17 27.6924 33.626Z" fill="#85AAE8"/>
<path opacity="0.8537" d="M23.9054 34.7295C25.7877 34.7295 27.3136 34.3588 27.3136 33.9014C27.3136 33.444 25.7877 33.0732 23.9054 33.0732C22.023 33.0732 20.4971 33.444 20.4971 33.9014C20.4971 34.3588 22.023 34.7295 23.9054 34.7295Z" fill="#82A7E7"/>
<path opacity="0.878" d="M27.1242 33.7634C27.1242 34.1447 25.7255 34.4535 23.999 34.4535C22.2745 34.4535 20.8757 34.1447 20.8757 33.7634C20.8757 33.3821 22.2745 33.0732 24.0009 33.0732C25.7255 33.0759 27.1242 33.3847 27.1242 33.7634Z" fill="#7EA5E6"/>
<path opacity="0.9024" d="M24 34.4535C25.5163 34.4535 26.7455 34.1445 26.7455 33.7634C26.7455 33.3822 25.5163 33.0732 24 33.0732C22.4836 33.0732 21.2544 33.3822 21.2544 33.7634C21.2544 34.1445 22.4836 34.4535 24 34.4535Z" fill="#7AA2E6"/>
<path opacity="0.9268" d="M23.9999 34.1774C25.3071 34.1774 26.3668 33.9303 26.3668 33.6253C26.3668 33.3204 25.3071 33.0732 23.9999 33.0732C22.6927 33.0732 21.6331 33.3204 21.6331 33.6253C21.6331 33.9303 22.6927 34.1774 23.9999 34.1774Z" fill="#77A0E5"/>
<path opacity="0.9512" d="M25.988 33.7637C25.988 33.9918 25.0986 34.1778 23.9999 34.1778C22.9012 34.1778 22.0117 33.9918 22.0117 33.7637C22.0117 33.5356 22.9012 33.3496 23.9999 33.3496C25.0986 33.3496 25.988 33.5356 25.988 33.7637Z" fill="#739DE4"/>
<path opacity="0.9756" d="M25.7987 33.7637C25.7987 33.9917 25.0352 34.1778 24.0945 34.1778C23.1538 34.1778 22.3904 33.9917 22.3904 33.7637C22.3904 33.5356 23.1538 33.3496 24.0945 33.3496C25.0352 33.3526 25.7987 33.5356 25.7987 33.7637Z" fill="#709BE4"/>
<path opacity="0.5" d="M25.4202 33.6257C25.4202 33.779 24.827 33.9017 24.0947 33.9017C23.3625 33.9017 22.7693 33.779 22.7693 33.6257C22.7693 33.4723 23.3625 33.3496 24.0947 33.3496C24.8251 33.3496 25.4202 33.4749 25.4202 33.6257Z" fill="#6C98E3"/>
</g>
<path d="M26.3574 17.8906C26.3239 17.8906 26.2959 17.8625 26.2959 17.8287V13.7526C26.2959 11.5343 24.5038 9.72992 22.3008 9.72992C20.0977 9.72992 18.3056 11.5343 18.3056 13.7526V17.8287C18.3056 17.8625 18.2776 17.8906 18.2441 17.8906H17.9729C17.9393 17.8906 17.9114 17.8625 17.9114 17.8287V13.7526C17.9114 11.3148 19.8796 9.33301 22.3008 9.33301C24.7219 9.33301 26.6901 11.3148 26.6901 13.7526V17.8287C26.6901 17.8625 26.6622 17.8906 26.6286 17.8906H26.3574Z" fill="#6C98E3"/>
<path d="M18.7609 33.9018H13.3804V14.9889C13.3804 14.7613 13.5692 14.5781 13.8037 14.5781H18.758V33.9018H18.7609Z" fill="url(#paint0_linear)"/>
<path d="M18.4778 33.9018H33.2072C33.3612 33.9018 33.4866 33.7797 33.4866 33.6298V14.8473C33.4866 14.7002 33.364 14.5781 33.2101 14.5781H18.4778V33.9018Z" fill="url(#paint1_linear)"/>
<path d="M15.929 33.9018H13.3804V14.8501C13.3804 14.7002 13.4997 14.5781 13.6461 14.5781H15.929V33.9018Z" fill="url(#paint2_linear)"/>
<path d="M18.7609 33.9018H13.3804L16.0721 30.8652L18.7609 33.9018Z" fill="url(#paint3_linear)"/>
<path d="M23.0087 17.7523C23.0087 18.2858 22.5648 18.7185 22.0175 18.7185C21.4703 18.7185 21.0264 18.2858 21.0264 17.7523C21.0264 17.2188 21.4703 16.7861 22.0175 16.7861C22.5648 16.7861 23.0087 17.2188 23.0087 17.7523Z" fill="#89ADE9"/>
<path d="M31.5043 17.7523C31.5043 18.2858 31.0604 18.7185 30.5131 18.7185C29.9659 18.7185 29.522 18.2858 29.522 17.7523C29.522 17.2188 29.9659 16.7861 30.5131 16.7861C31.0604 16.7861 31.5043 17.2188 31.5043 17.7523Z" fill="#89ADE9"/>
<path d="M30.322 17.8906C30.2885 17.8906 30.2605 17.8625 30.2605 17.8287V13.7526C30.2605 11.5343 28.4684 9.72992 26.2654 9.72992C24.0623 9.72992 22.2702 11.5343 22.2702 13.7526V17.8287C22.2702 17.8625 22.2422 17.8906 22.2087 17.8906H21.9375C21.9039 17.8906 21.876 17.8625 21.876 17.8287V13.7526C21.876 11.3148 23.8442 9.33301 26.2654 9.33301C28.6865 9.33301 30.6547 11.3148 30.6547 13.7526V17.8287C30.6547 17.8625 30.6268 17.8906 30.5932 17.8906H30.322Z" fill="#6C98E3"/>
</g>
<defs>
<linearGradient id="paint0_linear" x1="13.3809" y1="24.2408" x2="18.7602" y2="24.2408" gradientUnits="userSpaceOnUse">
<stop stop-color="#E3EDFE"/>
<stop offset="1" stop-color="#B3CDFA"/>
</linearGradient>
<linearGradient id="paint1_linear" x1="18.4774" y1="24.2408" x2="33.4876" y2="24.2408" gradientUnits="userSpaceOnUse">
<stop stop-color="#E3EDFE"/>
<stop offset="1" stop-color="#B3CDFA"/>
</linearGradient>
<linearGradient id="paint2_linear" x1="13.3782" y1="24.2408" x2="15.9277" y2="24.2408" gradientUnits="userSpaceOnUse">
<stop stop-color="#E3EDFE"/>
<stop offset="1" stop-color="#B3CDFA"/>
</linearGradient>
<linearGradient id="paint3_linear" x1="13.3809" y1="32.384" x2="18.7602" y2="32.384" gradientUnits="userSpaceOnUse">
<stop stop-color="#E3EDFE"/>
<stop offset="1" stop-color="#B3CDFA"/>
</linearGradient>
<clipPath id="clip0">
<rect width="32" height="28.3333" fill="white" transform="translate(8 9.33301)"/>
</clipPath>
</defs>
</svg>
