<svg width="176" height="160" viewBox="0 0 176 160" fill="none" xmlns="http://www.w3.org/2000/svg">
<g opacity="0.5">
<path opacity="0.0244" d="M88 158.327C135.403 158.327 173.831 149.254 173.831 138.061C173.831 126.869 135.403 117.796 88 117.796C40.5967 117.796 2.1687 126.869 2.1687 138.061C2.1687 149.254 40.5967 158.327 88 158.327Z" fill="#FBFCFE"/>
<path opacity="0.0488" d="M87.9998 159.886C134.254 159.886 171.75 150.812 171.75 139.62C171.75 128.428 134.254 119.355 87.9998 119.355C41.7457 119.355 4.24927 128.428 4.24927 139.62C4.24927 150.812 41.7457 159.886 87.9998 159.886Z" fill="#F8FAFE"/>
<path opacity="0.0732" d="M88.5201 158.327C133.912 158.327 170.71 149.602 170.71 138.841C170.71 128.079 133.912 119.355 88.5201 119.355C43.1278 119.355 6.33008 128.079 6.33008 138.841C6.33008 149.602 43.1278 158.327 88.5201 158.327Z" fill="#F4F7FD"/>
<path opacity="0.0976" d="M88.5201 158.327C132.763 158.327 168.629 149.602 168.629 138.841C168.629 128.079 132.763 119.355 88.5201 119.355C44.277 119.355 8.41089 128.079 8.41089 138.841C8.41089 149.602 44.277 158.327 88.5201 158.327Z" fill="#F1F5FC"/>
<path opacity="0.122" d="M87.4799 158.327C130.574 158.327 165.508 149.952 165.508 139.62C165.508 129.289 130.574 120.914 87.4799 120.914C44.386 120.914 9.45142 129.289 9.45142 139.62C9.45142 149.952 44.386 158.327 87.4799 158.327Z" fill="#EDF2FC"/>
<path opacity="0.1463" d="M87.4797 156.768C129.424 156.768 163.427 148.742 163.427 138.841C163.427 128.94 129.424 120.914 87.4797 120.914C45.5349 120.914 11.532 128.94 11.532 138.841C11.532 148.742 45.5349 156.768 87.4797 156.768Z" fill="#E9F0FB"/>
<path opacity="0.1707" d="M87.4797 156.768C128.275 156.768 161.347 148.742 161.347 138.841C161.347 128.94 128.275 120.914 87.4797 120.914C46.6842 120.914 13.6128 128.94 13.6128 138.841C13.6128 148.742 46.6842 156.768 87.4797 156.768Z" fill="#E6EDFA"/>
<path opacity="0.1951" d="M88 155.209C127.934 155.209 160.306 147.532 160.306 138.061C160.306 128.591 127.934 120.914 88 120.914C48.0663 120.914 15.6936 128.591 15.6936 138.061C15.6936 147.532 48.0663 155.209 88 155.209Z" fill="#E2EBFA"/>
<path opacity="0.2195" d="M88.0001 156.768C126.785 156.768 158.226 149.091 158.226 139.62C158.226 130.15 126.785 122.473 88.0001 122.473C49.2155 122.473 17.7744 130.15 17.7744 139.62C17.7744 149.091 49.2155 156.768 88.0001 156.768Z" fill="#DFE8F9"/>
<path opacity="0.2439" d="M88.0001 155.209C125.636 155.209 156.145 147.881 156.145 138.841C156.145 129.801 125.636 122.473 88.0001 122.473C50.3647 122.473 19.8552 129.801 19.8552 138.841C19.8552 147.881 50.3647 155.209 88.0001 155.209Z" fill="#DBE6F8"/>
<path opacity="0.2683" d="M87.9999 153.65C124.486 153.65 154.064 146.671 154.064 138.061C154.064 129.452 124.486 122.473 87.9999 122.473C51.5137 122.473 21.9358 129.452 21.9358 138.061C21.9358 146.671 51.5137 153.65 87.9999 153.65Z" fill="#D8E3F7"/>
<path opacity="0.2927" d="M88.5202 155.209C124.144 155.209 153.024 148.23 153.024 139.62C153.024 131.011 124.144 124.031 88.5202 124.031C52.8958 124.031 24.0166 131.011 24.0166 139.62C24.0166 148.23 52.8958 155.209 88.5202 155.209Z" fill="#D4E1F7"/>
<path opacity="0.3171" d="M88.5202 153.65C122.995 153.65 150.943 147.02 150.943 138.841C150.943 130.662 122.995 124.031 88.5202 124.031C54.045 124.031 26.0974 130.662 26.0974 138.841C26.0974 147.02 54.045 153.65 88.5202 153.65Z" fill="#D0DEF6"/>
<path opacity="0.3415" d="M88.5203 153.65C121.846 153.65 148.862 147.02 148.862 138.841C148.862 130.662 121.846 124.031 88.5203 124.031C55.1943 124.031 28.1782 130.662 28.1782 138.841C28.1782 147.02 55.1943 153.65 88.5203 153.65Z" fill="#CDDCF5"/>
<path opacity="0.3659" d="M87.4798 153.65C119.657 153.65 145.741 147.369 145.741 139.62C145.741 131.872 119.657 125.59 87.4798 125.59C55.303 125.59 29.2185 131.872 29.2185 139.62C29.2185 147.369 55.303 153.65 87.4798 153.65Z" fill="#C9D9F5"/>
<path opacity="0.3902" d="M87.4798 152.091C118.507 152.091 143.66 146.159 143.66 138.841C143.66 131.523 118.507 125.59 87.4798 125.59C56.4522 125.59 31.2993 131.523 31.2993 138.841C31.2993 146.159 56.4522 152.091 87.4798 152.091Z" fill="#C6D7F4"/>
<path opacity="0.4146" d="M88.0001 152.091C118.166 152.091 142.62 146.159 142.62 138.841C142.62 131.523 118.166 125.59 88.0001 125.59C57.8343 125.59 33.3801 131.523 33.3801 138.841C33.3801 146.159 57.8343 152.091 88.0001 152.091Z" fill="#C2D4F3"/>
<path opacity="0.439" d="M87.9999 150.532C117.016 150.532 140.539 144.949 140.539 138.061C140.539 131.174 117.016 125.59 87.9999 125.59C58.9833 125.59 35.4607 131.174 35.4607 138.061C35.4607 144.949 58.9833 150.532 87.9999 150.532Z" fill="#BED2F3"/>
<path opacity="0.4634" d="M87.9999 152.091C115.867 152.091 138.458 146.508 138.458 139.62C138.458 132.733 115.867 127.149 87.9999 127.149C60.1325 127.149 37.5415 132.733 37.5415 139.62C37.5415 146.508 60.1325 152.091 87.9999 152.091Z" fill="#BBCFF2"/>
<path opacity="0.4878" d="M88 150.532C114.718 150.532 136.378 145.298 136.378 138.841C136.378 132.384 114.718 127.149 88 127.149C61.2817 127.149 39.6223 132.384 39.6223 138.841C39.6223 145.298 61.2817 150.532 88 150.532Z" fill="#B7CDF1"/>
<path opacity="0.5122" d="M134.297 138.061C134.297 144.084 113.565 148.974 88 148.974C62.4351 148.974 41.7031 144.084 41.7031 138.061C41.7031 132.039 62.4351 127.149 88 127.149C113.575 127.165 134.297 132.039 134.297 138.061Z" fill="#B4CAF1"/>
<path opacity="0.5366" d="M88.52 150.532C113.227 150.532 133.256 145.647 133.256 139.62C133.256 133.594 113.227 128.708 88.52 128.708C63.8128 128.708 43.7837 133.594 43.7837 139.62C43.7837 145.647 63.8128 150.532 88.52 150.532Z" fill="#B0C8F0"/>
<path opacity="0.561" d="M131.176 138.841C131.176 144.435 112.082 148.974 88.5201 148.974C64.9582 148.974 45.8645 144.435 45.8645 138.841C45.8645 133.246 64.9582 128.708 88.5201 128.708C112.071 128.708 131.176 133.246 131.176 138.841Z" fill="#ADC5EF"/>
<path opacity="0.5854" d="M128.055 138.061C128.055 143.234 109.886 147.415 87.4799 147.415C65.0736 147.415 46.905 143.219 46.905 138.061C46.905 132.889 65.0736 128.708 87.4799 128.708C109.886 128.708 128.055 132.904 128.055 138.061Z" fill="#A9C3EF"/>
<path opacity="0.6098" d="M125.974 139.62C125.974 144.777 108.741 148.973 87.4799 148.973C66.2189 148.973 48.9858 144.793 48.9858 139.62C48.9858 134.463 66.2189 130.266 87.4799 130.266C108.741 130.282 125.974 134.463 125.974 139.62Z" fill="#A5C0EE"/>
<path opacity="0.6341" d="M87.9999 147.414C108.398 147.414 124.933 143.576 124.933 138.84C124.933 134.105 108.398 130.266 87.9999 130.266C67.6021 130.266 51.0664 134.105 51.0664 138.84C51.0664 143.576 67.6021 147.414 87.9999 147.414Z" fill="#A2BEED"/>
<path opacity="0.6585" d="M122.853 138.84C122.853 143.585 107.25 147.414 87.9947 147.414C68.7501 147.431 53.1472 143.585 53.1472 138.84C53.1472 134.095 68.7501 130.266 88.0052 130.266C107.25 130.266 122.853 134.112 122.853 138.84Z" fill="#9EBBED"/>
<path opacity="0.6829" d="M88 145.855C106.099 145.855 120.772 142.366 120.772 138.061C120.772 133.756 106.099 130.266 88 130.266C69.9005 130.266 55.228 133.756 55.228 138.061C55.228 142.366 69.9005 145.855 88 145.855Z" fill="#9BB9EC"/>
<path opacity="0.7073" d="M118.691 138.841C118.691 142.718 104.951 145.856 88 145.856C71.0487 145.856 57.3088 142.718 57.3088 138.841C57.3088 134.964 71.0487 131.826 88 131.826C104.951 131.841 118.691 134.979 118.691 138.841Z" fill="#97B6EB"/>
<path opacity="0.7317" d="M116.611 138.841C116.611 142.711 103.806 145.856 88.0001 145.856C72.2043 145.856 59.3896 142.711 59.3896 138.841C59.3896 134.971 72.194 131.826 88.0001 131.826C103.806 131.826 116.611 134.971 116.611 138.841Z" fill="#93B4EB"/>
<path opacity="0.7561" d="M88.5201 144.297C103.459 144.297 115.57 141.505 115.57 138.061C115.57 134.618 103.459 131.826 88.5201 131.826C73.5809 131.826 61.4702 134.618 61.4702 138.061C61.4702 141.505 73.5809 144.297 88.5201 144.297Z" fill="#90B1EA"/>
<path opacity="0.7805" d="M113.489 139.62C113.489 143.053 102.313 145.856 88.5201 145.856C74.7275 145.856 63.551 143.069 63.551 139.62C63.551 136.187 74.7275 133.384 88.5201 133.384C102.302 133.401 113.489 136.187 113.489 139.62Z" fill="#8CAFE9"/>
<path opacity="0.8049" d="M87.4799 144.297C100.121 144.297 110.368 141.854 110.368 138.841C110.368 135.827 100.121 133.384 87.4799 133.384C74.839 133.384 64.5916 135.827 64.5916 138.841C64.5916 141.854 74.839 144.297 87.4799 144.297Z" fill="#89ACE8"/>
<path opacity="0.8293" d="M108.287 138.061C108.287 140.651 98.9715 142.738 87.4797 142.738C75.9879 142.738 66.6721 140.636 66.6721 138.061C66.6721 135.471 75.9879 133.384 87.4797 133.384C98.9715 133.384 108.287 135.486 108.287 138.061Z" fill="#85AAE8"/>
<path opacity="0.8537" d="M87.4798 144.297C97.8223 144.297 106.207 142.203 106.207 139.62C106.207 137.037 97.8223 134.943 87.4798 134.943C77.1372 134.943 68.7529 137.037 68.7529 139.62C68.7529 142.203 77.1372 144.297 87.4798 144.297Z" fill="#82A7E7"/>
<path opacity="0.878" d="M105.166 138.84C105.166 140.994 97.4807 142.738 87.9947 142.738C78.5193 142.738 70.8337 140.994 70.8337 138.84C70.8337 136.687 78.5193 134.943 88.0053 134.943C97.4807 134.958 105.166 136.702 105.166 138.84Z" fill="#7EA5E6"/>
<path opacity="0.9024" d="M88.0001 142.738C96.3316 142.738 103.086 140.993 103.086 138.84C103.086 136.688 96.3316 134.943 88.0001 134.943C79.6686 134.943 72.9146 136.688 72.9146 138.84C72.9146 140.993 79.6686 142.738 88.0001 142.738Z" fill="#7AA2E6"/>
<path opacity="0.9268" d="M87.9999 141.179C95.1822 141.179 101.005 139.783 101.005 138.061C101.005 136.339 95.1822 134.943 87.9999 134.943C80.8175 134.943 74.9951 136.339 74.9951 138.061C74.9951 139.783 80.8175 141.179 87.9999 141.179Z" fill="#77A0E5"/>
<path opacity="0.9512" d="M98.9238 138.841C98.9238 140.129 94.0368 141.179 87.9999 141.179C81.963 141.179 77.0759 140.129 77.0759 138.841C77.0759 137.553 81.963 136.502 87.9999 136.502C94.0368 136.502 98.9238 137.553 98.9238 138.841Z" fill="#739DE4"/>
<path opacity="0.9756" d="M97.8836 138.841C97.8836 140.129 93.6888 141.179 88.5202 141.179C83.3516 141.179 79.1567 140.129 79.1567 138.841C79.1567 137.553 83.3516 136.502 88.5202 136.502C93.6888 136.519 97.8836 137.553 97.8836 138.841Z" fill="#709BE4"/>
<path opacity="0.5" d="M95.8028 138.061C95.8028 138.927 92.5437 139.62 88.5202 139.62C84.4967 139.62 81.2375 138.927 81.2375 138.061C81.2375 137.195 84.4967 136.502 88.5202 136.502C92.5331 136.502 95.8028 137.21 95.8028 138.061Z" fill="#6C98E3"/>
</g>
<path d="M100.954 49.2046C100.769 49.2046 100.616 49.0456 100.616 48.8549V25.8367C100.616 13.3102 90.7689 3.12056 78.6641 3.12056C66.5593 3.12056 56.7126 13.3102 56.7126 25.8367V48.8549C56.7126 49.0456 56.559 49.2046 56.3746 49.2046H54.8846C54.7002 49.2046 54.5466 49.0456 54.5466 48.8549V25.8367C54.5466 12.0703 65.3611 0.87915 78.6641 0.87915C91.9671 0.87915 102.782 12.0703 102.782 25.8367V48.8549C102.782 49.0456 102.628 49.2046 102.444 49.2046H100.954Z" fill="#6C98E3"/>
<path d="M59.2145 139.62H29.6511V32.8173C29.6511 31.5323 30.6884 30.4979 31.9772 30.4979H59.1988V139.62H59.2145Z" fill="url(#paint0_linear_589_6809)"/>
<path d="M57.6584 139.62H138.589C139.435 139.62 140.125 138.93 140.125 138.084V32.0181C140.125 31.1875 139.451 30.4979 138.605 30.4979H57.6584V139.62Z" fill="url(#paint1_linear_589_6809)"/>
<path d="M43.6548 139.62H29.6511V32.0338C29.6511 31.1875 30.3066 30.4979 31.1111 30.4979H43.6548V139.62Z" fill="url(#paint2_linear_589_6809)"/>
<path d="M59.2145 139.62H29.6511L44.4407 122.472L59.2145 139.62Z" fill="url(#paint3_linear_589_6809)"/>
<path d="M82.5541 48.4253C82.5541 51.4379 80.1152 53.8814 77.1082 53.8814C74.1013 53.8814 71.6624 51.4379 71.6624 48.4253C71.6624 45.4128 74.1013 42.9692 77.1082 42.9692C80.1152 42.9692 82.5541 45.4128 82.5541 48.4253Z" fill="#89ADE9"/>
<path d="M129.233 48.4253C129.233 51.4379 126.794 53.8814 123.787 53.8814C120.78 53.8814 118.341 51.4379 118.341 48.4253C118.341 45.4128 120.78 42.9692 123.787 42.9692C126.794 42.9692 129.233 45.4128 129.233 48.4253Z" fill="#89ADE9"/>
<path d="M122.737 49.2046C122.553 49.2046 122.399 49.0456 122.399 48.8549V25.8367C122.399 13.3102 112.552 3.12056 100.448 3.12056C88.3427 3.12056 78.496 13.3102 78.496 25.8367V48.8549C78.496 49.0456 78.3424 49.2046 78.1581 49.2046H76.668C76.4837 49.2046 76.3301 49.0456 76.3301 48.8549V25.8367C76.3301 12.0703 87.1446 0.87915 100.448 0.87915C113.751 0.87915 124.565 12.0703 124.565 25.8367V48.8549C124.565 49.0456 124.411 49.2046 124.227 49.2046H122.737Z" fill="#6C98E3"/>
<defs>
<linearGradient id="paint0_linear_589_6809" x1="29.6543" y1="85.0636" x2="59.2105" y2="85.0636" gradientUnits="userSpaceOnUse">
<stop stop-color="#E3EDFE"/>
<stop offset="1" stop-color="#B3CDFA"/>
</linearGradient>
<linearGradient id="paint1_linear_589_6809" x1="57.6564" y1="85.0636" x2="140.13" y2="85.0636" gradientUnits="userSpaceOnUse">
<stop stop-color="#E3EDFE"/>
<stop offset="1" stop-color="#B3CDFA"/>
</linearGradient>
<linearGradient id="paint2_linear_589_6809" x1="29.6392" y1="85.0636" x2="43.6475" y2="85.0636" gradientUnits="userSpaceOnUse">
<stop stop-color="#E3EDFE"/>
<stop offset="1" stop-color="#B3CDFA"/>
</linearGradient>
<linearGradient id="paint3_linear_589_6809" x1="29.6543" y1="131.049" x2="59.2105" y2="131.049" gradientUnits="userSpaceOnUse">
<stop stop-color="#E3EDFE"/>
<stop offset="1" stop-color="#B3CDFA"/>
</linearGradient>
</defs>
</svg>
