<svg width="252" height="150" viewBox="0 0 252 150" fill="none" xmlns="http://www.w3.org/2000/svg">
<g clip-path="url(#clip0_1448_5855)">
<path d="M26.3107 148.971C26.3107 148.971 8.05603 138 1.02842 101.571C-5.9992 65.2286 23.4825 31.8 67.5337 10.8857C111.585 -10.0286 136.439 1.37142 158.464 27.3428C180.575 53.3143 180.318 8.82856 224.027 22.3714C267.821 35.9143 249.566 74.8286 236.539 93.8571C214.514 125.914 240.396 149.057 240.396 149.057H26.3107V148.971Z" fill="#EEF1F9"/>
<path d="M214.171 149.486H25.7107C23.5681 149.486 18.4259 148.457 13.9694 147.086C9.08436 145.543 6.77039 144.257 9.25576 144.257H230.626C233.111 144.257 230.883 145.629 225.912 147.086C221.37 148.457 216.313 149.486 214.171 149.486Z" fill="#3D5A99"/>
<path d="M249.48 150H3.8565C3.59939 150 3.34229 149.743 3.34229 149.486C3.34229 149.229 3.51369 148.971 3.8565 148.971H249.566C249.823 148.971 250.08 149.229 250.08 149.486C249.994 149.743 249.823 150 249.48 150Z" fill="#3D5A99"/>
<path d="M202.773 49.5427H37.1093C33.5098 49.5427 30.6816 52.457 30.6816 55.9713V144.171H209.372V55.9713C209.286 52.3713 206.372 49.5427 202.773 49.5427Z" fill="#5B86E5"/>
<path d="M202.43 52.2856H36.9379C34.7954 52.2856 32.9956 53.9999 32.9956 56.2285V142.029H206.286V56.2285C206.372 54.0856 204.572 52.2856 202.43 52.2856Z" fill="url(#paint0_linear_1448_5855)"/>
<path d="M182.547 139.8H67.1052V141.943H182.547V139.8Z" fill="#7890B5"/>
<path d="M151.351 57.9429H149.551C149.208 57.9429 148.865 58.2 148.865 58.6286V78.1714C148.865 78.5143 149.123 78.7714 149.465 78.7714H151.351C151.694 78.7714 151.951 78.5143 151.951 78.1714V58.5429C152.036 58.2 151.694 57.9429 151.351 57.9429Z" fill="#276096"/>
<path d="M120.069 57.9429H118.27C117.927 57.9429 117.584 58.2 117.584 58.6286V78.1714C117.584 78.5143 117.841 78.7714 118.184 78.7714H120.069C120.412 78.7714 120.669 78.5143 120.669 78.1714V58.5429C120.669 58.2 120.412 57.9429 120.069 57.9429Z" fill="#276096"/>
<path d="M92.2159 57.9429H90.4161C90.0733 57.9429 89.7305 58.2 89.7305 58.6286V78.1714C89.7305 78.5143 89.9876 78.7714 90.3304 78.7714H92.2159C92.5587 78.7714 92.8158 78.5143 92.8158 78.1714V58.5429C92.9015 58.2 92.5587 57.9429 92.2159 57.9429Z" fill="#276096"/>
<path d="M183.404 68.3142H58.9634V142.029H183.404V68.3142Z" fill="#CACEED"/>
<path d="M66.3338 133.971H61.106V135.857H66.3338V133.971Z" fill="#7890B5"/>
<path d="M68.2191 136.114H62.9912V138H68.2191V136.114Z" fill="#7890B5"/>
<path d="M145.094 113.829H139.866V115.714H145.094V113.829Z" fill="#7890B5"/>
<path d="M146.98 115.971H141.752V117.857H146.98V115.971Z" fill="#7890B5"/>
<path d="M179.804 97.6284H174.576V99.5141H179.804V97.6284Z" fill="#7890B5"/>
<path d="M181.69 99.7712H176.462V101.657H181.69V99.7712Z" fill="#7890B5"/>
<path d="M137.553 133.8H132.325V135.686H137.553V133.8Z" fill="#7890B5"/>
<path d="M139.438 136.029H134.21V137.914H139.438V136.029Z" fill="#7890B5"/>
<path d="M68.0477 99.6855H62.8198V101.571H68.0477V99.6855Z" fill="#7890B5"/>
<path d="M69.9332 101.829H64.7053V103.714H69.9332V101.829Z" fill="#7890B5"/>
<path d="M155.293 43.3713H86.2166C84.4169 43.3713 83.0457 44.8285 83.0457 46.5428V61.1999C83.0457 62.8285 84.4169 64.1999 86.0452 64.1999H155.55C157.178 64.1999 158.55 62.8285 158.55 61.1999V46.5428C158.464 44.7428 157.093 43.3713 155.293 43.3713Z" fill="#5B86E5"/>
<path d="M142.352 89.3999H67.1907V129.514H142.352V89.3999Z" fill="#5B86E5"/>
<path d="M140.038 91.7141H69.5046V127.114H140.038V91.7141Z" fill="#CEE8FB"/>
<path d="M177.661 89.3999H147.58V142.028H177.661V89.3999Z" fill="#5B86E5"/>
<path d="M174.576 89.3142H152.551V129.514H174.576V89.3142Z" fill="#CEE8FB"/>
<path d="M187.003 65.657H56.0493V69.4284H187.003V65.657Z" fill="#5B86E5"/>
<path d="M74.647 127.029L97.3582 89.2285H110.214L87.7595 127.029H74.647Z" fill="#DCF8FE"/>
<path d="M91.3589 127.029L114.07 89.2285H117.584L95.1298 127.029H91.3589Z" fill="#DCF8FE"/>
<path d="M140.209 89.2285H134.21L111.499 127.029H124.612L140.209 100.886V89.2285Z" fill="#DCF8FE"/>
<path d="M140.038 107.486L128.211 127.028H132.068L140.038 113.657V107.486Z" fill="#DCF8FE"/>
<path d="M174.576 109.971L162.835 129.6H166.692L174.576 116.143V109.971Z" fill="#DCF8FE"/>
<path d="M168.748 91.7141L152.551 118.886V129.6H159.15L174.576 103.371V91.7141H168.748Z" fill="#DCF8FE"/>
<path d="M145.266 129.514H64.6196V131.657H145.266V129.514Z" fill="white"/>
<path d="M64.6195 95.5713C67.7048 95.5713 70.2759 93.257 70.2759 90.5142H58.9631C58.9631 93.3427 61.4485 95.5713 64.6195 95.5713Z" fill="#D3594C"/>
<path d="M75.6752 95.5713C78.6747 95.5713 81.1601 93.257 81.1601 90.5142H70.2759C70.2759 93.3427 72.6756 95.5713 75.6752 95.5713Z" fill="white"/>
<path d="M86.8165 95.5713C89.9875 95.5713 92.4729 93.257 92.4729 90.5142H81.1602C81.1602 93.3427 83.7312 95.5713 86.8165 95.5713Z" fill="#D3594C"/>
<path d="M98.0436 95.5713C101.043 95.5713 103.529 93.257 103.529 90.5142H92.5586C92.5586 93.3427 94.9583 95.5713 98.0436 95.5713Z" fill="white"/>
<path d="M109.099 95.5713C112.27 95.5713 114.841 93.257 114.841 90.5142H103.443C103.357 93.3427 105.928 95.5713 109.099 95.5713Z" fill="#D3594C"/>
<path d="M120.155 95.5713C123.154 95.5713 125.554 93.257 125.554 90.5142H114.67C114.756 93.3427 117.155 95.5713 120.155 95.5713Z" fill="white"/>
<path d="M131.296 95.5713C134.467 95.5713 136.953 93.257 136.953 90.5142H125.554C125.64 93.3427 128.125 95.5713 131.296 95.5713Z" fill="#D3594C"/>
<path d="M142.438 95.5713C145.437 95.5713 147.923 93.257 147.923 90.5142H137.038C136.953 93.3427 139.438 95.5713 142.438 95.5713Z" fill="white"/>
<path d="M153.493 95.5713C156.579 95.5713 159.15 93.257 159.15 90.5142H147.837C147.837 93.3427 150.408 95.5713 153.493 95.5713Z" fill="#D3594C"/>
<path d="M164.635 95.5713C167.634 95.5713 170.12 93.257 170.12 90.5142H159.235C159.235 93.3427 161.635 95.5713 164.635 95.5713Z" fill="white"/>
<path d="M175.776 95.5713C178.861 95.5713 181.432 93.257 181.432 90.5142H170.119C170.119 93.3427 172.69 95.5713 175.776 95.5713Z" fill="#D3594C"/>
<path d="M187.432 95.5712C190.517 95.5712 193.088 93.5997 193.431 91.0283C193.516 90.6854 193.345 90.2569 193.174 89.914L191.202 88.114L181.432 90.4283C181.432 93.3426 184.089 95.5712 187.432 95.5712Z" fill="white"/>
<path d="M53.3925 95.5711C50.5643 95.5711 48.1647 93.5997 47.9076 91.0283C47.8219 90.6854 47.9933 90.2569 48.1647 89.914L50.1358 88.1997L59.0489 90.514C58.9632 93.3426 56.4778 95.5711 53.3925 95.5711Z" fill="white"/>
<path d="M189.488 90.6855H51.8498C49.3644 90.6855 47.7361 90.0855 48.1646 89.3998L57.4205 73.7998C58.4489 72.0855 64.6195 70.7998 71.2186 70.7998H170.034C176.633 70.7998 182.803 72.1712 183.832 73.7998L193.088 89.3998C193.516 90.0855 191.888 90.6855 189.488 90.6855Z" fill="white"/>
<path d="M70.2759 90.6855H58.9631L68.9046 70.7141H78.4176L70.2759 90.6855Z" fill="#F4643C"/>
<path d="M92.4729 90.6855H81.1602L87.5022 70.7141H97.1008L92.4729 90.6855Z" fill="#F4643C"/>
<path d="M114.756 90.6855H103.357L106.185 70.7141H115.698L114.756 90.6855Z" fill="#F4643C"/>
<path d="M136.953 90.6855H125.64L124.783 70.7141H134.296L136.953 90.6855Z" fill="#F4643C"/>
<path d="M159.235 90.6855H147.837L143.466 70.7141H152.979L159.235 90.6855Z" fill="#F4643C"/>
<path d="M181.432 90.6855H170.12L162.063 70.7141H171.576L181.432 90.6855Z" fill="#F4643C"/>
<path d="M95.8155 49.4572L95.3013 52.0286L94.8728 52.2C94.0157 51.6857 93.073 51.3429 92.5588 51.3429C92.0446 51.3429 91.7875 51.6 91.7875 51.8572C91.7875 53.0572 96.0726 53.0572 96.0726 56.0572C96.0726 57.9429 94.4443 59.4857 91.7875 59.4857C90.759 59.4857 89.5592 59.3143 88.4451 58.8857L88.8736 56.1429L89.2164 55.9714C90.2448 56.7429 91.4447 57.1714 92.1303 57.1714C92.8159 57.1714 92.9873 56.9143 92.9873 56.6572C92.9873 55.3714 88.7879 55.5429 88.7879 52.4572C88.7879 50.4857 90.5019 48.9429 92.9873 48.9429C93.6729 48.9429 94.7014 49.1143 95.8155 49.4572Z" fill="white"/>
<path d="M104.043 51.6857L101.815 51.5143L101.729 55.9714L101.815 59.3143H98.7295L98.8152 56.3143V51.5143L96.5012 51.6857L96.3298 51.4285L96.5012 49.1143H104.043L104.214 49.3714L104.043 51.6857Z" fill="white"/>
<path d="M113.984 53.9143C113.984 57.4286 112.099 59.4 108.928 59.4C106.014 59.4 104.3 57.5143 104.3 54.3429C104.3 50.9143 106.186 48.8572 109.357 48.8572C112.27 48.9429 113.984 50.7429 113.984 53.9143ZM107.557 54C107.557 56.5715 107.9 57.1715 109.185 57.1715C110.385 57.1715 110.728 56.6572 110.728 54.6858C110.728 52.2 110.385 51.5143 109.099 51.5143C107.9 51.4286 107.557 51.9429 107.557 54Z" fill="white"/>
<path d="M124.097 58.5429L124.012 58.8857C122.983 59.2286 121.955 59.4 120.841 59.4857L120.584 59.2286C120.155 58.2857 119.641 57.2571 119.212 56.2286H118.27L118.355 59.2286H115.184L115.356 56.2286L115.184 49.0286H119.984C122.298 49.0286 123.583 50.1429 123.583 52.2C123.583 53.4 122.983 54.5143 121.869 55.2C122.555 56.4 123.326 57.5143 124.097 58.5429ZM118.87 51.2571L118.27 51.3429V54L119.384 54.0857C119.984 53.8286 120.241 53.4 120.241 52.6286C120.241 51.6857 119.812 51.3428 118.87 51.2571Z" fill="white"/>
<path d="M132.41 57L132.239 59.3143H125.126L125.211 56.3143L125.126 49.1143H132.41L132.582 49.3714L132.325 51.6857L129.839 51.5143H128.211V52.9714H129.754H131.382L131.553 53.1428L131.382 55.4571L129.582 55.3714H128.125V55.9714V56.9143H129.668L132.239 56.7428L132.41 57Z" fill="white"/>
<path d="M140.209 53.0572C140.209 53.5715 139.952 54.1715 139.181 54.9429L138.752 55.3715C138.752 55.4572 139.524 55.4572 139.524 55.4572L140.467 55.3715L140.552 55.4572L140.295 57.0001L138.838 56.9144H136.524H136.181L136.096 56.8287V55.7144L137.381 54.6001C137.895 54.1715 138.153 53.8286 138.153 53.5715C138.153 53.4001 138.067 53.3144 137.81 53.3144C137.467 53.3144 136.953 53.4858 136.524 53.8286H136.353L136.01 52.2858C136.781 51.8572 137.553 51.6858 138.238 51.6858C139.438 51.7715 140.209 52.2001 140.209 53.0572Z" fill="white"/>
<path d="M145.18 56.5715L145.266 57.6001L145.18 57.6858L143.637 57.7715L143.552 57.6858V56.5715H142.266H141.152L141.066 56.4001V55.2001L143.38 51.7715H145.18V55.0286H145.866L145.951 55.2001L145.866 56.5715H145.18ZM143.552 55.1143V53.9143H143.466L142.695 55.1143H143.552Z" fill="white"/>
<path d="M147.408 58.1143H146.123L145.951 57.9428L148.008 50.1428H149.38L149.465 50.3143L147.408 58.1143Z" fill="white"/>
<path d="M153.065 51.8572L153.665 51.7715V53.2286L152.294 56.0572L151.608 57.8572L150.065 57.4286L149.98 57.1715L151.779 53.4001H150.665L149.551 53.5715L149.465 53.4001L149.637 51.7715L151.008 51.8572H153.065Z" fill="white"/>
<path d="M151.351 106.457H149.637V115.2H151.351V106.457Z" fill="white"/>
<path d="M178.947 129.771C178.518 124.886 185.118 126.086 186.575 127.886C188.031 129.686 188.289 132.771 190.174 132.6C192.059 132.343 193.345 128.229 195.745 130.886C198.144 133.457 197.03 136.371 199.344 137.314C201.744 138.343 203.458 140.4 202.687 140.829C201.915 141.257 200.544 141.943 200.544 141.943H171.148C171.148 141.943 169.091 139.8 168.748 137.4C168.406 135 170.634 134.057 172.434 135C174.233 135.943 176.89 135.514 176.89 134.143C176.976 130.371 179.033 130.971 178.947 129.771Z" fill="#A1B80C"/>
<path d="M202.687 140.829C203.458 140.4 201.744 138.257 199.344 137.314C196.944 136.286 198.144 133.457 195.745 130.886C195.145 130.286 194.631 130.029 194.202 130.029C194.716 130.714 195.059 131.571 195.23 132.771C195.573 136.629 196.773 138.514 198.316 139.029C199.773 139.543 198.487 142.2 192.317 141.086C187.689 140.229 184.946 141.429 183.832 142.114H200.544C200.544 142.029 201.915 141.257 202.687 140.829Z" fill="#76930A"/>
<path d="M42.337 129.514C46.7935 134.057 49.2789 133.8 52.0214 131.657C53.5641 130.543 53.9926 134.4 55.5352 134.229C57.0779 134.057 58.1063 130.714 60.0775 132.771C62.0486 134.914 61.1059 137.229 63.077 138.086C65.0482 138.943 66.4195 140.657 65.8195 141C65.2196 141.343 64.1055 141.943 64.1055 141.943H40.023C40.023 141.943 37.2806 140.914 37.0234 138.943C36.7663 136.971 41.5657 137.657 39.0803 132.857C37.6234 130.114 40.1087 127.2 42.337 129.514Z" fill="#A1B80C"/>
<path d="M65.8196 141C66.4195 140.657 65.0482 138.943 63.0771 138.086C61.1059 137.229 62.0486 134.914 60.0775 132.771C59.649 132.257 59.2205 132.086 58.7919 132.086C59.2205 132.6 59.4776 133.371 59.649 134.314C59.9918 137.486 60.9345 139.029 62.1343 139.371C63.3342 139.8 62.3058 141.943 57.1636 141C53.3927 140.314 51.1644 141.257 50.2217 141.857H64.0198C64.1055 141.943 65.2196 141.343 65.8196 141Z" fill="#76930A"/>
</g>
<defs>
<linearGradient id="paint0_linear_1448_5855" x1="119.686" y1="142.014" x2="119.686" y2="52.3207" gradientUnits="userSpaceOnUse">
<stop stop-color="white"/>
<stop offset="0.0235261" stop-color="#FEFEFF"/>
<stop offset="0.5765" stop-color="#EEF0FD"/>
<stop offset="1" stop-color="#E8EBFD"/>
</linearGradient>
<clipPath id="clip0_1448_5855">
<rect width="251.709" height="150" fill="white"/>
</clipPath>
</defs>
</svg>
