<svg width="268" height="150" viewBox="0 0 268 150" fill="none" xmlns="http://www.w3.org/2000/svg">
<g clip-path="url(#clip0_562_3453)">
<path d="M25.7295 149.555H245.908C249.111 137.408 252.342 124.309 251.316 111.789C250.289 99.2679 244.176 86.4359 232.958 80.718C224.453 76.3784 213.886 76.4495 206.3 70.6783C202.382 67.6992 199.669 63.4308 197.206 59.1713C192.048 50.2431 187.532 40.7903 180.544 33.2049C168.942 20.5953 150.682 14.3882 133.806 17.5006C121.142 19.8305 109.897 26.8912 99.4018 34.3432C93.4134 38.5938 87.1573 43.1735 79.8481 43.9294C75.9034 44.3384 71.9142 43.5826 67.9784 44.0183C63.2573 44.543 58.9021 46.7305 54.7254 48.9893C37.983 58.033 21.1245 70.2158 15.5198 88.3389C9.31725 108.356 16.7782 130.614 25.7295 149.555Z" fill="#EEF1F9"/>
<path d="M77.4742 122.14H42.124V149.6H77.4742V122.14Z" fill="#D6E3FF"/>
<path d="M96.7869 122.14H77.4742V149.6H96.7869V122.14Z" fill="#5B86E5"/>
<path d="M61.6955 122.14H57.8937V130.027H61.6955V122.14Z" fill="white"/>
<path d="M89.0315 122.14H85.2296V130.027H89.0315V122.14Z" fill="white"/>
<path d="M85.4884 94.6793H50.1382V122.14H85.4884V94.6793Z" fill="#D6E3FF"/>
<path d="M104.801 94.6793H85.4884V122.14H104.801V94.6793Z" fill="#5B86E5"/>
<path d="M69.7187 94.6793H65.9169V102.567H69.7187V94.6793Z" fill="white"/>
<path d="M97.0457 94.6793H93.2439V102.567H97.0457V94.6793Z" fill="white"/>
<path d="M119.491 99.5258H90.388V122.131H119.491V99.5258Z" fill="#D6E3FF"/>
<path d="M135.395 99.5258H119.491V122.131H135.395V99.5258Z" fill="#5B86E5"/>
<path d="M106.506 99.5258H103.373V106.017H106.506V99.5258Z" fill="white"/>
<path d="M129.005 99.5258H125.872V106.017H129.005V99.5258Z" fill="white"/>
<path d="M126.818 122.14H91.4679V149.6H126.818V122.14Z" fill="#D6E3FF"/>
<path d="M146.131 122.14H126.818V149.6H146.131V122.14Z" fill="#5B86E5"/>
<path d="M111.048 122.14H107.247V130.027H111.048V122.14Z" fill="white"/>
<path d="M138.375 122.14H134.574V130.027H138.375V122.14Z" fill="white"/>
<path d="M104.81 122.273H50.1382C50.0668 122.273 50.0043 122.211 50.0043 122.139C50.0043 122.068 50.0668 122.006 50.1382 122.006H104.801C104.873 122.006 104.935 122.068 104.935 122.139C104.935 122.211 104.882 122.273 104.81 122.273Z" fill="#102A54"/>
<path d="M91.4679 139.204C91.3965 139.204 91.334 139.142 91.334 139.071V122.139C91.334 122.068 91.3965 122.006 91.4679 122.006C91.5393 122.006 91.6018 122.068 91.6018 122.139V139.071C91.6018 139.142 91.5482 139.204 91.4679 139.204Z" fill="#102A54"/>
<path d="M91.4679 149.733C91.3965 149.733 91.334 149.671 91.334 149.6V141.072C91.334 141.001 91.3965 140.938 91.4679 140.938C91.5393 140.938 91.6018 141.001 91.6018 141.072V149.6C91.6018 149.671 91.5482 149.733 91.4679 149.733Z" fill="#102A54"/>
<path d="M79.8124 59.0734H55.8946V94.6792H79.8124V59.0734Z" fill="#D6E3FF"/>
<path d="M91.7713 59.0734H79.8124V94.6792H91.7713V59.0734Z" fill="#5B86E5"/>
<path d="M91.7803 94.8125H55.8946C55.8232 94.8125 55.7607 94.7503 55.7607 94.6792C55.7607 94.608 55.8232 94.5458 55.8946 94.5458H91.7803C91.8517 94.5458 91.9141 94.608 91.9141 94.6792C91.9141 94.7503 91.8517 94.8125 91.7803 94.8125Z" fill="#102A54"/>
<path d="M79.8124 82.363C79.741 82.363 79.6785 82.3007 79.6785 82.2296V59.0733C79.6785 59.0022 79.741 58.9399 79.8124 58.9399C79.8838 58.9399 79.9463 59.0022 79.9463 59.0733V82.2207C79.9463 82.3007 79.8928 82.363 79.8124 82.363Z" fill="#102A54"/>
<path d="M79.8124 92.7407C79.741 92.7407 79.6785 92.6784 79.6785 92.6073V84.8173C79.6785 84.7462 79.741 84.684 79.8124 84.684C79.8838 84.684 79.9463 84.7462 79.9463 84.8173V92.6073C79.9463 92.6784 79.8928 92.7407 79.8124 92.7407Z" fill="#102A54"/>
<path d="M115.118 25.7974C115.118 25.7974 144.935 148.568 149.843 149.591C154.752 150.614 241.338 132.553 243.792 128.089C246.247 123.625 212.985 2.67669 209.718 0.240121C206.452 -2.19644 112.592 14.8684 115.118 25.7974Z" fill="white"/>
<path d="M128.192 38.0603C128.192 38.0603 186.773 21.7424 204.658 20.0706L205.783 26.6689L129.844 43.6982L128.192 38.0603Z" fill="#D6E3FF"/>
<path d="M131.923 54.1291C131.923 54.1291 205.684 35.7837 207.103 36.424C208.522 37.0642 213.886 42.1686 208.755 43.6892C203.623 45.2099 134.288 62.5148 133.342 60.8608C132.396 59.2068 131.923 54.1291 131.923 54.1291Z" fill="#D6E3FF"/>
<path d="M137.385 71.6297C137.385 71.6297 213.806 53.6401 213.975 54.1292C214.145 54.6183 215.992 59.6248 215.323 60.1317C214.654 60.6385 139.554 80.3978 138.545 78.557C137.537 76.7163 137.385 71.6297 137.385 71.6297Z" fill="#D6E3FF"/>
<path d="M142.525 89.6016C142.525 89.6016 218.473 70.8649 219.062 71.6563C219.652 72.4567 220.838 77.481 219.848 77.9612C218.857 78.4414 147.059 98.7699 145.087 97.9784C143.114 97.187 142.525 89.6016 142.525 89.6016Z" fill="#D6E3FF"/>
<path d="M149.156 108.738C149.156 108.738 221.642 88.25 222.275 89.1392C222.909 90.0285 224.587 93.3543 223.917 93.7722C223.248 94.1902 152.476 116.359 151.593 116.831C150.7 117.302 146.916 110.65 149.156 108.738Z" fill="#D6E3FF"/>
<path d="M153.86 126.799C153.86 126.799 226.006 103.029 226.961 104.372C227.925 105.715 230.04 109.352 228.496 110.126C226.961 110.89 157.893 134.856 156.546 134.278C155.207 133.7 151.548 129.094 153.86 126.799Z" fill="#D6E3FF"/>
<path d="M114.511 28.8565C117.447 46.6594 130.102 138.955 144.275 149.591L154.707 149.6C154.707 149.6 145.176 138.449 142.945 129.182C140.714 119.916 116.671 24.4191 116.671 24.4191C115.073 25.2994 114.217 27.0691 114.511 28.8565Z" fill="#D6E3FF"/>
<path d="M266.666 150H0.446228C0.19634 150 0 149.804 0 149.555C0 149.306 0.19634 149.111 0.446228 149.111H266.666C266.916 149.111 267.112 149.306 267.112 149.555C267.112 149.804 266.907 150 266.666 150Z" fill="#5B86E5"/>
<path d="M77.4742 5.80688C69.5491 5.80688 63.1235 12.2095 63.1235 20.1062C63.1235 20.2306 63.1235 20.3551 63.1324 20.4796C63.3377 35.9349 77.4742 51.2569 77.4742 51.2569C77.4742 51.2569 91.6107 35.9349 91.816 20.4796C91.816 20.3551 91.8249 20.2306 91.8249 20.1062C91.8249 12.2095 85.3992 5.80688 77.4742 5.80688Z" fill="#E6515C"/>
<path d="M77.4742 25.8863C80.9392 25.8863 83.7481 23.0874 83.7481 19.6348C83.7481 16.1822 80.9392 13.3833 77.4742 13.3833C74.0092 13.3833 71.2002 16.1822 71.2002 19.6348C71.2002 23.0874 74.0092 25.8863 77.4742 25.8863Z" fill="white"/>
</g>
<defs>
<clipPath id="clip0_562_3453">
<rect width="267.112" height="150" fill="white"/>
</clipPath>
</defs>
</svg>
