<svg width="40" height="40" viewBox="0 0 40 40" fill="none" xmlns="http://www.w3.org/2000/svg">
<g clip-path="url(#clip0_3746_3088)">
<path d="M30.2938 4.1123H30.2907C29.8594 4.1123 29.5125 4.4623 29.5125 4.89355C29.5125 5.3248 29.8657 5.6748 30.2969 5.6748C30.7282 5.6748 31.0782 5.3248 31.0782 4.89355C31.0782 4.4623 30.725 4.1123 30.2938 4.1123Z" fill="#555770"/>
<path d="M34.5092 4.1123H34.5061C34.0749 4.1123 33.728 4.4623 33.728 4.89355C33.728 5.3248 34.0811 5.6748 34.5124 5.6748C34.9436 5.6748 35.2936 5.3248 35.2936 4.89355C35.2936 4.4623 34.9405 4.1123 34.5092 4.1123Z" fill="#555770"/>
<path d="M26.075 4.1123H26.0719C25.6407 4.1123 25.2938 4.4623 25.2938 4.89355C25.2938 5.3248 25.6469 5.6748 26.0782 5.6748C26.5094 5.6748 26.8594 5.3248 26.8594 4.89355C26.8594 4.4623 26.5063 4.1123 26.075 4.1123Z" fill="#555770"/>
<path d="M17.2281 4.1123H5.49057C5.05932 4.1123 4.70932 4.4623 4.70932 4.89355C4.70932 5.3248 5.05932 5.6748 5.49057 5.6748H17.2312C17.6624 5.6748 18.0124 5.3248 18.0124 4.89355C18.0124 4.4623 17.6593 4.1123 17.2281 4.1123Z" fill="#555770"/>
<path d="M37.4938 0H2.50625C1.125 0 0 1.125 0 2.50625V31.4344C0 32.8156 1.125 33.9406 2.50625 33.9406H6.69063V37.0875C6.69063 38.6937 7.99687 40 9.60312 40H30.4C32.0062 40 33.3125 38.6937 33.3125 37.0875V33.9406H37.4969C38.8781 33.9406 40.0031 32.8156 40.0031 31.4344V2.50625C40 1.125 38.875 0 37.4938 0ZM38.4375 31.4344C38.4375 31.9562 38.0125 32.3781 37.4938 32.3781H33.3094V16.2906C33.3094 14.6844 32.0031 13.3781 30.3969 13.3781H23.5063C23.075 13.3781 22.725 13.7281 22.725 14.1594C22.725 14.5906 23.075 14.9406 23.5063 14.9406H30.4C31.1437 14.9406 31.75 15.5469 31.75 16.2906V37.0875C31.75 37.8312 31.1437 38.4375 30.4 38.4375H9.60312C8.85938 38.4375 8.25313 37.8312 8.25313 37.0875V16.2906C8.25313 15.5469 8.85938 14.9406 9.60312 14.9406H16.4875C16.9187 14.9406 17.2687 14.5906 17.2687 14.1594C17.2687 13.7281 16.9187 13.3781 16.4875 13.3781H9.60312C7.99687 13.3781 6.69063 14.6844 6.69063 16.2906V32.3781H2.50625C1.98438 32.3781 1.5625 31.9531 1.5625 31.4344V9.79062H38.4375V31.4344ZM38.4375 8.22812H1.5625V2.50625C1.5625 1.9875 1.9875 1.5625 2.50625 1.5625H37.4938C38.0156 1.5625 38.4375 1.9875 38.4375 2.50625V8.22812Z" fill="#555770"/>
<path d="M10.8625 21.8092C11.2937 21.8092 11.6437 21.4592 11.6437 21.0279V18.3311H14.3406C14.7719 18.3311 15.1219 17.9811 15.1219 17.5498C15.1219 17.1186 14.7719 16.7686 14.3406 16.7686H10.8625C10.4312 16.7686 10.0812 17.1186 10.0812 17.5498V21.0279C10.0812 21.4592 10.4312 21.8092 10.8625 21.8092Z" fill="#555770"/>
<path d="M25.6595 18.334H28.3564V21.0309C28.3564 21.4621 28.7064 21.8121 29.1376 21.8121C29.5689 21.8121 29.9189 21.4621 29.9189 21.0309V17.5527C29.9189 17.1215 29.5689 16.7715 29.1376 16.7715H25.6595C25.2282 16.7715 24.8782 17.1215 24.8782 17.5527C24.8782 17.984 25.2282 18.334 25.6595 18.334Z" fill="#555770"/>
<path d="M14.3375 35.0465H11.6406V32.3496C11.6406 31.9184 11.2906 31.5684 10.8594 31.5684C10.4281 31.5684 10.0781 31.9184 10.0781 32.3496V35.8277C10.0781 36.259 10.4281 36.609 10.8594 36.609H14.3375C14.7688 36.609 15.1188 36.259 15.1188 35.8277C15.1188 35.3965 14.7688 35.0465 14.3375 35.0465Z" fill="#555770"/>
<path d="M29.1376 31.5684C28.7064 31.5684 28.3564 31.9184 28.3564 32.3496V35.0465H25.6595C25.2282 35.0465 24.8782 35.3965 24.8782 35.8277C24.8782 36.259 25.2282 36.609 25.6595 36.609H29.1376C29.5689 36.609 29.9189 36.259 29.9189 35.8277V32.3496C29.9189 31.9184 29.5689 31.5684 29.1376 31.5684Z" fill="#555770"/>
<path d="M17.222 26.6902C17.222 28.2246 18.4689 29.4715 20.0001 29.4715C21.5345 29.4715 22.7814 28.2246 22.7814 26.6902C22.7814 25.159 21.5345 23.9121 20.0001 23.9121C18.4657 23.909 17.222 25.1559 17.222 26.6902ZM21.2189 26.6902C21.2189 27.3621 20.672 27.909 20.0001 27.909C19.3282 27.909 18.7845 27.3621 18.7845 26.6902C18.7845 26.0184 19.3314 25.4746 20.0001 25.4746C20.672 25.4715 21.2189 26.0184 21.2189 26.6902Z" fill="#555770"/>
<path d="M13.0937 22.9564C11.7031 23.9158 10.0812 25.4689 10.0812 26.6877C10.0812 27.9096 11.7062 29.4627 13.0937 30.4221C14.3156 31.2658 16.8375 32.6783 20 32.6783C23.1625 32.6783 25.6844 31.2658 26.9062 30.4221C28.2969 29.4627 29.9219 27.9096 29.9219 26.6877C29.9219 25.4658 28.2969 23.9127 26.9062 22.9564C25.6844 22.1127 23.1594 20.7002 20 20.7002C16.8406 20.7002 14.3156 22.1127 13.0937 22.9564ZM11.6437 26.6908C11.6812 26.4502 12.25 25.5064 13.7125 24.4346C13.4562 25.1502 13.3187 25.9127 13.3187 26.6908C13.3187 27.4689 13.4531 28.2314 13.7125 28.9471C12.2469 27.8752 11.6812 26.9314 11.6437 26.6908ZM26.2844 24.4346C27.75 25.5064 28.3156 26.4502 28.3562 26.6908C28.3187 26.9314 27.75 27.8783 26.2844 28.9471C26.5406 28.2314 26.6781 27.4689 26.6781 26.6908C26.6781 25.9096 26.5406 25.1502 26.2844 24.4346ZM25.1156 26.6908C25.1156 28.1346 24.5062 29.5064 23.4406 30.4783C22.4531 30.8439 21.2844 31.1189 20 31.1189C18.7156 31.1189 17.55 30.8439 16.5625 30.4783C15.4937 29.5064 14.8844 28.1346 14.8844 26.6908C14.8844 25.2439 15.4969 23.8721 16.5656 22.9033C17.55 22.5377 18.7187 22.2658 20 22.2658C21.2844 22.2658 22.45 22.5408 23.4375 22.9064C24.5031 23.8721 25.1156 25.2439 25.1156 26.6908Z" fill="#555770"/>
<path d="M19.9967 14.9434C20.4311 14.9434 20.778 14.5934 20.778 14.1621C20.778 13.7309 20.428 13.3809 19.9967 13.3809C19.5655 13.3809 19.2155 13.7309 19.2155 14.1621C19.2155 14.5934 19.5655 14.9434 19.9967 14.9434Z" fill="#555770"/>
</g>
<defs>
<clipPath id="clip0_3746_3088">
<rect width="40" height="40" fill="white"/>
</clipPath>
</defs>
</svg>
