<svg width="109" height="109" viewBox="0 0 109 109" fill="none" xmlns="http://www.w3.org/2000/svg">
<circle cx="54.5" cy="54.5" r="54" fill="white" stroke="#FFDBCC" stroke-dasharray="4 4"/>
<circle opacity="0.3" cx="54.5" cy="54.5" r="43.5" fill="#FFF1EB"/>
<g clip-path="url(#clip0_6727_220693)">
<path d="M55.4689 66.5323C55.8253 66.5323 56.1141 66.2434 56.1141 65.8871C56.1141 65.5306 55.8253 65.2418 55.4689 65.2418H52.5315C52.1751 65.2418 51.8862 65.5306 51.8862 65.8871C51.8862 66.2435 52.1751 66.5323 52.5315 66.5323H55.4689Z" fill="#FF924E"/>
<path d="M73.176 38.1412H67.7655L68.669 37.2378C69.0921 36.8146 69.0921 36.1262 68.669 35.703L67.1937 34.2277C66.7704 33.8045 66.0821 33.8045 65.6588 34.2277L64.7441 35.1424C64.1677 34.8143 63.5543 34.5599 62.9169 34.3846V33.092C62.9169 32.4937 62.43 32.0067 61.8315 32.0067H59.7452C59.1468 32.0067 58.6599 32.4936 58.6599 33.092V34.3845C58.0225 34.5599 57.4092 34.8143 56.8326 35.1424L55.9179 34.2277C55.4946 33.8045 54.8063 33.8045 54.383 34.2277L52.9078 35.703C52.4846 36.1262 52.4846 36.8146 52.9078 37.2378L53.8114 38.1412H34.824C33.2668 38.1412 32 39.4081 32 40.9654V66.4774C32 68.0346 33.2668 69.3014 34.824 69.3014H40.808C41.1644 69.3014 41.4533 69.0125 41.4533 68.6561C41.4533 68.2997 41.1644 68.0109 40.808 68.0109H34.824C33.9785 68.0109 33.2905 67.3229 33.2905 66.4774V63.7634H35.3355H74.7095V66.4774C74.7095 67.3229 74.0216 68.0109 73.176 68.0109H43.8759C43.5195 68.0109 43.2307 68.2997 43.2307 68.6561C43.2307 69.0125 43.5195 69.3014 43.8759 69.3014H49.1725C49.1246 70.7744 48.9777 73.3222 48.6469 74.7028H46.4106C46.0543 74.7028 45.7654 74.9916 45.7654 75.3481C45.7654 75.7045 46.0543 75.9933 46.4106 75.9933H61.5894C61.9459 75.9933 62.2347 75.7044 62.2347 75.3481C62.2347 74.9916 61.9458 74.7028 61.5894 74.7028H59.3533C59.0226 73.3226 58.8757 70.7746 58.8276 69.3014H73.1761C74.7333 69.3014 76.0001 68.0346 76.0001 66.4774V40.9654C76 39.4081 74.7332 38.1412 73.176 38.1412ZM49.9672 74.7028C50.3085 73.0317 50.4258 70.4823 50.4633 69.3014H57.5367C57.5742 70.4823 57.6915 73.0317 58.0328 74.7028H49.9672ZM54.8474 37.3522L53.9655 36.4704L55.1506 35.2855L56.0324 36.1673C56.3839 36.5186 56.9285 36.5856 57.3571 36.3304C57.9107 36.0007 58.5065 35.7535 59.1281 35.5956C59.6123 35.4723 59.9505 35.0394 59.9505 34.5427V33.2973H61.6264V34.5427C61.6264 35.0394 61.9645 35.4724 62.4489 35.5956C63.0705 35.7536 63.6664 36.0009 64.2196 36.3302C64.6484 36.5857 65.1931 36.5188 65.5446 36.1672L66.4264 35.2855L67.6113 36.4704L66.7294 37.3523C66.3783 37.7036 66.3113 38.2484 66.5664 38.6771C66.896 39.2303 67.1431 39.8262 67.3012 40.4478C67.4243 40.9322 67.8572 41.2705 68.354 41.2705H69.5995V42.9464H68.354C67.8571 42.9464 67.4242 43.2847 67.3012 43.7688C67.1431 44.3905 66.896 44.9862 66.5663 45.5397C66.3112 45.9684 66.3783 46.5132 66.7295 46.8645L67.6113 47.7462L66.4264 48.9312L65.5446 48.0494C65.1931 47.698 64.6483 47.631 64.2199 47.8862C63.6665 48.2158 63.0706 48.4631 62.4489 48.6211C61.9646 48.7442 61.6264 49.1771 61.6264 49.6738V50.9192H59.9505V49.6738C59.9505 49.177 59.6122 48.744 59.128 48.6211C58.5063 48.463 57.9105 48.2158 57.357 47.8861C56.9284 47.6311 56.3838 47.6982 56.0322 48.0494L55.1506 48.9312L53.9655 47.7462L54.8474 46.8645C55.1987 46.513 55.2658 45.9682 55.0105 45.5397C54.6809 44.9862 54.4337 44.3904 54.2757 43.7689C54.1527 43.2846 53.7197 42.9464 53.2229 42.9464H51.9775V41.2705H53.2229C53.7197 41.2705 54.1527 40.9322 54.2757 40.4479C54.4337 39.8263 54.6809 39.2305 55.0104 38.6771C55.2657 38.2485 55.1987 37.7038 54.8474 37.3522ZM34.6902 42.6989V62.4728H33.2905V40.9654C33.2905 40.1198 33.9784 39.4319 34.824 39.4319H53.2379C53.1739 39.6124 53.1156 39.795 53.0647 39.9799H51.7723C51.1738 39.9799 50.687 40.4668 50.687 41.0652V41.1009H36.2883C35.4071 41.1009 34.6902 41.8177 34.6902 42.6989ZM72.0194 62.4727H35.9807V42.6989C35.9807 42.5294 36.1187 42.3914 36.2883 42.3914H50.6869V43.1515C50.6869 43.7499 51.1738 44.2368 51.7722 44.2368H53.0646C53.2401 44.8743 53.4944 45.4876 53.8226 46.0641L52.9079 46.9788C52.4847 47.402 52.4847 48.0904 52.9079 48.5136L54.3831 49.9889C54.8064 50.4121 55.4946 50.4121 55.918 49.9889L56.8326 49.0743C57.4089 49.4023 58.0223 49.6567 58.66 49.8323V51.1247C58.66 51.7231 59.1469 52.21 59.7452 52.21H61.8316C62.43 52.21 62.917 51.7232 62.917 51.1247V49.8322C63.5545 49.6567 64.1679 49.4023 64.7442 49.0743L65.6589 49.9889C66.0822 50.4121 66.7704 50.4121 67.1938 49.9889L68.6691 48.5136C69.0922 48.0905 69.0922 47.402 68.6691 46.9788L67.7543 46.0641C68.0824 45.4878 68.3368 44.8746 68.5123 44.2368H69.8048C70.4032 44.2368 70.8901 43.75 70.8901 43.1515V42.3914H71.7119C71.8815 42.3914 72.0194 42.5294 72.0194 42.6989V62.4727H72.0194ZM74.7095 62.4727H73.3099V42.6989C73.3099 41.8177 72.5931 41.1009 71.7118 41.1009H70.89V41.0651C70.89 40.4667 70.4032 39.9799 69.8047 39.9799H68.5123C68.4614 39.7949 68.4031 39.6123 68.339 39.4318H73.176C74.0216 39.4318 74.7095 40.1197 74.7095 40.9653V62.4727Z" fill="#FF924E"/>
<path d="M60.7886 47.1101C63.5466 47.1101 65.7904 44.8663 65.7904 42.1083C65.7904 39.3502 63.5466 37.1064 60.7886 37.1064C60.322 37.1064 59.8599 37.1707 59.415 37.2974C59.0723 37.3951 58.8737 37.7522 58.9714 38.0949C59.0692 38.4376 59.4261 38.6361 59.7689 38.5385C60.0985 38.4445 60.4416 38.3968 60.7885 38.3968C62.835 38.3968 64.4998 40.0618 64.4998 42.1082C64.4998 44.1546 62.835 45.8195 60.7885 45.8195C58.742 45.8195 57.0772 44.1546 57.0772 42.1082C57.0772 41.3644 57.2962 40.647 57.7107 40.0335C57.9102 39.7383 57.8325 39.3371 57.5372 39.1376C57.242 38.9381 56.8407 39.0158 56.6413 39.3111C56.0821 40.1387 55.7866 41.1059 55.7866 42.1081C55.7866 44.8664 58.0304 47.1101 60.7886 47.1101Z" fill="#FF924E"/>
<path d="M63.3904 42.1083C63.3904 40.6737 62.2234 39.5066 60.7887 39.5066C59.3541 39.5066 58.187 40.6737 58.187 42.1083C58.187 43.5429 59.3541 44.71 60.7887 44.71C62.2234 44.71 63.3904 43.5429 63.3904 42.1083ZM59.4775 42.1083C59.4775 41.3854 60.0657 40.7971 60.7886 40.7971C61.5116 40.7971 62.0998 41.3854 62.0998 42.1083C62.0998 42.8313 61.5116 43.4195 60.7886 43.4195C60.0657 43.4195 59.4775 42.8313 59.4775 42.1083Z" fill="#FF924E"/>
<path d="M52.0752 51.2695H51.1994C51.0743 50.8459 50.9045 50.4363 50.6925 50.0475L51.3122 49.4277C51.4978 49.2422 51.6 48.9955 51.6 48.7331C51.6 48.4708 51.4979 48.2243 51.3123 48.0386L50.1825 46.9088C49.7996 46.5258 49.1765 46.5257 48.7935 46.9088L48.1737 47.5286C47.7847 47.3166 47.3752 47.1468 46.9516 47.0217V46.1459C46.9516 45.6042 46.511 45.1637 45.9693 45.1637H44.3715C43.83 45.1637 43.3893 45.6043 43.3893 46.1459V47.0217C42.9656 47.1467 42.5562 47.3166 42.1672 47.5286L41.5474 46.9088C41.1645 46.5258 40.5413 46.5259 40.1583 46.9088L39.0284 48.0387C38.6456 48.4217 38.6456 49.0449 39.0285 49.4277L39.6483 50.0475C39.4363 50.4363 39.2665 50.8457 39.1413 51.2695H38.2654C37.7238 51.2695 37.2832 51.7102 37.2832 52.2518V53.8496C37.2832 54.3912 37.7238 54.8317 38.2654 54.8317H39.1413C39.2664 55.2556 39.4363 55.6652 39.6482 56.0538L39.0283 56.6737C38.6455 57.0567 38.6455 57.6798 39.0285 58.0627L40.1581 59.1924C40.3437 59.378 40.5904 59.4801 40.8528 59.4801C41.1153 59.4801 41.3619 59.3779 41.5474 59.1924L42.1672 58.5727C42.5562 58.7848 42.9657 58.9546 43.3893 59.0797V59.9555C43.3893 60.4971 43.8299 60.9376 44.3715 60.9376H45.9693C46.5109 60.9376 46.9516 60.497 46.9516 59.9555V59.0797C47.3752 58.9546 47.7846 58.7849 48.1737 58.5727L48.7933 59.1923C48.9788 59.3779 49.2256 59.4801 49.4879 59.4801C49.7504 59.4801 49.9971 59.3779 50.1825 59.1924L51.3122 58.0627C51.4978 57.8771 51.6 57.6305 51.6 57.3681C51.6 57.1058 51.4979 56.8592 51.3123 56.6735L50.6925 56.0538C50.9045 55.6649 51.0744 55.2555 51.1994 54.8317H52.0752C52.6168 54.8317 53.0575 54.3911 53.0575 53.8496V52.2518C53.0575 51.7101 52.6168 51.2695 52.0752 51.2695ZM51.7669 53.5412H50.9643C50.5147 53.5412 50.1229 53.847 50.0115 54.285C49.8941 54.747 49.7104 55.1897 49.4653 55.6012C49.2346 55.9888 49.2954 56.4818 49.6134 56.7999L50.1817 57.3682L49.4879 58.062L48.9197 57.4937C48.6016 57.1756 48.1087 57.1148 47.7209 57.3457C47.3095 57.5907 46.8667 57.7744 46.4047 57.8918C45.9668 58.0031 45.661 58.395 45.661 58.8445V59.6472H44.6798V58.8445C44.6798 58.3949 44.374 58.0031 43.936 57.8918C43.4741 57.7744 43.0314 57.5907 42.62 57.3457C42.2322 57.1147 41.7392 57.1756 41.4213 57.4936L40.8528 58.062L40.159 57.3682L40.7275 56.7998C41.0453 56.4819 41.1062 55.989 40.8753 55.601C40.6304 55.1899 40.4467 54.7471 40.3292 54.2851C40.218 53.8472 39.8262 53.5412 39.3765 53.5412H38.5737V52.56H39.3764C39.8261 52.56 40.2179 52.2542 40.3291 51.8162C40.4466 51.3542 40.6303 50.9114 40.8753 50.5C41.1061 50.1123 41.0453 49.6194 40.7273 49.3013L40.1588 48.733L40.8526 48.0392L41.421 48.6075C41.739 48.9256 42.232 48.9865 42.6197 48.7556C43.0312 48.5105 43.474 48.3268 43.9359 48.2094C44.3738 48.098 44.6796 47.7063 44.6796 47.2567V46.4541H45.6608V47.2567C45.6608 47.7063 45.9667 48.098 46.4045 48.2094C46.8665 48.3268 47.3093 48.5105 47.7206 48.7555C48.1085 48.9866 48.6015 48.9255 48.9193 48.6076L49.4877 48.0392L50.1815 48.733L49.613 49.3014C49.2951 49.6195 49.2342 50.1125 49.4652 50.5C49.7102 50.9115 49.8939 51.3544 50.0113 51.8163C50.1227 52.2542 50.5145 52.56 50.9641 52.56H51.7667V53.5412H51.7669Z" fill="#FF924E"/>
<path d="M45.1699 49.6366C43.2874 49.6366 41.7559 51.1681 41.7559 53.0506C41.7559 54.9331 43.2874 56.4646 45.1699 56.4646C47.0523 56.4646 48.5838 54.9331 48.5838 53.0506C48.5838 51.1681 47.0524 49.6366 45.1699 49.6366ZM45.1699 55.174C43.999 55.174 43.0464 54.2215 43.0464 53.0506C43.0464 51.8796 43.999 50.9271 45.1699 50.9271C46.3407 50.9271 47.2933 51.8796 47.2933 53.0506C47.2933 54.2215 46.3408 55.174 45.1699 55.174Z" fill="#FF924E"/>
</g>
<defs>
<clipPath id="clip0_6727_220693">
<rect width="44" height="44" fill="white" transform="translate(32 32)"/>
</clipPath>
</defs>
</svg>
