<svg width="90" height="90" viewBox="0 0 90 90" fill="none" xmlns="http://www.w3.org/2000/svg">
<path d="M65.6244 86.2505H13.1256C12.1321 86.2477 11.1801 85.8517 10.4775 85.1492C9.77501 84.4466 9.37907 83.4946 9.37622 82.5011V16.8749C9.37907 15.8814 9.77501 14.9293 10.4775 14.2268C11.1801 13.5243 12.1321 13.1283 13.1256 13.1255H65.6244C66.6179 13.1283 67.57 13.5243 68.2725 14.2268C68.975 14.9293 69.371 15.8814 69.3738 16.8749V82.4993C69.3714 83.4931 68.9757 84.4456 68.2731 85.1485C67.5706 85.8515 66.6183 86.2476 65.6244 86.2505Z" fill="url(#paint0_linear_4454_25318)"/>
<path d="M65.6244 86.2505H13.1256C12.1321 86.2476 11.1801 85.8517 10.4775 85.1492C9.77501 84.4466 9.37907 83.4946 9.37622 82.5011V75.0005H69.3756V82.5011C69.3728 83.4949 68.9766 84.4472 68.2737 85.1498C67.5707 85.8524 66.6183 86.2481 65.6244 86.2505Z" fill="url(#paint1_linear_4454_25318)"/>
<path d="M37.4995 31.8747H22.5001C21.3751 31.8747 20.6245 31.1241 20.6245 29.9991C20.6245 28.8741 21.3751 28.1235 22.5001 28.1235H37.4995C38.6245 28.1235 39.3751 28.8741 39.3751 29.9991C39.3751 31.1241 38.6245 31.8747 37.4995 31.8747Z" fill="#8491C1"/>
<path d="M56.2501 41.2507H22.5001C21.3751 41.2507 20.6245 40.5001 20.6245 39.3751C20.6245 38.2501 21.3751 37.4995 22.5001 37.4995H56.2501C57.3751 37.4995 58.1257 38.2501 58.1257 39.3751C58.1257 40.5001 57.3751 41.2507 56.2501 41.2507Z" fill="#8491C1"/>
<path d="M43.1245 50.6252H22.5001C21.3751 50.6252 20.6245 49.8746 20.6245 48.7496C20.6245 47.6246 21.3751 46.874 22.5001 46.874H43.1245C44.2495 46.874 45.0001 47.6246 45.0001 48.7496C45.0001 49.8746 44.2495 50.6252 43.1245 50.6252Z" fill="#8491C1"/>
<path d="M54.3744 9.37451H46.6884C45.9378 6.18671 42.939 3.74951 39.3768 3.74951C35.8146 3.74951 33.0012 6.18671 32.0634 9.37451H24.3756C23.2506 9.37451 22.5 10.1251 22.5 11.2501V14.9995C22.5 16.1245 23.2506 16.8751 24.3756 16.8751H54.3744C55.4994 16.8751 56.25 16.1245 56.25 14.9995V11.2501C56.25 10.1251 55.4994 9.37451 54.3744 9.37451Z" fill="url(#paint2_linear_4454_25318)"/>
<path d="M63.7507 86.2505C73.0705 86.2505 80.6257 78.6953 80.6257 69.3755C80.6257 60.0557 73.0705 52.5005 63.7507 52.5005C54.4309 52.5005 46.8757 60.0557 46.8757 69.3755C46.8757 78.6953 54.4309 86.2505 63.7507 86.2505Z" fill="url(#paint3_linear_4454_25318)"/>
<path d="M63.7506 78.7501C63.2604 78.7456 62.7761 78.6439 62.3256 78.4508C61.8751 78.2577 61.4674 77.977 61.1262 77.6251L55.4994 72.0001C55.1438 71.6578 54.8601 71.248 54.6648 70.7947C54.4694 70.3415 54.3664 69.8538 54.3617 69.3603C54.3571 68.8667 54.4508 68.3772 54.6376 67.9203C54.8243 67.4634 55.1002 67.0484 55.4492 66.6993C55.7982 66.3503 56.2133 66.0744 56.6702 65.8877C57.1271 65.701 57.6166 65.6072 58.1101 65.6119C58.6037 65.6166 59.0913 65.7196 59.5446 65.9149C59.9979 66.1102 60.4076 66.394 60.75 66.7495L62.6256 68.6251L66.0006 62.0623C66.564 60.7501 67.8762 59.9995 69.3756 59.9995C69.939 59.9995 70.5006 60.1795 71.064 60.3739C71.5088 60.5939 71.9056 60.8998 72.2315 61.274C72.5575 61.6481 72.8061 62.0831 72.9631 62.5539C73.12 63.0246 73.1822 63.5218 73.1461 64.0167C73.1099 64.5116 72.9761 64.9944 72.7524 65.4373L67.1256 76.6801C66.8701 77.234 66.478 77.7138 65.9862 78.0747C65.4944 78.4355 64.919 78.6654 64.314 78.7429L63.7506 78.7501Z" fill="url(#paint4_linear_4454_25318)"/>
<path d="M22.5 14.9994C22.5 16.1244 23.2506 16.875 24.3756 16.875H54.3744C55.4994 16.875 56.25 16.1244 56.25 14.9994V11.25H22.5V14.9994Z" fill="url(#paint5_linear_4454_25318)"/>
<path d="M63.7507 76.8745C63.5044 76.8814 63.2595 76.8348 63.033 76.7378C62.8064 76.6408 62.6036 76.4959 62.4385 76.3129L56.8135 70.6879C56.4705 70.3388 56.2792 69.8684 56.2813 69.379C56.2834 68.8896 56.4787 68.4208 56.8248 68.0747C57.1709 67.7287 57.6396 67.5333 58.1291 67.5312C58.6185 67.5291 59.0889 67.7204 59.4379 68.0635L63.1801 71.8201L67.6801 62.8201C68.0545 61.8823 69.1795 61.5079 70.1173 62.0695C71.0551 62.4439 71.4295 63.5689 70.8679 64.5067L65.2429 75.7567C65.1464 76.0285 64.9689 76.2641 64.7342 76.4318C64.4996 76.5995 64.2191 76.6912 63.9307 76.6945C63.9379 76.8745 63.9379 76.8745 63.7507 76.8745Z" fill="url(#paint6_linear_4454_25318)"/>
<defs>
<linearGradient id="paint0_linear_4454_25318" x1="39.3741" y1="13.1255" x2="39.3741" y2="85.5192" gradientUnits="userSpaceOnUse">
<stop stop-color="#EAECF7"/>
<stop offset="1" stop-color="#CDD3F1"/>
</linearGradient>
<linearGradient id="paint1_linear_4454_25318" x1="39.3741" y1="75.0005" x2="39.3741" y2="86.138" gradientUnits="userSpaceOnUse">
<stop stop-color="#E2E5F4" stop-opacity="0"/>
<stop offset="1" stop-color="#9AA6E2"/>
</linearGradient>
<linearGradient id="paint2_linear_4454_25318" x1="39.375" y1="4.10699" x2="39.375" y2="16.3138" gradientUnits="userSpaceOnUse">
<stop stop-color="#E28B5A"/>
<stop offset="1" stop-color="#B35E3E"/>
</linearGradient>
<linearGradient id="paint3_linear_4454_25318" x1="52.2757" y1="57.563" x2="77.2507" y2="83.213" gradientUnits="userSpaceOnUse">
<stop stop-color="#36DB39"/>
<stop offset="1" stop-color="#20B823"/>
</linearGradient>
<linearGradient id="paint4_linear_4454_25318" x1="60.9472" y1="61.949" x2="70.8789" y2="77.1509" gradientUnits="userSpaceOnUse">
<stop stop-color="#20B823"/>
<stop offset="1" stop-color="#36DB39" stop-opacity="0"/>
</linearGradient>
<linearGradient id="paint5_linear_4454_25318" x1="39.375" y1="12.6562" x2="39.375" y2="17.6063" gradientUnits="userSpaceOnUse">
<stop stop-color="#B35E3E" stop-opacity="0"/>
<stop offset="1" stop-color="#96492D"/>
</linearGradient>
<linearGradient id="paint6_linear_4454_25318" x1="56.2501" y1="62.8458" x2="63.8416" y2="77.0906" gradientUnits="userSpaceOnUse">
<stop stop-color="#EAECF7"/>
<stop offset="1" stop-color="#CDD3F1"/>
</linearGradient>
</defs>
</svg>
