<svg width="40" height="41" viewBox="0 0 40 41" fill="none" xmlns="http://www.w3.org/2000/svg">
<g clip-path="url(#clip0_1892:16888)">
<path d="M31.0736 4.89285C31.0736 4.46044 30.7225 4.10938 30.2901 4.10938H30.2858C29.8534 4.10938 29.5066 4.46044 29.5066 4.89285C29.5066 5.32526 29.8577 5.67632 30.2901 5.67632C30.7225 5.67632 31.0736 5.32526 31.0736 4.89285Z" fill="#555770"/>
<path d="M35.2907 4.89285C35.2907 4.46044 34.9396 4.10938 34.5072 4.10938C34.0748 4.10938 33.728 4.46044 33.728 4.89285C33.728 5.32526 34.0791 5.67632 34.5115 5.67632C34.9439 5.67632 35.2907 5.32526 35.2907 4.89285Z" fill="#555770"/>
<path d="M26.8607 4.89285C26.8607 4.46044 26.5096 4.10938 26.0772 4.10938H26.073C25.6405 4.10938 25.2938 4.46044 25.2938 4.89285C25.2938 5.32526 25.6448 5.67632 26.0772 5.67632C26.5096 5.67632 26.8607 5.32526 26.8607 4.89285Z" fill="#555770"/>
<path d="M4.70941 4.89285C4.70941 5.32526 5.06047 5.67632 5.49288 5.67632H17.2322C17.6646 5.67632 18.0156 5.32526 18.0156 4.89285C18.0156 4.46044 17.6646 4.10938 17.2322 4.10938H5.49288C5.06047 4.11366 4.70941 4.46472 4.70941 4.89285Z" fill="#555770"/>
<path d="M37.4912 0H13.0451C12.6127 0 12.2616 0.351065 12.2616 0.783474C12.2616 1.21588 12.6127 1.56695 13.0451 1.56695H37.4912C38.0135 1.56695 38.4373 1.9908 38.4373 2.50883V8.22862H1.56267V2.50455C1.56267 1.98651 1.98651 1.56267 2.50455 1.56267H6.02376C6.45617 1.56267 6.80724 1.2116 6.80724 0.779193C6.80724 0.346784 6.45617 0 6.02376 0H2.50455C1.12598 0 0 1.12598 0 2.50455V37.5254C0 38.9083 1.12598 40.0343 2.50455 40.0343H37.4912C38.874 40.0343 40 38.9083 40 37.5254V2.50455C40 1.12598 38.8783 0 37.4912 0ZM37.4912 38.4716H2.50455C1.98651 38.4716 1.56267 38.0477 1.56267 37.5254V9.79129H38.4373V37.5254C38.4373 38.0477 38.0135 38.4716 37.4912 38.4716Z" fill="#555770"/>
<path d="M7.30817 29.918C5.51003 29.918 4.05011 31.3779 4.05011 33.176C4.05011 34.9699 5.51003 36.4298 7.30817 36.4298C9.10202 36.4298 10.5619 34.9699 10.5619 33.176C10.5619 31.3779 9.10202 29.918 7.30817 29.918ZM7.30817 34.8671C6.37485 34.8671 5.61278 34.1093 5.61278 33.176C5.61278 32.2427 6.37057 31.4806 7.30817 31.4806C8.24149 31.4806 8.99927 32.2384 8.99927 33.176C8.99927 34.1093 8.24149 34.8671 7.30817 34.8671Z" fill="#555770"/>
<path d="M15.768 29.918C13.9741 29.918 12.5142 31.3779 12.5142 33.176C12.5142 34.9699 13.9741 36.4298 15.768 36.4298C17.5618 36.4298 19.0217 34.9699 19.0217 33.176C19.026 31.3779 17.5618 29.918 15.768 29.918ZM15.768 34.8671C14.8346 34.8671 14.0769 34.1093 14.0769 33.176C14.0769 32.2427 14.8346 31.4806 15.768 31.4806C16.7013 31.4806 17.4591 32.2384 17.4591 33.176C17.4591 34.1093 16.7013 34.8671 15.768 34.8671Z" fill="#555770"/>
<path d="M24.232 29.918C22.4382 29.918 20.9783 31.3779 20.9783 33.176C20.9783 34.9699 22.4382 36.4298 24.232 36.4298C26.0302 36.4298 27.4901 34.9699 27.4901 33.176C27.4901 31.3779 26.0259 29.918 24.232 29.918ZM24.232 34.8671C23.2987 34.8671 22.5409 34.1093 22.5409 33.176C22.5409 32.2427 23.2987 31.4806 24.232 31.4806C25.1654 31.4806 25.9274 32.2384 25.9274 33.176C25.9232 34.1093 25.1654 34.8671 24.232 34.8671Z" fill="#555770"/>
<path d="M32.6963 29.918C30.8981 29.918 29.4382 31.3779 29.4382 33.176C29.4382 34.9699 30.8981 36.4298 32.6963 36.4298C34.4901 36.4298 35.95 34.9699 35.95 33.176C35.95 31.3779 34.4901 29.918 32.6963 29.918ZM32.6963 34.8671C31.763 34.8671 31.0009 34.1093 31.0009 33.176C31.0009 32.2427 31.7587 31.4806 32.6963 31.4806C33.6296 31.4806 34.3874 32.2384 34.3874 33.176C34.3874 34.1093 33.6296 34.8671 32.6963 34.8671Z" fill="#555770"/>
<path d="M4.05012 26.1077C4.08009 26.5102 4.42259 26.8355 4.82931 26.8355H22.3312C22.7593 26.8355 23.1147 26.4802 23.1147 26.0521V12.8186C23.1147 12.3862 22.7636 12.0352 22.3312 12.0352H4.82931C4.3969 12.0352 4.04584 12.3862 4.04584 12.8186V26.0521C4.05012 26.0692 4.05012 26.0863 4.05012 26.1077ZM17.0138 25.2686L15.5582 22.9738L17.5062 19.9041L20.9098 25.2686H17.0138ZM15.1643 25.2686H6.25498L10.7118 18.2516L15.1643 25.2686ZM21.552 13.5978V23.3591L18.1655 18.0247C18.0242 17.7978 17.7716 17.6608 17.5062 17.6608C17.2365 17.6608 16.9881 17.7978 16.8469 18.0247L14.6334 21.5139L11.3711 16.3721C11.2298 16.1452 10.9772 16.0082 10.7118 16.0082C10.4421 16.0082 10.1938 16.1452 10.0525 16.3721L5.61279 23.3591V13.5978H21.552Z" fill="#555770"/>
<path d="M26.4154 13.5982H35.1364C35.5688 13.5982 35.9199 13.2471 35.9199 12.8147C35.9199 12.3823 35.5688 12.0312 35.1364 12.0312H26.4154C25.983 12.0312 25.632 12.3823 25.632 12.8147C25.632 13.2471 25.983 13.5982 26.4154 13.5982Z" fill="#555770"/>
<path d="M26.4154 17.9302H35.1364C35.5688 17.9302 35.9199 17.5792 35.9199 17.1468C35.9199 16.7143 35.5688 16.3633 35.1364 16.3633H26.4154C25.983 16.3633 25.632 16.7143 25.632 17.1468C25.632 17.5834 25.983 17.9302 26.4154 17.9302Z" fill="#555770"/>
<path d="M26.4154 22.2623H35.1364C35.5688 22.2623 35.9199 21.9112 35.9199 21.4788C35.9199 21.0464 35.5688 20.6953 35.1364 20.6953H26.4154C25.983 20.6953 25.632 21.0464 25.632 21.4788C25.632 21.9112 25.983 22.2623 26.4154 22.2623Z" fill="#555770"/>
<path d="M26.4154 26.5962H35.1364C35.5688 26.5962 35.9199 26.2452 35.9199 25.8128C35.9199 25.3804 35.5688 25.0293 35.1364 25.0293H26.4154C25.983 25.0293 25.632 25.3804 25.632 25.8128C25.632 26.2452 25.983 26.5962 26.4154 26.5962Z" fill="#555770"/>
<path d="M9.53444 1.56267H9.53872C9.97113 1.56267 10.3179 1.2116 10.3179 0.779193C10.3179 0.346784 9.96685 0 9.53444 0C9.10203 0 8.75097 0.351065 8.75097 0.783474C8.75097 1.21588 9.10632 1.56267 9.53444 1.56267Z" fill="#555770"/>
</g>
<defs>
<clipPath id="clip0_1892:16888">
<rect width="40" height="40.0343" fill="white"/>
</clipPath>
</defs>
</svg>
