<svg width="40" height="36" viewBox="0 0 40 36" fill="none" xmlns="http://www.w3.org/2000/svg">
<g clip-path="url(#clip0_744:8704)">
<path d="M27.2299 3.6875H27.2252C26.7939 3.6875 26.4463 4.0375 26.4463 4.46875C26.4463 4.9 26.7986 5.25 27.2299 5.25C27.6611 5.25 28.0111 4.9 28.0111 4.46875C28.0111 4.0375 27.6611 3.6875 27.2299 3.6875Z" fill="#555770"/>
<path d="M31.0077 3.6875H31.0054C30.5741 3.6875 30.2257 4.0375 30.2257 4.46875C30.2257 4.9 30.5765 5.25 31.0077 5.25C31.439 5.25 31.789 4.9 31.789 4.46875C31.789 4.0375 31.439 3.6875 31.0077 3.6875Z" fill="#555770"/>
<path d="M23.4517 3.6875H23.447C23.0157 3.6875 22.6681 4.0375 22.6681 4.46875C22.6681 4.9 23.0204 5.25 23.4517 5.25C23.8829 5.25 24.2329 4.9 24.2329 4.46875C24.2329 4.0375 23.8829 3.6875 23.4517 3.6875Z" fill="#555770"/>
<path d="M15.5211 3.6875H5.00232C4.57107 3.6875 4.22107 4.0375 4.22107 4.46875C4.22107 4.9 4.57107 5.25 5.00232 5.25H15.5211C15.9523 5.25 16.3023 4.9 16.3023 4.46875C16.3023 4.0375 15.9523 3.6875 15.5211 3.6875Z" fill="#555770"/>
<path d="M39.9922 32.475C39.9352 31.6758 39.5711 30.9485 38.9688 30.4266L36.0094 27.8641V2.32735C36.0102 1.04375 34.9656 0 33.6828 0H2.32734C1.04375 0 0 1.04375 0 2.32735V28.2539C0 29.5367 1.04375 30.5813 2.32734 30.5813H30.007L35.0523 34.9508C35.5992 35.4235 36.2859 35.6782 37.0055 35.6782C37.0781 35.6782 37.1516 35.6758 37.225 35.6703C38.0242 35.6133 38.7516 35.25 39.2719 34.6485C39.793 34.0453 40.0492 33.2742 39.9922 32.475ZM1.5625 2.32735C1.5625 1.90547 1.90547 1.5625 2.32734 1.5625H33.6828C34.1047 1.5625 34.4477 1.90547 34.4477 2.32735V7.37266H1.5625V2.32735ZM2.32734 29.018C1.90547 29.018 1.5625 28.675 1.5625 28.2532V8.93516H34.4477V26.5117L28.7664 21.5922C28.7656 21.493 28.7633 21.3938 28.7555 21.2945C28.7406 21.0852 28.7102 20.8789 28.668 20.6774H31.4797C31.9109 20.6774 32.2609 20.3274 32.2609 19.8961V11.7281C32.2609 11.2969 31.9109 10.9469 31.4797 10.9469H21.5094C21.0781 10.9469 20.7281 11.2969 20.7281 11.7281C20.7281 12.1594 21.0781 12.5094 21.5094 12.5094H30.6977V19.1141H28.0133C27.7875 18.7742 27.5148 18.4625 27.1977 18.1883C27.1906 18.182 27.1836 18.1766 27.1766 18.1711C26.0375 17.2539 25.1609 17.2531 24.3875 17.2524C23.4758 17.2516 22.5328 17.2508 20.5305 15.5914C20.2031 15.3203 19.7188 15.3602 19.4406 15.682C18.6328 16.6164 18.3469 17.8399 18.4195 19.1149H5.31172V12.5102H14.4938C14.925 12.5102 15.275 12.1602 15.275 11.7289C15.275 11.2977 14.925 10.9477 14.4938 10.9477H4.53047C4.09922 10.9477 3.74922 11.2977 3.74922 11.7289V19.8961C3.74922 20.3274 4.09922 20.6774 4.53047 20.6774H18.6742C19.132 22.4203 20.132 24.0797 21.257 25.0531C22.0891 25.7735 23.1297 26.1602 24.2195 26.1602C24.4313 26.161 24.6414 26.1461 24.8508 26.1156L28.2023 29.0188L2.32734 29.018ZM26.4773 23.568C25.9578 24.1696 25.2344 24.5321 24.4414 24.5891C23.6492 24.6461 22.8813 24.3914 22.2805 23.8711C20.732 22.5313 19.4008 19.2844 20.2305 17.3391C22.2336 18.8125 23.4172 18.8133 24.3875 18.8141C25.0695 18.8149 25.4828 18.8149 26.1867 19.3781C26.782 19.8977 27.1406 20.6164 27.1977 21.4055C27.2539 22.1992 26.9984 22.9664 26.4773 23.568ZM26.5508 25.5203C26.9617 25.275 27.3359 24.9633 27.6578 24.5906C27.9812 24.218 28.2359 23.8024 28.4203 23.3594L34.575 28.6891L32.7039 30.8492L26.5508 25.5203ZM38.0898 33.6242C37.8422 33.911 37.4953 34.0836 37.1125 34.111C36.7297 34.1383 36.3609 34.0164 36.0742 33.7688L33.8852 31.8727L35.7562 29.7125L37.9453 31.6086C38.232 31.8571 38.4055 32.2039 38.4328 32.5867C38.4609 32.9688 38.3391 33.3368 38.0898 33.6242Z" fill="#555770"/>
<path d="M10.0093 23.8413H16.8015C17.2327 23.8413 17.5827 23.4913 17.5827 23.0601C17.5827 22.6288 17.2327 22.2788 16.8015 22.2788H10.0093C9.57803 22.2788 9.22803 22.6288 9.22803 23.0601C9.22803 23.4913 9.57803 23.8413 10.0093 23.8413Z" fill="#555770"/>
<path d="M4.53052 23.8413H6.84458C7.27583 23.8413 7.62583 23.4913 7.62583 23.0601C7.62583 22.6288 7.27583 22.2788 6.84458 22.2788H4.53052C4.09927 22.2788 3.74927 22.6288 3.74927 23.0601C3.74927 23.4913 4.09927 23.8413 4.53052 23.8413Z" fill="#555770"/>
<path d="M10.9375 25.4438H4.53125C4.1 25.4438 3.75 25.7938 3.75 26.2251C3.75 26.6563 4.1 27.0063 4.53125 27.0063H10.9375C11.3688 27.0063 11.7188 26.6563 11.7188 26.2251C11.7188 25.7938 11.3688 25.4438 10.9375 25.4438Z" fill="#555770"/>
<path d="M18.3845 25.4438H14.8947C14.4634 25.4438 14.1134 25.7938 14.1134 26.2251C14.1134 26.6563 14.4634 27.0063 14.8947 27.0063H18.3845C18.8157 27.0063 19.1657 26.6563 19.1657 26.2251C19.1657 25.7938 18.8165 25.4438 18.3845 25.4438Z" fill="#555770"/>
<path d="M18.0016 12.5093H18.0063C18.4375 12.5093 18.7852 12.1593 18.7852 11.728C18.7852 11.2968 18.4328 10.9468 18.0016 10.9468C17.5703 10.9468 17.2203 11.2968 17.2203 11.728C17.2203 12.1593 17.5703 12.5093 18.0016 12.5093Z" fill="#555770"/>
</g>
<defs>
<clipPath id="clip0_744:8704">
<rect width="40" height="35.6773" fill="white"/>
</clipPath>
</defs>
</svg>
