<svg width="18" height="16" viewBox="0 0 18 16" fill="none" xmlns="http://www.w3.org/2000/svg">
<path d="M17.5 9H15V12L14 11.3438L13 12V9H10.5C10.2188 9 10 9.25 10 9.5V15.5C10 15.7812 10.2188 16 10.5 16H17.5C17.75 16 18 15.7812 18 15.5V9.5C18 9.25 17.75 9 17.5 9ZM5.5 7H12.5C12.75 7 13 6.78125 13 6.5V0.5C13 0.25 12.75 0 12.5 0H10V3L9 2.34375L8 3V0H5.5C5.21875 0 5 0.25 5 0.5V6.5C5 6.78125 5.21875 7 5.5 7ZM7.5 9H5V12L4 11.3438L3 12V9H0.5C0.21875 9 0 9.25 0 9.5V15.5C0 15.7812 0.21875 16 0.5 16H7.5C7.75 16 8 15.7812 8 15.5V9.5C8 9.25 7.75 9 7.5 9Z" fill="#5B86E5"/>
</svg>
