<svg width="100" height="100" viewBox="0 0 100 100" fill="none" xmlns="http://www.w3.org/2000/svg">
<g opacity="0.25">
<path opacity="0.4" d="M75.6729 67.8939C78.9989 47.1216 64.856 27.5861 44.0837 24.2601C23.3115 20.9341 3.77599 35.0771 0.449988 55.8493C-2.87601 76.6216 11.267 96.1571 32.0392 99.4831C52.8114 102.809 72.3469 88.6661 75.6729 67.8939Z" fill="white"/>
<path opacity="0.4" d="M76.6363 65.7578C79.1797 44.8741 64.3119 25.8826 43.4281 23.3392C22.5444 20.7958 3.55296 35.6636 1.00955 56.5473C-1.53386 77.4311 13.3339 96.4225 34.2176 98.9659C55.1014 101.509 74.0928 86.6416 76.6363 65.7578Z" fill="#FFF8F7"/>
<path opacity="0.4" d="M77.2052 66.3636C80.5249 45.5893 66.3751 26.0572 45.6008 22.7375C24.8265 19.4178 5.29438 33.5676 1.97469 54.3419C-1.34499 75.1163 12.8048 94.6484 33.5791 97.968C54.3535 101.288 73.8856 87.1379 77.2052 66.3636Z" fill="#FFF1EF"/>
<path opacity="0.4" d="M67.2799 86.585C82.1554 71.7096 82.1554 47.5916 67.2799 32.7162C52.4044 17.8407 28.2865 17.8407 13.411 32.7162C-1.46448 47.5916 -1.46448 71.7096 13.411 86.585C28.2865 101.461 52.4044 101.461 67.2799 86.585Z" fill="#FFEAE8"/>
<path opacity="0.4" d="M78.1284 67.8538C83.0617 47.4034 70.4826 26.8259 50.0322 21.8927C29.5818 16.9594 9.00436 29.5385 4.07111 49.9889C-0.86214 70.4393 11.717 91.0168 32.1673 95.95C52.6177 100.883 73.1952 88.3042 78.1284 67.8538Z" fill="#FFE3E0"/>
<path opacity="0.4" d="M78.6078 67.9039C83.9744 47.563 71.8353 26.7228 51.4943 21.3562C31.1534 15.9896 10.3132 28.1287 4.94661 48.4697C-0.420004 68.8107 11.7191 89.6508 32.0601 95.0174C52.4011 100.384 73.2412 88.2449 78.6078 67.9039Z" fill="#FFDCD8"/>
<path opacity="0.4" d="M79.5786 66.3214C84.5119 45.8711 71.9328 25.2936 51.4824 20.3603C31.032 15.4271 10.4546 28.0062 5.52131 48.4566C0.588056 68.9069 13.1672 89.4844 33.6175 94.4177C54.0679 99.3509 74.6454 86.7718 79.5786 66.3214Z" fill="#FFD5D0"/>
<path opacity="0.4" d="M80.3325 65.6036C85.2658 45.1532 72.6867 24.5757 52.2363 19.6425C31.7859 14.7092 11.2085 27.2884 6.27521 47.7387C1.34196 68.1891 13.9211 88.7666 34.3714 93.6998C54.8218 98.6331 75.3993 86.054 80.3325 65.6036Z" fill="#FFCEC9"/>
<path opacity="0.4" d="M81.0874 64.8858C86.0207 44.4355 73.4416 23.858 52.9912 18.9247C32.5408 13.9915 11.9633 26.5706 7.03009 47.021C2.09684 67.4713 14.676 88.0488 35.1263 92.9821C55.5767 97.9153 76.1542 85.3362 81.0874 64.8858Z" fill="#FFC7C1"/>
<path opacity="0.4" d="M81.7642 64.1492C86.6974 43.6988 74.1183 23.1213 53.668 18.1881C33.2176 13.2548 12.6401 25.8339 7.70685 46.2843C2.7736 66.7347 15.3527 87.3122 35.8031 92.2454C56.2535 97.1787 76.8309 84.5996 81.7642 64.1492Z" fill="#FFC0B9"/>
<path opacity="0.4" d="M82.3449 64.146C87.7157 43.805 75.58 22.9614 55.239 17.5906C34.8981 12.2198 14.0545 24.3555 8.68372 44.6965C3.3129 65.0375 15.4486 85.881 35.7896 91.2518C56.1305 96.6226 76.9741 84.4869 82.3449 64.146Z" fill="#FFB9B1"/>
<path opacity="0.4" d="M83.2925 62.6356C88.2258 42.1853 75.6466 21.6078 55.1963 16.6745C34.7459 11.7413 14.1684 24.3204 9.23517 44.7708C4.30192 65.2211 16.881 85.7986 37.3314 90.7319C57.7818 95.6651 78.3593 83.086 83.2925 62.6356Z" fill="#FFB2A9"/>
<path opacity="0.4" d="M84.0464 61.9178C88.9797 41.4674 76.4006 20.89 55.9502 15.9567C35.4998 11.0235 14.9223 23.6026 9.98908 44.0529C5.05583 64.5033 17.6349 85.0808 38.0853 90.014C58.5357 94.9473 79.1132 82.3682 84.0464 61.9178Z" fill="#FFABA2"/>
<path opacity="0.4" d="M84.7232 61.1813C89.6564 40.7309 77.0773 20.1534 56.6269 15.2202C36.1766 10.2869 15.5991 22.866 10.6658 43.3164C5.73259 63.7668 18.3117 84.3443 38.7621 89.2775C59.2124 94.2107 79.7899 81.6316 84.7232 61.1813Z" fill="#FFA49A"/>
<path opacity="0.4" d="M75.3707 78.4488C90.2462 63.5734 90.2462 39.4554 75.3707 24.58C60.4952 9.70448 36.3773 9.70449 21.5018 24.58C6.62634 39.4554 6.62634 63.5734 21.5018 78.4488C36.3773 93.3243 60.4952 93.3243 75.3707 78.4488Z" fill="#FF9D92"/>
<path opacity="0.4" d="M58.0008 87.8253C78.4743 82.9867 91.149 62.4672 86.3104 41.9937C81.4718 21.5202 60.9523 8.84558 40.4788 13.6842C20.0053 18.5227 7.33065 39.0423 12.1692 59.5158C17.0078 79.9893 37.5273 92.6639 58.0008 87.8253Z" fill="#FF968A"/>
<path opacity="0.4" d="M49.9596 88.1315C70.9969 88.1315 88.051 71.0774 88.051 50.0401C88.051 29.0028 70.9969 11.9487 49.9596 11.9487C28.9223 11.9487 11.8682 29.0028 11.8682 50.0401C11.8682 71.0774 28.9223 88.1315 49.9596 88.1315Z" fill="#FF9083"/>
<path opacity="0.4" d="M50.6813 87.3296C71.7186 87.3296 88.7727 70.2755 88.7727 49.2382C88.7727 28.2008 71.7186 11.1467 50.6813 11.1467C29.644 11.1467 12.5898 28.2008 12.5898 49.2382C12.5898 70.2755 29.644 87.3296 50.6813 87.3296Z" fill="#FF897B"/>
<path opacity="0.4" d="M51.4029 86.6079C72.4403 86.6079 89.4944 69.5538 89.4944 48.5164C89.4944 27.4791 72.4403 10.425 51.4029 10.425C30.3656 10.425 13.3115 27.4791 13.3115 48.5164C13.3115 69.5538 30.3656 86.6079 51.4029 86.6079Z" fill="#FF8273"/>
<path opacity="0.4" d="M52.2047 85.8861C73.242 85.8861 90.2961 68.832 90.2961 47.7947C90.2961 26.7574 73.242 9.70328 52.2047 9.70328C31.1674 9.70328 14.1133 26.7574 14.1133 47.7947C14.1133 68.832 31.1674 85.8861 52.2047 85.8861Z" fill="#FF7B6B"/>
<path opacity="0.4" d="M89.5304 57.6405C95.3788 37.432 83.7377 16.3088 63.5292 10.4605C43.3208 4.61208 22.1976 16.2532 16.3492 36.4617C10.5008 56.6701 22.1419 77.7933 42.3504 83.6417C62.5588 89.4901 83.682 77.8489 89.5304 57.6405Z" fill="#FF7464"/>
<path opacity="0.4" d="M90.8061 54.9122C95.5437 34.4155 82.7684 13.9591 62.2718 9.22153C41.7751 4.48392 21.3187 17.2592 16.5811 37.7558C11.8435 58.2525 24.6187 78.7089 45.1154 83.4465C65.612 88.1841 86.0685 75.4088 90.8061 54.9122Z" fill="#FF6D5C"/>
<path opacity="0.4" d="M91.4828 54.1762C96.2204 33.6795 83.4452 13.2231 62.9485 8.48553C42.4519 3.74793 21.9955 16.5232 17.2579 37.0198C12.5203 57.5165 25.2955 77.9729 45.7922 82.7105C66.2888 87.4481 86.7452 74.6728 91.4828 54.1762Z" fill="#FF6654"/>
<path opacity="0.4" d="M92.2563 53.38C96.9939 32.8834 84.2186 12.427 63.722 7.68938C43.2253 2.95178 22.7689 15.727 18.0313 36.2237C13.2937 56.7203 26.0689 77.1767 46.5656 81.9143C67.0622 86.6519 87.5187 73.8767 92.2563 53.38Z" fill="#FF5F4C"/>
<path opacity="0.4" d="M93.0111 52.6621C97.7487 32.1655 84.9735 11.7091 64.4769 6.97146C43.9802 2.23386 23.5238 15.0091 18.7862 35.5058C14.0486 56.0024 26.8238 76.4588 47.3205 81.1964C67.8171 85.934 88.2735 73.1588 93.0111 52.6621Z" fill="#FF5844"/>
<path opacity="0.4" d="M93.2374 53.9641C99.092 33.7578 87.4577 12.6311 67.2514 6.77646C47.045 0.921778 25.9184 12.5561 20.0637 32.7624C14.209 52.9688 25.8434 74.0954 46.0497 79.9501C66.256 85.8048 87.3827 74.1705 93.2374 53.9641Z" fill="#FF513D"/>
<path opacity="0.4" d="M94.9445 48.6363C98.2642 27.862 84.1144 8.32992 63.34 5.01023C42.5657 1.69054 23.0336 15.8403 19.714 36.6147C16.3943 57.389 30.5441 76.9211 51.3184 80.2408C72.0927 83.5605 91.6248 69.4107 94.9445 48.6363Z" fill="#FF4A35"/>
<path opacity="0.4" d="M95.7131 47.8382C99.0327 27.0638 84.8829 7.53177 64.1086 4.21208C43.3343 0.892394 23.8022 15.0422 20.4825 35.8165C17.1628 56.5909 31.3126 76.123 52.087 79.4427C72.8613 82.7623 92.3934 68.6125 95.7131 47.8382Z" fill="#FF432D"/>
<path opacity="0.4" d="M96.4699 47.1192C99.7896 26.3449 85.6398 6.81278 64.8654 3.49309C44.0911 0.173399 24.559 14.3232 21.2393 35.0975C17.9197 55.8719 32.0694 75.404 52.8438 78.7237C73.6181 82.0433 93.1502 67.8935 96.4699 47.1192Z" fill="#FF3C25"/>
<path opacity="0.4" d="M97.2258 46.4002C100.545 25.6259 86.3956 6.09378 65.6213 2.77409C44.847 -0.545595 25.3149 13.6042 21.9952 34.3785C18.6755 55.1529 32.8253 74.685 53.5997 78.0047C74.374 81.3244 93.9061 67.1746 97.2258 46.4002Z" fill="#FF351E"/>
<path opacity="0.4" d="M87.2213 66.5731C102.097 51.6976 102.097 27.5797 87.2213 12.7042C72.3458 -2.17125 48.2279 -2.17125 33.3524 12.7042C18.4769 27.5797 18.4769 51.6976 33.3524 66.5731C48.2279 81.4486 72.3458 81.4486 87.2213 66.5731Z" fill="#FF2E16"/>
<path opacity="0.4" d="M98.0699 47.8738C103.003 27.4234 90.424 6.84592 69.9736 1.91267C49.5233 -3.02058 28.9458 9.55853 24.0125 30.0089C19.0793 50.4593 31.6584 71.0368 52.1087 75.97C72.5591 80.9033 93.1366 68.3241 98.0699 47.8738Z" fill="#F2545D"/>
</g>
<path d="M98.0699 47.8738C103.003 27.4234 90.424 6.84592 69.9736 1.91267C49.5233 -3.02058 28.9458 9.55853 24.0125 30.0089C19.0793 50.4593 31.6584 71.0368 52.1087 75.97C72.5591 80.9033 93.1366 68.3241 98.0699 47.8738Z" fill="white"/>
<path d="M61.0262 77.7867C39.5346 77.7867 22.1328 60.3047 22.1328 38.8933C22.1328 17.482 39.6148 0 61.0262 0C82.5177 0 99.9195 17.482 99.9195 38.8933C99.9997 60.3849 82.5177 77.7867 61.0262 77.7867ZM61.0262 1.60385C40.4969 1.60385 23.7367 18.3641 23.7367 38.8933C23.7367 59.4226 40.4969 76.1828 61.0262 76.1828C81.5554 76.1828 98.3156 59.4226 98.3156 38.8933C98.3156 18.3641 81.6356 1.60385 61.0262 1.60385Z" fill="#F2545D"/>
<path d="M57.1773 81.5557C39.0538 81.5557 23.0955 68.7249 19.3265 51.0024C19.2463 50.6816 19.4868 50.3609 19.8076 50.2807C20.1284 50.2005 20.4491 50.4411 20.5293 50.7618C24.2182 67.923 39.6151 80.433 57.1773 80.433C61.1869 80.433 65.0362 79.7915 68.8052 78.5886C69.126 78.5084 69.4467 78.6688 69.5269 78.9896C69.6071 79.3103 69.4467 79.6311 69.126 79.7113C65.2767 80.9142 61.2671 81.5557 57.1773 81.5557ZM82.6785 71.6921C82.5181 71.6921 82.3577 71.6119 82.1973 71.5317C81.9568 71.2911 81.9568 70.8901 82.2775 70.6496C90.1364 63.5124 94.7074 53.4082 94.7074 42.8228V42.6624C94.7074 42.3416 94.9479 42.0209 95.3489 42.0209C95.7499 42.0209 95.9904 42.2614 95.9904 42.6624V42.8228C95.9904 53.729 91.3393 64.2342 83.1596 71.6119C82.9191 71.6921 82.8389 71.6921 82.6785 71.6921ZM19.0859 43.4643C18.7651 43.4643 18.4443 43.2237 18.4443 42.903V42.8228C18.4443 31.9166 23.0955 21.4916 31.1949 14.1139C31.4355 13.8733 31.8365 13.8733 32.0771 14.1941C32.3176 14.4346 32.3176 14.8356 31.9969 15.0762C24.138 22.2133 19.6472 32.3176 19.6472 42.903C19.6472 43.1435 19.4066 43.4643 19.0859 43.4643ZM94.3866 35.3649C94.146 35.3649 93.8252 35.2045 93.8252 34.8837C90.1364 17.7225 74.7394 5.2927 57.1773 5.2927C53.1677 5.2927 49.2382 5.93424 45.4692 7.13713C45.1484 7.21732 44.8277 7.05693 44.7475 6.73616C44.6673 6.41539 44.8277 6.09462 45.1484 6.01443C48.9977 4.73135 53.0875 4.08981 57.2575 4.08981C75.381 4.08981 91.2591 16.9206 95.1083 34.563C95.1885 34.8837 94.9479 35.2045 94.6272 35.2847C94.4668 35.3649 94.4668 35.3649 94.3866 35.3649Z" fill="black"/>
<path d="M80.7531 27.9872L73.4556 20.7698L60.7852 33.4402L48.1148 20.7698L40.8975 27.9872L53.5679 40.6576L40.8975 53.328L48.1148 60.6255L60.7852 47.8749L73.4556 60.6255L80.7531 53.328L68.0025 40.6576L80.7531 27.9872Z" fill="#F2545D"/>
</svg>
