<svg width="100" height="100" viewBox="0 0 100 100" fill="none" xmlns="http://www.w3.org/2000/svg">
<g opacity="0.3">
<path opacity="0.4" d="M69.9258 82.7287C81.4522 65.131 76.5304 41.5213 58.9327 29.995C41.335 18.4686 17.7252 23.3904 6.1989 40.9881C-5.32744 58.5859 -0.405624 82.1956 17.1921 93.7219C34.7898 105.248 58.3995 100.326 69.9258 82.7287Z" fill="white"/>
<path opacity="0.4" d="M65.7423 88.0695C80.6178 73.194 80.6178 49.0761 65.7423 34.2006C50.8668 19.3251 26.7489 19.3251 11.8734 34.2006C-3.00208 49.0761 -3.00208 73.194 11.8734 88.0695C26.7489 102.945 50.8668 102.945 65.7423 88.0695Z" fill="#FAFDF7"/>
<path opacity="0.4" d="M66.5396 87.2989C81.4151 72.4234 81.4151 48.3055 66.5396 33.43C51.6642 18.5545 27.5462 18.5545 12.6708 33.43C-2.20471 48.3055 -2.20471 72.4234 12.6708 87.2989C27.5462 102.174 51.6642 102.174 66.5396 87.2989Z" fill="#F5FCEF"/>
<path opacity="0.4" d="M67.2804 86.5849C82.1559 71.7095 82.1559 47.5916 67.2804 32.7161C52.4049 17.8406 28.287 17.8406 13.4115 32.7161C-1.46399 47.5916 -1.46399 71.7095 13.4115 86.5849C28.287 101.46 52.4049 101.46 67.2804 86.5849Z" fill="#EFFAE7"/>
<path opacity="0.4" d="M78.1284 67.8537C83.0617 47.4033 70.4826 26.8259 50.0322 21.8926C29.5818 16.9594 9.00436 29.5385 4.07111 49.9888C-0.86214 70.4392 11.717 91.0167 32.1673 95.95C52.6177 100.883 73.1952 88.3041 78.1284 67.8537Z" fill="#EAF8DF"/>
<path opacity="0.4" d="M78.6078 67.9039C83.9744 47.5629 71.8353 26.7228 51.4943 21.3562C31.1534 15.9895 10.3132 28.1287 4.94661 48.4696C-0.420004 68.8106 11.7191 89.6507 32.0601 95.0174C52.4011 100.384 73.2412 88.2449 78.6078 67.9039Z" fill="#E5F6D7"/>
<path opacity="0.4" d="M79.5787 66.3214C84.5119 45.871 71.9328 25.2935 51.4824 20.3603C31.032 15.427 10.4546 28.0061 5.52131 48.4565C0.588056 68.9069 13.1672 89.4844 33.6175 94.4176C54.0679 99.3509 74.6454 86.7717 79.5787 66.3214Z" fill="#E0F5D0"/>
<path opacity="0.4" d="M80.333 65.6035C85.2663 45.1532 72.6872 24.5757 52.2368 19.6424C31.7864 14.7092 11.209 27.2883 6.2757 47.7387C1.34245 68.189 13.9216 88.7665 34.3719 93.6998C54.8223 98.633 75.3998 86.0539 80.333 65.6035Z" fill="#DAF3C8"/>
<path opacity="0.4" d="M70.9835 82.9022C85.859 68.0267 85.859 43.9088 70.9835 29.0333C56.108 14.1579 31.9901 14.1579 17.1146 29.0333C2.23913 43.9088 2.23914 68.0267 17.1146 82.9022C31.9901 97.7777 56.108 97.7777 70.9835 82.9022Z" fill="#D5F1C0"/>
<path opacity="0.4" d="M71.6676 82.1316C86.5431 67.2561 86.5431 43.1382 71.6676 28.2627C56.7921 13.3872 32.6742 13.3872 17.7987 28.2627C2.92322 43.1382 2.92322 67.2561 17.7987 82.1316C32.6742 97.0071 56.7921 97.0071 71.6676 82.1316Z" fill="#D0EFB8"/>
<path opacity="0.4" d="M64.2904 87.5869C82.6013 77.2303 89.0495 53.9906 78.6928 35.6798C68.3361 17.3689 45.0965 10.9207 26.7856 21.2774C8.47475 31.6341 2.0266 54.8737 12.3833 73.1846C22.7399 91.4955 45.9796 97.9436 64.2904 87.5869Z" fill="#CBEEB0"/>
<path opacity="0.4" d="M73.2057 80.6472C88.0811 65.7717 88.0811 41.6537 73.2057 26.7783C58.3302 11.9028 34.2123 11.9028 19.3368 26.7783C4.4613 41.6537 4.4613 65.7717 19.3368 80.6472C34.2123 95.5226 58.3302 95.5226 73.2057 80.6472Z" fill="#C6ECA8"/>
<path opacity="0.4" d="M73.9464 79.9333C88.8219 65.0578 88.8219 40.9399 73.9464 26.0644C59.0709 11.1889 34.953 11.1889 20.0775 26.0644C5.20203 40.9399 5.20203 65.0578 20.0775 79.9333C34.953 94.8088 59.0709 94.8088 73.9464 79.9333Z" fill="#C0EAA0"/>
<path opacity="0.4" d="M74.6305 79.1627C89.506 64.2872 89.506 40.1692 74.6305 25.2938C59.755 10.4183 35.6371 10.4183 20.7616 25.2938C5.88611 40.1693 5.88611 64.2872 20.7616 79.1627C35.6371 94.0381 59.755 94.0381 74.6305 79.1627Z" fill="#BBE898"/>
<path opacity="0.4" d="M75.3707 78.4488C90.2462 63.5733 90.2462 39.4554 75.3707 24.5799C60.4952 9.70441 36.3773 9.70442 21.5018 24.5799C6.62634 39.4554 6.62634 63.5733 21.5018 78.4488C36.3773 93.3243 60.4952 93.3243 75.3707 78.4488Z" fill="#B6E790"/>
<path opacity="0.4" d="M58.0013 87.8253C78.4748 82.9867 91.1494 62.4672 86.3109 41.9937C81.4723 21.5202 60.9528 8.84559 40.4793 13.6842C20.0058 18.5227 7.33114 39.0422 12.1697 59.5158C17.0083 79.9893 37.5278 92.6639 58.0013 87.8253Z" fill="#B1E588"/>
<path opacity="0.4" d="M49.9601 88.1315C70.9974 88.1315 88.0515 71.0774 88.0515 50.0401C88.0515 29.0028 70.9974 11.9487 49.9601 11.9487C28.9228 11.9487 11.8687 29.0028 11.8687 50.0401C11.8687 71.0774 28.9228 88.1315 49.9601 88.1315Z" fill="#ABE381"/>
<path opacity="0.4" d="M50.6817 87.3296C71.7191 87.3296 88.7732 70.2755 88.7732 49.2382C88.7732 28.2009 71.7191 11.1468 50.6817 11.1468C29.6444 11.1468 12.5903 28.2009 12.5903 49.2382C12.5903 70.2755 29.6444 87.3296 50.6817 87.3296Z" fill="#A6E179"/>
<path opacity="0.4" d="M51.4034 86.6079C72.4407 86.6079 89.4949 69.5538 89.4949 48.5164C89.4949 27.4791 72.4407 10.425 51.4034 10.425C30.3661 10.425 13.312 27.4791 13.312 48.5164C13.312 69.5538 30.3661 86.6079 51.4034 86.6079Z" fill="#A1E071"/>
<path opacity="0.4" d="M52.2052 85.8861C73.2425 85.8861 90.2966 68.832 90.2966 47.7947C90.2966 26.7574 73.2425 9.70331 52.2052 9.70331C31.1679 9.70331 14.1138 26.7574 14.1138 47.7947C14.1138 68.832 31.1679 85.8861 52.2052 85.8861Z" fill="#9CDE69"/>
<path opacity="0.4" d="M90.3044 54.4346C94.3835 33.797 80.9603 13.7601 60.3226 9.68101C39.685 5.60188 19.6482 19.0252 15.569 39.6628C11.4899 60.3004 24.9132 80.3372 45.5508 84.4164C66.1884 88.4955 86.2253 75.0722 90.3044 54.4346Z" fill="#96DC61"/>
<path opacity="0.4" d="M91.3087 52.3356C94.6284 31.5613 80.4786 12.0292 59.7043 8.7095C38.93 5.38981 19.3979 19.5396 16.0782 40.314C12.7585 61.0883 26.9083 80.6204 47.6827 83.9401C68.457 87.2597 87.9891 73.11 91.3087 52.3356Z" fill="#91DA59"/>
<path opacity="0.4" d="M91.986 51.604C95.3057 30.8296 81.1559 11.2976 60.3816 7.97787C39.6072 4.65819 20.0751 18.808 16.7555 39.5823C13.4358 60.3567 27.5856 79.8887 48.3599 83.2084C69.1343 86.5281 88.6663 72.3783 91.986 51.604Z" fill="#8CD951"/>
<path opacity="0.4" d="M92.7551 50.8058C96.0748 30.0314 81.925 10.4994 61.1506 7.17969C40.3763 3.86 20.8442 18.0098 17.5245 38.7841C14.2048 59.5585 28.3546 79.0906 49.129 82.4102C69.9033 85.7299 89.4354 71.5801 92.7551 50.8058Z" fill="#87D749"/>
<path opacity="0.4" d="M82.8341 71.0265C97.7095 56.151 97.7095 32.0331 82.8341 17.1576C67.9586 2.28209 43.8407 2.28209 28.9652 17.1576C14.0897 32.0331 14.0897 56.151 28.9652 71.0264C43.8407 85.9019 67.9586 85.9019 82.8341 71.0265Z" fill="#82D541"/>
<path opacity="0.4" d="M83.5748 70.3126C98.4503 55.4371 98.4503 31.3192 83.5748 16.4437C68.6993 1.56823 44.5814 1.56823 29.7059 16.4437C14.8304 31.3192 14.8304 55.4371 29.7059 70.3126C44.5814 85.1881 68.6993 85.1881 83.5748 70.3126Z" fill="#7CD339"/>
<path opacity="0.4" d="M84.2589 69.542C99.1344 54.6665 99.1344 30.5486 84.2589 15.6731C69.3834 0.797595 45.2655 0.797595 30.39 15.6731C15.5145 30.5486 15.5145 54.6665 30.39 69.542C45.2655 84.4174 69.3834 84.4174 84.2589 69.542Z" fill="#77D232"/>
<path opacity="0.4" d="M85.0563 68.7714C99.9317 53.8959 99.9317 29.778 85.0563 14.9025C70.1808 0.0270511 46.0629 0.0270538 31.1874 14.9025C16.3119 29.778 16.3119 53.8959 31.1874 68.7714C46.0629 83.6469 70.1808 83.6469 85.0563 68.7714Z" fill="#72D02A"/>
<path opacity="0.4" d="M85.797 68.0576C100.672 53.1821 100.672 29.0641 85.797 14.1887C70.9215 -0.686821 46.8036 -0.686821 31.9281 14.1887C17.0526 29.0641 17.0526 53.1821 31.9281 68.0576C46.8036 82.933 70.9215 82.933 85.797 68.0576Z" fill="#6DCE22"/>
<path opacity="0.4" d="M86.5377 67.3436C101.413 52.4681 101.413 28.3502 86.5377 13.4747C71.6622 -1.40077 47.5443 -1.40077 32.6688 13.4747C17.7933 28.3502 17.7933 52.4681 32.6688 67.3436C47.5443 82.2191 71.6622 82.2191 86.5377 67.3436Z" fill="#67CC1A"/>
<path opacity="0.4" d="M87.2213 66.573C102.097 51.6975 102.097 27.5796 87.2213 12.7041C72.3458 -2.17134 48.2279 -2.17134 33.3524 12.7041C18.4769 27.5796 18.4769 51.6975 33.3524 66.573C48.2279 81.4485 72.3458 81.4485 87.2213 66.573Z" fill="#62CB12"/>
<path opacity="0.4" d="M98.0704 47.8737C103.004 27.4233 90.4245 6.84581 69.9741 1.91256C49.5237 -3.02069 28.9463 9.55842 24.013 30.0088C19.0798 50.4592 31.6589 71.0367 52.1092 75.9699C72.5596 80.9032 93.1371 68.3241 98.0704 47.8737Z" fill="#35B26F"/>
</g>
<path d="M98.0703 47.8737C103.004 27.4233 90.4245 6.84585 69.9741 1.9126C49.5237 -3.02064 28.9463 9.55847 24.013 30.0088C19.0798 50.4592 31.6589 71.0367 52.1092 75.9699C72.5596 80.9032 93.1371 68.3241 98.0703 47.8737Z" fill="white"/>
<path d="M61.0266 77.7867C39.5351 77.7867 22.1333 60.3048 22.1333 38.8934C22.1333 17.482 39.6153 3.05176e-05 61.0266 3.05176e-05C82.5182 3.05176e-05 99.92 17.482 99.92 38.8934C100 60.385 82.5182 77.7867 61.0266 77.7867ZM61.0266 1.60388C40.4974 1.60388 23.7371 18.3641 23.7371 38.8934C23.7371 59.4226 40.4974 76.1829 61.0266 76.1829C81.5559 76.1829 98.3161 59.4226 98.3161 38.8934C98.3161 18.3641 81.6361 1.60388 61.0266 1.60388Z" fill="#35B26F"/>
<path d="M57.1773 81.5557C39.0538 81.5557 23.0955 68.7249 19.3265 51.0024C19.2463 50.6816 19.4868 50.3609 19.8076 50.2807C20.1284 50.2005 20.4491 50.4411 20.5293 50.7618C24.2182 67.923 39.6151 80.433 57.1773 80.433C61.1869 80.433 65.0362 79.7915 68.8052 78.5886C69.126 78.5084 69.4467 78.6688 69.5269 78.9896C69.6071 79.3103 69.4467 79.6311 69.126 79.7113C65.2767 80.9142 61.2671 81.5557 57.1773 81.5557ZM82.6785 71.6921C82.5181 71.6921 82.3577 71.6119 82.1973 71.5317C81.9568 71.2911 81.9568 70.8901 82.2775 70.6496C90.1364 63.5124 94.7074 53.4082 94.7074 42.8228V42.6624C94.7074 42.3416 94.948 42.0209 95.2687 42.0209C95.5895 42.0209 95.8301 42.2614 95.9103 42.5822V42.7426C95.9103 53.6488 91.2591 64.154 83.1597 71.5317C82.9191 71.6921 82.8389 71.6921 82.6785 71.6921ZM19.0859 43.4643C18.7651 43.4643 18.4443 43.2237 18.4443 42.903V42.8228C18.4443 31.9166 23.0955 21.4916 31.1949 14.1139C31.4355 13.8733 31.8365 13.8733 32.0771 14.1941C32.3176 14.4346 32.3176 14.8356 31.9969 15.0762C24.138 22.2133 19.6472 32.3176 19.6472 42.903C19.6472 43.1435 19.4066 43.4643 19.0859 43.4643ZM94.3866 35.3649C94.146 35.3649 93.8253 35.2045 93.8253 34.8837C90.1364 17.7225 74.7394 5.2927 57.1773 5.2927C53.1677 5.2927 49.2382 5.93424 45.4692 7.13713C45.1484 7.21732 44.8277 7.05693 44.7475 6.73616C44.6673 6.41539 44.8277 6.09462 45.1484 6.01443C48.9977 4.73135 53.0875 4.08981 57.2575 4.08981C75.381 4.08981 91.2591 16.9206 95.1083 34.563C95.1885 34.8837 94.9479 35.2045 94.6272 35.2847C94.4668 35.3649 94.4668 35.3649 94.3866 35.3649Z" fill="black"/>
<path d="M79.3907 20.2085L53.0875 46.4314L42.7427 36.0064L35.5254 43.3039L53.0875 60.8661L86.608 27.4258L79.3907 20.2085Z" fill="#35B26F"/>
</svg>
