<svg width="70" height="36" viewBox="0 0 70 36" fill="none" xmlns="http://www.w3.org/2000/svg">
<path d="M0 3.81818C0 1.70946 1.36095 0 3.03977 0H55.4745C56.6128 0 57.6557 0.798787 58.1769 2.06985L69.6585 30.0698C70.7006 32.611 69.2318 35.6364 66.9562 35.6364H3.03977C1.36095 35.6364 0 33.9269 0 31.8182V3.81818Z" fill="#ED1C24"/>
<path d="M19.7108 5.87695H20.6997C21.2521 5.87695 21.5283 6.13829 21.5283 6.66095V10.67C21.5283 11.1927 21.2521 11.454 20.6997 11.454H19.7108C19.1525 11.454 18.8734 11.1927 18.8734 10.67V6.66095C18.8734 6.13829 19.1525 5.87695 19.7108 5.87695ZM20.7264 10.5453V6.78568C20.7264 6.67877 20.7086 6.61047 20.673 6.58077C20.6374 6.54514 20.5661 6.52732 20.4592 6.52732H19.9424C19.8355 6.52732 19.7643 6.54514 19.7286 6.58077C19.6989 6.61047 19.6841 6.67877 19.6841 6.78568V10.5453C19.6841 10.6522 19.6989 10.7235 19.7286 10.7591C19.7643 10.7888 19.8355 10.8037 19.9424 10.8037H20.4592C20.5661 10.8037 20.6374 10.7888 20.673 10.7591C20.7086 10.7235 20.7264 10.6522 20.7264 10.5453Z" fill="white"/>
<path d="M24.4021 5.87695H25.1416V11.454H24.3309L23.1549 7.42714V11.454H22.4154V5.87695H23.2618L24.4021 9.78804V5.87695Z" fill="white"/>
<path d="M26.8713 10.8037H28.2523V11.454H26.0695V5.87695H26.8713V10.8037Z" fill="white"/>
<path d="M30.3261 11.454H29.5154V9.69004L28.3216 5.87695H29.1412L29.9163 8.95059L30.6469 5.87695H31.4665L30.3261 9.69004V11.454Z" fill="white"/>
<path d="M34.4231 5.87695V11.454H33.6123V6.52732H32.9709V5.87695H34.4231Z" fill="white"/>
<path d="M36.6582 5.87695H38.6004C39.1527 5.87695 39.4289 6.13829 39.4289 6.66095V10.67C39.4289 11.1927 39.1527 11.454 38.6004 11.454H36.6582V5.87695ZM38.6182 10.5631V6.76786C38.6182 6.66095 38.6004 6.59265 38.5647 6.56295C38.5291 6.52732 38.4578 6.5095 38.3509 6.5095H37.4689V10.8215H38.3509C38.4578 10.8215 38.5291 10.8067 38.5647 10.777C38.6004 10.7413 38.6182 10.67 38.6182 10.5631Z" fill="white"/>
<path d="M42.361 11.454L42.1383 10.1622H40.9623L40.7574 11.454H39.9555L40.9444 5.87695H42.1115L43.1717 11.454H42.361ZM41.0603 9.51186H42.0313L41.5235 6.57186L41.0603 9.51186Z" fill="white"/>
<path d="M45.3167 11.454H44.506V9.69004L43.3122 5.87695H44.1318L44.9069 8.95059L45.6374 5.87695H46.4571L45.3167 9.69004V11.454Z" fill="white"/>
<path d="M10.1564 27.9621V25.0412C10.1564 24.8121 10.1182 24.6658 10.0419 24.6021C9.97821 24.5258 9.83185 24.4876 9.60276 24.4876H8.19003C7.03185 24.4876 6.45276 23.9212 6.45276 22.7885V19.6385C6.45276 18.5185 7.04458 17.9585 8.22821 17.9585H10.0991C11.2828 17.9585 11.8746 18.5185 11.8746 19.6385V21.3949H10.1373V19.9058C10.1373 19.6767 10.0991 19.5303 10.0228 19.4667C9.9464 19.3903 9.79367 19.3521 9.56458 19.3521H8.76276C8.53367 19.3521 8.38094 19.3903 8.30458 19.4667C8.22821 19.5303 8.19003 19.6767 8.19003 19.9058V22.5594C8.19003 22.7885 8.22821 22.9412 8.30458 23.0176C8.38094 23.0812 8.53367 23.113 8.76276 23.113H10.1564C11.3273 23.113 11.9128 23.673 11.9128 24.793V28.2294C11.9128 29.3494 11.3146 29.9094 10.1182 29.9094H8.2664C7.08276 29.9094 6.49094 29.3494 6.49094 28.2294V26.473H8.22821V27.9621C8.22821 28.1912 8.2664 28.344 8.34276 28.4203C8.41912 28.484 8.57185 28.5158 8.80094 28.5158H9.60276C9.83185 28.5158 9.97821 28.484 10.0419 28.4203C10.1182 28.344 10.1564 28.1912 10.1564 27.9621Z" fill="white"/>
<path d="M18.009 29.9094L17.5318 27.1412H15.0118L14.5727 29.9094H12.8545L14.9736 17.9585H17.4745L19.7463 29.9094H18.009ZM15.2218 25.7476H17.3027L16.2145 19.4476L15.2218 25.7476Z" fill="white"/>
<path d="M22.6818 28.5158H25.6409V29.9094H20.9636V17.9585H22.6818V28.5158Z" fill="white"/>
<path d="M28.4431 28.5158H31.8986V29.9094H26.7058V17.9585H31.7649V19.3521H28.4431V23.0367H31.1922V24.4303H28.4431V28.5158Z" fill="white"/>
<path d="M37.5362 22.4449H39.388C40.5844 22.4449 41.1826 23.0049 41.1826 24.1249V28.2294C41.1826 29.3494 40.5844 29.9094 39.388 29.9094H37.5553C36.3716 29.9094 35.7798 29.3494 35.7798 28.2294V26.1103H37.5171V27.9621C37.5171 28.1912 37.5553 28.344 37.6316 28.4203C37.708 28.484 37.8607 28.5158 38.0898 28.5158H38.8726C39.1016 28.5158 39.2544 28.484 39.3307 28.4203C39.4071 28.344 39.4453 28.1912 39.4453 27.9621V24.3921C39.4453 24.163 39.4071 24.0103 39.3307 23.934C39.2544 23.8576 39.1016 23.8194 38.8726 23.8194H35.818V17.9585H41.1444V19.3521H37.5362V22.4449Z" fill="white"/>
<path d="M46.6693 27.9621V19.9058C46.6693 19.6767 46.6311 19.5303 46.5547 19.4667C46.4783 19.3903 46.3256 19.3521 46.0965 19.3521H45.0656C44.8365 19.3521 44.6838 19.3903 44.6074 19.4667C44.5438 19.5303 44.512 19.6767 44.512 19.9058V27.9621C44.512 28.1912 44.5438 28.344 44.6074 28.4203C44.6838 28.484 44.8365 28.5158 45.0656 28.5158H46.0965C46.3256 28.5158 46.4783 28.484 46.5547 28.4203C46.6311 28.344 46.6693 28.1912 46.6693 27.9621ZM48.4065 19.6385V28.2294C48.4065 29.3494 47.8147 29.9094 46.6311 29.9094H44.5502C43.3538 29.9094 42.7556 29.3494 42.7556 28.2294V19.6385C42.7556 18.5185 43.3538 17.9585 44.5502 17.9585H46.6311C47.8147 17.9585 48.4065 18.5185 48.4065 19.6385Z" fill="white"/>
<path d="M57.4871 17.9585H58.9189L53.3444 29.9094H51.9316L57.4871 17.9585ZM59.568 28.2294V25.1367C59.568 24.9203 59.5362 24.7803 59.4725 24.7167C59.4216 24.653 59.288 24.6212 59.0716 24.6212H58.6707C58.4544 24.6212 58.3144 24.653 58.2507 24.7167C58.1871 24.7803 58.1553 24.9203 58.1553 25.1367V28.2294C58.1553 28.4458 58.1871 28.5858 58.2507 28.6494C58.3144 28.713 58.4544 28.7449 58.6707 28.7449H59.0716C59.288 28.7449 59.4216 28.713 59.4725 28.6494C59.5362 28.5858 59.568 28.4458 59.568 28.2294ZM52.6762 22.7121V19.6385C52.6762 19.4221 52.6444 19.2821 52.5807 19.2185C52.5171 19.1549 52.3834 19.123 52.1798 19.123H51.7598C51.5435 19.123 51.4035 19.1549 51.3398 19.2185C51.2889 19.2821 51.2635 19.4221 51.2635 19.6385V22.7121C51.2635 22.9412 51.2889 23.0876 51.3398 23.1512C51.4035 23.2149 51.5435 23.2467 51.7598 23.2467H52.1798C52.3834 23.2467 52.5171 23.2149 52.5807 23.1512C52.6444 23.0749 52.6762 22.9285 52.6762 22.7121ZM60.9807 24.9267V28.4394C60.9807 29.4194 60.4907 29.9094 59.5107 29.9094H58.2316C57.2389 29.9094 56.7425 29.4194 56.7425 28.4394V24.9267C56.7425 23.9467 57.2389 23.4567 58.2316 23.4567H59.5107C60.4907 23.4567 60.9807 23.9467 60.9807 24.9267ZM54.0889 19.4285V22.9412C54.0889 23.9212 53.5925 24.4112 52.5998 24.4112H51.3398C50.3471 24.4112 49.8507 23.9212 49.8507 22.9412V19.4285C49.8507 18.9321 49.9653 18.563 50.1944 18.3212C50.4362 18.0794 50.818 17.9585 51.3398 17.9585H52.5998C53.1216 17.9585 53.4971 18.0794 53.7262 18.3212C53.968 18.563 54.0889 18.9321 54.0889 19.4285Z" fill="white"/>
</svg>
