<svg width="70" height="70" viewBox="0 0 70 70" fill="none" xmlns="http://www.w3.org/2000/svg">
<circle cx="35" cy="35" r="35" fill="#ED1C24"/>
<path d="M9.4713 19.3921H11.4491C12.5538 19.3921 13.1062 19.9148 13.1062 20.9601V28.9783C13.1062 30.0236 12.5538 30.5463 11.4491 30.5463H9.4713C8.35469 30.5463 7.79639 30.0236 7.79639 28.9783V20.9601C7.79639 19.9148 8.35469 19.3921 9.4713 19.3921ZM11.5026 28.7288V21.2095C11.5026 20.9957 11.4669 20.8591 11.3957 20.7997C11.3244 20.7285 11.1818 20.6928 10.968 20.6928H9.93457C9.72075 20.6928 9.5782 20.7285 9.50693 20.7997C9.44754 20.8591 9.41784 20.9957 9.41784 21.2095V28.7288C9.41784 28.9426 9.44754 29.0852 9.50693 29.1565C9.5782 29.2158 9.72075 29.2455 9.93457 29.2455H10.968C11.1818 29.2455 11.3244 29.2158 11.3957 29.1565C11.4669 29.0852 11.5026 28.9426 11.5026 28.7288Z" fill="white"/>
<path d="M18.854 19.3921H20.3329V30.5463H18.7114L16.3594 22.4925V30.5463H14.8805V19.3921H16.5732L18.854 27.2143V19.3921Z" fill="white"/>
<path d="M23.7924 29.2455H26.5542V30.5463H22.1887V19.3921H23.7924V29.2455Z" fill="white"/>
<path d="M30.7019 30.5463H29.0805V27.0183L26.6928 19.3921H28.3321L29.8823 25.5394L31.3434 19.3921H32.9827L30.7019 27.0183V30.5463Z" fill="white"/>
<path d="M38.8958 19.3921V30.5463H37.2743V20.6928H35.9914V19.3921H38.8958Z" fill="white"/>
<path d="M43.3661 19.3921H47.2504C48.3552 19.3921 48.9075 19.9148 48.9075 20.9601V28.9783C48.9075 30.0236 48.3552 30.5463 47.2504 30.5463H43.3661V19.3921ZM47.2861 28.7645V21.1739C47.2861 20.9601 47.2504 20.8235 47.1792 20.7641C47.1079 20.6928 46.9653 20.6572 46.7515 20.6572H44.9875V29.2812H46.7515C46.9653 29.2812 47.1079 29.2515 47.1792 29.1921C47.2504 29.1208 47.2861 28.9783 47.2861 28.7645Z" fill="white"/>
<path d="M54.7717 30.5463L54.3262 27.9626H51.9742L51.5644 30.5463H49.9607L51.9386 19.3921H54.2727L56.3931 30.5463H54.7717ZM52.1702 26.6619H54.1124L53.0967 20.7819L52.1702 26.6619Z" fill="white"/>
<path d="M60.6831 30.5463H59.0617V27.0183L56.674 19.3921H58.3133L59.8635 25.5394L61.3246 19.3921H62.9638L60.6831 27.0183V30.5463Z" fill="white"/>
<path d="M13.8879 49.738V48.0453H19.1596V49.738H13.8879Z" fill="white"/>
<path d="M27.0419 46.546H29.3875C30.9029 46.546 31.6606 47.2553 31.6606 48.674V53.8731C31.6606 55.2918 30.9029 56.0011 29.3875 56.0011H27.0661C25.5668 56.0011 24.8172 55.2918 24.8172 53.8731V51.1889H27.0177V53.5346C27.0177 53.8247 27.0661 54.0182 27.1628 54.1149C27.2595 54.1955 27.453 54.2358 27.7432 54.2358H28.7346C29.0248 54.2358 29.2183 54.1955 29.315 54.1149C29.4117 54.0182 29.4601 53.8247 29.4601 53.5346V49.0126C29.4601 48.7224 29.4117 48.5289 29.315 48.4322C29.2183 48.3355 29.0248 48.2871 28.7346 48.2871H24.8655V40.8633H31.6123V42.6286H27.0419V46.546Z" fill="white"/>
<path d="M38.6104 53.5346V43.3298C38.6104 43.0396 38.5621 42.8543 38.4654 42.7736C38.3686 42.6769 38.1752 42.6286 37.885 42.6286H36.5792C36.289 42.6286 36.0955 42.6769 35.9988 42.7736C35.9182 42.8543 35.8779 43.0396 35.8779 43.3298V53.5346C35.8779 53.8247 35.9182 54.0182 35.9988 54.1149C36.0955 54.1955 36.289 54.2358 36.5792 54.2358H37.885C38.1752 54.2358 38.3686 54.1955 38.4654 54.1149C38.5621 54.0182 38.6104 53.8247 38.6104 53.5346ZM40.811 42.9913V53.8731C40.811 55.2918 40.0614 56.0011 38.5621 56.0011H35.9263C34.4109 56.0011 33.6532 55.2918 33.6532 53.8731V42.9913C33.6532 41.5726 34.4109 40.8633 35.9263 40.8633H38.5621C40.0614 40.8633 40.811 41.5726 40.811 42.9913Z" fill="white"/>
<path d="M52.313 40.8633H54.1267L47.0656 56.0011H45.2761L52.313 40.8633ZM54.9489 53.8731V49.9556C54.9489 49.6816 54.9086 49.5043 54.8279 49.4236C54.7635 49.343 54.5942 49.3027 54.3201 49.3027H53.8123C53.5383 49.3027 53.3609 49.343 53.2803 49.4236C53.1997 49.5043 53.1594 49.6816 53.1594 49.9556V53.8731C53.1594 54.1472 53.1997 54.3245 53.2803 54.4051C53.3609 54.4857 53.5383 54.526 53.8123 54.526H54.3201C54.5942 54.526 54.7635 54.4857 54.8279 54.4051C54.9086 54.3245 54.9489 54.1472 54.9489 53.8731ZM46.2192 46.8846V42.9913C46.2192 42.7172 46.1789 42.5399 46.0983 42.4593C46.0177 42.3787 45.8484 42.3384 45.5905 42.3384H45.0585C44.7844 42.3384 44.6071 42.3787 44.5265 42.4593C44.462 42.5399 44.4298 42.7172 44.4298 42.9913V46.8846C44.4298 47.1747 44.462 47.3601 44.5265 47.4407C44.6071 47.5213 44.7844 47.5616 45.0585 47.5616H45.5905C45.8484 47.5616 46.0177 47.5213 46.0983 47.4407C46.1789 47.344 46.2192 47.1586 46.2192 46.8846ZM56.7383 49.6896V54.1391C56.7383 55.3804 56.1176 56.0011 54.8763 56.0011H53.2561C51.9987 56.0011 51.3699 55.3804 51.3699 54.1391V49.6896C51.3699 48.4483 51.9987 47.8276 53.2561 47.8276H54.8763C56.1176 47.8276 56.7383 48.4483 56.7383 49.6896ZM48.0087 42.7253V47.1747C48.0087 48.4161 47.3799 49.0367 46.1225 49.0367H44.5265C43.269 49.0367 42.6403 48.4161 42.6403 47.1747V42.7253C42.6403 42.0966 42.7854 41.629 43.0756 41.3227C43.3819 41.0164 43.8655 40.8633 44.5265 40.8633H46.1225C46.7835 40.8633 47.259 41.0164 47.5492 41.3227C47.8555 41.629 48.0087 42.0966 48.0087 42.7253Z" fill="white"/>
</svg>
