<svg width="70" height="70" viewBox="0 0 70 70" fill="none" xmlns="http://www.w3.org/2000/svg">
<path d="M0 70V0H70L0 70Z" fill="#ED1C24"/>
<path d="M9.712 15.368V12.92C9.712 12.728 9.68 12.6053 9.616 12.552C9.56267 12.488 9.44 12.456 9.248 12.456H8.064C7.09333 12.456 6.608 11.9813 6.608 11.032V8.392C6.608 7.45333 7.104 6.984 8.096 6.984H9.664C10.656 6.984 11.152 7.45333 11.152 8.392V9.864H9.696V8.616C9.696 8.424 9.664 8.30133 9.6 8.248C9.536 8.184 9.408 8.152 9.216 8.152H8.544C8.352 8.152 8.224 8.184 8.16 8.248C8.096 8.30133 8.064 8.424 8.064 8.616V10.84C8.064 11.032 8.096 11.16 8.16 11.224C8.224 11.2773 8.352 11.304 8.544 11.304H9.712C10.6933 11.304 11.184 11.7733 11.184 12.712V15.592C11.184 16.5307 10.6827 17 9.68 17H8.128C7.136 17 6.64 16.5307 6.64 15.592V14.12H8.096V15.368C8.096 15.56 8.128 15.688 8.192 15.752C8.256 15.8053 8.384 15.832 8.576 15.832H9.248C9.44 15.832 9.56267 15.8053 9.616 15.752C9.68 15.688 9.712 15.56 9.712 15.368ZM16.2933 17L15.8932 14.68H13.7812L13.4133 17H11.9733L13.7493 6.984H15.8453L17.7493 17H16.2933ZM13.9573 13.512H15.7013L14.7893 8.232L13.9573 13.512ZM20.2095 15.832H22.6895V17H18.7695V6.984H20.2095V15.832ZM25.038 15.832H27.934V17H23.582V6.984H27.822V8.152H25.038V11.24H27.342V12.408H25.038V15.832ZM32.8029 6.984H34.5789C35.5709 6.984 36.0669 7.45333 36.0669 8.392V15.592C36.0669 16.5307 35.5709 17 34.5789 17H32.8029C31.8002 17 31.2989 16.5307 31.2989 15.592V8.392C31.2989 7.45333 31.8002 6.984 32.8029 6.984ZM34.6269 15.368V8.616C34.6269 8.424 34.5949 8.30133 34.5309 8.248C34.4669 8.184 34.3389 8.152 34.1469 8.152H33.2189C33.0269 8.152 32.8989 8.184 32.8349 8.248C32.7815 8.30133 32.7549 8.424 32.7549 8.616V15.368C32.7549 15.56 32.7815 15.688 32.8349 15.752C32.8989 15.8053 33.0269 15.832 33.2189 15.832H34.1469C34.3389 15.832 34.4669 15.8053 34.5309 15.752C34.5949 15.688 34.6269 15.56 34.6269 15.368ZM42.0281 8.152H39.1161V11.448H41.4201V12.584H39.1161V17H37.6601V6.984H42.0281V8.152ZM47.3406 8.152H44.4286V11.448H46.7326V12.584H44.4286V17H42.9726V6.984H47.3406V8.152Z" fill="white"/>
<path d="M8.112 27.744H9.664C10.6667 27.744 11.168 28.2133 11.168 29.152V32.592C11.168 33.5307 10.6667 34 9.664 34H8.128C7.136 34 6.64 33.5307 6.64 32.592V30.816H8.096V32.368C8.096 32.56 8.128 32.688 8.192 32.752C8.256 32.8053 8.384 32.832 8.576 32.832H9.232C9.424 32.832 9.552 32.8053 9.616 32.752C9.68 32.688 9.712 32.56 9.712 32.368V29.376C9.712 29.184 9.68 29.056 9.616 28.992C9.552 28.928 9.424 28.896 9.232 28.896H6.672V23.984H11.136V25.152H8.112V27.744ZM15.7664 32.368V25.616C15.7664 25.424 15.7344 25.3013 15.6704 25.248C15.6064 25.184 15.4784 25.152 15.2864 25.152H14.4224C14.2304 25.152 14.1024 25.184 14.0384 25.248C13.985 25.3013 13.9584 25.424 13.9584 25.616V32.368C13.9584 32.56 13.985 32.688 14.0384 32.752C14.1024 32.8053 14.2304 32.832 14.4224 32.832H15.2864C15.4784 32.832 15.6064 32.8053 15.6704 32.752C15.7344 32.688 15.7664 32.56 15.7664 32.368ZM17.2224 25.392V32.592C17.2224 33.5307 16.7264 34 15.7344 34H13.9904C12.9877 34 12.4864 33.5307 12.4864 32.592V25.392C12.4864 24.4533 12.9877 23.984 13.9904 23.984H15.7344C16.7264 23.984 17.2224 24.4533 17.2224 25.392ZM24.8328 23.984H26.0328L21.3608 34H20.1768L24.8328 23.984ZM26.5768 32.592V30C26.5768 29.8187 26.5501 29.7013 26.4968 29.648C26.4541 29.5947 26.3421 29.568 26.1608 29.568H25.8248C25.6434 29.568 25.5261 29.5947 25.4728 29.648C25.4194 29.7013 25.3928 29.8187 25.3928 30V32.592C25.3928 32.7733 25.4194 32.8907 25.4728 32.944C25.5261 32.9973 25.6434 33.024 25.8248 33.024H26.1608C26.3421 33.024 26.4541 32.9973 26.4968 32.944C26.5501 32.8907 26.5768 32.7733 26.5768 32.592ZM20.8008 27.968V25.392C20.8008 25.2107 20.7741 25.0933 20.7208 25.04C20.6674 24.9867 20.5554 24.96 20.3848 24.96H20.0328C19.8514 24.96 19.7341 24.9867 19.6808 25.04C19.6381 25.0933 19.6168 25.2107 19.6168 25.392V27.968C19.6168 28.16 19.6381 28.2827 19.6808 28.336C19.7341 28.3893 19.8514 28.416 20.0328 28.416H20.3848C20.5554 28.416 20.6674 28.3893 20.7208 28.336C20.7741 28.272 20.8008 28.1493 20.8008 27.968ZM27.7608 29.824V32.768C27.7608 33.5893 27.3501 34 26.5288 34H25.4568C24.6248 34 24.2088 33.5893 24.2088 32.768V29.824C24.2088 29.0027 24.6248 28.592 25.4568 28.592H26.5288C27.3501 28.592 27.7608 29.0027 27.7608 29.824ZM21.9848 25.216V28.16C21.9848 28.9813 21.5688 29.392 20.7368 29.392H19.6808C18.8488 29.392 18.4328 28.9813 18.4328 28.16V25.216C18.4328 24.8 18.5288 24.4907 18.7208 24.288C18.9234 24.0853 19.2434 23.984 19.6808 23.984H20.7368C21.1741 23.984 21.4888 24.0853 21.6808 24.288C21.8834 24.4907 21.9848 24.8 21.9848 25.216Z" fill="white"/>
</svg>
