<svg width="70" height="70" viewBox="0 0 70 70" fill="none" xmlns="http://www.w3.org/2000/svg">
<path d="M70 70V0H0L70 70Z" fill="#ED1C24"/>
<path d="M27.2589 15.368V12.92C27.2589 12.728 27.2269 12.6053 27.1629 12.552C27.1095 12.488 26.9869 12.456 26.7949 12.456H25.6109C24.6402 12.456 24.1549 11.9813 24.1549 11.032V8.392C24.1549 7.45333 24.6509 6.984 25.6429 6.984H27.2109C28.2029 6.984 28.6989 7.45333 28.6989 8.392V9.864H27.2429V8.616C27.2429 8.424 27.2109 8.30133 27.1469 8.248C27.0829 8.184 26.9549 8.152 26.7629 8.152H26.0909C25.8989 8.152 25.7709 8.184 25.7069 8.248C25.6429 8.30133 25.6109 8.424 25.6109 8.616V10.84C25.6109 11.032 25.6429 11.16 25.7069 11.224C25.7709 11.2773 25.8989 11.304 26.0909 11.304H27.2589C28.2402 11.304 28.7309 11.7733 28.7309 12.712V15.592C28.7309 16.5307 28.2295 17 27.2269 17H25.6749C24.6829 17 24.1869 16.5307 24.1869 15.592V14.12H25.6429V15.368C25.6429 15.56 25.6749 15.688 25.7389 15.752C25.8029 15.8053 25.9309 15.832 26.1229 15.832H26.7949C26.9869 15.832 27.1095 15.8053 27.1629 15.752C27.2269 15.688 27.2589 15.56 27.2589 15.368ZM33.8401 17L33.4401 14.68H31.3281L30.9601 17H29.5201L31.2961 6.984H33.3921L35.2961 17H33.8401ZM31.5041 13.512H33.2481L32.3361 8.232L31.5041 13.512ZM37.7564 15.832H40.2364V17H36.3164V6.984H37.7564V15.832ZM42.5849 15.832H45.4809V17H41.1289V6.984H45.3689V8.152H42.5849V11.24H44.8889V12.408H42.5849V15.832ZM50.3498 6.984H52.1258C53.1178 6.984 53.6138 7.45333 53.6138 8.392V15.592C53.6138 16.5307 53.1178 17 52.1258 17H50.3498C49.3471 17 48.8458 16.5307 48.8458 15.592V8.392C48.8458 7.45333 49.3471 6.984 50.3498 6.984ZM52.1738 15.368V8.616C52.1738 8.424 52.1418 8.30133 52.0778 8.248C52.0138 8.184 51.8858 8.152 51.6938 8.152H50.7658C50.5738 8.152 50.4458 8.184 50.3818 8.248C50.3284 8.30133 50.3018 8.424 50.3018 8.616V15.368C50.3018 15.56 50.3284 15.688 50.3818 15.752C50.4458 15.8053 50.5738 15.832 50.7658 15.832H51.6938C51.8858 15.832 52.0138 15.8053 52.0778 15.752C52.1418 15.688 52.1738 15.56 52.1738 15.368ZM59.575 8.152H56.663V11.448H58.967V12.584H56.663V17H55.207V6.984H59.575V8.152ZM64.8875 8.152H61.9755V11.448H64.2795V12.584H61.9755V17H60.5195V6.984H64.8875V8.152Z" fill="white"/>
<path d="M44.8932 27.744H46.4453C47.4479 27.744 47.9493 28.2133 47.9493 29.152V32.592C47.9493 33.5307 47.4479 34 46.4453 34H44.9093C43.9173 34 43.4213 33.5307 43.4213 32.592V30.816H44.8773V32.368C44.8773 32.56 44.9093 32.688 44.9733 32.752C45.0373 32.8053 45.1653 32.832 45.3573 32.832H46.0133C46.2053 32.832 46.3333 32.8053 46.3973 32.752C46.4613 32.688 46.4933 32.56 46.4933 32.368V29.376C46.4933 29.184 46.4613 29.056 46.3973 28.992C46.3333 28.928 46.2053 28.896 46.0133 28.896H43.4533V23.984H47.9173V25.152H44.8932V27.744ZM52.5476 32.368V25.616C52.5476 25.424 52.5156 25.3013 52.4516 25.248C52.3876 25.184 52.2596 25.152 52.0676 25.152H51.2036C51.0116 25.152 50.8836 25.184 50.8196 25.248C50.7663 25.3013 50.7396 25.424 50.7396 25.616V32.368C50.7396 32.56 50.7663 32.688 50.8196 32.752C50.8836 32.8053 51.0116 32.832 51.2036 32.832H52.0676C52.2596 32.832 52.3876 32.8053 52.4516 32.752C52.5156 32.688 52.5476 32.56 52.5476 32.368ZM54.0036 25.392V32.592C54.0036 33.5307 53.5076 34 52.5156 34H50.7716C49.769 34 49.2676 33.5307 49.2676 32.592V25.392C49.2676 24.4533 49.769 23.984 50.7716 23.984H52.5156C53.5076 23.984 54.0036 24.4533 54.0036 25.392ZM61.614 23.984H62.814L58.142 34H56.958L61.614 23.984ZM63.358 32.592V30C63.358 29.8187 63.3313 29.7013 63.278 29.648C63.2353 29.5947 63.1233 29.568 62.942 29.568H62.606C62.4247 29.568 62.3073 29.5947 62.254 29.648C62.2007 29.7013 62.174 29.8187 62.174 30V32.592C62.174 32.7733 62.2007 32.8907 62.254 32.944C62.3073 32.9973 62.4247 33.024 62.606 33.024H62.942C63.1233 33.024 63.2353 32.9973 63.278 32.944C63.3313 32.8907 63.358 32.7733 63.358 32.592ZM57.582 27.968V25.392C57.582 25.2107 57.5553 25.0933 57.502 25.04C57.4487 24.9867 57.3367 24.96 57.166 24.96H56.814C56.6327 24.96 56.5153 24.9867 56.462 25.04C56.4193 25.0933 56.398 25.2107 56.398 25.392V27.968C56.398 28.16 56.4193 28.2827 56.462 28.336C56.5153 28.3893 56.6327 28.416 56.814 28.416H57.166C57.3367 28.416 57.4487 28.3893 57.502 28.336C57.5553 28.272 57.582 28.1493 57.582 27.968ZM64.542 29.824V32.768C64.542 33.5893 64.1313 34 63.31 34H62.238C61.406 34 60.99 33.5893 60.99 32.768V29.824C60.99 29.0027 61.406 28.592 62.238 28.592H63.31C64.1313 28.592 64.542 29.0027 64.542 29.824ZM58.766 25.216V28.16C58.766 28.9813 58.35 29.392 57.518 29.392H56.462C55.63 29.392 55.214 28.9813 55.214 28.16V25.216C55.214 24.8 55.31 24.4907 55.502 24.288C55.7047 24.0853 56.0247 23.984 56.462 23.984H57.518C57.9553 23.984 58.27 24.0853 58.462 24.288C58.6647 24.4907 58.766 24.8 58.766 25.216Z" fill="white"/>
</svg>
