<svg width="40" height="40" viewBox="0 0 40 40" fill="none" xmlns="http://www.w3.org/2000/svg">
<path d="M38 0H2C0.895431 0 0 0.895431 0 2V31.3333C0 32.4379 0.895431 33.3333 2 33.3333H13.7733L12.1733 38.6667H10.6667C10.2985 38.6667 10 38.9651 10 39.3333C10 39.7015 10.2985 40 10.6667 40H29.3333C29.7015 40 30 39.7015 30 39.3333C30 38.9651 29.7015 38.6667 29.3333 38.6667H27.8267L26.2267 33.3333H38C39.1046 33.3333 40 32.4379 40 31.3333V2C40 0.895431 39.1046 0 38 0ZM26.44 38.6667H13.56L15.16 33.3333H24.84L26.44 38.6667ZM38 32H2C1.63181 32 1.33333 31.7015 1.33333 31.3333V28.6667H4C4.36819 28.6667 4.66667 28.3682 4.66667 28C4.66667 27.6318 4.36819 27.3333 4 27.3333H1.33333V2C1.33333 1.63181 1.63181 1.33333 2 1.33333H38C38.3682 1.33333 38.6667 1.63181 38.6667 2V27.3333H6.66667C6.29848 27.3333 6 27.6318 6 28C6 28.3682 6.29848 28.6667 6.66667 28.6667H38.6667V31.3333C38.6667 31.7015 38.3682 32 38 32Z" fill="#555770"/>
<path d="M33.3333 22.6667C34.8061 22.6667 36 21.4728 36 20V10.6667C36 9.19391 34.8061 8 33.3333 8H30C29.6318 8 29.3333 8.29848 29.3333 8.66667C29.3333 9.03486 29.6318 9.33333 30 9.33333H33.3333C34.0697 9.33333 34.6667 9.93029 34.6667 10.6667V20C34.6667 20.7364 34.0697 21.3333 33.3333 21.3333H6.66667C5.93029 21.3333 5.33333 20.7364 5.33333 20V10.6667C5.33333 9.93029 5.93029 9.33333 6.66667 9.33333H19.3333C19.7015 9.33333 20 9.03486 20 8.66667C20 8.29848 19.7015 8 19.3333 8H6.66667C5.19391 8 4 9.19391 4 10.6667V20C4 21.4728 5.19391 22.6667 6.66667 22.6667H33.3333Z" fill="#555770"/>
<path d="M7.33332 18.6665C6.96513 18.6665 6.66666 18.965 6.66666 19.3332C6.66666 19.7014 6.96513 19.9998 7.33332 19.9998H9.33332C9.70151 19.9998 9.99999 19.7014 9.99999 19.3332C9.99999 18.965 9.70151 18.6665 9.33332 18.6665H7.33332Z" fill="#555770"/>
<path d="M12 18.6665C11.6318 18.6665 11.3333 18.965 11.3333 19.3332C11.3333 19.7014 11.6318 19.9998 12 19.9998H14C14.3682 19.9998 14.6667 19.7014 14.6667 19.3332C14.6667 18.965 14.3682 18.6665 14 18.6665H12Z" fill="#555770"/>
<path d="M16.6667 18.6665C16.2985 18.6665 16 18.965 16 19.3332C16 19.7014 16.2985 19.9998 16.6667 19.9998H18.6667C19.0349 19.9998 19.3333 19.7014 19.3333 19.3332C19.3333 18.965 19.0349 18.6665 18.6667 18.6665H16.6667Z" fill="#555770"/>
<path d="M21.3333 18.6665C20.9651 18.6665 20.6667 18.965 20.6667 19.3332C20.6667 19.7014 20.9651 19.9998 21.3333 19.9998H23.3333C23.7015 19.9998 24 19.7014 24 19.3332C24 18.965 23.7015 18.6665 23.3333 18.6665H21.3333Z" fill="#555770"/>
<path d="M26 18.6665C25.6318 18.6665 25.3333 18.965 25.3333 19.3332C25.3333 19.7014 25.6318 19.9998 26 19.9998H28C28.3682 19.9998 28.6667 19.7014 28.6667 19.3332C28.6667 18.965 28.3682 18.6665 28 18.6665H26Z" fill="#555770"/>
<path d="M32.6667 19.9998C33.0349 19.9998 33.3333 19.7014 33.3333 19.3332C33.3333 18.965 33.0349 18.6665 32.6667 18.6665H30.6667C30.2985 18.6665 30 18.965 30 19.3332C30 19.7014 30.2985 19.9998 30.6667 19.9998H32.6667Z" fill="#555770"/>
<path d="M22 6.6665C23.1046 6.6665 24 5.77107 24 4.6665C24 3.56193 23.1046 2.6665 22 2.6665C20.8954 2.6665 20 3.56193 20 4.6665C20 5.77107 20.8954 6.6665 22 6.6665ZM22 3.99984C22.3682 3.99984 22.6667 4.29831 22.6667 4.6665C22.6667 5.03469 22.3682 5.33317 22 5.33317C21.6318 5.33317 21.3333 5.03469 21.3333 4.6665C21.3333 4.29831 21.6318 3.99984 22 3.99984Z" fill="#555770"/>
<path d="M29.3333 12C29.3333 10.8954 28.4379 10 27.3333 10C26.2288 10 25.3333 10.8954 25.3333 12C25.3333 13.1046 26.2288 14 27.3333 14C28.4379 14 29.3333 13.1046 29.3333 12ZM27.3333 12.6667C26.9652 12.6667 26.6667 12.3682 26.6667 12C26.6667 11.6318 26.9652 11.3333 27.3333 11.3333C27.7015 11.3333 28 11.6318 28 12C28 12.3682 27.7015 12.6667 27.3333 12.6667Z" fill="#555770"/>
<path d="M20.2333 13.8402C20.3677 13.9551 20.5422 14.012 20.7185 13.9982C20.8948 13.9845 21.0584 13.9013 21.1733 13.7669L29.1733 4.43354C29.3281 4.25253 29.3746 4.00267 29.2953 3.77809C29.2159 3.55351 29.0228 3.38832 28.7886 3.34476C28.5544 3.30119 28.3148 3.38586 28.16 3.56688L20.16 12.9002C20.0451 13.0346 19.9882 13.2091 20.002 13.3854C20.0157 13.5617 20.0989 13.7253 20.2333 13.8402Z" fill="#555770"/>
</svg>
