<svg width="40" height="40" viewBox="0 0 40 40" fill="none" xmlns="http://www.w3.org/2000/svg">
<g clip-path="url(#clip0_6727_220649)">
<path d="M35.001 4.66632C35.3246 4.66632 35.5869 4.40399 35.5869 4.08038C35.5869 3.75678 35.3246 3.49445 35.001 3.49445C34.6774 3.49445 34.415 3.75678 34.415 4.08038C34.415 4.40399 34.6774 4.66632 35.001 4.66632Z" fill="#555770"/>
<path d="M31.915 4.66632C32.2386 4.66632 32.501 4.40399 32.501 4.08038C32.501 3.75678 32.2386 3.49445 31.915 3.49445C31.5914 3.49445 31.3291 3.75678 31.3291 4.08038C31.3291 4.40399 31.5914 4.66632 31.915 4.66632Z" fill="#555770"/>
<path d="M28.8286 4.66632C29.1522 4.66632 29.4146 4.40399 29.4146 4.08038C29.4146 3.75678 29.1522 3.49445 28.8286 3.49445C28.505 3.49445 28.2427 3.75678 28.2427 4.08038C28.2427 4.40399 28.505 4.66632 28.8286 4.66632Z" fill="#555770"/>
<path d="M36.2891 0.567261H9.87266C9.54898 0.567261 9.28672 0.829605 9.28672 1.1532C9.28672 1.47687 9.54898 1.73914 9.87266 1.73914H36.2891C37.6891 1.73914 38.8281 2.87812 38.8281 4.2782V6.42164H1.17188V4.2782C1.17188 2.87812 2.31086 1.73914 3.71094 1.73914H7.52891C7.85258 1.73914 8.11484 1.47687 8.11484 1.1532C8.11484 0.829605 7.85258 0.567261 7.52891 0.567261H3.71094C1.66477 0.567261 0 2.23195 0 4.2782V37.3872C0 38.5152 0.917656 39.4328 2.04562 39.4328H37.9545C39.0824 39.4328 40.0001 38.5152 40.0001 37.3872V4.2782C40 2.23195 38.3352 0.567261 36.2891 0.567261ZM10.6279 38.2609C10.444 38.2609 10.2724 38.1878 10.1449 38.0552C10.0174 37.9226 9.95125 37.7483 9.95844 37.5645L10.5174 23.4332C10.5245 23.2536 10.6052 23.0817 10.739 22.9615L16.1657 18.0847C16.2889 17.9741 16.448 17.9131 16.6135 17.9131H19.4662V19.7181C18.7027 19.9659 18.1491 20.6836 18.1491 21.5285C18.1491 22.5779 19.0028 23.4316 20.0521 23.4316C21.1015 23.4316 21.9552 22.5778 21.9552 21.5285C21.9552 20.6836 21.4015 19.9659 20.638 19.7181V17.9131H23.3864C23.552 17.9131 23.711 17.9741 23.8341 18.0847L29.2609 22.9614C29.3946 23.0816 29.4754 23.2537 29.4825 23.4334L30.0414 37.5645C30.0487 37.7484 29.9825 37.9226 29.855 38.0552C29.7275 38.1878 29.556 38.2609 29.372 38.2609H10.6279ZM20.0522 20.7973C20.4554 20.7973 20.7834 21.1253 20.7834 21.5285C20.7834 21.9317 20.4554 22.2597 20.0522 22.2597C19.649 22.2597 19.321 21.9317 19.321 21.5285C19.321 21.1253 19.649 20.7973 20.0522 20.7973ZM38.8281 37.3872C38.8281 37.869 38.4362 38.2609 37.9544 38.2609H35.7248V11.5705C35.7248 10.3684 34.7467 9.39039 33.5447 9.39039H6.45531C5.2532 9.39039 4.27523 10.3684 4.27523 11.5705V28.4222C4.27523 28.7459 4.5375 29.0081 4.86117 29.0081C5.18477 29.0081 5.44711 28.7459 5.44711 28.4222V11.5705C5.44711 11.0145 5.89937 10.5623 6.45531 10.5623H33.5447C34.1006 10.5623 34.5529 11.0145 34.5529 11.5705V38.2609H31.0888C31.1798 38.028 31.2227 37.7766 31.2124 37.5181L30.6535 23.387C30.6339 22.8931 30.4119 22.4203 30.0442 22.0899L24.6175 17.2131C24.2789 16.9088 23.8416 16.7413 23.3864 16.7413H20.638V15.401C20.638 15.0773 20.3758 14.8151 20.0521 14.8151C19.7284 14.8151 19.4662 15.0773 19.4662 15.401V16.7413H16.6135C16.1584 16.7413 15.7211 16.9088 15.3824 17.213L9.9557 22.0899C9.58797 22.4203 9.36586 22.8931 9.34641 23.387L8.78742 37.5182C8.77719 37.7766 8.82008 38.028 8.91102 38.2609H5.44695V30.7659C5.44695 30.4423 5.18461 30.18 4.86102 30.18C4.53734 30.18 4.27508 30.4423 4.27508 30.7659V38.2609H2.04562C1.56383 38.2609 1.17188 37.8689 1.17188 37.3871V7.59344H38.8281V37.3872Z" fill="#555770"/>
<path d="M26.5069 29.9509H24.724L26.6882 26.4117C26.8752 26.0748 26.8702 25.6754 26.6747 25.3433C26.4793 25.0113 26.1325 24.813 25.7472 24.813H23.4468C23.0082 24.813 22.6172 25.0753 22.4508 25.4813L19.9473 31.5929C19.811 31.9255 19.8492 32.3021 20.0494 32.6006C20.2497 32.899 20.5839 33.0773 20.9433 33.0773H22.1573L21.2822 35.9677C21.1306 36.4687 21.3483 36.9888 21.8116 37.2324C21.974 37.3177 22.1471 37.3589 22.3176 37.3589C22.634 37.3589 22.9412 37.2171 23.1534 36.9513L27.348 31.6988C27.6085 31.3727 27.6579 30.9365 27.4768 30.5605C27.2958 30.1845 26.9243 29.9509 26.5069 29.9509ZM22.5476 35.8318L23.3161 33.2938C23.4158 32.9643 23.3554 32.6168 23.1502 32.3404C22.9451 32.0641 22.6301 31.9056 22.2858 31.9056H21.0855L23.5108 25.985H25.5848L23.6206 29.5242C23.4336 29.8612 23.4387 30.2606 23.6342 30.5926C23.8297 30.9246 24.1764 31.1229 24.5618 31.1229H26.3085L22.5476 35.8318Z" fill="#555770"/>
<path d="M19.3198 25.168H14.0957C13.772 25.168 13.5098 25.4303 13.5098 25.754C13.5098 26.0776 13.772 26.3399 14.0957 26.3399H19.3198C19.6435 26.3399 19.9058 26.0776 19.9058 25.754C19.9058 25.4304 19.6435 25.168 19.3198 25.168Z" fill="#555770"/>
<path d="M14.0957 29.0312H17.0043C17.328 29.0312 17.5902 28.769 17.5902 28.4453C17.5902 28.1216 17.328 27.8594 17.0043 27.8594H14.0957C13.772 27.8594 13.5098 28.1216 13.5098 28.4453C13.5098 28.7689 13.772 29.0312 14.0957 29.0312Z" fill="#555770"/>
<path d="M14.0957 31.3519H16.2603C16.584 31.3519 16.8463 31.0897 16.8463 30.766C16.8463 30.4423 16.584 30.1801 16.2603 30.1801H14.0957C13.772 30.1801 13.5098 30.4423 13.5098 30.766C13.5098 31.0896 13.772 31.3519 14.0957 31.3519Z" fill="#555770"/>
<path d="M18.3557 34.7144H14.0957C13.772 34.7144 13.5098 34.9766 13.5098 35.3003C13.5098 35.6239 13.772 35.8862 14.0957 35.8862H18.3557C18.6794 35.8862 18.9416 35.6239 18.9416 35.3003C18.9416 34.9766 18.6794 34.7144 18.3557 34.7144Z" fill="#555770"/>
<path d="M8.56396 14.0338H14.3353C14.659 14.0338 14.9212 13.7715 14.9212 13.4479C14.9212 13.1242 14.659 12.8619 14.3353 12.8619H8.56396C8.24029 12.8619 7.97803 13.1242 7.97803 13.4479C7.97803 13.7715 8.24037 14.0338 8.56396 14.0338Z" fill="#555770"/>
<path d="M8.56396 16.8809H11.4497C11.7733 16.8809 12.0356 16.6186 12.0356 16.2949C12.0356 15.9712 11.7733 15.709 11.4497 15.709H8.56396C8.24029 15.709 7.97803 15.9712 7.97803 16.2949C7.97803 16.6186 8.24037 16.8809 8.56396 16.8809Z" fill="#555770"/>
<path d="M25.769 14.0338H31.5404C31.8641 14.0338 32.1264 13.7715 32.1264 13.4479C32.1264 13.1242 31.8641 12.8619 31.5404 12.8619H25.769C25.4454 12.8619 25.1831 13.1242 25.1831 13.4479C25.1831 13.7715 25.4454 14.0338 25.769 14.0338Z" fill="#555770"/>
<path d="M31.5406 15.709H28.6548C28.3311 15.709 28.0688 15.9712 28.0688 16.2949C28.0688 16.6186 28.3311 16.8809 28.6548 16.8809H31.5406C31.8642 16.8809 32.1265 16.6186 32.1265 16.2949C32.1265 15.9713 31.8642 15.709 31.5406 15.709Z" fill="#555770"/>
</g>
<defs>
<clipPath id="clip0_6727_220649">
<rect width="40" height="40" fill="white"/>
</clipPath>
</defs>
</svg>
