<svg width="40" height="40" viewBox="0 0 40 40" fill="none" xmlns="http://www.w3.org/2000/svg">
<path d="M37.8516 4.27393H33.8148C33.4912 4.27393 33.2289 4.53627 33.2289 4.85986C33.2289 5.18346 33.4912 5.4458 33.8148 5.4458H37.8516C38.3901 5.4458 38.8281 5.88385 38.8281 6.42236V25.9234H1.17188V21.6273C1.17188 21.3037 0.909609 21.0413 0.585938 21.0413C0.262266 21.0413 0 21.3037 0 21.6273V29.9557C0 31.1404 0.96375 32.1042 2.14844 32.1042H11.8195L10.8432 35.0232H8.91133C7.87703 35.0232 7.03547 35.8647 7.03547 36.8991C7.03547 37.9335 7.87695 38.7749 8.91133 38.7749H31.0886C32.1229 38.7749 32.9645 37.9335 32.9645 36.8991C32.9645 35.8647 32.123 35.0232 31.0886 35.0232H29.1567L28.1804 32.1042H37.8516C39.0363 32.1042 40 31.1404 40 29.9557V6.42236C40 5.23768 39.0363 4.27393 37.8516 4.27393ZM31.7926 36.8992C31.7926 37.2874 31.4768 37.6031 31.0886 37.6031H8.91133C8.52313 37.6031 8.20734 37.2874 8.20734 36.8992C8.20734 36.511 8.52313 36.1952 8.91133 36.1952H31.0886C31.4768 36.1951 31.7926 36.511 31.7926 36.8992ZM27.9212 35.0232H12.0788L13.0552 32.1042H26.9448L27.9212 35.0232ZM37.8516 30.9323H2.14844C1.60992 30.9323 1.17188 30.4942 1.17188 29.9557V27.0953H38.8281V29.9557C38.8281 30.4942 38.3901 30.9323 37.8516 30.9323Z" fill="#555770"/>
<path d="M0.585938 19.5837C0.909609 19.5837 1.17188 19.3213 1.17188 18.9978V6.42252C1.17188 5.884 1.60992 5.44596 2.14844 5.44596H3.0875C3.03102 5.75127 3 6.06541 3 6.38682C3 8.17025 3.9093 9.7451 5.28844 10.6727L4.52234 11.3072C4.32148 11.4737 4.19742 11.7085 4.17305 11.9682C4.14875 12.228 4.22703 12.4817 4.39367 12.6826L6.43852 15.1483C6.60508 15.3491 6.83984 15.473 7.09953 15.4972C7.35969 15.5217 7.61289 15.4431 7.81359 15.2766L8.36477 14.8196V20.0444C8.36477 20.5829 8.80281 21.021 9.34133 21.021H17.1351C17.6736 21.021 18.1116 20.5829 18.1116 20.0444V14.8196L18.6627 15.2766C18.8634 15.4431 19.1173 15.5214 19.3769 15.4973C19.6366 15.4731 19.8713 15.3492 20.0379 15.1484L22.0827 12.6828C22.2494 12.4819 22.3277 12.2281 22.3034 11.9682C22.279 11.7085 22.155 11.4737 21.954 11.3072L17.8995 7.94869C17.7945 7.86166 17.6623 7.814 17.5258 7.814H15.1977C14.9578 7.814 14.7422 7.96018 14.6534 8.18299C14.4211 8.76565 13.8657 9.14213 13.2383 9.14213C13.0168 9.14213 12.8035 9.09494 12.6074 9.00541C13.0617 8.23713 13.3235 7.34221 13.3235 6.38682C13.3235 6.06541 13.2925 5.75127 13.236 5.44596H31.1852C31.5088 5.44596 31.7711 5.18361 31.7711 4.86002C31.7711 4.53643 31.5088 4.27408 31.1852 4.27408H12.8695C12.0605 2.47869 10.2554 1.2251 8.16172 1.2251C6.06805 1.2251 4.26305 2.47869 3.45406 4.27408H2.14844C0.96375 4.27408 0 5.23783 0 6.42252V18.9978C0 19.3213 0.262266 19.5837 0.585938 19.5837ZM9.53664 19.8492V17.4492H16.9398V19.8492H9.53664ZM13.2382 10.314C14.2095 10.314 15.0832 9.80408 15.5618 8.98588H17.3145L21.0559 12.085L19.2605 14.2499L17.8998 13.1215C17.7249 12.9766 17.4821 12.9456 17.2766 13.0422C17.071 13.1388 16.9398 13.3454 16.9398 13.5725V16.2772H9.53664V13.5725C9.53664 13.3454 9.40539 13.1388 9.19984 13.0422C8.99438 12.9456 8.75156 12.9765 8.57664 13.1215L7.21586 14.2499L5.42047 12.085L6.43 11.2488C6.97164 11.4424 7.55445 11.5486 8.16172 11.5486C9.62586 11.5486 10.9485 10.9349 11.8888 9.95229C12.2969 10.1896 12.757 10.314 13.2382 10.314ZM8.1618 2.39697C10.3618 2.39697 12.1516 4.18682 12.1516 6.38682C12.1516 8.58682 10.3618 10.3767 8.1618 10.3767C5.9618 10.3767 4.17188 8.58682 4.17188 6.38682C4.17188 4.18682 5.9618 2.39697 8.1618 2.39697Z" fill="#555770"/>
<path d="M25.9146 20.6997H27.2788C27.6025 20.6997 27.8648 20.4374 27.8648 20.1138C27.8648 19.7902 27.6025 19.5278 27.2788 19.5278H25.9146C25.1607 19.5278 24.5474 20.1412 24.5474 20.895V22.1538C24.5474 22.9076 25.1607 23.5209 25.9146 23.5209H32.7462C33.5 23.5209 34.1134 22.9076 34.1134 22.1538V20.895C34.1134 20.1412 33.5 19.5278 32.7462 19.5278H29.9085C29.5849 19.5278 29.3226 19.7902 29.3226 20.1138C29.3226 20.4374 29.5849 20.6997 29.9085 20.6997H32.7462C32.8539 20.6997 32.9415 20.7874 32.9415 20.895V22.1538C32.9415 22.2614 32.8539 22.3491 32.7462 22.3491H25.9146C25.8068 22.3491 25.7192 22.2614 25.7192 22.1538V20.895C25.7192 20.7873 25.8068 20.6997 25.9146 20.6997Z" fill="#555770"/>
<path d="M10.8425 22.3579C10.5189 22.3579 10.2566 22.6203 10.2566 22.9438C10.2566 23.2674 10.5189 23.5298 10.8425 23.5298H15.6342C15.9578 23.5298 16.2201 23.2674 16.2201 22.9438C16.2201 22.6203 15.9578 22.3579 15.6342 22.3579H10.8425Z" fill="#555770"/>
<path d="M6.82659 5.63672H6.82964C7.15183 5.63672 7.41394 5.37633 7.4155 5.05375C7.41714 4.73016 7.15612 4.46648 6.83253 4.46484H6.82495C6.82386 4.46484 6.823 4.46484 6.82191 4.46484C6.49972 4.46484 6.24144 4.72523 6.23988 5.04781C6.23824 5.37141 6.503 5.63508 6.82659 5.63672Z" fill="#555770"/>
<path d="M9.49687 7.13672C9.49586 7.13672 9.49492 7.13672 9.49391 7.13672C9.17172 7.13672 8.91344 7.39711 8.91187 7.71977C8.91023 8.04336 9.17508 8.30703 9.49875 8.30867H9.50172C9.82391 8.30867 10.086 8.04828 10.0876 7.7257C10.0892 7.40211 9.8282 7.13844 9.50453 7.1368L9.49687 7.13672Z" fill="#555770"/>
<path d="M6.72924 8.05407C6.83979 8.14907 6.97565 8.19564 7.11088 8.19564C7.27572 8.19564 7.43963 8.12642 7.55549 7.99157L9.65674 5.54595C9.8676 5.30048 9.83963 4.93056 9.59416 4.7197C9.34869 4.50876 8.97877 4.53673 8.76791 4.78228L6.66666 7.22782C6.4558 7.47329 6.48377 7.84321 6.72924 8.05407Z" fill="#555770"/>
<path d="M33.5274 16.0547H25.1333C24.8096 16.0547 24.5474 16.317 24.5474 16.6406C24.5474 16.9642 24.8096 17.2266 25.1333 17.2266H33.5274C33.8511 17.2266 34.1134 16.9642 34.1134 16.6406C34.1134 16.317 33.8511 16.0547 33.5274 16.0547Z" fill="#555770"/>
<path d="M33.5274 13.8413H25.1333C24.8096 13.8413 24.5474 14.1037 24.5474 14.4272C24.5474 14.7508 24.8096 15.0132 25.1333 15.0132H33.5274C33.8511 15.0132 34.1134 14.7508 34.1134 14.4272C34.1134 14.1037 33.8511 13.8413 33.5274 13.8413Z" fill="#555770"/>
<path d="M25.1333 12.7993H29.7656C30.0892 12.7993 30.3515 12.537 30.3515 12.2134C30.3515 11.8898 30.0892 11.6274 29.7656 11.6274H25.1333C24.8096 11.6274 24.5474 11.8898 24.5474 12.2134C24.5474 12.537 24.8096 12.7993 25.1333 12.7993Z" fill="#555770"/>
<path d="M33.5284 12.7993H33.5314C33.8536 12.7993 34.1157 12.5389 34.1172 12.2163C34.1189 11.8928 33.8579 11.6291 33.5342 11.6274H33.5265C33.5255 11.6274 33.5246 11.6274 33.5236 11.6274C33.2014 11.6274 32.9431 11.8878 32.9415 12.2105C32.94 12.5341 33.2047 12.7978 33.5284 12.7993Z" fill="#555770"/>
<path d="M25.1372 9.88281C25.4594 9.88281 25.7215 9.62242 25.7231 9.29984C25.7247 8.97625 25.4637 8.71258 25.14 8.71094H25.1324C25.1314 8.71094 25.1304 8.71094 25.1294 8.71094C24.8072 8.71094 24.5489 8.97133 24.5474 9.29398C24.5457 9.61758 24.8106 9.88125 25.1342 9.88289C25.1352 9.88281 25.1362 9.88281 25.1372 9.88281Z" fill="#555770"/>
<path d="M28.1251 9.88281C28.4473 9.88281 28.7094 9.62242 28.711 9.29984C28.7126 8.97625 28.4516 8.71258 28.1279 8.71094H28.1203C28.1193 8.71094 28.1183 8.71094 28.1173 8.71094C27.7951 8.71094 27.5368 8.97133 27.5353 9.29398C27.5336 9.61758 27.7985 9.88125 28.1222 9.88289C28.1232 9.88281 28.1241 9.88281 28.1251 9.88281Z" fill="#555770"/>
</svg>
