<svg width="40" height="40" viewBox="0 0 40 40" fill="none" xmlns="http://www.w3.org/2000/svg">
<g clip-path="url(#clip0_5_1274)">
<path d="M20.3593 17.1472L19.4808 18.9042L17.9247 20.4603V22.5557L19.971 23.5789H9.26312V26.1053H4.53859L0.842109 30.7258V32.8421H0V36.6316H2.31578V35.3685H1.26312V34.1053H9.26312H21.0526V35.3685H19.1578V36.6316H22.3157V23.579H20.1565L21.6722 22.3159H23.5187V20.2185L25.387 17.8407L20.3593 17.1472ZM5.14562 27.3685H6.73687V30.3158H2.78781L5.14562 27.3685ZM9.26312 32.8421H2.10523V31.579H8V27.3685H9.26312V32.8421ZM21.0527 24.8421V32.8421H10.5263V26.1053V24.8421H21.0527ZM22.2555 19.7816V21.0527H21.2148L19.9129 22.1377L19.1879 21.7752V20.9835L20.519 19.6525L21.0841 18.5223L23.0337 18.7912L22.2555 19.7816Z" fill="#5B86E5"/>
<path d="M32.063 14.481L30.9146 15.0071C31.6349 16.5788 32 18.2587 32 20.0002C32 20.7681 31.9272 21.5224 31.7881 22.2559H30.7369V21.0535L29.2933 20.3317V18.2186L27.1279 16.7749V15.7897H25.8648V17.451L28.0302 18.8947V21.1124L29.4738 21.8342V23.519H31.4772C30.3579 27.1888 27.5198 30.1707 23.7282 31.4088L24.1203 32.6097C29.5889 30.8237 33.2631 25.7563 33.2631 20.0001C33.2631 18.0757 32.8594 16.2188 32.063 14.481Z" fill="#5B86E5"/>
<path d="M19.3684 12.3126V15.0374H17.4442L15.7595 18.4072V19.3683H13.1723L12.3427 17.7089L9.3157 19.2224L8.17141 17.9793C8.54836 15.7665 9.53977 13.6939 11.0561 12L10.1149 11.1575C7.93656 13.591 6.73688 16.7311 6.73688 19.9999C6.73688 20.7779 6.91922 22.1872 6.92696 22.2468L6.99852 22.7968H9.77305L10.5623 23.1126L11.0316 21.9397L10.0163 21.5336H8.1143C8.06305 21.069 8 20.4147 8 19.9998C8 19.8876 8.00211 19.7758 8.00524 19.6639L9.03024 20.7773L11.7777 19.4036L12.3916 20.6314H17.0226V18.7053L18.2249 16.3005H20.6316V12.3125H19.3684V12.3126Z" fill="#5B86E5"/>
<path d="M37.6842 5.05266H33.7072L27.8125 0H24.0307L26.557 5.05266H22.7478L20.6425 3.36844H16.7551L19.2552 7.36844L16.7553 11.3684H20.6427L22.7479 9.68422H26.5571L24.0308 14.7369H27.8126L33.7074 9.68422H37.6843C38.9612 9.68422 40 8.64531 40 7.36844C40 6.09156 38.9611 5.05266 37.6842 5.05266ZM26.0745 1.26312H27.3452L31.7662 5.05258H27.9692L26.0745 1.26312ZM19.0343 4.63156H20.1995L21.4574 5.63781L20.191 6.48211L19.0343 4.63156ZM20.1995 10.1052H19.0343L20.1909 8.25469L21.4573 9.09898L20.1995 10.1052ZM27.3453 13.4737H26.0746L27.9693 9.68422H31.7664L27.3453 13.4737ZM37.6842 8.42102H33.4736H33.24H28.6009H27.5789H22.7175L21.1385 7.36836L22.7175 6.3157H27.5789H28.6008H33.2399H33.4736H37.6841C38.2646 6.3157 38.7368 6.78789 38.7368 7.36836C38.7368 7.94883 38.2647 8.42102 37.6842 8.42102Z" fill="#5B86E5"/>
<path d="M12.4211 35.3684H8.21057V36.6315H12.4211V35.3684Z" fill="#5B86E5"/>
<path d="M15.7894 34.5264C14.2804 34.5264 13.0526 35.7541 13.0526 37.2632C13.0526 38.7724 14.2804 40.0001 15.7894 40.0001C17.2985 40.0001 18.5263 38.7724 18.5263 37.2632C18.5263 35.754 17.2985 34.5264 15.7894 34.5264ZM15.7894 38.7369C14.9768 38.7369 14.3158 38.0757 14.3158 37.2632C14.3158 36.4507 14.9769 35.7896 15.7894 35.7896C16.602 35.7896 17.2631 36.4507 17.2631 37.2632C17.2631 38.0757 16.602 38.7369 15.7894 38.7369Z" fill="#5B86E5"/>
<path d="M5.26312 34.5264C3.75406 34.5264 2.52625 35.7541 2.52625 37.2632C2.52625 38.7724 3.75406 40.0001 5.26312 40.0001C6.77218 40.0001 8 38.7724 8 37.2632C8 35.754 6.77218 34.5264 5.26312 34.5264ZM5.26312 38.7369C4.45054 38.7369 3.78945 38.0757 3.78945 37.2632C3.78945 36.4507 4.45062 35.7896 5.26312 35.7896C6.0757 35.7896 6.73679 36.4507 6.73679 37.2632C6.73687 38.0757 6.0757 38.7369 5.26312 38.7369Z" fill="#5B86E5"/>
<path d="M32.2105 38.7368H30.9473V39.9999H32.2105V38.7368Z" fill="#5B86E5"/>
<path d="M34.7368 38.7368H33.4737V39.9999H34.7368V38.7368Z" fill="#5B86E5"/>
<path d="M37.2631 38.7368H36V39.9999H37.2631V38.7368Z" fill="#5B86E5"/>
<path d="M29.6841 38.7368H28.421V39.9999H29.6841V38.7368Z" fill="#5B86E5"/>
<path d="M24.6315 38.7368H23.3684V39.9999H24.6315V38.7368Z" fill="#5B86E5"/>
<path d="M27.1579 38.7368H25.8948V39.9999H27.1579V38.7368Z" fill="#5B86E5"/>
<path d="M24.6315 36.2104H23.3684V37.4736H24.6315V36.2104Z" fill="#5B86E5"/>
<path d="M32.2105 36.2104H30.9473V37.4736H32.2105V36.2104Z" fill="#5B86E5"/>
<path d="M27.1579 36.2104H25.8948V37.4736H27.1579V36.2104Z" fill="#5B86E5"/>
<path d="M29.6841 36.2104H28.421V37.4736H29.6841V36.2104Z" fill="#5B86E5"/>
<path d="M27.1579 33.6843H25.8948V34.9474H27.1579V33.6843Z" fill="#5B86E5"/>
<path d="M24.6315 33.6843H23.3684V34.9474H24.6315V33.6843Z" fill="#5B86E5"/>
<path d="M29.6841 33.6843H28.421V34.9474H29.6841V33.6843Z" fill="#5B86E5"/>
<path d="M12.421 9.26318H11.1579V10.5263H12.421V9.26318Z" fill="#5B86E5"/>
<path d="M14.9473 9.26318H13.6842V10.5263H14.9473V9.26318Z" fill="#5B86E5"/>
<path d="M9.89472 9.26318H8.63159V10.5263H9.89472V9.26318Z" fill="#5B86E5"/>
<path d="M9.89472 6.73682H8.63159V7.99994H9.89472V6.73682Z" fill="#5B86E5"/>
<path d="M14.9473 6.73682H13.6842V7.99994H14.9473V6.73682Z" fill="#5B86E5"/>
<path d="M17.4737 6.73682H16.2106V7.99994H17.4737V6.73682Z" fill="#5B86E5"/>
<path d="M4.8421 6.73682H3.57898V7.99994H4.8421V6.73682Z" fill="#5B86E5"/>
<path d="M12.421 6.73682H11.1579V7.99994H12.421V6.73682Z" fill="#5B86E5"/>
<path d="M7.36835 6.73682H6.10522V7.99994H7.36835V6.73682Z" fill="#5B86E5"/>
<path d="M9.89472 4.21045H8.63159V5.47357H9.89472V4.21045Z" fill="#5B86E5"/>
<path d="M14.9473 4.21045H13.6842V5.47357H14.9473V4.21045Z" fill="#5B86E5"/>
<path d="M12.421 4.21045H11.1579V5.47357H12.421V4.21045Z" fill="#5B86E5"/>
</g>
<defs>
<clipPath id="clip0_5_1274">
<rect width="40" height="40" fill="white"/>
</clipPath>
</defs>
</svg>
