<svg width="48" height="48" viewBox="0 0 48 48" fill="none" xmlns="http://www.w3.org/2000/svg">
<path d="M36.6453 21.0779C36.5432 20.7634 36.2712 20.5341 35.9439 20.4864L28.2291 19.3654L24.7787 12.3747C24.6326 12.0779 24.3304 11.8901 23.9998 11.8901C23.6691 11.8901 23.3668 12.0779 23.2206 12.3747L19.7703 19.3654L12.0555 20.4864C11.7285 20.534 11.4563 20.7632 11.354 21.0779C11.2519 21.3922 11.3372 21.7375 11.574 21.9686L17.1567 27.41L15.8387 35.0936C15.7826 35.4195 15.9166 35.7489 16.1842 35.9435C16.4516 36.1379 16.8067 36.1636 17.0993 36.0096L23.9999 32.3818L30.8999 36.0095C31.0272 36.0762 31.1661 36.1092 31.3044 36.1092C31.4845 36.1092 31.664 36.0534 31.8153 35.9434C32.0827 35.7489 32.2167 35.4194 32.161 35.0935L31.6662 32.2091L31.2595 29.8376L30.843 27.41L36.4255 21.9686C36.6624 21.7375 36.7476 21.3922 36.6453 21.0779Z" fill="#FFD960"/>
<g opacity="0.1">
<path opacity="0.1" d="M17.8183 35.371C17.5508 35.1765 17.4166 34.847 17.4728 34.5211L18.7907 26.8374L13.2081 21.3961C12.9713 21.165 12.8862 20.8197 12.9881 20.5054C13.0072 20.4467 13.0338 20.3922 13.0641 20.3401L12.056 20.4866C11.729 20.5342 11.4568 20.7634 11.3545 21.0781C11.2524 21.3923 11.3377 21.7377 11.5745 21.9688L17.1571 27.4102L15.8392 35.0938C15.7831 35.4197 15.9171 35.7491 16.1847 35.9437C16.4521 36.1381 16.8072 36.1638 17.0998 36.0098L18.0749 35.4971C17.9845 35.4693 17.8973 35.4284 17.8183 35.371Z" fill="#231F20"/>
</g>
<path d="M4.35769 24.7577H0.757875C0.339375 24.7577 0 24.4184 0 23.9998C0 23.5812 0.339375 23.2419 0.757875 23.2419H4.35769C4.77628 23.2419 5.11556 23.5813 5.11556 23.9998C5.11556 24.4184 4.77628 24.7577 4.35769 24.7577Z" fill="#FFD960"/>
<path d="M47.2419 24.7577H43.6421C43.2236 24.7577 42.8843 24.4183 42.8843 23.9998C42.8843 23.5812 43.2237 23.2419 43.6421 23.2419H47.2419C47.6605 23.2419 47.9998 23.5813 47.9998 23.9998C47.9998 24.4184 47.6604 24.7577 47.2419 24.7577Z" fill="#FFD960"/>
<path d="M7.56555 41.1924C7.37149 41.1924 7.17761 41.1184 7.02958 40.9704C6.73361 40.6744 6.73361 40.1945 7.02968 39.8986L9.57508 37.3533C9.87105 37.0574 10.351 37.0574 10.6468 37.3533C10.9428 37.6493 10.9428 38.1292 10.6467 38.4251L8.10133 40.9705C7.95349 41.1184 7.75943 41.1924 7.56555 41.1924Z" fill="#FFD960"/>
<path d="M37.889 10.8688C37.695 10.8688 37.5011 10.7948 37.3531 10.6468C37.0571 10.3508 37.0571 9.87091 37.3531 9.57494L39.8986 7.02963C40.1946 6.73357 40.6745 6.73366 40.9704 7.02963C41.2664 7.3256 41.2664 7.8055 40.9704 8.10138L38.425 10.6467C38.277 10.7948 38.083 10.8688 37.889 10.8688Z" fill="#FFD960"/>
<path d="M24 47.9998C23.5815 47.9998 23.2422 47.6604 23.2422 47.2419V43.6422C23.2422 43.2236 23.5816 42.8843 24 42.8843C24.4186 42.8843 24.7579 43.2237 24.7579 43.6422V47.2419C24.7579 47.6604 24.4186 47.9998 24 47.9998Z" fill="#FFD960"/>
<path d="M24 5.11556C23.5815 5.11556 23.2422 4.77619 23.2422 4.35769V0.757875C23.2422 0.339281 23.5816 0 24 0C24.4186 0 24.7579 0.339375 24.7579 0.757875V4.35769C24.7579 4.77628 24.4186 5.11556 24 5.11556Z" fill="#FFD960"/>
<path d="M40.4345 41.1922C40.2407 41.1922 40.0466 41.1183 39.8986 40.9702L37.3531 38.4248C37.0571 38.1289 37.0571 37.649 37.3531 37.3531C37.6491 37.0571 38.129 37.0571 38.4249 37.3531L40.9703 39.8984C41.2663 40.1944 41.2663 40.6743 40.9703 40.9702C40.8225 41.1183 40.6285 41.1922 40.4345 41.1922Z" fill="#FFD960"/>
<path d="M10.1112 10.8688C9.91714 10.8688 9.72326 10.7948 9.57523 10.6468L7.02983 8.10135C6.73386 7.80538 6.73386 7.32547 7.02992 7.02959C7.32589 6.73362 7.8057 6.73362 8.10167 7.02959L10.6471 9.5751C10.943 9.87107 10.943 10.351 10.647 10.6469C10.4991 10.7948 10.3051 10.8688 10.1112 10.8688Z" fill="#FFD960"/>
</svg>
