<svg width="98" height="98" viewBox="0 0 98 98" fill="none" xmlns="http://www.w3.org/2000/svg">
<path opacity="0.7" d="M0 6C0 2.68629 2.68629 0 6 0H104C107.314 0 110 2.68629 110 6V92C110 95.3137 107.314 98 104 98H6C2.68629 98 0 95.3137 0 92V6Z" fill="#BEDFF7"/>
<rect x="31" y="49" width="13" height="10" rx="2" fill="#8CBFF0"/>
<path d="M36.2203 51.6364H35.4681L34.3836 52.3331V53.0575L35.4042 52.4055H35.4298V56H36.2203V51.6364ZM38.9411 56.0831C39.9937 56.0852 40.6222 55.2543 40.6222 53.8224C40.6222 52.3991 39.9894 51.5767 38.9411 51.5767C37.8928 51.5767 37.2622 52.397 37.26 53.8224C37.26 55.2521 37.8886 56.0831 38.9411 56.0831ZM38.9411 55.4162C38.3978 55.4162 38.0569 54.8707 38.059 53.8224C38.0612 52.7827 38.3999 52.2351 38.9411 52.2351C39.4845 52.2351 39.8232 52.7827 39.8254 53.8224C39.8254 54.8707 39.4866 55.4162 38.9411 55.4162Z" fill="white"/>
<rect x="47" y="49" width="13" height="10" rx="2" fill="#8CBFF0"/>
<path d="M50.588 56H53.5795V55.3395H51.6789V55.3097L52.431 54.5447C53.279 53.7308 53.5134 53.3345 53.5134 52.8423C53.5134 52.1115 52.9189 51.5767 52.0411 51.5767C51.176 51.5767 50.5624 52.1136 50.5624 52.9425H51.3145C51.3145 52.4972 51.5958 52.218 52.0305 52.218C52.4459 52.218 52.7549 52.4716 52.7549 52.8828C52.7549 53.2472 52.5333 53.5071 52.1029 53.9439L50.588 55.429V56ZM55.8657 56.0597C56.8096 56.0597 57.485 55.5398 57.4871 54.8303C57.485 54.2848 57.0823 53.8288 56.5752 53.7436V53.7138C57.0162 53.6158 57.3231 53.2195 57.3252 52.7464C57.3231 52.0753 56.7052 51.5767 55.8657 51.5767C55.0198 51.5767 54.4019 52.0732 54.404 52.7464C54.4019 53.2195 54.7045 53.6158 55.154 53.7138V53.7436C54.6384 53.8288 54.24 54.2848 54.2421 54.8303C54.24 55.5398 54.9133 56.0597 55.8657 56.0597ZM55.8657 55.4503C55.3714 55.4503 55.0518 55.1776 55.056 54.7749C55.0518 54.3572 55.3948 54.0611 55.8657 54.0611C56.3302 54.0611 56.6711 54.3594 56.6753 54.7749C56.6711 55.1776 56.3536 55.4503 55.8657 55.4503ZM55.8657 53.4624C55.4608 53.4624 55.1711 53.2003 55.1753 52.821C55.1711 52.446 55.4523 52.1946 55.8657 52.1946C56.2726 52.1946 56.5518 52.446 56.556 52.821C56.5518 53.2024 56.2641 53.4624 55.8657 53.4624Z" fill="white"/>
<rect x="63" y="49" width="13" height="10" rx="2" fill="#8CBFF0"/>
<path d="M68.0611 56.0597C68.9837 56.0597 69.6271 55.4332 69.6271 54.5661C69.6271 53.7266 69.0433 53.1214 68.2507 53.1214C67.897 53.1214 67.5838 53.2621 67.4219 53.4538H67.3963L67.522 52.2969H69.3991V51.6364H66.8679L66.6399 53.8864L67.3537 54.0036C67.5007 53.8416 67.7777 53.733 68.0398 53.7351C68.5192 53.7372 68.8643 54.0909 68.8622 54.5852C68.8643 55.0732 68.5277 55.4205 68.0611 55.4205C67.6669 55.4205 67.3494 55.1712 67.3217 54.8132H66.5547C66.576 55.5376 67.2088 56.0597 68.0611 56.0597ZM71.8558 51.5767C70.9098 51.5703 70.2812 52.2202 70.2812 53.0724C70.2834 53.8949 70.8693 54.4893 71.6342 54.4893C72.1051 54.4893 72.5142 54.2614 72.7251 53.8864H72.755C72.7528 54.8196 72.4141 55.3757 71.8111 55.3757C71.4339 55.3757 71.1804 55.1584 71.1016 54.8111H70.3239C70.4134 55.5334 70.9844 56.0597 71.8111 56.0597C72.8572 56.0597 73.5241 55.1861 73.522 53.6839C73.5199 52.0945 72.6932 51.581 71.8558 51.5767ZM71.858 52.2159C72.3246 52.2159 72.6676 52.6037 72.6676 53.049C72.6697 53.5007 72.3097 53.8885 71.8494 53.8885C71.3849 53.8885 71.0504 53.522 71.0483 53.0554C71.0483 52.5866 71.3956 52.2159 71.858 52.2159Z" fill="white"/>
<path opacity="0.499" fill-rule="evenodd" clip-rule="evenodd" d="M31 22H76V30H31V22Z" fill="#58A8F7"/>
<path opacity="0.2" fill-rule="evenodd" clip-rule="evenodd" d="M36 35H71V38H36V35Z" fill="#58A8F7"/>
<path opacity="0.2" fill-rule="evenodd" clip-rule="evenodd" d="M36 40H71V43H36V40Z" fill="#58A8F7"/>
<path opacity="0.499" d="M75.011 64H31.989C31.4428 64 31 64.8954 31 66V73C31 74.1046 31.4428 75 31.989 75H75.011C75.5572 75 76 74.1046 76 73V66C76 64.8954 75.5572 64 75.011 64Z" fill="#58A8F7"/>
<path d="M74.5169 65H32.4831C32.2163 65 32 65.4477 32 66V73C32 73.5523 32.2163 74 32.4831 74H74.5169C74.7837 74 75 73.5523 75 73V66C75 65.4477 74.7837 65 74.5169 65Z" fill="white"/>
</svg>
