<svg width="110" height="98" viewBox="0 0 110 98" fill="none" xmlns="http://www.w3.org/2000/svg">
<rect width="110" height="98" rx="6" fill="#E8F2F9"/>
<path d="M0 6C0 2.68629 2.68629 0 6 0H104C107.314 0 110 2.68629 110 6V92C110 95.3137 107.314 98 104 98H6C2.68629 98 0 95.3137 0 92V6Z" fill="#E8F2F9"/>
<path opacity="0.8" d="M50 0H6C2.68629 0 0 2.68629 0 6V92C0 95.3137 2.68629 98 6 98H50V0Z" fill="url(#paint0_linear_5238_153913)"/>
<rect x="59" y="15" width="13" height="10" rx="2" fill="#8CBFF0"/>
<path d="M64.2203 17.6364H63.4681L62.3836 18.3331V19.0575L63.4042 18.4055H63.4298V22H64.2203V17.6364ZM66.9411 22.0831C67.9937 22.0852 68.6222 21.2543 68.6222 19.8224C68.6222 18.3991 67.9894 17.5767 66.9411 17.5767C65.8928 17.5767 65.2622 18.397 65.26 19.8224C65.26 21.2521 65.8886 22.0831 66.9411 22.0831ZM66.9411 21.4162C66.3978 21.4162 66.0569 20.8707 66.059 19.8224C66.0612 18.7827 66.3999 18.2351 66.9411 18.2351C67.4845 18.2351 67.8232 18.7827 67.8254 19.8224C67.8254 20.8707 67.4866 21.4162 66.9411 21.4162Z" fill="white"/>
<rect x="75" y="15" width="13" height="10" rx="2" fill="#8CBFF0"/>
<path d="M78.588 22H81.5795V21.3395H79.6789V21.3097L80.431 20.5447C81.279 19.7308 81.5134 19.3345 81.5134 18.8423C81.5134 18.1115 80.9189 17.5767 80.0411 17.5767C79.176 17.5767 78.5624 18.1136 78.5624 18.9425H79.3145C79.3145 18.4972 79.5958 18.218 80.0305 18.218C80.4459 18.218 80.7549 18.4716 80.7549 18.8828C80.7549 19.2472 80.5333 19.5071 80.1029 19.9439L78.588 21.429V22ZM83.8657 22.0597C84.8096 22.0597 85.485 21.5398 85.4871 20.8303C85.485 20.2848 85.0823 19.8288 84.5752 19.7436V19.7138C85.0162 19.6158 85.3231 19.2195 85.3252 18.7464C85.3231 18.0753 84.7052 17.5767 83.8657 17.5767C83.0198 17.5767 82.4019 18.0732 82.404 18.7464C82.4019 19.2195 82.7045 19.6158 83.154 19.7138V19.7436C82.6384 19.8288 82.24 20.2848 82.2421 20.8303C82.24 21.5398 82.9133 22.0597 83.8657 22.0597ZM83.8657 21.4503C83.3714 21.4503 83.0518 21.1776 83.056 20.7749C83.0518 20.3572 83.3948 20.0611 83.8657 20.0611C84.3302 20.0611 84.6711 20.3594 84.6753 20.7749C84.6711 21.1776 84.3536 21.4503 83.8657 21.4503ZM83.8657 19.4624C83.4608 19.4624 83.1711 19.2003 83.1753 18.821C83.1711 18.446 83.4523 18.1946 83.8657 18.1946C84.2726 18.1946 84.5518 18.446 84.556 18.821C84.5518 19.2024 84.2641 19.4624 83.8657 19.4624Z" fill="white"/>
<rect x="91" y="15" width="13" height="10" rx="2" fill="#8CBFF0"/>
<path d="M96.0611 22.0597C96.9837 22.0597 97.6271 21.4332 97.6271 20.5661C97.6271 19.7266 97.0433 19.1214 96.2507 19.1214C95.897 19.1214 95.5838 19.2621 95.4219 19.4538H95.3963L95.522 18.2969H97.3991V17.6364H94.8679L94.6399 19.8864L95.3537 20.0036C95.5007 19.8416 95.7777 19.733 96.0398 19.7351C96.5192 19.7372 96.8643 20.0909 96.8622 20.5852C96.8643 21.0732 96.5277 21.4205 96.0611 21.4205C95.6669 21.4205 95.3494 21.1712 95.3217 20.8132H94.5547C94.576 21.5376 95.2088 22.0597 96.0611 22.0597ZM99.8558 17.5767C98.9098 17.5703 98.2812 18.2202 98.2812 19.0724C98.2834 19.8949 98.8693 20.4893 99.6342 20.4893C100.105 20.4893 100.514 20.2614 100.725 19.8864H100.755C100.753 20.8196 100.414 21.3757 99.8111 21.3757C99.4339 21.3757 99.1804 21.1584 99.1016 20.8111H98.3239C98.4134 21.5334 98.9844 22.0597 99.8111 22.0597C100.857 22.0597 101.524 21.1861 101.522 19.6839C101.52 18.0945 100.693 17.581 99.8558 17.5767ZM99.858 18.2159C100.325 18.2159 100.668 18.6037 100.668 19.049C100.67 19.5007 100.31 19.8885 99.8494 19.8885C99.3849 19.8885 99.0504 19.522 99.0483 19.0554C99.0483 18.5866 99.3956 18.2159 99.858 18.2159Z" fill="white"/>
<path opacity="0.499" fill-rule="evenodd" clip-rule="evenodd" d="M59 34H104V42H59V34Z" fill="#58A8F7"/>
<path opacity="0.2" fill-rule="evenodd" clip-rule="evenodd" d="M59 48H72V51H59V48Z" fill="#58A8F7"/>
<path opacity="0.2" fill-rule="evenodd" clip-rule="evenodd" d="M77 48H90V51H77V48Z" fill="#58A8F7"/>
<path opacity="0.499" d="M103.011 71H59.989C59.4428 71 59 71.8954 59 73V80C59 81.1046 59.4428 82 59.989 82H103.011C103.557 82 104 81.1046 104 80V73C104 71.8954 103.557 71 103.011 71Z" fill="#58A8F7"/>
<path d="M102.517 72H60.4831C60.2163 72 60 72.4477 60 73V80C60 80.5523 60.2163 81 60.4831 81H102.517C102.784 81 103 80.5523 103 80V73C103 72.4477 102.784 72 102.517 72Z" fill="white"/>
<path d="M48.5714 31H1.42857C0.639593 31 0 31.6396 0 32.4286V60.2857C0 61.0747 0.639593 61.7143 1.42857 61.7143H48.5714C49.3604 61.7143 50 61.0747 50 60.2857V32.4286C50 31.6396 49.3604 31 48.5714 31Z" fill="#A0CDF8"/>
<mask id="mask0_5238_153913" style="mask-type:alpha" maskUnits="userSpaceOnUse" x="0" y="31" width="50" height="31">
<path d="M48.5714 31H1.42857C0.639593 31 0 31.6396 0 32.4286V60.2857C0 61.0747 0.639593 61.7143 1.42857 61.7143H48.5714C49.3604 61.7143 50 61.0747 50 60.2857V32.4286C50 31.6396 49.3604 31 48.5714 31Z" fill="white"/>
</mask>
<g mask="url(#mask0_5238_153913)">
<path opacity="0.197" fill-rule="evenodd" clip-rule="evenodd" d="M39.9997 45.626C48.5499 45.626 53.0973 52.4952 61.4283 61.7144H17.1426C24.3774 54.1221 31.4495 45.626 39.9997 45.626Z" fill="#58A8F7"/>
<path opacity="0.198" fill-rule="evenodd" clip-rule="evenodd" d="M11.4284 42.7007C20.5639 42.7007 26.8319 51.7669 34.9999 61.7143H-11.4287C-3.53895 51.7669 2.29292 42.7007 11.4284 42.7007Z" fill="#0D87FF"/>
<path opacity="0.499" d="M27.1427 42.6155C29.1152 42.6155 30.7141 41.0165 30.7141 39.0441C30.7141 37.0716 29.1152 35.4727 27.1427 35.4727C25.1703 35.4727 23.5713 37.0716 23.5713 39.0441C23.5713 41.0165 25.1703 42.6155 27.1427 42.6155Z" fill="#58A8F7"/>
</g>
<path opacity="0.197" fill-rule="evenodd" clip-rule="evenodd" d="M59 64H95V67H59V64Z" fill="#58A8F7"/>
<defs>
<linearGradient id="paint0_linear_5238_153913" x1="50" y1="45" x2="-1.26316e-06" y2="45.5" gradientUnits="userSpaceOnUse">
<stop stop-color="#E8F2F9"/>
<stop offset="1" stop-color="#A0CDF8"/>
</linearGradient>
</defs>
</svg>
