<svg width="40" height="40" viewBox="0 0 40 40" fill="none" xmlns="http://www.w3.org/2000/svg">
<rect width="40" height="40" rx="8" fill="url(#paint0_linear_403_2479)"/>
<g clip-path="url(#clip0_403_2479)">
<g opacity="0.6">
<path d="M20 16.4595C18.0466 16.4595 16.4595 18.0466 16.4595 20C16.4595 21.9534 18.0466 23.5405 20 23.5405C21.9534 23.5405 23.5405 21.9534 23.5405 20C23.5405 18.0466 21.9534 16.4595 20 16.4595ZM19.7314 18.95C19.2919 18.95 18.9256 19.3163 18.9256 19.7558H17.7536C17.778 18.657 18.657 17.778 19.7314 17.778V18.95Z" fill="white"/>
</g>
<path d="M30.7436 19.2674C29.5472 17.778 25.2741 12.9189 20 12.9189C14.7259 12.9189 10.4528 17.778 9.25638 19.2674C8.91454 19.6825 8.91454 20.293 9.25638 20.7325C10.4528 22.2219 14.7259 27.081 20 27.081C25.2741 27.081 29.5472 22.2219 30.7436 20.7325C31.0855 20.3174 31.0855 19.707 30.7436 19.2674ZM20 25.1276C17.1676 25.1276 14.8724 22.8324 14.8724 20C14.8724 17.1676 17.1676 14.8723 20 14.8723C22.8324 14.8723 25.1276 17.1676 25.1276 20C25.1276 22.8324 22.8324 25.1276 20 25.1276Z" fill="white"/>
</g>
<defs>
<linearGradient id="paint0_linear_403_2479" x1="20" y1="0" x2="20" y2="40" gradientUnits="userSpaceOnUse">
<stop stop-color="#A1A5FF"/>
<stop offset="1" stop-color="#5B86E5"/>
</linearGradient>
<clipPath id="clip0_403_2479">
<rect width="22" height="22" fill="white" transform="translate(9 9)"/>
</clipPath>
</defs>
</svg>
