<svg width="40" height="51" viewBox="0 0 40 51" fill="none" xmlns="http://www.w3.org/2000/svg">
<g clip-path="url(#clip0)">
<path d="M37.0297 0H2.9703C1.33267 0 0 1.33267 0 2.9703V47.7228C0 49.3604 1.33267 50.6931 2.9703 50.6931H37.0297C38.6673 50.6931 40 49.3604 40 47.7228V2.9703C40 1.33267 38.6673 0 37.0297 0ZM26.6713 25.7366L20.5743 19.6396L25.5455 14.6683L36.6149 25.7366H26.6713ZM23.8703 25.7366H8.44455L16.1574 18.0238L23.8703 25.7366ZM2.9703 1.9802H37.0297C37.5762 1.9802 38.0198 2.42376 38.0198 2.9703V6.72673H24.3069C23.7604 6.72673 23.3168 7.1703 23.3168 7.71683C23.3168 8.26337 23.7604 8.70693 24.3069 8.70693H38.0198V24.3416L26.2455 12.5673C25.8594 12.1802 25.2327 12.1802 24.8455 12.5673L19.1733 18.2396L16.8574 15.9238C16.4703 15.5366 15.8436 15.5366 15.4574 15.9238L5.64356 25.7366H1.9802V8.70693H15.6624C16.2089 8.70693 16.6525 8.26337 16.6525 7.71683C16.6525 7.1703 16.2089 6.72673 15.6624 6.72673H1.9802V2.9703C1.9802 2.42376 2.42376 1.9802 2.9703 1.9802ZM37.0297 48.7129H2.9703C2.42376 48.7129 1.9802 48.2693 1.9802 47.7228V27.7168H38.0198V47.7228C38.0198 48.2693 37.5762 48.7129 37.0297 48.7129Z" fill="#555770"/>
<path d="M27.5838 38.41H32.9304C33.4769 38.41 33.9205 37.9664 33.9205 37.4199V32.0734C33.9205 31.5268 33.4769 31.0833 32.9304 31.0833H27.5838C27.0373 31.0833 26.5938 31.5268 26.5938 32.0734V37.4199C26.5938 37.9664 27.0363 38.41 27.5838 38.41ZM28.5739 33.0634H31.9403V36.4298H28.5739V33.0634Z" fill="#555770"/>
<path d="M17.2606 38.41H22.6071C23.1537 38.41 23.5972 37.9664 23.5972 37.4199V32.0734C23.5972 31.5268 23.1537 31.0833 22.6071 31.0833H17.2606C16.7141 31.0833 16.2705 31.5268 16.2705 32.0734V37.4199C16.2705 37.9664 16.7141 38.41 17.2606 38.41ZM18.2507 33.0634H21.617V36.4298H18.2507V33.0634Z" fill="#555770"/>
<path d="M12.4157 31.0833H7.0692C6.52267 31.0833 6.0791 31.5268 6.0791 32.0734V37.4199C6.0791 37.9664 6.52267 38.41 7.0692 38.41H12.4157C12.9623 38.41 13.4058 37.9664 13.4058 37.4199V32.0734C13.4058 31.5258 12.9633 31.0833 12.4157 31.0833ZM11.4256 36.4298H8.0593V33.0634H11.4256V36.4298Z" fill="#555770"/>
<path d="M7.32629 11.0833C5.46986 11.0833 3.95996 12.5932 3.95996 14.4496C3.95996 16.306 5.46986 17.8159 7.32629 17.8159C9.18273 17.8159 10.6926 16.306 10.6926 14.4496C10.6926 12.5932 9.18273 11.0833 7.32629 11.0833ZM7.32629 15.8357C6.56194 15.8357 5.94016 15.2139 5.94016 14.4496C5.94016 13.6852 6.56194 13.0634 7.32629 13.0634C8.09065 13.0634 8.71243 13.6852 8.71243 14.4496C8.71243 15.2139 8.09065 15.8357 7.32629 15.8357Z" fill="#555770"/>
<path d="M5.90807 5.34348H8.74668C9.29322 5.34348 9.73678 4.89991 9.73678 4.35338C9.73678 3.80685 9.29322 3.36328 8.74668 3.36328H5.90807C5.36153 3.36328 4.91797 3.80685 4.91797 4.35338C4.91797 4.89991 5.36054 5.34348 5.90807 5.34348Z" fill="#555770"/>
<path d="M32.2772 5.34348H33.9604C34.5069 5.34348 34.9505 4.89991 34.9505 4.35338C34.9505 3.80685 34.5069 3.36328 33.9604 3.36328H32.2772C31.7307 3.36328 31.2871 3.80685 31.2871 4.35338C31.2871 4.89991 31.7307 5.34348 32.2772 5.34348Z" fill="#555770"/>
<path d="M20.0145 6.72681C19.7541 6.72681 19.4987 6.83176 19.3145 7.01691C19.1304 7.20106 19.0244 7.45651 19.0244 7.71691C19.0244 7.9773 19.1304 8.23275 19.3145 8.41691C19.4987 8.60106 19.7541 8.70701 20.0145 8.70701C20.2749 8.70701 20.5304 8.60106 20.7145 8.41691C20.8987 8.23275 21.0046 7.9773 21.0046 7.71691C21.0046 7.45651 20.8987 7.20106 20.7145 7.01691C20.5304 6.83176 20.2749 6.72681 20.0145 6.72681Z" fill="#555770"/>
</g>
<defs>
<clipPath id="clip0">
<rect width="40" height="50.6931" fill="white"/>
</clipPath>
</defs>
</svg>
